  0
SECTION
  2
HEADER
  9
$ACADVER
  1
AC1014
  9
$ACADMAINTVER
 70
     9
  9
$DWGCODEPAGE
  3
ANSI_1252
  9
$INSBASE
 10
0.0
 20
0.0
 30
0.0
  9
$EXTMIN
 10
14.99711579137215
 20
10.64799720265006
 30
-0.0015258207003583
  9
$EXTMAX
 10
256.6992787600455
 20
115.3624544404772
 30
0.0000000349246037
  9
$LIMMIN
 10
0.0
 20
0.0
  9
$LIMMAX
 10
12.0
 20
9.0
  9
$ORTHOMODE
 70
     0
  9
$REGENMODE
 70
     1
  9
$FILLMODE
 70
     1
  9
$QTEXTMODE
 70
     0
  9
$MIRRTEXT
 70
     1
  9
$DRAGMODE
 70
     2
  9
$LTSCALE
 40
1.0
  9
$OSMODE
 70
    37
  9
$ATTMODE
 70
     1
  9
$TEXTSIZE
 40
0.2
  9
$TRACEWID
 40
0.05
  9
$TEXTSTYLE
  7
STANDARD
  9
$CLAYER
  8
DIM
  9
$CELTYPE
  6
BYLAYER
  9
$CECOLOR
 62
   256
  9
$CELTSCALE
 40
1.0
  9
$DELOBJ
 70
     1
  9
$DISPSILH
 70
     0
  9
$DIMSCALE
 40
1.0
  9
$DIMASZ
 40
0.18
  9
$DIMEXO
 40
0.0625
  9
$DIMDLI
 40
0.38
  9
$DIMRND
 40
0.0
  9
$DIMDLE
 40
0.0
  9
$DIMEXE
 40
0.18
  9
$DIMTP
 40
0.0
  9
$DIMTM
 40
0.0
  9
$DIMTXT
 40
0.18
  9
$DIMCEN
 40
0.09
  9
$DIMTSZ
 40
0.0
  9
$DIMTOL
 70
     0
  9
$DIMLIM
 70
     0
  9
$DIMTIH
 70
     1
  9
$DIMTOH
 70
     1
  9
$DIMSE1
 70
     0
  9
$DIMSE2
 70
     0
  9
$DIMTAD
 70
     0
  9
$DIMZIN
 70
     0
  9
$DIMBLK
  1

  9
$DIMASO
 70
     1
  9
$DIMSHO
 70
     1
  9
$DIMPOST
  1

  9
$DIMAPOST
  1

  9
$DIMALT
 70
     0
  9
$DIMALTD
 70
     2
  9
$DIMALTF
 40
25.4
  9
$DIMLFAC
 40
1.0
  9
$DIMTOFL
 70
     0
  9
$DIMTVP
 40
0.0
  9
$DIMTIX
 70
     0
  9
$DIMSOXD
 70
     0
  9
$DIMSAH
 70
     0
  9
$DIMBLK1
  1

  9
$DIMBLK2
  1

  9
$DIMSTYLE
  2
STANDARD
  9
$DIMCLRD
 70
     0
  9
$DIMCLRE
 70
     0
  9
$DIMCLRT
 70
     0
  9
$DIMTFAC
 40
1.0
  9
$DIMGAP
 40
0.09
  9
$DIMJUST
 70
     0
  9
$DIMSD1
 70
     0
  9
$DIMSD2
 70
     0
  9
$DIMTOLJ
 70
     1
  9
$DIMTZIN
 70
     0
  9
$DIMALTZ
 70
     0
  9
$DIMALTTZ
 70
     0
  9
$DIMFIT
 70
     3
  9
$DIMUPT
 70
     0
  9
$DIMUNIT
 70
     2
  9
$DIMDEC
 70
     4
  9
$DIMTDEC
 70
     4
  9
$DIMALTU
 70
     2
  9
$DIMALTTD
 70
     2
  9
$DIMTXSTY
  7
STANDARD
  9
$DIMAUNIT
 70
     0
  9
$LUNITS
 70
     2
  9
$LUPREC
 70
     4
  9
$SKETCHINC
 40
0.1
  9
$FILLETRAD
 40
0.0
  9
$AUNITS
 70
     0
  9
$AUPREC
 70
     0
  9
$MENU
  1
.
  9
$ELEVATION
 40
0.0
  9
$PELEVATION
 40
0.0
  9
$THICKNESS
 40
0.0
  9
$LIMCHECK
 70
     0
  9
$BLIPMODE
 70
     0
  9
$CHAMFERA
 40
0.5
  9
$CHAMFERB
 40
0.5
  9
$CHAMFERC
 40
1.0
  9
$CHAMFERD
 40
0.0
  9
$SKPOLY
 70
     0
  9
$TDCREATE
 40
2455121.766747581
  9
$TDUPDATE
 40
2455121.797546470
  9
$TDINDWG
 40
0.0307998032
  9
$TDUSRTIMER
 40
0.0307996181
  9
$USRTIMER
 70
     1
  9
$ANGBASE
 50
0.0
  9
$ANGDIR
 70
     0
  9
$PDMODE
 70
     0
  9
$PDSIZE
 40
0.0
  9
$PLINEWID
 40
0.0
  9
$COORDS
 70
     2
  9
$SPLFRAME
 70
     0
  9
$SPLINETYPE
 70
     6
  9
$SPLINESEGS
 70
     8
  9
$ATTDIA
 70
     0
  9
$ATTREQ
 70
     1
  9
$HANDLING
 70
 22529
  9
$HANDSEED
  5
547
  9
$SURFTAB1
 70
     6
  9
$SURFTAB2
 70
     6
  9
$SURFTYPE
 70
     6
  9
$SURFU
 70
     6
  9
$SURFV
 70
     6
  9
$UCSNAME
  2

  9
$UCSORG
 10
0.0
 20
0.0
 30
0.0
  9
$UCSXDIR
 10
1.0
 20
0.0
 30
0.0
  9
$UCSYDIR
 10
0.0
 20
1.0
 30
0.0
  9
$PUCSNAME
  2

  9
$PUCSORG
 10
0.0
 20
0.0
 30
0.0
  9
$PUCSXDIR
 10
1.0
 20
0.0
 30
0.0
  9
$PUCSYDIR
 10
0.0
 20
1.0
 30
0.0
  9
$USERI1
 70
     0
  9
$USERI2
 70
     0
  9
$USERI3
 70
     0
  9
$USERI4
 70
     0
  9
$USERI5
 70
     0
  9
$USERR1
 40
0.0
  9
$USERR2
 40
0.0
  9
$USERR3
 40
0.0
  9
$USERR4
 40
0.0
  9
$USERR5
 40
0.0
  9
$WORLDVIEW
 70
     1
  9
$SHADEDGE
 70
     3
  9
$SHADEDIF
 70
    70
  9
$TILEMODE
 70
     1
  9
$MAXACTVP
 70
    64
  9
$PINSBASE
 10
0.0
 20
0.0
 30
0.0
  9
$PLIMCHECK
 70
     0
  9
$PEXTMIN
 10
0.0
 20
0.0
 30
0.0
  9
$PEXTMAX
 10
0.0
 20
0.0
 30
0.0
  9
$PLIMMIN
 10
0.0
 20
0.0
  9
$PLIMMAX
 10
12.0
 20
9.0
  9
$UNITMODE
 70
     0
  9
$VISRETAIN
 70
     1
  9
$PLINEGEN
 70
     0
  9
$PSLTSCALE
 70
     1
  9
$TREEDEPTH
 70
  3020
  9
$PICKSTYLE
 70
     1
  9
$CMLSTYLE
  2
STANDARD
  9
$CMLJUST
 70
     0
  9
$CMLSCALE
 40
1.0
  9
$PROXYGRAPHICS
 70
     1
  9
$MEASUREMENT
 70
     0
  0
ENDSEC
  0
SECTION
  2
CLASSES
  0
CLASS
  1
ACDBDICTIONARYWDFLT
  2
AcDbDictionaryWithDefault
  3
AutoCAD 2000
 90
        0
280
     0
281
     0
  0
CLASS
  1
ACDBPLACEHOLDER
  2
AcDbPlaceHolder
  3
AutoCAD 2000
 90
        0
280
     0
281
     0
  0
CLASS
  1
LAYOUT
  2
AcDbLayout
  3
AutoCAD 2000
 90
        0
280
     0
281
     0
  0
CLASS
  1
DICTIONARYVAR
  2
AcDbDictionaryVar
  3
AutoCAD 2000
 90
        0
280
     0
281
     0
  0
CLASS
  1
LONG_TRANSACTION
  2
AcDbLongTransaction
  3
AutoCAD 2000
 90
        0
280
     0
281
     0
  0
CLASS
  1
LWPOLYLINE
  2
AcDbPolyline
  3
AutoCAD 2000
 90
        0
280
     0
281
     1
  0
CLASS
  1
HATCH
  2
AcDbHatch
  3
AutoCAD 2000
 90
        0
280
     0
281
     1
  0
CLASS
  1
XRECORD
  2
AcDbXrecord
  3
AutoCAD 2000
 90
        0
280
     0
281
     0
  0
ENDSEC
  0
SECTION
  2
TABLES
  0
TABLE
  2
VPORT
  5
8
330
0
100
AcDbSymbolTable
 70
     6
  0
VPORT
  5
520
330
8
100
AcDbSymbolTableRecord
100
AcDbViewportTableRecord
  2
*ACTIVE
 70
     0
 10
0.0
 20
0.0
 11
1.0
 21
1.0
 12
347.733036173871
 22
154.6644314419676
 13
0.0
 23
0.0
 14
0.5
 24
0.5
 15
0.5
 25
0.5
 16
0.0
 26
0.0
 36
1.0
 17
0.0
 27
0.0
 37
0.0
 40
632.0453027771984
 41
1.563564875491481
 42
50.0
 43
0.0
 44
0.0
 50
0.0
 51
0.0
 71
     0
 72
   100
 73
     1
 74
     3
 75
     0
 76
     0
 77
     0
 78
     0
  0
ENDTAB
  0
TABLE
  2
LTYPE
  5
5
330
0
100
AcDbSymbolTable
 70
     1
  0
LTYPE
  5
14
330
5
100
AcDbSymbolTableRecord
100
AcDbLinetypeTableRecord
  2
BYBLOCK
 70
     0
  3

 72
    65
 73
     0
 40
0.0
  0
LTYPE
  5
15
330
5
100
AcDbSymbolTableRecord
100
AcDbLinetypeTableRecord
  2
BYLAYER
 70
     0
  3

 72
    65
 73
     0
 40
0.0
  0
LTYPE
  5
16
330
5
100
AcDbSymbolTableRecord
100
AcDbLinetypeTableRecord
  2
CONTINUOUS
 70
     0
  3
Solid line
 72
    65
 73
     0
 40
0.0
  0
ENDTAB
  0
TABLE
  2
LAYER
  5
2
330
0
100
AcDbSymbolTable
 70
     5
  0
LAYER
  5
10
330
2
100
AcDbSymbolTableRecord
100
AcDbLayerTableRecord
  2
0
 70
     0
 62
     7
  6
CONTINUOUS
  0
LAYER
  5
85
330
2
100
AcDbSymbolTableRecord
100
AcDbLayerTableRecord
  2
DEFPOINTS
 70
     0
 62
     7
  6
CONTINUOUS
  0
LAYER
  5
87
330
2
100
AcDbSymbolTableRecord
100
AcDbLayerTableRecord
  2
DIM
 70
     0
 62
     5
  6
CONTINUOUS
  0
ENDTAB
  0
TABLE
  2
STYLE
  5
3
330
0
100
AcDbSymbolTable
 70
     1
  0
STYLE
  5
11
330
3
100
AcDbSymbolTableRecord
100
AcDbTextStyleTableRecord
  2
STANDARD
 70
     0
 40
0.0
 41
1.0
 50
0.0
 71
     0
 42
0.2
  3
txt
  4

  0
ENDTAB
  0
TABLE
  2
VIEW
  5
6
330
0
100
AcDbSymbolTable
 70
     0
  0
ENDTAB
  0
TABLE
  2
UCS
  5
7
330
0
100
AcDbSymbolTable
 70
     0
  0
ENDTAB
  0
TABLE
  2
APPID
  5
9
330
0
100
AcDbSymbolTable
 70
     1
  0
APPID
  5
12
330
9
100
AcDbSymbolTableRecord
100
AcDbRegAppTableRecord
  2
ACAD
 70
     0
  0
ENDTAB
  0
TABLE
  2
DIMSTYLE
  5
A
330
0
100
AcDbSymbolTable
 70
     6
  0
DIMSTYLE
105
27
330
A
100
AcDbSymbolTableRecord
100
AcDbDimStyleTableRecord
  2
STANDARD
 70
     0
  3

  4

  5

  6

  7

 40
1.0
 41
0.18
 42
0.0625
 43
0.38
 44
0.18
 45
0.0
 46
0.0
 47
0.0
 48
0.0
140
0.18
141
0.09
142
0.0
143
25.4
144
1.0
145
0.0
146
1.0
147
0.09
 71
     0
 72
     0
 73
     1
 74
     1
 75
     0
 76
     0
 77
     0
 78
     0
170
     0
171
     2
172
     0
173
     0
174
     0
175
     0
176
     0
177
     0
178
     0
270
     2
271
     4
272
     4
273
     2
274
     2
340
11
275
     0
280
     0
281
     0
282
     0
283
     1
284
     0
285
     0
286
     0
287
     3
288
     0
  0
DIMSTYLE
105
88
330
A
100
AcDbSymbolTableRecord
100
AcDbDimStyleTableRecord
  2
DIMSTYLE_6
 70
     0
  3

  4

  5
_FILLED
  6
_FILLED
  7
_FILLED
 40
1.0
 41
4.0
 42
0.0625
 43
0.38
 44
0.18
 45
0.0
 46
0.0
 47
0.2
 48
0.2
140
3.5
141
0.09
142
0.0
143
25.4
144
1.0
145
0.0
146
1.0
147
0.09
 71
     0
 72
     0
 73
     0
 74
     0
 75
     0
 76
     0
 77
     1
 78
     8
170
     0
171
     2
172
     0
173
     0
174
     0
175
     0
176
     0
177
     0
178
     0
270
     2
271
     1
272
     1
273
     2
274
     2
340
11
275
     0
280
     0
281
     0
282
     0
283
     1
284
     8
285
     0
286
     0
287
     3
288
     0
  0
DIMSTYLE
105
89
330
A
100
AcDbSymbolTableRecord
100
AcDbDimStyleTableRecord
  2
DIMSTYLE_7
 70
     0
  3

  4

  5
_FILLED
  6
_FILLED
  7
_FILLED
 40
1.0
 41
4.0
 42
0.0625
 43
0.38
 44
0.18
 45
0.0
 46
0.0
 47
3.0
 48
3.0
140
3.5
141
0.09
142
0.0
143
25.4
144
3.333333333299999
145
0.0
146
1.0
147
0.09
 71
     1
 72
     0
 73
     0
 74
     0
 75
     0
 76
     0
 77
     1
 78
     8
170
     0
171
     2
172
     0
173
     0
174
     0
175
     0
176
     0
177
     0
178
     0
270
     2
271
     1
272
     1
273
     2
274
     2
340
11
275
     0
280
     0
281
     0
282
     0
283
     1
284
     8
285
     0
286
     0
287
     3
288
     0
  0
DIMSTYLE
105
8A
330
A
100
AcDbSymbolTableRecord
100
AcDbDimStyleTableRecord
  2
DIMSTYLE_9
 70
     0
  3

  4

  5
_FILLED
  6

  7

 40
1.0
 41
4.0
 42
0.0625
 43
0.38
 44
0.18
 45
0.0
 46
0.0
 47
1.8
 48
1.8
140
3.5
141
0.09
142
0.0
143
25.4
144
1.0
145
0.0
146
1.0
147
0.09
 71
     0
 72
     0
 73
     0
 74
     0
 75
     0
 76
     0
 77
     1
 78
     8
170
     0
171
     2
172
     0
173
     0
174
     0
175
     0
176
     0
177
     0
178
     0
270
     2
271
     2
272
     2
273
     2
274
     2
340
11
275
     0
280
     0
281
     0
282
     0
283
     1
284
     8
285
     0
286
     0
287
     3
288
     0
  0
DIMSTYLE
105
8B
330
A
100
AcDbSymbolTableRecord
100
AcDbDimStyleTableRecord
  2
DIMSTYLE_13
 70
     0
  3

  4

  5
_FILLED
  6
_FILLED
  7
_FILLED
 40
1.0
 41
4.0
 42
0.0625
 43
0.38
 44
0.18
 45
0.0
 46
0.0
 47
1.0
 48
1.0
140
3.5
141
0.09
142
0.0
143
25.4
144
2.0
145
0.0
146
1.0
147
0.09
 71
     1
 72
     0
 73
     0
 74
     0
 75
     0
 76
     0
 77
     1
 78
     8
170
     0
171
     2
172
     0
173
     0
174
     0
175
     0
176
     0
177
     0
178
     0
270
     2
271
     1
272
     1
273
     2
274
     2
340
11
275
     0
280
     0
281
     0
282
     0
283
     1
284
     8
285
     0
286
     0
287
     3
288
     0
  0
DIMSTYLE
105
8C
102
{ACAD_REACTORS
330
EE
102
}
330
A
100
AcDbSymbolTableRecord
100
AcDbDimStyleTableRecord
  2
GROOT
 70
     0
  3

  4

  5
_FILLED
  6

  7

 40
0.3
 41
4.0
 42
0.0625
 43
0.38
 44
0.18
 45
0.0
 46
0.0
 47
1.8
 48
1.8
140
3.5
141
0.09
142
0.0
143
25.4
144
1.0
145
0.0
146
1.0
147
0.09
 71
     0
 72
     0
 73
     0
 74
     0
 75
     0
 76
     0
 77
     1
 78
     8
170
     0
171
     2
172
     0
173
     0
174
     0
175
     0
176
     0
177
     0
178
     0
270
     2
271
     2
272
     2
273
     2
274
     2
340
11
275
     0
280
     0
281
     0
282
     0
283
     1
284
     8
285
     0
286
     0
287
     3
288
     0
  0
ENDTAB
  0
TABLE
  2
BLOCK_RECORD
  5
1
330
0
100
AcDbSymbolTable
 70
     5
  0
BLOCK_RECORD
  5
1F
102
{ACAD_XDICTIONARY
360
541
102
}
330
1
100
AcDbSymbolTableRecord
100
AcDbBlockTableRecord
  2
*MODEL_SPACE
  0
BLOCK_RECORD
  5
58
102
{ACAD_XDICTIONARY
360
543
102
}
330
1
100
AcDbSymbolTableRecord
100
AcDbBlockTableRecord
  2
*PAPER_SPACE
  0
BLOCK_RECORD
  5
74
330
1
100
AcDbSymbolTableRecord
100
AcDbBlockTableRecord
  2
_FILLED
  0
BLOCK_RECORD
  5
78
330
1
100
AcDbSymbolTableRecord
100
AcDbBlockTableRecord
  2
*D2
  0
BLOCK_RECORD
  5
501
330
1
100
AcDbSymbolTableRecord
100
AcDbBlockTableRecord
  2
*D4
  0
ENDTAB
  0
ENDSEC
  0
SECTION
  2
BLOCKS
  0
BLOCK
  5
20
330
1F
100
AcDbEntity
  8
0
100
AcDbBlockBegin
  2
*MODEL_SPACE
 70
     0
 10
0.0
 20
0.0
 30
0.0
  3
*MODEL_SPACE
  1

  0
ENDBLK
  5
21
330
1F
100
AcDbEntity
  8
0
100
AcDbBlockEnd
  0
BLOCK
  5
5A
330
58
100
AcDbEntity
 67
     1
  8
0
100
AcDbBlockBegin
  2
*PAPER_SPACE
 70
     0
 10
0.0
 20
0.0
 30
0.0
  3
*PAPER_SPACE
  1

  0
ENDBLK
  5
5B
330
58
100
AcDbEntity
 67
     1
  8
0
100
AcDbBlockEnd
  0
BLOCK
  5
76
330
74
100
AcDbEntity
  8
0
100
AcDbBlockBegin
  2
_FILLED
 70
     0
 10
0.0
 20
0.0
 30
0.0
  3
_FILLED
  1

  0
SOLID
  5
75
330
74
100
AcDbEntity
  8
0
  6
BYBLOCK
 62
     0
100
AcDbTrace
 10
0.0
 20
0.0
 30
0.0
 11
-1.0
 21
0.1875
 31
0.0
 12
-1.0
 22
-0.1875
 32
0.0
 13
-1.0
 23
-0.1875
 33
0.0
  0
ENDBLK
  5
77
330
74
100
AcDbEntity
  8
0
  6
BYBLOCK
 62
     0
100
AcDbBlockEnd
  0
BLOCK
  5
82
330
78
100
AcDbEntity
  8
0
100
AcDbBlockBegin
  2
*D2
 70
     1
 10
0.0
 20
0.0
 30
0.0
  3
*D2
  1

  0
LINE
  5
79
330
78
100
AcDbEntity
  8
DIM
 62
     0
100
AcDbLine
 10
540.6526112950152
 20
-824.8525187929176
 30
0.0
 11
528.1035951699979
 21
-824.8525187929176
 31
0.0
  0
LINE
  5
7A
330
78
100
AcDbEntity
  8
DIM
 62
     0
100
AcDbLine
 10
540.6526112950152
 20
-927.8525187929254
 30
0.0
 11
528.1035951699979
 21
-927.8525187929254
 31
0.0
  0
LINE
  5
7B
330
78
100
AcDbEntity
  8
DIM
 62
     0
100
AcDbLine
 10
528.1575951699978
 20
-826.0525187929177
 30
0.0
 11
528.1575951699978
 21
-926.6525187929254
 31
0.0
  0
INSERT
  5
7C
330
78
100
AcDbEntity
  8
DIM
 62
     0
100
AcDbBlockReference
  2
_FILLED
 10
528.1575951699978
 20
-824.8525187929176
 30
0.0
 41
1.199999999999999
 42
1.199999999999999
 43
1.199999999999999
 50
90.0
  0
INSERT
  5
7D
330
78
100
AcDbEntity
  8
DIM
 62
     0
100
AcDbBlockReference
  2
_FILLED
 10
528.1575951699978
 20
-927.8525187929254
 30
0.0
 41
1.199999999999999
 42
1.199999999999999
 43
1.199999999999999
 50
270.0
  0
MTEXT
  5
7E
330
78
100
AcDbEntity
  8
DIM
 62
     0
100
AcDbMText
 10
527.605595169998
 20
-876.3525187929214
 30
0.0
 40
1.05
 41
0.0
 71
     5
 72
     1
  1
\A1;103
 11
0.0000000000000001
 21
1.0
 31
0.0
1001
ACAD
1000
MTEXTBEGIN
1070
    73
1070
     1
1070
    44
1040
1.0
1070
    74
1070
     0
1000
MTEXTEND
  0
POINT
  5
7F
330
78
100
AcDbEntity
  8
DEFPOINTS
 62
     0
100
AcDbPoint
 10
540.6713612950152
 20
-824.8525187929176
 30
0.0
  0
POINT
  5
80
330
78
100
AcDbEntity
  8
DEFPOINTS
 62
     0
100
AcDbPoint
 10
540.6713612950152
 20
-927.8525187929254
 30
0.0
  0
POINT
  5
81
330
78
100
AcDbEntity
  8
DEFPOINTS
 62
     0
100
AcDbPoint
 10
528.1575951699978
 20
-927.8525187929254
 30
0.0
  0
ENDBLK
  5
83
330
78
100
AcDbEntity
  8
0
100
AcDbBlockEnd
  0
BLOCK
  5
50B
330
501
100
AcDbEntity
  8
0
100
AcDbBlockBegin
  2
*D4
 70
     1
 10
0.0
 20
0.0
 30
0.0
  3
*D4
  1

  0
LINE
  5
50D
330
501
100
AcDbEntity
  8
DIM
 62
     0
100
AcDbLine
 10
276.1172380809032
 20
114.0525813823791
 30
0.0
 11
263.5682219558858
 21
114.0525813823791
 31
0.0
  0
LINE
  5
50E
330
501
100
AcDbEntity
  8
DIM
 62
     0
100
AcDbLine
 10
276.1172380809032
 20
11.05258138237138
 30
0.0
 11
263.5682219558858
 21
11.05258138237138
 31
0.0
  0
LINE
  5
50F
330
501
100
AcDbEntity
  8
DIM
 62
     0
100
AcDbLine
 10
263.6222219558858
 20
112.8525813823791
 30
0.0
 11
263.6222219558858
 21
12.25258138237139
 31
0.0
  0
INSERT
  5
510
330
501
100
AcDbEntity
  8
DIM
 62
     0
100
AcDbBlockReference
  2
_FILLED
 10
263.6222219558858
 20
114.0525813823791
 30
0.0
 41
1.199999999999999
 42
1.199999999999999
 43
1.199999999999999
 50
90.0
  0
INSERT
  5
511
330
501
100
AcDbEntity
  8
DIM
 62
     0
100
AcDbBlockReference
  2
_FILLED
 10
263.6222219558858
 20
11.05258138237138
 30
0.0
 41
1.199999999999999
 42
1.199999999999999
 43
1.199999999999999
 50
270.0
  0
MTEXT
  5
512
330
501
100
AcDbEntity
  8
DIM
 62
     0
100
AcDbMText
 10
263.0702219558858
 20
62.55258138237529
 30
0.0
 40
1.05
 41
0.0
 71
     5
 72
     1
  1
\A1;103
 11
0.0000000000000001
 21
1.0
 31
0.0
1001
ACAD
1000
MTEXTBEGIN
1070
    73
1070
     1
1070
    44
1040
1.0
1070
    74
1070
     0
1000
MTEXTEND
  0
POINT
  5
513
330
501
100
AcDbEntity
  8
DEFPOINTS
 62
     0
100
AcDbPoint
 10
276.1359880809032
 20
114.0525813823791
 30
0.0
  0
POINT
  5
514
330
501
100
AcDbEntity
  8
DEFPOINTS
 62
     0
100
AcDbPoint
 10
276.1359880809032
 20
11.05258138237138
 30
0.0
  0
POINT
  5
515
330
501
100
AcDbEntity
  8
DEFPOINTS
 62
     0
100
AcDbPoint
 10
263.6222219558858
 20
11.05258138237138
 30
0.0
  0
ENDBLK
  5
50C
330
501
100
AcDbEntity
  8
0
100
AcDbBlockEnd
  0
ENDSEC
  0
SECTION
  2
ENTITIES
  0
LINE
  5
2C9
330
1F
100
AcDbEntity
  8
0
100
AcDbLine
 10
185.411606288504
 20
61.88022552092184
 30
0.0
 11
215.104885271362
 21
61.88022552092196
 31
0.0
  0
LINE
  5
2CA
330
1F
100
AcDbEntity
  8
0
100
AcDbLine
 10
196.2089803101417
 20
74.4318219695449
 30
0.0
 11
236.2089803101417
 21
74.4318219695449
 31
0.0
  0
LINE
  5
2CC
330
1F
100
AcDbEntity
  8
0
100
AcDbLine
 10
195.7089803101416
 20
73.4318219695449
 30
0.0
 11
196.2089803101417
 21
73.4318219695449
 31
0.0
  0
LINE
  5
2CE
330
1F
100
AcDbEntity
  8
0
100
AcDbLine
 10
195.7089803101416
 20
72.43182196954478
 30
0.0
 11
236.2089803101417
 21
72.43182196954478
 31
0.0
  0
LINE
  5
2CF
330
1F
100
AcDbEntity
  8
0
100
AcDbLine
 10
189.7913887728874
 20
72.40907811199099
 30
0.0
 11
234.7913887728874
 21
72.40907811199099
 31
0.0
  0
LINE
  5
2D1
330
1F
100
AcDbEntity
  8
0
100
AcDbLine
 10
189.2913887728873
 20
71.40907811199099
 30
0.0
 11
189.7913887728874
 21
71.40907811199099
 31
0.0
  0
LINE
  5
2D3
330
1F
100
AcDbEntity
  8
0
100
AcDbLine
 10
189.2913887728872
 20
70.40907811199088
 30
0.0
 11
234.7913887728874
 21
70.40907811199088
 31
0.0
  0
LINE
  5
2D4
330
1F
100
AcDbEntity
  8
0
100
AcDbLine
 10
187.0487162748004
 20
70.31716390505221
 30
0.0
 11
232.0487162748004
 21
70.31716390505221
 31
0.0
  0
LINE
  5
2D6
330
1F
100
AcDbEntity
  8
0
100
AcDbLine
 10
186.5487162748004
 20
69.31716390505221
 30
0.0
 11
187.0487162748004
 21
69.31716390505221
 31
0.0
  0
LINE
  5
2D8
330
1F
100
AcDbEntity
  8
0
100
AcDbLine
 10
186.5487162748003
 20
68.3171639050521
 30
0.0
 11
232.0487162748004
 21
68.3171639050521
 31
0.0
  0
LINE
  5
2D9
330
1F
100
AcDbEntity
  8
0
100
AcDbLine
 10
184.7772115405778
 20
68.22524969811343
 30
0.0
 11
229.7772115405778
 21
68.22524969811343
 31
0.0
  0
LINE
  5
2DB
330
1F
100
AcDbEntity
  8
0
100
AcDbLine
 10
184.2772115405778
 20
67.22524969811343
 30
0.0
 11
184.7772115405778
 21
67.22524969811343
 31
0.0
  0
LINE
  5
2DD
330
1F
100
AcDbEntity
  8
0
100
AcDbLine
 10
184.2772115405777
 20
66.22524969811331
 30
0.0
 11
229.7772115405778
 21
66.22524969811331
 31
0.0
  0
LINE
  5
2DE
330
1F
100
AcDbEntity
  8
0
100
AcDbLine
 10
182.3406273206374
 20
66.13333549117465
 30
0.0
 11
227.3406273206374
 21
66.13333549117465
 31
0.0
  0
LINE
  5
2E0
330
1F
100
AcDbEntity
  8
0
100
AcDbLine
 10
181.8406273206374
 20
65.13333549117465
 30
0.0
 11
182.3406273206374
 21
65.13333549117465
 31
0.0
  0
LINE
  5
2E2
330
1F
100
AcDbEntity
  8
0
100
AcDbLine
 10
181.8406273206373
 20
64.13333549117453
 30
0.0
 11
227.3406273206374
 21
64.13333549117453
 31
0.0
  0
LINE
  5
2E3
330
1F
100
AcDbEntity
  8
0
100
AcDbLine
 10
179.7114163836041
 20
64.01110342403149
 30
0.0
 11
224.7114163836041
 21
64.01110342403149
 31
0.0
  0
LINE
  5
2E5
330
1F
100
AcDbEntity
  8
0
100
AcDbLine
 10
179.211416383604
 20
63.01110342403148
 30
0.0
 11
179.7114163836041
 21
63.01110342403148
 31
0.0
  0
LINE
  5
2E7
330
1F
100
AcDbEntity
  8
0
100
AcDbLine
 10
179.2114163836039
 20
62.01110342403137
 30
0.0
 11
224.7114163836041
 21
62.01110342403137
 31
0.0
  0
LINE
  5
2E8
330
1F
100
AcDbEntity
  8
0
100
AcDbLine
 10
185.4116062885037
 20
61.38022552092161
 30
0.0
 11
215.104885271362
 21
61.3802255209223
 31
0.0
  0
LINE
  5
2E9
330
1F
100
AcDbEntity
  8
0
100
AcDbLine
 10
198.9361198027926
 20
75.23847043867021
 30
0.0
 11
225.0399788629211
 21
75.23847043867021
 31
0.0
  0
LINE
  5
2EA
330
1F
100
AcDbEntity
  8
0
100
AcDbLine
 10
198.9361198027926
 20
74.73847043867022
 30
0.0
 11
225.0399788629211
 21
74.73847043867022
 31
0.0
  0
LINE
  5
2EC
330
1F
100
AcDbEntity
  8
0
100
AcDbLine
 10
173.0326900709067
 20
59.12840479229124
 30
0.0
 11
143.4953238757783
 21
32.53284081245306
 31
0.0
  0
LINE
  5
2EF
330
1F
100
AcDbEntity
  8
0
100
AcDbLine
 10
174.7055165867981
 20
57.27054272859231
 30
0.0
 11
146.4973917710981
 21
31.8718330626325
 31
0.0
  0
ARC
  5
2F7
330
1F
100
AcDbEntity
  8
0
100
AcDbCircle
 10
49.49999600585539
 20
259.6556582841529
 30
0.0
 40
249.0
100
AcDbArc
 50
270.0
 51
291.5711780243002
  0
ARC
  5
2F8
330
1F
100
AcDbEntity
  8
0
100
AcDbCircle
 10
49.49999600585539
 20
259.6556582841529
 30
0.0
 40
246.0
100
AcDbArc
 50
270.0
 51
290.9369277226987
  0
LINE
  5
300
330
1F
100
AcDbEntity
  8
0
100
AcDbLine
 10
14.99999600575551
 20
13.6556582841531
 30
0.0
 11
49.49999600585534
 21
13.65565828415299
 31
0.0
  0
LINE
  5
301
330
1F
100
AcDbEntity
  8
0
100
AcDbLine
 10
49.49999600585534
 20
10.65565828415299
 30
0.0
 11
14.99999600575551
 21
10.65565828415299
 31
0.0
  0
ARC
  5
30C
330
1F
100
AcDbEntity
  8
0
100
AcDbCircle
 10
129.0999960058552
 20
51.19359852495279
 30
0.0
 40
26.0
100
AcDbArc
 50
297.1345360171985
 51
311.9999999999988
  0
LINE
  5
30D
330
1F
100
AcDbEntity
  8
0
100
AcDbLine
 10
143.4953238757783
 20
32.53284081245306
 30
0.0
 11
143.2069656125297
 21
32.9511778001015
 31
0.0
  0
ARC
  5
30E
330
1F
100
AcDbEntity
  8
0
100
AcDbCircle
 10
127.5430584776554
 20
55.67565828415297
 30
0.0
 40
27.6
100
AcDbArc
 50
290.9369277226987
 51
304.5783636467268
  0
LINE
  5
315
330
1F
100
AcDbEntity
  8
0
100
AcDbLine
 10
173.7018206772633
 20
58.38525996681176
 30
0.0
 11
174.3709512836199
 21
57.64211514133228
 31
0.0
  0
LINE
  5
316
330
1F
100
AcDbEntity
  8
0
100
AcDbLine
 10
195.7089803101416
 20
72.43182196954478
 30
0.0
 11
195.7089803101416
 21
73.4318219695449
 31
0.0
  0
ARC
  5
317
330
1F
100
AcDbEntity
  8
0
100
AcDbCircle
 10
196.2089803101417
 20
73.93182196954501
 30
0.0
 40
0.5000000000001137
100
AcDbArc
 50
90.0
 51
270.0
  0
LINE
  5
318
330
1F
100
AcDbEntity
  8
0
100
AcDbLine
 10
189.2913887728872
 20
70.40907811199088
 30
0.0
 11
189.2913887728873
 21
71.40907811199099
 31
0.0
  0
ARC
  5
319
330
1F
100
AcDbEntity
  8
0
100
AcDbCircle
 10
189.7913887728874
 20
71.9090781119911
 30
0.0
 40
0.5000000000001137
100
AcDbArc
 50
90.0
 51
270.0
  0
LINE
  5
31A
330
1F
100
AcDbEntity
  8
0
100
AcDbLine
 10
186.5487162748003
 20
68.3171639050521
 30
0.0
 11
186.5487162748004
 21
69.31716390505221
 31
0.0
  0
ARC
  5
31B
330
1F
100
AcDbEntity
  8
0
100
AcDbCircle
 10
187.0487162748004
 20
69.81716390505233
 30
0.0
 40
0.5000000000001137
100
AcDbArc
 50
90.0
 51
270.0
  0
LINE
  5
31C
330
1F
100
AcDbEntity
  8
0
100
AcDbLine
 10
184.2772115405777
 20
66.22524969811331
 30
0.0
 11
184.2772115405778
 21
67.22524969811343
 31
0.0
  0
ARC
  5
31D
330
1F
100
AcDbEntity
  8
0
100
AcDbCircle
 10
184.7772115405778
 20
67.72524969811354
 30
0.0
 40
0.5000000000001137
100
AcDbArc
 50
90.0
 51
270.0
  0
LINE
  5
31E
330
1F
100
AcDbEntity
  8
0
100
AcDbLine
 10
181.8406273206373
 20
64.13333549117453
 30
0.0
 11
181.8406273206374
 21
65.13333549117465
 31
0.0
  0
ARC
  5
31F
330
1F
100
AcDbEntity
  8
0
100
AcDbCircle
 10
182.3406273206374
 20
65.63333549117476
 30
0.0
 40
0.5000000000001137
100
AcDbArc
 50
90.0
 51
270.0
  0
LINE
  5
320
330
1F
100
AcDbEntity
  8
0
100
AcDbLine
 10
179.2114163836039
 20
62.01110342403137
 30
0.0
 11
179.211416383604
 21
63.01110342403148
 31
0.0
  0
ARC
  5
321
330
1F
100
AcDbEntity
  8
0
100
AcDbCircle
 10
179.7114163836041
 20
63.5111034240316
 30
0.0
 40
0.5000000000001137
100
AcDbArc
 50
90.0
 51
270.0
  0
ARC
  5
323
330
1F
100
AcDbEntity
  8
0
100
AcDbCircle
 10
198.9361198027926
 20
69.73847043867022
 30
0.0
 40
5.0
100
AcDbArc
 50
90.0
 51
106.9999999998715
  0
ARC
  5
324
330
1F
100
AcDbEntity
  8
0
100
AcDbCircle
 10
198.9361198027926
 20
69.73847043867022
 30
0.0
 40
5.5
100
AcDbArc
 50
90.0
 51
106.9999999998715
  0
LINE
  5
325
330
1F
100
AcDbEntity
  8
0
100
AcDbLine
 10
197.3280754268293
 20
74.99814659647052
 30
0.0
 11
196.4310842169841
 21
74.72390886262451
 31
0.0
  0
ARC
  5
326
330
1F
100
AcDbEntity
  8
0
100
AcDbCircle
 10
185.411606288504
 20
45.38022552092184
 30
0.0
 40
16.5
100
AcDbArc
 50
90.0
 51
131.9999999998279
  0
ARC
  5
327
330
1F
100
AcDbEntity
  8
0
100
AcDbCircle
 10
185.4116062885038
 20
45.38022552092161
 30
0.0
 40
16.0
100
AcDbArc
 50
90.0
 51
131.9999999998279
  0
ARC
  5
392
330
1F
100
AcDbEntity
  8
0
100
AcDbCircle
 10
249.1999960058551
 20
107.8556582841531
 30
0.0
 40
7.5
100
AcDbArc
 50
339.166096257499
 51
78.69390554114032
  0
LINE
  5
395
330
1F
100
AcDbEntity
  8
0
100
AcDbLine
 10
219.5025317147515
 20
93.8552980157848
 30
0.0
 11
209.4613317771566
 21
90.78539511615165
 31
0.0
  0
LINE
  5
397
330
1F
100
AcDbEntity
  8
0
100
AcDbLine
 10
225.2994188867991
 20
91.84658826979068
 30
0.0
 11
232.0055161289372
 21
93.89684794951804
 31
0.0
  0
LINE
  5
398
330
1F
100
AcDbEntity
  8
0
100
AcDbLine
 10
210.0856700074984
 20
90.45342859053235
 30
0.0
 11
213.2136019225558
 21
91.40973334649507
 31
0.0
  0
LINE
  5
399
330
1F
100
AcDbEntity
  8
0
100
AcDbLine
 10
213.505973627283
 20
90.45342859053347
 30
0.0
 11
243.3705557928734
 21
99.58394764764921
 31
0.0
  0
LINE
  5
39C
330
1F
100
AcDbEntity
  8
0
100
AcDbLine
 10
220.3040413447659
 20
91.8878857244789
 30
0.0
 11
254.4274466138043
 21
102.3204576708708
 31
0.0
  0
LINE
  5
39E
330
1F
100
AcDbEntity
  8
0
100
AcDbLine
 10
202.8344666082829
 20
80.65258138237949
 30
0.0
 11
202.8344666082829
 21
79.65258138237948
 31
0.0
  0
LINE
  5
39F
330
1F
100
AcDbEntity
  8
0
100
AcDbLine
 10
202.8344666082829
 20
82.75258138237949
 30
0.0
 11
202.8344666082829
 21
81.7525813823795
 31
0.0
  0
LINE
  5
3A0
330
1F
100
AcDbEntity
  8
0
100
AcDbLine
 10
202.8344666082829
 20
84.85258138237941
 30
0.0
 11
202.8344666082829
 21
83.85258138237942
 31
0.0
  0
LINE
  5
3A1
330
1F
100
AcDbEntity
  8
0
100
AcDbLine
 10
202.8344666082829
 20
86.95258138237944
 30
0.0
 11
202.8344666082829
 21
85.95258138237943
 31
0.0
  0
LINE
  5
3A2
330
1F
100
AcDbEntity
  8
0
100
AcDbLine
 10
202.8344666082829
 20
78.55258138237946
 30
0.0
 11
202.8344666082829
 21
77.55258138237945
 31
0.0
  0
LINE
  5
3A3
330
1F
100
AcDbEntity
  8
0
100
AcDbLine
 10
202.8344666082829
 20
76.45258138237943
 30
0.0
 11
202.8344666082829
 21
75.45258138237944
 31
0.0
  0
ARC
  5
3A5
330
1F
100
AcDbEntity
  8
0
100
AcDbCircle
 10
227.3406273206374
 20
65.13333549117453
 30
0.0
 40
1.0
100
AcDbArc
 50
270.0
 51
90.0
  0
ARC
  5
3A7
330
1F
100
AcDbEntity
  8
0
100
AcDbCircle
 10
224.7114163836041
 20
63.01110342403138
 30
0.0
 40
1.0
100
AcDbArc
 50
270.0
 51
90.0
  0
LINE
  5
3A8
330
1F
100
AcDbEntity
  8
0
100
AcDbLine
 10
215.104885271362
 20
61.3802255209223
 30
0.0
 11
215.104885271362
 21
61.88022552092196
 31
0.0
  0
LINE
  5
3AA
330
1F
100
AcDbEntity
  8
0
100
AcDbLine
 10
203.3344666082829
 20
81.65258138237936
 30
0.0
 11
224.0344666082829
 21
81.65258138237948
 31
0.0
  0
LINE
  5
3AC
330
1F
100
AcDbEntity
  8
0
100
AcDbLine
 10
203.3344666082829
 20
83.75258138237938
 30
0.0
 11
224.0344666082829
 21
83.75258138237951
 31
0.0
  0
LINE
  5
3AE
330
1F
100
AcDbEntity
  8
0
100
AcDbLine
 10
203.3344666082829
 20
85.8525813823793
 30
0.0
 11
224.0344666082829
 21
85.85258138237941
 31
0.0
  0
LINE
  5
3B0
330
1F
100
AcDbEntity
  8
0
100
AcDbLine
 10
203.3344666082829
 20
87.95258138237931
 30
0.0
 11
224.0344666082829
 21
87.95258138237944
 31
0.0
  0
ARC
  5
3B1
330
1F
100
AcDbEntity
  8
0
100
AcDbCircle
 10
224.0344666082829
 20
80.65258138237936
 30
0.0
 40
1.0
100
AcDbArc
 50
270.0
 51
90.0
  0
ARC
  5
3B3
330
1F
100
AcDbEntity
  8
0
100
AcDbCircle
 10
224.0344666082829
 20
82.75258138237939
 30
0.0
 40
1.0
100
AcDbArc
 50
270.0
 51
90.0
  0
ARC
  5
3B5
330
1F
100
AcDbEntity
  8
0
100
AcDbCircle
 10
224.0344666082829
 20
84.85258138237929
 30
0.0
 40
1.0
100
AcDbArc
 50
270.0
 51
90.0
  0
ARC
  5
3B7
330
1F
100
AcDbEntity
  8
0
100
AcDbCircle
 10
224.0344666082829
 20
86.95258138237932
 30
0.0
 40
1.0
100
AcDbArc
 50
270.0
 51
90.0
  0
LINE
  5
3BA
330
1F
100
AcDbEntity
  8
0
100
AcDbLine
 10
203.3344666082829
 20
79.55258138237934
 30
0.0
 11
224.0344666082829
 21
79.55258138237946
 31
0.0
  0
ARC
  5
3BC
330
1F
100
AcDbEntity
  8
0
100
AcDbCircle
 10
224.0344666082829
 20
78.55258138237934
 30
0.0
 40
1.0
100
AcDbArc
 50
270.0
 51
90.0
  0
ARC
  5
3BD
330
1F
100
AcDbEntity
  8
0
100
AcDbCircle
 10
224.0344666082829
 20
76.45258138237932
 30
0.0
 40
1.0
100
AcDbArc
 50
270.0
 51
90.0
  0
LINE
  5
3BF
330
1F
100
AcDbEntity
  8
0
100
AcDbLine
 10
203.3344666082829
 20
77.45258138237932
 30
0.0
 11
224.0344666082829
 21
77.45258138237943
 31
0.0
  0
LINE
  5
3C1
330
1F
100
AcDbEntity
  8
0
100
AcDbLine
 10
225.0399788629211
 20
74.73847043867022
 30
0.0
 11
225.0399788629211
 21
75.23847043867021
 31
0.0
  0
LINE
  5
3C2
330
1F
100
AcDbEntity
  8
0
100
AcDbLine
 10
202.8344666082829
 20
79.65258138237948
 30
0.0
 11
224.0344666082829
 21
79.65258138237937
 31
0.0
  0
LINE
  5
3C3
330
1F
100
AcDbEntity
  8
0
100
AcDbLine
 10
202.8344666082829
 20
80.65258138237949
 30
0.0
 11
203.3344666082829
 21
80.65258138237949
 31
0.0
  0
LINE
  5
3C5
330
1F
100
AcDbEntity
  8
0
100
AcDbLine
 10
202.8344666082829
 20
81.7525813823795
 30
0.0
 11
224.0344666082829
 21
81.75258138237939
 31
0.0
  0
LINE
  5
3C6
330
1F
100
AcDbEntity
  8
0
100
AcDbLine
 10
202.8344666082829
 20
82.75258138237949
 30
0.0
 11
203.3344666082829
 21
82.75258138237949
 31
0.0
  0
LINE
  5
3C8
330
1F
100
AcDbEntity
  8
0
100
AcDbLine
 10
202.8344666082829
 20
83.85258138237942
 30
0.0
 11
224.0344666082829
 21
83.85258138237929
 31
0.0
  0
LINE
  5
3C9
330
1F
100
AcDbEntity
  8
0
100
AcDbLine
 10
202.8344666082829
 20
84.85258138237941
 30
0.0
 11
203.3344666082829
 21
84.8525813823794
 31
0.0
  0
LINE
  5
3CB
330
1F
100
AcDbEntity
  8
0
100
AcDbLine
 10
202.8344666082829
 20
85.95258138237943
 30
0.0
 11
224.0344666082829
 21
85.95258138237932
 31
0.0
  0
LINE
  5
3CC
330
1F
100
AcDbEntity
  8
0
100
AcDbLine
 10
202.8344666082829
 20
86.95258138237944
 30
0.0
 11
203.3344666082829
 21
86.95258138237942
 31
0.0
  0
LINE
  5
3CE
330
1F
100
AcDbEntity
  8
0
100
AcDbLine
 10
202.8344666082829
 20
88.05258138237945
 30
0.0
 11
224.0344666082829
 21
88.05258138237935
 31
0.0
  0
ARC
  5
3CF
330
1F
100
AcDbEntity
  8
0
100
AcDbCircle
 10
203.3344666082829
 20
81.15258138237937
 30
0.0
 40
0.5
100
AcDbArc
 50
90.0
 51
270.0
  0
ARC
  5
3D0
330
1F
100
AcDbEntity
  8
0
100
AcDbCircle
 10
203.3344666082829
 20
83.2525813823794
 30
0.0
 40
0.5
100
AcDbArc
 50
90.0
 51
270.0
  0
ARC
  5
3D1
330
1F
100
AcDbEntity
  8
0
100
AcDbCircle
 10
203.3344666082829
 20
85.3525813823793
 30
0.0
 40
0.5
100
AcDbArc
 50
90.0
 51
270.0
  0
ARC
  5
3D2
330
1F
100
AcDbEntity
  8
0
100
AcDbCircle
 10
203.3344666082829
 20
87.45258138237932
 30
0.0
 40
0.5
100
AcDbArc
 50
90.0
 51
270.0
  0
ARC
  5
3D3
330
1F
100
AcDbEntity
  8
0
100
AcDbCircle
 10
203.3344666082829
 20
79.05258138237934
 30
0.0
 40
0.5
100
AcDbArc
 50
90.0
 51
270.0
  0
LINE
  5
3D4
330
1F
100
AcDbEntity
  8
0
100
AcDbLine
 10
202.8344666082829
 20
77.55258138237945
 30
0.0
 11
224.0344666082829
 21
77.55258138237934
 31
0.0
  0
LINE
  5
3D5
330
1F
100
AcDbEntity
  8
0
100
AcDbLine
 10
202.8344666082829
 20
78.55258138237946
 30
0.0
 11
203.3344666082829
 21
78.55258138237944
 31
0.0
  0
LINE
  5
3D8
330
1F
100
AcDbEntity
  8
0
100
AcDbLine
 10
202.8344666082829
 20
76.45258138237943
 30
0.0
 11
203.3344666082829
 21
76.45258138237942
 31
0.0
  0
LINE
  5
3D9
330
1F
100
AcDbEntity
  8
0
100
AcDbLine
 10
202.8344666082829
 20
75.45258138237944
 30
0.0
 11
224.0344666082829
 21
75.45258138237932
 31
0.0
  0
ARC
  5
3DA
330
1F
100
AcDbEntity
  8
0
100
AcDbCircle
 10
203.3344666082829
 20
76.95258138237932
 30
0.0
 40
0.5
100
AcDbArc
 50
90.0
 51
270.0
  0
ARC
  5
3DB
330
1F
100
AcDbEntity
  8
0
100
AcDbCircle
 10
209.9394841551335
 20
90.93158096851722
 30
0.0
 40
0.4999999999968322
100
AcDbArc
 50
197.000000000615
 51
287.0000000002639
  0
LINE
  5
3DC
330
1F
100
AcDbEntity
  8
0
100
AcDbLine
 10
225.1532330344405
 20
92.32474064777273
 30
0.0
 11
225.2994188867991
 21
91.84658826979068
 31
0.0
  0
ARC
  5
3DD
330
1F
100
AcDbEntity
  8
0
100
AcDbCircle
 10
213.3597877749185
 20
90.93158096851722
 30
0.0
 40
0.4999999999968322
100
AcDbArc
 50
107.0000000002577
 51
287.0000000002639
  0
LINE
  5
3DE
330
1F
100
AcDbEntity
  8
0
100
AcDbLine
 10
220.5964130494835
 20
90.9315809685143
 30
0.0
 11
220.3040413447659
 21
91.8878857244789
 31
0.0
  0
LINE
  5
3E0
330
1F
100
AcDbEntity
  8
0
100
AcDbLine
 10
203.3344666082829
 20
90.05258138237934
 30
0.0
 11
224.0344666082829
 21
90.05258138237946
 31
0.0
  0
LINE
  5
3E3
330
1F
100
AcDbEntity
  8
0
100
AcDbLine
 10
202.8344666082829
 20
89.05258138237945
 30
0.0
 11
203.3344666082829
 21
89.05258138237945
 31
0.0
  0
ARC
  5
3E4
330
1F
100
AcDbEntity
  8
0
100
AcDbCircle
 10
203.3344666082829
 20
89.55258138237935
 30
0.0
 40
0.5
100
AcDbArc
 50
90.0
 51
270.0
  0
ARC
  5
3E5
330
1F
100
AcDbEntity
  8
0
100
AcDbCircle
 10
224.0344666082829
 20
89.05258138237934
 30
0.0
 40
1.0
100
AcDbArc
 50
270.0
 51
90.0
  0
LINE
  5
3E6
330
1F
100
AcDbEntity
  8
0
100
AcDbLine
 10
202.8344666082829
 20
89.05258138237945
 30
0.0
 11
202.8344666082829
 21
88.05258138237945
 31
0.0
  0
ARC
  5
3E8
330
1F
100
AcDbEntity
  8
0
100
AcDbCircle
 10
229.7772115405778
 20
67.22524969811331
 30
0.0
 40
1.0
100
AcDbArc
 50
270.0
 51
90.0
  0
ARC
  5
3EA
330
1F
100
AcDbEntity
  8
0
100
AcDbCircle
 10
236.2089803101417
 20
73.43182196954479
 30
0.0
 40
1.0
100
AcDbArc
 50
270.0
 51
90.0
  0
ARC
  5
3EC
330
1F
100
AcDbEntity
  8
0
100
AcDbCircle
 10
234.7913887728874
 20
71.40907811199088
 30
0.0
 40
1.0
100
AcDbArc
 50
270.0
 51
90.0
  0
ARC
  5
3EE
330
1F
100
AcDbEntity
  8
0
100
AcDbCircle
 10
232.0487162748004
 20
69.3171639050521
 30
0.0
 40
1.0
100
AcDbArc
 50
270.0
 51
90.0
  0
LINE
  5
3EF
330
1F
100
AcDbEntity
  8
0
100
AcDbLine
 10
219.5025317147515
 20
93.8552980157848
 30
0.0
 11
242.9319982357826
 21
101.0184047815915
 31
0.0
  0
LINE
  5
3F2
330
1F
100
AcDbEntity
  8
0
100
AcDbLine
 10
247.9092948983466
 20
114.855658284205
 30
0.0
 11
247.9530392301054
 21
115.3556582841531
 31
0.0
  0
LINE
  5
3F3
330
1F
100
AcDbEntity
  8
0
100
AcDbLine
 10
248.2858840820308
 20
113.4232357275461
 30
0.0
 11
248.4549491488771
 21
115.3556582841532
 31
0.0
  0
LINE
  5
3F5
330
1F
100
AcDbEntity
  8
0
100
AcDbLine
 10
246.6568388469011
 20
106.2768767321788
 30
0.0
 11
247.4111975493008
 21
114.899236155579
 31
0.0
  0
ARC
  5
3F6
330
1F
100
AcDbEntity
  8
0
100
AcDbCircle
 10
241.1777680074551
 20
106.7562333173525
 30
0.0
 40
5.5
100
AcDbArc
 50
286.9999999999981
 51
355.0000000000002
  0
ARC
  5
3FC
330
1F
100
AcDbEntity
  8
0
100
AcDbCircle
 10
261.3499960058552
 20
103.2320774209526
 30
0.0
 40
5.5
100
AcDbArc
 50
159.166096257499
 51
181.5684512165504
  0
ARC
  5
3FD
330
1F
100
AcDbEntity
  8
0
100
AcDbCircle
 10
250.2782734782141
 20
113.2489242420493
 30
0.0
 40
2.0
100
AcDbArc
 50
78.69390554114032
 51
174.9999999999545
  0
ARC
  5
3FE
330
1F
100
AcDbEntity
  8
0
100
AcDbCircle
 10
253.8528059708709
 20
103.0267932780416
 30
0.0
 40
2.0
100
AcDbArc
 50
328.4999999965383
 51
1.568451216550419
  0
LINE
  5
400
330
1F
100
AcDbEntity
  8
0
100
AcDbLine
 10
232.151701981296
 20
93.41869557153552
 30
0.0
 11
250.1881045546973
 21
98.93297722125806
 31
0.0
  0
LINE
  5
402
330
1F
100
AcDbEntity
  8
0
100
AcDbLine
 10
250.1881045546974
 20
98.93297722125794
 30
0.0
 11
250.0419187023388
 21
99.41112959924033
 31
0.0
  0
LINE
  5
403
330
1F
100
AcDbEntity
  8
0
100
AcDbLine
 10
242.785812383449
 20
101.4965571595817
 30
0.0
 11
242.9319982358126
 21
101.0184047816008
 31
0.0
  0
ARC
  5
405
330
1F
100
AcDbEntity
  8
0
100
AcDbCircle
 10
249.6006657566328
 20
100.9565543302059
 30
0.0
 40
0.5
100
AcDbArc
 50
145.4502173309836
 51
209.3459444159275
  0
ARC
  5
407
330
1F
100
AcDbEntity
  8
0
100
AcDbCircle
 10
241.1777680074551
 20
106.7562333173525
 30
0.0
 40
11.72650882985252
100
AcDbArc
 50
333.2043226977734
 51
354.9999999991371
  0
ARC
  5
40A
330
1F
100
AcDbEntity
  8
0
100
AcDbCircle
 10
241.1777680074551
 20
106.7562333173525
 30
0.0
 40
9.726508829852527
100
AcDbArc
 50
322.5490471544028
 51
325.4502173309777
  0
ARC
  5
40B
330
1F
100
AcDbEntity
  8
0
100
AcDbCircle
 10
248.1055179637495
 20
101.4497997786603
 30
0.0
 40
1.0
100
AcDbArc
 50
142.5490471544029
 51
322.5490471544028
  0
ARC
  5
410
330
1F
100
AcDbEntity
  8
0
100
AcDbCircle
 10
241.1777680074551
 20
106.7562333173525
 30
0.0
 40
7.726508829852526
100
AcDbArc
 50
322.5490471544028
 51
354.9999999994574
  0
LINE
  5
415
330
1F
100
AcDbEntity
  8
0
100
AcDbLine
 10
252.8596649595609
 20
105.7341997653883
 30
0.0
 11
253.3782345825885
 21
111.5050673059836
 31
0.0
  0
LINE
  5
419
330
1F
100
AcDbEntity
  8
0
100
AcDbLine
 10
248.8748751385068
 20
106.0828237013671
 30
0.0
 11
249.394287038358
 21
111.8630644635411
 31
0.0
  0
ARC
  5
41A
330
1F
100
AcDbEntity
  8
0
100
AcDbCircle
 10
251.3862608104733
 20
111.6840658847622
 30
0.0
 40
2.0
100
AcDbArc
 50
354.8651977602958
 51
174.8651977602957
  0
ARC
  5
41E
330
1F
100
AcDbEntity
  8
0
100
AcDbCircle
 10
250.7249356298033
 20
112.6174393735474
 30
0.0
 40
1.5
100
AcDbArc
 50
72.2425625653047
 51
174.999999999961
  0
ARC
  5
41F
330
1F
100
AcDbEntity
  8
0
100
AcDbCircle
 10
249.1999960058551
 20
107.8556582841531
 30
0.0
 40
6.5
100
AcDbArc
 50
339.166096257499
 51
72.2425625653047
  0
LINE
  5
420
330
1F
100
AcDbEntity
  8
0
100
AcDbLine
 10
248.6492282430845
 20
106.1025652466821
 30
0.0
 11
249.2306435826659
 21
112.74817298767
 31
0.0
  0
ARC
  5
421
330
1F
100
AcDbEntity
  8
0
100
AcDbCircle
 10
241.1777680074551
 20
106.7562333173525
 30
0.0
 40
7.5
100
AcDbArc
 50
286.9999999999981
 51
355.0000000000002
  0
ARC
  5
422
330
1F
100
AcDbEntity
  8
0
100
AcDbCircle
 10
261.3499960058552
 20
103.2320774209526
 30
0.0
 40
6.5
100
AcDbArc
 50
159.166096257499
 51
180.4897282562854
  0
LINE
  5
423
330
1F
100
AcDbEntity
  8
0
100
AcDbLine
 10
220.5964130494835
 20
90.9315809685143
 30
0.0
 11
225.1532330344405
 21
92.32474064777274
 31
0.0
  0
ARC
  5
424
330
1F
100
AcDbEntity
  8
0
100
AcDbCircle
 10
253.3502882342468
 20
103.1636992894518
 30
0.0
 40
1.5
100
AcDbArc
 50
338.5869251753397
 51
0.4897282562854652
  0
LINE
  5
425
330
1F
100
AcDbEntity
  8
0
100
AcDbLine
 10
253.8423757133787
 20
101.0958917893
 30
0.0
 11
253.9885615657375
 21
100.6177394113181
 31
0.0
  0
ARC
  5
426
330
1F
100
AcDbEntity
  8
0
100
AcDbCircle
 10
254.2812607614456
 20
102.798610048853
 30
0.0
 40
0.5
100
AcDbArc
 50
286.9999999996881
 51
338.5869251753337
  0
LINE
  5
429
330
1F
100
AcDbEntity
  8
0
100
AcDbLine
 10
247.4111975493008
 20
114.899236155579
 30
0.0
 11
247.9092948983466
 21
114.8556582842049
 31
0.0
  0
LINE
  5
42A
330
1F
100
AcDbEntity
  8
0
100
AcDbLine
 10
247.9092948983466
 20
114.8556582842049
 30
0.0
 11
247.9530392301054
 21
115.3556582841531
 31
0.0
  0
LINE
  5
42B
330
1F
100
AcDbEntity
  8
0
100
AcDbLine
 10
247.9530392301054
 20
115.3556582841531
 30
0.0
 11
248.4549491488771
 21
115.3556582841532
 31
0.0
  0
LINE
  5
516
330
1F
100
AcDbEntity
  8
0
100
AcDbLine
 10
173.0326900709067
 20
59.12840479229124
 30
0.0
 11
173.7018206772633
 21
58.38525996681176
 31
0.0
  0
LINE
  5
517
330
1F
100
AcDbEntity
  8
0
100
AcDbLine
 10
14.99999600575551
 20
13.6556582841531
 30
0.0
 11
14.99999600575551
 21
10.65565828415299
 31
0.0
  0
LINE
  5
518
330
1F
100
AcDbEntity
  8
0
100
AcDbLine
 10
253.8423757133787
 20
101.0958917893
 30
0.0
 11
255.5580862995159
 21
101.9817961485067
 31
0.0
  0
LINE
  5
51B
330
1F
100
AcDbEntity
  8
0
100
AcDbLine
 10
232.151701981296
 20
93.41869557153552
 30
0.0
 11
232.0055161289372
 21
93.89684794951806
 31
0.0
  0
LINE
  5
51C
330
1F
100
AcDbEntity
  8
0
100
AcDbLine
 10
250.0419187023388
 20
99.41112959924055
 30
0.0
 11
253.9885615657375
 21
100.6177394113181
 31
0.0
  0
LINE
  5
51D
330
1F
100
AcDbEntity
  8
0
100
AcDbLine
 10
197.4742612791896
 20
74.51999421848867
 30
0.0
 11
196.4310842169843
 21
74.72390886262456
 31
0.0
  0
ENDSEC
  0
SECTION
  2
OBJECTS
  0
DICTIONARY
  5
C
330
0
100
AcDbDictionary
  3
ACAD_GROUP
350
D
  3
ACAD_LAYOUT
350
1A
  3
ACAD_MLINESTYLE
350
17
  3
ACAD_PLOTSETTINGS
350
19
  3
ACAD_PLOTSTYLENAME
350
E
  3
ACDBHEADERROUNDTRIPXREC
350
521
  3
ACDBVARIABLEDICTIONARY
350
66
  0
DICTIONARY
  5
541
330
1F
100
AcDbDictionary
280
     1
  3
ACAD_LAYOUTSELFREF
360
542
  0
DICTIONARY
  5
543
330
58
100
AcDbDictionary
280
     1
  3
ACAD_LAYOUTSELFREF
360
544
  0
DICTIONARY
  5
D
102
{ACAD_REACTORS
330
C
102
}
330
C
100
AcDbDictionary
  0
DICTIONARY
  5
1A
102
{ACAD_REACTORS
330
C
102
}
330
C
100
AcDbDictionary
  0
DICTIONARY
  5
17
102
{ACAD_REACTORS
330
C
102
}
330
C
100
AcDbDictionary
  3
STANDARD
350
18
  0
DICTIONARY
  5
19
102
{ACAD_REACTORS
330
C
102
}
330
C
100
AcDbDictionary
  0
ACDBDICTIONARYWDFLT
  5
E
102
{ACAD_REACTORS
330
C
102
}
330
C
100
AcDbDictionary
281
     1
  3
Normal
350
F
100
AcDbDictionaryWithDefault
340
F
  0
DICTIONARY
  5
521
102
{ACAD_REACTORS
330
C
102
}
330
C
100
AcDbDictionary
  3
CEPSNTYPE
350
52B
  3
FINGERPRINTGUID
350
52C
  3
HYPERLINKBASE
350
524
  3
INSUNITS
350
52A
  3
LAYOUTDICT
350
526
  3
LWETCUNION
350
529
  3
PLOTSETDICT
350
527
  3
PLOTSTYLNAMDICT
350
528
  3
PSVPSCALE
350
52E
  3
PUCSBASE
350
531
  3
PUCSORGBACK
350
537
  3
PUCSORGBOTTOM
350
533
  3
PUCSORGFRONT
350
536
  3
PUCSORGLEFT
350
534
  3
PUCSORGRIGHT
350
535
  3
PUCSORGTOP
350
532
  3
PUCSORTHOREF
350
52F
  3
PUCSORTHOVIEW
350
530
  3
STYLESHEET
350
525
  3
TSTACKALIGN
350
522
  3
TSTACKSIZE
350
523
  3
UCSBASE
350
53A
  3
UCSORGBACK
350
540
  3
UCSORGBOTTOM
350
53C
  3
UCSORGFRONT
350
53F
  3
UCSORGLEFT
350
53D
  3
UCSORGRIGHT
350
53E
  3
UCSORGTOP
350
53B
  3
UCSORTHOREF
350
538
  3
UCSORTHOVIEW
350
539
  3
VERSIONGUID
350
52D
  0
DICTIONARY
  5
66
102
{ACAD_REACTORS
330
C
102
}
330
C
100
AcDbDictionary
  3
DIMASSOC
350
67
  3
HIDETEXT
350
6B
  0
XRECORD
  5
542
102
{ACAD_REACTORS
330
541
102
}
330
541
100
AcDbXrecord
340
1F
  0
XRECORD
  5
544
102
{ACAD_REACTORS
330
543
102
}
330
543
100
AcDbXrecord
340
58
  0
MLINESTYLE
  5
18
102
{ACAD_REACTORS
330
17
102
}
330
17
100
AcDbMlineStyle
  2
STANDARD
 70
     0
  3

 62
   256
 51
90.0
 52
90.0
 71
     2
 49
0.5
 62
   256
  6
BYLAYER
 49
-0.5
 62
   256
  6
BYLAYER
  0
ACDBPLACEHOLDER
  5
F
102
{ACAD_REACTORS
330
E
102
}
330
E
100
AcDbPlaceHolder
280
     0
  0
XRECORD
  5
52B
102
{ACAD_REACTORS
330
521
102
}
330
521
100
AcDbXrecord
 90
        0
  0
XRECORD
  5
52C
102
{ACAD_REACTORS
330
521
102
}
330
521
100
AcDbXrecord
  1
{FDEAD576-A652-11D2-9A35-0060089B3A3F}
  0
XRECORD
  5
524
102
{ACAD_REACTORS
330
521
102
}
330
521
100
AcDbXrecord
  1

  0
XRECORD
  5
52A
102
{ACAD_REACTORS
330
521
102
}
330
521
100
AcDbXrecord
 90
        1
  0
XRECORD
  5
526
102
{ACAD_REACTORS
330
521
102
}
330
521
100
AcDbXrecord
340
1A
  0
XRECORD
  5
529
102
{ACAD_REACTORS
330
521
102
}
330
521
100
AcDbXrecord
 90
    10781
  0
XRECORD
  5
527
102
{ACAD_REACTORS
330
521
102
}
330
521
100
AcDbXrecord
340
19
  0
XRECORD
  5
528
102
{ACAD_REACTORS
330
521
102
}
330
521
100
AcDbXrecord
340
E
  0
XRECORD
  5
52E
102
{ACAD_REACTORS
330
521
102
}
330
521
100
AcDbXrecord
 40
0.0
  0
XRECORD
  5
531
102
{ACAD_REACTORS
330
521
102
}
330
521
100
AcDbXrecord
340
0
  0
XRECORD
  5
537
102
{ACAD_REACTORS
330
521
102
}
330
521
100
AcDbXrecord
 10
0.0
 20
0.0
 30
0.0
  0
XRECORD
  5
533
102
{ACAD_REACTORS
330
521
102
}
330
521
100
AcDbXrecord
 10
0.0
 20
0.0
 30
0.0
  0
XRECORD
  5
536
102
{ACAD_REACTORS
330
521
102
}
330
521
100
AcDbXrecord
 10
0.0
 20
0.0
 30
0.0
  0
XRECORD
  5
534
102
{ACAD_REACTORS
330
521
102
}
330
521
100
AcDbXrecord
 10
0.0
 20
0.0
 30
0.0
  0
XRECORD
  5
535
102
{ACAD_REACTORS
330
521
102
}
330
521
100
AcDbXrecord
 10
0.0
 20
0.0
 30
0.0
  0
XRECORD
  5
532
102
{ACAD_REACTORS
330
521
102
}
330
521
100
AcDbXrecord
 10
0.0
 20
0.0
 30
0.0
  0
XRECORD
  5
52F
102
{ACAD_REACTORS
330
521
102
}
330
521
100
AcDbXrecord
340
0
  0
XRECORD
  5
530
102
{ACAD_REACTORS
330
521
102
}
330
521
100
AcDbXrecord
 70
     0
  0
XRECORD
  5
525
102
{ACAD_REACTORS
330
521
102
}
330
521
100
AcDbXrecord
  1

  0
XRECORD
  5
522
102
{ACAD_REACTORS
330
521
102
}
330
521
100
AcDbXrecord
 90
        1
  0
XRECORD
  5
523
102
{ACAD_REACTORS
330
521
102
}
330
521
100
AcDbXrecord
 90
       70
  0
XRECORD
  5
53A
102
{ACAD_REACTORS
330
521
102
}
330
521
100
AcDbXrecord
340
0
  0
XRECORD
  5
540
102
{ACAD_REACTORS
330
521
102
}
330
521
100
AcDbXrecord
 10
0.0
 20
0.0
 30
0.0
  0
XRECORD
  5
53C
102
{ACAD_REACTORS
330
521
102
}
330
521
100
AcDbXrecord
 10
0.0
 20
0.0
 30
0.0
  0
XRECORD
  5
53F
102
{ACAD_REACTORS
330
521
102
}
330
521
100
AcDbXrecord
 10
0.0
 20
0.0
 30
0.0
  0
XRECORD
  5
53D
102
{ACAD_REACTORS
330
521
102
}
330
521
100
AcDbXrecord
 10
0.0
 20
0.0
 30
0.0
  0
XRECORD
  5
53E
102
{ACAD_REACTORS
330
521
102
}
330
521
100
AcDbXrecord
 10
0.0
 20
0.0
 30
0.0
  0
XRECORD
  5
53B
102
{ACAD_REACTORS
330
521
102
}
330
521
100
AcDbXrecord
 10
0.0
 20
0.0
 30
0.0
  0
XRECORD
  5
538
102
{ACAD_REACTORS
330
521
102
}
330
521
100
AcDbXrecord
340
0
  0
XRECORD
  5
539
102
{ACAD_REACTORS
330
521
102
}
330
521
100
AcDbXrecord
 70
     0
  0
XRECORD
  5
52D
102
{ACAD_REACTORS
330
521
102
}
330
521
100
AcDbXrecord
  1
{75DC6B6D-4B4B-4E0D-9FB5-100161D15EEA}
  0
DICTIONARYVAR
  5
67
102
{ACAD_REACTORS
330
66
102
}
330
66
100
DictionaryVariables
280
     0
  1
2
  0
DICTIONARYVAR
  5
6B
102
{ACAD_REACTORS
330
66
102
}
330
66
100
DictionaryVariables
280
     0
  1
1
  0
ENDSEC
  0
EOF
