  0
SECTION
  2
HEADER
  9
$ACADVER
  1
AC1009
  9
$INSBASE
 10
0.0
 20
0.0
 30
0.0
  9
$EXTMIN
 10
0.0
 20
-239.44360733646451
 30
0.0
  9
$EXTMAX
 10
1188.963482259071
 20
1189.527054323873
 30
0.0
  9
$LIMMIN
 10
0.0
 20
0.0
  9
$LIMMAX
 10
420.0
 20
297.0
  9
$ORTHOMODE
 70
     0
  9
$REGENMODE
 70
     1
  9
$FILLMODE
 70
     1
  9
$QTEXTMODE
 70
     0
  9
$MIRRTEXT
 70
     1
  9
$DRAGMODE
 70
     2
  9
$LTSCALE
 40
1.0
  9
$OSMODE
 70
    37
  9
$ATTMODE
 70
     1
  9
$TEXTSIZE
 40
25.0
  9
$TRACEWID
 40
1.0
  9
$TEXTSTYLE
  7
STANDARD
  9
$CLAYER
  8
SNIJ
  9
$CELTYPE
  6
BYLAYER
  9
$CECOLOR
 62
   256
  9
$DIMSCALE
 40
5.0
  9
$DIMASZ
 40
2.5
  9
$DIMEXO
 40
0.625
  9
$DIMDLI
 40
3.75
  9
$DIMRND
 40
0.0
  9
$DIMDLE
 40
0.0
  9
$DIMEXE
 40
1.25
  9
$DIMTP
 40
0.0
  9
$DIMTM
 40
0.0
  9
$DIMTXT
 40
2.5
  9
$DIMCEN
 40
2.5
  9
$DIMTSZ
 40
0.0
  9
$DIMTOL
 70
     0
  9
$DIMLIM
 70
     0
  9
$DIMTIH
 70
     0
  9
$DIMTOH
 70
     0
  9
$DIMSE1
 70
     0
  9
$DIMSE2
 70
     0
  9
$DIMTAD
 70
     1
  9
$DIMZIN
 70
     8
  9
$DIMBLK
  1

  9
$DIMASO
 70
     1
  9
$DIMSHO
 70
     1
  9
$DIMPOST
  1

  9
$DIMAPOST
  1

  9
$DIMALT
 70
     0
  9
$DIMALTD
 70
     3
  9
$DIMALTF
 40
0.03937007874016
  9
$DIMLFAC
 40
1.0
  9
$DIMTOFL
 70
     1
  9
$DIMTVP
 40
0.0
  9
$DIMTIX
 70
     0
  9
$DIMSOXD
 70
     0
  9
$DIMSAH
 70
     0
  9
$DIMBLK1
  1

  9
$DIMBLK2
  1

  9
$DIMSTYLE
  2
ISO-25
  9
$DIMCLRD
 70
     0
  9
$DIMCLRE
 70
     0
  9
$DIMCLRT
 70
     0
  9
$DIMTFAC
 40
1.0
  9
$DIMGAP
 40
0.625
  9
$LUNITS
 70
     2
  9
$LUPREC
 70
     4
  9
$SKETCHINC
 40
1.0
  9
$FILLETRAD
 40
10.0
  9
$AUNITS
 70
     0
  9
$AUPREC
 70
     0
  9
$MENU
  1
.
  9
$ELEVATION
 40
0.0
  9
$PELEVATION
 40
0.0
  9
$THICKNESS
 40
0.0
  9
$LIMCHECK
 70
     0
  9
$BLIPMODE
 70
     0
  9
$CHAMFERA
 40
0.0
  9
$CHAMFERB
 40
0.0
  9
$SKPOLY
 70
     0
  9
$TDCREATE
 40
2455383.6945177782
  9
$TDUPDATE
 40
2456458.431758415
  9
$TDINDWG
 40
0.1662020602
  9
$TDUSRTIMER
 40
0.1662017014
  9
$USRTIMER
 70
     1
  9
$ANGBASE
 50
0.0
  9
$ANGDIR
 70
     0
  9
$PDMODE
 70
     0
  9
$PDSIZE
 40
0.0
  9
$PLINEWID
 40
0.0
  9
$COORDS
 70
     1
  9
$SPLFRAME
 70
     0
  9
$SPLINETYPE
 70
     6
  9
$SPLINESEGS
 70
     8
  9
$ATTDIA
 70
     0
  9
$ATTREQ
 70
     1
  9
$HANDLING
 70
     1
  9
$HANDSEED
  5
1641
  9
$SURFTAB1
 70
     6
  9
$SURFTAB2
 70
     6
  9
$SURFTYPE
 70
     6
  9
$SURFU
 70
     6
  9
$SURFV
 70
     6
  9
$UCSNAME
  2

  9
$UCSORG
 10
0.0
 20
0.0
 30
0.0
  9
$UCSXDIR
 10
1.0
 20
0.0
 30
0.0
  9
$UCSYDIR
 10
0.0
 20
1.0
 30
0.0
  9
$PUCSNAME
  2

  9
$PUCSORG
 10
0.0
 20
0.0
 30
0.0
  9
$PUCSXDIR
 10
1.0
 20
0.0
 30
0.0
  9
$PUCSYDIR
 10
0.0
 20
1.0
 30
0.0
  9
$USERI1
 70
     0
  9
$USERI2
 70
     0
  9
$USERI3
 70
     0
  9
$USERI4
 70
     0
  9
$USERI5
 70
     0
  9
$USERR1
 40
0.0
  9
$USERR2
 40
0.0
  9
$USERR3
 40
0.0
  9
$USERR4
 40
0.0
  9
$USERR5
 40
0.0
  9
$WORLDVIEW
 70
     1
  9
$SHADEDGE
 70
     3
  9
$SHADEDIF
 70
    70
  9
$TILEMODE
 70
     1
  9
$MAXACTVP
 70
    64
  9
$PLIMCHECK
 70
     0
  9
$PEXTMIN
 10
1.0000000000000000E+020
 20
1.0000000000000000E+020
 30
1.0000000000000000E+020
  9
$PEXTMAX
 10
-1.0000000000000000E+020
 20
-1.0000000000000000E+020
 30
-1.0000000000000000E+020
  9
$PLIMMIN
 10
0.0
 20
0.0
  9
$PLIMMAX
 10
420.0
 20
297.0
  9
$UNITMODE
 70
     0
  9
$VISRETAIN
 70
     1
  9
$PLINEGEN
 70
     0
  9
$PSLTSCALE
 70
     1
  0
ENDSEC
  0
SECTION
  2
TABLES
  0
TABLE
  2
VPORT
 70
     1
  0
VPORT
  2
*ACTIVE
 70
     0
 10
0.0
 20
0.0
 11
1.0
 21
1.0
 12
178.58685008022229
 22
-2.1108978700560779
 13
0.0
 23
0.0
 14
10.0
 24
10.0
 15
10.0
 25
10.0
 16
0.0
 26
0.0
 36
1.0
 17
0.0
 27
0.0
 37
0.0
 40
636.00001638663377
 41
1.70954356846473
 42
50.0
 43
0.0
 44
0.0
 50
0.0
 51
0.0
 71
     0
 72
   100
 73
     1
 74
     3
 75
     0
 76
     0
 77
     0
 78
     0
  0
ENDTAB
  0
TABLE
  2
LTYPE
 70
     1
  0
LTYPE
  2
CONTINUOUS
 70
     0
  3
Solid line
 72
    65
 73
     0
 40
0.0
  0
ENDTAB
  0
TABLE
  2
LAYER
 70
     5
  0
LAYER
  2
0
 70
     0
 62
     7
  6
CONTINUOUS
  0
LAYER
  2
SNIJ
 70
     0
 62
     5
  6
CONTINUOUS
  0
LAYER
  2
TEKST
 70
     0
 62
     1
  6
CONTINUOUS
  0
LAYER
  2
DEFPOINTS
 70
     0
 62
     7
  6
CONTINUOUS
  0
LAYER
  2
MATERIAAL
 70
     0
 62
     3
  6
CONTINUOUS
  0
ENDTAB
  0
TABLE
  2
STYLE
 70
     1
  0
STYLE
  2
STANDARD
 70
     0
 40
0.0
 41
1.0
 50
0.0
 71
     0
 42
25.0
  3
txt
  4

  0
ENDTAB
  0
TABLE
  2
VIEW
 70
     0
  0
ENDTAB
  0
TABLE
  2
UCS
 70
     0
  0
ENDTAB
  0
TABLE
  2
APPID
 70
     4
  0
APPID
  2
ACAD
 70
     0
  0
APPID
  2
ACAD_NAV_VCDISPLAY
 70
     0
  0
APPID
  2
ACAD_EXEMPT_FROM_CAD_STANDARDS
 70
     0
  0
APPID
  2
ACAD_MLEADERVER
 70
     0
  0
ENDTAB
  0
TABLE
  2
DIMSTYLE
 70
     1
  0
DIMSTYLE
  2
ISO-25
 70
     0
  3

  4

  5

  6

  7

 40
5.0
 41
2.5
 42
0.625
 43
3.75
 44
1.25
 45
0.0
 46
0.0
 47
0.0
 48
0.0
140
2.5
141
2.5
142
0.0
143
0.03937007874016
144
1.0
145
0.0
146
1.0
147
0.625
 71
     0
 72
     0
 73
     0
 74
     0
 75
     0
 76
     0
 77
     1
 78
     8
170
     0
171
     3
172
     1
173
     0
174
     0
175
     0
176
     0
177
     0
178
     0
  0
ENDTAB
  0
ENDSEC
  0
SECTION
  2
BLOCKS
  0
BLOCK
  8
0
  2
$MODEL_SPACE
 70
     0
 10
0.0
 20
0.0
 30
0.0
  3
$MODEL_SPACE
  1

  0
ENDBLK
  5
21
  8
0
  0
BLOCK
 67
     1
  8
0
  2
$PAPER_SPACE
 70
     0
 10
0.0
 20
0.0
 30
0.0
  3
$PAPER_SPACE
  1

  0
ENDBLK
  5
1D
 67
     1
  8
0
  0
BLOCK
  8
0
  2
*D1
 70
     1
 10
0.0
 20
0.0
 30
0.0
  3
*D1
  1

  0
LINE
  5
2C
  8
TEKST
 62
     0
 10
334.08560208121207
 20
72.790160326170394
 30
0.0
 11
328.5749114650485
 21
72.790160326170394
 31
0.0
  0
LINE
  5
2D
  8
TEKST
 62
     0
 10
334.08560208121207
 20
596.39105816249662
 30
0.0
 11
328.57491146504861
 21
596.39105816249662
 31
0.0
  0
LINE
  5
2E
  8
TEKST
 62
     0
 10
334.8249114650485
 20
85.290160326170408
 30
0.0
 11
334.82491146504861
 21
583.89105816249662
 31
0.0
  0
SOLID
  5
2F
  8
TEKST
 62
     0
 10
332.74157813171507
 20
85.290160326170408
 30
0.0
 11
336.90824479838182
 21
85.290160326170408
 31
0.0
 12
334.8249114650485
 22
72.790160326170394
 32
0.0
 13
334.8249114650485
 23
72.790160326170394
 33
0.0
  0
SOLID
  5
30
  8
TEKST
 62
     0
 10
332.74157813171519
 20
583.89105816249662
 30
0.0
 11
336.90824479838187
 21
583.89105816249662
 31
0.0
 12
334.82491146504861
 22
596.39105816249662
 32
0.0
 13
334.82491146504861
 23
596.39105816249662
 33
0.0
  0
INSERT
  5
31
  8
SNIJ
  2
*U25
 10
0.0
 20
0.0
 30
0.0
  0
POINT
  5
32
  8
DEFPOINTS
 62
     0
 10
337.21060208121207
 20
72.790160326170394
 30
0.0
  0
POINT
  5
33
  8
DEFPOINTS
 62
     0
 10
337.21060208121207
 20
596.39105816249662
 30
0.0
  0
POINT
  5
34
  8
DEFPOINTS
 62
     0
 10
334.82491146504861
 20
596.39105816249662
 30
0.0
  0
ENDBLK
  5
36
  8
0
  0
BLOCK
  8
0
  2
*D2
 70
     1
 10
0.0
 20
0.0
 30
0.0
  3
*D2
  1

  0
LINE
  5
38
  8
TEKST
 62
     0
 10
296.21060208127687
 20
331.46560913244798
 30
0.0
 11
296.21060208127687
 21
305.63027629092898
 31
0.0
  0
LINE
  5
39
  8
TEKST
 62
     0
 10
394.21060208127687
 20
331.46560924433351
 30
0.0
 11
394.21060208127687
 21
305.63027629092898
 31
0.0
  0
LINE
  5
3A
  8
TEKST
 62
     0
 10
308.71060208127687
 20
311.88027629092898
 30
0.0
 11
381.71060208127687
 21
311.88027629092898
 31
0.0
  0
SOLID
  5
3B
  8
TEKST
 62
     0
 10
308.71060208127687
 20
313.96360962426229
 30
0.0
 11
308.71060208127687
 21
309.79694295759572
 31
0.0
 12
296.21060208127687
 22
311.88027629092898
 32
0.0
 13
296.21060208127687
 23
311.88027629092898
 33
0.0
  0
SOLID
  5
3C
  8
TEKST
 62
     0
 10
381.71060208127687
 20
313.96360962426229
 30
0.0
 11
381.71060208127687
 21
309.79694295759572
 31
0.0
 12
394.21060208127687
 22
311.88027629092898
 32
0.0
 13
394.21060208127687
 23
311.88027629092898
 33
0.0
  0
INSERT
  5
3D
  8
SNIJ
  2
*U26
 10
0.0
 20
0.0
 30
0.0
  0
POINT
  5
3E
  8
DEFPOINTS
 62
     0
 10
296.21060208127687
 20
334.59060913244798
 30
0.0
  0
POINT
  5
3F
  8
DEFPOINTS
 62
     0
 10
394.21060208127687
 20
334.59060924433351
 30
0.0
  0
POINT
  5
40
  8
DEFPOINTS
 62
     0
 10
394.21060208127687
 20
311.88027629092898
 30
0.0
  0
ENDBLK
  5
42
  8
0
  0
BLOCK
  8
0
  2
A$C17A10AB5
 70
     0
 10
0.0
 20
0.0
 30
0.0
  3
A$C17A10AB5
  1

  0
DIMENSION
  5
47
  8
TEKST
  2
*D1
 10
38.61430856249639
 20
523.60089741695128
 30
0.0
 11
38.614308562496262
 21
218.98029121389851
 31
0.0
 12
-296.21060290255218
 22
-72.790160745545109
 32
0.0
 70
   128
  3
ISO-25
 13
40.999999178659962
 23
-0.0000004193747145
 33
0.0
 14
40.999999178659962
 24
523.60089741695128
 34
0.0
 50
90.0
1001
ACAD
1000
DSTYLE
1002
{
1070
   271
1070
     0
1002
}
  0
LINE
  5
4A
  8
SNIJ
 10
97.999999178724693
 20
424.8008986243513
 30
0.0
 11
97.999999178724693
 21
98.799998373225222
 31
0.0
  0
ARC
  5
4B
  8
SNIJ
  6
CONTINUOUS
 10
1549.999999178659
 20
261.79999837322532
 30
0.0
 40
1550.0
 50
179.99998336109991
 51
187.42754925200009
  0
LINE
  5
4C
  8
SNIJ
  6
CONTINUOUS
 10
40.999999178659642
 20
65.08600410373981
 30
0.0
 11
53.270889570939062
 21
98.799998373225435
 31
0.0
  0
ARC
  5
4D
  8
SNIJ
  6
CONTINUOUS
 10
1093.999999178659
 20
261.79999837322532
 30
0.0
 40
1100.0
 50
191.65225690669811
 51
193.3373048549978
  0
LINE
  5
4E
  8
SNIJ
  6
CONTINUOUS
 10
40.999999178659642
 20
65.08600410373981
 30
0.0
 11
40.999999178659962
 21
-0.0000004193747145
 31
0.0
  0
POLYLINE
  8
SNIJ
  5
14BD
  66
     1
 10
0.000000
 20
0.000000
 30
0.000000
  70
     8
  0
VERTEX
  8
SNIJ
  5
14BE
 10
27.2253
 20
2.30436
 30
0.000000
  70
    32
  0
VERTEX
  8
SNIJ
  5
14BF
 10
27.2531
 20
2.28153
 30
0.000000
  70
    32
  0
VERTEX
  8
SNIJ
  5
14C0
 10
27.2810
 20
2.25880
 30
0.000000
  70
    32
  0
VERTEX
  8
SNIJ
  5
14C1
 10
27.3089
 20
2.23616
 30
0.000000
  70
    32
  0
VERTEX
  8
SNIJ
  5
14C2
 10
27.3369
 20
2.21361
 30
0.000000
  70
    32
  0
VERTEX
  8
SNIJ
  5
14C3
 10
27.3650
 20
2.19116
 30
0.000000
  70
    32
  0
VERTEX
  8
SNIJ
  5
14C4
 10
27.3932
 20
2.16881
 30
0.000000
  70
    32
  0
VERTEX
  8
SNIJ
  5
14C5
 10
27.4214
 20
2.14655
 30
0.000000
  70
    32
  0
VERTEX
  8
SNIJ
  5
14C6
 10
27.4498
 20
2.12439
 30
0.000000
  70
    32
  0
VERTEX
  8
SNIJ
  5
14C7
 10
27.4782
 20
2.10233
 30
0.000000
  70
    32
  0
VERTEX
  8
SNIJ
  5
14C8
 10
27.5067
 20
2.08036
 30
0.000000
  70
    32
  0
VERTEX
  8
SNIJ
  5
14C9
 10
27.5353
 20
2.05850
 30
0.000000
  70
    32
  0
VERTEX
  8
SNIJ
  5
14CA
 10
27.5639
 20
2.03673
 30
0.000000
  70
    32
  0
VERTEX
  8
SNIJ
  5
14CB
 10
27.5927
 20
2.01505
 30
0.000000
  70
    32
  0
VERTEX
  8
SNIJ
  5
14CC
 10
27.6215
 20
1.99348
 30
0.000000
  70
    32
  0
VERTEX
  8
SNIJ
  5
14CD
 10
27.6504
 20
1.97201
 30
0.000000
  70
    32
  0
VERTEX
  8
SNIJ
  5
14CE
 10
27.6794
 20
1.95064
 30
0.000000
  70
    32
  0
VERTEX
  8
SNIJ
  5
14CF
 10
27.7084
 20
1.92936
 30
0.000000
  70
    32
  0
VERTEX
  8
SNIJ
  5
14D0
 10
27.7375
 20
1.90819
 30
0.000000
  70
    32
  0
VERTEX
  8
SNIJ
  5
14D1
 10
27.7667
 20
1.88712
 30
0.000000
  70
    32
  0
VERTEX
  8
SNIJ
  5
14D2
 10
27.7960
 20
1.86614
 30
0.000000
  70
    32
  0
VERTEX
  8
SNIJ
  5
14D3
 10
27.8254
 20
1.84527
 30
0.000000
  70
    32
  0
VERTEX
  8
SNIJ
  5
14D4
 10
27.8548
 20
1.82450
 30
0.000000
  70
    32
  0
VERTEX
  8
SNIJ
  5
14D5
 10
27.8843
 20
1.80383
 30
0.000000
  70
    32
  0
VERTEX
  8
SNIJ
  5
14D6
 10
27.9139
 20
1.78327
 30
0.000000
  70
    32
  0
VERTEX
  8
SNIJ
  5
14D7
 10
27.9435
 20
1.76281
 30
0.000000
  70
    32
  0
VERTEX
  8
SNIJ
  5
14D8
 10
27.9733
 20
1.74244
 30
0.000000
  70
    32
  0
VERTEX
  8
SNIJ
  5
14D9
 10
28.0031
 20
1.72219
 30
0.000000
  70
    32
  0
VERTEX
  8
SNIJ
  5
14DA
 10
28.0329
 20
1.70203
 30
0.000000
  70
    32
  0
VERTEX
  8
SNIJ
  5
14DB
 10
28.0629
 20
1.68198
 30
0.000000
  70
    32
  0
VERTEX
  8
SNIJ
  5
14DC
 10
28.0929
 20
1.66204
 30
0.000000
  70
    32
  0
VERTEX
  8
SNIJ
  5
14DD
 10
28.1230
 20
1.64220
 30
0.000000
  70
    32
  0
VERTEX
  8
SNIJ
  5
14DE
 10
28.1531
 20
1.62246
 30
0.000000
  70
    32
  0
VERTEX
  8
SNIJ
  5
14DF
 10
28.1834
 20
1.60283
 30
0.000000
  70
    32
  0
VERTEX
  8
SNIJ
  5
14E0
 10
28.2137
 20
1.58330
 30
0.000000
  70
    32
  0
VERTEX
  8
SNIJ
  5
14E1
 10
28.2440
 20
1.56388
 30
0.000000
  70
    32
  0
VERTEX
  8
SNIJ
  5
14E2
 10
28.2745
 20
1.54457
 30
0.000000
  70
    32
  0
VERTEX
  8
SNIJ
  5
14E3
 10
28.3050
 20
1.52536
 30
0.000000
  70
    32
  0
VERTEX
  8
SNIJ
  5
14E4
 10
28.3355
 20
1.50626
 30
0.000000
  70
    32
  0
VERTEX
  8
SNIJ
  5
14E5
 10
28.3662
 20
1.48727
 30
0.000000
  70
    32
  0
VERTEX
  8
SNIJ
  5
14E6
 10
28.3969
 20
1.46838
 30
0.000000
  70
    32
  0
VERTEX
  8
SNIJ
  5
14E7
 10
28.4276
 20
1.44961
 30
0.000000
  70
    32
  0
VERTEX
  8
SNIJ
  5
14E8
 10
28.4585
 20
1.43094
 30
0.000000
  70
    32
  0
VERTEX
  8
SNIJ
  5
14E9
 10
28.4894
 20
1.41238
 30
0.000000
  70
    32
  0
VERTEX
  8
SNIJ
  5
14EA
 10
28.5204
 20
1.39392
 30
0.000000
  70
    32
  0
VERTEX
  8
SNIJ
  5
14EB
 10
28.5514
 20
1.37558
 30
0.000000
  70
    32
  0
VERTEX
  8
SNIJ
  5
14EC
 10
28.5825
 20
1.35735
 30
0.000000
  70
    32
  0
VERTEX
  8
SNIJ
  5
14ED
 10
28.6137
 20
1.33923
 30
0.000000
  70
    32
  0
VERTEX
  8
SNIJ
  5
14EE
 10
28.6449
 20
1.32121
 30
0.000000
  70
    32
  0
VERTEX
  8
SNIJ
  5
14EF
 10
28.6762
 20
1.30331
 30
0.000000
  70
    32
  0
VERTEX
  8
SNIJ
  5
14F0
 10
28.7075
 20
1.28552
 30
0.000000
  70
    32
  0
VERTEX
  8
SNIJ
  5
14F1
 10
28.7390
 20
1.26784
 30
0.000000
  70
    32
  0
VERTEX
  8
SNIJ
  5
14F2
 10
28.7704
 20
1.25027
 30
0.000000
  70
    32
  0
VERTEX
  8
SNIJ
  5
14F3
 10
28.8020
 20
1.23281
 30
0.000000
  70
    32
  0
VERTEX
  8
SNIJ
  5
14F4
 10
28.8336
 20
1.21547
 30
0.000000
  70
    32
  0
VERTEX
  8
SNIJ
  5
14F5
 10
28.8653
 20
1.19823
 30
0.000000
  70
    32
  0
VERTEX
  8
SNIJ
  5
14F6
 10
28.8970
 20
1.18112
 30
0.000000
  70
    32
  0
VERTEX
  8
SNIJ
  5
14F7
 10
28.9288
 20
1.16411
 30
0.000000
  70
    32
  0
VERTEX
  8
SNIJ
  5
14F8
 10
28.9606
 20
1.14722
 30
0.000000
  70
    32
  0
VERTEX
  8
SNIJ
  5
14F9
 10
28.9925
 20
1.13044
 30
0.000000
  70
    32
  0
VERTEX
  8
SNIJ
  5
14FA
 10
29.0245
 20
1.11377
 30
0.000000
  70
    32
  0
VERTEX
  8
SNIJ
  5
14FB
 10
29.0565
 20
1.09722
 30
0.000000
  70
    32
  0
VERTEX
  8
SNIJ
  5
14FC
 10
29.0886
 20
1.08079
 30
0.000000
  70
    32
  0
VERTEX
  8
SNIJ
  5
14FD
 10
29.1207
 20
1.06447
 30
0.000000
  70
    32
  0
VERTEX
  8
SNIJ
  5
14FE
 10
29.1529
 20
1.04827
 30
0.000000
  70
    32
  0
VERTEX
  8
SNIJ
  5
14FF
 10
29.1852
 20
1.03218
 30
0.000000
  70
    32
  0
VERTEX
  8
SNIJ
  5
1500
 10
29.2175
 20
1.01621
 30
0.000000
  70
    32
  0
VERTEX
  8
SNIJ
  5
1501
 10
29.2498
 20
1.00035
 30
0.000000
  70
    32
  0
VERTEX
  8
SNIJ
  5
1502
 10
29.2823
 20
0.984612
 30
0.000000
  70
    32
  0
VERTEX
  8
SNIJ
  5
1503
 10
29.3147
 20
0.968990
 30
0.000000
  70
    32
  0
VERTEX
  8
SNIJ
  5
1504
 10
29.3473
 20
0.953486
 30
0.000000
  70
    32
  0
VERTEX
  8
SNIJ
  5
1505
 10
29.3798
 20
0.938099
 30
0.000000
  70
    32
  0
VERTEX
  8
SNIJ
  5
1506
 10
29.4125
 20
0.922830
 30
0.000000
  70
    32
  0
VERTEX
  8
SNIJ
  5
1507
 10
29.4452
 20
0.907678
 30
0.000000
  70
    32
  0
VERTEX
  8
SNIJ
  5
1508
 10
29.4779
 20
0.892645
 30
0.000000
  70
    32
  0
VERTEX
  8
SNIJ
  5
1509
 10
29.5107
 20
0.877730
 30
0.000000
  70
    32
  0
VERTEX
  8
SNIJ
  5
150A
 10
29.5436
 20
0.862933
 30
0.000000
  70
    32
  0
VERTEX
  8
SNIJ
  5
150B
 10
29.5765
 20
0.848255
 30
0.000000
  70
    32
  0
VERTEX
  8
SNIJ
  5
150C
 10
29.6094
 20
0.833696
 30
0.000000
  70
    32
  0
VERTEX
  8
SNIJ
  5
150D
 10
29.6424
 20
0.819256
 30
0.000000
  70
    32
  0
VERTEX
  8
SNIJ
  5
150E
 10
29.6755
 20
0.804935
 30
0.000000
  70
    32
  0
VERTEX
  8
SNIJ
  5
150F
 10
29.7086
 20
0.790734
 30
0.000000
  70
    32
  0
VERTEX
  8
SNIJ
  5
1510
 10
29.7417
 20
0.776653
 30
0.000000
  70
    32
  0
VERTEX
  8
SNIJ
  5
1511
 10
29.7749
 20
0.762691
 30
0.000000
  70
    32
  0
VERTEX
  8
SNIJ
  5
1512
 10
29.8082
 20
0.748850
 30
0.000000
  70
    32
  0
VERTEX
  8
SNIJ
  5
1513
 10
29.8415
 20
0.735129
 30
0.000000
  70
    32
  0
VERTEX
  8
SNIJ
  5
1514
 10
29.8749
 20
0.721529
 30
0.000000
  70
    32
  0
VERTEX
  8
SNIJ
  5
1515
 10
29.9083
 20
0.708049
 30
0.000000
  70
    32
  0
VERTEX
  8
SNIJ
  5
1516
 10
29.9417
 20
0.694690
 30
0.000000
  70
    32
  0
VERTEX
  8
SNIJ
  5
1517
 10
29.9752
 20
0.681453
 30
0.000000
  70
    32
  0
VERTEX
  8
SNIJ
  5
1518
 10
30.0088
 20
0.668337
 30
0.000000
  70
    32
  0
VERTEX
  8
SNIJ
  5
1519
 10
30.0423
 20
0.655343
 30
0.000000
  70
    32
  0
VERTEX
  8
SNIJ
  5
151A
 10
30.0760
 20
0.642470
 30
0.000000
  70
    32
  0
VERTEX
  8
SNIJ
  5
151B
 10
30.1097
 20
0.629720
 30
0.000000
  70
    32
  0
VERTEX
  8
SNIJ
  5
151C
 10
30.1434
 20
0.617092
 30
0.000000
  70
    32
  0
VERTEX
  8
SNIJ
  5
151D
 10
30.1772
 20
0.604586
 30
0.000000
  70
    32
  0
VERTEX
  8
SNIJ
  5
151E
 10
30.2110
 20
0.592203
 30
0.000000
  70
    32
  0
VERTEX
  8
SNIJ
  5
151F
 10
30.2449
 20
0.579943
 30
0.000000
  70
    32
  0
VERTEX
  8
SNIJ
  5
1520
 10
30.2788
 20
0.567806
 30
0.000000
  70
    32
  0
VERTEX
  8
SNIJ
  5
1521
 10
30.3127
 20
0.555792
 30
0.000000
  70
    32
  0
VERTEX
  8
SNIJ
  5
1522
 10
30.3467
 20
0.543902
 30
0.000000
  70
    32
  0
VERTEX
  8
SNIJ
  5
1523
 10
30.3808
 20
0.532136
 30
0.000000
  70
    32
  0
VERTEX
  8
SNIJ
  5
1524
 10
30.4148
 20
0.520493
 30
0.000000
  70
    32
  0
VERTEX
  8
SNIJ
  5
1525
 10
30.4490
 20
0.508975
 30
0.000000
  70
    32
  0
VERTEX
  8
SNIJ
  5
1526
 10
30.4831
 20
0.497581
 30
0.000000
  70
    32
  0
VERTEX
  8
SNIJ
  5
1527
 10
30.5173
 20
0.486312
 30
0.000000
  70
    32
  0
VERTEX
  8
SNIJ
  5
1528
 10
30.5516
 20
0.475167
 30
0.000000
  70
    32
  0
VERTEX
  8
SNIJ
  5
1529
 10
30.5859
 20
0.464148
 30
0.000000
  70
    32
  0
VERTEX
  8
SNIJ
  5
152A
 10
30.6202
 20
0.453254
 30
0.000000
  70
    32
  0
VERTEX
  8
SNIJ
  5
152B
 10
30.6546
 20
0.442485
 30
0.000000
  70
    32
  0
VERTEX
  8
SNIJ
  5
152C
 10
30.6890
 20
0.431842
 30
0.000000
  70
    32
  0
VERTEX
  8
SNIJ
  5
152D
 10
30.7234
 20
0.421324
 30
0.000000
  70
    32
  0
VERTEX
  8
SNIJ
  5
152E
 10
30.7579
 20
0.410933
 30
0.000000
  70
    32
  0
VERTEX
  8
SNIJ
  5
152F
 10
30.7924
 20
0.400668
 30
0.000000
  70
    32
  0
VERTEX
  8
SNIJ
  5
1530
 10
30.8270
 20
0.390530
 30
0.000000
  70
    32
  0
VERTEX
  8
SNIJ
  5
1531
 10
30.8616
 20
0.380518
 30
0.000000
  70
    32
  0
VERTEX
  8
SNIJ
  5
1532
 10
30.8962
 20
0.370633
 30
0.000000
  70
    32
  0
VERTEX
  8
SNIJ
  5
1533
 10
30.9309
 20
0.360875
 30
0.000000
  70
    32
  0
VERTEX
  8
SNIJ
  5
1534
 10
30.9656
 20
0.351245
 30
0.000000
  70
    32
  0
VERTEX
  8
SNIJ
  5
1535
 10
31.0004
 20
0.341742
 30
0.000000
  70
    32
  0
VERTEX
  8
SNIJ
  5
1536
 10
31.0351
 20
0.332367
 30
0.000000
  70
    32
  0
VERTEX
  8
SNIJ
  5
1537
 10
31.0700
 20
0.323120
 30
0.000000
  70
    32
  0
VERTEX
  8
SNIJ
  5
1538
 10
31.1048
 20
0.314001
 30
0.000000
  70
    32
  0
VERTEX
  8
SNIJ
  5
1539
 10
31.1397
 20
0.305010
 30
0.000000
  70
    32
  0
VERTEX
  8
SNIJ
  5
153A
 10
31.1746
 20
0.296148
 30
0.000000
  70
    32
  0
VERTEX
  8
SNIJ
  5
153B
 10
31.2096
 20
0.287415
 30
0.000000
  70
    32
  0
VERTEX
  8
SNIJ
  5
153C
 10
31.2446
 20
0.278811
 30
0.000000
  70
    32
  0
VERTEX
  8
SNIJ
  5
153D
 10
31.2796
 20
0.270336
 30
0.000000
  70
    32
  0
VERTEX
  8
SNIJ
  5
153E
 10
31.3146
 20
0.261991
 30
0.000000
  70
    32
  0
VERTEX
  8
SNIJ
  5
153F
 10
31.3497
 20
0.253775
 30
0.000000
  70
    32
  0
VERTEX
  8
SNIJ
  5
1540
 10
31.3848
 20
0.245689
 30
0.000000
  70
    32
  0
VERTEX
  8
SNIJ
  5
1541
 10
31.4200
 20
0.237733
 30
0.000000
  70
    32
  0
VERTEX
  8
SNIJ
  5
1542
 10
31.4552
 20
0.229906
 30
0.000000
  70
    32
  0
VERTEX
  8
SNIJ
  5
1543
 10
31.4904
 20
0.222210
 30
0.000000
  70
    32
  0
VERTEX
  8
SNIJ
  5
1544
 10
31.5256
 20
0.214643
 30
0.000000
  70
    32
  0
VERTEX
  8
SNIJ
  5
1545
 10
31.5609
 20
0.207207
 30
0.000000
  70
    32
  0
VERTEX
  8
SNIJ
  5
1546
 10
31.5962
 20
0.199901
 30
0.000000
  70
    32
  0
VERTEX
  8
SNIJ
  5
1547
 10
31.6315
 20
0.192725
 30
0.000000
  70
    32
  0
VERTEX
  8
SNIJ
  5
1548
 10
31.6669
 20
0.185679
 30
0.000000
  70
    32
  0
VERTEX
  8
SNIJ
  5
1549
 10
31.7023
 20
0.178763
 30
0.000000
  70
    32
  0
VERTEX
  8
SNIJ
  5
154A
 10
31.7377
 20
0.171978
 30
0.000000
  70
    32
  0
VERTEX
  8
SNIJ
  5
154B
 10
31.7731
 20
0.165323
 30
0.000000
  70
    32
  0
VERTEX
  8
SNIJ
  5
154C
 10
31.8085
 20
0.158798
 30
0.000000
  70
    32
  0
VERTEX
  8
SNIJ
  5
154D
 10
31.8440
 20
0.152404
 30
0.000000
  70
    32
  0
VERTEX
  8
SNIJ
  5
154E
 10
31.8795
 20
0.146141
 30
0.000000
  70
    32
  0
VERTEX
  8
SNIJ
  5
154F
 10
31.9151
 20
0.140008
 30
0.000000
  70
    32
  0
VERTEX
  8
SNIJ
  5
1550
 10
31.9506
 20
0.134006
 30
0.000000
  70
    32
  0
VERTEX
  8
SNIJ
  5
1551
 10
31.9862
 20
0.128134
 30
0.000000
  70
    32
  0
VERTEX
  8
SNIJ
  5
1552
 10
32.0218
 20
0.122393
 30
0.000000
  70
    32
  0
VERTEX
  8
SNIJ
  5
1553
 10
32.0574
 20
0.116783
 30
0.000000
  70
    32
  0
VERTEX
  8
SNIJ
  5
1554
 10
32.0930
 20
0.111304
 30
0.000000
  70
    32
  0
VERTEX
  8
SNIJ
  5
1555
 10
32.1287
 20
0.105956
 30
0.000000
  70
    32
  0
VERTEX
  8
SNIJ
  5
1556
 10
32.1643
 20
0.100739
 30
0.000000
  70
    32
  0
VERTEX
  8
SNIJ
  5
1557
 10
32.2000
 20
0.0956523
 30
0.000000
  70
    32
  0
VERTEX
  8
SNIJ
  5
1558
 10
32.2357
 20
0.0906971
 30
0.000000
  70
    32
  0
VERTEX
  8
SNIJ
  5
1559
 10
32.2714
 20
0.0858731
 30
0.000000
  70
    32
  0
VERTEX
  8
SNIJ
  5
155A
 10
32.3072
 20
0.0811802
 30
0.000000
  70
    32
  0
VERTEX
  8
SNIJ
  5
155B
 10
32.3429
 20
0.0766186
 30
0.000000
  70
    32
  0
VERTEX
  8
SNIJ
  5
155C
 10
32.3787
 20
0.0721883
 30
0.000000
  70
    32
  0
VERTEX
  8
SNIJ
  5
155D
 10
32.4145
 20
0.0678893
 30
0.000000
  70
    32
  0
VERTEX
  8
SNIJ
  5
155E
 10
32.4503
 20
0.0637217
 30
0.000000
  70
    32
  0
VERTEX
  8
SNIJ
  5
155F
 10
32.4861
 20
0.0596856
 30
0.000000
  70
    32
  0
VERTEX
  8
SNIJ
  5
1560
 10
32.5219
 20
0.0557810
 30
0.000000
  70
    32
  0
VERTEX
  8
SNIJ
  5
1561
 10
32.5578
 20
0.0520079
 30
0.000000
  70
    32
  0
VERTEX
  8
SNIJ
  5
1562
 10
32.5936
 20
0.0483665
 30
0.000000
  70
    32
  0
VERTEX
  8
SNIJ
  5
1563
 10
32.6295
 20
0.0448568
 30
0.000000
  70
    32
  0
VERTEX
  8
SNIJ
  5
1564
 10
32.6654
 20
0.0414788
 30
0.000000
  70
    32
  0
VERTEX
  8
SNIJ
  5
1565
 10
32.7012
 20
0.0382325
 30
0.000000
  70
    32
  0
VERTEX
  8
SNIJ
  5
1566
 10
32.7371
 20
0.0351182
 30
0.000000
  70
    32
  0
VERTEX
  8
SNIJ
  5
1567
 10
32.7730
 20
0.0321357
 30
0.000000
  70
    32
  0
VERTEX
  8
SNIJ
  5
1568
 10
32.8089
 20
0.0292851
 30
0.000000
  70
    32
  0
VERTEX
  8
SNIJ
  5
1569
 10
32.8449
 20
0.0265666
 30
0.000000
  70
    32
  0
VERTEX
  8
SNIJ
  5
156A
 10
32.8808
 20
0.0239801
 30
0.000000
  70
    32
  0
VERTEX
  8
SNIJ
  5
156B
 10
32.9167
 20
0.0215257
 30
0.000000
  70
    32
  0
VERTEX
  8
SNIJ
  5
156C
 10
32.9526
 20
0.0192035
 30
0.000000
  70
    32
  0
VERTEX
  8
SNIJ
  5
156D
 10
32.9886
 20
0.0170135
 30
0.000000
  70
    32
  0
VERTEX
  8
SNIJ
  5
156E
 10
33.0245
 20
0.0149557
 30
0.000000
  70
    32
  0
VERTEX
  8
SNIJ
  5
156F
 10
33.0605
 20
0.0130303
 30
0.000000
  70
    32
  0
VERTEX
  8
SNIJ
  5
1570
 10
33.0964
 20
0.0112373
 30
0.000000
  70
    32
  0
VERTEX
  8
SNIJ
  5
1571
 10
33.1324
 20
0.00957673
 30
0.000000
  70
    32
  0
VERTEX
  8
SNIJ
  5
1572
 10
33.1684
 20
0.00804864
 30
0.000000
  70
    32
  0
VERTEX
  8
SNIJ
  5
1573
 10
33.2043
 20
0.00665309
 30
0.000000
  70
    32
  0
VERTEX
  8
SNIJ
  5
1574
 10
33.2403
 20
0.00539015
 30
0.000000
  70
    32
  0
VERTEX
  8
SNIJ
  5
1575
 10
33.2762
 20
0.00425986
 30
0.000000
  70
    32
  0
VERTEX
  8
SNIJ
  5
1576
 10
33.3122
 20
0.00326227
 30
0.000000
  70
    32
  0
VERTEX
  8
SNIJ
  5
1577
 10
33.3482
 20
0.00239745
 30
0.000000
  70
    32
  0
VERTEX
  8
SNIJ
  5
1578
 10
33.3841
 20
0.00166545
 30
0.000000
  70
    32
  0
VERTEX
  8
SNIJ
  5
1579
 10
33.4201
 20
0.00106631
 30
0.000000
  70
    32
  0
VERTEX
  8
SNIJ
  5
157A
 10
33.4561
 20
0.000600105
 30
0.000000
  70
    32
  0
VERTEX
  8
SNIJ
  5
157B
 10
33.4920
 20
0.000266878
 30
0.000000
  70
    32
  0
VERTEX
  8
SNIJ
  5
157C
 10
33.5280
 20
6.66849e-005
 30
0.000000
  70
    32
  0
VERTEX
  8
SNIJ
  5
157D
 10
33.5639
 20
-4.19375e-007
 30
0.000000
  70
    32
  0
SEQEND
  8
SNIJ
  5
157E
  0
LINE
  5
50
  8
SNIJ
 10
23.668228051697952
 20
8.0483486914509967
 30
0.0
 11
27.2253364844596
 21
2.3043624224252399
 31
0.0
  0
LINE
  5
51
  8
SNIJ
  6
CONTINUOUS
 10
33.563904772859587
 20
-0.0000004193747145
 30
0.0
 11
40.999999178659962
 21
-0.0000004193747145
 31
0.0
  0
ARC
  5
52
  8
SNIJ
  6
CONTINUOUS
 10
310.48684128365988
 20
100.22298451922541
 30
0.0
 40
300.0
 50
187.42692707139901
 51
191.65225638460069
  0
LINE
  5
53
  8
SNIJ
  6
CONTINUOUS
 10
53.270889570939062
 20
98.799998373225435
 30
0.0
 11
97.999999178724693
 21
98.799998373225222
 31
0.0
  0
DIMENSION
  5
54
  8
TEKST
  2
*D2
 10
97.999999178724693
 20
239.0901155453839
 30
0.0
 11
48.999999178724693
 21
248.4651155453839
 31
0.0
 12
-296.21060290255218
 22
-72.790160745545109
 32
0.0
  3
ISO-25
 13
-0.0000008212753073
 23
261.80044838690287
 33
0.0
 14
97.999999178724693
 24
261.8004484987884
 34
0.0
  0
TEXT
  5
57
  8
TEKST
 10
9.5928139123450382
 20
263.93885954084908
 30
0.0
 40
5.625
  1
Laag3-AC-20100701
  0
TEXT
  5
58
  8
TEKST
 10
9.5928139123450382
 20
292.06385954084919
 30
0.0
 40
5.625
  1
Multimat
  0
TEXT
  5
59
  8
TEKST
 10
9.5928139123450382
 20
301.43885954084931
 30
0.0
 40
5.625
  1
Brugstuk 
  0
LINE
  5
5A
  8
SNIJ
  6
CONTINUOUS
 10
40.999999178659642
 20
458.51489289383687
 30
0.0
 11
53.270889570939062
 21
424.80089862435119
 31
0.0
  0
ARC
  5
5B
  8
SNIJ
  6
CONTINUOUS
 10
1549.999999178659
 20
261.80089862435142
 30
0.0
 40
1550.0
 50
172.57245074799991
 51
180.00001663890009
  0
TEXT
  5
5C
  8
TEKST
 10
9.5928139123450382
 20
310.81385954084931
 30
0.0
 40
5.625
  1
HGZ
  0
ARC
  5
5D
  8
SNIJ
  6
CONTINUOUS
 10
1093.999999178659
 20
261.80089862435142
 30
0.0
 40
1100.0
 50
166.66269514500209
 51
168.3477430933018
  0
LINE
  5
5E
  8
SNIJ
  6
CONTINUOUS
 10
40.999999178659642
 20
458.51489289383687
 30
0.0
 11
40.999999178659962
 21
523.60089741695128
 31
0.0
  0
ARC
  5
5F
  8
SNIJ
  6
CONTINUOUS
 10
310.48684128365988
 20
423.37791247835122
 30
0.0
 40
300.0
 50
168.3477436153992
 51
172.57307292860099
  0
POLYLINE
  8
SNIJ
  5
157F
  66
     1
 10
0.000000
 20
0.000000
 30
0.000000
  70
     8
  0
VERTEX
  8
SNIJ
  5
1580
 10
27.2253
 20
521.297
 30
0.000000
  70
    32
  0
VERTEX
  8
SNIJ
  5
1581
 10
27.2531
 20
521.319
 30
0.000000
  70
    32
  0
VERTEX
  8
SNIJ
  5
1582
 10
27.2810
 20
521.342
 30
0.000000
  70
    32
  0
VERTEX
  8
SNIJ
  5
1583
 10
27.3089
 20
521.365
 30
0.000000
  70
    32
  0
VERTEX
  8
SNIJ
  5
1584
 10
27.3369
 20
521.387
 30
0.000000
  70
    32
  0
VERTEX
  8
SNIJ
  5
1585
 10
27.3650
 20
521.410
 30
0.000000
  70
    32
  0
VERTEX
  8
SNIJ
  5
1586
 10
27.3932
 20
521.432
 30
0.000000
  70
    32
  0
VERTEX
  8
SNIJ
  5
1587
 10
27.4214
 20
521.454
 30
0.000000
  70
    32
  0
VERTEX
  8
SNIJ
  5
1588
 10
27.4498
 20
521.477
 30
0.000000
  70
    32
  0
VERTEX
  8
SNIJ
  5
1589
 10
27.4782
 20
521.499
 30
0.000000
  70
    32
  0
VERTEX
  8
SNIJ
  5
158A
 10
27.5067
 20
521.521
 30
0.000000
  70
    32
  0
VERTEX
  8
SNIJ
  5
158B
 10
27.5353
 20
521.542
 30
0.000000
  70
    32
  0
VERTEX
  8
SNIJ
  5
158C
 10
27.5639
 20
521.564
 30
0.000000
  70
    32
  0
VERTEX
  8
SNIJ
  5
158D
 10
27.5927
 20
521.586
 30
0.000000
  70
    32
  0
VERTEX
  8
SNIJ
  5
158E
 10
27.6215
 20
521.607
 30
0.000000
  70
    32
  0
VERTEX
  8
SNIJ
  5
158F
 10
27.6504
 20
521.629
 30
0.000000
  70
    32
  0
VERTEX
  8
SNIJ
  5
1590
 10
27.6794
 20
521.650
 30
0.000000
  70
    32
  0
VERTEX
  8
SNIJ
  5
1591
 10
27.7084
 20
521.672
 30
0.000000
  70
    32
  0
VERTEX
  8
SNIJ
  5
1592
 10
27.7375
 20
521.693
 30
0.000000
  70
    32
  0
VERTEX
  8
SNIJ
  5
1593
 10
27.7667
 20
521.714
 30
0.000000
  70
    32
  0
VERTEX
  8
SNIJ
  5
1594
 10
27.7960
 20
521.735
 30
0.000000
  70
    32
  0
VERTEX
  8
SNIJ
  5
1595
 10
27.8254
 20
521.756
 30
0.000000
  70
    32
  0
VERTEX
  8
SNIJ
  5
1596
 10
27.8548
 20
521.776
 30
0.000000
  70
    32
  0
VERTEX
  8
SNIJ
  5
1597
 10
27.8843
 20
521.797
 30
0.000000
  70
    32
  0
VERTEX
  8
SNIJ
  5
1598
 10
27.9139
 20
521.818
 30
0.000000
  70
    32
  0
VERTEX
  8
SNIJ
  5
1599
 10
27.9435
 20
521.838
 30
0.000000
  70
    32
  0
VERTEX
  8
SNIJ
  5
159A
 10
27.9733
 20
521.858
 30
0.000000
  70
    32
  0
VERTEX
  8
SNIJ
  5
159B
 10
28.0031
 20
521.879
 30
0.000000
  70
    32
  0
VERTEX
  8
SNIJ
  5
159C
 10
28.0329
 20
521.899
 30
0.000000
  70
    32
  0
VERTEX
  8
SNIJ
  5
159D
 10
28.0629
 20
521.919
 30
0.000000
  70
    32
  0
VERTEX
  8
SNIJ
  5
159E
 10
28.0929
 20
521.939
 30
0.000000
  70
    32
  0
VERTEX
  8
SNIJ
  5
159F
 10
28.1230
 20
521.959
 30
0.000000
  70
    32
  0
VERTEX
  8
SNIJ
  5
15A0
 10
28.1531
 20
521.978
 30
0.000000
  70
    32
  0
VERTEX
  8
SNIJ
  5
15A1
 10
28.1834
 20
521.998
 30
0.000000
  70
    32
  0
VERTEX
  8
SNIJ
  5
15A2
 10
28.2137
 20
522.018
 30
0.000000
  70
    32
  0
VERTEX
  8
SNIJ
  5
15A3
 10
28.2440
 20
522.037
 30
0.000000
  70
    32
  0
VERTEX
  8
SNIJ
  5
15A4
 10
28.2745
 20
522.056
 30
0.000000
  70
    32
  0
VERTEX
  8
SNIJ
  5
15A5
 10
28.3050
 20
522.076
 30
0.000000
  70
    32
  0
VERTEX
  8
SNIJ
  5
15A6
 10
28.3355
 20
522.095
 30
0.000000
  70
    32
  0
VERTEX
  8
SNIJ
  5
15A7
 10
28.3662
 20
522.114
 30
0.000000
  70
    32
  0
VERTEX
  8
SNIJ
  5
15A8
 10
28.3969
 20
522.133
 30
0.000000
  70
    32
  0
VERTEX
  8
SNIJ
  5
15A9
 10
28.4276
 20
522.151
 30
0.000000
  70
    32
  0
VERTEX
  8
SNIJ
  5
15AA
 10
28.4585
 20
522.170
 30
0.000000
  70
    32
  0
VERTEX
  8
SNIJ
  5
15AB
 10
28.4894
 20
522.189
 30
0.000000
  70
    32
  0
VERTEX
  8
SNIJ
  5
15AC
 10
28.5204
 20
522.207
 30
0.000000
  70
    32
  0
VERTEX
  8
SNIJ
  5
15AD
 10
28.5514
 20
522.225
 30
0.000000
  70
    32
  0
VERTEX
  8
SNIJ
  5
15AE
 10
28.5825
 20
522.244
 30
0.000000
  70
    32
  0
VERTEX
  8
SNIJ
  5
15AF
 10
28.6137
 20
522.262
 30
0.000000
  70
    32
  0
VERTEX
  8
SNIJ
  5
15B0
 10
28.6449
 20
522.280
 30
0.000000
  70
    32
  0
VERTEX
  8
SNIJ
  5
15B1
 10
28.6762
 20
522.298
 30
0.000000
  70
    32
  0
VERTEX
  8
SNIJ
  5
15B2
 10
28.7075
 20
522.315
 30
0.000000
  70
    32
  0
VERTEX
  8
SNIJ
  5
15B3
 10
28.7390
 20
522.333
 30
0.000000
  70
    32
  0
VERTEX
  8
SNIJ
  5
15B4
 10
28.7704
 20
522.351
 30
0.000000
  70
    32
  0
VERTEX
  8
SNIJ
  5
15B5
 10
28.8020
 20
522.368
 30
0.000000
  70
    32
  0
VERTEX
  8
SNIJ
  5
15B6
 10
28.8336
 20
522.385
 30
0.000000
  70
    32
  0
VERTEX
  8
SNIJ
  5
15B7
 10
28.8653
 20
522.403
 30
0.000000
  70
    32
  0
VERTEX
  8
SNIJ
  5
15B8
 10
28.8970
 20
522.420
 30
0.000000
  70
    32
  0
VERTEX
  8
SNIJ
  5
15B9
 10
28.9288
 20
522.437
 30
0.000000
  70
    32
  0
VERTEX
  8
SNIJ
  5
15BA
 10
28.9606
 20
522.454
 30
0.000000
  70
    32
  0
VERTEX
  8
SNIJ
  5
15BB
 10
28.9925
 20
522.470
 30
0.000000
  70
    32
  0
VERTEX
  8
SNIJ
  5
15BC
 10
29.0245
 20
522.487
 30
0.000000
  70
    32
  0
VERTEX
  8
SNIJ
  5
15BD
 10
29.0565
 20
522.504
 30
0.000000
  70
    32
  0
VERTEX
  8
SNIJ
  5
15BE
 10
29.0886
 20
522.520
 30
0.000000
  70
    32
  0
VERTEX
  8
SNIJ
  5
15BF
 10
29.1207
 20
522.536
 30
0.000000
  70
    32
  0
VERTEX
  8
SNIJ
  5
15C0
 10
29.1529
 20
522.553
 30
0.000000
  70
    32
  0
VERTEX
  8
SNIJ
  5
15C1
 10
29.1852
 20
522.569
 30
0.000000
  70
    32
  0
VERTEX
  8
SNIJ
  5
15C2
 10
29.2175
 20
522.585
 30
0.000000
  70
    32
  0
VERTEX
  8
SNIJ
  5
15C3
 10
29.2498
 20
522.601
 30
0.000000
  70
    32
  0
VERTEX
  8
SNIJ
  5
15C4
 10
29.2823
 20
522.616
 30
0.000000
  70
    32
  0
VERTEX
  8
SNIJ
  5
15C5
 10
29.3147
 20
522.632
 30
0.000000
  70
    32
  0
VERTEX
  8
SNIJ
  5
15C6
 10
29.3473
 20
522.647
 30
0.000000
  70
    32
  0
VERTEX
  8
SNIJ
  5
15C7
 10
29.3798
 20
522.663
 30
0.000000
  70
    32
  0
VERTEX
  8
SNIJ
  5
15C8
 10
29.4125
 20
522.678
 30
0.000000
  70
    32
  0
VERTEX
  8
SNIJ
  5
15C9
 10
29.4452
 20
522.693
 30
0.000000
  70
    32
  0
VERTEX
  8
SNIJ
  5
15CA
 10
29.4779
 20
522.708
 30
0.000000
  70
    32
  0
VERTEX
  8
SNIJ
  5
15CB
 10
29.5107
 20
522.723
 30
0.000000
  70
    32
  0
VERTEX
  8
SNIJ
  5
15CC
 10
29.5436
 20
522.738
 30
0.000000
  70
    32
  0
VERTEX
  8
SNIJ
  5
15CD
 10
29.5765
 20
522.753
 30
0.000000
  70
    32
  0
VERTEX
  8
SNIJ
  5
15CE
 10
29.6094
 20
522.767
 30
0.000000
  70
    32
  0
VERTEX
  8
SNIJ
  5
15CF
 10
29.6424
 20
522.782
 30
0.000000
  70
    32
  0
VERTEX
  8
SNIJ
  5
15D0
 10
29.6755
 20
522.796
 30
0.000000
  70
    32
  0
VERTEX
  8
SNIJ
  5
15D1
 10
29.7086
 20
522.810
 30
0.000000
  70
    32
  0
VERTEX
  8
SNIJ
  5
15D2
 10
29.7417
 20
522.824
 30
0.000000
  70
    32
  0
VERTEX
  8
SNIJ
  5
15D3
 10
29.7749
 20
522.838
 30
0.000000
  70
    32
  0
VERTEX
  8
SNIJ
  5
15D4
 10
29.8082
 20
522.852
 30
0.000000
  70
    32
  0
VERTEX
  8
SNIJ
  5
15D5
 10
29.8415
 20
522.866
 30
0.000000
  70
    32
  0
VERTEX
  8
SNIJ
  5
15D6
 10
29.8749
 20
522.879
 30
0.000000
  70
    32
  0
VERTEX
  8
SNIJ
  5
15D7
 10
29.9083
 20
522.893
 30
0.000000
  70
    32
  0
VERTEX
  8
SNIJ
  5
15D8
 10
29.9417
 20
522.906
 30
0.000000
  70
    32
  0
VERTEX
  8
SNIJ
  5
15D9
 10
29.9752
 20
522.919
 30
0.000000
  70
    32
  0
VERTEX
  8
SNIJ
  5
15DA
 10
30.0088
 20
522.933
 30
0.000000
  70
    32
  0
VERTEX
  8
SNIJ
  5
15DB
 10
30.0423
 20
522.946
 30
0.000000
  70
    32
  0
VERTEX
  8
SNIJ
  5
15DC
 10
30.0760
 20
522.958
 30
0.000000
  70
    32
  0
VERTEX
  8
SNIJ
  5
15DD
 10
30.1097
 20
522.971
 30
0.000000
  70
    32
  0
VERTEX
  8
SNIJ
  5
15DE
 10
30.1434
 20
522.984
 30
0.000000
  70
    32
  0
VERTEX
  8
SNIJ
  5
15DF
 10
30.1772
 20
522.996
 30
0.000000
  70
    32
  0
VERTEX
  8
SNIJ
  5
15E0
 10
30.2110
 20
523.009
 30
0.000000
  70
    32
  0
VERTEX
  8
SNIJ
  5
15E1
 10
30.2449
 20
523.021
 30
0.000000
  70
    32
  0
VERTEX
  8
SNIJ
  5
15E2
 10
30.2788
 20
523.033
 30
0.000000
  70
    32
  0
VERTEX
  8
SNIJ
  5
15E3
 10
30.3127
 20
523.045
 30
0.000000
  70
    32
  0
VERTEX
  8
SNIJ
  5
15E4
 10
30.3467
 20
523.057
 30
0.000000
  70
    32
  0
VERTEX
  8
SNIJ
  5
15E5
 10
30.3808
 20
523.069
 30
0.000000
  70
    32
  0
VERTEX
  8
SNIJ
  5
15E6
 10
30.4148
 20
523.080
 30
0.000000
  70
    32
  0
VERTEX
  8
SNIJ
  5
15E7
 10
30.4490
 20
523.092
 30
0.000000
  70
    32
  0
VERTEX
  8
SNIJ
  5
15E8
 10
30.4831
 20
523.103
 30
0.000000
  70
    32
  0
VERTEX
  8
SNIJ
  5
15E9
 10
30.5173
 20
523.115
 30
0.000000
  70
    32
  0
VERTEX
  8
SNIJ
  5
15EA
 10
30.5516
 20
523.126
 30
0.000000
  70
    32
  0
VERTEX
  8
SNIJ
  5
15EB
 10
30.5859
 20
523.137
 30
0.000000
  70
    32
  0
VERTEX
  8
SNIJ
  5
15EC
 10
30.6202
 20
523.148
 30
0.000000
  70
    32
  0
VERTEX
  8
SNIJ
  5
15ED
 10
30.6546
 20
523.158
 30
0.000000
  70
    32
  0
VERTEX
  8
SNIJ
  5
15EE
 10
30.6890
 20
523.169
 30
0.000000
  70
    32
  0
VERTEX
  8
SNIJ
  5
15EF
 10
30.7234
 20
523.180
 30
0.000000
  70
    32
  0
VERTEX
  8
SNIJ
  5
15F0
 10
30.7579
 20
523.190
 30
0.000000
  70
    32
  0
VERTEX
  8
SNIJ
  5
15F1
 10
30.7924
 20
523.200
 30
0.000000
  70
    32
  0
VERTEX
  8
SNIJ
  5
15F2
 10
30.8270
 20
523.210
 30
0.000000
  70
    32
  0
VERTEX
  8
SNIJ
  5
15F3
 10
30.8616
 20
523.220
 30
0.000000
  70
    32
  0
VERTEX
  8
SNIJ
  5
15F4
 10
30.8962
 20
523.230
 30
0.000000
  70
    32
  0
VERTEX
  8
SNIJ
  5
15F5
 10
30.9309
 20
523.240
 30
0.000000
  70
    32
  0
VERTEX
  8
SNIJ
  5
15F6
 10
30.9656
 20
523.250
 30
0.000000
  70
    32
  0
VERTEX
  8
SNIJ
  5
15F7
 10
31.0004
 20
523.259
 30
0.000000
  70
    32
  0
VERTEX
  8
SNIJ
  5
15F8
 10
31.0351
 20
523.269
 30
0.000000
  70
    32
  0
VERTEX
  8
SNIJ
  5
15F9
 10
31.0700
 20
523.278
 30
0.000000
  70
    32
  0
VERTEX
  8
SNIJ
  5
15FA
 10
31.1048
 20
523.287
 30
0.000000
  70
    32
  0
VERTEX
  8
SNIJ
  5
15FB
 10
31.1397
 20
523.296
 30
0.000000
  70
    32
  0
VERTEX
  8
SNIJ
  5
15FC
 10
31.1746
 20
523.305
 30
0.000000
  70
    32
  0
VERTEX
  8
SNIJ
  5
15FD
 10
31.2096
 20
523.313
 30
0.000000
  70
    32
  0
VERTEX
  8
SNIJ
  5
15FE
 10
31.2446
 20
523.322
 30
0.000000
  70
    32
  0
VERTEX
  8
SNIJ
  5
15FF
 10
31.2796
 20
523.331
 30
0.000000
  70
    32
  0
VERTEX
  8
SNIJ
  5
1600
 10
31.3146
 20
523.339
 30
0.000000
  70
    32
  0
VERTEX
  8
SNIJ
  5
1601
 10
31.3497
 20
523.347
 30
0.000000
  70
    32
  0
VERTEX
  8
SNIJ
  5
1602
 10
31.3848
 20
523.355
 30
0.000000
  70
    32
  0
VERTEX
  8
SNIJ
  5
1603
 10
31.4200
 20
523.363
 30
0.000000
  70
    32
  0
VERTEX
  8
SNIJ
  5
1604
 10
31.4552
 20
523.371
 30
0.000000
  70
    32
  0
VERTEX
  8
SNIJ
  5
1605
 10
31.4904
 20
523.379
 30
0.000000
  70
    32
  0
VERTEX
  8
SNIJ
  5
1606
 10
31.5256
 20
523.386
 30
0.000000
  70
    32
  0
VERTEX
  8
SNIJ
  5
1607
 10
31.5609
 20
523.394
 30
0.000000
  70
    32
  0
VERTEX
  8
SNIJ
  5
1608
 10
31.5962
 20
523.401
 30
0.000000
  70
    32
  0
VERTEX
  8
SNIJ
  5
1609
 10
31.6315
 20
523.408
 30
0.000000
  70
    32
  0
VERTEX
  8
SNIJ
  5
160A
 10
31.6669
 20
523.415
 30
0.000000
  70
    32
  0
VERTEX
  8
SNIJ
  5
160B
 10
31.7023
 20
523.422
 30
0.000000
  70
    32
  0
VERTEX
  8
SNIJ
  5
160C
 10
31.7377
 20
523.429
 30
0.000000
  70
    32
  0
VERTEX
  8
SNIJ
  5
160D
 10
31.7731
 20
523.436
 30
0.000000
  70
    32
  0
VERTEX
  8
SNIJ
  5
160E
 10
31.8085
 20
523.442
 30
0.000000
  70
    32
  0
VERTEX
  8
SNIJ
  5
160F
 10
31.8440
 20
523.448
 30
0.000000
  70
    32
  0
VERTEX
  8
SNIJ
  5
1610
 10
31.8795
 20
523.455
 30
0.000000
  70
    32
  0
VERTEX
  8
SNIJ
  5
1611
 10
31.9151
 20
523.461
 30
0.000000
  70
    32
  0
VERTEX
  8
SNIJ
  5
1612
 10
31.9506
 20
523.467
 30
0.000000
  70
    32
  0
VERTEX
  8
SNIJ
  5
1613
 10
31.9862
 20
523.473
 30
0.000000
  70
    32
  0
VERTEX
  8
SNIJ
  5
1614
 10
32.0218
 20
523.479
 30
0.000000
  70
    32
  0
VERTEX
  8
SNIJ
  5
1615
 10
32.0574
 20
523.484
 30
0.000000
  70
    32
  0
VERTEX
  8
SNIJ
  5
1616
 10
32.0930
 20
523.490
 30
0.000000
  70
    32
  0
VERTEX
  8
SNIJ
  5
1617
 10
32.1287
 20
523.495
 30
0.000000
  70
    32
  0
VERTEX
  8
SNIJ
  5
1618
 10
32.1643
 20
523.500
 30
0.000000
  70
    32
  0
VERTEX
  8
SNIJ
  5
1619
 10
32.2000
 20
523.505
 30
0.000000
  70
    32
  0
VERTEX
  8
SNIJ
  5
161A
 10
32.2357
 20
523.510
 30
0.000000
  70
    32
  0
VERTEX
  8
SNIJ
  5
161B
 10
32.2714
 20
523.515
 30
0.000000
  70
    32
  0
VERTEX
  8
SNIJ
  5
161C
 10
32.3072
 20
523.520
 30
0.000000
  70
    32
  0
VERTEX
  8
SNIJ
  5
161D
 10
32.3429
 20
523.524
 30
0.000000
  70
    32
  0
VERTEX
  8
SNIJ
  5
161E
 10
32.3787
 20
523.529
 30
0.000000
  70
    32
  0
VERTEX
  8
SNIJ
  5
161F
 10
32.4145
 20
523.533
 30
0.000000
  70
    32
  0
VERTEX
  8
SNIJ
  5
1620
 10
32.4503
 20
523.537
 30
0.000000
  70
    32
  0
VERTEX
  8
SNIJ
  5
1621
 10
32.4861
 20
523.541
 30
0.000000
  70
    32
  0
VERTEX
  8
SNIJ
  5
1622
 10
32.5219
 20
523.545
 30
0.000000
  70
    32
  0
VERTEX
  8
SNIJ
  5
1623
 10
32.5578
 20
523.549
 30
0.000000
  70
    32
  0
VERTEX
  8
SNIJ
  5
1624
 10
32.5936
 20
523.553
 30
0.000000
  70
    32
  0
VERTEX
  8
SNIJ
  5
1625
 10
32.6295
 20
523.556
 30
0.000000
  70
    32
  0
VERTEX
  8
SNIJ
  5
1626
 10
32.6654
 20
523.559
 30
0.000000
  70
    32
  0
VERTEX
  8
SNIJ
  5
1627
 10
32.7012
 20
523.563
 30
0.000000
  70
    32
  0
VERTEX
  8
SNIJ
  5
1628
 10
32.7371
 20
523.566
 30
0.000000
  70
    32
  0
VERTEX
  8
SNIJ
  5
1629
 10
32.7730
 20
523.569
 30
0.000000
  70
    32
  0
VERTEX
  8
SNIJ
  5
162A
 10
32.8089
 20
523.572
 30
0.000000
  70
    32
  0
VERTEX
  8
SNIJ
  5
162B
 10
32.8449
 20
523.574
 30
0.000000
  70
    32
  0
VERTEX
  8
SNIJ
  5
162C
 10
32.8808
 20
523.577
 30
0.000000
  70
    32
  0
VERTEX
  8
SNIJ
  5
162D
 10
32.9167
 20
523.579
 30
0.000000
  70
    32
  0
VERTEX
  8
SNIJ
  5
162E
 10
32.9526
 20
523.582
 30
0.000000
  70
    32
  0
VERTEX
  8
SNIJ
  5
162F
 10
32.9886
 20
523.584
 30
0.000000
  70
    32
  0
VERTEX
  8
SNIJ
  5
1630
 10
33.0245
 20
523.586
 30
0.000000
  70
    32
  0
VERTEX
  8
SNIJ
  5
1631
 10
33.0605
 20
523.588
 30
0.000000
  70
    32
  0
VERTEX
  8
SNIJ
  5
1632
 10
33.0964
 20
523.590
 30
0.000000
  70
    32
  0
VERTEX
  8
SNIJ
  5
1633
 10
33.1324
 20
523.591
 30
0.000000
  70
    32
  0
VERTEX
  8
SNIJ
  5
1634
 10
33.1684
 20
523.593
 30
0.000000
  70
    32
  0
VERTEX
  8
SNIJ
  5
1635
 10
33.2043
 20
523.594
 30
0.000000
  70
    32
  0
VERTEX
  8
SNIJ
  5
1636
 10
33.2403
 20
523.596
 30
0.000000
  70
    32
  0
VERTEX
  8
SNIJ
  5
1637
 10
33.2762
 20
523.597
 30
0.000000
  70
    32
  0
VERTEX
  8
SNIJ
  5
1638
 10
33.3122
 20
523.598
 30
0.000000
  70
    32
  0
VERTEX
  8
SNIJ
  5
1639
 10
33.3482
 20
523.598
 30
0.000000
  70
    32
  0
VERTEX
  8
SNIJ
  5
163A
 10
33.3841
 20
523.599
 30
0.000000
  70
    32
  0
VERTEX
  8
SNIJ
  5
163B
 10
33.4201
 20
523.600
 30
0.000000
  70
    32
  0
VERTEX
  8
SNIJ
  5
163C
 10
33.4561
 20
523.600
 30
0.000000
  70
    32
  0
VERTEX
  8
SNIJ
  5
163D
 10
33.4920
 20
523.601
 30
0.000000
  70
    32
  0
VERTEX
  8
SNIJ
  5
163E
 10
33.5280
 20
523.601
 30
0.000000
  70
    32
  0
VERTEX
  8
SNIJ
  5
163F
 10
33.5639
 20
523.601
 30
0.000000
  70
    32
  0
SEQEND
  8
SNIJ
  5
1640
  0
LINE
  5
61
  8
SNIJ
 10
23.668228051697952
 20
515.55254830612557
 30
0.0
 11
27.2253364844596
 21
521.29653457515133
 31
0.0
  0
LINE
  5
62
  8
SNIJ
  6
CONTINUOUS
 10
33.563904772859587
 20
523.60089741695128
 30
0.0
 11
40.999999178659962
 21
523.60089741695128
 31
0.0
  0
LINE
  5
63
  8
SNIJ
  6
CONTINUOUS
 10
53.270889570939062
 20
424.80089862435119
 30
0.0
 11
97.999999178724693
 21
424.8008986243513
 31
0.0
  0
ENDBLK
  5
65
  8
0
  0
BLOCK
  8
0
  2
*D4
 70
     1
 10
0.0
 20
0.0
 30
0.0
  3
*D4
  1

  0
LINE
  5
6B
  8
TEKST
 62
     0
 10
-260.8000088965
 20
1.875
 30
0.0
 11
-260.8000088965
 21
8.0601761904451905
 31
0.0
  0
LINE
  5
6C
  8
TEKST
 62
     0
 10
260.54579061130249
 20
1.875
 30
0.0
 11
260.54579061130249
 21
8.0601761904451905
 31
0.0
  0
LINE
  5
6D
  8
TEKST
 62
     0
 10
-253.3000088965
 20
4.3101761904451896
 30
0.0
 11
253.04579061130249
 21
4.3101761904451896
 31
0.0
  0
SOLID
  5
6E
  8
TEKST
 62
     0
 10
-253.3000088965
 20
5.5601761904451896
 30
0.0
 11
-253.3000088965
 21
3.0601761904451901
 31
0.0
 12
-260.8000088965
 22
4.3101761904451896
 32
0.0
 13
-260.8000088965
 23
4.3101761904451896
 33
0.0
  0
SOLID
  5
6F
  8
TEKST
 62
     0
 10
253.04579061130249
 20
5.5601761904451896
 30
0.0
 11
253.04579061130249
 21
3.0601761904451901
 31
0.0
 12
260.54579061130249
 22
4.3101761904451896
 32
0.0
 13
260.54579061130249
 23
4.3101761904451896
 33
0.0
  0
INSERT
  5
70
  8
SNIJ
  2
*U27
 10
0.0
 20
0.0
 30
0.0
  0
POINT
  5
71
  8
DEFPOINTS
 62
     0
 10
-260.8000088965
 20
0.0
 30
0.0
  0
POINT
  5
72
  8
DEFPOINTS
 62
     0
 10
260.54579061130249
 20
0.0
 30
0.0
  0
POINT
  5
73
  8
DEFPOINTS
 62
     0
 10
260.54579061130249
 20
4.3101761904451896
 30
0.0
  0
ENDBLK
  5
75
  8
0
  0
BLOCK
  8
0
  2
*D5
 70
     1
 10
0.0
 20
0.0
 30
0.0
  3
*D5
  1

  0
LINE
  5
77
  8
TEKST
 62
     0
 10
-220.58802545737069
 20
0.0505521316149493
 30
0.0
 11
-110.7605177548901
 21
0.0505521316149182
 31
0.0
  0
LINE
  5
78
  8
TEKST
 62
     0
 10
-2.0021091425987332
 20
85.000020065009323
 30
0.0
 11
-118.2605177548901
 21
85.000020065009352
 31
0.0
  0
LINE
  5
79
  8
TEKST
 62
     0
 10
-114.5105177548901
 20
7.5505521316149169
 30
0.0
 11
-114.5105177548901
 21
77.500020065009352
 31
0.0
  0
SOLID
  5
7A
  8
TEKST
 62
     0
 10
-115.7605177548901
 20
7.5505521316149169
 30
0.0
 11
-113.2605177548901
 21
7.5505521316149169
 31
0.0
 12
-114.5105177548901
 22
0.0505521316149192
 32
0.0
 13
-114.5105177548901
 23
0.0505521316149192
 33
0.0
  0
SOLID
  5
7B
  8
TEKST
 62
     0
 10
-115.7605177548901
 20
77.500020065009352
 30
0.0
 11
-113.2605177548901
 21
77.500020065009352
 31
0.0
 12
-114.5105177548901
 22
85.000020065009352
 32
0.0
 13
-114.5105177548901
 23
85.000020065009352
 33
0.0
  0
INSERT
  5
7C
  8
SNIJ
  2
*U28
 10
0.0
 20
0.0
 30
0.0
  0
POINT
  5
7D
  8
DEFPOINTS
 62
     0
 10
-222.46302545737069
 20
0.0505521316149498
 30
0.0
  0
POINT
  5
7E
  8
DEFPOINTS
 62
     0
 10
-0.1271091425987334
 20
85.000020065009323
 30
0.0
  0
POINT
  5
7F
  8
DEFPOINTS
 62
     0
 10
-114.5105177548901
 20
85.000020065009352
 30
0.0
  0
ENDBLK
  5
81
  8
0
  0
BLOCK
  8
0
  2
A$C4F2054A2
 70
     0
 10
0.0
 20
0.0
 30
0.0
  3
A$C4F2054A2
  1

  0
DIMENSION
  5
83
  8
TEKST
  2
*D4
 10
521.34579900542508
 20
4.310175889948141
 30
0.0
 11
260.67289925152392
 21
9.935175889948141
 31
0.0
 12
260.80000839412259
 22
-0.0000003004970495
 32
0.0
  3
ISO-25
 13
-0.000000502377361
 23
-0.0000003004970495
 33
0.0
 14
521.34579900542508
 24
-0.0000003004970495
 34
0.0
  0
ARC
  5
86
  8
SNIJ
 10
260.76202609219553
 20
-669.96004415779771
 30
0.0
 40
705.96014845111029
 50
71.623538674003029
 51
108.0798458251204
  0
ARC
  5
87
  8
SNIJ
 10
260.67289925152392
 20
-317.60967386427939
 30
0.0
 40
402.6096936287916
 50
74.344302544764304
 51
105.6556974552357
  0
DIMENSION
  5
88
  8
TEKST
  2
*D5
 10
146.2894906392325
 20
85.000019764512302
 30
0.0
 11
140.6644906392325
 21
42.525285797815073
 31
0.0
 12
260.80000839412259
 22
-0.0000003004970495
 32
0.0
  3
ISO-25
 13
38.336982936751951
 23
0.0505518311179003
 33
0.0
 14
260.67289925152392
 24
85.000019764512274
 34
0.0
 50
90.0
  0
LINE
  5
8B
  8
SNIJ
 10
144.9247281873057
 20
61.79950237872584
 30
0.0
 11
74.992198688038599
 21
34.707438829168531
 31
0.0
  0
LINE
  5
8C
  8
SNIJ
 10
44.263808478344743
 20
20.883911508883159
 30
0.0
 11
20.90034621708736
 21
13.41606855399314
 31
0.0
  0
LINE
  5
8D
  8
SNIJ
 10
-0.000000502377361
 20
-0.0000003004970495
 30
0.0
 11
38.023350597489241
 21
0.0000963307029451
 31
0.0
  0
LINE
  5
8E
  8
SNIJ
 10
4.36245628111618
 20
9.2866837365069692
 30
0.0
 11
2.541667977968415
 21
7.8892577776366917
 31
0.0
  0
LINE
  5
8F
  8
SNIJ
 10
1.8274960092947481
 20
6.820309536064558
 30
0.0
 11
-0.000000502377361
 21
-0.0000003004970495
 31
0.0
  0
ARC
  5
90
  8
SNIJ
 10
3.7593476619553572
 20
6.3026714461672979
 30
0.0
 40
2.0
 50
127.5056631808841
 51
165.00000000912851
  0
LINE
  5
91
  8
SNIJ
 10
11.67289925152394
 20
9.7000941006324393
 30
0.0
 11
5.5801370498015777
 21
9.7000974050372832
 31
0.0
  0
ARC
  5
92
  8
SNIJ
 10
5.5801359651031239
 20
7.7000974050375763
 30
0.0
 40
2.0
 50
89.999968925679894
 51
127.5056631808841
  0
LINE
  5
93
  8
SNIJ
 10
19.324710801622441
 20
12.23823298550291
 30
0.0
 11
12.468322293375451
 21
9.7897553462724982
 31
0.0
  0
LINE
  5
94
  8
SNIJ
 10
11.95735662781763
 20
9.7000939891028128
 30
0.0
 11
11.67289925152394
 21
9.7000941006324393
 31
0.0
  0
LINE
  5
95
  8
SNIJ
 10
12.468322293375451
 20
9.7897553462724982
 30
0.0
 11
11.95735662781763
 21
9.7000939891028128
 31
0.0
  0
ARC
  5
96
  8
SNIJ
 10
21.509271522083189
 20
11.511020005284809
 30
0.0
 40
2.0
 50
107.7258387231015
 51
141.48115775224741
  0
LINE
  5
97
  8
SNIJ
 10
19.752901453188461
 20
12.51589839535893
 30
0.0
 11
19.324710801622441
 21
12.23823298550291
 31
0.0
  0
LINE
  5
98
  8
SNIJ
 10
19.944464732416488
 20
12.756563947108219
 30
0.0
 11
19.752901453188461
 21
12.51589839535893
 31
0.0
  0
LINE
  5
99
  8
SNIJ
 10
38.336982936751951
 20
0.0505518311179003
 30
0.0
 11
41.672899251523937
 21
1.1432904348008011
 31
0.0
  0
LINE
  5
9A
  8
SNIJ
 10
38.023350597489241
 20
0.0000963307029451
 30
0.0
 11
38.336982936751951
 21
0.0505518311179003
 31
0.0
  0
ARC
  5
9B
  8
SNIJ
 10
76.798410339968399
 20
30.045078968708051
 30
0.0
 40
5.0
 50
111.1765113999526
 51
169.8829471558299
  0
LINE
  5
9C
  8
SNIJ
 10
45.376020432292663
 20
21.104443447691121
 30
0.0
 11
66.656918489798954
 21
22.855809218797919
 31
0.0
  0
ARC
  5
9D
  8
SNIJ
 10
45.786121740834339
 20
16.121290137112322
 30
0.0
 40
5.0
 50
94.704699926183281
 51
107.7258387231015
  0
ARC
  5
9E
  8
SNIJ
 10
66.246817181257271
 20
27.838962529376719
 30
0.0
 40
5.0
 50
274.7046999261832
 51
349.88294715583089
  0
LINE
  5
9F
  8
SNIJ
 10
71.876155628600145
 20
30.923377640239
 30
0.0
 11
71.169071892625567
 21
26.960663857845869
 31
0.0
  0
TEXT
  5
A0
  8
TEKST
 10
219.00536204267129
 20
44.030860899351183
 30
0.0
 40
5.0
  1
Laag6-AC-20100701
  0
LINE
  5
A1
  8
TEKST
 10
215.490039089834
 20
58.441872588438628
 30
0.0
 11
289.2174531860835
 21
58.441872588438628
 31
0.0
  0
TEXT
  5
A2
  8
TEKST
 10
219.00536026360649
 20
62.274164222192297
 30
0.0
 40
5.0
  1
Vezelrichting
  0
TEXT
  5
A3
  8
TEKST
 10
219.00536204267129
 20
69.322627016592605
 30
0.0
 40
5.0
  1
UNIE6400-SORIC XF3-UNIE640
  0
ARC
  5
A4
  8
SNIJ
 10
153.3755427105184
 20
65.248975962120539
 30
0.0
 40
5.0
 50
105.6556974552325
 51
158.7671683645504
  0
ARC
  5
A5
  8
SNIJ
 10
143.1185165353759
 20
66.461862239186331
 30
0.0
 40
5.0
 50
291.17651139995257
 51
338.76716836455012
  0
LINE
  5
A6
  8
SNIJ
 10
148.71496056051441
 20
67.059769717097822
 30
0.0
 11
147.77909868537989
 21
64.651068484209006
 31
0.0
  0
TEXT
  5
A7
  8
TEKST
 10
219.00536026360649
 20
76.1988531780637
 30
0.0
 40
5.0
  1
MZ
  0
LINE
  5
A8
  8
SNIJ
 10
376.4210703157421
 20
61.79950237872584
 30
0.0
 11
446.35359981500909
 21
34.70743882916851
 31
0.0
  0
ARC
  5
A9
  8
SNIJ
 10
444.54738816307929
 20
30.04507896870804
 30
0.0
 40
5.0
 50
10.117052844170059
 51
68.823488600047341
  0
LINE
  5
AA
  8
SNIJ
 10
516.98334222193159
 20
9.2866837365069763
 30
0.0
 11
518.80413052507924
 21
7.8892577776366952
 31
0.0
  0
LINE
  5
AB
  8
SNIJ
 10
521.34579900542508
 20
-0.0000003004970495
 30
0.0
 11
483.32244790555842
 21
0.0000963307029451
 31
0.0
  0
LINE
  5
AC
  8
SNIJ
 10
519.51830249375303
 20
6.820309536064558
 30
0.0
 11
521.34579900542508
 21
-0.0000003004970495
 31
0.0
  0
ARC
  5
AD
  8
SNIJ
 10
517.58645084109253
 20
6.3026714461672979
 30
0.0
 40
2.0
 50
14.99999999087151
 51
52.494336819115901
  0
LINE
  5
AE
  8
SNIJ
 10
499.87932477077158
 20
15.19020737997627
 30
0.0
 11
500.77425510062483
 21
13.73724066670297
 31
0.0
  0
LINE
  5
AF
  8
SNIJ
 10
476.92998431782502
 20
23.032182283502891
 30
0.0
 11
454.32546851285622
 21
24.892478552311001
 31
0.0
  0
ARC
  5
B0
  8
SNIJ
 10
454.73556982139797
 20
29.875631862889801
 30
0.0
 40
5.0
 50
190.1170528441703
 51
265.29530007381669
  0
LINE
  5
B1
  8
SNIJ
 10
449.46964287444729
 20
30.923377640238989
 30
0.0
 11
449.81331511002952
 21
28.99733319135883
 31
0.0
  0
LINE
  5
B2
  8
SNIJ
 10
476.92998431782502
 20
23.032182283502891
 30
0.0
 11
498.78535049599901
 21
16.046383667050961
 31
0.0
  0
ARC
  5
B3
  8
SNIJ
 10
498.1764251910032
 20
14.14133511834263
 30
0.0
 40
2.0
 50
31.63029161047799
 51
72.27416127689844
  0
LINE
  5
B4
  8
SNIJ
 10
509.474949442938
 20
9.7000939932745194
 30
0.0
 11
515.76566145324614
 21
9.7000974050372797
 31
0.0
  0
LINE
  5
B5
  8
SNIJ
 10
502.26530001074559
 20
12.15102258634362
 30
0.0
 11
508.80233221936908
 21
9.8165899370717256
 31
0.0
  0
ARC
  5
B6
  8
SNIJ
 10
502.93791614961577
 20
14.03452664254611
 30
0.0
 40
2.0
 50
211.51017675634799
 51
250.34789938768921
  0
LINE
  5
B7
  8
SNIJ
 10
500.77425510062483
 20
13.73724066670297
 30
0.0
 11
501.23282145800721
 21
12.989226641279441
 31
0.0
  0
ARC
  5
B8
  8
SNIJ
 10
509.4749483582396
 20
11.700093993274219
 30
0.0
 40
2.0
 50
250.34789938768921
 51
270.00003107432019
  0
ARC
  5
B9
  8
SNIJ
 10
515.76566253794476
 20
7.7000974050375737
 30
0.0
 40
2.0
 50
52.494336819116057
 51
90.000031074320091
  0
ARC
  5
BA
  8
SNIJ
 10
367.97025579252937
 20
65.248975962120539
 30
0.0
 40
5.0
 50
21.232831635449521
 51
74.344302544764332
  0
ARC
  5
BB
  8
SNIJ
 10
378.22728196767179
 20
66.461862239186331
 30
0.0
 40
5.0
 50
201.23283163544991
 51
248.8234886000474
  0
LINE
  5
BC
  8
SNIJ
 10
372.63083794253328
 20
67.059769717097822
 30
0.0
 11
373.56669981766782
 21
64.651068484209006
 31
0.0
  0
ENDBLK
  5
BE
  8
0
  0
BLOCK
  8
0
  2
*D7
 70
     1
 10
0.0
 20
0.0
 30
0.0
  3
*D7
  1

  0
LINE
  5
C1
  8
TEKST
 62
     0
 10
-192.80500710541381
 20
11.047200517479149
 30
0.0
 11
-192.80500710541381
 21
21.37359323560781
 31
0.0
  0
LINE
  5
C2
  8
TEKST
 62
     0
 10
192.5412843768361
 20
11.100466328674541
 30
0.0
 11
192.5412843768361
 21
21.37359323560781
 31
0.0
  0
LINE
  5
C3
  8
TEKST
 62
     0
 10
-185.30500710541381
 20
17.62359323560781
 30
0.0
 11
185.04128437683599
 21
17.62359323560781
 31
0.0
  0
SOLID
  5
C4
  8
TEKST
 62
     0
 10
-185.30500710541381
 20
18.87359323560781
 30
0.0
 11
-185.30500710541381
 21
16.37359323560781
 31
0.0
 12
-192.80500710541381
 22
17.62359323560781
 32
0.0
 13
-192.80500710541381
 23
17.62359323560781
 33
0.0
  0
SOLID
  5
C5
  8
TEKST
 62
     0
 10
185.04128437683599
 20
18.87359323560781
 30
0.0
 11
185.04128437683599
 21
16.37359323560781
 31
0.0
 12
192.5412843768361
 22
17.62359323560781
 32
0.0
 13
192.5412843768361
 23
17.62359323560781
 33
0.0
  0
INSERT
  5
C6
  8
SNIJ
  2
*U29
 10
0.0
 20
0.0
 30
0.0
  0
POINT
  5
C7
  8
DEFPOINTS
 62
     0
 10
-192.80500710541381
 20
9.1722005174791512
 30
0.0
  0
POINT
  5
C8
  8
DEFPOINTS
 62
     0
 10
192.5412843768361
 20
9.2254663286745426
 30
0.0
  0
POINT
  5
C9
  8
DEFPOINTS
 62
     0
 10
192.5412843768361
 20
17.62359323560781
 30
0.0
  0
ENDBLK
  5
CB
  8
0
  0
BLOCK
  8
0
  2
*D8
 70
     1
 10
0.0
 20
0.0
 30
0.0
  3
*D8
  1

  0
LINE
  5
CD
  8
TEKST
 62
     0
 10
-190.93000710541369
 20
9.1722005174791512
 30
0.0
 11
-79.531507901861914
 21
9.1722005174791228
 31
0.0
  0
LINE
  5
CE
  8
TEKST
 62
     0
 10
-2.0021091425987332
 20
85.000020065009323
 30
0.0
 11
-87.031507901861914
 21
85.000020065009323
 31
0.0
  0
LINE
  5
CF
  8
TEKST
 62
     0
 10
-83.281507901861914
 20
16.672200517479119
 30
0.0
 11
-83.281507901861914
 21
77.500020065009352
 31
0.0
  0
SOLID
  5
D0
  8
TEKST
 62
     0
 10
-84.531507901861914
 20
16.672200517479119
 30
0.0
 11
-82.031507901861914
 21
16.672200517479119
 31
0.0
 12
-83.281507901861914
 22
9.1722005174791228
 32
0.0
 13
-83.281507901861914
 23
9.1722005174791228
 33
0.0
  0
SOLID
  5
D1
  8
TEKST
 62
     0
 10
-84.531507901861914
 20
77.500020065009352
 30
0.0
 11
-82.031507901861914
 21
77.500020065009352
 31
0.0
 12
-83.281507901861914
 22
85.000020065009323
 32
0.0
 13
-83.281507901861914
 23
85.000020065009323
 33
0.0
  0
INSERT
  5
D2
  8
SNIJ
  2
*U30
 10
0.0
 20
0.0
 30
0.0
  0
POINT
  5
D3
  8
DEFPOINTS
 62
     0
 10
-192.80500710541369
 20
9.1722005174791512
 30
0.0
  0
POINT
  5
D4
  8
DEFPOINTS
 62
     0
 10
-0.1271091425987334
 20
85.000020065009323
 30
0.0
  0
POINT
  5
D5
  8
DEFPOINTS
 62
     0
 10
-83.281507901861914
 20
85.000020065009323
 30
0.0
  0
ENDBLK
  5
D7
  8
0
  0
BLOCK
  8
0
  2
A$C56A34ECD
 70
     0
 10
0.0
 20
0.0
 30
0.0
  3
A$C56A34ECD
  1

  0
DIMENSION
  5
D9
  8
TEKST
  2
*D7
 10
385.34629164118837
 20
8.4513926564919721
 30
0.0
 11
192.67314590006339
 21
14.07639265649197
 31
0.0
 12
192.8050072643523
 22
-9.1722005791158381
 32
0.0
  3
ISO-25
 13
0.000000158938434
 23
-0.0000000616366833
 33
0.0
 14
385.34629164118837
 24
0.0532657495587046
 34
0.0
  0
ARC
  5
DC
  8
SNIJ
 10
192.76702496242521
 20
-679.1322444364165
 30
0.0
 40
705.96014845111029
 50
74.169610656661135
 51
105.84622915403349
  0
ARC
  5
DD
  8
SNIJ
 10
310.23228083790138
 20
57.289661960567521
 30
0.0
 40
5.0
 50
201.23283163545051
 51
248.8234886000474
  0
DIMENSION
  5
DE
  8
TEKST
  2
*D8
 10
109.5234993624904
 20
75.827819485893485
 30
0.0
 11
103.8984993624904
 21
37.91390971212838
 31
0.0
 12
192.8050072643523
 22
-9.1722005791158381
 32
0.0
  3
ISO-25
 13
0.0000001589385477
 23
-0.0000000616366833
 33
0.0
 14
192.6778981217536
 24
75.827819485893485
 34
0.0
 50
90.0
  0
ARC
  5
E1
  8
SNIJ
 10
192.67789812175349
 20
-326.78187414289818
 30
0.0
 40
402.6096936287916
 50
74.344302544765895
 51
105.6556974552341
  0
LINE
  5
E2
  8
SNIJ
 10
76.929727057535416
 20
52.627302100107052
 30
0.0
 11
9.6192891381604664
 21
26.551044388317202
 31
0.0
  0
LINE
  5
E3
  8
SNIJ
 10
3.3872030192835041
 20
18.982922010457891
 30
0.0
 11
0.000000158938434
 21
-0.0000000616366833
 31
0.0
  0
ARC
  5
E4
  8
SNIJ
 10
13.23171244202007
 20
17.226324667396248
 30
0.0
 40
10.0
 50
111.1765113999526
 51
169.8829471558314
  0
ARC
  5
E5
  8
SNIJ
 10
85.380541580748044
 20
56.076775683501751
 30
0.0
 40
5.0
 50
105.65569745523401
 51
158.76716836454989
  0
ARC
  5
E6
  8
SNIJ
 10
75.123515405605616
 20
57.289661960567521
 30
0.0
 40
5.0
 50
291.17651139995257
 51
338.76716836454949
  0
LINE
  5
E7
  8
SNIJ
 10
80.719959430744098
 20
57.887569438479041
 30
0.0
 11
79.784097555609534
 21
55.47886820559021
 31
0.0
  0
TEXT
  5
E8
  8
TEKST
 10
151.01036091290101
 20
34.858660620732401
 30
0.0
 40
5.0
  1
Laag7-AC-20100701
  0
LINE
  5
E9
  8
TEKST
 10
147.4950379600636
 20
49.269672309819839
 30
0.0
 11
221.22245205631319
 21
49.269672309819839
 31
0.0
  0
TEXT
  5
EA
  8
TEKST
 10
151.01036091290101
 20
60.15042673797381
 30
0.0
 40
5.0
  1
UNIE6400-SORIC XF3-UNIE640
  0
TEXT
  5
EB
  8
TEKST
 10
151.01035913383609
 20
53.101963943573502
 30
0.0
 40
5.0
  1
Vezelrichting
  0
TEXT
  5
EC
  8
TEKST
 10
151.01035913383609
 20
67.026652899444898
 30
0.0
 40
5.0
  1
MZ
  0
ARC
  5
ED
  8
SNIJ
 10
299.97525466275903
 20
56.076775683501751
 30
0.0
 40
5.0
 50
21.23283163545009
 51
74.344302544765895
  0
LINE
  5
EE
  8
SNIJ
 10
304.63583681276299
 20
57.887569438479041
 30
0.0
 11
305.57169868789748
 21
55.47886820559021
 31
0.0
  0
LINE
  5
EF
  8
SNIJ
 10
308.4260691859717
 20
52.627302100107052
 30
0.0
 11
375.73650710534667
 21
26.55104438831712
 31
0.0
  0
LINE
  5
F0
  8
SNIJ
 10
381.96859322422358
 20
18.98292201045815
 30
0.0
 11
385.34629164118837
 21
0.0532657495588183
 31
0.0
  0
ARC
  5
F1
  8
SNIJ
 10
372.12408380148719
 20
17.22632466739616
 30
0.0
 40
10.0
 50
10.117052844170921
 51
68.823488600047341
  0
ENDBLK
  5
F3
  8
0
  0
BLOCK
  8
0
  2
*D10
 70
     1
 10
0.0
 20
0.0
 30
0.0
  3
*D10
  1

  0
LINE
  5
413
  8
MATERIAAL
 62
     0
 10
88.667502364387076
 20
1480.0994713102821
 30
0.0
 11
-12.343206591424661
 21
1480.0994713102821
 31
0.0
  0
LINE
  5
414
  8
MATERIAAL
 62
     0
 10
88.667502364387076
 20
554.59436400373113
 30
0.0
 11
-12.34320659142486
 21
554.59436400373113
 31
0.0
  0
LINE
  5
415
  8
MATERIAAL
 62
     0
 10
-6.0932065914246571
 20
1467.5994713102821
 30
0.0
 11
-6.0932065914248561
 21
567.09436400373124
 31
0.0
  0
SOLID
  5
416
  8
MATERIAAL
 62
     0
 10
-8.1765399247579911
 20
1467.5994713102821
 30
0.0
 11
-4.0098732580913241
 21
1467.5994713102821
 31
0.0
 12
-6.0932065914246518
 22
1480.0994713102821
 32
0.0
 13
-6.0932065914246518
 23
1480.0994713102821
 33
0.0
  0
SOLID
  5
417
  8
MATERIAAL
 62
     0
 10
-8.17653992475819
 20
567.09436400373124
 30
0.0
 11
-4.0098732580915231
 21
567.09436400373124
 31
0.0
 12
-6.0932065914248561
 22
554.59436400373113
 32
0.0
 13
-6.0932065914248561
 23
554.59436400373113
 33
0.0
  0
INSERT
  5
418
  8
SNIJ
  2
*U33
 10
0.0
 20
0.0
 30
0.0
  0
POINT
  5
419
  8
DEFPOINTS
 62
     0
 10
91.792502364387076
 20
1480.0994713102821
 30
0.0
  0
POINT
  5
41A
  8
DEFPOINTS
 62
     0
 10
91.792502364387076
 20
554.59436400373113
 30
0.0
  0
POINT
  5
41B
  8
DEFPOINTS
 62
     0
 10
-6.0932065914248561
 20
554.59436400373113
 30
0.0
  0
ENDBLK
  5
127
  8
0
  0
BLOCK
  8
0
  2
*D11
 70
     1
 10
0.0
 20
0.0
 30
0.0
  3
*D11
  1

  0
LINE
  5
143
  8
MATERIAAL
 62
     0
 10
88.667502364387076
 20
554.59436400373113
 30
0.0
 11
52.060650371912722
 21
554.59436400373113
 31
0.0
  0
LINE
  5
144
  8
MATERIAAL
 62
     0
 10
88.667502364387076
 20
574.59426767302818
 30
0.0
 11
52.060650371912722
 21
574.59426767302818
 31
0.0
  0
LINE
  5
145
  8
MATERIAAL
 62
     0
 10
58.310650371912722
 20
542.09436400373113
 30
0.0
 11
58.310650371912722
 21
529.59436400373113
 31
0.0
  0
LINE
  5
146
  8
MATERIAAL
 62
     0
 10
58.310650371912722
 20
587.09426767302818
 30
0.0
 11
58.310650371912743
 21
624.59426767302818
 31
0.0
  0
LINE
  5
147
  8
MATERIAAL
 62
     0
 10
58.310650371912722
 20
554.59436400373113
 30
0.0
 11
58.310650371912722
 21
574.59426767302818
 31
0.0
  0
SOLID
  5
148
  8
MATERIAAL
 62
     0
 10
56.227317038579379
 20
542.09436400373113
 30
0.0
 11
60.393983705246058
 21
542.09436400373113
 31
0.0
 12
58.310650371912722
 22
554.59436400373113
 32
0.0
 13
58.310650371912722
 23
554.59436400373113
 33
0.0
  0
SOLID
  5
149
  8
MATERIAAL
 62
     0
 10
56.2273170385794
 20
587.09426767302818
 30
0.0
 11
60.393983705246058
 21
587.09426767302818
 31
0.0
 12
58.310650371912722
 22
574.59426767302818
 32
0.0
 13
58.310650371912722
 23
574.59426767302818
 33
0.0
  0
INSERT
  5
14A
  8
SNIJ
  2
*U31
 10
0.0
 20
0.0
 30
0.0
  0
POINT
  5
14B
  8
DEFPOINTS
 62
     0
 10
91.792502364387076
 20
554.59436400373113
 30
0.0
  0
POINT
  5
14C
  8
DEFPOINTS
 62
     0
 10
91.792502364387076
 20
574.59426767302818
 30
0.0
  0
POINT
  5
14D
  8
DEFPOINTS
 62
     0
 10
58.310650371912722
 20
574.59426767302818
 30
0.0
  0
ENDBLK
  5
141
  8
0
  0
BLOCK
  8
0
  2
*D12
 70
     1
 10
0.0
 20
0.0
 30
0.0
  3
*D12
  1

  0
LINE
  5
15D
  8
MATERIAAL
 62
     0
 10
91.792502364387076
 20
551.46936400373113
 30
0.0
 11
91.792502364387076
 21
491.88945902317619
 31
0.0
  0
LINE
  5
15E
  8
MATERIAAL
 62
     0
 10
613.1383013698121
 20
551.46936400373113
 30
0.0
 11
613.1383013698121
 21
491.88945902317619
 31
0.0
  0
LINE
  5
15F
  8
MATERIAAL
 62
     0
 10
104.292502364387
 20
498.13945902317619
 30
0.0
 11
600.6383013698121
 21
498.13945902317619
 31
0.0
  0
SOLID
  5
160
  8
MATERIAAL
 62
     0
 10
104.292502364387
 20
500.2227923565095
 30
0.0
 11
104.292502364387
 21
496.05612568984282
 31
0.0
 12
91.792502364387076
 22
498.13945902317619
 32
0.0
 13
91.792502364387076
 23
498.13945902317619
 33
0.0
  0
SOLID
  5
161
  8
MATERIAAL
 62
     0
 10
600.6383013698121
 20
500.2227923565095
 30
0.0
 11
600.6383013698121
 21
496.05612568984282
 31
0.0
 12
613.1383013698121
 22
498.13945902317619
 32
0.0
 13
613.1383013698121
 23
498.13945902317619
 33
0.0
  0
INSERT
  5
162
  8
SNIJ
  2
*U32
 10
0.0
 20
0.0
 30
0.0
  0
POINT
  5
163
  8
DEFPOINTS
 62
     0
 10
91.792502364387076
 20
554.59436400373113
 30
0.0
  0
POINT
  5
164
  8
DEFPOINTS
 62
     0
 10
613.1383013698121
 20
554.59436400373113
 30
0.0
  0
POINT
  5
165
  8
DEFPOINTS
 62
     0
 10
613.1383013698121
 20
498.13945902317619
 30
0.0
  0
ENDBLK
  5
15B
  8
0
  0
BLOCK
  8
0
  2
A$C0D8A5A7F
 70
     0
 10
0.0
 20
0.0
 30
0.0
  3
A$C0D8A5A7F
  1

  0
ARC
  5
185
  8
SNIJ
 10
265.91238263709869
 20
-323.27663670877729
 30
0.0
 40
404.6096936287916
 50
75.353505106183562
 51
90.881138313102426
  0
ARC
  5
186
  8
SNIJ
 10
259.6902313420307
 20
-673.96004623719671
 30
0.0
 40
709.96014845111029
 50
71.675826162235296
 51
90.000000058141978
  0
LINE
  5
187
  8
SNIJ
 10
144.50730575107991
 20
61.270261455700258
 30
0.0
 11
119.0621553768417
 21
51.412736840147382
 31
0.0
  0
ARC
  5
188
  8
SNIJ
 10
259.69022990112347
 20
-673.96004623719671
 30
0.0
 40
709.96014845111029
 50
89.999999941858036
 51
108.3241738377647
  0
LINE
  5
189
  8
SNIJ
 10
0.0000008054431078
 20
0.0000003439452501
 30
0.0
 11
36.483726805905398
 21
0.0000930623964583
 31
0.0
  0
LINE
  5
18A
  8
SNIJ
 10
41.237882951350798
 20
16.259296055360899
 30
0.0
 11
19.828550026015311
 21
9.4160664745942633
 31
0.0
  0
LINE
  5
18B
  8
SNIJ
 10
3.2906600900441272
 20
5.2866816571080877
 30
0.0
 11
1.46987178689636
 21
3.8892556982378101
 31
0.0
  0
ARC
  5
18C
  8
SNIJ
 10
2.6875514708833061
 20
2.3026693667684182
 30
0.0
 40
2.0
 50
127.5056631808841
 51
165.00000000912851
  0
LINE
  5
18D
  8
SNIJ
 10
0.7556998182226951
 20
2.820307456665673
 30
0.0
 11
0.0000008054431078
 21
0.0000003439452501
 31
0.0
  0
LINE
  5
18E
  8
SNIJ
 10
10.601103060451891
 20
5.7000920212335568
 30
0.0
 11
4.5083408587295253
 21
5.7000953256383982
 31
0.0
  0
ARC
  5
18F
  8
SNIJ
 10
4.5083397740310698
 20
3.700095325638693
 30
0.0
 40
2.0
 50
89.999968925679894
 51
127.5056631808841
  0
LINE
  5
190
  8
SNIJ
 10
18.252914610550391
 20
8.2382309061040271
 30
0.0
 11
11.39652610230339
 21
5.789753266873614
 31
0.0
  0
LINE
  5
191
  8
SNIJ
 10
10.88556043674558
 20
5.7000919097039278
 30
0.0
 11
10.601103060451891
 21
5.7000920212335568
 31
0.0
  0
LINE
  5
192
  8
SNIJ
 10
11.39652610230339
 20
5.789753266873614
 30
0.0
 11
10.88556043674558
 21
5.7000919097039278
 31
0.0
  0
ARC
  5
193
  8
SNIJ
 10
20.43747533101115
 20
7.5110179258859322
 30
0.0
 40
2.0
 50
107.7258387231015
 51
141.4811577522475
  0
LINE
  5
194
  8
SNIJ
 10
18.6811052621164
 20
8.5158963159600471
 30
0.0
 11
18.252914610550391
 21
8.2382309061040271
 31
0.0
  0
LINE
  5
195
  8
SNIJ
 10
18.872668541344439
 20
8.7565618677093422
 30
0.0
 11
18.6811052621164
 21
8.5158963159600471
 31
0.0
  0
LINE
  5
196
  8
SNIJ
 10
99.451551641270555
 20
49.1776238758003
 30
0.0
 11
68.847620178411262
 21
37.32157259330269
 31
0.0
  0
ARC
  5
197
  8
SNIJ
 10
51.9090814206711
 20
24.401260907510611
 30
0.0
 40
5.0
 50
113.7757677239393
 51
142.02568247079461
  0
LINE
  5
198
  8
SNIJ
 10
45.924079532892719
 20
24.859735164960611
 30
0.0
 11
47.967648216693647
 21
27.477801870765301
 31
0.0
  0
ARC
  5
199
  8
SNIJ
 10
39.715569688861187
 20
21.021917427131729
 30
0.0
 40
5.0
 50
287.72583872310162
 51
353.54463232008248
  0
ARC
  5
19A
  8
SNIJ
 10
49.865512736870159
 20
21.783194201705889
 30
0.0
 40
5.0
 50
142.02568247079441
 51
173.5446323200824
  0
LINE
  5
19B
  8
SNIJ
 10
44.6838683756514
 20
20.459771397315041
 30
0.0
 11
44.897214050079953
 21
22.345340231522599
 31
0.0
  0
LINE
  5
19C
  8
SNIJ
 10
49.893289952506699
 20
28.976912200701079
 30
0.0
 11
68.638040362176682
 21
37.234864026032682
 31
0.0
  0
ARC
  5
19D
  8
SNIJ
 10
70.653831830341062
 20
32.659212732842207
 30
0.0
 40
5.0
 50
111.1765113999526
 51
113.7757677239393
  0
ARC
  5
19E
  8
SNIJ
 10
103.0639749451301
 20
39.852904154879347
 30
0.0
 40
10.0
 50
93.874077931697045
 51
111.1765113999526
  0
LINE
  5
19F
  8
SNIJ
 10
102.3883358854301
 20
49.83005364062965
 30
0.0
 11
116.12537113268201
 21
50.760307075318011
 31
0.0
  0
ARC
  5
1A0
  8
SNIJ
 10
115.4497320729821
 20
60.737456561068328
 30
0.0
 40
10.0
 50
273.874077931697
 51
291.17651139995257
  0
ARC
  5
1A1
  8
SNIJ
 10
253.46807860605529
 20
-323.27663670877729
 30
0.0
 40
404.6096936287916
 50
89.11886168689756
 51
104.6464948938164
  0
ARC
  5
1A2
  8
SNIJ
 10
142.70109409915011
 20
65.932621316160706
 30
0.0
 40
5.0
 50
291.17651139995257
 51
338.76716836454949
  0
LINE
  5
1A3
  8
SNIJ
 10
147.764363005457
 20
65.158254102477883
 30
0.0
 11
147.36167624915399
 21
64.121827561183366
 31
0.0
  0
ARC
  5
1A4
  8
SNIJ
 10
152.42494515546099
 20
63.347460347500537
 30
0.0
 40
5.0
 50
104.6464948938164
 51
158.7671683645496
  0
LINE
  5
1A5
  8
SNIJ
 10
374.8731554920742
 20
61.270261455700258
 30
0.0
 11
400.31830586631241
 21
51.412736840147382
 31
0.0
  0
LINE
  5
1A6
  8
SNIJ
 10
419.92890960188339
 20
49.1776238758003
 30
0.0
 11
450.5328410647428
 21
37.32157259330269
 31
0.0
  0
ARC
  5
1A7
  8
SNIJ
 10
416.3164862980239
 20
39.852904154879347
 30
0.0
 40
10.0
 50
68.823488600047341
 51
86.125922068302955
  0
LINE
  5
1A8
  8
SNIJ
 10
416.99212535772381
 20
49.83005364062965
 30
0.0
 11
403.255090110472
 21
50.760307075318011
 31
0.0
  0
ARC
  5
1A9
  8
SNIJ
 10
403.93072917017167
 20
60.737456561068328
 30
0.0
 40
10.0
 50
248.8234886000474
 51
266.12592206830288
  0
LINE
  5
1AA
  8
SNIJ
 10
516.08980115310999
 20
5.2866816571080877
 30
0.0
 11
517.91058945625775
 21
3.8892556982378101
 31
0.0
  0
LINE
  5
1AB
  8
SNIJ
 10
519.38046043771101
 20
0.0000003439452501
 30
0.0
 11
482.89673443724871
 21
0.0000930623964583
 31
0.0
  0
LINE
  5
1AC
  8
SNIJ
 10
518.62476142493142
 20
2.820307456665673
 30
0.0
 11
519.38046043771101
 21
0.0000003439452501
 31
0.0
  0
ARC
  5
1AD
  8
SNIJ
 10
516.69290977227058
 20
2.3026693667684182
 30
0.0
 40
2.0
 50
14.99999999087151
 51
52.494336819115858
  0
LINE
  5
1AE
  8
SNIJ
 10
478.14257829180332
 20
16.259296055360899
 30
0.0
 11
499.55191121713881
 21
9.4160664745942633
 31
0.0
  0
ARC
  5
1AF
  8
SNIJ
 10
467.4713798224829
 20
24.401260907510611
 30
0.0
 40
5.0
 50
37.974317529205393
 51
66.224232276060704
  0
LINE
  5
1B0
  8
SNIJ
 10
473.45638171026133
 20
24.859735164960611
 30
0.0
 11
471.41281302646041
 21
27.477801870765301
 31
0.0
  0
ARC
  5
1B1
  8
SNIJ
 10
479.66489155429292
 20
21.021917427131729
 30
0.0
 40
5.0
 50
186.4553676799174
 51
252.27416127689841
  0
ARC
  5
1B2
  8
SNIJ
 10
469.51494850628382
 20
21.783194201705889
 30
0.0
 40
5.0
 50
6.4553676799175133
 51
37.974317529205521
  0
LINE
  5
1B3
  8
SNIJ
 10
474.6965928675026
 20
20.459771397315041
 30
0.0
 11
474.48324719307408
 21
22.345340231522599
 31
0.0
  0
LINE
  5
1B4
  8
SNIJ
 10
469.48717129064738
 20
28.976912200701079
 30
0.0
 11
450.74242088097742
 21
37.234864026032682
 31
0.0
  0
ARC
  5
1B5
  8
SNIJ
 10
448.726629412813
 20
32.659212732842207
 30
0.0
 40
5.0
 50
66.224232276060704
 51
68.823488600047341
  0
LINE
  5
1B6
  8
SNIJ
 10
508.77935818270203
 20
5.7000920212335568
 30
0.0
 11
514.87212038442453
 21
5.7000953256383982
 31
0.0
  0
LINE
  5
1B7
  8
SNIJ
 10
501.12754663260353
 20
8.2382309061040271
 30
0.0
 11
507.98393514085069
 21
5.789753266873614
 31
0.0
  0
LINE
  5
1B8
  8
SNIJ
 10
500.50779270180959
 20
8.7565618677093422
 30
0.0
 11
500.69935598103768
 21
8.5158963159600471
 31
0.0
  0
LINE
  5
1B9
  8
SNIJ
 10
500.69935598103768
 20
8.5158963159600471
 30
0.0
 11
501.12754663260353
 21
8.2382309061040271
 31
0.0
  0
ARC
  5
1BA
  8
SNIJ
 10
498.94298591214272
 20
7.5110179258859322
 30
0.0
 40
2.0
 50
38.518842247752531
 51
72.27416127689844
  0
LINE
  5
1BB
  8
SNIJ
 10
507.98393514085069
 20
5.789753266873614
 30
0.0
 11
508.4949008064084
 21
5.7000919097039278
 31
0.0
  0
LINE
  5
1BC
  8
SNIJ
 10
508.4949008064084
 20
5.7000919097039278
 30
0.0
 11
508.77935818270203
 21
5.7000920212335568
 31
0.0
  0
ARC
  5
1BD
  8
SNIJ
 10
514.87212146912304
 20
3.700095325638693
 30
0.0
 40
2.0
 50
52.494336819115901
 51
90.000031074320091
  0
ARC
  5
1BE
  8
SNIJ
 10
376.679367144004
 20
65.932621316160706
 30
0.0
 40
5.0
 50
201.23283163545051
 51
248.8234886000474
  0
LINE
  5
1BF
  8
SNIJ
 10
371.61609823769697
 20
65.158254102477883
 30
0.0
 11
372.01878499399999
 21
64.121827561183366
 31
0.0
  0
ARC
  5
1C0
  8
SNIJ
 10
366.95551608769313
 20
63.347460347500537
 30
0.0
 40
5.0
 50
21.23283163545036
 51
75.353505106183562
  0
ENDBLK
  5
1C2
  8
0
  0
BLOCK
  8
0
  2
*D14
 70
     1
 10
0.0
 20
0.0
 30
0.0
  3
*D14
  1

  0
LINE
  5
12AC
  8
TEKST
 62
     0
 10
126.2103814245215
 20
115.3247942741648
 30
0.0
 11
126.2103814245215
 21
126.9011869922934
 31
0.0
  0
LINE
  5
12AD
  8
TEKST
 62
     0
 10
511.55667290677138
 20
115.3780600853602
 30
0.0
 11
511.55667290677138
 21
126.9011869922934
 31
0.0
  0
LINE
  5
12AE
  8
TEKST
 62
     0
 10
138.7103814245215
 20
120.6511869922934
 30
0.0
 11
499.05667290677138
 21
120.6511869922934
 31
0.0
  0
SOLID
  5
12AF
  8
TEKST
 62
     0
 10
138.7103814245215
 20
122.7345203256267
 30
0.0
 11
138.7103814245215
 21
118.5678536589601
 31
0.0
 12
126.2103814245215
 22
120.6511869922934
 32
0.0
 13
126.2103814245215
 23
120.6511869922934
 33
0.0
  0
SOLID
  5
12B0
  8
TEKST
 62
     0
 10
499.05667290677138
 20
122.7345203256267
 30
0.0
 11
499.05667290677138
 21
118.5678536589601
 31
0.0
 12
511.55667290677138
 22
120.6511869922934
 32
0.0
 13
511.55667290677138
 23
120.6511869922934
 33
0.0
  0
INSERT
  5
12B1
  8
SNIJ
  2
*U43
 10
0.0
 20
0.0
 30
0.0
  0
POINT
  5
12B2
  8
DEFPOINTS
 62
     0
 10
126.2103814245215
 20
112.1997942741648
 30
0.0
  0
POINT
  5
12B3
  8
DEFPOINTS
 62
     0
 10
511.55667290677138
 20
112.2530600853602
 30
0.0
  0
POINT
  5
12B4
  8
DEFPOINTS
 62
     0
 10
511.55667290677138
 20
120.6511869922934
 30
0.0
  0
ENDBLK
  5
344
  8
0
  0
BLOCK
  8
0
  2
*D15
 70
     1
 10
0.0
 20
0.0
 30
0.0
  3
*D15
  1

  0
LINE
  5
12B5
  8
TEKST
 62
     0
 10
129.33538142452119
 20
112.1997942741646
 30
0.0
 11
241.98388062807311
 21
112.1997942741646
 31
0.0
  0
LINE
  5
12B6
  8
TEKST
 62
     0
 10
315.7632793873363
 20
188.0276138216949
 30
0.0
 11
229.48388062807311
 21
188.0276138216949
 31
0.0
  0
LINE
  5
12B7
  8
TEKST
 62
     0
 10
235.73388062807311
 20
124.6997942741646
 30
0.0
 11
235.73388062807311
 21
175.5276138216949
 31
0.0
  0
SOLID
  5
12B8
  8
TEKST
 62
     0
 10
233.65054729473971
 20
124.6997942741646
 30
0.0
 11
237.8172139614064
 21
124.6997942741646
 31
0.0
 12
235.73388062807311
 22
112.1997942741646
 32
0.0
 13
235.73388062807311
 23
112.1997942741646
 33
0.0
  0
SOLID
  5
12B9
  8
TEKST
 62
     0
 10
233.65054729473971
 20
175.5276138216949
 30
0.0
 11
237.8172139614064
 21
175.5276138216949
 31
0.0
 12
235.73388062807311
 22
188.0276138216949
 32
0.0
 13
235.73388062807311
 23
188.0276138216949
 33
0.0
  0
INSERT
  5
12BA
  8
SNIJ
  2
*U44
 10
0.0
 20
0.0
 30
0.0
  0
POINT
  5
12BB
  8
DEFPOINTS
 62
     0
 10
126.2103814245212
 20
112.1997942741646
 30
0.0
  0
POINT
  5
12BC
  8
DEFPOINTS
 62
     0
 10
318.8882793873363
 20
188.0276138216949
 30
0.0
  0
POINT
  5
12BD
  8
DEFPOINTS
 62
     0
 10
235.73388062807311
 20
188.0276138216949
 30
0.0
  0
ENDBLK
  5
350
  8
0
  0
BLOCK
  8
0
  2
*D16
 70
     1
 10
0.0
 20
0.0
 30
0.0
  3
*D16
  1

  0
LINE
  5
129A
  8
TEKST
 62
     0
 10
126.2995082651932
 20
66.324878802965031
 30
0.0
 11
126.2995082651932
 21
77.901271521093676
 31
0.0
  0
LINE
  5
129B
  8
TEKST
 62
     0
 10
511.64579974744311
 20
66.378144614160405
 30
0.0
 11
511.64579974744311
 21
77.901271521093676
 31
0.0
  0
LINE
  5
129C
  8
TEKST
 62
     0
 10
138.7995082651932
 20
71.651271521093676
 30
0.0
 11
499.14579974744311
 21
71.651271521093676
 31
0.0
  0
SOLID
  5
129D
  8
TEKST
 62
     0
 10
138.7995082651932
 20
73.734604854427019
 30
0.0
 11
138.7995082651932
 21
69.567938187760362
 31
0.0
 12
126.2995082651932
 22
71.651271521093676
 32
0.0
 13
126.2995082651932
 23
71.651271521093676
 33
0.0
  0
SOLID
  5
129E
  8
TEKST
 62
     0
 10
499.14579974744311
 20
73.734604854427019
 30
0.0
 11
499.14579974744311
 21
69.567938187760362
 31
0.0
 12
511.64579974744311
 22
71.651271521093676
 32
0.0
 13
511.64579974744311
 23
71.651271521093676
 33
0.0
  0
INSERT
  5
129F
  8
SNIJ
  2
*U41
 10
0.0
 20
0.0
 30
0.0
  0
POINT
  5
12A0
  8
DEFPOINTS
 62
     0
 10
126.2995082651932
 20
63.199878802965031
 30
0.0
  0
POINT
  5
12A1
  8
DEFPOINTS
 62
     0
 10
511.64579974744311
 20
63.253144614160412
 30
0.0
  0
POINT
  5
12A2
  8
DEFPOINTS
 62
     0
 10
511.64579974744311
 20
71.651271521093676
 30
0.0
  0
ENDBLK
  5
375
  8
0
  0
BLOCK
  8
0
  2
*D17
 70
     1
 10
0.0
 20
0.0
 30
0.0
  3
*D17
  1

  0
LINE
  5
12A3
  8
TEKST
 62
     0
 10
129.42450826519291
 20
63.199878802964911
 30
0.0
 11
242.07300746874481
 21
63.199878802964868
 31
0.0
  0
LINE
  5
12A4
  8
TEKST
 62
     0
 10
315.85240622800791
 20
139.02769835049509
 30
0.0
 11
229.57300746874481
 21
139.02769835049509
 31
0.0
  0
LINE
  5
12A5
  8
TEKST
 62
     0
 10
235.82300746874481
 20
75.699878802964889
 30
0.0
 11
235.82300746874481
 21
126.5276983504951
 31
0.0
  0
SOLID
  5
12A6
  8
TEKST
 62
     0
 10
233.73967413541149
 20
75.699878802964889
 30
0.0
 11
237.90634080207809
 21
75.699878802964889
 31
0.0
 12
235.82300746874481
 22
63.199878802964889
 32
0.0
 13
235.82300746874481
 23
63.199878802964889
 33
0.0
  0
SOLID
  5
12A7
  8
TEKST
 62
     0
 10
233.73967413541149
 20
126.5276983504951
 30
0.0
 11
237.90634080207809
 21
126.5276983504951
 31
0.0
 12
235.82300746874481
 22
139.02769835049509
 32
0.0
 13
235.82300746874481
 23
139.02769835049509
 33
0.0
  0
INSERT
  5
12A8
  8
SNIJ
  2
*U42
 10
0.0
 20
0.0
 30
0.0
  0
POINT
  5
12A9
  8
DEFPOINTS
 62
     0
 10
126.2995082651929
 20
63.199878802964911
 30
0.0
  0
POINT
  5
12AA
  8
DEFPOINTS
 62
     0
 10
318.97740622800791
 20
139.02769835049509
 30
0.0
  0
POINT
  5
12AB
  8
DEFPOINTS
 62
     0
 10
235.82300746874481
 20
139.02769835049509
 30
0.0
  0
ENDBLK
  5
381
  8
0
  0
BLOCK
  8
0
  2
*D18
 70
     1
 10
0.0
 20
0.0
 30
0.0
  3
*D18
  1

  0
LINE
  5
1288
  8
TEKST
 62
     0
 10
126.1212545838499
 20
164.32470974536449
 30
0.0
 11
126.1212545838499
 21
175.9011024634932
 31
0.0
  0
LINE
  5
1289
  8
TEKST
 62
     0
 10
511.46754606609971
 20
164.3779755565599
 30
0.0
 11
511.46754606609971
 21
175.9011024634932
 31
0.0
  0
LINE
  5
128A
  8
TEKST
 62
     0
 10
138.62125458384989
 20
169.6511024634932
 30
0.0
 11
498.96754606609971
 21
169.6511024634932
 31
0.0
  0
SOLID
  5
128B
  8
TEKST
 62
     0
 10
138.62125458384989
 20
171.73443579682649
 30
0.0
 11
138.62125458384989
 21
167.5677691301598
 31
0.0
 12
126.1212545838499
 22
169.6511024634932
 32
0.0
 13
126.1212545838499
 23
169.6511024634932
 33
0.0
  0
SOLID
  5
128C
  8
TEKST
 62
     0
 10
498.96754606609971
 20
171.73443579682649
 30
0.0
 11
498.96754606609971
 21
167.5677691301598
 31
0.0
 12
511.46754606609971
 22
169.6511024634932
 32
0.0
 13
511.46754606609971
 23
169.6511024634932
 33
0.0
  0
INSERT
  5
128D
  8
SNIJ
  2
*U39
 10
0.0
 20
0.0
 30
0.0
  0
POINT
  5
128E
  8
DEFPOINTS
 62
     0
 10
126.1212545838499
 20
161.19970974536449
 30
0.0
  0
POINT
  5
128F
  8
DEFPOINTS
 62
     0
 10
511.46754606609971
 20
161.2529755565599
 30
0.0
  0
POINT
  5
1290
  8
DEFPOINTS
 62
     0
 10
511.46754606609971
 20
169.6511024634932
 30
0.0
  0
ENDBLK
  5
3A6
  8
0
  0
BLOCK
  8
0
  2
*D19
 70
     1
 10
0.0
 20
0.0
 30
0.0
  3
*D19
  1

  0
LINE
  5
1291
  8
TEKST
 62
     0
 10
129.24625458384949
 20
161.1997097453644
 30
0.0
 11
241.89475378740141
 21
161.1997097453644
 31
0.0
  0
LINE
  5
1292
  8
TEKST
 62
     0
 10
315.67415254666457
 20
237.02752929289471
 30
0.0
 11
229.39475378740141
 21
237.02752929289471
 31
0.0
  0
LINE
  5
1293
  8
TEKST
 62
     0
 10
235.64475378740141
 20
173.6997097453644
 30
0.0
 11
235.64475378740141
 21
224.52752929289471
 31
0.0
  0
SOLID
  5
1294
  8
TEKST
 62
     0
 10
233.5614204540681
 20
173.6997097453644
 30
0.0
 11
237.72808712073461
 21
173.6997097453644
 31
0.0
 12
235.64475378740141
 22
161.1997097453644
 32
0.0
 13
235.64475378740141
 23
161.1997097453644
 33
0.0
  0
SOLID
  5
1295
  8
TEKST
 62
     0
 10
233.5614204540681
 20
224.52752929289471
 30
0.0
 11
237.72808712073481
 21
224.52752929289471
 31
0.0
 12
235.64475378740141
 22
237.02752929289471
 32
0.0
 13
235.64475378740141
 23
237.02752929289471
 33
0.0
  0
INSERT
  5
1296
  8
SNIJ
  2
*U40
 10
0.0
 20
0.0
 30
0.0
  0
POINT
  5
1297
  8
DEFPOINTS
 62
     0
 10
126.12125458384951
 20
161.1997097453644
 30
0.0
  0
POINT
  5
1298
  8
DEFPOINTS
 62
     0
 10
318.79915254666457
 20
237.02752929289471
 30
0.0
  0
POINT
  5
1299
  8
DEFPOINTS
 62
     0
 10
235.64475378740141
 20
237.02752929289471
 30
0.0
  0
ENDBLK
  5
3B2
  8
0
  0
BLOCK
  8
0
  2
*D20
 70
     1
 10
0.0
 20
0.0
 30
0.0
  3
*D20
  1

  0
LINE
  5
1276
  8
TEKST
 62
     0
 10
126.03212774317819
 20
213.3246252165643
 30
0.0
 11
126.03212774317819
 21
224.9010179346929
 31
0.0
  0
LINE
  5
1277
  8
TEKST
 62
     0
 10
511.3784192254281
 20
213.37789102775969
 30
0.0
 11
511.3784192254281
 21
224.9010179346929
 31
0.0
  0
LINE
  5
1278
  8
TEKST
 62
     0
 10
138.53212774317819
 20
218.6510179346929
 30
0.0
 11
498.8784192254281
 21
218.6510179346929
 31
0.0
  0
SOLID
  5
1279
  8
TEKST
 62
     0
 10
138.53212774317819
 20
220.7343512680263
 30
0.0
 11
138.53212774317819
 21
216.56768460135959
 31
0.0
 12
126.03212774317819
 22
218.6510179346929
 32
0.0
 13
126.03212774317819
 23
218.6510179346929
 33
0.0
  0
SOLID
  5
127A
  8
TEKST
 62
     0
 10
498.8784192254281
 20
220.7343512680263
 30
0.0
 11
498.8784192254281
 21
216.56768460135959
 31
0.0
 12
511.3784192254281
 22
218.6510179346929
 32
0.0
 13
511.3784192254281
 23
218.6510179346929
 33
0.0
  0
INSERT
  5
127B
  8
SNIJ
  2
*U37
 10
0.0
 20
0.0
 30
0.0
  0
POINT
  5
127C
  8
DEFPOINTS
 62
     0
 10
126.03212774317819
 20
210.1996252165643
 30
0.0
  0
POINT
  5
127D
  8
DEFPOINTS
 62
     0
 10
511.3784192254281
 20
210.25289102775969
 30
0.0
  0
POINT
  5
127E
  8
DEFPOINTS
 62
     0
 10
511.3784192254281
 20
218.6510179346929
 30
0.0
  0
ENDBLK
  5
3D7
  8
0
  0
BLOCK
  8
0
  2
*D21
 70
     1
 10
0.0
 20
0.0
 30
0.0
  3
*D21
  1

  0
LINE
  5
127F
  8
TEKST
 62
     0
 10
129.15712774317791
 20
210.19962521656419
 30
0.0
 11
241.80562694672969
 21
210.1996252165641
 31
0.0
  0
LINE
  5
1280
  8
TEKST
 62
     0
 10
315.58502570599302
 20
286.02744476409441
 30
0.0
 11
229.30562694672969
 21
286.02744476409441
 31
0.0
  0
LINE
  5
1281
  8
TEKST
 62
     0
 10
235.55562694672969
 20
222.6996252165641
 30
0.0
 11
235.55562694672969
 21
273.52744476409441
 31
0.0
  0
SOLID
  5
1282
  8
TEKST
 62
     0
 10
233.4722936133964
 20
222.6996252165641
 30
0.0
 11
237.63896028006309
 21
222.6996252165641
 31
0.0
 12
235.55562694672969
 22
210.1996252165641
 32
0.0
 13
235.55562694672969
 23
210.1996252165641
 33
0.0
  0
SOLID
  5
1283
  8
TEKST
 62
     0
 10
233.4722936133964
 20
273.52744476409441
 30
0.0
 11
237.63896028006309
 21
273.52744476409441
 31
0.0
 12
235.55562694672969
 22
286.02744476409441
 32
0.0
 13
235.55562694672969
 23
286.02744476409441
 33
0.0
  0
INSERT
  5
1284
  8
SNIJ
  2
*U38
 10
0.0
 20
0.0
 30
0.0
  0
POINT
  5
1285
  8
DEFPOINTS
 62
     0
 10
126.0321277431779
 20
210.19962521656419
 30
0.0
  0
POINT
  5
1286
  8
DEFPOINTS
 62
     0
 10
318.71002570599302
 20
286.02744476409441
 30
0.0
  0
POINT
  5
1287
  8
DEFPOINTS
 62
     0
 10
235.55562694672969
 20
286.02744476409441
 30
0.0
  0
ENDBLK
  5
3E3
  8
0
  0
BLOCK
  8
0
  2
*D22
 70
     1
 10
0.0
 20
0.0
 30
0.0
  3
*D22
  1

  0
LINE
  5
5B6
  8
MATERIAAL
 62
     0
 10
92.410207518805919
 20
1039.945040048904
 30
0.0
 11
92.410207518805919
 21
946.13208801415146
 31
0.0
  0
LINE
  5
5B7
  8
MATERIAAL
 62
     0
 10
611.79066715107388
 20
1039.945040048904
 30
0.0
 11
611.79066715107388
 21
946.13208801415146
 31
0.0
  0
LINE
  5
5B8
  8
MATERIAAL
 62
     0
 10
104.9102075188059
 20
952.38208801415146
 30
0.0
 11
599.29066715107388
 21
952.38208801415146
 31
0.0
  0
SOLID
  5
5B9
  8
MATERIAAL
 62
     0
 10
104.9102075188059
 20
954.46542134748472
 30
0.0
 11
104.9102075188059
 21
950.29875468081798
 31
0.0
 12
92.410207518805919
 22
952.38208801415146
 32
0.0
 13
92.410207518805919
 23
952.38208801415146
 33
0.0
  0
SOLID
  5
5BA
  8
MATERIAAL
 62
     0
 10
599.29066715107388
 20
954.46542134748472
 30
0.0
 11
599.29066715107388
 21
950.29875468081798
 31
0.0
 12
611.79066715107388
 22
952.38208801415146
 32
0.0
 13
611.79066715107388
 23
952.38208801415146
 33
0.0
  0
INSERT
  5
5BB
  8
SNIJ
  2
*U34
 10
0.0
 20
0.0
 30
0.0
  0
POINT
  5
5BC
  8
DEFPOINTS
 62
     0
 10
92.410207518805919
 20
1043.070040048904
 30
0.0
  0
POINT
  5
5BD
  8
DEFPOINTS
 62
     0
 10
611.79066715107388
 20
1043.070040048904
 30
0.0
  0
POINT
  5
5BE
  8
DEFPOINTS
 62
     0
 10
611.79066715107388
 20
952.38208801415146
 30
0.0
  0
ENDBLK
  5
5AB
  8
0
  0
BLOCK
  8
0
  2
*D23
 70
     1
 10
0.0
 20
0.0
 30
0.0
  3
*D23
  1

  0
LINE
  5
5CE
  8
MATERIAAL
 62
     0
 10
159.43099629040569
 20
1439.6549466983231
 30
0.0
 11
159.43099629040569
 21
1383.559011973714
 31
0.0
  0
LINE
  5
5CF
  8
MATERIAAL
 62
     0
 10
544.77728777265884
 20
1439.7082125095189
 30
0.0
 11
544.77728777265884
 21
1383.559011973714
 31
0.0
  0
LINE
  5
5D0
  8
MATERIAAL
 62
     0
 10
171.93099629040569
 20
1389.809011973714
 30
0.0
 11
532.27728777265884
 21
1389.809011973714
 31
0.0
  0
SOLID
  5
5D1
  8
MATERIAAL
 62
     0
 10
171.93099629040569
 20
1391.892345307047
 30
0.0
 11
171.93099629040569
 21
1387.7256786403809
 31
0.0
 12
159.43099629040569
 22
1389.809011973714
 32
0.0
 13
159.43099629040569
 23
1389.809011973714
 33
0.0
  0
SOLID
  5
5D2
  8
MATERIAAL
 62
     0
 10
532.27728777265884
 20
1391.892345307047
 30
0.0
 11
532.27728777265884
 21
1387.7256786403809
 31
0.0
 12
544.77728777265884
 22
1389.809011973714
 32
0.0
 13
544.77728777265884
 23
1389.809011973714
 33
0.0
  0
INSERT
  5
5D3
  8
SNIJ
  2
*U35
 10
0.0
 20
0.0
 30
0.0
  0
POINT
  5
5D4
  8
DEFPOINTS
 62
     0
 10
159.43099629040569
 20
1442.7799466983231
 30
0.0
  0
POINT
  5
5D5
  8
DEFPOINTS
 62
     0
 10
544.77728777265884
 20
1442.8332125095189
 30
0.0
  0
POINT
  5
5D6
  8
DEFPOINTS
 62
     0
 10
544.77728777265884
 20
1389.809011973714
 30
0.0
  0
ENDBLK
  5
5C3
  8
0
  0
BLOCK
  8
0
  2
*D24
 70
     1
 10
0.0
 20
0.0
 30
0.0
  3
*D24
  1

  0
LINE
  5
6DB
  8
MATERIAAL
 62
     0
 10
-319.28515514709107
 20
1208.861153201043
 30
0.0
 11
-319.28515514709107
 21
1302.674105235795
 31
0.0
  0
LINE
  5
6DC
  8
MATERIAAL
 62
     0
 10
-838.66561477935909
 20
1208.861153201043
 30
0.0
 11
-838.66561477935909
 21
1302.674105235795
 31
0.0
  0
LINE
  5
6DD
  8
MATERIAAL
 62
     0
 10
-331.78515514709107
 20
1296.4241052357961
 30
0.0
 11
-826.16561477935909
 21
1296.4241052357961
 31
0.0
  0
SOLID
  5
6DE
  8
MATERIAAL
 62
     0
 10
-331.78515514709107
 20
1298.5074385691289
 30
0.0
 11
-331.78515514709107
 21
1294.3407719024619
 31
0.0
 12
-319.28515514709107
 22
1296.4241052357961
 32
0.0
 13
-319.28515514709107
 23
1296.4241052357961
 33
0.0
  0
SOLID
  5
6DF
  8
MATERIAAL
 62
     0
 10
-826.16561477935909
 20
1298.5074385691289
 30
0.0
 11
-826.16561477935909
 21
1294.3407719024619
 31
0.0
 12
-838.66561477935909
 22
1296.4241052357961
 32
0.0
 13
-838.66561477935909
 23
1296.4241052357961
 33
0.0
  0
INSERT
  5
6E0
  8
SNIJ
  2
*U36
 10
0.0
 20
0.0
 30
0.0
  0
POINT
  5
6E1
  8
DEFPOINTS
 62
     0
 10
-319.28515514709107
 20
1205.736153201043
 30
0.0
  0
POINT
  5
6E2
  8
DEFPOINTS
 62
     0
 10
-838.66561477935909
 20
1205.736153201043
 30
0.0
  0
POINT
  5
6E3
  8
DEFPOINTS
 62
     0
 10
-838.66561477935909
 20
1296.4241052357961
 30
0.0
  0
ENDBLK
  5
6D1
  8
0
  0
BLOCK
  8
0
  2
*U25
 70
     1
 10
0.0
 20
0.0
 30
0.0
  3
*U25
  1

  0
TEXT
  5
1439
  8
TEKST
 62
     0
 10
331.6999114650485
 20
275.10378529277682
 30
0.0
 40
12.5
  1
524
 50
90.0
  0
ENDBLK
  5
143B
  8
0
  0
BLOCK
  8
0
  2
*U26
 70
     1
 10
0.0
 20
0.0
 30
0.0
  3
*U26
  1

  0
TEXT
  5
143D
  8
TEKST
 62
     0
 10
334.79393541461019
 20
315.00527629092898
 30
0.0
 40
12.5
  1
98
  0
ENDBLK
  5
143F
  8
0
  0
BLOCK
  8
0
  2
*U27
 70
     1
 10
0.0
 20
0.0
 30
0.0
  3
*U27
  1

  0
TEXT
  5
1441
  8
TEKST
 62
     0
 10
-8.8771091425987532
 20
6.1851761904451861
 30
0.0
 40
7.5
  1
521
  0
ENDBLK
  5
1443
  8
0
  0
BLOCK
  8
0
  2
*U28
 70
     1
 10
0.0
 20
0.0
 30
0.0
  3
*U28
  1

  0
TEXT
  5
1445
  8
TEKST
 62
     0
 10
-116.3855177548901
 20
36.275286098312122
 30
0.0
 40
7.5
  1
85
 50
90.0
  0
ENDBLK
  5
1447
  8
0
  0
BLOCK
  8
0
  2
*U29
 70
     1
 10
0.0
 20
0.0
 30
0.0
  3
*U29
  1

  0
TEXT
  5
1449
  8
TEKST
 62
     0
 10
-10.13186136428889
 20
19.49859323560781
 30
0.0
 40
7.5
  1
385
  0
ENDBLK
  5
144B
  8
0
  0
BLOCK
  8
0
  2
*U30
 70
     1
 10
0.0
 20
0.0
 30
0.0
  3
*U30
  1

  0
TEXT
  5
144D
  8
TEKST
 62
     0
 10
-85.156507901861914
 20
40.836110291244218
 30
0.0
 40
7.5
  1
76
 50
90.0
  0
ENDBLK
  5
144F
  8
0
  0
BLOCK
  8
0
  2
*U31
 70
     1
 10
0.0
 20
0.0
 30
0.0
  3
*U31
  1

  0
TEXT
  5
1451
  8
MATERIAAL
 62
     0
 10
55.185650371912637
 20
602.71926767302818
 30
0.0
 40
12.5
  1
20
 50
90.0
  0
ENDBLK
  5
1453
  8
0
  0
BLOCK
  8
0
  2
*U32
 70
     1
 10
0.0
 20
0.0
 30
0.0
  3
*U32
  1

  0
TEXT
  5
1455
  8
MATERIAAL
 62
     0
 10
337.8820685337663
 20
501.26445902317619
 30
0.0
 40
12.5
  1
521
  0
ENDBLK
  5
1457
  8
0
  0
BLOCK
  8
0
  2
*U33
 70
     1
 10
0.0
 20
0.0
 30
0.0
  3
*U33
  1

  0
TEXT
  5
148E
  8
MATERIAAL
 62
     0
 10
-9.21820659142492
 20
1000.680250990339
 30
0.0
 40
12.5
  1
926
 50
90.0
  0
ENDBLK
  5
1490
  8
0
  0
BLOCK
  8
0
  2
*U34
 70
     1
 10
0.0
 20
0.0
 30
0.0
  3
*U34
  1

  0
TEXT
  5
1492
  8
MATERIAAL
 62
     0
 10
337.51710400160658
 20
955.50708801415146
 30
0.0
 40
12.5
  1
519
  0
ENDBLK
  5
1494
  8
0
  0
BLOCK
  8
0
  2
*U35
 70
     1
 10
0.0
 20
0.0
 30
0.0
  3
*U35
  1

  0
TEXT
  5
1496
  8
MATERIAAL
 62
     0
 10
335.43747536486558
 20
1392.934011973714
 30
0.0
 40
12.5
  1
385
  0
ENDBLK
  5
1498
  8
0
  0
BLOCK
  8
0
  2
*U36
 70
     1
 10
0.0
 20
0.0
 30
0.0
  3
*U36
  1

  0
TEXT
  5
149A
  8
MATERIAAL
 62
     0
 10
-593.55871829655825
 20
1299.5491052357961
 30
0.0
 40
12.5
  1
519
  0
ENDBLK
  5
149C
  8
0
  0
BLOCK
  8
0
  2
*U37
 70
     1
 10
0.0
 20
0.0
 30
0.0
  3
*U37
  1

  0
TEXT
  5
149E
  8
TEKST
 62
     0
 10
302.03860681763649
 20
221.7760179346929
 30
0.0
 40
12.5
  1
385
  0
ENDBLK
  5
14A0
  8
0
  0
BLOCK
  8
0
  2
*U38
 70
     1
 10
0.0
 20
0.0
 30
0.0
  3
*U38
  1

  0
TEXT
  5
14A2
  8
TEKST
 62
     0
 10
232.43062694672969
 20
237.6968683236627
 30
0.0
 40
12.5
  1
76
 50
90.0
  0
ENDBLK
  5
14A4
  8
0
  0
BLOCK
  8
0
  2
*U39
 70
     1
 10
0.0
 20
0.0
 30
0.0
  3
*U39
  1

  0
TEXT
  5
14A6
  8
TEKST
 62
     0
 10
302.12773365830822
 20
172.7761024634932
 30
0.0
 40
12.5
  1
385
  0
ENDBLK
  5
14A8
  8
0
  0
BLOCK
  8
0
  2
*U40
 70
     1
 10
0.0
 20
0.0
 30
0.0
  3
*U40
  1

  0
TEXT
  5
14AA
  8
TEKST
 62
     0
 10
232.51975378740141
 20
188.69695285246291
 30
0.0
 40
12.5
  1
76
 50
90.0
  0
ENDBLK
  5
14AC
  8
0
  0
BLOCK
  8
0
  2
*U41
 70
     1
 10
0.0
 20
0.0
 30
0.0
  3
*U41
  1

  0
TEXT
  5
14AE
  8
TEKST
 62
     0
 10
302.30598733965149
 20
74.776271521093676
 30
0.0
 40
12.5
  1
385
  0
ENDBLK
  5
14B0
  8
0
  0
BLOCK
  8
0
  2
*U42
 70
     1
 10
0.0
 20
0.0
 30
0.0
  3
*U42
  1

  0
TEXT
  5
14B2
  8
TEKST
 62
     0
 10
232.69800746874481
 20
90.697121910063331
 30
0.0
 40
12.5
  1
76
 50
90.0
  0
ENDBLK
  5
14B4
  8
0
  0
BLOCK
  8
0
  2
*U43
 70
     1
 10
0.0
 20
0.0
 30
0.0
  3
*U43
  1

  0
TEXT
  5
14B6
  8
TEKST
 62
     0
 10
302.21686049897983
 20
123.7761869922934
 30
0.0
 40
12.5
  1
385
  0
ENDBLK
  5
14B8
  8
0
  0
BLOCK
  8
0
  2
*U44
 70
     1
 10
0.0
 20
0.0
 30
0.0
  3
*U44
  1

  0
TEXT
  5
14BA
  8
TEKST
 62
     0
 10
232.608880628073
 20
139.6970373812631
 30
0.0
 40
12.5
  1
76
 50
90.0
  0
ENDBLK
  5
14BC
  8
0
  0
ENDSEC
  0
SECTION
  2
ENTITIES
  0
ARC
  5
1353
  8
SNIJ
 10
366.95551528224968
 20
63.347460003555398
 30
0.0
 40
5.0
 50
21.23283163545258
 51
75.353505106180037
  0
ARC
  5
1354
  8
SNIJ
 10
265.91238183165569
 20
-323.27663705272238
 30
0.0
 40
404.6096936287916
 50
75.353505106180435
 51
90.881138313102426
  0
LINE
  5
1355
  8
SNIJ
 10
371.61609743225358
 20
65.158253758532851
 30
0.0
 11
372.01878418855688
 21
64.121827217238092
 31
0.0
  0
ARC
  5
1356
  8
SNIJ
 10
253.46807780061221
 20
-323.27663705272238
 30
0.0
 40
404.6096936287916
 50
89.11886168689756
 51
104.64649489381991
  0
ARC
  5
1357
  8
SNIJ
 10
376.67936633856073
 20
65.932620972215545
 30
0.0
 40
5.0
 50
201.23283163545261
 51
248.8234886000472
  0
ARC
  5
1358
  8
SNIJ
 10
152.424944350018
 20
63.347460003555398
 30
0.0
 40
5.0
 50
104.6464948941162
 51
158.76716836454739
  0
LINE
  5
1359
  8
SNIJ
 10
374.87315468663058
 20
61.270261111754962
 30
0.0
 11
400.31830506086942
 21
51.412736496202228
 31
0.0
  0
LINE
  5
135A
  8
SNIJ
 10
147.76436220001409
 20
65.158253758532851
 30
0.0
 11
147.36167544371091
 21
64.121827217238206
 31
0.0
  0
ARC
  5
135B
  8
SNIJ
 10
403.93072836472868
 20
60.737456217123281
 30
0.0
 40
10.0
 50
248.8234886000478
 51
266.125922068303
  0
ARC
  5
135C
  8
SNIJ
 10
142.701093293707
 20
65.932620972215545
 30
0.0
 40
5.0
 50
291.17651139995218
 51
338.76716836454892
  0
LINE
  5
135D
  8
SNIJ
 10
416.99212455228093
 20
49.830053296684383
 30
0.0
 11
403.25508930502878
 21
50.760306731372793
 31
0.0
  0
LINE
  5
135E
  8
SNIJ
 10
144.5073049456366
 20
61.270261111755019
 30
0.0
 11
119.06215457139859
 21
51.412736496202108
 31
0.0
  0
ARC
  5
135F
  8
SNIJ
 10
416.3164854925808
 20
39.852903810934102
 30
0.0
 40
10.0
 50
68.823488600047199
 51
86.125922068302984
  0
ARC
  5
1360
  8
SNIJ
 10
115.44973126753889
 20
60.737456217123281
 30
0.0
 40
10.0
 50
273.874077931697
 51
291.1765113999528
  0
LINE
  5
1361
  8
SNIJ
 10
419.92890879644068
 20
49.177623531855033
 30
0.0
 11
450.53284025929941
 21
37.32157224935753
 31
0.0
  0
LINE
  5
1362
  8
SNIJ
 10
102.3883350799869
 20
49.830053296684362
 30
0.0
 11
116.1253703272391
 21
50.760306731372992
 31
0.0
  0
ARC
  5
1363
  8
SNIJ
 10
448.72662860736978
 20
32.659212388896997
 30
0.0
 40
5.0
 50
66.224232276064484
 51
68.823488600047199
  0
ARC
  5
1364
  8
SNIJ
 10
103.06397413968701
 20
39.852903810934102
 30
0.0
 40
10.0
 50
93.874077931697002
 51
111.1765113999522
  0
LINE
  5
1365
  8
SNIJ
 10
469.48717048520388
 20
28.976911856756061
 30
0.0
 11
450.7424200755338
 21
37.234863682087507
 31
0.0
  0
LINE
  5
1366
  8
SNIJ
 10
99.451550835827788
 20
49.177623531855147
 30
0.0
 11
68.847619372967984
 21
37.321572249357558
 31
0.0
  0
ARC
  5
1367
  8
SNIJ
 10
467.47137901703968
 20
24.401260563565529
 30
0.0
 40
5.0
 50
37.974317529206232
 51
66.22423227606383
  0
ARC
  5
1368
  8
SNIJ
 10
70.653831024898068
 20
32.659212388896997
 30
0.0
 40
5.0
 50
111.1765113999528
 51
113.7757677239362
  0
LINE
  5
1369
  8
SNIJ
 10
473.45638090481827
 20
24.859734821015309
 30
0.0
 11
471.41281222101668
 21
27.477801526820031
 31
0.0
  0
LINE
  5
136A
  8
SNIJ
 10
49.893289147063449
 20
28.976911856755809
 30
0.0
 11
68.638039556733816
 21
37.234863682087543
 31
0.0
  0
ARC
  5
136B
  8
SNIJ
 10
469.51494770084082
 20
21.783193857760811
 30
0.0
 40
5.0
 50
6.4553676799173108
 51
37.97431752920366
  0
ARC
  5
136C
  8
SNIJ
 10
51.909080615228042
 20
24.401260563565529
 30
0.0
 40
5.0
 50
113.77576772394281
 51
142.02568247079631
  0
LINE
  5
136D
  8
SNIJ
 10
474.69659206205961
 20
20.459771053369529
 30
0.0
 11
474.48324638763069
 21
22.345339887577438
 31
0.0
  0
LINE
  5
136E
  8
SNIJ
 10
45.924078727449448
 20
24.859734821015309
 30
0.0
 11
47.967647411250482
 21
27.477801526820031
 31
0.0
  0
ARC
  5
136F
  8
SNIJ
 10
479.6648907488497
 20
21.021917083186509
 30
0.0
 40
5.0
 50
186.4553676799205
 51
252.2741612768919
  0
ARC
  5
1370
  8
SNIJ
 10
49.865511931427022
 20
21.783193857760811
 30
0.0
 40
5.0
 50
142.02568247079631
 51
173.5446323200795
  0
LINE
  5
1371
  8
SNIJ
 10
478.14257748635958
 20
16.259295711415689
 30
0.0
 11
499.55191041169559
 21
9.4160661306489999
 31
0.0
  0
LINE
  5
1372
  8
SNIJ
 10
44.683867570208349
 20
20.459771053369881
 30
0.0
 11
44.897213244636873
 21
22.345339887577779
 31
0.0
  0
ARC
  5
1373
  8
SNIJ
 10
498.94298510669972
 20
7.5110175819406768
 30
0.0
 40
2.0
 50
38.518842247749618
 51
72.27416127689861
  0
ARC
  5
1374
  8
SNIJ
 10
39.715568883418079
 20
21.021917083186509
 30
0.0
 40
5.0
 50
287.7258387231019
 51
353.5446323200826
  0
LINE
  5
1375
  8
SNIJ
 10
500.50779189636683
 20
8.7565615237642742
 30
0.0
 11
500.69935517559469
 21
8.5158959720149596
 31
0.0
  0
LINE
  5
1376
  8
SNIJ
 10
41.237882145907861
 20
16.25929571141571
 30
0.0
 11
19.828549220571968
 21
9.4160661306489146
 31
0.0
  0
LINE
  5
1377
  8
SNIJ
 10
500.69935517559469
 20
8.5158959720149596
 30
0.0
 11
501.12754582716059
 21
8.2382305621588312
 31
0.0
  0
ARC
  5
1378
  8
SNIJ
 10
20.43747452556795
 20
7.5110175819406768
 30
0.0
 40
2.0
 50
107.7258387231081
 51
141.4811577522504
  0
LINE
  5
1379
  8
SNIJ
 10
501.12754582716059
 20
8.2382305621588312
 30
0.0
 11
507.98393433540758
 21
5.7897529229283
 31
0.0
  0
LINE
  5
137A
  8
SNIJ
 10
18.872667735901238
 20
8.7565615237640486
 30
0.0
 11
18.681104456673321
 21
8.5158959720149596
 31
0.0
  0
LINE
  5
137B
  8
SNIJ
 10
507.98393433540758
 20
5.7897529229283
 30
0.0
 11
508.49490000096489
 21
5.7000915657588394
 31
0.0
  0
LINE
  5
137C
  8
SNIJ
 10
18.681104456673321
 20
8.5158959720149596
 30
0.0
 11
18.252913805107251
 21
8.2382305621588312
 31
0.0
  0
LINE
  5
137D
  8
SNIJ
 10
508.49490000096489
 20
5.7000915657588394
 30
0.0
 11
508.77935737725869
 21
5.7000916772883548
 31
0.0
  0
LINE
  5
137E
  8
SNIJ
 10
18.252913805107251
 20
8.2382305621588312
 30
0.0
 11
11.39652529686032
 21
5.7897529229283
 31
0.0
  0
LINE
  5
137F
  8
SNIJ
 10
508.77935737725869
 20
5.7000916772883548
 30
0.0
 11
514.87211957898137
 21
5.7000949816933248
 31
0.0
  0
LINE
  5
1380
  8
SNIJ
 10
11.39652529686032
 20
5.7897529229283
 30
0.0
 11
10.885559631302501
 21
5.7000915657588394
 31
0.0
  0
ARC
  5
1381
  8
SNIJ
 10
514.87212066367988
 20
3.7000949816936091
 30
0.0
 40
2.0
 50
52.494336819114856
 51
90.000031074320091
  0
LINE
  5
1382
  8
SNIJ
 10
10.885559631302501
 20
5.7000915657588394
 30
0.0
 11
10.60110225500852
 21
5.7000916772883548
 31
0.0
  0
LINE
  5
1383
  8
SNIJ
 10
516.08980034766682
 20
5.2866813131629442
 30
0.0
 11
517.91058865081447
 21
3.8892553542925721
 31
0.0
  0
LINE
  5
1384
  8
SNIJ
 10
10.60110225500852
 20
5.7000916772883548
 30
0.0
 11
4.5083400532864744
 21
5.7000949816931552
 31
0.0
  0
ARC
  5
1385
  8
SNIJ
 10
516.69290896682764
 20
2.3026690228232378
 30
0.0
 40
2.0
 50
14.999999990874461
 51
52.494336819114856
  0
ARC
  5
1386
  8
SNIJ
 10
4.5083389685879629
 20
3.7000949816936091
 30
0.0
 40
2.0
 50
89.999968925673386
 51
127.50566318088509
  0
LINE
  5
1387
  8
SNIJ
 10
518.62476061948792
 20
2.8203071127204562
 30
0.0
 11
519.38045963226773
 21
0.0
 31
0.0
  0
LINE
  5
1388
  8
SNIJ
 10
3.290659284601019
 20
5.2866813131629442
 30
0.0
 11
1.4698709814530271
 21
3.8892553542925721
 31
0.0
  0
LINE
  5
1389
  8
SNIJ
 10
519.38045963226773
 20
0.0
 30
0.0
 11
482.89673363174552
 21
0.0000927184711372
 31
0.0
  0
ARC
  5
138A
  8
SNIJ
 10
2.687550665439971
 20
2.3026690228232378
 30
0.0
 40
2.0
 50
127.50566318088509
 51
165.0000000091303
  0
ARC
  5
138B
  8
SNIJ
 10
259.69023053658748
 20
-673.96004658114191
 30
0.0
 40
709.96014845111029
 50
71.675826162239048
 51
90.000000058141978
  0
LINE
  5
138C
  8
SNIJ
 10
0.7556990127793597
 20
2.8203071127204562
 30
0.0
 11
0.0
 21
0.0
 31
0.0
  0
ARC
  5
138D
  8
SNIJ
 10
259.69022909568042
 20
-673.96004658114191
 30
0.0
 40
709.96014845111029
 50
89.999999941858036
 51
108.3241738377676
  0
LINE
  5
138E
  8
SNIJ
 10
0.0
 20
0.0
 30
0.0
 11
36.483726000462298
 21
0.000092718451242
 31
0.0
  0
ENDSEC
  0
EOF
