  0
SECTION
  2
HEADER
  9
$ACADVER
  1
AC1009
  9
$INSBASE
 10
0.0
 20
0.0
 30
0.0
  9
$EXTMIN
 10
-20.24349209962384
 20
74.172496765299002
 30
0.0
  9
$EXTMAX
 10
3371.7565079003762
 20
2633.3758392965392
 30
0.0
  9
$LIMMIN
 10
0.0
 20
0.0
  9
$LIMMAX
 10
1189.0
 20
841.0
  9
$ORTHOMODE
 70
     0
  9
$REGENMODE
 70
     1
  9
$FILLMODE
 70
     1
  9
$QTEXTMODE
 70
     0
  9
$MIRRTEXT
 70
     0
  9
$DRAGMODE
 70
     2
  9
$LTSCALE
 40
100.0
  9
$OSMODE
 70
    37
  9
$ATTMODE
 70
     1
  9
$TEXTSIZE
 40
20.0
  9
$TRACEWID
 40
0.05
  9
$TEXTSTYLE
  7
STANDARD
  9
$CLAYER
  8
DATUM
  9
$CELTYPE
  6
BYLAYER
  9
$CECOLOR
 62
   256
  9
$DIMSCALE
 40
50.0
  9
$DIMASZ
 40
4.0
  9
$DIMEXO
 40
1.0
  9
$DIMDLI
 40
0.38
  9
$DIMRND
 40
0.0
  9
$DIMDLE
 40
0.0
  9
$DIMEXE
 40
1.5
  9
$DIMTP
 40
0.01
  9
$DIMTM
 40
0.01
  9
$DIMTXT
 40
3.5
  9
$DIMCEN
 40
0.09
  9
$DIMTSZ
 40
0.0
  9
$DIMTOL
 70
     0
  9
$DIMLIM
 70
     0
  9
$DIMTIH
 70
     0
  9
$DIMTOH
 70
     0
  9
$DIMSE1
 70
     0
  9
$DIMSE2
 70
     0
  9
$DIMTAD
 70
     1
  9
$DIMZIN
 70
     8
  9
$DIMBLK
  1
_FILLED
  9
$DIMASO
 70
     1
  9
$DIMSHO
 70
     1
  9
$DIMPOST
  1

  9
$DIMAPOST
  1

  9
$DIMALT
 70
     0
  9
$DIMALTD
 70
     2
  9
$DIMALTF
 40
25.399999999999999
  9
$DIMLFAC
 40
1.0
  9
$DIMTOFL
 70
     0
  9
$DIMTVP
 40
0.0
  9
$DIMTIX
 70
     0
  9
$DIMSOXD
 70
     0
  9
$DIMSAH
 70
     0
  9
$DIMBLK1
  1

  9
$DIMBLK2
  1

  9
$DIMSTYLE
  2
STANDARD
  9
$DIMCLRD
 70
   256
  9
$DIMCLRE
 70
   256
  9
$DIMCLRT
 70
   256
  9
$DIMTFAC
 40
1.0
  9
$DIMGAP
 40
1.0
  9
$LUNITS
 70
     2
  9
$LUPREC
 70
     4
  9
$SKETCHINC
 40
0.1
  9
$FILLETRAD
 40
0.0
  9
$AUNITS
 70
     0
  9
$AUPREC
 70
     0
  9
$MENU
  1
.
  9
$ELEVATION
 40
0.0
  9
$PELEVATION
 40
0.0
  9
$THICKNESS
 40
0.0
  9
$LIMCHECK
 70
     0
  9
$BLIPMODE
 70
     0
  9
$CHAMFERA
 40
0.0
  9
$CHAMFERB
 40
0.0
  9
$SKPOLY
 70
     0
  9
$TDCREATE
 40
2456441.3711821642
  9
$TDUPDATE
 40
2456442.4547314928
  9
$TDINDWG
 40
0.4022573727
  9
$TDUSRTIMER
 40
0.4022573727
  9
$USRTIMER
 70
     1
  9
$ANGBASE
 50
0.0
  9
$ANGDIR
 70
     0
  9
$PDMODE
 70
     3
  9
$PDSIZE
 40
4.0
  9
$PLINEWID
 40
0.0
  9
$COORDS
 70
     1
  9
$SPLFRAME
 70
     0
  9
$SPLINETYPE
 70
     6
  9
$SPLINESEGS
 70
     8
  9
$ATTDIA
 70
     0
  9
$ATTREQ
 70
     1
  9
$HANDLING
 70
     1
  9
$HANDSEED
  5
2EE5
  9
$SURFTAB1
 70
     6
  9
$SURFTAB2
 70
     6
  9
$SURFTYPE
 70
     6
  9
$SURFU
 70
     6
  9
$SURFV
 70
     6
  9
$UCSNAME
  2

  9
$UCSORG
 10
0.0
 20
0.0
 30
0.0
  9
$UCSXDIR
 10
1.0
 20
0.0
 30
0.0
  9
$UCSYDIR
 10
0.0
 20
1.0
 30
0.0
  9
$PUCSNAME
  2

  9
$PUCSORG
 10
0.0
 20
0.0
 30
0.0
  9
$PUCSXDIR
 10
1.0
 20
0.0
 30
0.0
  9
$PUCSYDIR
 10
0.0
 20
1.0
 30
0.0
  9
$USERI1
 70
     0
  9
$USERI2
 70
     0
  9
$USERI3
 70
     0
  9
$USERI4
 70
     0
  9
$USERI5
 70
     0
  9
$USERR1
 40
0.0
  9
$USERR2
 40
0.0
  9
$USERR3
 40
0.0
  9
$USERR4
 40
0.0
  9
$USERR5
 40
0.0
  9
$WORLDVIEW
 70
     1
  9
$SHADEDGE
 70
     3
  9
$SHADEDIF
 70
    70
  9
$TILEMODE
 70
     1
  9
$MAXACTVP
 70
    64
  9
$PLIMCHECK
 70
     0
  9
$PEXTMIN
 10
1.0000000000000000E+020
 20
1.0000000000000000E+020
 30
1.0000000000000000E+020
  9
$PEXTMAX
 10
-1.0000000000000000E+020
 20
-1.0000000000000000E+020
 30
-1.0000000000000000E+020
  9
$PLIMMIN
 10
0.0
 20
0.0
  9
$PLIMMAX
 10
12.0
 20
9.0
  9
$UNITMODE
 70
     0
  9
$VISRETAIN
 70
     1
  9
$PLINEGEN
 70
     0
  9
$PSLTSCALE
 70
     1
  0
ENDSEC
  0
SECTION
  2
TABLES
  0
TABLE
  2
VPORT
 70
     1
  0
VPORT
  2
*ACTIVE
 70
     0
 10
0.0
 20
0.0
 11
1.0
 21
1.0
 12
1676.8386953788431
 22
1496.3679188761271
 13
0.0
 23
0.0
 14
1.0
 24
1.0
 15
0.0
 25
0.0
 16
0.0
 26
0.0
 36
1.0
 17
0.0
 27
0.0
 37
0.0
 40
2651.1029541734551
 41
2.0743169398907102
 42
50.0
 43
0.0
 44
0.0
 50
0.0
 51
0.0
 71
     0
 72
   100
 73
     1
 74
     1
 75
     0
 76
     0
 77
     0
 78
     0
  0
ENDTAB
  0
TABLE
  2
LTYPE
 70
     6
  0
LTYPE
  2
CONTINUOUS
 70
     0
  3
Solid line
 72
    65
 73
     0
 40
0.0
  0
LTYPE
  2
CENTER
 70
     0
  3
____ _ ____ _ ____ _ ____ _ ____ _ ____ _ ____
 72
    65
 73
     4
 40
0.6
 49
0.375
 49
-0.075
 49
0.075
 49
-0.075
  0
LTYPE
  2
HIDDEN
 70
     0
  3
- - - - - - - - - - - - - - - - - - - -
 72
    65
 73
     2
 40
0.2
 49
0.1
 49
-0.1
  0
LTYPE
  2
PHANTOM
 70
     0
  3
_____ _ _ _____ _ _ _____ _ _ _____
 72
    65
 73
     6
 40
0.8
 49
0.45
 49
-0.05
 49
0.1
 49
-0.05
 49
0.1
 49
-0.05
  0
LTYPE
  2
DOT
 70
     0
  3
. . . . . . . . . . . . . . . . . . . .
 72
    65
 73
     2
 40
0.2
 49
0.1
 49
-0.1
  0
LTYPE
  2
DASHED
 70
     0
  3
- - - - - - - - - - - - - - - - - - - -
 72
    65
 73
     2
 40
0.2
 49
0.1
 49
-0.1
  0
ENDTAB
  0
TABLE
  2
LAYER
 70
     7
  0
LAYER
  2
0
 70
     0
 62
     7
  6
CONTINUOUS
  0
LAYER
  2
DEFPOINTS
 70
     0
 62
     7
  6
CONTINUOUS
  0
LAYER
  2
DIM
 70
     0
 62
    -5
  6
CONTINUOUS
  0
LAYER
  2
UITSLAG
 70
     0
 62
   -70
  6
CONTINUOUS
  0
LAYER
  2
MULTIMAT
 70
     0
 62
    21
  6
CONTINUOUS
  0
LAYER
  2
GEBRUIKT
 70
     0
 62
    -9
  6
CONTINUOUS
  0
LAYER
  2
DATUM
 70
     0
 62
    -7
  6
CONTINUOUS
  0
ENDTAB
  0
TABLE
  2
STYLE
 70
     3
  0
STYLE
  2
STANDARD
 70
     0
 40
0.0
 41
0.8
 50
0.0
 71
     0
 42
20.0
  3
txt
  4

  0
STYLE
  2
TEXTSTYLE_1
 70
     0
 40
0.0
 41
0.8
 50
0.0
 71
     0
 42
0.2
  3
gdt
  4

  0
STYLE
  2

 70
     1
 40
0.0
 41
1.0
 50
0.0
 71
     0
 42
0.2
  3
ltypeshp.shx
  4

  0
ENDTAB
  0
TABLE
  2
VIEW
 70
     1
  0
ENDTAB
  0
TABLE
  2
UCS
 70
     0
  0
ENDTAB
  0
TABLE
  2
APPID
 70
    11
  0
APPID
  2
ACAD
 70
     0
  0
APPID
  2
ACAD_NAV_VCDISPLAY
 70
     0
  0
APPID
  2
ACAECLAYERSTANDARD
 70
     0
  0
APPID
  2
ACCMTRANSPARENCY
 70
     0
  0
APPID
  2
ACAD_DSTYLE_DIMJAG
 70
     0
  0
APPID
  2
ACAD_DSTYLE_DIMTALN
 70
     0
  0
APPID
  2
ACAD_EXEMPT_FROM_CAD_STANDARDS
 70
     0
  0
APPID
  2
GRADIENTCOLOR1ACI
 70
     0
  0
APPID
  2
GRADIENTCOLOR2ACI
 70
     0
  0
APPID
  2
ACAD_PSEXT
 70
     0
  0
APPID
  2
ACAD_MLEADERVER
 70
     0
  0
ENDTAB
  0
TABLE
  2
DIMSTYLE
 70
     2
  0
DIMSTYLE
  2
STANDARD
 70
     0
  3

  4

  5
_FILLED
  6

  7

 40
50.0
 41
4.0
 42
1.0
 43
0.38
 44
1.5
 45
0.0
 46
0.0
 47
0.01
 48
0.01
140
3.5
141
0.09
142
0.0
143
25.399999999999999
144
1.0
145
0.0
146
1.0
147
1.0
 71
     0
 72
     0
 73
     0
 74
     0
 75
     0
 76
     0
 77
     1
 78
     8
170
     0
171
     2
172
     0
173
     0
174
     0
175
     0
176
   256
177
   256
178
   256
  0
DIMSTYLE
  2
DIMSTYLE_1
 70
     0
  3

  4

  5
_FILLED
  6
_FILLED
  7
_FILLED
 40
1.0
 41
4.0
 42
1.0
 43
0.38
 44
1.5
 45
0.0
 46
0.0
 47
0.5
 48
0.5
140
3.5
141
0.09
142
0.0
143
25.399999999999999
144
5.0
145
0.0
146
1.0
147
0.875
 71
     0
 72
     0
 73
     0
 74
     0
 75
     0
 76
     0
 77
     1
 78
     8
170
     0
171
     2
172
     0
173
     0
174
     0
175
     0
176
     0
177
     0
178
     0
  0
ENDTAB
  0
ENDSEC
  0
SECTION
  2
BLOCKS
  0
BLOCK
  8
0
  2
$MODEL_SPACE
 70
     0
 10
0.0
 20
0.0
 30
0.0
  3
$MODEL_SPACE
  1

  0
ENDBLK
  5
21
  8
0
  0
BLOCK
 67
     1
  8
0
  2
$PAPER_SPACE
 70
     0
 10
0.0
 20
0.0
 30
0.0
  3
$PAPER_SPACE
  1

  0
ENDBLK
  5
1D
 67
     1
  8
0
  0
BLOCK
  8
0
  2
_FILLED
 70
     0
 10
0.0
 20
0.0
 30
0.0
  3
_FILLED
  1

  0
SOLID
  5
25A
  8
0
  6
BYBLOCK
 62
     0
 10
0.0
 20
0.0
 30
0.0
 11
-1.0
 21
0.1875
 31
0.0
 12
-1.0
 22
-0.1875
 32
0.0
 13
-1.0
 23
-0.1875
 33
0.0
  0
ENDBLK
  5
25B
  8
0
  6
BYBLOCK
 62
     0
  0
BLOCK
  8
0
  2
*D36
 70
     1
 10
0.0
 20
0.0
 30
0.0
  3
*D36
  1

  0
LINE
  5
2C42
  8
DIM
 10
454.80995928152691
 20
649.02206374621892
 30
0.0
 11
454.80995928152691
 21
74.172496765299002
 31
0.0
  0
LINE
  5
2C43
  8
DIM
 10
1704.809959281527
 20
649.02206374621892
 30
0.0
 11
1704.809959281527
 21
74.172496765299002
 31
0.0
  0
LINE
  5
2C44
  8
DIM
 10
654.80995928152686
 20
149.172496765299
 30
0.0
 11
1504.809959281527
 21
149.172496765299
 31
0.0
  0
INSERT
  5
2C45
  8
DIM
  2
_FILLED
 10
454.80995928152691
 20
149.172496765299
 30
0.0
 41
200.0
 42
200.0
 43
200.0
 50
180.0
  0
INSERT
  5
2C46
  8
DIM
  2
_FILLED
 10
1704.809959281527
 20
149.172496765299
 30
0.0
 41
200.0
 42
200.0
 43
200.0
  0
INSERT
  5
2C47
  8
DATUM
  2
*U83
 10
0.0
 20
0.0
 30
0.0
  0
POINT
  5
2C48
  8
DEFPOINTS
 62
     0
 10
454.80995928152691
 20
699.02206374621892
 30
0.0
  0
POINT
  5
2C49
  8
DEFPOINTS
 62
     0
 10
1704.809959281527
 20
699.02206374621892
 30
0.0
  0
POINT
  5
2C4A
  8
DEFPOINTS
 62
     0
 10
1704.809959281527
 20
149.172496765299
 30
0.0
  0
ENDBLK
  5
2B57
  8
0
  0
BLOCK
  8
0
  2
*D37
 70
     1
 10
0.0
 20
0.0
 30
0.0
  3
*D37
  1

  0
LINE
  5
2C4B
  8
DIM
 10
1724.809959281527
 20
649.02206374621892
 30
0.0
 11
1724.809959281527
 21
74.172496765299002
 31
0.0
  0
LINE
  5
2C4C
  8
DIM
 10
2974.809959281527
 20
649.02206374621892
 30
0.0
 11
2974.809959281527
 21
74.172496765299002
 31
0.0
  0
LINE
  5
2C4D
  8
DIM
 10
1924.809959281527
 20
149.172496765299
 30
0.0
 11
2774.809959281527
 21
149.172496765299
 31
0.0
  0
INSERT
  5
2C4E
  8
DIM
  2
_FILLED
 10
1724.809959281527
 20
149.172496765299
 30
0.0
 41
200.0
 42
200.0
 43
200.0
 50
180.0
  0
INSERT
  5
2C4F
  8
DIM
  2
_FILLED
 10
2974.809959281527
 20
149.172496765299
 30
0.0
 41
200.0
 42
200.0
 43
200.0
  0
INSERT
  5
2C50
  8
DATUM
  2
*U84
 10
0.0
 20
0.0
 30
0.0
  0
POINT
  5
2C51
  8
DEFPOINTS
 62
     0
 10
1724.809959281527
 20
699.02206374621892
 30
0.0
  0
POINT
  5
2C52
  8
DEFPOINTS
 62
     0
 10
2974.809959281527
 20
699.02206374621892
 30
0.0
  0
POINT
  5
2C53
  8
DEFPOINTS
 62
     0
 10
2974.809959281527
 20
149.172496765299
 30
0.0
  0
ENDBLK
  5
2B6F
  8
0
  0
BLOCK
  8
0
  2
*D38
 70
     1
 10
0.0
 20
0.0
 30
0.0
  3
*D38
  1

  0
LINE
  5
2C54
  8
DIM
 10
404.80995928152691
 20
1949.0220637462189
 30
0.0
 11
214.883192594338
 21
1949.0220637462189
 31
0.0
  0
LINE
  5
2C55
  8
DIM
 10
404.80995928152691
 20
699.02206374621892
 30
0.0
 11
214.88319259433769
 21
699.02206374621903
 31
0.0
  0
LINE
  5
2C56
  8
DIM
 10
289.88319259433803
 20
1749.0220637462189
 30
0.0
 11
289.8831925943378
 21
899.02206374621881
 31
0.0
  0
INSERT
  5
2C57
  8
DIM
  2
_FILLED
 10
289.88319259433803
 20
1949.0220637462189
 30
0.0
 41
200.0
 42
200.0
 43
200.0
 50
90.0
  0
INSERT
  5
2C58
  8
DIM
  2
_FILLED
 10
289.88319259433769
 20
699.02206374621892
 30
0.0
 41
200.0
 42
200.0
 43
200.0
 50
270.0
  0
INSERT
  5
2C59
  8
DATUM
  2
*U85
 10
0.0
 20
0.0
 30
0.0
  0
POINT
  5
2C5A
  8
DEFPOINTS
 62
     0
 10
454.80995928152691
 20
1949.0220637462189
 30
0.0
  0
POINT
  5
2C5B
  8
DEFPOINTS
 62
     0
 10
454.80995928152691
 20
699.02206374621892
 30
0.0
  0
POINT
  5
2C5C
  8
DEFPOINTS
 62
     0
 10
289.88319259433769
 20
699.02206374621892
 30
0.0
  0
ENDBLK
  5
2B90
  8
0
  0
BLOCK
  8
0
  2
*U39
 70
     1
 10
0.0
 20
0.0
 30
0.0
  3
*U39
  1

  0
TEXT
  5
2CBE
  8
DIM
 10
3969.3101028046858
 20
67.344960145273944
 30
0.0
 40
175.0
  1
2510
 41
0.8
  0
ENDBLK
  5
2CC0
  8
0
  0
BLOCK
  8
0
  2
*U40
 70
     1
 10
0.0
 20
0.0
 30
0.0
  3
*U40
  1

  0
TEXT
  5
2CC2
  8
DIM
 10
5366.5454859199654
 20
115.98377819723029
 30
0.0
 40
175.0
  1
85.73°
 50
184.26501912559121
 41
0.8
  0
ENDBLK
  5
2CC4
  8
0
  0
BLOCK
  8
0
  2
*U41
 70
     1
 10
0.0
 20
0.0
 30
0.0
  3
*U41
  1

  0
TEXT
  5
2CC6
  8
UITSLAG
 10
5620.5131728042506
 20
1286.6050731950011
 30
0.0
 40
175.0
  1
720
 50
90.0
 41
0.8
  0
ENDBLK
  5
2CC8
  8
0
  0
BLOCK
  8
0
  2
*U42
 70
     1
 10
0.0
 20
0.0
 30
0.0
  3
*U42
  1

  0
TEXT
  5
2CCA
  8
UITSLAG
 10
4247.9706120807787
 20
1274.9373734833839
 30
0.0
 40
175.0
  1
736
 50
90.0
 41
0.8
  0
ENDBLK
  5
2CCC
  8
0
  0
BLOCK
  8
0
  2
*U43
 70
     1
 10
0.0
 20
0.0
 30
0.0
  3
*U43
  1

  0
TEXT
  5
2CCE
  8
UITSLAG
 10
4082.7349735643038
 20
638.27070605866743
 30
0.0
 40
175.0
  1
368
 50
90.0
 41
0.8
  0
ENDBLK
  5
2CD0
  8
0
  0
BLOCK
  8
0
  2
*U44
 70
     1
 10
0.0
 20
0.0
 30
0.0
  3
*U44
  1

  0
TEXT
  5
2CD2
  8
UITSLAG
 10
4081.2349735643038
 20
270.43146428523778
 30
0.0
 40
175.0
  1
368
 50
90.0
 41
0.8
  0
ENDBLK
  5
2CD4
  8
0
  0
BLOCK
  8
0
  2
*U45
 70
     1
 10
0.0
 20
0.0
 30
0.0
  3
*U45
  1

  0
TEXT
  5
2CD6
  8
UITSLAG
 10
3862.4072171398288
 20
1273.0611811126189
 30
0.0
 40
175.0
  1
732
 50
90.0
 41
0.8
  0
ENDBLK
  5
2CD8
  8
0
  0
BLOCK
  8
0
  2
*U46
 70
     1
 10
0.0
 20
0.0
 30
0.0
  3
*U46
  1

  0
TEXT
  5
2CDA
  8
UITSLAG
 10
2803.959434765216
 20
293.4579455523338
 30
0.0
 40
175.0
  1
391
 50
90.0
 41
0.8
  0
ENDBLK
  5
2CDC
  8
0
  0
BLOCK
  8
0
  2
*U47
 70
     1
 10
0.0
 20
0.0
 30
0.0
  3
*U47
  1

  0
TEXT
  5
2CDE
  8
UITSLAG
 10
2699.2411707745769
 20
2043.9082770383011
 30
0.0
 40
175.0
  1
158
 50
90.0
 41
0.8
  0
ENDBLK
  5
2CE0
  8
0
  0
BLOCK
  8
0
  2
*U48
 70
     1
 10
0.0
 20
0.0
 30
0.0
  3
*U48
  1

  0
TEXT
  5
2CE2
  8
UITSLAG
 10
2549.8781036833529
 20
2534.9967141563752
 30
0.0
 40
175.0
  1
71
 50
90.0
 41
0.8
  0
ENDBLK
  5
2CE4
  8
0
  0
BLOCK
  8
0
  2
*U49
 70
     1
 10
0.0
 20
0.0
 30
0.0
  3
*U49
  1

  0
TEXT
  5
2CE6
  8
DIM
 10
-20.24349209962384
 20
2474.379468857835
 30
0.0
 40
120.0
  1
multimat deel 1 en 2:
 41
0.8
  0
TEXT
  5
2CE7
  8
DIM
 10
-20.24349209962384
 20
2274.379468857835
 30
0.0
 40
120.0
  1
1x snijden uit "Multimat S450/G500/S450"
 41
0.8
  0
ENDBLK
  5
2CE9
  8
0
  0
BLOCK
  8
0
  2
*U50
 70
     1
 10
0.0
 20
0.0
 30
0.0
  3
*U50
  1

  0
TEXT
  5
2CEB
  8
DIM
 10
26809.08783099466
 20
6266.0878216456331
 30
0.0
 40
175.0
  1
5052
 41
0.8
  0
ENDBLK
  5
2CED
  8
0
  0
BLOCK
  8
0
  2
*U51
 70
     1
 10
0.0
 20
0.0
 30
0.0
  3
*U51
  1

  0
TEXT
  5
2CEF
  8
DIM
 10
24201.960920637441
 20
7066.2761641792913
 30
0.0
 40
175.0
  1
1350
 50
90.0
 41
0.8
  0
ENDBLK
  5
2CF1
  8
0
  0
BLOCK
  8
0
  2
*U52
 70
     1
 10
0.0
 20
0.0
 30
0.0
  3
*U52
  1

  0
TEXT
  5
2CF3
  8
DIM
 10
24762.449622810851
 20
9556.6397100736285
 30
0.0
 40
175.0
  1
930
 41
0.8
  0
ENDBLK
  5
2CF5
  8
0
  0
BLOCK
  8
0
  2
*U53
 70
     1
 10
0.0
 20
0.0
 30
0.0
  3
*U53
  1

  0
TEXT
  5
2CF7
  8
DIM
 10
25679.449622810851
 20
9556.6397100736285
 30
0.0
 40
175.0
  1
904
 41
0.8
  0
ENDBLK
  5
2CF9
  8
0
  0
BLOCK
  8
0
  2
*U54
 70
     1
 10
0.0
 20
0.0
 30
0.0
  3
*U54
  1

  0
TEXT
  5
2CFB
  8
DIM
 10
26614.069029045291
 20
10162.06109506869
 30
0.0
 40
175.0
  1
1200
 50
90.0
 41
0.8
  0
ENDBLK
  5
2CFD
  8
0
  0
BLOCK
  8
0
  2
*U55
 70
     1
 10
0.0
 20
0.0
 30
0.0
  3
*U55
  1

  0
TEXT
  5
2D09
  8
DIM
 10
30224.9859006365
 20
10393.054781103219
 30
0.0
 40
175.0
  1
720
 50
90.0
 41
0.8
  0
ENDBLK
  5
2D0B
  8
0
  0
BLOCK
  8
0
  2
*U56
 70
     1
 10
0.0
 20
0.0
 30
0.0
  3
*U56
  1

  0
TEXT
  5
2D0D
  8
DIM
 10
31447.436993480769
 20
11103.054781103219
 30
0.0
 40
175.0
  1
445
 50
90.0
 41
0.8
  0
ENDBLK
  5
2D0F
  8
0
  0
BLOCK
  8
0
  2
*U57
 70
     1
 10
0.0
 20
0.0
 30
0.0
  3
*U57
  1

  0
TEXT
  5
2D11
  8
DIM
 10
31940.029906488711
 20
10468.80270639065
 30
0.0
 40
175.0
  1
895
 50
90.0
 41
0.8
  0
ENDBLK
  5
2D13
  8
0
  0
BLOCK
  8
0
  2
*U58
 70
     1
 10
0.0
 20
0.0
 30
0.0
  3
*U58
  1

  0
TEXT
  5
2D15
  8
DIM
 10
32873.020700131849
 20
9711.8014564376008
 30
0.0
 40
175.0
  1
350
 41
0.8
  0
ENDBLK
  5
2D17
  8
0
  0
BLOCK
  8
0
  2
*U59
 70
     1
 10
0.0
 20
0.0
 30
0.0
  3
*U59
  1

  0
TEXT
  5
2D19
  8
DIM
 10
32854.04620456777
 20
11552.883965011421
 30
0.0
 40
175.0
  1
159
 50
90.0
 41
0.8
  0
ENDBLK
  5
2D1B
  8
0
  0
BLOCK
  8
0
  2
*U60
 70
     1
 10
0.0
 20
0.0
 30
0.0
  3
*U60
  1

  0
TEXT
  5
2D1D
  8
DIM
 10
31725.089089236579
 20
11413.49132230883
 30
0.0
 40
175.0
  1
61
 41
0.8
  0
ENDBLK
  5
2D1F
  8
0
  0
BLOCK
  8
0
  2
*U61
 70
     1
 10
0.0
 20
0.0
 30
0.0
  3
*U61
  1

  0
TEXT
  5
2D21
  8
DIM
 10
32781.957170065361
 20
10312.38811443655
 30
0.0
 40
175.0
  1
582
 50
90.0
 41
0.8
  0
ENDBLK
  5
2D23
  8
0
  0
BLOCK
  8
0
  2
*U62
 70
     1
 10
0.0
 20
0.0
 30
0.0
  3
*U62
  1

  0
TEXT
  5
2D25
  8
DIM
 10
33023.020700131849
 20
10097.2452024658
 30
0.0
 40
175.0
  1
140
 41
0.8
  0
ENDBLK
  5
2D27
  8
0
  0
BLOCK
  8
0
  2
*U63
 70
     1
 10
0.0
 20
0.0
 30
0.0
  3
*U63
  1

  0
TEXT
  5
2D29
  8
DIM
 10
34240.484314212183
 20
10832.054781103219
 30
0.0
 40
175.0
  1
174
 50
90.0
 41
0.8
  0
ENDBLK
  5
2D2B
  8
0
  0
BLOCK
  8
0
  2
*U64
 70
     1
 10
0.0
 20
0.0
 30
0.0
  3
*U64
  1

  0
TEXT
  5
2D2F
  8
DIM
 10
6585.585172027274
 20
4936.3011262548453
 30
0.0
 40
175.0
  1
930
 41
0.8
  0
ENDBLK
  5
2D31
  8
0
  0
BLOCK
  8
0
  2
*U65
 70
     1
 10
0.0
 20
0.0
 30
0.0
  3
*U65
  1

  0
TEXT
  5
2D33
  8
DIM
 10
6091.7960756726534
 20
4007.2223904978291
 30
0.0
 40
175.0
  1
904
 50
90.0
 41
0.8
  0
ENDBLK
  5
2D35
  8
0
  0
BLOCK
  8
0
  2
*U66
 70
     1
 10
0.0
 20
0.0
 30
0.0
  3
*U66
  1

  0
TEXT
  5
2D37
  8
DIM
 10
6091.7960756726534
 20
5143.994354249322
 30
0.0
 40
175.0
  1
60
 50
90.0
 41
0.8
  0
ENDBLK
  5
2D39
  8
0
  0
BLOCK
  8
0
  2
*U67
 70
     1
 10
0.0
 20
0.0
 30
0.0
  3
*U67
  1

  0
TEXT
  5
2D3B
  8
DIM
 10
29085.735971196071
 20
-731.81257571207243
 30
0.0
 40
175.0
  1
10096
 41
0.8
  0
ENDBLK
  5
2D3D
  8
0
  0
BLOCK
  8
0
  2
*U68
 70
     1
 10
0.0
 20
0.0
 30
0.0
  3
*U68
  1

  0
TEXT
  5
2D3F
  8
DIM
 10
24070.058056268939
 20
63.511806237848802
 30
0.0
 40
175.0
  1
1249
 50
90.0
 41
0.8
  0
ENDBLK
  5
2D41
  8
0
  0
BLOCK
  8
0
  2
*U69
 70
     1
 10
0.0
 20
0.0
 30
0.0
  3
*U69
  1

  0
TEXT
  5
2D43
  8
DIM
 10
29108.6988421442
 20
-3211.8012955506342
 30
0.0
 40
175.0
  1
10096
 41
0.8
  0
ENDBLK
  5
2D45
  8
0
  0
BLOCK
  8
0
  2
*U70
 70
     1
 10
0.0
 20
0.0
 30
0.0
  3
*U70
  1

  0
TEXT
  5
2D47
  8
DIM
 10
24093.020927217069
 20
-2416.4769136007139
 30
0.0
 40
175.0
  1
1249
 50
90.0
 41
0.8
  0
ENDBLK
  5
2D49
  8
0
  0
BLOCK
  8
0
  2
*U71
 70
     1
 10
0.0
 20
0.0
 30
0.0
  3
*U71
  1

  0
TEXT
  5
2D4B
  8
DIM
 10
26867.526897096821
 20
3955.6642591883351
 30
0.0
 40
175.0
  1
5361
 41
0.8
  0
ENDBLK
  5
2D4D
  8
0
  0
BLOCK
  8
0
  2
*U72
 70
     1
 10
0.0
 20
0.0
 30
0.0
  3
*U72
  1

  0
TEXT
  5
2D4F
  8
DIM
 10
24094.35635842699
 20
4755.8526017219929
 30
0.0
 40
175.0
  1
1350
 50
90.0
 41
0.8
  0
ENDBLK
  5
2D51
  8
0
  0
BLOCK
  8
0
  2
*U73
 70
     1
 10
0.0
 20
0.0
 30
0.0
  3
*U73
  1

  0
TEXT
  5
2D53
  8
DIM
 10
34282.557955852237
 20
-7048.9230870379843
 30
0.0
 40
175.0
  1
2534
 41
0.8
  0
ENDBLK
  5
2D55
  8
0
  0
BLOCK
  8
0
  2
*U74
 70
     1
 10
0.0
 20
0.0
 30
0.0
  3
*U74
  1

  0
TEXT
  5
2D57
  8
DIM
 10
32808.319861390228
 20
-6379.613984832441
 30
0.0
 40
175.0
  1
998
 50
90.0
 41
0.8
  0
ENDBLK
  5
2D59
  8
0
  0
BLOCK
  8
0
  2
*U75
 70
     1
 10
0.0
 20
0.0
 30
0.0
  3
*U75
  1

  0
TEXT
  5
2D65
  8
DIM
 10
1329.4063607881251
 20
2070.1086845635732
 30
0.0
 40
120.0
  1
laag 15
 41
0.8
  0
LINE
  5
2D66
  8
DIM
  6
BYBLOCK
 10
1258.6063607881219
 20
2110.1086845635732
 30
0.0
 11
1269.4063607881219
 21
2110.1086845635732
 31
0.0
  0
POLYLINE
  5
2D67
  8
DIM
  6
BYBLOCK
 66
     1
 10
0.0
 20
0.0
 30
0.0
  0
VERTEX
  5
2D68
  8
DIM
  6
BYBLOCK
 10
1219.7122519469269
 20
1956.5163846323171
 30
0.0
  0
VERTEX
  5
2D69
  8
DIM
  6
BYBLOCK
 10
1258.6063607881219
 20
2110.1086845635732
 30
0.0
  0
SEQEND
  5
2D6A
  8
DIM
  6
BYBLOCK
  0
SOLID
  5
2D6B
  8
DIM
 10
1239.10027961126
 20
1951.6067631309129
 30
0.0
 11
1190.2545229384989
 21
1840.188218646319
 31
0.0
 12
1200.3242242825941
 22
1961.426006133722
 32
0.0
 13
1200.3242242825941
 23
1961.426006133722
 33
0.0
  0
ENDBLK
  5
2D6D
  8
0
  0
BLOCK
  8
0
  2
*U76
 70
     1
 10
0.0
 20
0.0
 30
0.0
  3
*U76
  1

  0
TEXT
  5
2D6F
  8
DIM
 10
2694.7716453699359
 20
2104.32301931964
 30
0.0
 40
120.0
  1
laag 8b
 41
0.8
  0
LINE
  5
2D70
  8
DIM
  6
BYBLOCK
 10
2623.9716453699371
 20
2144.32301931964
 30
0.0
 11
2634.7716453699368
 21
2144.32301931964
 31
0.0
  0
POLYLINE
  5
2D71
  8
DIM
  6
BYBLOCK
 66
     1
 10
0.0
 20
0.0
 30
0.0
  0
VERTEX
  5
2D72
  8
DIM
  6
BYBLOCK
 10
2467.0498605887369
 20
1969.8317709461769
 30
0.0
  0
VERTEX
  5
2D73
  8
DIM
  6
BYBLOCK
 10
2623.9716453699371
 20
2144.32301931964
 30
0.0
  0
SEQEND
  5
2D74
  8
DIM
  6
BYBLOCK
  0
SOLID
  5
2D75
  8
DIM
 10
2481.9208420258142
 20
1956.4581434989159
 30
0.0
 11
2386.8080959051731
 21
1880.6058823237181
 31
0.0
 12
2452.178879151661
 22
1983.2053983934379
 32
0.0
 13
2452.178879151661
 23
1983.2053983934379
 33
0.0
  0
POLYLINE
  5
2D76
  8
DIM
  6
BYBLOCK
 66
     1
 10
0.0
 20
0.0
 30
0.0
  0
VERTEX
  5
2D77
  8
DIM
  6
BYBLOCK
 10
1650.539494632073
 20
1604.7375826780469
 30
0.0
  0
VERTEX
  5
2D78
  8
DIM
  6
BYBLOCK
 10
2623.9716453699371
 20
2144.32301931964
 30
0.0
  0
SEQEND
  5
2D79
  8
DIM
  6
BYBLOCK
  0
SOLID
  5
2D7A
  8
DIM
 10
1660.235730811796
 20
1587.2452128000971
 30
0.0
 11
1545.5852753643701
 21
1546.5601655997091
 31
0.0
 12
1640.84325845235
 22
1622.2299525559979
 32
0.0
 13
1640.84325845235
 23
1622.2299525559979
 33
0.0
  0
POLYLINE
  5
2D7B
  8
DIM
  6
BYBLOCK
 66
     1
 10
0.0
 20
0.0
 30
0.0
  0
VERTEX
  5
2D7C
  8
DIM
  6
BYBLOCK
 10
1754.7845731828361
 20
1339.5171227065059
 30
0.0
  0
VERTEX
  5
2D7D
  8
DIM
  6
BYBLOCK
 10
2623.9716453699371
 20
2144.32301931964
 30
0.0
  0
SEQEND
  5
2D7E
  8
DIM
  6
BYBLOCK
  0
SOLID
  5
2D7F
  8
DIM
 10
1768.3727615563989
 20
1324.841934914708
 30
0.0
 11
1666.733446432045
 21
1257.987992465125
 31
0.0
 12
1741.1963848092721
 22
1354.192310498305
 32
0.0
 13
1741.1963848092721
 23
1354.192310498305
 33
0.0
  0
ENDBLK
  5
2D81
  8
0
  0
BLOCK
  8
0
  2
*U77
 70
     1
 10
0.0
 20
0.0
 30
0.0
  3
*U77
  1

  0
TEXT
  5
2D83
  8
DIM
 10
2253.2323106285812
 20
450.16349081092352
 30
0.0
 40
120.0
  1
laag 1
 41
0.8
  0
LINE
  5
2D84
  8
DIM
  6
BYBLOCK
 10
2182.432310628581
 20
490.16349081092358
 30
0.0
 11
2193.2323106285821
 21
490.16349081092358
 31
0.0
  0
POLYLINE
  5
2D85
  8
DIM
  6
BYBLOCK
 66
     1
 10
0.0
 20
0.0
 30
0.0
  0
VERTEX
  5
2D86
  8
DIM
  6
BYBLOCK
 10
2002.780252988777
 20
710.09119482327264
 30
0.0
  0
VERTEX
  5
2D87
  8
DIM
  6
BYBLOCK
 10
2182.432310628581
 20
490.16349081092358
 30
0.0
  0
SEQEND
  5
2D88
  8
DIM
  6
BYBLOCK
  0
SOLID
  5
2D89
  8
DIM
 10
1987.2911436592469
 20
697.43862622326697
 30
0.0
 11
1926.864841388742
 21
803.02585080045526
 31
0.0
 12
2018.2693623183079
 22
722.74376342327855
 32
0.0
 13
2018.2693623183079
 23
722.74376342327855
 33
0.0
  0
POLYLINE
  5
2D8A
  8
DIM
  6
BYBLOCK
 66
     1
 10
0.0
 20
0.0
 30
0.0
  0
VERTEX
  5
2D8B
  8
DIM
  6
BYBLOCK
 10
1946.213067231359
 20
660.84030678211798
 30
0.0
  0
VERTEX
  5
2D8C
  8
DIM
  6
BYBLOCK
 10
2182.432310628581
 20
490.16349081092358
 30
0.0
  0
SEQEND
  5
2D8D
  8
DIM
  6
BYBLOCK
  0
SOLID
  5
2D8E
  8
DIM
 10
1934.499917532343
 20
644.62913396432259
 30
0.0
 11
1848.9460303245869
 21
731.11920497621747
 31
0.0
 12
1957.9262169303761
 22
677.05147959991336
 32
0.0
 13
1957.9262169303761
 23
677.05147959991336
 33
0.0
  0
POLYLINE
  5
2D8F
  8
DIM
  6
BYBLOCK
 66
     1
 10
0.0
 20
0.0
 30
0.0
  0
VERTEX
  5
2D90
  8
DIM
  6
BYBLOCK
 10
1517.5074732308749
 20
760.52316237376886
 30
0.0
  0
VERTEX
  5
2D91
  8
DIM
  6
BYBLOCK
 10
2182.432310628581
 20
490.16349081092358
 30
0.0
  0
SEQEND
  5
2D92
  8
DIM
  6
BYBLOCK
  0
SOLID
  5
2D93
  8
DIM
 10
1509.9743372717569
 20
741.99610479245143
 30
0.0
 11
1406.3451277429699
 21
805.72197812847287
 31
0.0
 12
1525.040609189992
 22
779.05021995508628
 32
0.0
 13
1525.040609189992
 23
779.05021995508628
 33
0.0
  0
POLYLINE
  5
2D94
  8
DIM
  6
BYBLOCK
 66
     1
 10
0.0
 20
0.0
 30
0.0
  0
VERTEX
  5
2D95
  8
DIM
  6
BYBLOCK
 10
1471.6515794944589
 20
697.33570717480166
 30
0.0
  0
VERTEX
  5
2D96
  8
DIM
  6
BYBLOCK
 10
2182.432310628581
 20
490.16349081092358
 30
0.0
  0
SEQEND
  5
2D97
  8
DIM
  6
BYBLOCK
  0
SOLID
  5
2D98
  8
DIM
 10
1466.0550359123729
 20
678.13469939047388
 30
0.0
 11
1356.445532788493
 21
730.91496866731904
 31
0.0
 12
1477.248123076545
 22
716.5367149591292
 32
0.0
 13
1477.248123076545
 23
716.5367149591292
 33
0.0
  0
ENDBLK
  5
2D9A
  8
0
  0
BLOCK
  8
0
  2
*U78
 70
     1
 10
0.0
 20
0.0
 30
0.0
  3
*U78
  1

  0
TEXT
  5
2D9C
  8
DIM
 10
833.85777010774473
 20
595.32388596053352
 30
0.0
 40
60.0
  1
deel 1
 41
0.8
  0
ENDBLK
  5
2D9E
  8
0
  0
BLOCK
  8
0
  2
*U79
 70
     1
 10
0.0
 20
0.0
 30
0.0
  3
*U79
  1

  0
TEXT
  5
2DA0
  8
DIM
 10
2281.4456296793942
 20
618.07698972494109
 30
0.0
 40
60.0
  1
deel 2
 41
0.8
  0
ENDBLK
  5
2DA2
  8
0
  0
BLOCK
  8
0
  2
*X80
 70
     1
 10
0.0
 20
0.0
 30
0.0
  3
*X80
  1

  0
LINE
  5
2DA4
  8
0
 62
     0
 10
2951.4144501026458
 20
720.64661951933704
 30
0.0
 11
2974.8099592815252
 21
744.04212869821629
 31
0.0
  0
LINE
  5
2DA5
  8
0
 62
     0
 10
2883.6255114759851
 20
720.20960180069414
 30
0.0
 11
2919.096316710295
 21
755.68040703500628
 31
0.0
  0
LINE
  5
2DA6
  8
0
 62
     0
 10
2815.8365728493191
 20
719.77258408204762
 30
0.0
 11
2851.7443958022759
 21
755.68040703500628
 31
0.0
  0
LINE
  5
2DA7
  8
0
 62
     0
 10
2748.047634222658
 20
719.33556636340472
 30
0.0
 11
2784.3924748942582
 21
755.68040703500628
 31
0.0
  0
LINE
  5
2DA8
  8
0
 62
     0
 10
2680.258695595996
 20
718.89854864476365
 30
0.0
 11
2717.040553986239
 21
755.68040703500628
 31
0.0
  0
LINE
  5
2DA9
  8
0
 62
     0
 10
2677.6357484067289
 20
783.62752236351287
 30
0.0
 11
2707.616805229356
 21
813.60857918614056
 31
0.0
  0
LINE
  5
2DAA
  8
0
 62
     0
 10
2612.4697569693358
 20
718.46153092612064
 30
0.0
 11
2649.6886330782199
 21
755.68040703500628
 31
0.0
  0
LINE
  5
2DAB
  8
0
 62
     0
 10
2610.28382747968
 20
783.62752234448271
 30
0.0
 11
2640.6999356833639
 21
814.04363054816713
 31
0.0
  0
LINE
  5
2DAC
  8
0
 62
     0
 10
2544.680818342671
 20
718.02451320747423
 30
0.0
 11
2582.3367121702022
 21
755.68040703500628
 31
0.0
  0
LINE
  5
2DAD
  8
0
 62
     0
 10
2542.9319065526311
 20
783.62752232545245
 30
0.0
 11
2573.7830661373719
 21
814.47868191019359
 31
0.0
  0
LINE
  5
2DAE
  8
0
 62
     0
 10
2476.89187971601
 20
717.58749548883134
 30
0.0
 11
2514.9847912621831
 21
755.68040703500628
 31
0.0
  0
LINE
  5
2DAF
  8
0
 62
     0
 10
2475.5799856255821
 20
783.62752230642207
 30
0.0
 11
2506.8661965913798
 21
814.91373327222027
 31
0.0
  0
LINE
  5
2DB0
  8
0
 62
     0
 10
2409.102941089348
 20
717.15047777018844
 30
0.0
 11
2447.632870354164
 21
755.68040703500628
 31
0.0
  0
LINE
  5
2DB1
  8
0
 62
     0
 10
2408.228064698535
 20
783.62752228739373
 30
0.0
 11
2439.9493270453859
 21
815.34878463424502
 31
0.0
  0
LINE
  5
2DB2
  8
0
 62
     0
 10
2341.3140024626869
 20
716.71346005154726
 30
0.0
 11
2380.2809494461449
 21
755.68040703500628
 31
0.0
  0
LINE
  5
2DB3
  8
0
 62
     0
 10
2814.0589491859159
 20
1256.8103276827931
 30
0.0
 11
2873.6477702859561
 21
1316.399148782833
 31
0.0
  0
LINE
  5
2DB4
  8
0
 62
     0
 10
2340.8761437714838
 20
783.62752226836335
 30
0.0
 11
2373.032457499392
 21
815.78383599626966
 31
0.0
  0
LINE
  5
2DB5
  8
0
 62
     0
 10
2889.53233593503
 20
1332.2837144319069
 30
0.0
 11
2929.5323527554428
 21
1372.2837312523211
 31
0.0
  0
LINE
  5
2DB6
  8
0
 62
     0
 10
2273.5250638360271
 20
716.27644233290437
 30
0.0
 11
2312.9290285381262
 21
755.68040703500628
 31
0.0
  0
LINE
  5
2DB7
  8
0
 62
     0
 10
2618.0567040336282
 20
1128.1600034385251
 30
0.0
 11
2639.5585777051888
 21
1149.661877110085
 31
0.0
  0
LINE
  5
2DB8
  8
0
 62
     0
 10
2732.2887329343848
 20
1242.3920323392811
 30
0.0
 11
2863.5519711982979
 21
1373.6552706031939
 31
0.0
  0
LINE
  5
2DB9
  8
0
 62
     0
 10
2273.5242228444331
 20
783.62752224932945
 30
0.0
 11
2306.1155879534022
 21
816.21888735829816
 31
0.0
  0
LINE
  5
2DBA
  8
0
 62
     0
 10
2889.5322557234131
 20
1399.63555512831
 30
0.0
 11
2929.5323527554428
 21
1439.6356521603391
 31
0.0
  0
LINE
  5
2DBB
  8
0
 62
     0
 10
2205.7361252093651
 20
715.83942461426147
 30
0.0
 11
2245.577107630108
 21
755.68040703500628
 31
0.0
  0
LINE
  5
2DBC
  8
0
 62
     0
 10
2550.70478312561
 20
1128.1600034385251
 30
0.0
 11
2639.5585777051888
 21
1217.0137980181039
 31
0.0
  0
LINE
  5
2DBD
  8
0
 62
     0
 10
2814.1990162588631
 20
1391.654236571778
 30
0.0
 11
2853.456172110637
 21
1430.911392423551
 31
0.0
  0
LINE
  5
2DBE
  8
0
 62
     0
 10
2206.1723019173819
 20
783.62752223029736
 30
0.0
 11
2239.1987184074078
 21
816.65393872032291
 31
0.0
  0
LINE
  5
2DBF
  8
0
 62
     0
 10
2889.5321755117948
 20
1466.9873958247099
 30
0.0
 11
2929.5323527554428
 21
1506.987573068358
 31
0.0
  0
LINE
  5
2DC0
  8
0
 62
     0
 10
2137.9471865827031
 20
715.4024068956187
 30
0.0
 11
2178.2251867220889
 21
755.68040703500628
 31
0.0
  0
LINE
  5
2DC1
  8
0
 62
     0
 10
2483.3528622175909
 20
1128.1600034385251
 30
0.0
 11
2639.5585777051888
 21
1284.365718926123
 31
0.0
  0
LINE
  5
2DC2
  8
0
 62
     0
 10
2808.8316534224382
 20
1453.6387946433711
 30
0.0
 11
2843.360373022977
 21
1488.167514243911
 31
0.0
  0
LINE
  5
2DC3
  8
0
 62
     0
 10
2138.820380990333
 20
783.62752221126709
 30
0.0
 11
2172.2818488614139
 21
817.08899008234755
 31
0.0
  0
LINE
  5
2DC4
  8
0
 62
     0
 10
2889.532095300176
 20
1534.3392365211089
 30
0.0
 11
2929.5323527554428
 21
1574.3394939763759
 31
0.0
  0
LINE
  5
2DC5
  8
0
 62
     0
 10
2070.158247956042
 20
714.9653891769758
 30
0.0
 11
2110.8732658140698
 21
755.68040703500628
 31
0.0
  0
LINE
  5
2DC6
  8
0
 62
     0
 10
2488.335245454417
 20
1200.494307583371
 30
0.0
 11
2490.4802791859788
 21
1202.6393413149301
 31
0.0
  0
LINE
  5
2DC7
  8
0
 62
     0
 10
2599.5580878669371
 20
1311.717149995889
 30
0.0
 11
2639.5585777051888
 21
1351.7176398341419
 31
0.0
  0
LINE
  5
2DC8
  8
0
 62
     0
 10
2416.0009413095722
 20
1128.1600034385251
 30
0.0
 11
2456.0009413095722
 21
1168.160003438524
 31
0.0
  0
LINE
  5
2DC9
  8
0
 62
     0
 10
2798.7358543347782
 20
1510.8949164637311
 30
0.0
 11
2833.2645739353161
 21
1545.4236360642681
 31
0.0
  0
LINE
  5
2DCA
  8
0
 62
     0
 10
2071.468460063285
 20
783.62752219223694
 30
0.0
 11
2105.36497931542
 21
817.52404144437241
 31
0.0
  0
LINE
  5
2DCB
  8
0
 62
     0
 10
2889.5320150885582
 20
1601.6910772175099
 30
0.0
 11
2929.5323527554428
 21
1641.691414884395
 31
0.0
  0
LINE
  5
2DCC
  8
0
 62
     0
 10
2002.3693093293809
 20
714.52837145833291
 30
0.0
 11
2043.52134490605
 21
755.68040703500264
 31
0.0
  0
LINE
  5
2DCD
  8
0
 62
     0
 10
2431.0791236340579
 20
1210.590106671028
 30
0.0
 11
2504.898574529489
 21
1284.4095575664601
 31
0.0
  0
LINE
  5
2DCE
  8
0
 62
     0
 10
2599.5581680787468
 20
1379.0691511157179
 30
0.0
 11
2639.5585777051888
 21
1419.0695607421601
 31
0.0
  0
LINE
  5
2DCF
  8
0
 62
     0
 10
2348.649020401554
 20
1128.1600034385251
 30
0.0
 11
2388.649020401554
 21
1168.160003438524
 31
0.0
  0
LINE
  5
2DD0
  8
0
 62
     0
 10
2788.6400552471191
 20
1568.15103828409
 30
0.0
 11
2823.1687748476561
 21
1602.679757884627
 31
0.0
  0
LINE
  5
2DD1
  8
0
 62
     0
 10
2004.116539136237
 20
783.62752217320838
 30
0.0
 11
2038.4481097694299
 21
817.9590928064008
 31
0.0
  0
LINE
  5
2DD2
  8
0
 62
     0
 10
2889.5319348769408
 20
1669.0429179139121
 30
0.0
 11
2929.5323527554428
 21
1709.0433357924139
 31
0.0
  0
LINE
  5
2DD3
  8
0
 62
     0
 10
1934.5803707027189
 20
714.09135373969002
 30
0.0
 11
1976.1694239980311
 21
755.68040703500264
 31
0.0
  0
LINE
  5
2DD4
  8
0
 62
     0
 10
2373.8230018137019
 20
1220.685905758691
 30
0.0
 11
2519.316869873001
 21
1366.1797738179901
 31
0.0
  0
LINE
  5
2DD5
  8
0
 62
     0
 10
2599.5582482905561
 20
1446.4211522355449
 30
0.0
 11
2639.5585777051888
 21
1486.421481650179
 31
0.0
  0
LINE
  5
2DD6
  8
0
 62
     0
 10
2281.2970994935349
 20
1128.1600034385251
 30
0.0
 11
2321.2970994935349
 21
1168.160003438524
 31
0.0
  0
LINE
  5
2DD7
  8
0
 62
     0
 10
2778.5442561594591
 20
1625.4071601044491
 30
0.0
 11
2813.072975759997
 21
1659.9358797049861
 31
0.0
  0
LINE
  5
2DD8
  8
0
 62
     0
 10
1936.7646182091869
 20
783.6275221541764
 30
0.0
 11
1971.5312402234381
 21
818.39414416842726
 31
0.0
  0
LINE
  5
2DD9
  8
0
 62
     0
 10
2889.5318546653239
 20
1736.3947586103129
 30
0.0
 11
2929.5323527554428
 21
1776.395256700433
 31
0.0
  0
LINE
  5
2DDA
  8
0
 62
     0
 10
1866.7914320760569
 20
713.65433602104713
 30
0.0
 11
1908.8175030900129
 21
755.68040703500264
 31
0.0
  0
LINE
  5
2DDB
  8
0
 62
     0
 10
2484.4230431436431
 20
1398.637867996651
 30
0.0
 11
2533.7351652165071
 21
1447.949990069515
 31
0.0
  0
LINE
  5
2DDC
  8
0
 62
     0
 10
2323.98975239631
 20
1238.2045772493179
 30
0.0
 11
2352.938945810823
 21
1267.1537706638319
 31
0.0
  0
LINE
  5
2DDD
  8
0
 62
     0
 10
2599.5583285023631
 20
1513.7731533553699
 30
0.0
 11
2639.5585777051888
 21
1553.7734025581969
 31
0.0
  0
LINE
  5
2DDE
  8
0
 62
     0
 10
2213.9451785855181
 20
1128.160003438526
 30
0.0
 11
2253.9451785855158
 21
1168.160003438524
 31
0.0
  0
LINE
  5
2DDF
  8
0
 62
     0
 10
2767.51661075315
 20
1681.7314356061579
 30
0.0
 11
2802.977176672337
 21
1717.1920015253449
 31
0.0
  0
LINE
  5
2DE0
  8
0
 62
     0
 10
1869.4126972821371
 20
783.62752213514614
 30
0.0
 11
1904.614370677444
 21
818.82919553045213
 31
0.0
  0
LINE
  5
2DE1
  8
0
 62
     0
 10
2879.28744368653
 20
1793.5022685395379
 30
0.0
 11
2929.5323527554428
 21
1843.747177608451
 31
0.0
  0
LINE
  5
2DE2
  8
0
 62
     0
 10
1799.0024934493961
 20
713.21731830240424
 30
0.0
 11
1841.465582181994
 21
755.68040703500264
 31
0.0
  0
LINE
  5
2DE3
  8
0
 62
     0
 10
2349.5848026549411
 20
1331.1515484159679
 30
0.0
 11
2389.5848657703318
 21
1371.1516115313591
 31
0.0
  0
LINE
  5
2DE4
  8
0
 62
     0
 10
2336.5932576682062
 20
1318.160003429233
 30
0.0
 11
2349.5848026549411
 21
1331.1515484159679
 31
0.0
  0
LINE
  5
2DE5
  8
0
 62
     0
 10
2498.8413384871528
 20
1480.4080842481801
 30
0.0
 11
2548.1534605600182
 21
1529.7202063210441
 31
0.0
  0
LINE
  5
2DE6
  8
0
 62
     0
 10
2278.319614060787
 20
1259.886359821814
 30
0.0
 11
2301.7917430166872
 21
1283.358488777714
 31
0.0
  0
LINE
  5
2DE7
  8
0
 62
     0
 10
2599.5584087141742
 20
1581.125154475201
 30
0.0
 11
2639.5585777051888
 21
1621.1253234662161
 31
0.0
  0
LINE
  5
2DE8
  8
0
 62
     0
 10
2146.593257677499
 20
1128.160003438526
 30
0.0
 11
2192.1428720022159
 21
1173.7096177632429
 31
0.0
  0
LINE
  5
2DE9
  8
0
 62
     0
 10
2743.8828945313621
 20
1725.4496402923901
 30
0.0
 11
2792.8813775846779
 21
1774.4481233457041
 31
0.0
  0
LINE
  5
2DEA
  8
0
 62
     0
 10
1802.060776355089
 20
783.62752211611587
 30
0.0
 11
1837.697501131453
 21
819.26424689248051
 31
0.0
  0
LINE
  5
2DEB
  8
0
 62
     0
 10
2852.3750259958292
 20
1833.941771756856
 30
0.0
 11
2929.5323527554428
 21
1911.0990985164699
 31
0.0
  0
LINE
  5
2DEC
  8
0
 62
     0
 10
1731.213554822732
 20
712.78030058375953
 30
0.0
 11
1774.1136612739749
 21
755.68040703500264
 31
0.0
  0
LINE
  5
2DED
  8
0
 62
     0
 10
2349.5848026549411
 20
1398.503469323987
 30
0.0
 11
2389.5849459895949
 21
1438.5036126586399
 31
0.0
  0
LINE
  5
2DEE
  8
0
 62
     0
 10
2513.2596338306612
 20
1562.1783004997069
 30
0.0
 11
2562.5717559035302
 21
1611.490422572575
 31
0.0
  0
LINE
  5
2DEF
  8
0
 62
     0
 10
2309.584754608582
 20
1358.5034212776279
 30
0.0
 11
2349.5848026549411
 21
1398.503469323987
 31
0.0
  0
LINE
  5
2DF0
  8
0
 62
     0
 10
2599.5584889259808
 20
1648.477155595026
 30
0.0
 11
2639.5585777051888
 21
1688.4772443742349
 31
0.0
  0
LINE
  5
2DF1
  8
0
 62
     0
 10
2196.5493978092541
 20
1245.4680644783
 30
0.0
 11
2291.6959439290281
 21
1340.6146105980731
 31
0.0
  0
LINE
  5
2DF2
  8
0
 62
     0
 10
2707.26765739035
 20
1756.186324059395
 30
0.0
 11
2782.7855784970179
 21
1831.7042451660629
 31
0.0
  0
LINE
  5
2DF3
  8
0
 62
     0
 10
2079.2413367694812
 20
1128.160003438526
 30
0.0
 11
2148.0653524762279
 21
1196.9840191452729
 31
0.0
  0
LINE
  5
2DF4
  8
0
 62
     0
 10
2812.6925769414238
 20
1861.61124361047
 30
0.0
 11
2864.1043367694788
 21
1913.023003438524
 31
0.0
  0
LINE
  5
2DF5
  8
0
 62
     0
 10
1734.7088554280381
 20
783.62752209708367
 30
0.0
 11
1770.7806315854591
 21
819.69929825450527
 31
0.0
  0
LINE
  5
2DF6
  8
0
 62
     0
 10
2349.5848026549411
 20
1465.855390232005
 30
0.0
 11
2389.5850262088552
 21
1505.8556137859191
 31
0.0
  0
LINE
  5
2DF7
  8
0
 62
     0
 10
2523.631600297238
 20
1639.9021878743019
 30
0.0
 11
2576.9900512470399
 21
1693.260638824104
 31
0.0
  0
LINE
  5
2DF8
  8
0
 62
     0
 10
2309.584674396961
 20
1425.855261974026
 30
0.0
 11
2349.5848026549411
 21
1465.855390232005
 31
0.0
  0
LINE
  5
2DF9
  8
0
 62
     0
 10
2599.5585691377878
 20
1715.8291567148519
 30
0.0
 11
2606.752415884921
 21
1723.0230034619849
 31
0.0
  0
LINE
  5
2DFA
  8
0
 62
     0
 10
2219.9012901711721
 20
1336.1718777482361
 30
0.0
 11
2281.6001448413681
 21
1397.870732418432
 31
0.0
  0
LINE
  5
2DFB
  8
0
 62
     0
 10
2656.0793187289969
 20
1772.349906306061
 30
0.0
 11
2711.3178963310002
 21
1827.5884839080641
 31
0.0
  0
LINE
  5
2DFC
  8
0
 62
     0
 10
2134.7348256844448
 20
1251.0054132615089
 30
0.0
 11
2174.4495732030159
 21
1290.7201607800801
 31
0.0
  0
LINE
  5
2DFD
  8
0
 62
     0
 10
2756.7524158614601
 20
1873.023003438524
 30
0.0
 11
2796.7524158614601
 21
1913.023003438524
 31
0.0
  0
LINE
  5
2DFE
  8
0
 62
     0
 10
2059.6110276046879
 20
1175.8816151817521
 30
0.0
 11
2117.012128729159
 21
1233.2827163062229
 31
0.0
  0
LINE
  5
2DFF
  8
0
 62
     0
 10
2349.5848026549411
 20
1533.2073111400241
 30
0.0
 11
2389.5851064281178
 21
1573.207614913201
 31
0.0
  0
LINE
  5
2E00
  8
0
 62
     0
 10
2509.3321154212458
 20
1692.9546239063291
 30
0.0
 11
2588.1635512228818
 21
1771.786059707965
 31
0.0
  0
LINE
  5
2E01
  8
0
 62
     0
 10
2309.5845941853481
 20
1493.2071026704309
 30
0.0
 11
2349.5848026549411
 21
1533.2073111400241
 31
0.0
  0
LINE
  5
2E02
  8
0
 62
     0
 10
2615.7286611617292
 20
1799.351169646812
 30
0.0
 11
2629.54768007947
 21
1813.1701885645541
 31
0.0
  0
LINE
  5
2E03
  8
0
 62
     0
 10
2236.9014776502941
 20
1420.5239861353759
 30
0.0
 11
2271.5043457537099
 21
1455.1268542387929
 31
0.0
  0
LINE
  5
2E04
  8
0
 62
     0
 10
2689.400494953441
 20
1873.023003438524
 30
0.0
 11
2729.400494953441
 21
1913.023003438524
 31
0.0
  0
LINE
  5
2E05
  8
0
 62
     0
 10
2059.6110276046879
 20
1243.23353608977
 30
0.0
 11
2100.396403733328
 21
1284.0189122184111
 31
0.0
  0
LINE
  5
2E06
  8
0
 62
     0
 10
2309.584513973728
 20
1560.5589433668299
 30
0.0
 11
2349.5848026549411
 21
1600.559232048043
 31
0.0
  0
LINE
  5
2E07
  8
0
 62
     0
 10
2349.5848026549411
 20
1600.559232048043
 30
0.0
 11
2389.5851866473822
 21
1640.5596160404839
 31
0.0
  0
LINE
  5
2E08
  8
0
 62
     0
 10
2226.8798270655079
 20
1477.854256458611
 30
0.0
 11
2261.408546666049
 21
1512.38297605915
 31
0.0
  0
LINE
  5
2E09
  8
0
 62
     0
 10
2479.851290332901
 20
1730.825719726002
 30
0.0
 11
2530.9074294025249
 21
1781.8818587956259
 31
0.0
  0
LINE
  5
2E0A
  8
0
 62
     0
 10
2059.6110276046879
 20
1310.5854569977889
 30
0.0
 11
2099.6114711940299
 21
1350.5859005871309
 31
0.0
  0
LINE
  5
2E0B
  8
0
 62
     0
 10
2622.0485740454219
 20
1873.023003438524
 30
0.0
 11
2662.0485740454228
 21
1913.023003438524
 31
0.0
  0
LINE
  5
2E0C
  8
0
 62
     0
 10
1974.6828344245459
 20
1225.6572638176469
 30
0.0
 11
2014.7064625301341
 21
1265.6808919232351
 31
0.0
  0
LINE
  5
2E0D
  8
0
 62
     0
 10
2309.5844337621111
 20
1627.910784063233
 30
0.0
 11
2349.5848026549411
 21
1667.911152956061
 31
0.0
  0
LINE
  5
2E0E
  8
0
 62
     0
 10
2349.5848026549411
 20
1667.911152956061
 30
0.0
 11
2389.5852668666448
 21
1707.9116171677649
 31
0.0
  0
LINE
  5
2E0F
  8
0
 62
     0
 10
2216.7840279778488
 20
1535.1103782789689
 30
0.0
 11
2251.3127475783899
 21
1569.63909787951
 31
0.0
  0
LINE
  5
2E10
  8
0
 62
     0
 10
2437.5185882893588
 20
1755.8449385904789
 30
0.0
 11
2473.6513075821631
 21
1791.9776578832821
 31
0.0
  0
LINE
  5
2E11
  8
0
 62
     0
 10
2059.6110276046879
 20
1377.937377905808
 30
0.0
 11
2099.6113909749579
 21
1417.937741276078
 31
0.0
  0
LINE
  5
2E12
  8
0
 62
     0
 10
2554.6966531374042
 20
1873.023003438524
 30
0.0
 11
2594.6966531374042
 21
1913.023003438524
 31
0.0
  0
LINE
  5
2E13
  8
0
 62
     0
 10
1907.3309135165271
 20
1225.6572638176469
 30
0.0
 11
1960.3746682056351
 21
1278.701018506755
 31
0.0
  0
LINE
  5
2E14
  8
0
 62
     0
 10
2309.5843535504941
 20
1695.2626247596329
 30
0.0
 11
2349.5848026549411
 21
1735.2630738640801
 31
0.0
  0
LINE
  5
2E15
  8
0
 62
     0
 10
2206.6882288901911
 20
1592.3665000993301
 30
0.0
 11
2241.2169484907258
 21
1626.8952196998671
 31
0.0
  0
LINE
  5
2E16
  8
0
 62
     0
 10
2349.5848026549411
 20
1735.2630738640801
 30
0.0
 11
2395.2757539485501
 21
1780.9540251576891
 31
0.0
  0
LINE
  5
2E17
  8
0
 62
     0
 10
2059.6110276046879
 20
1445.289298813826
 30
0.0
 11
2099.6113107558872
 21
1485.2895819650259
 31
0.0
  0
LINE
  5
2E18
  8
0
 62
     0
 10
2481.6547931062778
 20
1867.333064315417
 30
0.0
 11
2527.344732229385
 21
1913.023003438524
 31
0.0
  0
LINE
  5
2E19
  8
0
 62
     0
 10
1847.029805331583
 20
1232.7080765407229
 30
0.0
 11
1921.6861843893639
 21
1307.3644555985029
 31
0.0
  0
LINE
  5
2E1A
  8
0
 62
     0
 10
2196.5924298025279
 20
1649.6226219196849
 30
0.0
 11
2231.121149403069
 21
1684.151341520226
 31
0.0
  0
LINE
  5
2E1B
  8
0
 62
     0
 10
2308.2751606380812
 20
1761.3053527552379
 30
0.0
 11
2349.5848026549411
 21
1802.614994772099
 31
0.0
  0
LINE
  5
2E1C
  8
0
 62
     0
 10
2059.6110276046879
 20
1512.6412197218449
 30
0.0
 11
2099.6112305368151
 21
1552.641422653973
 31
0.0
  0
LINE
  5
2E1D
  8
0
 62
     0
 10
2349.5848026549411
 20
1802.614994772099
 30
0.0
 11
2459.9928113213668
 21
1913.023003438524
 31
0.0
  0
LINE
  5
2E1E
  8
0
 62
     0
 10
1847.029805331583
 20
1300.0599974487409
 30
0.0
 11
1895.7978909430799
 21
1348.828083060238
 31
0.0
  0
LINE
  5
2E1F
  8
0
 62
     0
 10
2180.61469085618
 20
1700.9968038813579
 30
0.0
 11
2221.0253503154072
 21
1741.407463340583
 31
0.0
  0
LINE
  5
2E20
  8
0
 62
     0
 10
2059.6110276046879
 20
1579.993140629864
 30
0.0
 11
2099.6111503177431
 21
1619.99326334292
 31
0.0
  0
LINE
  5
2E21
  8
0
 62
     0
 10
2290.444690319659
 20
1810.8268033448351
 30
0.0
 11
2349.5848026549411
 21
1869.9669156801169
 31
0.0
  0
LINE
  5
2E22
  8
0
 62
     0
 10
1847.029805331583
 20
1367.41191835676
 30
0.0
 11
1887.0298053315839
 21
1407.41191835676
 31
0.0
  0
LINE
  5
2E23
  8
0
 62
     0
 10
2349.5848026549411
 20
1869.9669156801169
 30
0.0
 11
2392.6408904133482
 21
1913.023003438524
 31
0.0
  0
LINE
  5
2E24
  8
0
 62
     0
 10
1797.7778903931301
 20
1318.1600034183059
 30
0.0
 11
1809.63726667949
 21
1330.019379704667
 31
0.0
  0
LINE
  5
2E25
  8
0
 62
     0
 10
2059.6110276046879
 20
1647.345061537882
 30
0.0
 11
2099.6110700986701
 21
1687.345104031865
 31
0.0
  0
LINE
  5
2E26
  8
0
 62
     0
 10
2150.3459624509242
 20
1738.079996384118
 30
0.0
 11
2210.929551227749
 21
1798.663585160944
 31
0.0
  0
LINE
  5
2E27
  8
0
 62
     0
 10
1847.029805331583
 20
1434.763839264778
 30
0.0
 11
1887.0298053315839
 21
1474.7638392647791
 31
0.0
  0
LINE
  5
2E28
  8
0
 62
     0
 10
2258.5173008446368
 20
1846.2513347778311
 30
0.0
 11
2325.2889695053291
 21
1913.023003438524
 31
0.0
  0
LINE
  5
2E29
  8
0
 62
     0
 10
1769.637252554443
 20
1357.3712864876379
 30
0.0
 11
1809.6373468987549
 21
1397.3713808319501
 31
0.0
  0
LINE
  5
2E2A
  8
0
 62
     0
 10
2059.6110276046879
 20
1714.6969824459011
 30
0.0
 11
2067.9370486032908
 21
1723.0230034445051
 31
0.0
  0
LINE
  5
2E2B
  8
0
 62
     0
 10
2107.1513734924561
 20
1762.237328333669
 30
0.0
 11
2175.5785612058698
 21
1830.664516047085
 31
0.0
  0
LINE
  5
2E2C
  8
0
 62
     0
 10
1847.029805331583
 20
1502.1157601727971
 30
0.0
 11
1887.029805331586
 21
1542.1157601727989
 31
0.0
  0
LINE
  5
2E2D
  8
0
 62
     0
 10
2213.4251735586381
 20
1868.5111283998519
 30
0.0
 11
2257.9370485973109
 21
1913.023003438524
 31
0.0
  0
LINE
  5
2E2E
  8
0
 62
     0
 10
1769.637252554443
 20
1424.7232073956559
 30
0.0
 11
1809.6374271180171
 21
1464.7233819592309
 31
0.0
  0
LINE
  5
2E2F
  8
0
 62
     0
 10
2044.4932008915659
 20
1766.931076640798
 30
0.0
 11
2093.808344954341
 21
1816.246220703573
 31
0.0
  0
LINE
  5
2E30
  8
0
 62
     0
 10
1847.029805331583
 20
1569.467681080816
 30
0.0
 11
1887.029805331586
 21
1609.467681080818
 31
0.0
  0
LINE
  5
2E31
  8
0
 62
     0
 10
2150.5851276892922
 20
1873.023003438524
 30
0.0
 11
2190.5851276892922
 21
1913.023003438524
 31
0.0
  0
LINE
  5
2E32
  8
0
 62
     0
 10
1769.637252554443
 20
1492.075128303675
 30
0.0
 11
1809.6375073372819
 21
1532.075383086516
 31
0.0
  0
LINE
  5
2E33
  8
0
 62
     0
 10
1964.8284992193439
 20
1754.6182958765951
 30
0.0
 11
2015.8150172609
 21
1805.604813918151
 31
0.0
  0
LINE
  5
2E34
  8
0
 62
     0
 10
1847.029805331583
 20
1636.8196019888339
 30
0.0
 11
1898.015311296143
 21
1687.8051079533959
 31
0.0
  0
LINE
  5
2E35
  8
0
 62
     0
 10
2083.2332067812731
 20
1873.023003438524
 30
0.0
 11
2123.2332067812731
 21
1913.023003438524
 31
0.0
  0
LINE
  5
2E36
  8
0
 62
     0
 10
1769.637252554443
 20
1559.4270492116941
 30
0.0
 11
1809.6375875565409
 21
1599.4273842137929
 31
0.0
  0
LINE
  5
2E37
  8
0
 62
     0
 10
1847.029805331583
 20
1704.171522896853
 30
0.0
 11
1948.4630963528809
 21
1805.604813918151
 31
0.0
  0
LINE
  5
2E38
  8
0
 62
     0
 10
2015.8812858732549
 20
1873.023003438524
 30
0.0
 11
2055.8812858732549
 21
1913.023003438524
 31
0.0
  0
LINE
  5
2E39
  8
0
 62
     0
 10
1769.637252554443
 20
1626.7789701197121
 30
0.0
 11
1809.6376677758051
 21
1666.7793853410751
 31
0.0
  0
LINE
  5
2E3A
  8
0
 62
     0
 10
1847.029805331583
 20
1771.5234438048719
 30
0.0
 11
1881.111175444863
 21
1805.604813918151
 31
0.0
  0
LINE
  5
2E3B
  8
0
 62
     0
 10
1948.529364965236
 20
1873.023003438524
 30
0.0
 11
1988.529364965236
 21
1913.023003438524
 31
0.0
  0
LINE
  5
2E3C
  8
0
 62
     0
 10
1769.637252554443
 20
1694.130891027731
 30
0.0
 11
1809.6377479950679
 21
1734.131386468358
 31
0.0
  0
LINE
  5
2E3D
  8
0
 62
     0
 10
1769.637252554443
 20
1761.4828119357489
 30
0.0
 11
1921.1774440572169
 21
1913.023003438524
 31
0.0
  0
LINE
  5
2E3E
  8
0
 62
     0
 10
1769.637252554443
 20
1828.8347328437681
 30
0.0
 11
1853.825523149196
 21
1913.023003438522
 31
0.0
  0
LINE
  5
2E3F
  8
0
 62
     0
 10
1769.637252554443
 20
1896.1866537517869
 30
0.0
 11
1786.473602241178
 21
1913.023003438522
 31
0.0
  0
ENDBLK
  5
2E41
  8
0
  0
BLOCK
  8
0
  2
*X81
 70
     1
 10
0.0
 20
0.0
 30
0.0
  3
*X81
  1

  0
LINE
  5
2E43
  8
0
 62
     0
 10
1663.6047506510711
 20
712.52341732011701
 30
0.0
 11
1704.809959281529
 21
753.72862595057632
 31
0.0
  0
LINE
  5
2E44
  8
0
 62
     0
 10
1667.3569345066401
 20
783.62752208370512
 30
0.0
 11
1703.734574525238
 21
820.00516210230478
 31
0.0
  0
LINE
  5
2E45
  8
0
 62
     0
 10
1595.898565858477
 20
712.16915343554126
 30
0.0
 11
1639.4098194579401
 21
755.68040703500628
 31
0.0
  0
LINE
  5
2E46
  8
0
 62
     0
 10
1600.0050135795921
 20
783.62752206467485
 30
0.0
 11
1636.8177049792471
 21
820.44021346432964
 31
0.0
  0
LINE
  5
2E47
  8
0
 62
     0
 10
1668.6511996878889
 20
852.27370817297185
 30
0.0
 11
1691.7243089966851
 21
875.34681748176808
 31
0.0
  0
LINE
  5
2E48
  8
0
 62
     0
 10
1528.192381065883
 20
711.81488955096575
 30
0.0
 11
1572.057898549921
 21
755.68040703500628
 31
0.0
  0
LINE
  5
2E49
  8
0
 62
     0
 10
1532.6530926525411
 20
783.62752204564265
 30
0.0
 11
1569.900835433253
 21
820.8752648263544
 31
0.0
  0
LINE
  5
2E4A
  8
0
 62
     0
 10
1601.2992787798701
 20
852.27370817297185
 30
0.0
 11
1691.7243089966851
 21
942.69873838978663
 31
0.0
  0
LINE
  5
2E4B
  8
0
 62
     0
 10
1460.4861962732871
 20
711.4606256663883
 30
0.0
 11
1504.705977641903
 21
755.68040703500628
 31
0.0
  0
LINE
  5
2E4C
  8
0
 62
     0
 10
1533.947357871851
 20
852.27370817297185
 30
0.0
 11
1600.923839172699
 21
919.25018947381977
 31
0.0
  0
LINE
  5
2E4D
  8
0
 62
     0
 10
1465.3011717254919
 20
783.62752202661238
 30
0.0
 11
1502.983441235818
 21
821.30979153693806
 31
0.0
  0
LINE
  5
2E4E
  8
0
 62
     0
 10
1624.7468156193411
 20
943.07316592046118
 30
0.0
 11
1691.7243089966851
 21
1010.0506592978051
 31
0.0
  0
LINE
  5
2E4F
  8
0
 62
     0
 10
1392.7800114806901
 20
711.10636178181085
 30
0.0
 11
1437.3540567338839
 21
755.68040703500628
 31
0.0
  0
LINE
  5
2E50
  8
0
 62
     0
 10
1466.595436963833
 20
852.27370817297185
 30
0.0
 11
1506.595436963833
 21
892.27370817297185
 31
0.0
  0
LINE
  5
2E51
  8
0
 62
     0
 10
1602.221930985693
 20
987.90020219483449
 30
0.0
 11
1611.5799918553309
 21
997.25826306447016
 31
0.0
  0
LINE
  5
2E52
  8
0
 62
     0
 10
1397.949250798441
 20
783.62752200758223
 30
0.0
 11
1435.982130672224
 21
821.66040188136515
 31
0.0
  0
LINE
  5
2E53
  8
0
 62
     0
 10
1651.723821029673
 20
1037.402092238812
 30
0.0
 11
1691.7243089966851
 21
1077.4025802058241
 31
0.0
  0
LINE
  5
2E54
  8
0
 62
     0
 10
1325.073826688096
 20
710.75209789723522
 30
0.0
 11
1370.002135825865
 21
755.68040703500628
 31
0.0
  0
LINE
  5
2E55
  8
0
 62
     0
 10
1399.2435160558141
 20
852.27370817297185
 30
0.0
 11
1439.2435160558141
 21
892.27370817297185
 31
0.0
  0
LINE
  5
2E56
  8
0
 62
     0
 10
1534.870010077675
 20
987.90020219483449
 30
0.0
 11
1579.01037406155
 21
1032.0405661787081
 31
0.0
  0
LINE
  5
2E57
  8
0
 62
     0
 10
1330.597329871392
 20
783.62752198855014
 30
0.0
 11
1368.980820108638
 21
822.01101222579564
 31
0.0
  0
LINE
  5
2E58
  8
0
 62
     0
 10
1651.723901241483
 20
1104.7540933586399
 30
0.0
 11
1691.7243089966851
 21
1144.754501113842
 31
0.0
  0
LINE
  5
2E59
  8
0
 62
     0
 10
1257.367641895504
 20
710.39783401266141
 30
0.0
 11
1302.6502149178471
 21
755.68040703500628
 31
0.0
  0
LINE
  5
2E5A
  8
0
 62
     0
 10
1331.891595147795
 20
852.27370817297185
 30
0.0
 11
1371.891595147795
 21
892.27370817297185
 31
0.0
  0
LINE
  5
2E5B
  8
0
 62
     0
 10
1467.5180891696559
 20
987.90020219483449
 30
0.0
 11
1533.5231730280359
 21
1053.905286053212
 31
0.0
  0
LINE
  5
2E5C
  8
0
 62
     0
 10
1263.2454089443429
 20
783.62752196951976
 30
0.0
 11
1301.97950954505
 21
822.36162257022625
 31
0.0
  0
LINE
  5
2E5D
  8
0
 62
     0
 10
1651.7239814532929
 20
1172.106094478469
 30
0.0
 11
1691.7243089966851
 21
1212.1064220218609
 31
0.0
  0
LINE
  5
2E5E
  8
0
 62
     0
 10
1189.6614571029061
 20
710.04357012808396
 30
0.0
 11
1235.2982940098279
 21
755.68040703500628
 31
0.0
  0
LINE
  5
2E5F
  8
0
 62
     0
 10
1264.539674239777
 20
852.27370817297185
 30
0.0
 11
1304.539674239777
 21
892.27370817297185
 31
0.0
  0
LINE
  5
2E60
  8
0
 62
     0
 10
1441.442991862021
 20
1029.1770257952151
 30
0.0
 11
1501.2630866566269
 21
1088.9971205898221
 31
0.0
  0
LINE
  5
2E61
  8
0
 62
     0
 10
1195.8934880172931
 20
783.62752195048961
 30
0.0
 11
1234.9781989814601
 21
822.71223291465492
 31
0.0
  0
LINE
  5
2E62
  8
0
 62
     0
 10
1651.7240616651011
 20
1239.458095598296
 30
0.0
 11
1691.7243089966851
 21
1279.45834292988
 31
0.0
  0
LINE
  5
2E63
  8
0
 62
     0
 10
1121.9552723103111
 20
709.68930624350639
 30
0.0
 11
1167.9463731018091
 21
755.68040703500628
 31
0.0
  0
LINE
  5
2E64
  8
0
 62
     0
 10
1197.1877533317579
 20
852.27370817297185
 30
0.0
 11
1243.1065111227249
 21
898.19246596393884
 31
0.0
  0
LINE
  5
2E65
  8
0
 62
     0
 10
1441.442991862021
 20
1096.5289467032339
 30
0.0
 11
1482.9827204112621
 21
1138.0686752524759
 31
0.0
  0
LINE
  5
2E66
  8
0
 62
     0
 10
1158.080909566148
 20
813.16686440736146
 30
0.0
 11
1167.9768884178741
 21
823.06284325908734
 31
0.0
  0
LINE
  5
2E67
  8
0
 62
     0
 10
1651.7241418769099
 20
1306.8100967181231
 30
0.0
 11
1691.7243089966851
 21
1346.810263837898
 31
0.0
  0
LINE
  5
2E68
  8
0
 62
     0
 10
1054.249087517717
 20
709.33504235893076
 30
0.0
 11
1106.9421043035311
 21
762.02805914474436
 31
0.0
  0
LINE
  5
2E69
  8
0
 62
     0
 10
1441.442991862021
 20
1163.8808676112531
 30
0.0
 11
1481.4429918620219
 21
1203.8808676112551
 31
0.0
  0
LINE
  5
2E6A
  8
0
 62
     0
 10
1129.835832423739
 20
852.27370817297185
 30
0.0
 11
1199.364597941392
 21
921.80247369062465
 31
0.0
  0
LINE
  5
2E6B
  8
0
 62
     0
 10
1651.7242220887181
 20
1374.1620978379499
 30
0.0
 11
1691.7243089966851
 21
1414.1621847459171
 31
0.0
  0
LINE
  5
2E6C
  8
0
 62
     0
 10
986.54290272511935
 20
708.98077847435343
 30
0.0
 11
1101.5858592059651
 21
824.02373495519714
 31
0.0
  0
LINE
  5
2E6D
  8
0
 62
     0
 10
1111.7767588961849
 20
901.56655555343605
 30
0.0
 11
1168.606914008092
 21
958.39671066534527
 31
0.0
  0
LINE
  5
2E6E
  8
0
 62
     0
 10
1441.442991862021
 20
1231.232788519271
 30
0.0
 11
1481.4429918620219
 21
1271.2327885192731
 31
0.0
  0
LINE
  5
2E6F
  8
0
 62
     0
 10
1073.371392262437
 20
863.16118891969018
 30
0.0
 11
1101.585777854885
 21
891.37557451213786
 31
0.0
  0
LINE
  5
2E70
  8
0
 62
     0
 10
1651.7243023005269
 20
1441.5140989577769
 30
0.0
 11
1657.3469115403079
 21
1447.1367081975579
 31
0.0
  0
LINE
  5
2E71
  8
0
 62
     0
 10
918.83671793252677
 20
708.6265145897778
 30
0.0
 11
948.4920074986876
 21
738.28180415593852
 31
0.0
  0
LINE
  5
2E72
  8
0
 62
     0
 10
1111.7767588961849
 20
968.91847646145459
 30
0.0
 11
1152.4131248019471
 21
1009.554842367217
 31
0.0
  0
LINE
  5
2E73
  8
0
 62
     0
 10
1073.473295684191
 20
930.61501324946039
 30
0.0
 11
1101.5856965038131
 21
958.72741406908256
 31
0.0
  0
LINE
  5
2E74
  8
0
 62
     0
 10
1441.4429918620231
 20
1298.584709427292
 30
0.0
 11
1481.4429918620219
 21
1338.584709427292
 31
0.0
  0
LINE
  5
2E75
  8
0
 62
     0
 10
851.13053313993078
 20
708.27225070520035
 30
0.0
 11
881.03868946973478
 21
738.18040703500435
 31
0.0
  0
LINE
  5
2E76
  8
0
 62
     0
 10
1111.7767588961849
 20
1036.2703973694729
 30
0.0
 11
1151.777200614117
 21
1076.270839087405
 31
0.0
  0
LINE
  5
2E77
  8
0
 62
     0
 10
1441.4429918620231
 20
1365.9366303353111
 30
0.0
 11
1481.7201758127051
 21
1406.2138142859951
 31
0.0
  0
LINE
  5
2E78
  8
0
 62
     0
 10
1073.4732956916589
 20
997.9669341649477
 30
0.0
 11
1101.585615152735
 21
1026.079253626023
 31
0.0
  0
LINE
  5
2E79
  8
0
 62
     0
 10
1603.0759177943601
 20
1527.5695562676481
 30
0.0
 11
1611.579991839197
 21
1536.073630312485
 31
0.0
  0
LINE
  5
2E7A
  8
0
 62
     0
 10
783.42434834733285
 20
707.9179868206229
 30
0.0
 11
813.68676856171612
 21
738.18040703500435
 31
0.0
  0
LINE
  5
2E7B
  8
0
 62
     0
 10
1111.7767588961849
 20
1103.622318277492
 30
0.0
 11
1151.7771203950449
 21
1143.622679776352
 31
0.0
  0
LINE
  5
2E7C
  8
0
 62
     0
 10
1073.4732956991261
 20
1065.318855080433
 30
0.0
 11
1101.585533801659
 21
1093.4310931829659
 31
0.0
  0
LINE
  5
2E7D
  8
0
 62
     0
 10
1441.4429918620231
 20
1433.288551243329
 30
0.0
 11
1576.002192914026
 21
1567.8477522953319
 31
0.0
  0
LINE
  5
2E7E
  8
0
 62
     0
 10
715.71816355474027
 20
707.56372293604727
 30
0.0
 11
746.33484765369747
 21
738.18040703500435
 31
0.0
  0
LINE
  5
2E7F
  8
0
 62
     0
 10
1111.7767588961849
 20
1170.97423918551
 30
0.0
 11
1151.7770401759731
 21
1210.9745204653011
 31
0.0
  0
LINE
  5
2E80
  8
0
 62
     0
 10
1073.4732957065951
 20
1132.6707759959211
 30
0.0
 11
1101.585452450581
 21
1160.782932739907
 31
0.0
  0
LINE
  5
2E81
  8
0
 62
     0
 10
1441.4429918620231
 20
1500.6404721513479
 30
0.0
 11
1508.6502720060071
 21
1567.8477522953319
 31
0.0
  0
LINE
  5
2E82
  8
0
 62
     0
 10
648.0119787621461
 20
707.20945905147164
 30
0.0
 11
680.97450597077113
 21
740.17198626009849
 31
0.0
  0
LINE
  5
2E83
  8
0
 62
     0
 10
1073.4732957140641
 20
1200.0226969114101
 30
0.0
 11
1101.585371099505
 21
1228.134772296849
 31
0.0
  0
LINE
  5
2E84
  8
0
 62
     0
 10
1111.7767588961849
 20
1238.3261600935291
 30
0.0
 11
1151.776959956904
 21
1278.3263611542479
 31
0.0
  0
LINE
  5
2E85
  8
0
 62
     0
 10
580.30579396954818
 20
706.85519516689226
 30
0.0
 11
632.68682037086
 21
759.2362215682042
 31
0.0
  0
LINE
  5
2E86
  8
0
 62
     0
 10
1111.7767588961849
 20
1305.678081001548
 30
0.0
 11
1151.776879737828
 21
1345.6782018431929
 31
0.0
  0
LINE
  5
2E87
  8
0
 62
     0
 10
1073.4732957215331
 20
1267.374617826895
 30
0.0
 11
1101.5412663823529
 21
1295.442588487716
 31
0.0
  0
LINE
  5
2E88
  8
0
 62
     0
 10
1308.4068332022559
 20
1502.308155307619
 30
0.0
 11
1368.2709424031759
 21
1562.172264508539
 31
0.0
  0
LINE
  5
2E89
  8
0
 62
     0
 10
512.59960917695389
 20
706.50093128231845
 30
0.0
 11
598.18644931777817
 21
792.08777142314091
 31
0.0
  0
LINE
  5
2E8A
  8
0
 62
     0
 10
1111.7767588961849
 20
1373.030001909566
 30
0.0
 11
1151.7767995187601
 21
1413.030042532142
 31
0.0
  0
LINE
  5
2E8B
  8
0
 62
     0
 10
1241.0549122942371
 20
1502.308155307619
 30
0.0
 11
1341.0549122942371
 21
1602.308155307619
 31
0.0
  0
LINE
  5
2E8C
  8
0
 62
     0
 10
1068.2603763630341
 20
1329.5136193764149
 30
0.0
 11
1090.0601638264011
 21
1351.3134068397831
 31
0.0
  0
LINE
  5
2E8D
  8
0
 62
     0
 10
1341.0549122942371
 20
1602.308155307619
 30
0.0
 11
1368.2709424031759
 21
1629.5241854165581
 31
0.0
  0
LINE
  5
2E8E
  8
0
 62
     0
 10
464.7515971854736
 20
726.00484019885516
 30
0.0
 11
577.03679302342789
 21
838.29003603680928
 31
0.0
  0
LINE
  5
2E8F
  8
0
 62
     0
 10
1111.7767588961849
 20
1440.3819228175851
 30
0.0
 11
1118.531544256424
 21
1447.1367081778239
 31
0.0
  0
LINE
  5
2E90
  8
0
 62
     0
 10
1173.7029913862191
 20
1502.308155307619
 30
0.0
 11
1273.7029913862191
 21
1602.308155307619
 31
0.0
  0
LINE
  5
2E91
  8
0
 62
     0
 10
1045.3033342042891
 20
1373.908498125691
 30
0.0
 11
1064.958668764162
 21
1393.5638326855619
 31
0.0
  0
LINE
  5
2E92
  8
0
 62
     0
 10
1273.7029913862191
 20
1602.308155307619
 30
0.0
 11
1368.270942403178
 21
1696.8761063245779
 31
0.0
  0
LINE
  5
2E93
  8
0
 62
     0
 10
464.7515971854736
 20
793.35676110687382
 30
0.0
 11
573.52675728662325
 21
902.13192120802341
 31
0.0
  0
LINE
  5
2E94
  8
0
 62
     0
 10
1106.3510704782
 20
1502.308155307619
 30
0.0
 11
1206.3510704782
 21
1602.308155307619
 31
0.0
  0
LINE
  5
2E95
  8
0
 62
     0
 10
1206.3510704782
 20
1602.308155307619
 30
0.0
 11
1306.3510704782
 21
1702.308155307619
 31
0.0
  0
LINE
  5
2E96
  8
0
 62
     0
 10
1009.281162272826
 20
1405.2382471022449
 30
0.0
 11
1029.4458686000139
 21
1425.402953429435
 31
0.0
  0
LINE
  5
2E97
  8
0
 62
     0
 10
1306.3510704782
 20
1702.308155307619
 30
0.0
 11
1368.270942403178
 21
1764.228027232597
 31
0.0
  0
LINE
  5
2E98
  8
0
 62
     0
 10
464.7515971854736
 20
860.70868201489247
 30
0.0
 11
573.52675729409191
 21
969.48384212351266
 31
0.0
  0
LINE
  5
2E99
  8
0
 62
     0
 10
1138.9991495701811
 20
1602.308155307619
 30
0.0
 11
1238.9991495701811
 21
1702.308155307619
 31
0.0
  0
LINE
  5
2E9A
  8
0
 62
     0
 10
1038.9991495701811
 20
1502.308155307619
 30
0.0
 11
1138.9991495701811
 21
1602.308155307619
 31
0.0
  0
LINE
  5
2E9B
  8
0
 62
     0
 10
1238.9991495701811
 20
1702.308155307619
 30
0.0
 11
1338.99914957018
 21
1802.308155307617
 31
0.0
  0
LINE
  5
2E9C
  8
0
 62
     0
 10
958.93450061813201
 20
1422.243506355569
 30
0.0
 11
982.93778424682205
 21
1446.2467899842591
 31
0.0
  0
LINE
  5
2E9D
  8
0
 62
     0
 10
1338.99914957018
 20
1802.308155307617
 30
0.0
 11
1368.270942403178
 21
1831.579948140615
 31
0.0
  0
LINE
  5
2E9E
  8
0
 62
     0
 10
464.7515971854736
 20
928.06060292291124
 30
0.0
 11
573.52675730155886
 21
1036.835763038996
 31
0.0
  0
LINE
  5
2E9F
  8
0
 62
     0
 10
1071.6472286621629
 20
1602.308155307619
 30
0.0
 11
1171.6472286621629
 21
1702.308155307619
 31
0.0
  0
LINE
  5
2EA0
  8
0
 62
     0
 10
971.64722866216289
 20
1502.308155307619
 30
0.0
 11
1071.6472286621629
 21
1602.308155307619
 31
0.0
  0
LINE
  5
2EA1
  8
0
 62
     0
 10
1171.6472286621629
 20
1702.308155307619
 30
0.0
 11
1271.6472286621629
 21
1802.308155307619
 31
0.0
  0
LINE
  5
2EA2
  8
0
 62
     0
 10
892.51948038954652
 20
1423.180407035004
 30
0.0
 11
921.01948038954652
 21
1451.680407035002
 31
0.0
  0
LINE
  5
2EA3
  8
0
 62
     0
 10
1271.6472286621629
 20
1802.308155307619
 30
0.0
 11
1368.2709424031759
 21
1898.9318690486321
 31
0.0
  0
LINE
  5
2EA4
  8
0
 62
     0
 10
464.7515971854736
 20
995.41252383092979
 30
0.0
 11
573.52675730902592
 21
1104.1876839544821
 31
0.0
  0
LINE
  5
2EA5
  8
0
 62
     0
 10
1004.295307754144
 20
1602.308155307619
 30
0.0
 11
1104.295307754144
 21
1702.308155307619
 31
0.0
  0
LINE
  5
2EA6
  8
0
 62
     0
 10
904.29530775414423
 20
1502.308155307619
 30
0.0
 11
1004.295307754144
 21
1602.308155307619
 31
0.0
  0
LINE
  5
2EA7
  8
0
 62
     0
 10
1104.295307754144
 20
1702.308155307619
 30
0.0
 11
1204.295307754144
 21
1802.308155307619
 31
0.0
  0
LINE
  5
2EA8
  8
0
 62
     0
 10
825.16755948152775
 20
1423.180407035004
 30
0.0
 11
853.66755948152775
 21
1451.680407035002
 31
0.0
  0
LINE
  5
2EA9
  8
0
 62
     0
 10
1204.295307754144
 20
1802.308155307619
 30
0.0
 11
1304.2953077541461
 21
1902.3081553076211
 31
0.0
  0
LINE
  5
2EAA
  8
0
 62
     0
 10
464.7515971854736
 20
1062.764444738948
 30
0.0
 11
573.52675731649458
 21
1171.539604869969
 31
0.0
  0
LINE
  5
2EAB
  8
0
 62
     0
 10
936.94338684612546
 20
1602.308155307619
 30
0.0
 11
1036.9433868461219
 21
1702.308155307617
 31
0.0
  0
LINE
  5
2EAC
  8
0
 62
     0
 10
836.94338684612546
 20
1502.3081553076211
 30
0.0
 11
936.94338684612546
 21
1602.308155307619
 31
0.0
  0
LINE
  5
2EAD
  8
0
 62
     0
 10
1036.9433868461249
 20
1702.308155307619
 30
0.0
 11
1136.9433868461249
 21
1802.308155307619
 31
0.0
  0
LINE
  5
2EAE
  8
0
 62
     0
 10
757.81563857350909
 20
1423.180407035004
 30
0.0
 11
786.31563857350909
 21
1451.680407035002
 31
0.0
  0
LINE
  5
2EAF
  8
0
 62
     0
 10
1136.9433868461249
 20
1802.308155307619
 30
0.0
 11
1236.9433868461269
 21
1902.3081553076211
 31
0.0
  0
LINE
  5
2EB0
  8
0
 62
     0
 10
464.7515971854736
 20
1130.1163656469671
 30
0.0
 11
573.52675732396165
 21
1238.8915257854551
 31
0.0
  0
LINE
  5
2EB1
  8
0
 62
     0
 10
869.59146593810692
 20
1602.308155307619
 30
0.0
 11
969.59146593810328
 21
1702.308155307617
 31
0.0
  0
LINE
  5
2EB2
  8
0
 62
     0
 10
769.59146593810692
 20
1502.3081553076211
 30
0.0
 11
869.59146593810692
 21
1602.308155307619
 31
0.0
  0
LINE
  5
2EB3
  8
0
 62
     0
 10
969.59146593810328
 20
1702.308155307617
 30
0.0
 11
1069.5914659381069
 21
1802.308155307619
 31
0.0
  0
LINE
  5
2EB4
  8
0
 62
     0
 10
689.71523596768918
 20
1422.431925337203
 30
0.0
 11
718.96371766549055
 21
1451.680407035002
 31
0.0
  0
LINE
  5
2EB5
  8
0
 62
     0
 10
1069.5914659381069
 20
1802.308155307619
 30
0.0
 11
1169.591465938109
 21
1902.3081553076211
 31
0.0
  0
LINE
  5
2EB6
  8
0
 62
     0
 10
464.7515971854736
 20
1197.4682865549851
 30
0.0
 11
574.27574532167625
 21
1306.9924346911901
 31
0.0
  0
LINE
  5
2EB7
  8
0
 62
     0
 10
802.23954503008815
 20
1602.308155307619
 30
0.0
 11
902.23954503008463
 21
1702.308155307617
 31
0.0
  0
LINE
  5
2EB8
  8
0
 62
     0
 10
902.23954503008463
 20
1702.308155307617
 30
0.0
 11
1002.239545030088
 21
1802.308155307619
 31
0.0
  0
LINE
  5
2EB9
  8
0
 62
     0
 10
702.23954503008827
 20
1502.3081553076211
 30
0.0
 11
802.23954503008815
 21
1602.308155307619
 31
0.0
  0
LINE
  5
2EBA
  8
0
 62
     0
 10
1002.239545030088
 20
1802.308155307619
 30
0.0
 11
1102.2395450300901
 21
1902.3081553076211
 31
0.0
  0
LINE
  5
2EBB
  8
0
 62
     0
 10
464.7515971854736
 20
1264.820207463004
 30
0.0
 11
651.61179675747371
 21
1451.680407035004
 31
0.0
  0
LINE
  5
2EBC
  8
0
 62
     0
 10
734.88762412206961
 20
1602.308155307619
 30
0.0
 11
834.88762412206597
 21
1702.308155307617
 31
0.0
  0
LINE
  5
2EBD
  8
0
 62
     0
 10
834.88762412206597
 20
1702.308155307617
 30
0.0
 11
934.8876241220695
 21
1802.308155307619
 31
0.0
  0
LINE
  5
2EBE
  8
0
 62
     0
 10
648.27094240317444
 20
1515.691473588726
 30
0.0
 11
734.88762412206961
 21
1602.308155307619
 31
0.0
  0
LINE
  5
2EBF
  8
0
 62
     0
 10
934.8876241220695
 20
1802.308155307619
 30
0.0
 11
1034.887624122071
 21
1902.3081553076211
 31
0.0
  0
LINE
  5
2EC0
  8
0
 62
     0
 10
464.7515971854736
 20
1332.1721283710231
 30
0.0
 11
584.25987584945506
 21
1451.680407035004
 31
0.0
  0
LINE
  5
2EC1
  8
0
 62
     0
 10
667.53570321405095
 20
1602.308155307619
 30
0.0
 11
767.53570321404732
 21
1702.308155307617
 31
0.0
  0
LINE
  5
2EC2
  8
0
 62
     0
 10
767.53570321404732
 20
1702.308155307617
 30
0.0
 11
867.53570321405084
 21
1802.308155307619
 31
0.0
  0
LINE
  5
2EC3
  8
0
 62
     0
 10
648.27094240317444
 20
1583.043394496744
 30
0.0
 11
667.53570321405095
 21
1602.308155307619
 31
0.0
  0
LINE
  5
2EC4
  8
0
 62
     0
 10
867.53570321405084
 20
1802.308155307619
 30
0.0
 11
967.53570321405277
 21
1902.3081553076211
 31
0.0
  0
LINE
  5
2EC5
  8
0
 62
     0
 10
464.7515971854736
 20
1399.524049279041
 30
0.0
 11
563.82531549687519
 21
1498.597767590443
 31
0.0
  0
LINE
  5
2EC6
  8
0
 62
     0
 10
700.18378230602855
 20
1702.308155307617
 30
0.0
 11
800.1837823060323
 21
1802.308155307619
 31
0.0
  0
LINE
  5
2EC7
  8
0
 62
     0
 10
648.27094240317638
 20
1650.3953154047631
 30
0.0
 11
700.18378230602855
 21
1702.308155307617
 31
0.0
  0
LINE
  5
2EC8
  8
0
 62
     0
 10
800.1837823060323
 20
1802.308155307619
 30
0.0
 11
900.18378230603412
 21
1902.3081553076211
 31
0.0
  0
LINE
  5
2EC9
  8
0
 62
     0
 10
464.7515971854736
 20
1466.8759701870599
 30
0.0
 11
563.82531549687519
 21
1565.9496884984619
 31
0.0
  0
LINE
  5
2ECA
  8
0
 62
     0
 10
648.27094240317638
 20
1717.747236312782
 30
0.0
 11
732.83186139801364
 21
1802.308155307619
 31
0.0
  0
LINE
  5
2ECB
  8
0
 62
     0
 10
732.83186139801364
 20
1802.308155307619
 30
0.0
 11
832.83186139801546
 21
1902.3081553076211
 31
0.0
  0
LINE
  5
2ECC
  8
0
 62
     0
 10
464.7515971854736
 20
1534.227891095079
 30
0.0
 11
563.8253154968769
 21
1633.3016094064819
 31
0.0
  0
LINE
  5
2ECD
  8
0
 62
     0
 10
648.27094240317444
 20
1785.0991572208
 30
0.0
 11
665.47994048999487
 21
1802.308155307619
 31
0.0
  0
LINE
  5
2ECE
  8
0
 62
     0
 10
665.47994048999487
 20
1802.308155307619
 30
0.0
 11
765.47994048999681
 21
1902.3081553076211
 31
0.0
  0
LINE
  5
2ECF
  8
0
 62
     0
 10
464.75159718547178
 20
1601.5798120030961
 30
0.0
 11
563.8253154968769
 21
1700.653530314501
 31
0.0
  0
LINE
  5
2ED0
  8
0
 62
     0
 10
648.27094240317444
 20
1852.4510781288191
 30
0.0
 11
698.12801958197815
 21
1902.3081553076211
 31
0.0
  0
LINE
  5
2ED1
  8
0
 62
     0
 10
464.75159718547178
 20
1668.9317329111141
 30
0.0
 11
499.89294607373438
 21
1704.073081799377
 31
0.0
  0
ENDBLK
  5
2ED3
  8
0
  0
BLOCK
  8
0
  2
*U82
 70
     1
 10
0.0
 20
0.0
 30
0.0
  3
*U82
  1

  0
TEXT
  5
2ED5
  8
DATUM
 10
1965.1751045119599
 20
2573.3758392965392
 30
0.0
 40
60.0
  1
door: Roland Smith
 41
0.8
  0
TEXT
  5
2ED6
  8
DATUM
 10
1965.1751045119599
 20
2473.3758392965392
 30
0.0
 40
60.0
  1
datum: 29 mei 2013
 41
0.8
  0
ENDBLK
  5
2ED8
  8
0
  0
BLOCK
  8
0
  2
*U83
 70
     1
 10
0.0
 20
0.0
 30
0.0
  3
*U83
  1

  0
TEXT
  5
2EDA
  8
DIM
 10
858.14329261486046
 20
199.172496765299
 30
0.0
 40
175.0
  1
1250
 41
0.8
  0
ENDBLK
  5
2EDC
  8
0
  0
BLOCK
  8
0
  2
*U84
 70
     1
 10
0.0
 20
0.0
 30
0.0
  3
*U84
  1

  0
TEXT
  5
2EDE
  8
DIM
 10
2128.14329261486
 20
199.172496765299
 30
0.0
 40
175.0
  1
1250
 41
0.8
  0
ENDBLK
  5
2EE0
  8
0
  0
BLOCK
  8
0
  2
*U85
 70
     1
 10
0.0
 20
0.0
 30
0.0
  3
*U85
  1

  0
TEXT
  5
2EE2
  8
DIM
 10
239.8831925943376
 20
1102.3553970795519
 30
0.0
 40
175.0
  1
1250
 50
90.0
 41
0.8
  0
ENDBLK
  5
2EE4
  8
0
  0
ENDSEC
  0
SECTION
  2
ENTITIES
  0
LINE
  5
1248
  8
MULTIMAT
 10
1724.809959281527
 20
712.73901826291046
 30
0.0
 11
2974.809959281527
 21
720.79744430365724
 31
0.0
  0
LINE
  5
124B
  8
MULTIMAT
 10
2974.809959281527
 20
755.68040703500355
 30
0.0
 11
1724.809959281527
 21
755.68040703500435
 31
0.0
  0
LINE
  5
1257
  8
MULTIMAT
 10
2739.3453508484022
 20
783.62752238094981
 30
0.0
 11
2739.3453508483981
 21
813.40230015545239
 31
0.0
  0
LINE
  5
125B
  8
MULTIMAT
 10
2739.3453508483981
 20
813.4023001554533
 30
0.0
 11
1724.809959281527
 21
819.99817062756665
 31
0.0
  0
LINE
  5
125E
  8
MULTIMAT
 10
1809.637252554443
 20
1742.8860034385229
 30
0.0
 11
1809.637252554443
 21
1318.1600034385251
 31
0.0
  0
LINE
  5
125F
  8
MULTIMAT
 10
1769.637252554443
 20
1913.023003438524
 30
0.0
 11
1769.637252554443
 21
1318.1600034385251
 31
0.0
  0
LINE
  5
1260
  8
MULTIMAT
 10
2309.5848026549429
 20
1318.1600034385251
 30
0.0
 11
2309.5848026549429
 21
1742.8860034385229
 31
0.0
  0
LINE
  5
1261
  8
MULTIMAT
 10
2349.5848026549429
 20
1318.1600034385251
 30
0.0
 11
2349.5848026549429
 21
1913.023003438524
 31
0.0
  0
LINE
  5
1262
  8
MULTIMAT
 10
2179.4614539999461
 20
1873.023003438524
 30
0.0
 11
1939.7606012094441
 21
1873.023003438524
 31
0.0
  0
LINE
  5
1263
  8
MULTIMAT
 10
2349.5848026549429
 20
1913.023003438524
 30
0.0
 11
1769.637252554443
 21
1913.023003438524
 31
0.0
  0
ARC
  5
1264
  8
MULTIMAT
 10
1939.7679332954431
 20
1742.8933348680241
 30
0.0
 40
130.13017486449999
 50
90.003228299710159
 51
180.0032279855898
  0
ARC
  5
1265
  8
MULTIMAT
 10
2179.4541219609459
 20
1742.8933348210239
 30
0.0
 40
130.13017486449999
 50
359.99677203494161
 51
89.996771720717035
  0
LINE
  5
1266
  8
MULTIMAT
 10
2309.5842965719198
 20
1318.1600034099149
 30
0.0
 11
2349.5848026549429
 21
1318.1600034385251
 31
0.0
  0
LINE
  5
1267
  8
MULTIMAT
 10
1809.6377585904629
 20
1318.160003409786
 30
0.0
 11
1769.637252554443
 21
1318.1600034385251
 31
0.0
  0
LINE
  5
1270
  8
MULTIMAT
 10
2099.6110276046888
 20
1298.2970034385251
 30
0.0
 11
2099.6110276046888
 21
1723.023003438524
 31
0.0
  0
LINE
  5
1271
  8
MULTIMAT
 10
2059.6110276046888
 20
1128.1600034385251
 30
0.0
 11
2059.6110276046888
 21
1723.023003438524
 31
0.0
  0
LINE
  5
1272
  8
MULTIMAT
 10
2599.5585777051888
 20
1723.023003438524
 30
0.0
 11
2599.5585777051888
 21
1298.2970034385251
 31
0.0
  0
LINE
  5
1273
  8
MULTIMAT
 10
2469.435229050192
 20
1168.160003438524
 30
0.0
 11
2229.7343762596902
 21
1168.160003438524
 31
0.0
  0
LINE
  5
1274
  8
MULTIMAT
 10
2639.5585777051888
 20
1128.1600034385251
 30
0.0
 11
2059.6110276046888
 21
1128.1600034385251
 31
0.0
  0
ARC
  5
1275
  8
MULTIMAT
 10
2229.7417083456899
 20
1298.289672009025
 30
0.0
 40
130.13017486449999
 50
179.9967720144102
 51
269.99677170008141
  0
ARC
  5
1276
  8
MULTIMAT
 10
2469.4278970111918
 20
1298.2896720560241
 30
0.0
 40
130.13017486449999
 50
270.00322827928289
 51
0.0032279651626117
  0
LINE
  5
1277
  8
MULTIMAT
 10
2599.5580716221671
 20
1723.0230034671331
 30
0.0
 11
2639.5585777051888
 21
1723.023003438524
 31
0.0
  0
LINE
  5
1278
  8
MULTIMAT
 10
2099.6115336407088
 20
1723.023003467262
 30
0.0
 11
2059.6110276046888
 21
1723.023003438524
 31
0.0
  0
LINE
  5
1279
  8
MULTIMAT
 10
2639.5585777051888
 20
1723.023003438524
 30
0.0
 11
2639.5585777051888
 21
1128.1600034385251
 31
0.0
  0
LINE
  5
127A
  8
MULTIMAT
 10
2389.5848026549429
 20
1742.8860034385229
 30
0.0
 11
2389.5848026549429
 21
1318.1600034385251
 31
0.0
  0
LINE
  5
127B
  8
MULTIMAT
 10
2889.5323527554428
 20
1318.1600034385251
 30
0.0
 11
2889.5323527554428
 21
1742.8860034385229
 31
0.0
  0
LINE
  5
127C
  8
MULTIMAT
 10
2929.5323527554428
 20
1318.1600034385251
 30
0.0
 11
2929.5323527554428
 21
1913.023003438524
 31
0.0
  0
LINE
  5
127D
  8
MULTIMAT
 10
2759.4090041004461
 20
1873.023003438524
 30
0.0
 11
2519.7081513099438
 21
1873.023003438524
 31
0.0
  0
LINE
  5
127E
  8
MULTIMAT
 10
2929.5323527554428
 20
1913.023003438524
 30
0.0
 11
2349.5848026549429
 21
1913.023003438524
 31
0.0
  0
ARC
  5
127F
  8
MULTIMAT
 10
2519.715483395943
 20
1742.8933348680241
 30
0.0
 40
130.13017486449999
 50
90.003228299710159
 51
180.0032279855898
  0
ARC
  5
1280
  8
MULTIMAT
 10
2759.4016720614459
 20
1742.8933348210239
 30
0.0
 40
130.13017486449999
 50
359.99677203494161
 51
89.996771720717035
  0
LINE
  5
1281
  8
MULTIMAT
 10
2889.5318466724202
 20
1318.1600034099149
 30
0.0
 11
2929.5323527554428
 21
1318.1600034385251
 31
0.0
  0
LINE
  5
1282
  8
MULTIMAT
 10
2389.5853086909628
 20
1318.160003409786
 30
0.0
 11
2349.5848026549429
 21
1318.1600034385251
 31
0.0
  0
LINE
  5
128C
  8
MULTIMAT
 10
2521.8216917568138
 20
1610.7361439547981
 30
0.0
 11
2480.1980754845358
 21
1374.676885723072
 31
0.0
  0
LINE
  5
128D
  8
MULTIMAT
 10
2590.7556113498399
 20
1771.329009571964
 30
0.0
 11
2490.048776132488
 21
1200.1921658925569
 31
0.0
  0
ARC
  5
128E
  8
MULTIMAT
 10
2393.6677120106729
 20
1633.325703121689
 30
0.0
 40
130.13017486449991
 50
350.00322827911498
 51
80.003227965116707
  0
ARC
  5
128F
  8
MULTIMAT
 10
2352.04664218277
 20
1397.2808862258839
 30
0.0
 40
130.13017486449991
 50
259.99677201434679
 51
349.9967717000315
  0
LINE
  5
1290
  8
MULTIMAT
 10
2329.442554473495
 20
1269.1289544062799
 30
0.0
 11
2322.4965394582468
 21
1229.736145896275
 31
0.0
  0
LINE
  5
1291
  8
MULTIMAT
 10
2416.2573597249939
 20
1761.4801811020079
 30
0.0
 11
2423.2033746755992
 21
1800.8729895756819
 31
0.0
  0
LINE
  5
1292
  8
MULTIMAT
 10
2423.2033746755992
 20
1800.8729895756819
 30
0.0
 11
2590.7556113498399
 21
1771.329009571964
 31
0.0
  0
LINE
  5
1293
  8
MULTIMAT
 10
2322.4965394582468
 20
1229.736145896275
 30
0.0
 11
2490.048776132488
 21
1200.1921658925569
 31
0.0
  0
LINE
  5
1294
  8
MULTIMAT
 10
1887.029805331586
 20
1635.481465263148
 30
0.0
 11
1887.029805331586
 21
1395.7806124726469
 31
0.0
  0
LINE
  5
1295
  8
MULTIMAT
 10
1847.0298053315851
 20
1805.6048139181489
 30
0.0
 11
1847.0298053315851
 21
1225.657263817649
 31
0.0
  0
ARC
  5
1296
  8
MULTIMAT
 10
2017.1594739485879
 20
1635.4741332241481
 30
0.0
 40
130.13017486449999
 50
89.996772034837406
 51
179.99677172071699
  0
ARC
  5
1297
  8
MULTIMAT
 10
2017.1594739020879
 20
1395.7879445586491
 30
0.0
 40
130.13017486449999
 50
180.00322829991859
 51
270.00322798558977
  0
LINE
  5
1298
  8
MULTIMAT
 10
2017.1668053029789
 20
1265.6577699006721
 30
0.0
 11
2017.166805331588
 21
1225.657263817649
 31
0.0
  0
LINE
  5
1299
  8
MULTIMAT
 10
2017.1668053028479
 20
1765.604307882129
 30
0.0
 11
2017.166805331588
 21
1805.6048139181489
 31
0.0
  0
LINE
  5
129A
  8
MULTIMAT
 10
1847.0298053315851
 20
1225.657263817649
 30
0.0
 11
2017.166805331588
 21
1225.657263817649
 31
0.0
  0
LINE
  5
129B
  8
MULTIMAT
 10
2017.166805331588
 20
1805.6048139181489
 30
0.0
 11
1847.0298053315851
 21
1805.6048139181489
 31
0.0
  0
LINE
  5
129C
  8
MULTIMAT
 10
2771.4837001717751
 20
1665.4495629138021
 30
0.0
 11
2813.107316444054
 21
1429.390304682079
 31
0.0
  0
LINE
  5
129D
  8
MULTIMAT
 10
2781.3344008197269
 20
1839.9342827443229
 30
0.0
 11
2882.0412360370792
 21
1268.797439064916
 31
0.0
  0
ARC
  5
129E
  8
MULTIMAT
 10
2643.3322668160549
 20
1642.8455624492069
 30
0.0
 40
130.13017486449991
 50
10.00322827913371
 51
100.0032279651263
  0
ARC
  5
129F
  8
MULTIMAT
 10
2684.9533367355439
 20
1406.800745569549
 30
0.0
 40
130.13017486449991
 50
279.9967720143564
 51
9.9967717000501377
  0
LINE
  5
12A0
  8
MULTIMAT
 10
2707.5429844039459
 20
1278.646267581136
 30
0.0
 11
2714.488999362839
 21
1239.2534590611961
 31
0.0
  0
LINE
  5
12A1
  8
MULTIMAT
 10
2620.7281791526989
 20
1770.997494276909
 30
0.0
 11
2613.7821641454871
 21
1810.3903027406029
 31
0.0
  0
LINE
  5
12A2
  8
MULTIMAT
 10
2613.7821641454871
 20
1810.3903027406029
 30
0.0
 11
2781.3344008197269
 21
1839.9342827443229
 31
0.0
  0
LINE
  5
12A3
  8
MULTIMAT
 10
2714.488999362839
 20
1239.2534590611961
 30
0.0
 11
2882.0412360370792
 21
1268.797439064916
 31
0.0
  0
LINE
  5
12A4
  8
MULTIMAT
 10
2194.54040631526
 20
1661.260225416479
 30
0.0
 11
2236.1640225875381
 21
1425.200967184757
 31
0.0
  0
LINE
  5
12A5
  8
MULTIMAT
 10
2204.3911069632122
 20
1835.7449452470009
 30
0.0
 11
2305.0979421805641
 21
1264.6081015675929
 31
0.0
  0
ARC
  5
12A6
  8
MULTIMAT
 10
2066.3889729595389
 20
1638.656224951884
 30
0.0
 40
130.13017486449991
 50
10.00322827913371
 51
100.0032279651263
  0
ARC
  5
12A7
  8
MULTIMAT
 10
2108.0100428790279
 20
1402.6114080722271
 30
0.0
 40
130.13017486449991
 50
279.9967720143564
 51
9.9967717000501377
  0
LINE
  5
12A8
  8
MULTIMAT
 10
2130.5996905474308
 20
1274.4569300838141
 30
0.0
 11
2137.545705506323
 21
1235.064121563873
 31
0.0
  0
LINE
  5
12A9
  8
MULTIMAT
 10
2043.7848852961829
 20
1766.8081567795871
 30
0.0
 11
2036.8388702889711
 21
1806.2009652432801
 31
0.0
  0
LINE
  5
12AA
  8
MULTIMAT
 10
2036.8388702889711
 20
1806.2009652432801
 30
0.0
 11
2204.3911069632122
 21
1835.7449452470009
 31
0.0
  0
LINE
  5
12AB
  8
MULTIMAT
 10
2137.545705506323
 20
1235.064121563873
 30
0.0
 11
2305.0979421805641
 21
1264.6081015675929
 31
0.0
  0
INSERT
  5
1E68
  8
DATUM
  2
*U49
 10
0.0
 20
0.0
 30
0.0
  0
POLYLINE
  5
2731
  8
DIM
 66
     1
 10
0.0
 20
0.0
 30
0.0
 70
     1
  0
VERTEX
  5
2D5A
  8
DIM
 10
1724.809959281527
 20
699.02206374621892
 30
0.0
  0
VERTEX
  5
2D5B
  8
DIM
 10
2974.809959281527
 20
699.02206374621892
 30
0.0
  0
VERTEX
  5
2D5C
  8
DIM
 10
2974.809959281527
 20
1949.0220637462189
 30
0.0
  0
VERTEX
  5
2D5D
  8
DIM
 10
1724.809959281527
 20
1949.0220637462189
 30
0.0
  0
SEQEND
  5
2D5E
  8
DIM
  0
POLYLINE
  5
2732
  8
DIM
 66
     1
 10
0.0
 20
0.0
 30
0.0
 70
     1
  0
VERTEX
  5
2D5F
  8
DIM
 10
454.80995928152691
 20
699.02206374621892
 30
0.0
  0
VERTEX
  5
2D60
  8
DIM
 10
1704.809959281527
 20
699.02206374621892
 30
0.0
  0
VERTEX
  5
2D61
  8
DIM
 10
1704.809959281527
 20
1949.0220637462189
 30
0.0
  0
VERTEX
  5
2D62
  8
DIM
 10
454.80995928152691
 20
1949.0220637462189
 30
0.0
  0
SEQEND
  5
2D63
  8
DIM
  0
LINE
  5
2734
  8
MULTIMAT
 10
2974.809959281527
 20
755.68040703500355
 30
0.0
 11
2974.809959281527
 21
720.79744430365645
 31
0.0
  0
LINE
  5
2735
  8
MULTIMAT
 10
1724.809959281527
 20
819.99817062756665
 30
0.0
 11
1724.809959281527
 21
783.627522094288
 31
0.0
  0
LINE
  5
2736
  8
MULTIMAT
 10
1724.809959281527
 20
755.68040703500355
 30
0.0
 11
1724.809959281527
 21
712.73901826291046
 31
0.0
  0
LINE
  5
2738
  8
MULTIMAT
 10
1724.809959281527
 20
783.627522094288
 30
0.0
 11
2739.3453508483981
 21
783.62752238094981
 31
0.0
  0
INSERT
  5
2741
  8
DATUM
  2
*U75
 10
0.0
 20
0.0
 30
0.0
1001
ACAD_MLEADERVER
1070
     2
  0
INSERT
  5
2743
  8
DATUM
  2
*U76
 10
0.0
 20
0.0
 30
0.0
1001
ACAD_MLEADERVER
1070
     2
  0
INSERT
  5
2748
  8
DATUM
  2
*U77
 10
0.0
 20
0.0
 30
0.0
1001
ACAD_MLEADERVER
1070
     2
  0
INSERT
  5
2756
  8
DATUM
  2
*U78
 10
0.0
 20
0.0
 30
0.0
  0
INSERT
  5
2757
  8
DATUM
  2
*U79
 10
0.0
 20
0.0
 30
0.0
  0
INSERT
  5
2AFC
  8
GEBRUIKT
  6
CONTINUOUS
  2
*X80
 10
0.0
 20
0.0
 30
0.0
1001
GRADIENTCOLOR1ACI
1070
     5
1001
GRADIENTCOLOR2ACI
1070
     2
1001
ACAD
1000
HATCH
1002
{
1070
    19
1000
ANSI31
1040
15.0
1040
0.0
1000
R14_HATCH_DATA
1000
2AFC
1011
1.0
1021
0.0
1031
0.0
1021
0.0
1031
0.0
1011
0.0
1021
0.0
1031
0.0
1021
1.0
1031
0.0
1011
0.0
1021
0.0
1031
0.0
1021
0.0
1031
1.0
1040
0.0
1010
0.0
1020
0.0
1030
1.0
1000
ANSI31
1070
     0
1070
     0
1071
        9
1071
        7
1070
     1
1070
     1
1071
       10
1040
2349.5848026549429
1040
1913.023003438524
1040
0.0
1040
1769.637252554443
1040
1913.023003438524
1040
0.0
1040
1769.637252554443
1040
1318.1600034385251
1040
0.0
1040
1809.637252554443
1040
1318.160003409786
1040
0.0
1040
1809.637758430945
1040
1742.8933348680241
1040
-0.4133967703717595
1040
1939.4049346766551
1040
1873.023003438524
1040
0.0
1040
2179.0911401913149
1040
1873.023003438524
1040
-0.4150307884470748
1040
2309.5842968254469
1040
1742.8933348210239
1040
0.0
1040
2309.5848026549429
1040
1318.1600034099149
1040
0.0
1040
2349.5848026549429
1040
1318.1600034385251
1040
0.0
1071
        0
1071
        7
1070
     1
1070
     1
1071
        8
1040
2017.166805331588
1040
1805.6048139181489
1040
0.0
1040
1847.0298053315851
1040
1805.6048139181489
1040
0.0
1040
1847.0298053315851
1040
1225.657263817649
1040
0.0
1040
2017.166805331588
1040
1225.657263817649
1040
0.0
1040
2017.1668053029789
1040
1265.6577699006709
1040
-0.4134132622531716
1040
1887.029805331586
1040
1395.424945940847
1040
0.0
1040
1887.029805331586
1040
1635.111151276162
1040
-0.4150472996894404
1040
2017.1668053028479
1040
1765.604307882129
1040
0.0
1071
        0
1071
        7
1070
     1
1070
     1
1071
        8
1040
2204.3911069632122
1040
1835.7449452470009
1040
0.0
1040
2036.8388702889711
1040
1806.2009652432801
1040
0.0
1040
2043.7848852961829
1040
1766.8081567795889
1040
-0.4134132996463477
1040
2194.4786483566131
1040
1661.61047220456
1040
0.0
1040
2236.0997153355929
1040
1425.565671733578
1040
-0.4150473373379063
1040
2130.5996905474308
1040
1274.4569300838141
1040
0.0
1040
2137.545705506323
1040
1235.064121563873
1040
0.0
1040
2305.0979421805641
1040
1264.6081015675929
1040
0.0
1071
        0
1071
        7
1070
     1
1070
     1
1071
       10
1040
2639.5585777051888
1040
1723.023003438524
1040
0.0
1040
2599.5585777051888
1040
1723.0230034671331
1040
0.0
1040
2599.5580718756942
1040
1298.2896720560241
1040
-0.4133968082736203
1040
2469.7908787808269
1040
1168.160003438524
1040
0.0
1040
2230.104706964481
1040
1168.160003438524
1040
-0.4150308263927536
1040
2099.6115334811911
1040
1298.289672009025
1040
0.0
1040
2099.6110276046888
1040
1723.023003467262
1040
0.0
1040
2059.6110276046888
1040
1723.023003438524
1040
0.0
1040
2059.6110276046888
1040
1128.1600034385251
1040
0.0
1040
2639.5585777051888
1040
1128.1600034385251
1040
0.0
1071
        0
1071
        7
1070
     1
1070
     1
1071
        8
1040
2590.7556113498399
1040
1771.329009571964
1040
0.0
1040
2423.2033746755992
1040
1800.8729895756819
1040
0.0
1040
2416.2573597249939
1040
1761.4801811020079
1040
-0.4134132996443238
1040
2521.8834497156131
1040
1611.0863907437611
1040
0.0
1040
2480.2623827363682
1040
1375.041590271268
1040
-0.4150473373364682
1040
2329.442554473495
1040
1269.128954406279
1040
0.0
1040
2322.4965394582468
1040
1229.736145896275
1040
0.0
1040
2490.048776132488
1040
1200.1921658925569
1040
0.0
1071
        0
1071
        7
1070
     1
1070
     1
1071
       10
1040
2929.5323527554428
1040
1913.023003438524
1040
0.0
1040
2349.5848026549429
1040
1913.023003438524
1040
0.0
1040
2349.5848026549429
1040
1318.1600034385251
1040
0.0
1040
2389.5848026549429
1040
1318.160003409786
1040
0.0
1040
2389.5853085314452
1040
1742.8933348680241
1040
-0.4133967703717829
1040
2519.3524847771619
1040
1873.023003438524
1040
0.0
1040
2759.0386902918149
1040
1873.023003438524
1040
-0.4150307884470747
1040
2889.5318469259478
1040
1742.8933348210239
1040
0.0
1040
2889.5323527554428
1040
1318.1600034099149
1040
0.0
1040
2929.5323527554428
1040
1318.1600034385251
1040
0.0
1071
        0
1071
        7
1070
     1
1070
     1
1071
        8
1040
2781.3344008197269
1040
1839.9342827443229
1040
0.0
1040
2613.7821641454871
1040
1810.3903027406029
1040
0.0
1040
2620.7281791526989
1040
1770.9974942769111
1040
-0.4134132996463708
1040
2771.4219422131318
1040
1665.7998097018719
1040
0.0
1040
2813.043009192108
1040
1429.7550092309009
1040
-0.4150473373379063
1040
2707.5429844039459
1040
1278.646267581136
1040
0.0
1040
2714.488999362839
1040
1239.2534590611961
1040
0.0
1040
2882.0412360370792
1040
1268.797439064916
1040
0.0
1071
        0
1071
        7
1070
     0
1070
     1
1071
        4
1040
2739.3453508483981
1040
813.4023001554533
1040
1724.809959281527
1040
819.99817062756665
1040
1724.809959281527
1040
783.627522094288
1040
2739.3453508484022
1040
783.62752238094981
1071
        0
1071
        7
1070
     0
1070
     1
1071
        4
1040
2974.809959281527
1040
755.68040703500355
1040
1724.809959281527
1040
755.68040703500435
1040
1724.809959281527
1040
712.73901826291046
1040
2974.809959281527
1040
720.79744430365724
1071
        0
1070
     1
1070
     1
1040
0.0
1040
15.0
1070
     0
1070
     1
1040
0.7853981633974483
1040
-24530.458483034941
1040
7386.1975867472138
1040
-33.675960454009321
1040
33.675960454009328
1070
     0
1040
2.1161256467231149
1071
        9
1040
1804.91583358086
1040
1896.3865873580139
1040
0.0
1040
1881.1394658867789
1040
1769.419080958425
1040
0.0
1040
2120.3968864956701
1040
1788.4642381259471
1040
0.0
1040
2118.279639299144
1040
1147.278112354936
1040
0.0
1040
2463.4031599451559
1040
1253.0843792462911
1040
0.0
1040
2393.5315569373488
1040
1879.4575818813901
1040
0.0
1040
2736.5378303868351
1040
1782.1158524034399
1040
0.0
1040
2027.234701200505
1040
806.58185113155923
1040
0.0
1040
1965.8323746873059
1040
743.09806325666432
1040
0.0
1002
}
  0
INSERT
  5
2B43
  8
GEBRUIKT
  6
CONTINUOUS
  2
*X81
 10
0.0
 20
0.0
 30
0.0
1001
GRADIENTCOLOR1ACI
1070
     5
1001
GRADIENTCOLOR2ACI
1070
     2
1001
ACAD
1000
HATCH
1002
{
1070
    19
1000
ANSI31
1040
15.0
1040
0.0
1000
R14_HATCH_DATA
1000
2B43
1011
1.0
1021
0.0
1031
0.0
1021
0.0
1031
0.0
1011
0.0
1021
0.0
1031
0.0
1021
1.0
1031
0.0
1011
0.0
1021
0.0
1031
0.0
1021
0.0
1031
1.0
1040
0.0
1010
0.0
1020
0.0
1030
1.0
1000
ANSI31
1070
     0
1070
     0
1071
        9
1071
        5
1071
       11
1070
     1
1040
1704.8099592815299
1040
755.68040703500435
1040
1121.561434722822
1040
755.68040703500355
1070
     2
1040
1121.5581422098769
1040
775.6816008745036
1040
20.0011941105003
1040
1.57063171097536
1040
3.1954196564570689
1070
     0
1070
     1
1040
1101.585916296375
1040
776.75768539996159
1040
1101.5852943348759
1040
1291.6894208335009
1070
     2
1040
941.59368565837565
1040
1291.6894208335009
1040
159.99160867650181
1040
0.0
1040
1.5735858340379509
1070
     1
1070
     1
1040
941.14738848594425
1040
1451.680407035002
1040
583.85909518284086
1040
1451.680407035002
1070
     3
1040
583.85921250637318
1040
1471.680407035002
1040
20.033897009499999
1040
0.0
1040
0.9983080172000001
1040
7.853987490225621
1040
9.4247779607795863
1070
     0
1070
     1
1040
563.8253154968769
1040
1471.6804070351641
1040
563.8253154968769
1040
1704.0730817993781
1070
     1
1040
563.8253154968769
1040
1704.0730817993781
1040
464.7515971854736
1040
1704.0730817993781
1070
     1
1040
464.7515971854736
1040
1704.0730817993781
1040
464.7515971854736
1040
706.25057272720005
1070
     1
1040
464.7515971854736
1040
706.25057272720005
1040
1704.8099592815299
1040
712.73901826290955
1070
     1
1040
1704.8099592815299
1040
712.73901826290955
1040
1704.8099592815299
1040
755.68040703500435
1071
        0
1071
       22
1070
     1
1070
     1
1071
        8
1040
943.70611943197935
1040
738.18040703500355
1040
0.0
1040
704.01991409600305
1040
738.18040703500355
1040
-0.4150307888501878
1040
573.5267572828742
1040
868.31007565200332
1040
0.0
1040
573.52675732996795
1040
1293.0505834880109
1040
-0.4133971189871718
1040
703.29393357560537
1040
1423.1804070350031
1040
0.0
1040
942.98013909059216
1040
1423.1804070350031
1040
-0.4150307884462933
1040
1073.4732957243791
1040
1293.050738417503
1040
0.0
1040
1073.4732956772821
1040
868.31023058199287
1040
-0.413397118986412
1071
        0
1071
       23
1070
     0
1070
     1
1071
        5
1040
1704.8099592815299
1040
819.99817062756665
1040
1503.3997357731639
1040
821.30761311430786
1040
1158.0804606752281
1040
823.11463015564368
1040
1158.082242523014
1040
783.62752193980759
1040
1704.8099592815299
1040
783.627522094288
1071
        0
1071
       23
1070
     1
1070
     1
1071
       10
1040
1691.7243089966869
1040
1447.1367081729711
1040
0.0
1040
1651.7243089966869
1040
1447.1367082015799
1040
0.0
1040
1651.7238031671909
1040
1022.403376790471
1040
-0.4133968082736203
1040
1521.9566100723241
1040
892.27370817297185
1040
0.0
1040
1282.270438255978
1040
892.27370817297185
1040
-0.4150308263927538
1040
1151.777264772689
1040
1022.403376743472
1040
0.0
1040
1151.7767588961869
1040
1447.1367082017091
1040
0.0
1040
1111.7767588961869
1040
1447.1367081729711
1040
0.0
1040
1111.7767588961869
1040
852.27370817297185
1040
0.0
1040
1691.7243089966869
1040
852.27370817297185
1040
0.0
1071
        0
1071
       23
1070
     1
1070
     1
1071
        8
1040
1481.4429918620219
1040
1157.6678843180309
1040
0.0
1040
1481.4429918620219
1040
1397.3540896533459
1040
-0.4150472996894407
1040
1611.579991833285
1040
1527.8472462593129
1040
0.0
1040
1611.5799918620251
1040
1567.8477522953319
1040
0.0
1040
1441.4429918620231
1040
1567.8477522953319
1040
0.0
1040
1441.4429918620231
1040
987.90020219483267
1040
0.0
1040
1611.5799918620251
1040
987.90020219483267
1040
0.0
1040
1611.579991833416
1040
1027.9007082778539
1040
-0.4134132622531715
1071
        0
1071
       23
1070
     0
1070
     1
1071
        4
1040
1368.270942403178
1040
1602.308155307619
1040
648.27094240317808
1040
1602.308155307619
1040
648.27094240317808
1040
1502.308155307619
1040
1368.270942403178
1040
1502.308155307619
1071
        0
1071
       23
1070
     0
1070
     1
1071
        4
1040
1368.270942403178
1040
1702.308155307619
1040
648.27094240317808
1040
1702.308155307619
1040
648.27094240317808
1040
1602.308155307619
1040
1368.270942403178
1040
1602.308155307619
1071
        0
1071
        7
1070
     0
1070
     1
1071
        4
1040
1368.270942403178
1040
1802.308155307619
1040
648.27094240317808
1040
1802.308155307619
1040
648.27094240317808
1040
1702.308155307619
1040
1368.270942403178
1040
1702.308155307619
1071
        0
1071
        7
1070
     0
1070
     1
1071
        4
1040
1368.270942403178
1040
1902.308155307619
1040
648.27094240317808
1040
1902.308155307619
1040
648.27094240317808
1040
1802.308155307619
1040
1368.270942403178
1040
1802.308155307619
1071
        0
1070
     1
1070
     1
1040
0.0
1040
15.0
1070
     0
1070
     1
1040
0.7853981633974483
1040
-24530.458483034941
1040
7386.1975867472138
1040
-33.675960454009321
1040
33.675960454009328
1070
     0
1040
2.1161256467231149
1071
        9
1040
1068.087483859854
1040
732.51744350255456
1040
0.0
1040
1068.087483859854
1040
732.51744350255456
1040
0.0
1040
1231.1212721628251
1040
800.23346540904447
1040
0.0
1040
1154.8976398569059
1040
889.11079617396899
1040
0.0
1040
1464.0268073279001
1040
1039.3556937726819
1040
0.0
1040
1197.2441661843329
1040
1570.5032492705429
1040
0.0
1040
1167.601554598863
1040
1646.6838085904451
1040
0.0
1040
1101.964589838346
1040
1750.3739237909031
1040
0.0
1040
1065.9700928090599
1040
1858.296342373156
1040
0.0
1002
}
  0
DIMENSION
  5
2B54
  8
DIM
  2
*D36
 10
1704.809959281527
 20
149.172496765299
 30
0.0
 11
1079.809959281527
 21
286.672496765299
 31
0.0
 70
     0
 13
454.80995928152691
 23
699.02206374621892
 33
0.0
 14
1704.809959281527
 24
699.02206374621892
 34
0.0
  0
DIMENSION
  5
2B6C
  8
DIM
  2
*D37
 10
2974.809959281527
 20
149.172496765299
 30
0.0
 11
2349.809959281527
 21
286.672496765299
 31
0.0
 70
     0
 13
1724.809959281527
 23
699.02206374621892
 33
0.0
 14
2974.809959281527
 24
699.02206374621892
 34
0.0
  0
DIMENSION
  5
2B8D
  8
DIM
  2
*D38
 10
289.88319259433769
 20
699.02206374621892
 30
0.0
 11
152.3831925943376
 21
1324.0220637462189
 31
0.0
 70
     0
 13
454.80995928152691
 23
1949.0220637462189
 33
0.0
 14
454.80995928152691
 24
699.02206374621892
 34
0.0
 50
90.0
  0
INSERT
  5
2BC8
  8
DATUM
  2
*U82
 10
0.0
 20
0.0
 30
0.0
  0
ENDSEC
  0
EOF
