  0
SECTION
  2
HEADER
  9
$ACADVER
  1
AC1009
  9
$INSBASE
 10
0.0
 20
0.0
 30
0.0
  9
$EXTMIN
 10
144.78735699580281
 20
80.871638777927728
 30
-0.0000000000000058
  9
$EXTMAX
 10
2883.3992686781271
 20
2062.4843230580232
 30
0.0000000000000104
  9
$LIMMIN
 10
0.0
 20
0.0
  9
$LIMMAX
 10
1189.0
 20
841.0
  9
$ORTHOMODE
 70
     0
  9
$REGENMODE
 70
     1
  9
$FILLMODE
 70
     1
  9
$QTEXTMODE
 70
     0
  9
$MIRRTEXT
 70
     0
  9
$DRAGMODE
 70
     2
  9
$LTSCALE
 40
100.0
  9
$OSMODE
 70
    37
  9
$ATTMODE
 70
     1
  9
$TEXTSIZE
 40
20.0
  9
$TRACEWID
 40
0.05
  9
$TEXTSTYLE
  7
STANDARD
  9
$CLAYER
  8
0
  9
$CELTYPE
  6
BYLAYER
  9
$CECOLOR
 62
   256
  9
$DIMSCALE
 40
50.0
  9
$DIMASZ
 40
4.0
  9
$DIMEXO
 40
1.0
  9
$DIMDLI
 40
0.38
  9
$DIMRND
 40
0.0
  9
$DIMDLE
 40
0.0
  9
$DIMEXE
 40
1.5
  9
$DIMTP
 40
0.01
  9
$DIMTM
 40
0.01
  9
$DIMTXT
 40
3.5
  9
$DIMCEN
 40
0.09
  9
$DIMTSZ
 40
0.0
  9
$DIMTOL
 70
     0
  9
$DIMLIM
 70
     0
  9
$DIMTIH
 70
     0
  9
$DIMTOH
 70
     0
  9
$DIMSE1
 70
     0
  9
$DIMSE2
 70
     0
  9
$DIMTAD
 70
     1
  9
$DIMZIN
 70
     8
  9
$DIMBLK
  1
_FILLED
  9
$DIMASO
 70
     1
  9
$DIMSHO
 70
     1
  9
$DIMPOST
  1

  9
$DIMAPOST
  1

  9
$DIMALT
 70
     0
  9
$DIMALTD
 70
     2
  9
$DIMALTF
 40
25.399999999999999
  9
$DIMLFAC
 40
1.0
  9
$DIMTOFL
 70
     0
  9
$DIMTVP
 40
0.0
  9
$DIMTIX
 70
     0
  9
$DIMSOXD
 70
     0
  9
$DIMSAH
 70
     0
  9
$DIMBLK1
  1

  9
$DIMBLK2
  1

  9
$DIMSTYLE
  2
STANDARD
  9
$DIMCLRD
 70
   256
  9
$DIMCLRE
 70
   256
  9
$DIMCLRT
 70
   256
  9
$DIMTFAC
 40
1.0
  9
$DIMGAP
 40
1.0
  9
$LUNITS
 70
     2
  9
$LUPREC
 70
     4
  9
$SKETCHINC
 40
0.1
  9
$FILLETRAD
 40
0.0
  9
$AUNITS
 70
     0
  9
$AUPREC
 70
     0
  9
$MENU
  1
.
  9
$ELEVATION
 40
0.0
  9
$PELEVATION
 40
0.0
  9
$THICKNESS
 40
0.0
  9
$LIMCHECK
 70
     0
  9
$BLIPMODE
 70
     0
  9
$CHAMFERA
 40
0.0
  9
$CHAMFERB
 40
0.0
  9
$SKPOLY
 70
     0
  9
$TDCREATE
 40
2456441.3711821642
  9
$TDUPDATE
 40
2456442.466086702
  9
$TDINDWG
 40
0.4016623843
  9
$TDUSRTIMER
 40
0.4016623843
  9
$USRTIMER
 70
     1
  9
$ANGBASE
 50
0.0
  9
$ANGDIR
 70
     0
  9
$PDMODE
 70
     3
  9
$PDSIZE
 40
4.0
  9
$PLINEWID
 40
0.0
  9
$COORDS
 70
     1
  9
$SPLFRAME
 70
     0
  9
$SPLINETYPE
 70
     6
  9
$SPLINESEGS
 70
     8
  9
$ATTDIA
 70
     0
  9
$ATTREQ
 70
     1
  9
$HANDLING
 70
     1
  9
$HANDSEED
  5
2D6B
  9
$SURFTAB1
 70
     6
  9
$SURFTAB2
 70
     6
  9
$SURFTYPE
 70
     6
  9
$SURFU
 70
     6
  9
$SURFV
 70
     6
  9
$UCSNAME
  2

  9
$UCSORG
 10
0.0
 20
0.0
 30
0.0
  9
$UCSXDIR
 10
1.0
 20
0.0
 30
0.0
  9
$UCSYDIR
 10
0.0
 20
1.0
 30
0.0
  9
$PUCSNAME
  2

  9
$PUCSORG
 10
0.0
 20
0.0
 30
0.0
  9
$PUCSXDIR
 10
1.0
 20
0.0
 30
0.0
  9
$PUCSYDIR
 10
0.0
 20
1.0
 30
0.0
  9
$USERI1
 70
     0
  9
$USERI2
 70
     0
  9
$USERI3
 70
     0
  9
$USERI4
 70
     0
  9
$USERI5
 70
     0
  9
$USERR1
 40
0.0
  9
$USERR2
 40
0.0
  9
$USERR3
 40
0.0
  9
$USERR4
 40
0.0
  9
$USERR5
 40
0.0
  9
$WORLDVIEW
 70
     1
  9
$SHADEDGE
 70
     3
  9
$SHADEDIF
 70
    70
  9
$TILEMODE
 70
     1
  9
$MAXACTVP
 70
    64
  9
$PLIMCHECK
 70
     0
  9
$PEXTMIN
 10
1.0000000000000000E+020
 20
1.0000000000000000E+020
 30
1.0000000000000000E+020
  9
$PEXTMAX
 10
-1.0000000000000000E+020
 20
-1.0000000000000000E+020
 30
-1.0000000000000000E+020
  9
$PLIMMIN
 10
0.0
 20
0.0
  9
$PLIMMAX
 10
12.0
 20
9.0
  9
$UNITMODE
 70
     0
  9
$VISRETAIN
 70
     1
  9
$PLINEGEN
 70
     0
  9
$PSLTSCALE
 70
     1
  0
ENDSEC
  0
SECTION
  2
TABLES
  0
TABLE
  2
VPORT
 70
     1
  0
VPORT
  2
*ACTIVE
 70
     0
 10
0.0
 20
0.0
 11
1.0
 21
1.0
 12
1441.699634339064
 22
1031.2421615290109
 13
0.0
 23
0.0
 14
1.0
 24
1.0
 15
0.0
 25
0.0
 16
0.0
 26
0.0
 36
1.0
 17
0.0
 27
0.0
 37
0.0
 40
2075.9940456981399
 41
2.0743169398907102
 42
50.0
 43
0.0
 44
0.0
 50
0.0
 51
0.0
 71
     0
 72
   100
 73
     1
 74
     1
 75
     0
 76
     0
 77
     0
 78
     0
  0
ENDTAB
  0
TABLE
  2
LTYPE
 70
     6
  0
LTYPE
  2
CONTINUOUS
 70
     0
  3
Solid line
 72
    65
 73
     0
 40
0.0
  0
LTYPE
  2
CENTER
 70
     0
  3
____ _ ____ _ ____ _ ____ _ ____ _ ____ _ ____
 72
    65
 73
     4
 40
0.6
 49
0.375
 49
-0.075
 49
0.075
 49
-0.075
  0
LTYPE
  2
HIDDEN
 70
     0
  3
- - - - - - - - - - - - - - - - - - - -
 72
    65
 73
     2
 40
0.2
 49
0.1
 49
-0.1
  0
LTYPE
  2
PHANTOM
 70
     0
  3
_____ _ _ _____ _ _ _____ _ _ _____
 72
    65
 73
     6
 40
0.8
 49
0.45
 49
-0.05
 49
0.1
 49
-0.05
 49
0.1
 49
-0.05
  0
LTYPE
  2
DOT
 70
     0
  3
. . . . . . . . . . . . . . . . . . . .
 72
    65
 73
     2
 40
0.2
 49
0.1
 49
-0.1
  0
LTYPE
  2
DASHED
 70
     0
  3
- - - - - - - - - - - - - - - - - - - -
 72
    65
 73
     2
 40
0.2
 49
0.1
 49
-0.1
  0
ENDTAB
  0
TABLE
  2
LAYER
 70
    18
  0
LAYER
  2
0
 70
     0
 62
     7
  6
CONTINUOUS
  0
LAYER
  2
DEFPOINTS
 70
     0
 62
     7
  6
CONTINUOUS
  0
LAYER
  2
DIM
 70
     0
 62
    -5
  6
CONTINUOUS
  0
LAYER
  2
UITSLAG
 70
     0
 62
    70
  6
CONTINUOUS
  0
LAYER
  2
UNIE640
 70
     0
 62
   220
  6
CONTINUOUS
  0
LAYER
  2
DATUM
 70
     0
 62
    -7
  6
CONTINUOUS
  0
ENDTAB
  0
TABLE
  2
STYLE
 70
     3
  0
STYLE
  2
STANDARD
 70
     0
 40
0.0
 41
0.8
 50
0.0
 71
     0
 42
20.0
  3
txt
  4

  0
STYLE
  2
TEXTSTYLE_1
 70
     0
 40
0.0
 41
0.8
 50
0.0
 71
     0
 42
0.2
  3
gdt
  4

  0
STYLE
  2

 70
     1
 40
0.0
 41
1.0
 50
0.0
 71
     0
 42
0.2
  3
ltypeshp.shx
  4

  0
ENDTAB
  0
TABLE
  2
VIEW
 70
     2
  0
ENDTAB
  0
TABLE
  2
UCS
 70
     0
  0
ENDTAB
  0
TABLE
  2
APPID
 70
    11
  0
APPID
  2
ACAD
 70
     0
  0
APPID
  2
ACAD_NAV_VCDISPLAY
 70
     0
  0
APPID
  2
ACAECLAYERSTANDARD
 70
     0
  0
APPID
  2
ACCMTRANSPARENCY
 70
     0
  0
APPID
  2
ACAD_DSTYLE_DIMJAG
 70
     0
  0
APPID
  2
ACAD_DSTYLE_DIMTALN
 70
     0
  0
APPID
  2
ACAD_EXEMPT_FROM_CAD_STANDARDS
 70
     0
  0
APPID
  2
GRADIENTCOLOR1ACI
 70
     0
  0
APPID
  2
GRADIENTCOLOR2ACI
 70
     0
  0
APPID
  2
ACAD_PSEXT
 70
     0
  0
APPID
  2
ACAD_MLEADERVER
 70
     0
  0
ENDTAB
  0
TABLE
  2
DIMSTYLE
 70
     2
  0
DIMSTYLE
  2
STANDARD
 70
     0
  3

  4

  5
_FILLED
  6

  7

 40
50.0
 41
4.0
 42
1.0
 43
0.38
 44
1.5
 45
0.0
 46
0.0
 47
0.01
 48
0.01
140
3.5
141
0.09
142
0.0
143
25.399999999999999
144
1.0
145
0.0
146
1.0
147
1.0
 71
     0
 72
     0
 73
     0
 74
     0
 75
     0
 76
     0
 77
     1
 78
     8
170
     0
171
     2
172
     0
173
     0
174
     0
175
     0
176
   256
177
   256
178
   256
  0
DIMSTYLE
  2
DIMSTYLE_1
 70
     0
  3

  4

  5
_FILLED
  6
_FILLED
  7
_FILLED
 40
1.0
 41
4.0
 42
1.0
 43
0.38
 44
1.5
 45
0.0
 46
0.0
 47
0.5
 48
0.5
140
3.5
141
0.09
142
0.0
143
25.399999999999999
144
5.0
145
0.0
146
1.0
147
0.875
 71
     0
 72
     0
 73
     0
 74
     0
 75
     0
 76
     0
 77
     1
 78
     8
170
     0
171
     2
172
     0
173
     0
174
     0
175
     0
176
     0
177
     0
178
     0
  0
ENDTAB
  0
ENDSEC
  0
SECTION
  2
BLOCKS
  0
BLOCK
  8
0
  2
$MODEL_SPACE
 70
     0
 10
0.0
 20
0.0
 30
0.0
  3
$MODEL_SPACE
  1

  0
ENDBLK
  5
21
  8
0
  0
BLOCK
 67
     1
  8
0
  2
$PAPER_SPACE
 70
     0
 10
0.0
 20
0.0
 30
0.0
  3
$PAPER_SPACE
  1

  0
ENDBLK
  5
1D
 67
     1
  8
0
  0
BLOCK
  8
0
  2
_FILLED
 70
     0
 10
0.0
 20
0.0
 30
0.0
  3
_FILLED
  1

  0
SOLID
  5
25A
  8
0
  6
BYBLOCK
 62
     0
 10
0.0
 20
0.0
 30
0.0
 11
-1.0
 21
0.1875
 31
0.0
 12
-1.0
 22
-0.1875
 32
0.0
 13
-1.0
 23
-0.1875
 33
0.0
  0
ENDBLK
  5
25B
  8
0
  6
BYBLOCK
 62
     0
  0
BLOCK
  8
0
  2
*D1
 70
     1
 10
0.0
 20
0.0
 30
0.0
  3
*D1
  1

  0
LINE
  5
1733
  8
DIM
 10
2936.1865263045979
 20
43.2388760447393
 30
0.0
 11
2936.1865263045979
 21
-57.655039854726049
 31
0.0
  0
LINE
  5
1734
  8
DIM
 10
5445.7670126381081
 20
98.103921219570111
 30
0.0
 11
5445.7670126381081
 21
-57.655039854726049
 31
0.0
  0
LINE
  5
1735
  8
DIM
 10
3136.1865263045979
 20
17.344960145273941
 30
0.0
 11
5245.7670126381081
 21
17.344960145273941
 31
0.0
  0
INSERT
  5
1736
  8
DIM
  2
_FILLED
 10
2936.1865263045979
 20
17.344960145273941
 30
0.0
 41
200.0
 42
200.0
 43
200.0
 50
180.0
  0
INSERT
  5
1737
  8
DIM
  2
_FILLED
 10
5445.7670126381081
 20
17.344960145273941
 30
0.0
 41
200.0
 42
200.0
 43
200.0
  0
INSERT
  5
1738
  8
0
  2
*U41
 10
0.0
 20
0.0
 30
0.0
  0
POINT
  5
1739
  8
DEFPOINTS
 62
     0
 10
2936.1865263045979
 20
93.238876044739285
 30
0.0
  0
POINT
  5
173A
  8
DEFPOINTS
 62
     0
 10
5445.7670126381081
 20
148.10392121957011
 30
0.0
  0
POINT
  5
173B
  8
DEFPOINTS
 62
     0
 10
5445.7670126381081
 20
17.344960145273941
 30
0.0
  0
ENDBLK
  5
9E5
  8
0
  0
BLOCK
  8
0
  2
*D2
 70
     1
 10
0.0
 20
0.0
 30
0.0
  3
*D2
  1

  0
ARC
  5
173C
  8
DIM
 10
5406.1744375460003
 20
256.91165162699963
 30
0.0
 40
87.590404158196449
 50
274.2650191255911
 51
94.265019125591166
  0
LINE
  5
173D
  8
DIM
 10
5412.6885271460296
 20
169.5638094253809
 30
0.0
 11
4661.4413813242663
 21
113.5384847430109
 31
0.0
  0
ARC
  5
173E
  8
DIM
 10
5406.1744375460003
 20
256.91165162699963
 30
0.0
 40
87.590404158196449
 50
94.265019125591166
 51
274.2650191255911
  0
ARC
  5
173F
  8
DIM
 10
5406.1744375460003
 20
256.91165162699963
 30
0.0
 40
87.590404158196449
 50
359.99501912557741
 51
179.99501912557739
  0
INSERT
  5
1740
  8
DIM
  2
_FILLED
 10
5399.66034794597
 20
344.25949382861882
 30
0.0
 41
200.0
 42
200.0
 43
200.0
 50
94.265019125591166
  0
INSERT
  5
1741
  8
DIM
  2
_FILLED
 10
5318.5840337187756
 20
256.91926609366561
 30
0.0
 41
200.0
 42
200.0
 43
200.0
 50
179.99501912557739
  0
INSERT
  5
1742
  8
0
  2
*U42
 10
0.0
 20
0.0
 30
0.0
  0
POINT
  5
1743
  8
DEFPOINTS
 62
     0
 10
5358.6724424334234
 20
330.50267934723797
 30
0.0
  0
POINT
  5
1744
  8
DEFPOINTS
 62
     0
 10
4229.9625197175001
 20
257.01390285600019
 30
0.0
  0
POINT
  5
1745
  8
DEFPOINTS
 62
     0
 10
5406.1744375460003
 20
256.91165162699963
 30
0.0
  0
POINT
  5
1746
  8
DEFPOINTS
 62
     0
 10
5382.3120263068586
 20
576.88424326234269
 30
0.0
  0
POINT
  5
1747
  8
DEFPOINTS
 62
     0
 10
5406.1744375460003
 20
256.91165162699963
 30
0.0
  0
ENDBLK
  5
A14
  8
0
  0
BLOCK
  8
0
  2
*D3
 70
     1
 10
0.0
 20
0.0
 30
0.0
  3
*D3
  1

  0
LINE
  5
1748
  8
UITSLAG
 10
5455.5355907190014
 20
1821.6216381595
 30
0.0
 11
5745.5131728042506
 21
1821.6216381595
 31
0.0
  0
LINE
  5
1749
  8
UITSLAG
 10
5455.5373517680009
 20
1101.5885082305001
 30
0.0
 11
5745.5131728042506
 21
1101.5885082305001
 31
0.0
  0
LINE
  5
174A
  8
UITSLAG
 10
5670.5131728042506
 20
1621.6216381594991
 30
0.0
 11
5670.5131728042506
 21
1301.5885082305001
 31
0.0
  0
INSERT
  5
174B
  8
UITSLAG
  2
_FILLED
 10
5670.5131728042506
 20
1821.6216381595
 30
0.0
 41
200.0
 42
200.0
 43
200.0
 50
90.0
  0
INSERT
  5
174C
  8
UITSLAG
  2
_FILLED
 10
5670.5131728042506
 20
1101.5885082305001
 30
0.0
 41
200.0
 42
200.0
 43
200.0
 50
270.0
  0
INSERT
  5
174D
  8
0
  2
*U43
 10
0.0
 20
0.0
 30
0.0
  0
POINT
  5
174E
  8
DEFPOINTS
 62
     0
 10
5405.5355907190014
 20
1821.6216381595
 30
0.0
  0
POINT
  5
174F
  8
DEFPOINTS
 62
     0
 10
5405.537351768
 20
1101.5885082305001
 30
0.0
  0
POINT
  5
1750
  8
DEFPOINTS
 62
     0
 10
5670.5131728042506
 20
1101.5885082305001
 30
0.0
  0
ENDBLK
  5
A4B
  8
0
  0
BLOCK
  8
0
  2
*D4
 70
     1
 10
0.0
 20
0.0
 30
0.0
  3
*D4
  1

  0
LINE
  5
1751
  8
UITSLAG
 10
4245.7670126381081
 20
1829.4432826815289
 30
0.0
 11
4372.9706120807787
 21
1829.4432826815289
 31
0.0
  0
LINE
  5
1752
  8
UITSLAG
 10
4245.7670126381081
 20
1093.7647976185699
 30
0.0
 11
4372.9706120807787
 21
1093.7647976185699
 31
0.0
  0
LINE
  5
1753
  8
UITSLAG
 10
4297.9706120807787
 20
1629.4432826815289
 30
0.0
 11
4297.9706120807787
 21
1293.7647976185699
 31
0.0
  0
INSERT
  5
1754
  8
UITSLAG
  2
_FILLED
 10
4297.9706120807787
 20
1829.4432826815289
 30
0.0
 41
200.0
 42
200.0
 43
200.0
 50
90.0
  0
INSERT
  5
1755
  8
UITSLAG
  2
_FILLED
 10
4297.9706120807787
 20
1093.7647976185699
 30
0.0
 41
200.0
 42
200.0
 43
200.0
 50
270.0
  0
INSERT
  5
1756
  8
0
  2
*U44
 10
0.0
 20
0.0
 30
0.0
  0
POINT
  5
1757
  8
DEFPOINTS
 62
     0
 10
4195.7670126381081
 20
1829.4432826815289
 30
0.0
  0
POINT
  5
1758
  8
DEFPOINTS
 62
     0
 10
4195.7670126381081
 20
1093.7647976185699
 30
0.0
  0
POINT
  5
1759
  8
DEFPOINTS
 62
     0
 10
4297.9706120807787
 20
1093.7647976185699
 30
0.0
  0
ENDBLK
  5
A6C
  8
0
  0
BLOCK
  8
0
  2
*D5
 70
     1
 10
0.0
 20
0.0
 30
0.0
  3
*D5
  1

  0
LINE
  5
175A
  8
UITSLAG
 10
4145.7670126381081
 20
1829.4432826815289
 30
0.0
 11
4057.7349735643038
 21
1829.4432826815289
 31
0.0
  0
LINE
  5
175B
  8
UITSLAG
 10
4145.7670126381081
 20
1461.604039392
 30
0.0
 11
4057.7349735643038
 21
1461.604039392
 31
0.0
  0
LINE
  5
175C
  8
UITSLAG
 10
4132.7349735643029
 20
2029.44328268153
 30
0.0
 11
4132.7349735643038
 21
2229.44328268153
 31
0.0
  0
LINE
  5
175D
  8
UITSLAG
 10
4132.7349735643029
 20
1261.604039392
 30
0.0
 11
4132.7349735643029
 21
588.27070605866675
 31
0.0
  0
INSERT
  5
175E
  8
UITSLAG
  2
_FILLED
 10
4132.7349735643029
 20
1829.4432826815289
 30
0.0
 41
200.0
 42
200.0
 43
200.0
 50
270.0
  0
INSERT
  5
175F
  8
UITSLAG
  2
_FILLED
 10
4132.7349735643029
 20
1461.604039392
 30
0.0
 41
200.0
 42
200.0
 43
200.0
 50
90.0
  0
INSERT
  5
1760
  8
0
  2
*U45
 10
0.0
 20
0.0
 30
0.0
  0
POINT
  5
1761
  8
DEFPOINTS
 62
     0
 10
4195.7670126381081
 20
1829.4432826815289
 30
0.0
  0
POINT
  5
1762
  8
DEFPOINTS
 62
     0
 10
4195.7670126381081
 20
1461.604039392
 30
0.0
  0
POINT
  5
1763
  8
DEFPOINTS
 62
     0
 10
4132.7349735643029
 20
1461.604039392
 30
0.0
  0
ENDBLK
  5
AEE
  8
0
  0
BLOCK
  8
0
  2
*D6
 70
     1
 10
0.0
 20
0.0
 30
0.0
  3
*D6
  1

  0
LINE
  5
1764
  8
UITSLAG
 10
4145.7670126381081
 20
1461.604039392
 30
0.0
 11
4056.2349735643038
 21
1461.604039392
 31
0.0
  0
LINE
  5
1765
  8
UITSLAG
 10
4145.7670126381081
 20
1093.7647976185699
 30
0.0
 11
4056.2349735643038
 21
1093.7647976185699
 31
0.0
  0
LINE
  5
1766
  8
UITSLAG
 10
4131.2349735643029
 20
1661.604039392
 30
0.0
 11
4131.2349735643029
 21
1861.604039392
 31
0.0
  0
LINE
  5
1767
  8
UITSLAG
 10
4131.2349735643029
 20
893.76479761857036
 30
0.0
 11
4131.2349735643029
 21
220.43146428523701
 31
0.0
  0
INSERT
  5
1768
  8
UITSLAG
  2
_FILLED
 10
4131.2349735643029
 20
1461.604039392
 30
0.0
 41
200.0
 42
200.0
 43
200.0
 50
270.0
  0
INSERT
  5
1769
  8
UITSLAG
  2
_FILLED
 10
4131.2349735643029
 20
1093.7647976185699
 30
0.0
 41
200.0
 42
200.0
 43
200.0
 50
90.0
  0
INSERT
  5
176A
  8
0
  2
*U46
 10
0.0
 20
0.0
 30
0.0
  0
POINT
  5
176B
  8
DEFPOINTS
 62
     0
 10
4195.7670126381081
 20
1461.604039392
 30
0.0
  0
POINT
  5
176C
  8
DEFPOINTS
 62
     0
 10
4195.7670126381081
 20
1093.7647976185699
 30
0.0
  0
POINT
  5
176D
  8
DEFPOINTS
 62
     0
 10
4131.2349735643029
 20
1093.7647976185699
 30
0.0
  0
ENDBLK
  5
B06
  8
0
  0
BLOCK
  8
0
  2
*D7
 70
     1
 10
0.0
 20
0.0
 30
0.0
  3
*D7
  1

  0
LINE
  5
176E
  8
UITSLAG
 10
3910.98946127
 20
1825.69089794
 30
0.0
 11
3837.4072171398302
 21
1825.69089794
 31
0.0
  0
LINE
  5
176F
  8
UITSLAG
 10
4146.7670126381072
 20
1093.7647976185699
 30
0.0
 11
3837.4072171398302
 21
1093.7647976185699
 31
0.0
  0
LINE
  5
1770
  8
UITSLAG
 10
3912.4072171398288
 20
1625.69089794
 30
0.0
 11
3912.4072171398288
 21
1293.7647976185699
 31
0.0
  0
INSERT
  5
1771
  8
UITSLAG
  2
_FILLED
 10
3912.4072171398288
 20
1825.69089794
 30
0.0
 41
200.0
 42
200.0
 43
200.0
 50
90.0
  0
INSERT
  5
1772
  8
UITSLAG
  2
_FILLED
 10
3912.4072171398288
 20
1093.7647976185699
 30
0.0
 41
200.0
 42
200.0
 43
200.0
 50
270.0
  0
INSERT
  5
1773
  8
0
  2
*U47
 10
0.0
 20
0.0
 30
0.0
  0
POINT
  5
1774
  8
DEFPOINTS
 62
     0
 10
3960.9894612699991
 20
1825.69089794
 30
0.0
  0
POINT
  5
1775
  8
DEFPOINTS
 62
     0
 10
4196.7670126381072
 20
1093.7647976185699
 30
0.0
  0
POINT
  5
1776
  8
DEFPOINTS
 62
     0
 10
3912.4072171398288
 20
1093.7647976185699
 30
0.0
  0
ENDBLK
  5
E56
  8
0
  0
BLOCK
  8
0
  2
*D8
 70
     1
 10
0.0
 20
0.0
 30
0.0
  3
*D8
  1

  0
LINE
  5
1777
  8
UITSLAG
 10
2886.1865263045979
 20
1461.604039392
 30
0.0
 11
2778.9594347652169
 21
1461.604039392
 31
0.0
  0
LINE
  5
1778
  8
UITSLAG
 10
2886.1865263045979
 20
1070.124612219
 30
0.0
 11
2778.9594347652169
 21
1070.124612219
 31
0.0
  0
LINE
  5
1779
  8
UITSLAG
 10
2853.9594347652169
 20
1661.604039392
 30
0.0
 11
2853.9594347652169
 21
1861.604039392
 31
0.0
  0
LINE
  5
177A
  8
UITSLAG
 10
2853.959434765216
 20
870.12461221899991
 30
0.0
 11
2853.959434765216
 21
243.4579455523334
 31
0.0
  0
INSERT
  5
177B
  8
UITSLAG
  2
_FILLED
 10
2853.9594347652169
 20
1461.604039392
 30
0.0
 41
200.0
 42
200.0
 43
200.0
 50
270.0
  0
INSERT
  5
177C
  8
UITSLAG
  2
_FILLED
 10
2853.9594347652169
 20
1070.124612219
 30
0.0
 41
200.0
 42
200.0
 43
200.0
 50
90.0
  0
INSERT
  5
177D
  8
0
  2
*U48
 10
0.0
 20
0.0
 30
0.0
  0
POINT
  5
177E
  8
DEFPOINTS
 62
     0
 10
2936.1865263045979
 20
1461.604039392
 30
0.0
  0
POINT
  5
177F
  8
DEFPOINTS
 62
     0
 10
2936.1865263045979
 20
1070.124612219
 30
0.0
  0
POINT
  5
1780
  8
DEFPOINTS
 62
     0
 10
2853.9594347652169
 20
1070.124612219
 30
0.0
  0
ENDBLK
  5
E6E
  8
0
  0
BLOCK
  8
0
  2
*D9
 70
     1
 10
0.0
 20
0.0
 30
0.0
  3
*D9
  1

  0
LINE
  5
1781
  8
UITSLAG
 10
2886.1865263045979
 20
2978.774253931525
 30
0.0
 11
2674.2411707745782
 21
2978.774253931525
 31
0.0
  0
LINE
  5
1782
  8
UITSLAG
 10
2886.1865263045979
 20
2820.5749437049672
 30
0.0
 11
2674.2411707745782
 21
2820.5749437049672
 31
0.0
  0
LINE
  5
1783
  8
UITSLAG
 10
2749.2411707745782
 20
3178.774253931525
 30
0.0
 11
2749.2411707745782
 21
3378.774253931525
 31
0.0
  0
LINE
  5
1784
  8
UITSLAG
 10
2749.2411707745782
 20
2620.5749437049672
 30
0.0
 11
2749.2411707745782
 21
1993.9082770383
 31
0.0
  0
INSERT
  5
1785
  8
UITSLAG
  2
_FILLED
 10
2749.2411707745782
 20
2978.774253931525
 30
0.0
 41
200.0
 42
200.0
 43
200.0
 50
270.0
  0
INSERT
  5
1786
  8
UITSLAG
  2
_FILLED
 10
2749.2411707745782
 20
2820.5749437049672
 30
0.0
 41
200.0
 42
200.0
 43
200.0
 50
90.0
  0
INSERT
  5
1787
  8
0
  2
*U49
 10
0.0
 20
0.0
 30
0.0
  0
POINT
  5
1788
  8
DEFPOINTS
 62
     0
 10
2936.1865263045979
 20
2978.774253931525
 30
0.0
  0
POINT
  5
1789
  8
DEFPOINTS
 62
     0
 10
2936.1865263045979
 20
2820.5749437049672
 30
0.0
  0
POINT
  5
178A
  8
DEFPOINTS
 62
     0
 10
2749.2411707745782
 20
2820.5749437049672
 30
0.0
  0
ENDBLK
  5
E9F
  8
0
  0
BLOCK
  8
0
  2
*D10
 70
     1
 10
0.0
 20
0.0
 30
0.0
  3
*D10
  1

  0
LINE
  5
178B
  8
UITSLAG
 10
2924.4223003470011
 20
2013.604039392
 30
0.0
 11
2524.8781036833539
 21
2013.604039392
 31
0.0
  0
LINE
  5
178C
  8
UITSLAG
 10
2886.9926711666949
 20
2084.9967141563752
 30
0.0
 11
2524.8781036833539
 21
2084.9967141563752
 31
0.0
  0
LINE
  5
178D
  8
UITSLAG
 10
2599.8781036833539
 20
1813.604039392
 30
0.0
 11
2599.8781036833539
 21
1613.604039392
 31
0.0
  0
LINE
  5
178E
  8
UITSLAG
 10
2599.8781036833539
 20
2284.9967141563752
 30
0.0
 11
2599.8781036833539
 21
2771.6633808230408
 31
0.0
  0
INSERT
  5
178F
  8
UITSLAG
  2
_FILLED
 10
2599.8781036833539
 20
2013.604039392
 30
0.0
 41
200.0
 42
200.0
 43
200.0
 50
90.0
  0
INSERT
  5
1790
  8
UITSLAG
  2
_FILLED
 10
2599.8781036833539
 20
2084.9967141563752
 30
0.0
 41
200.0
 42
200.0
 43
200.0
 50
270.0
  0
INSERT
  5
1791
  8
0
  2
*U50
 10
0.0
 20
0.0
 30
0.0
  0
POINT
  5
1792
  8
DEFPOINTS
 62
     0
 10
2974.4223003470011
 20
2013.604039392
 30
0.0
  0
POINT
  5
1793
  8
DEFPOINTS
 62
     0
 10
2936.9926711666949
 20
2084.9967141563752
 30
0.0
  0
POINT
  5
1794
  8
DEFPOINTS
 62
     0
 10
2599.8781036833539
 20
2084.9967141563752
 30
0.0
  0
ENDBLK
  5
1047
  8
0
  0
BLOCK
  8
0
  2
*D13
 70
     1
 10
0.0
 20
0.0
 30
0.0
  3
*D13
  1

  0
LINE
  5
20DA
  8
DIM
 10
24527.883446522839
 20
7724.4140131509103
 30
0.0
 11
24527.883446522839
 21
6141.0878216456331
 31
0.0
  0
LINE
  5
20DB
  8
DIM
 10
29580.29221546647
 20
6879.779935667073
 30
0.0
 11
29580.29221546647
 21
6141.0878216456331
 31
0.0
  0
LINE
  5
20DC
  8
DIM
 10
24727.883446522839
 20
6216.0878216456331
 30
0.0
 11
29380.29221546647
 21
6216.0878216456331
 31
0.0
  0
INSERT
  5
20DD
  8
DIM
  2
_FILLED
 10
24527.883446522839
 20
6216.0878216456331
 30
0.0
 41
200.0
 42
200.0
 43
200.0
 50
180.0
  0
INSERT
  5
20DE
  8
DIM
  2
_FILLED
 10
29580.29221546647
 20
6216.0878216456331
 30
0.0
 41
200.0
 42
200.0
 43
200.0
  0
INSERT
  5
20DF
  8
0
  2
*U52
 10
0.0
 20
0.0
 30
0.0
  0
POINT
  5
20E0
  8
DEFPOINTS
 62
     0
 10
24527.883446522839
 20
7774.4140131509093
 30
0.0
  0
POINT
  5
20E1
  8
DEFPOINTS
 62
     0
 10
29580.29221546647
 20
6929.7799356670739
 30
0.0
  0
POINT
  5
20E2
  8
DEFPOINTS
 62
     0
 10
29580.29221546647
 20
6216.0878216456331
 30
0.0
  0
ENDBLK
  5
16D4
  8
0
  0
BLOCK
  8
0
  2
*D14
 70
     1
 10
0.0
 20
0.0
 30
0.0
  3
*D14
  1

  0
LINE
  5
24E4
  8
DIM
 10
24317.820596925569
 20
-377.75178799772402
 30
0.0
 11
24317.820596925569
 21
-856.81257571207232
 31
0.0
  0
LINE
  5
24E5
  8
DIM
 10
34413.651345466569
 20
-354.99217399249579
 30
0.0
 11
34413.651345466569
 21
-856.81257571207232
 31
0.0
  0
LINE
  5
24E6
  8
DIM
 10
24517.820596925569
 20
-781.81257571207243
 30
0.0
 11
34213.651345466569
 21
-781.81257571207243
 31
0.0
  0
INSERT
  5
24E7
  8
DIM
  2
_FILLED
 10
24317.820596925569
 20
-781.81257571207243
 30
0.0
 41
200.0
 42
200.0
 43
200.0
 50
180.0
  0
INSERT
  5
24E8
  8
DIM
  2
_FILLED
 10
34413.651345466569
 20
-781.81257571207243
 30
0.0
 41
200.0
 42
200.0
 43
200.0
  0
INSERT
  5
24E9
  8
0
  2
*U67
 10
0.0
 20
0.0
 30
0.0
  0
POINT
  5
24EA
  8
DEFPOINTS
 62
     0
 10
24317.820596925569
 20
-327.75178799772402
 30
0.0
  0
POINT
  5
24EB
  8
DEFPOINTS
 62
     0
 10
34413.651345466569
 20
-304.99217399249579
 30
0.0
  0
POINT
  5
24EC
  8
DEFPOINTS
 62
     0
 10
34413.651345466569
 20
-781.81257571207243
 30
0.0
  0
ENDBLK
  5
16EC
  8
0
  0
BLOCK
  8
0
  2
*D15
 70
     1
 10
0.0
 20
0.0
 30
0.0
  3
*D15
  1

  0
LINE
  5
24ED
  8
DIM
 10
24267.820596925569
 20
-327.75178799772402
 30
0.0
 11
24045.058056268939
 21
-327.75178799772391
 31
0.0
  0
LINE
  5
24EE
  8
DIM
 10
24327.38947459697
 20
921.44206714008033
 30
0.0
 11
24045.058056268939
 21
921.44206714008033
 31
0.0
  0
LINE
  5
24EF
  8
DIM
 10
24120.058056268939
 20
-127.75178799772389
 30
0.0
 11
24120.058056268939
 21
721.44206714008044
 31
0.0
  0
INSERT
  5
24F0
  8
DIM
  2
_FILLED
 10
24120.058056268939
 20
-327.75178799772391
 30
0.0
 41
200.0
 42
200.0
 43
200.0
 50
270.0
  0
INSERT
  5
24F1
  8
DIM
  2
_FILLED
 10
24120.058056268939
 20
921.44206714008033
 30
0.0
 41
200.0
 42
200.0
 43
200.0
 50
90.0
  0
INSERT
  5
24F2
  8
0
  2
*U68
 10
0.0
 20
0.0
 30
0.0
  0
POINT
  5
24F3
  8
DEFPOINTS
 62
     0
 10
24317.820596925569
 20
-327.75178799772402
 30
0.0
  0
POINT
  5
24F4
  8
DEFPOINTS
 62
     0
 10
24377.38947459697
 20
921.44206714008033
 30
0.0
  0
POINT
  5
24F5
  8
DEFPOINTS
 62
     0
 10
24120.058056268939
 20
921.44206714008033
 30
0.0
  0
ENDBLK
  5
1704
  8
0
  0
BLOCK
  8
0
  2
*D16
 70
     1
 10
0.0
 20
0.0
 30
0.0
  3
*D16
  1

  0
LINE
  5
20F5
  8
DIM
 10
24541.775209260421
 20
6612.9688493690619
 30
0.0
 11
24176.960920637441
 21
6612.9688493690619
 31
0.0
  0
LINE
  5
20F6
  8
DIM
 10
26946.884893512059
 20
7962.9168123228419
 30
0.0
 11
24176.960920637441
 21
7962.9168123228437
 31
0.0
  0
LINE
  5
20F7
  8
DIM
 10
24251.960920637452
 20
6812.9688493690619
 30
0.0
 11
24251.960920637452
 21
7762.9168123228437
 31
0.0
  0
INSERT
  5
20F8
  8
DIM
  2
_FILLED
 10
24251.960920637452
 20
6612.9688493690619
 30
0.0
 41
200.0
 42
200.0
 43
200.0
 50
270.0
  0
INSERT
  5
20F9
  8
DIM
  2
_FILLED
 10
24251.960920637452
 20
7962.9168123228437
 30
0.0
 41
200.0
 42
200.0
 43
200.0
 50
90.0
  0
INSERT
  5
20FA
  8
0
  2
*U53
 10
0.0
 20
0.0
 30
0.0
  0
POINT
  5
20FB
  8
DEFPOINTS
 62
     0
 10
24591.775209260421
 20
6612.9688493690619
 30
0.0
  0
POINT
  5
20FC
  8
DEFPOINTS
 62
     0
 10
26996.884893512059
 20
7962.9168123228419
 30
0.0
  0
POINT
  5
20FD
  8
DEFPOINTS
 62
     0
 10
24251.960920637452
 20
7962.9168123228437
 30
0.0
  0
ENDBLK
  5
171C
  8
0
  0
BLOCK
  8
0
  2
*D17
 70
     1
 10
0.0
 20
0.0
 30
0.0
  3
*D17
  1

  0
LINE
  5
21FA
  8
DIM
 10
30029.137939768119
 20
10208.05478110321
 30
0.0
 11
30349.9859006365
 21
10208.05478110321
 31
0.0
  0
LINE
  5
21FB
  8
DIM
 10
30029.137939768119
 20
10928.05478110321
 30
0.0
 11
30349.9859006365
 21
10928.05478110321
 31
0.0
  0
LINE
  5
21FC
  8
DIM
 10
30274.9859006365
 20
10408.05478110321
 30
0.0
 11
30274.9859006365
 21
10728.05478110321
 31
0.0
  0
INSERT
  5
21FD
  8
DIM
  2
_FILLED
 10
30274.9859006365
 20
10208.05478110321
 30
0.0
 41
200.0
 42
200.0
 43
200.0
 50
270.0
  0
INSERT
  5
21FE
  8
DIM
  2
_FILLED
 10
30274.9859006365
 20
10928.05478110321
 30
0.0
 41
200.0
 42
200.0
 43
200.0
 50
90.0
  0
INSERT
  5
21FF
  8
0
  2
*U54
 10
0.0
 20
0.0
 30
0.0
  0
POINT
  5
2200
  8
DEFPOINTS
 62
     0
 10
29979.137939768119
 20
10208.05478110321
 30
0.0
  0
POINT
  5
2201
  8
DEFPOINTS
 62
     0
 10
29979.137939768119
 20
10928.05478110321
 30
0.0
  0
POINT
  5
2202
  8
DEFPOINTS
 62
     0
 10
30274.9859006365
 20
10928.05478110321
 30
0.0
  0
ENDBLK
  5
17CF
  8
0
  0
BLOCK
  8
0
  2
*D18
 70
     1
 10
0.0
 20
0.0
 30
0.0
  3
*D18
  1

  0
LINE
  5
2203
  8
DIM
 10
31251.589032612392
 20
10208.05478110321
 30
0.0
 11
31572.43699348078
 21
10208.05478110321
 31
0.0
  0
LINE
  5
2204
  8
DIM
 10
31251.589032612392
 20
10653.05478110321
 30
0.0
 11
31572.43699348078
 21
10653.05478110321
 31
0.0
  0
LINE
  5
2205
  8
DIM
 10
31497.43699348078
 20
10008.05478110321
 30
0.0
 11
31497.43699348078
 21
9808.0547811032156
 31
0.0
  0
LINE
  5
2206
  8
DIM
 10
31497.43699348078
 20
10853.05478110321
 30
0.0
 11
31497.43699348078
 21
11526.38811443655
 31
0.0
  0
INSERT
  5
2207
  8
DIM
  2
_FILLED
 10
31497.43699348078
 20
10208.05478110321
 30
0.0
 41
200.0
 42
200.0
 43
200.0
 50
90.0
  0
INSERT
  5
2208
  8
DIM
  2
_FILLED
 10
31497.43699348078
 20
10653.05478110321
 30
0.0
 41
200.0
 42
200.0
 43
200.0
 50
270.0
  0
INSERT
  5
2209
  8
0
  2
*U55
 10
0.0
 20
0.0
 30
0.0
  0
POINT
  5
220A
  8
DEFPOINTS
 62
     0
 10
31201.589032612392
 20
10208.05478110321
 30
0.0
  0
POINT
  5
220B
  8
DEFPOINTS
 62
     0
 10
31201.589032612392
 20
10653.05478110321
 30
0.0
  0
POINT
  5
220C
  8
DEFPOINTS
 62
     0
 10
31497.43699348078
 20
10653.05478110321
 30
0.0
  0
ENDBLK
  5
1805
  8
0
  0
BLOCK
  8
0
  2
*D19
 70
     1
 10
0.0
 20
0.0
 30
0.0
  3
*D19
  1

  0
LINE
  5
220D
  8
DIM
 10
32023.020700131849
 20
10208.05478110321
 30
0.0
 11
31915.029906488711
 21
10208.05478110321
 31
0.0
  0
LINE
  5
220E
  8
DIM
 10
32023.020700131849
 20
11102.88396501141
 30
0.0
 11
31915.029906488711
 21
11102.88396501141
 31
0.0
  0
LINE
  5
220F
  8
DIM
 10
31990.029906488711
 20
10408.05478110321
 30
0.0
 11
31990.029906488711
 21
10902.883965011421
 31
0.0
  0
INSERT
  5
2210
  8
DIM
  2
_FILLED
 10
31990.029906488711
 20
10208.05478110321
 30
0.0
 41
200.0
 42
200.0
 43
200.0
 50
270.0
  0
INSERT
  5
2211
  8
DIM
  2
_FILLED
 10
31990.029906488711
 20
11102.88396501141
 30
0.0
 41
200.0
 42
200.0
 43
200.0
 50
90.0
  0
INSERT
  5
2212
  8
0
  2
*U56
 10
0.0
 20
0.0
 30
0.0
  0
POINT
  5
2213
  8
DEFPOINTS
 62
     0
 10
32073.020700131849
 20
10208.05478110321
 30
0.0
  0
POINT
  5
2214
  8
DEFPOINTS
 62
     0
 10
32073.020700131849
 20
11102.88396501141
 30
0.0
  0
POINT
  5
2215
  8
DEFPOINTS
 62
     0
 10
31990.029906488711
 20
11102.88396501141
 30
0.0
  0
ENDBLK
  5
18FB
  8
0
  0
BLOCK
  8
0
  2
*D20
 70
     1
 10
0.0
 20
0.0
 30
0.0
  3
*D20
  1

  0
LINE
  5
2216
  8
DIM
 10
32073.020700131849
 20
10158.05478110321
 30
0.0
 11
32073.020700131849
 21
9586.8014564376008
 31
0.0
  0
LINE
  5
2217
  8
DIM
 10
32423.020700131849
 20
10158.05478110321
 30
0.0
 11
32423.020700131849
 21
9586.8014564376008
 31
0.0
  0
LINE
  5
2218
  8
DIM
 10
31873.020700131849
 20
9661.8014564376008
 30
0.0
 11
31673.020700131849
 21
9661.8014564376008
 31
0.0
  0
LINE
  5
2219
  8
DIM
 10
32623.020700131849
 20
9661.8014564376008
 30
0.0
 11
33273.020700131849
 21
9661.8014564376008
 31
0.0
  0
INSERT
  5
221A
  8
DIM
  2
_FILLED
 10
32073.020700131849
 20
9661.8014564376008
 30
0.0
 41
200.0
 42
200.0
 43
200.0
  0
INSERT
  5
221B
  8
DIM
  2
_FILLED
 10
32423.020700131849
 20
9661.8014564376008
 30
0.0
 41
200.0
 42
200.0
 43
200.0
 50
180.0
  0
INSERT
  5
221C
  8
0
  2
*U57
 10
0.0
 20
0.0
 30
0.0
  0
POINT
  5
221D
  8
DEFPOINTS
 62
     0
 10
32073.020700131849
 20
10208.05478110321
 30
0.0
  0
POINT
  5
221E
  8
DEFPOINTS
 62
     0
 10
32423.020700131849
 20
10208.05478110321
 30
0.0
  0
POINT
  5
221F
  8
DEFPOINTS
 62
     0
 10
32423.020700131849
 20
9661.8014564376008
 30
0.0
  0
ENDBLK
  5
1913
  8
0
  0
BLOCK
  8
0
  2
*D21
 70
     1
 10
0.0
 20
0.0
 30
0.0
  3
*D21
  1

  0
LINE
  5
2220
  8
DIM
 10
32473.020700131849
 20
10943.75464514046
 30
0.0
 11
32979.04620456777
 21
10943.75464514046
 31
0.0
  0
LINE
  5
2221
  8
DIM
 10
32411.755755903228
 20
11102.88396501141
 30
0.0
 11
32979.04620456777
 21
11102.88396501141
 31
0.0
  0
LINE
  5
2222
  8
DIM
 10
32904.04620456777
 20
10743.754645140451
 30
0.0
 11
32904.04620456777
 21
10543.754645140451
 31
0.0
  0
LINE
  5
2223
  8
DIM
 10
32904.04620456777
 20
11302.88396501141
 30
0.0
 11
32904.04620456777
 21
11929.550631678079
 31
0.0
  0
INSERT
  5
2224
  8
DIM
  2
_FILLED
 10
32904.04620456777
 20
10943.75464514046
 30
0.0
 41
200.0
 42
200.0
 43
200.0
 50
90.0
  0
INSERT
  5
2225
  8
DIM
  2
_FILLED
 10
32904.04620456777
 20
11102.88396501141
 30
0.0
 41
200.0
 42
200.0
 43
200.0
 50
270.0
  0
INSERT
  5
2226
  8
0
  2
*U58
 10
0.0
 20
0.0
 30
0.0
  0
POINT
  5
2227
  8
DEFPOINTS
 62
     0
 10
32423.020700131849
 20
10943.75464514046
 30
0.0
  0
POINT
  5
2228
  8
DEFPOINTS
 62
     0
 10
32361.755755903239
 20
11102.88396501141
 30
0.0
  0
POINT
  5
2229
  8
DEFPOINTS
 62
     0
 10
32904.04620456777
 20
11102.88396501141
 30
0.0
  0
ENDBLK
  5
1971
  8
0
  0
BLOCK
  8
0
  2
*D22
 70
     1
 10
0.0
 20
0.0
 30
0.0
  3
*D22
  1

  0
LINE
  5
222A
  8
DIM
 10
32423.020700131849
 20
10993.75464514046
 30
0.0
 11
32423.020700131849
 21
11438.49132230883
 31
0.0
  0
LINE
  5
222B
  8
DIM
 10
32361.755755903239
 20
11152.88396501141
 30
0.0
 11
32361.755755903239
 21
11438.49132230883
 31
0.0
  0
LINE
  5
222C
  8
DIM
 10
32623.020700131849
 20
11363.491322308841
 30
0.0
 11
32823.020700131849
 21
11363.491322308841
 31
0.0
  0
LINE
  5
222D
  8
DIM
 10
32161.755755903239
 20
11363.491322308841
 30
0.0
 11
31675.089089236571
 21
11363.491322308841
 31
0.0
  0
INSERT
  5
222E
  8
DIM
  2
_FILLED
 10
32423.020700131849
 20
11363.491322308841
 30
0.0
 41
200.0
 42
200.0
 43
200.0
 50
180.0
  0
INSERT
  5
222F
  8
DIM
  2
_FILLED
 10
32361.755755903239
 20
11363.491322308841
 30
0.0
 41
200.0
 42
200.0
 43
200.0
  0
INSERT
  5
2230
  8
0
  2
*U59
 10
0.0
 20
0.0
 30
0.0
  0
POINT
  5
2231
  8
DEFPOINTS
 62
     0
 10
32423.020700131849
 20
10943.75464514046
 30
0.0
  0
POINT
  5
2232
  8
DEFPOINTS
 62
     0
 10
32361.755755903239
 20
11102.88396501141
 30
0.0
  0
POINT
  5
2233
  8
DEFPOINTS
 62
     0
 10
32361.755755903239
 20
11363.491322308841
 30
0.0
  0
ENDBLK
  5
198B
  8
0
  0
BLOCK
  8
0
  2
*D23
 70
     1
 10
0.0
 20
0.0
 30
0.0
  3
*D23
  1

  0
LINE
  5
2234
  8
DIM
 10
32623.020700131849
 20
10790.05478110321
 30
0.0
 11
32906.957170065361
 21
10790.05478110321
 31
0.0
  0
LINE
  5
2235
  8
DIM
 10
32623.020700131849
 20
10208.05478110321
 30
0.0
 11
32906.957170065361
 21
10208.05478110321
 31
0.0
  0
LINE
  5
2236
  8
DIM
 10
32831.957170065361
 20
10590.05478110321
 30
0.0
 11
32831.957170065361
 21
10408.05478110321
 31
0.0
  0
INSERT
  5
2237
  8
DIM
  2
_FILLED
 10
32831.957170065361
 20
10790.05478110321
 30
0.0
 41
200.0
 42
200.0
 43
200.0
 50
90.0
  0
INSERT
  5
2238
  8
DIM
  2
_FILLED
 10
32831.957170065361
 20
10208.05478110321
 30
0.0
 41
200.0
 42
200.0
 43
200.0
 50
270.0
  0
INSERT
  5
2239
  8
0
  2
*U60
 10
0.0
 20
0.0
 30
0.0
  0
POINT
  5
223A
  8
DEFPOINTS
 62
     0
 10
32573.020700131849
 20
10790.05478110321
 30
0.0
  0
POINT
  5
223B
  8
DEFPOINTS
 62
     0
 10
32573.020700131849
 20
10208.05478110321
 30
0.0
  0
POINT
  5
223C
  8
DEFPOINTS
 62
     0
 10
32831.957170065361
 20
10208.05478110321
 30
0.0
  0
ENDBLK
  5
19AF
  8
0
  0
BLOCK
  8
0
  2
*D24
 70
     1
 10
0.0
 20
0.0
 30
0.0
  3
*D24
  1

  0
LINE
  5
223D
  8
DIM
 10
32433.020700131849
 20
10158.05478110321
 30
0.0
 11
32433.020700131849
 21
9972.2452024657996
 31
0.0
  0
LINE
  5
223E
  8
DIM
 10
32573.020700131849
 20
10158.05478110321
 30
0.0
 11
32573.020700131849
 21
9972.2452024657996
 31
0.0
  0
LINE
  5
223F
  8
DIM
 10
32233.020700131849
 20
10047.24520246579
 30
0.0
 11
32033.020700131849
 21
10047.24520246579
 31
0.0
  0
LINE
  5
2240
  8
DIM
 10
32773.020700131849
 20
10047.24520246579
 30
0.0
 11
33376.354033465177
 21
10047.24520246579
 31
0.0
  0
INSERT
  5
2241
  8
DIM
  2
_FILLED
 10
32433.020700131849
 20
10047.24520246579
 30
0.0
 41
200.0
 42
200.0
 43
200.0
  0
INSERT
  5
2242
  8
DIM
  2
_FILLED
 10
32573.020700131849
 20
10047.24520246579
 30
0.0
 41
200.0
 42
200.0
 43
200.0
 50
180.0
  0
INSERT
  5
2243
  8
0
  2
*U61
 10
0.0
 20
0.0
 30
0.0
  0
POINT
  5
2244
  8
DEFPOINTS
 62
     0
 10
32433.020700131849
 20
10208.05478110321
 30
0.0
  0
POINT
  5
2245
  8
DEFPOINTS
 62
     0
 10
32573.020700131849
 20
10208.05478110321
 30
0.0
  0
POINT
  5
2246
  8
DEFPOINTS
 62
     0
 10
32573.020700131849
 20
10047.24520246579
 30
0.0
  0
ENDBLK
  5
19D1
  8
0
  0
BLOCK
  8
0
  2
*D25
 70
     1
 10
0.0
 20
0.0
 30
0.0
  3
*D25
  1

  0
LINE
  5
2247
  8
DIM
 10
34044.636353343798
 20
10208.05478110321
 30
0.0
 11
34365.484314212183
 21
10208.05478110321
 31
0.0
  0
LINE
  5
2248
  8
DIM
 10
34044.636353343798
 20
10382.05478110321
 30
0.0
 11
34365.484314212183
 21
10382.05478110321
 31
0.0
  0
LINE
  5
2249
  8
DIM
 10
34290.48431421219
 20
10008.05478110321
 30
0.0
 11
34290.48431421219
 21
9808.0547811032156
 31
0.0
  0
LINE
  5
224A
  8
DIM
 10
34290.48431421219
 20
10582.05478110321
 30
0.0
 11
34290.48431421219
 21
11208.72144776988
 31
0.0
  0
INSERT
  5
224B
  8
DIM
  2
_FILLED
 10
34290.48431421219
 20
10208.05478110321
 30
0.0
 41
200.0
 42
200.0
 43
200.0
 50
90.0
  0
INSERT
  5
224C
  8
DIM
  2
_FILLED
 10
34290.48431421219
 20
10382.05478110321
 30
0.0
 41
200.0
 42
200.0
 43
200.0
 50
270.0
  0
INSERT
  5
224D
  8
0
  2
*U62
 10
0.0
 20
0.0
 30
0.0
  0
POINT
  5
224E
  8
DEFPOINTS
 62
     0
 10
33994.636353343798
 20
10208.05478110321
 30
0.0
  0
POINT
  5
224F
  8
DEFPOINTS
 62
     0
 10
33994.636353343798
 20
10382.05478110321
 30
0.0
  0
POINT
  5
2250
  8
DEFPOINTS
 62
     0
 10
34290.48431421219
 20
10382.05478110321
 30
0.0
  0
ENDBLK
  5
19FB
  8
0
  0
BLOCK
  8
0
  2
*D26
 70
     1
 10
0.0
 20
0.0
 30
0.0
  3
*D26
  1

  0
LINE
  5
249E
  8
DIM
 10
6295.3355311627784
 20
4743.9943542493202
 30
0.0
 11
6295.3355311627784
 21
4961.3011262548453
 31
0.0
  0
LINE
  5
249F
  8
DIM
 10
7225.8348128917669
 20
4743.9943542493202
 30
0.0
 11
7225.8348128917669
 21
4961.3011262548453
 31
0.0
  0
LINE
  5
24A0
  8
DIM
 10
6495.3355311627793
 20
4886.3011262548453
 30
0.0
 11
7025.8348128917669
 21
4886.3011262548453
 31
0.0
  0
INSERT
  5
24A1
  8
DIM
  2
_FILLED
 10
6295.3355311627784
 20
4886.3011262548453
 30
0.0
 41
200.0
 42
200.0
 43
200.0
 50
180.0
  0
INSERT
  5
24A2
  8
DIM
  2
_FILLED
 10
7225.8348128917669
 20
4886.3011262548453
 30
0.0
 41
200.0
 42
200.0
 43
200.0
  0
INSERT
  5
24A3
  8
0
  2
*U63
 10
0.0
 20
0.0
 30
0.0
  0
POINT
  5
24A4
  8
DEFPOINTS
 62
     0
 10
6295.3355311627784
 20
4693.9943542493202
 30
0.0
  0
POINT
  5
24A5
  8
DEFPOINTS
 62
     0
 10
7225.8348128917669
 20
4693.9943542493202
 30
0.0
  0
POINT
  5
24A6
  8
DEFPOINTS
 62
     0
 10
7225.8348128917669
 20
4886.3011262548453
 30
0.0
  0
ENDBLK
  5
1BC3
  8
0
  0
BLOCK
  8
0
  2
*D27
 70
     1
 10
0.0
 20
0.0
 30
0.0
  3
*D27
  1

  0
LINE
  5
24A7
  8
DIM
 10
6245.3355311627784
 20
4633.9943542493202
 30
0.0
 11
6066.7960756726534
 21
4633.9943542493202
 31
0.0
  0
LINE
  5
24A8
  8
DIM
 10
6245.3355311627784
 20
3730.450426746334
 30
0.0
 11
6066.7960756726534
 21
3730.450426746334
 31
0.0
  0
LINE
  5
24A9
  8
DIM
 10
6141.7960756726543
 20
4433.9943542493202
 30
0.0
 11
6141.7960756726543
 21
3930.4504267463349
 31
0.0
  0
INSERT
  5
24AA
  8
DIM
  2
_FILLED
 10
6141.7960756726543
 20
4633.9943542493202
 30
0.0
 41
200.0
 42
200.0
 43
200.0
 50
90.0
  0
INSERT
  5
24AB
  8
DIM
  2
_FILLED
 10
6141.7960756726543
 20
3730.450426746334
 30
0.0
 41
200.0
 42
200.0
 43
200.0
 50
270.0
  0
INSERT
  5
24AC
  8
0
  2
*U64
 10
0.0
 20
0.0
 30
0.0
  0
POINT
  5
24AD
  8
DEFPOINTS
 62
     0
 10
6295.3355311627784
 20
4633.9943542493202
 30
0.0
  0
POINT
  5
24AE
  8
DEFPOINTS
 62
     0
 10
6295.3355311627784
 20
3730.450426746334
 30
0.0
  0
POINT
  5
24AF
  8
DEFPOINTS
 62
     0
 10
6141.7960756726543
 20
3730.450426746334
 30
0.0
  0
ENDBLK
  5
1BDB
  8
0
  0
BLOCK
  8
0
  2
*D28
 70
     1
 10
0.0
 20
0.0
 30
0.0
  3
*D28
  1

  0
LINE
  5
24B0
  8
DIM
 10
6245.3355311627784
 20
4633.9943542493202
 30
0.0
 11
6066.7960756726534
 21
4633.9943542493202
 31
0.0
  0
LINE
  5
24B1
  8
DIM
 10
6245.3355311627784
 20
4693.9943542493202
 30
0.0
 11
6066.7960756726534
 21
4693.9943542493211
 31
0.0
  0
LINE
  5
24B2
  8
DIM
 10
6141.7960756726543
 20
4433.9943542493202
 30
0.0
 11
6141.7960756726543
 21
4233.9943542493211
 31
0.0
  0
LINE
  5
24B3
  8
DIM
 10
6141.7960756726543
 20
4893.9943542493211
 30
0.0
 11
6141.7960756726543
 21
5403.9943542493211
 31
0.0
  0
INSERT
  5
24B4
  8
DIM
  2
_FILLED
 10
6141.7960756726543
 20
4633.9943542493202
 30
0.0
 41
200.0
 42
200.0
 43
200.0
 50
90.0
  0
INSERT
  5
24B5
  8
DIM
  2
_FILLED
 10
6141.7960756726543
 20
4693.9943542493211
 30
0.0
 41
200.0
 42
200.0
 43
200.0
 50
270.0
  0
INSERT
  5
24B6
  8
0
  2
*U65
 10
0.0
 20
0.0
 30
0.0
  0
POINT
  5
24B7
  8
DEFPOINTS
 62
     0
 10
6295.3355311627784
 20
4633.9943542493202
 30
0.0
  0
POINT
  5
24B8
  8
DEFPOINTS
 62
     0
 10
6295.3355311627784
 20
4693.9943542493202
 30
0.0
  0
POINT
  5
24B9
  8
DEFPOINTS
 62
     0
 10
6141.7960756726543
 20
4693.9943542493211
 30
0.0
  0
ENDBLK
  5
1BF7
  8
0
  0
BLOCK
  8
0
  2
*D29
 70
     1
 10
0.0
 20
0.0
 30
0.0
  3
*D29
  1

  0
LINE
  5
2C42
  8
DIM
 10
169.6487717425189
 20
372.56232114112208
 30
0.0
 11
169.64877174251879
 21
82.140936146060994
 31
0.0
  0
LINE
  5
2C43
  8
DIM
 10
1099.6487717425191
 20
372.56232114112208
 30
0.0
 11
1099.6487717425191
 21
82.140936146060994
 31
0.0
  0
LINE
  5
2C44
  8
DIM
 10
369.64877174251887
 20
157.14093614606099
 30
0.0
 11
899.64877174251887
 21
157.14093614606099
 31
0.0
  0
INSERT
  5
2C45
  8
DIM
  2
_FILLED
 10
169.64877174251879
 20
157.14093614606099
 30
0.0
 41
200.0
 42
200.0
 43
200.0
 50
180.0
  0
INSERT
  5
2C46
  8
DIM
  2
_FILLED
 10
1099.6487717425191
 20
157.14093614606099
 30
0.0
 41
200.0
 42
200.0
 43
200.0
  0
INSERT
  5
2C47
  8
0
  2
*U80
 10
0.0
 20
0.0
 30
0.0
  0
POINT
  5
2C48
  8
DEFPOINTS
 62
     0
 10
169.6487717425189
 20
422.56232114112203
 30
0.0
  0
POINT
  5
2C49
  8
DEFPOINTS
 62
     0
 10
1099.6487717425191
 20
422.56232114112203
 30
0.0
  0
POINT
  5
2C4A
  8
DEFPOINTS
 62
     0
 10
1099.6487717425191
 20
157.14093614606099
 30
0.0
  0
ENDBLK
  5
2024
  8
0
  0
BLOCK
  8
0
  2
*D30
 70
     1
 10
0.0
 20
0.0
 30
0.0
  3
*D30
  1

  0
LINE
  5
2C4B
  8
DIM
 10
1099.6487717425191
 20
372.56232114112208
 30
0.0
 11
1099.6487717425191
 21
82.140936146060994
 31
0.0
  0
LINE
  5
2C4C
  8
DIM
 10
2003.6487717425191
 20
372.56232114112208
 30
0.0
 11
2003.6487717425191
 21
82.140936146060994
 31
0.0
  0
LINE
  5
2C4D
  8
DIM
 10
1299.6487717425191
 20
157.14093614606099
 30
0.0
 11
1803.6487717425191
 21
157.14093614606099
 31
0.0
  0
INSERT
  5
2C4E
  8
DIM
  2
_FILLED
 10
1099.6487717425191
 20
157.14093614606099
 30
0.0
 41
200.0
 42
200.0
 43
200.0
 50
180.0
  0
INSERT
  5
2C4F
  8
DIM
  2
_FILLED
 10
2003.6487717425191
 20
157.14093614606099
 30
0.0
 41
200.0
 42
200.0
 43
200.0
  0
INSERT
  5
2C50
  8
0
  2
*U81
 10
0.0
 20
0.0
 30
0.0
  0
POINT
  5
2C51
  8
DEFPOINTS
 62
     0
 10
1099.6487717425191
 20
422.56232114112203
 30
0.0
  0
POINT
  5
2C52
  8
DEFPOINTS
 62
     0
 10
2003.6487717425191
 20
422.56232114112203
 30
0.0
  0
POINT
  5
2C53
  8
DEFPOINTS
 62
     0
 10
2003.6487717425191
 20
157.14093614606099
 30
0.0
  0
ENDBLK
  5
203C
  8
0
  0
BLOCK
  8
0
  2
*D31
 70
     1
 10
0.0
 20
0.0
 30
0.0
  3
*D31
  1

  0
LINE
  5
2C54
  8
DIM
 10
2053.6487717425189
 20
422.56232114112203
 30
0.0
 11
2436.2681779769632
 21
422.56232114112191
 31
0.0
  0
LINE
  5
2C55
  8
DIM
 10
2053.6487717425189
 20
1622.5623211411221
 30
0.0
 11
2436.2681779769632
 21
1622.5623211411221
 31
0.0
  0
LINE
  5
2C56
  8
DIM
 10
2361.2681779769619
 20
622.56232114112186
 30
0.0
 11
2361.2681779769632
 21
1422.5623211411221
 31
0.0
  0
INSERT
  5
2C57
  8
DIM
  2
_FILLED
 10
2361.2681779769619
 20
422.56232114112203
 30
0.0
 41
200.0
 42
200.0
 43
200.0
 50
270.0
  0
INSERT
  5
2C58
  8
DIM
  2
_FILLED
 10
2361.2681779769632
 20
1622.5623211411221
 30
0.0
 41
200.0
 42
200.0
 43
200.0
 50
90.0
  0
INSERT
  5
2C59
  8
0
  2
*U82
 10
0.0
 20
0.0
 30
0.0
  0
POINT
  5
2C5A
  8
DEFPOINTS
 62
     0
 10
2003.6487717425191
 20
422.56232114112203
 30
0.0
  0
POINT
  5
2C5B
  8
DEFPOINTS
 62
     0
 10
2003.6487717425191
 20
1622.5623211411221
 30
0.0
  0
POINT
  5
2C5C
  8
DEFPOINTS
 62
     0
 10
2361.2681779769632
 20
1622.5623211411221
 30
0.0
  0
ENDBLK
  5
2054
  8
0
  0
BLOCK
  8
0
  2
*D32
 70
     1
 10
0.0
 20
0.0
 30
0.0
  3
*D32
  1

  0
LINE
  5
24F6
  8
DIM
 10
24340.783467873702
 20
-2857.7405078362858
 30
0.0
 11
24340.783467873702
 21
-3336.8012955506342
 31
0.0
  0
LINE
  5
24F7
  8
DIM
 10
34436.614216414702
 20
-2834.980893831058
 30
0.0
 11
34436.614216414702
 21
-3336.8012955506342
 31
0.0
  0
LINE
  5
24F8
  8
DIM
 10
24540.783467873702
 20
-3261.8012955506351
 30
0.0
 11
34236.614216414702
 21
-3261.8012955506351
 31
0.0
  0
INSERT
  5
24F9
  8
DIM
  2
_FILLED
 10
24340.783467873702
 20
-3261.8012955506351
 30
0.0
 41
200.0
 42
200.0
 43
200.0
 50
180.0
  0
INSERT
  5
24FA
  8
DIM
  2
_FILLED
 10
34436.614216414702
 20
-3261.8012955506351
 30
0.0
 41
200.0
 42
200.0
 43
200.0
  0
INSERT
  5
24FB
  8
0
  2
*U69
 10
0.0
 20
0.0
 30
0.0
  0
POINT
  5
24FC
  8
DEFPOINTS
 62
     0
 10
24340.783467873702
 20
-2807.7405078362858
 30
0.0
  0
POINT
  5
24FD
  8
DEFPOINTS
 62
     0
 10
34436.614216414702
 20
-2784.980893831058
 30
0.0
  0
POINT
  5
24FE
  8
DEFPOINTS
 62
     0
 10
34436.614216414702
 20
-3261.8012955506351
 30
0.0
  0
ENDBLK
  5
2313
  8
0
  0
BLOCK
  8
0
  2
*D33
 70
     1
 10
0.0
 20
0.0
 30
0.0
  3
*D33
  1

  0
LINE
  5
24FF
  8
DIM
 10
24290.783467873702
 20
-2807.7405078362858
 30
0.0
 11
24068.020927217069
 21
-2807.7405078362858
 31
0.0
  0
LINE
  5
2500
  8
DIM
 10
24350.3523455451
 20
-1558.5466526984819
 30
0.0
 11
24068.020927217069
 21
-1558.5466526984819
 31
0.0
  0
LINE
  5
2501
  8
DIM
 10
24143.020927217069
 20
-2607.7405078362858
 30
0.0
 11
24143.020927217069
 21
-1758.5466526984819
 31
0.0
  0
INSERT
  5
2502
  8
DIM
  2
_FILLED
 10
24143.020927217069
 20
-2807.7405078362858
 30
0.0
 41
200.0
 42
200.0
 43
200.0
 50
270.0
  0
INSERT
  5
2503
  8
DIM
  2
_FILLED
 10
24143.020927217069
 20
-1558.5466526984819
 30
0.0
 41
200.0
 42
200.0
 43
200.0
 50
90.0
  0
INSERT
  5
2504
  8
0
  2
*U70
 10
0.0
 20
0.0
 30
0.0
  0
POINT
  5
2505
  8
DEFPOINTS
 62
     0
 10
24340.783467873702
 20
-2807.7405078362858
 30
0.0
  0
POINT
  5
2506
  8
DEFPOINTS
 62
     0
 10
24400.3523455451
 20
-1558.5466526984819
 30
0.0
  0
POINT
  5
2507
  8
DEFPOINTS
 62
     0
 10
24143.020927217069
 20
-1558.5466526984819
 30
0.0
  0
ENDBLK
  5
231F
  8
0
  0
BLOCK
  8
0
  2
*D34
 70
     1
 10
0.0
 20
0.0
 30
0.0
  3
*D34
  1

  0
LINE
  5
250B
  8
DIM
 10
24420.278884312389
 20
5413.9904506936127
 30
0.0
 11
24420.278884312389
 21
3830.6642591883351
 31
0.0
  0
LINE
  5
250C
  8
DIM
 10
29781.44157654791
 20
5163.9785086628181
 30
0.0
 11
29781.44157654791
 21
3830.6642591883351
 31
0.0
  0
LINE
  5
250D
  8
DIM
 10
24620.278884312389
 20
3905.664259188336
 30
0.0
 11
29581.44157654791
 21
3905.664259188336
 31
0.0
  0
INSERT
  5
250E
  8
DIM
  2
_FILLED
 10
24420.278884312389
 20
3905.664259188336
 30
0.0
 41
200.0
 42
200.0
 43
200.0
 50
180.0
  0
INSERT
  5
250F
  8
DIM
  2
_FILLED
 10
29781.44157654791
 20
3905.664259188336
 30
0.0
 41
200.0
 42
200.0
 43
200.0
  0
INSERT
  5
2510
  8
0
  2
*U71
 10
0.0
 20
0.0
 30
0.0
  0
POINT
  5
2511
  8
DEFPOINTS
 62
     0
 10
24420.278884312389
 20
5463.9904506936118
 30
0.0
  0
POINT
  5
2512
  8
DEFPOINTS
 62
     0
 10
29781.44157654791
 20
5213.9785086628181
 30
0.0
  0
POINT
  5
2513
  8
DEFPOINTS
 62
     0
 10
29781.44157654791
 20
3905.664259188336
 30
0.0
  0
ENDBLK
  5
241A
  8
0
  0
BLOCK
  8
0
  2
*D35
 70
     1
 10
0.0
 20
0.0
 30
0.0
  3
*D35
  1

  0
LINE
  5
2514
  8
DIM
 10
24434.170647049959
 20
4302.5452869117644
 30
0.0
 11
24069.35635842699
 21
4302.5452869117644
 31
0.0
  0
LINE
  5
2515
  8
DIM
 10
26839.280331301608
 20
5652.4932498655453
 30
0.0
 11
24069.35635842699
 21
5652.4932498655462
 31
0.0
  0
LINE
  5
2516
  8
DIM
 10
24144.35635842699
 20
4502.5452869117653
 30
0.0
 11
24144.35635842699
 21
5452.4932498655462
 31
0.0
  0
INSERT
  5
2517
  8
DIM
  2
_FILLED
 10
24144.35635842699
 20
4302.5452869117644
 30
0.0
 41
200.0
 42
200.0
 43
200.0
 50
270.0
  0
INSERT
  5
2518
  8
DIM
  2
_FILLED
 10
24144.35635842699
 20
5652.4932498655462
 30
0.0
 41
200.0
 42
200.0
 43
200.0
 50
90.0
  0
INSERT
  5
2519
  8
0
  2
*U72
 10
0.0
 20
0.0
 30
0.0
  0
POINT
  5
251A
  8
DEFPOINTS
 62
     0
 10
24484.170647049959
 20
4302.5452869117644
 30
0.0
  0
POINT
  5
251B
  8
DEFPOINTS
 62
     0
 10
26889.280331301608
 20
5652.4932498655453
 30
0.0
  0
POINT
  5
251C
  8
DEFPOINTS
 62
     0
 10
24144.35635842699
 20
5652.4932498655462
 30
0.0
  0
ENDBLK
  5
2426
  8
0
  0
BLOCK
  8
0
  2
*D36
 70
     1
 10
0.0
 20
0.0
 30
0.0
  3
*D36
  1

  0
LINE
  5
271C
  8
DIM
 10
33284.434379352148
 20
-6741.8585727018653
 30
0.0
 11
33284.434379352148
 21
-7173.9230870379843
 31
0.0
  0
LINE
  5
271D
  8
DIM
 10
35818.432880063163
 20
-6530.7371365925064
 30
0.0
 11
35818.432880063163
 21
-7173.9230870379843
 31
0.0
  0
LINE
  5
271E
  8
DIM
 10
33484.434379352148
 20
-7098.9230870379843
 30
0.0
 11
35618.43288006317
 21
-7098.9230870379843
 31
0.0
  0
INSERT
  5
271F
  8
DIM
  2
_FILLED
 10
33284.434379352148
 20
-7098.9230870379843
 30
0.0
 41
200.0
 42
200.0
 43
200.0
 50
180.0
  0
INSERT
  5
2720
  8
DIM
  2
_FILLED
 10
35818.432880063163
 20
-7098.9230870379843
 30
0.0
 41
200.0
 42
200.0
 43
200.0
  0
INSERT
  5
2721
  8
0
  2
*U74
 10
0.0
 20
0.0
 30
0.0
  0
POINT
  5
2722
  8
DEFPOINTS
 62
     0
 10
33284.434379352148
 20
-6691.8585727018653
 30
0.0
  0
POINT
  5
2723
  8
DEFPOINTS
 62
     0
 10
35818.432880063163
 20
-6480.7371365925064
 30
0.0
  0
POINT
  5
2724
  8
DEFPOINTS
 62
     0
 10
35818.432880063163
 20
-7098.9230870379843
 30
0.0
  0
ENDBLK
  5
271B
  8
0
  0
BLOCK
  8
0
  2
*D37
 70
     1
 10
0.0
 20
0.0
 30
0.0
  3
*D37
  1

  0
LINE
  5
2728
  8
DIM
 10
33234.434379352148
 20
-6691.8585727018653
 30
0.0
 11
32783.319861390228
 21
-6691.8585727018653
 31
0.0
  0
LINE
  5
2729
  8
DIM
 10
33234.434379352148
 20
-5694.0360636296873
 30
0.0
 11
32783.319861390228
 21
-5694.0360636296873
 31
0.0
  0
LINE
  5
272A
  8
DIM
 10
32858.319861390228
 20
-6491.8585727018653
 30
0.0
 11
32858.319861390228
 21
-5894.0360636296882
 31
0.0
  0
INSERT
  5
272B
  8
DIM
  2
_FILLED
 10
32858.319861390228
 20
-6691.8585727018653
 30
0.0
 41
200.0
 42
200.0
 43
200.0
 50
270.0
  0
INSERT
  5
272C
  8
DIM
  2
_FILLED
 10
32858.319861390228
 20
-5694.0360636296873
 30
0.0
 41
200.0
 42
200.0
 43
200.0
 50
90.0
  0
INSERT
  5
272D
  8
0
  2
*U75
 10
0.0
 20
0.0
 30
0.0
  0
POINT
  5
272E
  8
DEFPOINTS
 62
     0
 10
33284.434379352148
 20
-6691.8585727018653
 30
0.0
  0
POINT
  5
272F
  8
DEFPOINTS
 62
     0
 10
33284.434379352148
 20
-5694.0360636296873
 30
0.0
  0
POINT
  5
2730
  8
DEFPOINTS
 62
     0
 10
32858.319861390228
 20
-5694.0360636296873
 30
0.0
  0
ENDBLK
  5
2727
  8
0
  0
BLOCK
  8
0
  2
*D38
 70
     1
 10
0.0
 20
0.0
 30
0.0
  3
*D38
  1

  0
LINE
  5
2B84
  8
DIM
 10
24985.268442316461
 20
-6737.1755230009949
 30
0.0
 11
24985.268442316461
 21
-7312.0250899819148
 31
0.0
  0
LINE
  5
2B85
  8
DIM
 10
26235.268442316461
 20
-6737.1755230009949
 30
0.0
 11
26235.268442316461
 21
-7312.0250899819148
 31
0.0
  0
LINE
  5
2B86
  8
DIM
 10
25185.268442316461
 20
-7237.0250899819157
 30
0.0
 11
26035.268442316461
 21
-7237.0250899819157
 31
0.0
  0
INSERT
  5
2B87
  8
DIM
  2
_FILLED
 10
24985.268442316461
 20
-7237.0250899819157
 30
0.0
 41
200.0
 42
200.0
 43
200.0
 50
180.0
  0
INSERT
  5
2B88
  8
DIM
  2
_FILLED
 10
26235.268442316461
 20
-7237.0250899819157
 30
0.0
 41
200.0
 42
200.0
 43
200.0
  0
INSERT
  5
2B89
  8
0
  2
*U77
 10
0.0
 20
0.0
 30
0.0
  0
POINT
  5
2B8A
  8
DEFPOINTS
 62
     0
 10
24985.268442316461
 20
-6687.1755230009949
 30
0.0
  0
POINT
  5
2B8B
  8
DEFPOINTS
 62
     0
 10
26235.268442316461
 20
-6687.1755230009949
 30
0.0
  0
POINT
  5
2B8C
  8
DEFPOINTS
 62
     0
 10
26235.268442316461
 20
-7237.0250899819157
 30
0.0
  0
ENDBLK
  5
2B57
  8
0
  0
BLOCK
  8
0
  2
*D39
 70
     1
 10
0.0
 20
0.0
 30
0.0
  3
*D39
  1

  0
LINE
  5
2B7A
  8
DIM
 10
26255.268442316461
 20
-6737.1755230009949
 30
0.0
 11
26255.268442316461
 21
-7312.0250899819148
 31
0.0
  0
LINE
  5
2B7B
  8
DIM
 10
27505.268442316461
 20
-6737.1755230009949
 30
0.0
 11
27505.268442316461
 21
-7312.0250899819148
 31
0.0
  0
LINE
  5
2B7C
  8
DIM
 10
26455.268442316461
 20
-7237.0250899819157
 30
0.0
 11
27305.268442316461
 21
-7237.0250899819157
 31
0.0
  0
INSERT
  5
2B7D
  8
DIM
  2
_FILLED
 10
26255.268442316461
 20
-7237.0250899819157
 30
0.0
 41
200.0
 42
200.0
 43
200.0
 50
180.0
  0
INSERT
  5
2B7E
  8
DIM
  2
_FILLED
 10
27505.268442316461
 20
-7237.0250899819157
 30
0.0
 41
200.0
 42
200.0
 43
200.0
  0
INSERT
  5
2B7F
  8
0
  2
*U76
 10
0.0
 20
0.0
 30
0.0
  0
POINT
  5
2B80
  8
DEFPOINTS
 62
     0
 10
26255.268442316461
 20
-6687.1755230009949
 30
0.0
  0
POINT
  5
2B81
  8
DEFPOINTS
 62
     0
 10
27505.268442316461
 20
-6687.1755230009949
 30
0.0
  0
POINT
  5
2B82
  8
DEFPOINTS
 62
     0
 10
27505.268442316461
 20
-7237.0250899819157
 30
0.0
  0
ENDBLK
  5
2B6F
  8
0
  0
BLOCK
  8
0
  2
*D40
 70
     1
 10
0.0
 20
0.0
 30
0.0
  3
*D40
  1

  0
LINE
  5
2B9B
  8
DIM
 10
24935.268442316461
 20
-5437.1755230009949
 30
0.0
 11
24745.341675629272
 21
-5437.1755230009949
 31
0.0
  0
LINE
  5
2B9C
  8
DIM
 10
24935.268442316461
 20
-6687.1755230009949
 30
0.0
 11
24745.341675629272
 21
-6687.1755230009949
 31
0.0
  0
LINE
  5
2B9D
  8
DIM
 10
24820.341675629272
 20
-5637.1755230009949
 30
0.0
 11
24820.341675629272
 21
-6487.1755230009949
 31
0.0
  0
INSERT
  5
2B9E
  8
DIM
  2
_FILLED
 10
24820.341675629272
 20
-5437.1755230009949
 30
0.0
 41
200.0
 42
200.0
 43
200.0
 50
90.0
  0
INSERT
  5
2B9F
  8
DIM
  2
_FILLED
 10
24820.341675629272
 20
-6687.1755230009949
 30
0.0
 41
200.0
 42
200.0
 43
200.0
 50
270.0
  0
INSERT
  5
2BA0
  8
0
  2
*U78
 10
0.0
 20
0.0
 30
0.0
  0
POINT
  5
2BA1
  8
DEFPOINTS
 62
     0
 10
24985.268442316461
 20
-5437.1755230009949
 30
0.0
  0
POINT
  5
2BA2
  8
DEFPOINTS
 62
     0
 10
24985.268442316461
 20
-6687.1755230009949
 30
0.0
  0
POINT
  5
2BA3
  8
DEFPOINTS
 62
     0
 10
24820.341675629272
 20
-6687.1755230009949
 30
0.0
  0
ENDBLK
  5
2B90
  8
0
  0
BLOCK
  8
0
  2
*U41
 70
     1
 10
0.0
 20
0.0
 30
0.0
  3
*U41
  1

  0
TEXT
  5
2CB6
  8
DIM
 10
3969.3101028046858
 20
67.344960145273944
 30
0.0
 40
175.0
  1
2510
 41
0.8
  0
ENDBLK
  5
2CB8
  8
0
  0
BLOCK
  8
0
  2
*U42
 70
     1
 10
0.0
 20
0.0
 30
0.0
  3
*U42
  1

  0
TEXT
  5
2CBA
  8
DIM
 10
5366.5454859199654
 20
115.98377819723029
 30
0.0
 40
175.0
  1
85.73
 50
184.26501912559121
 41
0.8
  0
ENDBLK
  5
2CBC
  8
0
  0
BLOCK
  8
0
  2
*U43
 70
     1
 10
0.0
 20
0.0
 30
0.0
  3
*U43
  1

  0
TEXT
  5
2CBE
  8
UITSLAG
 10
5620.5131728042506
 20
1286.6050731950011
 30
0.0
 40
175.0
  1
720
 50
90.0
 41
0.8
  0
ENDBLK
  5
2CC0
  8
0
  0
BLOCK
  8
0
  2
*U44
 70
     1
 10
0.0
 20
0.0
 30
0.0
  3
*U44
  1

  0
TEXT
  5
2CC2
  8
UITSLAG
 10
4247.9706120807787
 20
1274.9373734833839
 30
0.0
 40
175.0
  1
736
 50
90.0
 41
0.8
  0
ENDBLK
  5
2CC4
  8
0
  0
BLOCK
  8
0
  2
*U45
 70
     1
 10
0.0
 20
0.0
 30
0.0
  3
*U45
  1

  0
TEXT
  5
2CC6
  8
UITSLAG
 10
4082.7349735643038
 20
638.27070605866743
 30
0.0
 40
175.0
  1
368
 50
90.0
 41
0.8
  0
ENDBLK
  5
2CC8
  8
0
  0
BLOCK
  8
0
  2
*U46
 70
     1
 10
0.0
 20
0.0
 30
0.0
  3
*U46
  1

  0
TEXT
  5
2CCA
  8
UITSLAG
 10
4081.2349735643038
 20
270.43146428523778
 30
0.0
 40
175.0
  1
368
 50
90.0
 41
0.8
  0
ENDBLK
  5
2CCC
  8
0
  0
BLOCK
  8
0
  2
*U47
 70
     1
 10
0.0
 20
0.0
 30
0.0
  3
*U47
  1

  0
TEXT
  5
2CCE
  8
UITSLAG
 10
3862.4072171398288
 20
1273.0611811126189
 30
0.0
 40
175.0
  1
732
 50
90.0
 41
0.8
  0
ENDBLK
  5
2CD0
  8
0
  0
BLOCK
  8
0
  2
*U48
 70
     1
 10
0.0
 20
0.0
 30
0.0
  3
*U48
  1

  0
TEXT
  5
2CD2
  8
UITSLAG
 10
2803.959434765216
 20
293.4579455523338
 30
0.0
 40
175.0
  1
391
 50
90.0
 41
0.8
  0
ENDBLK
  5
2CD4
  8
0
  0
BLOCK
  8
0
  2
*U49
 70
     1
 10
0.0
 20
0.0
 30
0.0
  3
*U49
  1

  0
TEXT
  5
2CD6
  8
UITSLAG
 10
2699.2411707745769
 20
2043.9082770383011
 30
0.0
 40
175.0
  1
158
 50
90.0
 41
0.8
  0
ENDBLK
  5
2CD8
  8
0
  0
BLOCK
  8
0
  2
*U50
 70
     1
 10
0.0
 20
0.0
 30
0.0
  3
*U50
  1

  0
TEXT
  5
2CDA
  8
UITSLAG
 10
2549.8781036833529
 20
2534.9967141563752
 30
0.0
 40
175.0
  1
71
 50
90.0
 41
0.8
  0
ENDBLK
  5
2CDC
  8
0
  0
BLOCK
  8
0
  2
*U51
 70
     1
 10
0.0
 20
0.0
 30
0.0
  3
*U51
  1

  0
TEXT
  5
2CDE
  8
DIM
 10
146.98774438208781
 20
1941.0283859450431
 30
0.0
 40
120.0
  1
UNIE640: 1x snijden uit "UNIE640"
 41
0.8
  0
TEXT
  5
2CDF
  8
DIM
 10
146.98774438208781
 20
1741.0283859450431
 30
0.0
 40
120.0
  1
laag 8c
 41
0.8
  0
ENDBLK
  5
2CE1
  8
0
  0
BLOCK
  8
0
  2
*U52
 70
     1
 10
0.0
 20
0.0
 30
0.0
  3
*U52
  1

  0
TEXT
  5
2CE3
  8
DIM
 10
26809.08783099466
 20
6266.0878216456331
 30
0.0
 40
175.0
  1
5052
 41
0.8
  0
ENDBLK
  5
2CE5
  8
0
  0
BLOCK
  8
0
  2
*U53
 70
     1
 10
0.0
 20
0.0
 30
0.0
  3
*U53
  1

  0
TEXT
  5
2CE7
  8
DIM
 10
24201.960920637441
 20
7066.2761641792913
 30
0.0
 40
175.0
  1
1350
 50
90.0
 41
0.8
  0
ENDBLK
  5
2CE9
  8
0
  0
BLOCK
  8
0
  2
*U54
 70
     1
 10
0.0
 20
0.0
 30
0.0
  3
*U54
  1

  0
TEXT
  5
2CF5
  8
DIM
 10
30224.9859006365
 20
10393.054781103219
 30
0.0
 40
175.0
  1
720
 50
90.0
 41
0.8
  0
ENDBLK
  5
2CF7
  8
0
  0
BLOCK
  8
0
  2
*U55
 70
     1
 10
0.0
 20
0.0
 30
0.0
  3
*U55
  1

  0
TEXT
  5
2CF9
  8
DIM
 10
31447.436993480769
 20
11103.054781103219
 30
0.0
 40
175.0
  1
445
 50
90.0
 41
0.8
  0
ENDBLK
  5
2CFB
  8
0
  0
BLOCK
  8
0
  2
*U56
 70
     1
 10
0.0
 20
0.0
 30
0.0
  3
*U56
  1

  0
TEXT
  5
2CFD
  8
DIM
 10
31940.029906488711
 20
10468.80270639065
 30
0.0
 40
175.0
  1
895
 50
90.0
 41
0.8
  0
ENDBLK
  5
2CFF
  8
0
  0
BLOCK
  8
0
  2
*U57
 70
     1
 10
0.0
 20
0.0
 30
0.0
  3
*U57
  1

  0
TEXT
  5
2D01
  8
DIM
 10
32873.020700131849
 20
9711.8014564376008
 30
0.0
 40
175.0
  1
350
 41
0.8
  0
ENDBLK
  5
2D03
  8
0
  0
BLOCK
  8
0
  2
*U58
 70
     1
 10
0.0
 20
0.0
 30
0.0
  3
*U58
  1

  0
TEXT
  5
2D05
  8
DIM
 10
32854.04620456777
 20
11552.883965011421
 30
0.0
 40
175.0
  1
159
 50
90.0
 41
0.8
  0
ENDBLK
  5
2D07
  8
0
  0
BLOCK
  8
0
  2
*U59
 70
     1
 10
0.0
 20
0.0
 30
0.0
  3
*U59
  1

  0
TEXT
  5
2D09
  8
DIM
 10
31725.089089236579
 20
11413.49132230883
 30
0.0
 40
175.0
  1
61
 41
0.8
  0
ENDBLK
  5
2D0B
  8
0
  0
BLOCK
  8
0
  2
*U60
 70
     1
 10
0.0
 20
0.0
 30
0.0
  3
*U60
  1

  0
TEXT
  5
2D0D
  8
DIM
 10
32781.957170065361
 20
10312.38811443655
 30
0.0
 40
175.0
  1
582
 50
90.0
 41
0.8
  0
ENDBLK
  5
2D0F
  8
0
  0
BLOCK
  8
0
  2
*U61
 70
     1
 10
0.0
 20
0.0
 30
0.0
  3
*U61
  1

  0
TEXT
  5
2D11
  8
DIM
 10
33023.020700131849
 20
10097.2452024658
 30
0.0
 40
175.0
  1
140
 41
0.8
  0
ENDBLK
  5
2D13
  8
0
  0
BLOCK
  8
0
  2
*U62
 70
     1
 10
0.0
 20
0.0
 30
0.0
  3
*U62
  1

  0
TEXT
  5
2D15
  8
DIM
 10
34240.484314212183
 20
10832.054781103219
 30
0.0
 40
175.0
  1
174
 50
90.0
 41
0.8
  0
ENDBLK
  5
2D17
  8
0
  0
BLOCK
  8
0
  2
*U63
 70
     1
 10
0.0
 20
0.0
 30
0.0
  3
*U63
  1

  0
TEXT
  5
2D1B
  8
DIM
 10
6585.585172027274
 20
4936.3011262548453
 30
0.0
 40
175.0
  1
930
 41
0.8
  0
ENDBLK
  5
2D1D
  8
0
  0
BLOCK
  8
0
  2
*U64
 70
     1
 10
0.0
 20
0.0
 30
0.0
  3
*U64
  1

  0
TEXT
  5
2D1F
  8
DIM
 10
6091.7960756726534
 20
4007.2223904978291
 30
0.0
 40
175.0
  1
904
 50
90.0
 41
0.8
  0
ENDBLK
  5
2D21
  8
0
  0
BLOCK
  8
0
  2
*U65
 70
     1
 10
0.0
 20
0.0
 30
0.0
  3
*U65
  1

  0
TEXT
  5
2D23
  8
DIM
 10
6091.7960756726534
 20
5143.994354249322
 30
0.0
 40
175.0
  1
60
 50
90.0
 41
0.8
  0
ENDBLK
  5
2D25
  8
0
  0
BLOCK
  8
0
  2
*U66
 70
     1
 10
0.0
 20
0.0
 30
0.0
  3
*U66
  1

  0
TEXT
  5
2D27
  8
DIM
 10
24318.732006478891
 20
-6416.4403226085878
 30
0.0
 40
175.0
  1
998
 50
90.0
 41
0.8
  0
ENDBLK
  5
2D29
  8
0
  0
BLOCK
  8
0
  2
*U67
 70
     1
 10
0.0
 20
0.0
 30
0.0
  3
*U67
  1

  0
TEXT
  5
2D2B
  8
DIM
 10
29085.735971196071
 20
-731.81257571207243
 30
0.0
 40
175.0
  1
10096
 41
0.8
  0
ENDBLK
  5
2D2D
  8
0
  0
BLOCK
  8
0
  2
*U68
 70
     1
 10
0.0
 20
0.0
 30
0.0
  3
*U68
  1

  0
TEXT
  5
2D2F
  8
DIM
 10
24070.058056268939
 20
63.511806237848802
 30
0.0
 40
175.0
  1
1249
 50
90.0
 41
0.8
  0
ENDBLK
  5
2D31
  8
0
  0
BLOCK
  8
0
  2
*U69
 70
     1
 10
0.0
 20
0.0
 30
0.0
  3
*U69
  1

  0
TEXT
  5
2D33
  8
DIM
 10
29108.6988421442
 20
-3211.8012955506342
 30
0.0
 40
175.0
  1
10096
 41
0.8
  0
ENDBLK
  5
2D35
  8
0
  0
BLOCK
  8
0
  2
*U70
 70
     1
 10
0.0
 20
0.0
 30
0.0
  3
*U70
  1

  0
TEXT
  5
2D37
  8
DIM
 10
24093.020927217069
 20
-2416.4769136007139
 30
0.0
 40
175.0
  1
1249
 50
90.0
 41
0.8
  0
ENDBLK
  5
2D39
  8
0
  0
BLOCK
  8
0
  2
*U71
 70
     1
 10
0.0
 20
0.0
 30
0.0
  3
*U71
  1

  0
TEXT
  5
2D3B
  8
DIM
 10
26867.526897096821
 20
3955.6642591883351
 30
0.0
 40
175.0
  1
5361
 41
0.8
  0
ENDBLK
  5
2D3D
  8
0
  0
BLOCK
  8
0
  2
*U72
 70
     1
 10
0.0
 20
0.0
 30
0.0
  3
*U72
  1

  0
TEXT
  5
2D3F
  8
DIM
 10
24094.35635842699
 20
4755.8526017219929
 30
0.0
 40
175.0
  1
1350
 50
90.0
 41
0.8
  0
ENDBLK
  5
2D41
  8
0
  0
BLOCK
  8
0
  2
*U73
 70
     1
 10
0.0
 20
0.0
 30
0.0
  3
*U73
  1

  0
TEXT
  5
2D43
  8
DIM
 10
25792.970100940889
 20
-7085.7494248141311
 30
0.0
 40
175.0
  1
2534
 41
0.8
  0
ENDBLK
  5
2D45
  8
0
  0
BLOCK
  8
0
  2
*U74
 70
     1
 10
0.0
 20
0.0
 30
0.0
  3
*U74
  1

  0
TEXT
  5
2D47
  8
DIM
 10
34282.557955852237
 20
-7048.9230870379843
 30
0.0
 40
175.0
  1
2534
 41
0.8
  0
ENDBLK
  5
2D49
  8
0
  0
BLOCK
  8
0
  2
*U75
 70
     1
 10
0.0
 20
0.0
 30
0.0
  3
*U75
  1

  0
TEXT
  5
2D4B
  8
DIM
 10
32808.319861390228
 20
-6379.613984832441
 30
0.0
 40
175.0
  1
998
 50
90.0
 41
0.8
  0
ENDBLK
  5
2D4D
  8
0
  0
BLOCK
  8
0
  2
*U76
 70
     1
 10
0.0
 20
0.0
 30
0.0
  3
*U76
  1

  0
TEXT
  5
2D4F
  8
DIM
 10
26658.601775649789
 20
-7187.0250899819148
 30
0.0
 40
175.0
  1
1250
 41
0.8
  0
ENDBLK
  5
2D51
  8
0
  0
BLOCK
  8
0
  2
*U77
 70
     1
 10
0.0
 20
0.0
 30
0.0
  3
*U77
  1

  0
TEXT
  5
2D53
  8
DIM
 10
25388.601775649789
 20
-7187.0250899819148
 30
0.0
 40
175.0
  1
1250
 41
0.8
  0
ENDBLK
  5
2D55
  8
0
  0
BLOCK
  8
0
  2
*U78
 70
     1
 10
0.0
 20
0.0
 30
0.0
  3
*U78
  1

  0
TEXT
  5
2D57
  8
DIM
 10
24770.341675629272
 20
-6283.8421896676591
 30
0.0
 40
175.0
  1
1250
 50
90.0
 41
0.8
  0
ENDBLK
  5
2D59
  8
0
  0
BLOCK
  8
0
  2
*U79
 70
     1
 10
0.0
 20
0.0
 30
0.0
  3
*U79
  1

  0
TEXT
  5
2D5B
  8
DATUM
 10
1619.8555550422459
 20
1811.951295094681
 30
0.0
 40
60.0
  1
door: Roland Smith
 41
0.8
  0
TEXT
  5
2D5C
  8
DATUM
 10
1619.8555550422459
 20
1711.951295094681
 30
0.0
 40
60.0
  1
datum: 29 mei 2013
 41
0.8
  0
ENDBLK
  5
2D5E
  8
0
  0
BLOCK
  8
0
  2
*U80
 70
     1
 10
0.0
 20
0.0
 30
0.0
  3
*U80
  1

  0
TEXT
  5
2D60
  8
DIM
 10
459.64877174251887
 20
207.14093614606099
 30
0.0
 40
175.0
  1
930
 41
0.8
  0
ENDBLK
  5
2D62
  8
0
  0
BLOCK
  8
0
  2
*U81
 70
     1
 10
0.0
 20
0.0
 30
0.0
  3
*U81
  1

  0
TEXT
  5
2D64
  8
DIM
 10
1376.6487717425191
 20
207.14093614606099
 30
0.0
 40
175.0
  1
904
 41
0.8
  0
ENDBLK
  5
2D66
  8
0
  0
BLOCK
  8
0
  2
*U82
 70
     1
 10
0.0
 20
0.0
 30
0.0
  3
*U82
  1

  0
TEXT
  5
2D68
  8
DIM
 10
2311.2681779769632
 20
812.56232114112254
 30
0.0
 40
175.0
  1
1200
 50
90.0
 41
0.8
  0
ENDBLK
  5
2D6A
  8
0
  0
ENDSEC
  0
SECTION
  2
ENTITIES
  0
LINE
  5
1EB2
  8
UNIE640
 10
169.6487717425189
 20
422.56232114112203
 30
0.0
 11
2003.6487717425191
 21
422.56232114112203
 31
0.0
  0
LINE
  5
1EB3
  8
UNIE640
 10
169.6487717425189
 20
482.56232114112208
 30
0.0
 11
219.6487717425189
 21
482.56232114112208
 31
0.0
  0
LINE
  5
1EB4
  8
UNIE640
 10
269.64877174251887
 20
482.56232114112208
 30
0.0
 11
319.64877174251887
 21
482.56232114112208
 31
0.0
  0
LINE
  5
1EB5
  8
UNIE640
 10
369.64877174251887
 20
482.56232114112208
 30
0.0
 11
419.64877174251882
 21
482.56232114112208
 31
0.0
  0
LINE
  5
1EB6
  8
UNIE640
 10
469.64877174251882
 20
482.56232114112208
 30
0.0
 11
519.64877174251876
 21
482.56232114112208
 31
0.0
  0
LINE
  5
1EB7
  8
UNIE640
 10
569.64877174251876
 20
482.56232114112208
 30
0.0
 11
619.64877174251876
 21
482.56232114112208
 31
0.0
  0
LINE
  5
1EB8
  8
UNIE640
 10
669.64877174251876
 20
482.56232114112208
 30
0.0
 11
719.64877174251876
 21
482.56232114112208
 31
0.0
  0
LINE
  5
1EB9
  8
UNIE640
 10
769.64877174251876
 20
482.56232114112208
 30
0.0
 11
819.64877174251876
 21
482.56232114112208
 31
0.0
  0
LINE
  5
1EBA
  8
UNIE640
 10
869.64877174251876
 20
482.56232114112208
 30
0.0
 11
919.64877174251876
 21
482.56232114112208
 31
0.0
  0
LINE
  5
1EBB
  8
UNIE640
 10
969.64877174251876
 20
482.56232114112208
 30
0.0
 11
1019.648771742519
 21
482.56232114112208
 31
0.0
  0
LINE
  5
1EBC
  8
UNIE640
 10
1069.6487717425191
 20
482.56232114112208
 30
0.0
 11
1119.6487717425191
 21
482.56232114112208
 31
0.0
  0
LINE
  5
1EBD
  8
UNIE640
 10
1169.6487717425191
 20
482.56232114112208
 30
0.0
 11
1219.6487717425191
 21
482.56232114112208
 31
0.0
  0
LINE
  5
1EBE
  8
UNIE640
 10
1269.6487717425191
 20
482.56232114112208
 30
0.0
 11
1319.6487717425191
 21
482.56232114112208
 31
0.0
  0
LINE
  5
1EBF
  8
UNIE640
 10
1369.6487717425191
 20
482.56232114112208
 30
0.0
 11
1419.6487717425191
 21
482.56232114112208
 31
0.0
  0
LINE
  5
1EC0
  8
UNIE640
 10
1469.6487717425191
 20
482.56232114112208
 30
0.0
 11
1519.6487717425191
 21
482.56232114112208
 31
0.0
  0
LINE
  5
1EC1
  8
UNIE640
 10
1569.6487717425191
 20
482.56232114112208
 30
0.0
 11
1619.6487717425191
 21
482.56232114112208
 31
0.0
  0
LINE
  5
1EC2
  8
UNIE640
 10
1689.1483536748999
 20
482.56232114112208
 30
0.0
 11
1739.1483536748999
 21
482.56232114112208
 31
0.0
  0
LINE
  5
1EC3
  8
UNIE640
 10
1789.1483536748999
 20
482.56232114112208
 30
0.0
 11
1839.1483536748999
 21
482.56232114112208
 31
0.0
  0
LINE
  5
1EC4
  8
UNIE640
 10
1889.1483536748999
 20
482.56232114112208
 30
0.0
 11
1939.1483536748999
 21
482.56232114112208
 31
0.0
  0
LINE
  5
1EC5
  8
UNIE640
 10
1989.1483536748999
 20
482.56232114112208
 30
0.0
 11
2003.6487717425191
 21
482.56232114112208
 31
0.0
  0
LINE
  5
1EC6
  8
UNIE640
 10
169.6487717425189
 20
422.56232114112203
 30
0.0
 11
169.6487717425189
 21
1622.5623211411221
 31
0.0
  0
LINE
  5
1EC7
  8
UNIE640
 10
1099.6487717425191
 20
422.56232114112203
 30
0.0
 11
1099.6487717425191
 21
1622.5623211411221
 31
0.0
  0
LINE
  5
1EC8
  8
UNIE640
 10
2003.6487717425191
 20
422.56232114112203
 30
0.0
 11
2003.6487717425191
 21
1622.5623211411221
 31
0.0
  0
LINE
  5
1EC9
  8
UNIE640
 10
169.6487717425189
 20
542.56232114112197
 30
0.0
 11
219.6487717425189
 21
542.56232114112197
 31
0.0
  0
LINE
  5
1ECA
  8
UNIE640
 10
269.64877174251887
 20
542.56232114112197
 30
0.0
 11
319.64877174251887
 21
542.56232114112197
 31
0.0
  0
LINE
  5
1ECB
  8
UNIE640
 10
369.64877174251887
 20
542.56232114112197
 30
0.0
 11
419.64877174251882
 21
542.56232114112197
 31
0.0
  0
LINE
  5
1ECC
  8
UNIE640
 10
469.64877174251882
 20
542.56232114112197
 30
0.0
 11
519.64877174251876
 21
542.56232114112197
 31
0.0
  0
LINE
  5
1ECD
  8
UNIE640
 10
569.64877174251876
 20
542.56232114112197
 30
0.0
 11
619.64877174251876
 21
542.56232114112197
 31
0.0
  0
LINE
  5
1ECE
  8
UNIE640
 10
669.64877174251876
 20
542.56232114112197
 30
0.0
 11
719.64877174251876
 21
542.56232114112197
 31
0.0
  0
LINE
  5
1ECF
  8
UNIE640
 10
769.64877174251876
 20
542.56232114112197
 30
0.0
 11
819.64877174251876
 21
542.56232114112197
 31
0.0
  0
LINE
  5
1ED0
  8
UNIE640
 10
869.64877174251876
 20
542.56232114112197
 30
0.0
 11
919.64877174251876
 21
542.56232114112197
 31
0.0
  0
LINE
  5
1ED1
  8
UNIE640
 10
969.64877174251876
 20
542.56232114112197
 30
0.0
 11
1019.648771742519
 21
542.56232114112197
 31
0.0
  0
LINE
  5
1ED2
  8
UNIE640
 10
1069.6487717425191
 20
542.56232114112197
 30
0.0
 11
1119.6487717425191
 21
542.56232114112197
 31
0.0
  0
LINE
  5
1ED3
  8
UNIE640
 10
1169.6487717425191
 20
542.56232114112197
 30
0.0
 11
1219.6487717425191
 21
542.56232114112197
 31
0.0
  0
LINE
  5
1ED4
  8
UNIE640
 10
1269.6487717425191
 20
542.56232114112197
 30
0.0
 11
1319.6487717425191
 21
542.56232114112197
 31
0.0
  0
LINE
  5
1ED5
  8
UNIE640
 10
1369.6487717425191
 20
542.56232114112197
 30
0.0
 11
1419.6487717425191
 21
542.56232114112197
 31
0.0
  0
LINE
  5
1ED6
  8
UNIE640
 10
1469.6487717425191
 20
542.56232114112197
 30
0.0
 11
1519.6487717425191
 21
542.56232114112197
 31
0.0
  0
LINE
  5
1ED7
  8
UNIE640
 10
1569.6487717425191
 20
542.56232114112197
 30
0.0
 11
1619.6487717425191
 21
542.56232114112197
 31
0.0
  0
LINE
  5
1ED8
  8
UNIE640
 10
1689.1483536748999
 20
542.56232114112197
 30
0.0
 11
1739.1483536748999
 21
542.56232114112197
 31
0.0
  0
LINE
  5
1ED9
  8
UNIE640
 10
1789.1483536748999
 20
542.56232114112197
 30
0.0
 11
1839.1483536748999
 21
542.56232114112197
 31
0.0
  0
LINE
  5
1EDA
  8
UNIE640
 10
1889.1483536748999
 20
542.56232114112197
 30
0.0
 11
1939.1483536748999
 21
542.56232114112197
 31
0.0
  0
LINE
  5
1EDB
  8
UNIE640
 10
1989.1483536748999
 20
542.56232114112197
 30
0.0
 11
2003.6487717425191
 21
542.56232114112197
 31
0.0
  0
LINE
  5
1EDC
  8
UNIE640
 10
169.6487717425189
 20
602.56232114112208
 30
0.0
 11
219.6487717425189
 21
602.56232114112208
 31
0.0
  0
LINE
  5
1EDD
  8
UNIE640
 10
269.64877174251887
 20
602.56232114112208
 30
0.0
 11
319.64877174251887
 21
602.56232114112208
 31
0.0
  0
LINE
  5
1EDE
  8
UNIE640
 10
369.64877174251887
 20
602.56232114112208
 30
0.0
 11
419.64877174251882
 21
602.56232114112208
 31
0.0
  0
LINE
  5
1EDF
  8
UNIE640
 10
469.64877174251882
 20
602.56232114112208
 30
0.0
 11
519.64877174251876
 21
602.56232114112208
 31
0.0
  0
LINE
  5
1EE0
  8
UNIE640
 10
569.64877174251876
 20
602.56232114112208
 30
0.0
 11
619.64877174251876
 21
602.56232114112208
 31
0.0
  0
LINE
  5
1EE1
  8
UNIE640
 10
669.64877174251876
 20
602.56232114112208
 30
0.0
 11
719.64877174251876
 21
602.56232114112208
 31
0.0
  0
LINE
  5
1EE2
  8
UNIE640
 10
769.64877174251876
 20
602.56232114112208
 30
0.0
 11
819.64877174251876
 21
602.56232114112208
 31
0.0
  0
LINE
  5
1EE3
  8
UNIE640
 10
869.64877174251876
 20
602.56232114112208
 30
0.0
 11
919.64877174251876
 21
602.56232114112208
 31
0.0
  0
LINE
  5
1EE4
  8
UNIE640
 10
969.64877174251876
 20
602.56232114112208
 30
0.0
 11
1019.648771742519
 21
602.56232114112208
 31
0.0
  0
LINE
  5
1EE5
  8
UNIE640
 10
1069.6487717425191
 20
602.56232114112208
 30
0.0
 11
1119.6487717425191
 21
602.56232114112208
 31
0.0
  0
LINE
  5
1EE6
  8
UNIE640
 10
1169.6487717425191
 20
602.56232114112208
 30
0.0
 11
1219.6487717425191
 21
602.56232114112208
 31
0.0
  0
LINE
  5
1EE7
  8
UNIE640
 10
1269.6487717425191
 20
602.56232114112208
 30
0.0
 11
1319.6487717425191
 21
602.56232114112208
 31
0.0
  0
LINE
  5
1EE8
  8
UNIE640
 10
1369.6487717425191
 20
602.56232114112208
 30
0.0
 11
1419.6487717425191
 21
602.56232114112208
 31
0.0
  0
LINE
  5
1EE9
  8
UNIE640
 10
1469.6487717425191
 20
602.56232114112208
 30
0.0
 11
1519.6487717425191
 21
602.56232114112208
 31
0.0
  0
LINE
  5
1EEA
  8
UNIE640
 10
1569.6487717425191
 20
602.56232114112208
 30
0.0
 11
1619.6487717425191
 21
602.56232114112208
 31
0.0
  0
LINE
  5
1EEB
  8
UNIE640
 10
1689.1483536748999
 20
602.56232114112208
 30
0.0
 11
1739.1483536748999
 21
602.56232114112208
 31
0.0
  0
LINE
  5
1EEC
  8
UNIE640
 10
1789.1483536748999
 20
602.56232114112208
 30
0.0
 11
1839.1483536748999
 21
602.56232114112208
 31
0.0
  0
LINE
  5
1EED
  8
UNIE640
 10
1889.1483536748999
 20
602.56232114112208
 30
0.0
 11
1939.1483536748999
 21
602.56232114112208
 31
0.0
  0
LINE
  5
1EEE
  8
UNIE640
 10
1989.1483536748999
 20
602.56232114112208
 30
0.0
 11
2003.6487717425191
 21
602.56232114112208
 31
0.0
  0
LINE
  5
1EEF
  8
UNIE640
 10
169.6487717425189
 20
662.56232114112208
 30
0.0
 11
219.6487717425189
 21
662.56232114112208
 31
0.0
  0
LINE
  5
1EF0
  8
UNIE640
 10
269.64877174251887
 20
662.56232114112208
 30
0.0
 11
319.64877174251887
 21
662.56232114112208
 31
0.0
  0
LINE
  5
1EF1
  8
UNIE640
 10
369.64877174251887
 20
662.56232114112208
 30
0.0
 11
419.64877174251882
 21
662.56232114112208
 31
0.0
  0
LINE
  5
1EF2
  8
UNIE640
 10
469.64877174251882
 20
662.56232114112208
 30
0.0
 11
519.64877174251876
 21
662.56232114112208
 31
0.0
  0
LINE
  5
1EF3
  8
UNIE640
 10
569.64877174251876
 20
662.56232114112208
 30
0.0
 11
619.64877174251876
 21
662.56232114112208
 31
0.0
  0
LINE
  5
1EF4
  8
UNIE640
 10
669.64877174251876
 20
662.56232114112208
 30
0.0
 11
719.64877174251876
 21
662.56232114112208
 31
0.0
  0
LINE
  5
1EF5
  8
UNIE640
 10
769.64877174251876
 20
662.56232114112208
 30
0.0
 11
819.64877174251876
 21
662.56232114112208
 31
0.0
  0
LINE
  5
1EF6
  8
UNIE640
 10
869.64877174251876
 20
662.56232114112208
 30
0.0
 11
919.64877174251876
 21
662.56232114112208
 31
0.0
  0
LINE
  5
1EF7
  8
UNIE640
 10
969.64877174251876
 20
662.56232114112208
 30
0.0
 11
1019.648771742519
 21
662.56232114112208
 31
0.0
  0
LINE
  5
1EF8
  8
UNIE640
 10
1069.6487717425191
 20
662.56232114112208
 30
0.0
 11
1119.6487717425191
 21
662.56232114112208
 31
0.0
  0
LINE
  5
1EF9
  8
UNIE640
 10
1169.6487717425191
 20
662.56232114112208
 30
0.0
 11
1219.6487717425191
 21
662.56232114112208
 31
0.0
  0
LINE
  5
1EFA
  8
UNIE640
 10
1269.6487717425191
 20
662.56232114112208
 30
0.0
 11
1319.6487717425191
 21
662.56232114112208
 31
0.0
  0
LINE
  5
1EFB
  8
UNIE640
 10
1369.6487717425191
 20
662.56232114112208
 30
0.0
 11
1419.6487717425191
 21
662.56232114112208
 31
0.0
  0
LINE
  5
1EFC
  8
UNIE640
 10
1469.6487717425191
 20
662.56232114112208
 30
0.0
 11
1519.6487717425191
 21
662.56232114112208
 31
0.0
  0
LINE
  5
1EFD
  8
UNIE640
 10
1569.6487717425191
 20
662.56232114112208
 30
0.0
 11
1619.6487717425191
 21
662.56232114112208
 31
0.0
  0
LINE
  5
1EFE
  8
UNIE640
 10
1689.1483536748999
 20
662.56232114112208
 30
0.0
 11
1739.1483536748999
 21
662.56232114112208
 31
0.0
  0
LINE
  5
1EFF
  8
UNIE640
 10
1789.1483536748999
 20
662.56232114112208
 30
0.0
 11
1839.1483536748999
 21
662.56232114112208
 31
0.0
  0
LINE
  5
1F00
  8
UNIE640
 10
1889.1483536748999
 20
662.56232114112208
 30
0.0
 11
1939.1483536748999
 21
662.56232114112208
 31
0.0
  0
LINE
  5
1F01
  8
UNIE640
 10
1989.1483536748999
 20
662.56232114112208
 30
0.0
 11
2003.6487717425191
 21
662.56232114112208
 31
0.0
  0
LINE
  5
1F02
  8
UNIE640
 10
169.6487717425189
 20
722.56232114112197
 30
0.0
 11
219.6487717425189
 21
722.56232114112197
 31
0.0
  0
LINE
  5
1F03
  8
UNIE640
 10
269.64877174251887
 20
722.56232114112197
 30
0.0
 11
319.64877174251887
 21
722.56232114112197
 31
0.0
  0
LINE
  5
1F04
  8
UNIE640
 10
369.64877174251887
 20
722.56232114112197
 30
0.0
 11
419.64877174251882
 21
722.56232114112197
 31
0.0
  0
LINE
  5
1F05
  8
UNIE640
 10
469.64877174251882
 20
722.56232114112197
 30
0.0
 11
519.64877174251876
 21
722.56232114112197
 31
0.0
  0
LINE
  5
1F06
  8
UNIE640
 10
569.64877174251876
 20
722.56232114112197
 30
0.0
 11
619.64877174251876
 21
722.56232114112197
 31
0.0
  0
LINE
  5
1F07
  8
UNIE640
 10
669.64877174251876
 20
722.56232114112197
 30
0.0
 11
719.64877174251876
 21
722.56232114112197
 31
0.0
  0
LINE
  5
1F08
  8
UNIE640
 10
769.64877174251876
 20
722.56232114112197
 30
0.0
 11
819.64877174251876
 21
722.56232114112197
 31
0.0
  0
LINE
  5
1F09
  8
UNIE640
 10
869.64877174251876
 20
722.56232114112197
 30
0.0
 11
919.64877174251876
 21
722.56232114112197
 31
0.0
  0
LINE
  5
1F0A
  8
UNIE640
 10
969.64877174251876
 20
722.56232114112197
 30
0.0
 11
1019.648771742519
 21
722.56232114112197
 31
0.0
  0
LINE
  5
1F0B
  8
UNIE640
 10
1069.6487717425191
 20
722.56232114112197
 30
0.0
 11
1119.6487717425191
 21
722.56232114112197
 31
0.0
  0
LINE
  5
1F0C
  8
UNIE640
 10
1169.6487717425191
 20
722.56232114112197
 30
0.0
 11
1219.6487717425191
 21
722.56232114112197
 31
0.0
  0
LINE
  5
1F0D
  8
UNIE640
 10
1269.6487717425191
 20
722.56232114112197
 30
0.0
 11
1319.6487717425191
 21
722.56232114112197
 31
0.0
  0
LINE
  5
1F0E
  8
UNIE640
 10
1369.6487717425191
 20
722.56232114112197
 30
0.0
 11
1419.6487717425191
 21
722.56232114112197
 31
0.0
  0
LINE
  5
1F0F
  8
UNIE640
 10
1469.6487717425191
 20
722.56232114112197
 30
0.0
 11
1519.6487717425191
 21
722.56232114112197
 31
0.0
  0
LINE
  5
1F10
  8
UNIE640
 10
1569.6487717425191
 20
722.56232114112197
 30
0.0
 11
1619.6487717425191
 21
722.56232114112197
 31
0.0
  0
LINE
  5
1F11
  8
UNIE640
 10
1689.1483536748999
 20
722.56232114112197
 30
0.0
 11
1739.1483536748999
 21
722.56232114112197
 31
0.0
  0
LINE
  5
1F12
  8
UNIE640
 10
1789.1483536748999
 20
722.56232114112197
 30
0.0
 11
1839.1483536748999
 21
722.56232114112197
 31
0.0
  0
LINE
  5
1F13
  8
UNIE640
 10
1889.1483536748999
 20
722.56232114112197
 30
0.0
 11
1939.1483536748999
 21
722.56232114112197
 31
0.0
  0
LINE
  5
1F14
  8
UNIE640
 10
1989.1483536748999
 20
722.56232114112197
 30
0.0
 11
2003.6487717425191
 21
722.56232114112197
 31
0.0
  0
LINE
  5
1F15
  8
UNIE640
 10
169.6487717425189
 20
782.56232114112208
 30
0.0
 11
219.6487717425189
 21
782.56232114112208
 31
0.0
  0
LINE
  5
1F16
  8
UNIE640
 10
269.64877174251887
 20
782.56232114112208
 30
0.0
 11
319.64877174251887
 21
782.56232114112208
 31
0.0
  0
LINE
  5
1F17
  8
UNIE640
 10
369.64877174251887
 20
782.56232114112208
 30
0.0
 11
419.64877174251882
 21
782.56232114112208
 31
0.0
  0
LINE
  5
1F18
  8
UNIE640
 10
469.64877174251882
 20
782.56232114112208
 30
0.0
 11
519.64877174251876
 21
782.56232114112208
 31
0.0
  0
LINE
  5
1F19
  8
UNIE640
 10
569.64877174251876
 20
782.56232114112208
 30
0.0
 11
619.64877174251876
 21
782.56232114112208
 31
0.0
  0
LINE
  5
1F1A
  8
UNIE640
 10
669.64877174251876
 20
782.56232114112208
 30
0.0
 11
719.64877174251876
 21
782.56232114112208
 31
0.0
  0
LINE
  5
1F1B
  8
UNIE640
 10
769.64877174251876
 20
782.56232114112208
 30
0.0
 11
819.64877174251876
 21
782.56232114112208
 31
0.0
  0
LINE
  5
1F1C
  8
UNIE640
 10
869.64877174251876
 20
782.56232114112208
 30
0.0
 11
919.64877174251876
 21
782.56232114112208
 31
0.0
  0
LINE
  5
1F1D
  8
UNIE640
 10
969.64877174251876
 20
782.56232114112208
 30
0.0
 11
1019.648771742519
 21
782.56232114112208
 31
0.0
  0
LINE
  5
1F1E
  8
UNIE640
 10
1069.6487717425191
 20
782.56232114112208
 30
0.0
 11
1119.6487717425191
 21
782.56232114112208
 31
0.0
  0
LINE
  5
1F1F
  8
UNIE640
 10
1169.6487717425191
 20
782.56232114112208
 30
0.0
 11
1219.6487717425191
 21
782.56232114112208
 31
0.0
  0
LINE
  5
1F20
  8
UNIE640
 10
1269.6487717425191
 20
782.56232114112208
 30
0.0
 11
1319.6487717425191
 21
782.56232114112208
 31
0.0
  0
LINE
  5
1F21
  8
UNIE640
 10
1369.6487717425191
 20
782.56232114112208
 30
0.0
 11
1419.6487717425191
 21
782.56232114112208
 31
0.0
  0
LINE
  5
1F22
  8
UNIE640
 10
1469.6487717425191
 20
782.56232114112208
 30
0.0
 11
1519.6487717425191
 21
782.56232114112208
 31
0.0
  0
LINE
  5
1F23
  8
UNIE640
 10
1569.6487717425191
 20
782.56232114112208
 30
0.0
 11
1619.6487717425191
 21
782.56232114112208
 31
0.0
  0
LINE
  5
1F24
  8
UNIE640
 10
1689.1483536748999
 20
782.56232114112208
 30
0.0
 11
1739.1483536748999
 21
782.56232114112208
 31
0.0
  0
LINE
  5
1F25
  8
UNIE640
 10
1789.1483536748999
 20
782.56232114112208
 30
0.0
 11
1839.1483536748999
 21
782.56232114112208
 31
0.0
  0
LINE
  5
1F26
  8
UNIE640
 10
1889.1483536748999
 20
782.56232114112208
 30
0.0
 11
1939.1483536748999
 21
782.56232114112208
 31
0.0
  0
LINE
  5
1F27
  8
UNIE640
 10
1989.1483536748999
 20
782.56232114112208
 30
0.0
 11
2003.6487717425191
 21
782.56232114112208
 31
0.0
  0
LINE
  5
1F28
  8
UNIE640
 10
169.6487717425189
 20
842.56232114112197
 30
0.0
 11
219.6487717425189
 21
842.56232114112197
 31
0.0
  0
LINE
  5
1F29
  8
UNIE640
 10
269.64877174251887
 20
842.56232114112197
 30
0.0
 11
319.64877174251887
 21
842.56232114112197
 31
0.0
  0
LINE
  5
1F2A
  8
UNIE640
 10
369.64877174251887
 20
842.56232114112197
 30
0.0
 11
419.64877174251882
 21
842.56232114112197
 31
0.0
  0
LINE
  5
1F2B
  8
UNIE640
 10
469.64877174251882
 20
842.56232114112197
 30
0.0
 11
519.64877174251876
 21
842.56232114112197
 31
0.0
  0
LINE
  5
1F2C
  8
UNIE640
 10
569.64877174251876
 20
842.56232114112197
 30
0.0
 11
619.64877174251876
 21
842.56232114112197
 31
0.0
  0
LINE
  5
1F2D
  8
UNIE640
 10
669.64877174251876
 20
842.56232114112197
 30
0.0
 11
719.64877174251876
 21
842.56232114112197
 31
0.0
  0
LINE
  5
1F2E
  8
UNIE640
 10
769.64877174251876
 20
842.56232114112197
 30
0.0
 11
819.64877174251876
 21
842.56232114112197
 31
0.0
  0
LINE
  5
1F2F
  8
UNIE640
 10
869.64877174251876
 20
842.56232114112197
 30
0.0
 11
919.64877174251876
 21
842.56232114112197
 31
0.0
  0
LINE
  5
1F30
  8
UNIE640
 10
969.64877174251876
 20
842.56232114112197
 30
0.0
 11
1019.648771742519
 21
842.56232114112197
 31
0.0
  0
LINE
  5
1F31
  8
UNIE640
 10
1069.6487717425191
 20
842.56232114112197
 30
0.0
 11
1119.6487717425191
 21
842.56232114112197
 31
0.0
  0
LINE
  5
1F32
  8
UNIE640
 10
1169.6487717425191
 20
842.56232114112197
 30
0.0
 11
1219.6487717425191
 21
842.56232114112197
 31
0.0
  0
LINE
  5
1F33
  8
UNIE640
 10
1269.6487717425191
 20
842.56232114112197
 30
0.0
 11
1319.6487717425191
 21
842.56232114112197
 31
0.0
  0
LINE
  5
1F34
  8
UNIE640
 10
1369.6487717425191
 20
842.56232114112197
 30
0.0
 11
1419.6487717425191
 21
842.56232114112197
 31
0.0
  0
LINE
  5
1F35
  8
UNIE640
 10
1469.6487717425191
 20
842.56232114112197
 30
0.0
 11
1519.6487717425191
 21
842.56232114112197
 31
0.0
  0
LINE
  5
1F36
  8
UNIE640
 10
1569.6487717425191
 20
842.56232114112197
 30
0.0
 11
1619.6487717425191
 21
842.56232114112197
 31
0.0
  0
LINE
  5
1F37
  8
UNIE640
 10
1689.1483536748999
 20
842.56232114112197
 30
0.0
 11
1739.1483536748999
 21
842.56232114112197
 31
0.0
  0
LINE
  5
1F38
  8
UNIE640
 10
1789.1483536748999
 20
842.56232114112197
 30
0.0
 11
1839.1483536748999
 21
842.56232114112197
 31
0.0
  0
LINE
  5
1F39
  8
UNIE640
 10
1889.1483536748999
 20
842.56232114112197
 30
0.0
 11
1939.1483536748999
 21
842.56232114112197
 31
0.0
  0
LINE
  5
1F3A
  8
UNIE640
 10
1989.1483536748999
 20
842.56232114112197
 30
0.0
 11
2003.6487717425191
 21
842.56232114112197
 31
0.0
  0
LINE
  5
1F3B
  8
UNIE640
 10
169.6487717425189
 20
902.56232114112197
 30
0.0
 11
219.6487717425189
 21
902.56232114112197
 31
0.0
  0
LINE
  5
1F3C
  8
UNIE640
 10
269.64877174251887
 20
902.56232114112197
 30
0.0
 11
319.64877174251887
 21
902.56232114112197
 31
0.0
  0
LINE
  5
1F3D
  8
UNIE640
 10
369.64877174251887
 20
902.56232114112197
 30
0.0
 11
419.64877174251882
 21
902.56232114112197
 31
0.0
  0
LINE
  5
1F3E
  8
UNIE640
 10
469.64877174251882
 20
902.56232114112197
 30
0.0
 11
519.64877174251876
 21
902.56232114112197
 31
0.0
  0
LINE
  5
1F3F
  8
UNIE640
 10
569.64877174251876
 20
902.56232114112197
 30
0.0
 11
619.64877174251876
 21
902.56232114112197
 31
0.0
  0
LINE
  5
1F40
  8
UNIE640
 10
669.64877174251876
 20
902.56232114112197
 30
0.0
 11
719.64877174251876
 21
902.56232114112197
 31
0.0
  0
LINE
  5
1F41
  8
UNIE640
 10
769.64877174251876
 20
902.56232114112197
 30
0.0
 11
819.64877174251876
 21
902.56232114112197
 31
0.0
  0
LINE
  5
1F42
  8
UNIE640
 10
869.64877174251876
 20
902.56232114112197
 30
0.0
 11
919.64877174251876
 21
902.56232114112197
 31
0.0
  0
LINE
  5
1F43
  8
UNIE640
 10
969.64877174251876
 20
902.56232114112197
 30
0.0
 11
1019.648771742519
 21
902.56232114112197
 31
0.0
  0
LINE
  5
1F44
  8
UNIE640
 10
1069.6487717425191
 20
902.56232114112197
 30
0.0
 11
1119.6487717425191
 21
902.56232114112197
 31
0.0
  0
LINE
  5
1F45
  8
UNIE640
 10
1169.6487717425191
 20
902.56232114112197
 30
0.0
 11
1219.6487717425191
 21
902.56232114112197
 31
0.0
  0
LINE
  5
1F46
  8
UNIE640
 10
1269.6487717425191
 20
902.56232114112197
 30
0.0
 11
1319.6487717425191
 21
902.56232114112197
 31
0.0
  0
LINE
  5
1F47
  8
UNIE640
 10
1369.6487717425191
 20
902.56232114112197
 30
0.0
 11
1419.6487717425191
 21
902.56232114112197
 31
0.0
  0
LINE
  5
1F48
  8
UNIE640
 10
1469.6487717425191
 20
902.56232114112197
 30
0.0
 11
1519.6487717425191
 21
902.56232114112197
 31
0.0
  0
LINE
  5
1F49
  8
UNIE640
 10
1569.6487717425191
 20
902.56232114112197
 30
0.0
 11
1619.6487717425191
 21
902.56232114112197
 31
0.0
  0
LINE
  5
1F4A
  8
UNIE640
 10
1689.1483536748999
 20
902.56232114112197
 30
0.0
 11
1739.1483536748999
 21
902.56232114112197
 31
0.0
  0
LINE
  5
1F4B
  8
UNIE640
 10
1789.1483536748999
 20
902.56232114112197
 30
0.0
 11
1839.1483536748999
 21
902.56232114112197
 31
0.0
  0
LINE
  5
1F4C
  8
UNIE640
 10
1889.1483536748999
 20
902.56232114112197
 30
0.0
 11
1939.1483536748999
 21
902.56232114112197
 31
0.0
  0
LINE
  5
1F4D
  8
UNIE640
 10
1989.1483536748999
 20
902.56232114112197
 30
0.0
 11
2003.6487717425191
 21
902.56232114112197
 31
0.0
  0
LINE
  5
1F4E
  8
UNIE640
 10
169.6487717425189
 20
962.56232114112208
 30
0.0
 11
219.6487717425189
 21
962.56232114112208
 31
0.0
  0
LINE
  5
1F4F
  8
UNIE640
 10
269.64877174251887
 20
962.56232114112208
 30
0.0
 11
319.64877174251887
 21
962.56232114112208
 31
0.0
  0
LINE
  5
1F50
  8
UNIE640
 10
369.64877174251887
 20
962.56232114112208
 30
0.0
 11
419.64877174251882
 21
962.56232114112208
 31
0.0
  0
LINE
  5
1F51
  8
UNIE640
 10
469.64877174251882
 20
962.56232114112208
 30
0.0
 11
519.64877174251876
 21
962.56232114112208
 31
0.0
  0
LINE
  5
1F52
  8
UNIE640
 10
569.64877174251876
 20
962.56232114112208
 30
0.0
 11
619.64877174251876
 21
962.56232114112208
 31
0.0
  0
LINE
  5
1F53
  8
UNIE640
 10
669.64877174251876
 20
962.56232114112208
 30
0.0
 11
719.64877174251876
 21
962.56232114112208
 31
0.0
  0
LINE
  5
1F54
  8
UNIE640
 10
769.64877174251876
 20
962.56232114112208
 30
0.0
 11
819.64877174251876
 21
962.56232114112208
 31
0.0
  0
LINE
  5
1F55
  8
UNIE640
 10
869.64877174251876
 20
962.56232114112208
 30
0.0
 11
919.64877174251876
 21
962.56232114112208
 31
0.0
  0
LINE
  5
1F56
  8
UNIE640
 10
969.64877174251876
 20
962.56232114112208
 30
0.0
 11
1019.648771742519
 21
962.56232114112208
 31
0.0
  0
LINE
  5
1F57
  8
UNIE640
 10
1069.6487717425191
 20
962.56232114112208
 30
0.0
 11
1119.6487717425191
 21
962.56232114112208
 31
0.0
  0
LINE
  5
1F58
  8
UNIE640
 10
1169.6487717425191
 20
962.56232114112208
 30
0.0
 11
1219.6487717425191
 21
962.56232114112208
 31
0.0
  0
LINE
  5
1F59
  8
UNIE640
 10
1269.6487717425191
 20
962.56232114112208
 30
0.0
 11
1319.6487717425191
 21
962.56232114112208
 31
0.0
  0
LINE
  5
1F5A
  8
UNIE640
 10
1369.6487717425191
 20
962.56232114112208
 30
0.0
 11
1419.6487717425191
 21
962.56232114112208
 31
0.0
  0
LINE
  5
1F5B
  8
UNIE640
 10
1469.6487717425191
 20
962.56232114112208
 30
0.0
 11
1519.6487717425191
 21
962.56232114112208
 31
0.0
  0
LINE
  5
1F5C
  8
UNIE640
 10
1569.6487717425191
 20
962.56232114112208
 30
0.0
 11
1619.6487717425191
 21
962.56232114112208
 31
0.0
  0
LINE
  5
1F5D
  8
UNIE640
 10
1689.1483536748999
 20
962.56232114112208
 30
0.0
 11
1739.1483536748999
 21
962.56232114112208
 31
0.0
  0
LINE
  5
1F5E
  8
UNIE640
 10
1789.1483536748999
 20
962.56232114112208
 30
0.0
 11
1839.1483536748999
 21
962.56232114112208
 31
0.0
  0
LINE
  5
1F5F
  8
UNIE640
 10
1889.1483536748999
 20
962.56232114112208
 30
0.0
 11
1939.1483536748999
 21
962.56232114112208
 31
0.0
  0
LINE
  5
1F60
  8
UNIE640
 10
1989.1483536748999
 20
962.56232114112208
 30
0.0
 11
2003.6487717425191
 21
962.56232114112208
 31
0.0
  0
LINE
  5
1F61
  8
UNIE640
 10
169.6487717425189
 20
1022.562321141122
 30
0.0
 11
219.6487717425189
 21
1022.562321141122
 31
0.0
  0
LINE
  5
1F62
  8
UNIE640
 10
269.64877174251887
 20
1022.562321141122
 30
0.0
 11
319.64877174251887
 21
1022.562321141122
 31
0.0
  0
LINE
  5
1F63
  8
UNIE640
 10
369.64877174251887
 20
1022.562321141122
 30
0.0
 11
419.64877174251882
 21
1022.562321141122
 31
0.0
  0
LINE
  5
1F64
  8
UNIE640
 10
469.64877174251882
 20
1022.562321141122
 30
0.0
 11
519.64877174251876
 21
1022.562321141122
 31
0.0
  0
LINE
  5
1F65
  8
UNIE640
 10
569.64877174251876
 20
1022.562321141122
 30
0.0
 11
619.64877174251876
 21
1022.562321141122
 31
0.0
  0
LINE
  5
1F66
  8
UNIE640
 10
669.64877174251876
 20
1022.562321141122
 30
0.0
 11
719.64877174251876
 21
1022.562321141122
 31
0.0
  0
LINE
  5
1F67
  8
UNIE640
 10
769.64877174251876
 20
1022.562321141122
 30
0.0
 11
819.64877174251876
 21
1022.562321141122
 31
0.0
  0
LINE
  5
1F68
  8
UNIE640
 10
869.64877174251876
 20
1022.562321141122
 30
0.0
 11
919.64877174251876
 21
1022.562321141122
 31
0.0
  0
LINE
  5
1F69
  8
UNIE640
 10
969.64877174251876
 20
1022.562321141122
 30
0.0
 11
1019.648771742519
 21
1022.562321141122
 31
0.0
  0
LINE
  5
1F6A
  8
UNIE640
 10
1069.6487717425191
 20
1022.562321141122
 30
0.0
 11
1119.6487717425191
 21
1022.562321141122
 31
0.0
  0
LINE
  5
1F6B
  8
UNIE640
 10
1169.6487717425191
 20
1022.562321141122
 30
0.0
 11
1219.6487717425191
 21
1022.562321141122
 31
0.0
  0
LINE
  5
1F6C
  8
UNIE640
 10
1269.6487717425191
 20
1022.562321141122
 30
0.0
 11
1319.6487717425191
 21
1022.562321141122
 31
0.0
  0
LINE
  5
1F6D
  8
UNIE640
 10
1369.6487717425191
 20
1022.562321141122
 30
0.0
 11
1419.6487717425191
 21
1022.562321141122
 31
0.0
  0
LINE
  5
1F6E
  8
UNIE640
 10
1469.6487717425191
 20
1022.562321141122
 30
0.0
 11
1519.6487717425191
 21
1022.562321141122
 31
0.0
  0
LINE
  5
1F6F
  8
UNIE640
 10
1569.6487717425191
 20
1022.562321141122
 30
0.0
 11
1619.6487717425191
 21
1022.562321141122
 31
0.0
  0
LINE
  5
1F70
  8
UNIE640
 10
1689.1483536748999
 20
1022.562321141122
 30
0.0
 11
1739.1483536748999
 21
1022.562321141122
 31
0.0
  0
LINE
  5
1F71
  8
UNIE640
 10
1789.1483536748999
 20
1022.562321141122
 30
0.0
 11
1839.1483536748999
 21
1022.562321141122
 31
0.0
  0
LINE
  5
1F72
  8
UNIE640
 10
1889.1483536748999
 20
1022.562321141122
 30
0.0
 11
1939.1483536748999
 21
1022.562321141122
 31
0.0
  0
LINE
  5
1F73
  8
UNIE640
 10
1989.1483536748999
 20
1022.562321141122
 30
0.0
 11
2003.6487717425191
 21
1022.562321141122
 31
0.0
  0
LINE
  5
1F74
  8
UNIE640
 10
169.6487717425189
 20
1082.5623211411221
 30
0.0
 11
219.6487717425189
 21
1082.5623211411221
 31
0.0
  0
LINE
  5
1F75
  8
UNIE640
 10
269.64877174251887
 20
1082.5623211411221
 30
0.0
 11
319.64877174251887
 21
1082.5623211411221
 31
0.0
  0
LINE
  5
1F76
  8
UNIE640
 10
369.64877174251887
 20
1082.5623211411221
 30
0.0
 11
419.64877174251882
 21
1082.5623211411221
 31
0.0
  0
LINE
  5
1F77
  8
UNIE640
 10
469.64877174251882
 20
1082.5623211411221
 30
0.0
 11
519.64877174251876
 21
1082.5623211411221
 31
0.0
  0
LINE
  5
1F78
  8
UNIE640
 10
569.64877174251876
 20
1082.5623211411221
 30
0.0
 11
619.64877174251876
 21
1082.5623211411221
 31
0.0
  0
LINE
  5
1F79
  8
UNIE640
 10
669.64877174251876
 20
1082.5623211411221
 30
0.0
 11
719.64877174251876
 21
1082.5623211411221
 31
0.0
  0
LINE
  5
1F7A
  8
UNIE640
 10
769.64877174251876
 20
1082.5623211411221
 30
0.0
 11
819.64877174251876
 21
1082.5623211411221
 31
0.0
  0
LINE
  5
1F7B
  8
UNIE640
 10
869.64877174251876
 20
1082.5623211411221
 30
0.0
 11
919.64877174251876
 21
1082.5623211411221
 31
0.0
  0
LINE
  5
1F7C
  8
UNIE640
 10
969.64877174251876
 20
1082.5623211411221
 30
0.0
 11
1019.648771742519
 21
1082.5623211411221
 31
0.0
  0
LINE
  5
1F7D
  8
UNIE640
 10
1069.6487717425191
 20
1082.5623211411221
 30
0.0
 11
1119.6487717425191
 21
1082.5623211411221
 31
0.0
  0
LINE
  5
1F7E
  8
UNIE640
 10
1169.6487717425191
 20
1082.5623211411221
 30
0.0
 11
1219.6487717425191
 21
1082.5623211411221
 31
0.0
  0
LINE
  5
1F7F
  8
UNIE640
 10
1269.6487717425191
 20
1082.5623211411221
 30
0.0
 11
1319.6487717425191
 21
1082.5623211411221
 31
0.0
  0
LINE
  5
1F80
  8
UNIE640
 10
1369.6487717425191
 20
1082.5623211411221
 30
0.0
 11
1419.6487717425191
 21
1082.5623211411221
 31
0.0
  0
LINE
  5
1F81
  8
UNIE640
 10
1469.6487717425191
 20
1082.5623211411221
 30
0.0
 11
1519.6487717425191
 21
1082.5623211411221
 31
0.0
  0
LINE
  5
1F82
  8
UNIE640
 10
1569.6487717425191
 20
1082.5623211411221
 30
0.0
 11
1619.6487717425191
 21
1082.5623211411221
 31
0.0
  0
LINE
  5
1F83
  8
UNIE640
 10
1689.1483536748999
 20
1082.5623211411221
 30
0.0
 11
1739.1483536748999
 21
1082.5623211411221
 31
0.0
  0
LINE
  5
1F84
  8
UNIE640
 10
1789.1483536748999
 20
1082.5623211411221
 30
0.0
 11
1839.1483536748999
 21
1082.5623211411221
 31
0.0
  0
LINE
  5
1F85
  8
UNIE640
 10
1889.1483536748999
 20
1082.5623211411221
 30
0.0
 11
1939.1483536748999
 21
1082.5623211411221
 31
0.0
  0
LINE
  5
1F86
  8
UNIE640
 10
1989.1483536748999
 20
1082.5623211411221
 30
0.0
 11
2003.6487717425191
 21
1082.5623211411221
 31
0.0
  0
LINE
  5
1F87
  8
UNIE640
 10
169.6487717425189
 20
1142.5623211411221
 30
0.0
 11
219.6487717425189
 21
1142.5623211411221
 31
0.0
  0
LINE
  5
1F88
  8
UNIE640
 10
269.64877174251887
 20
1142.5623211411221
 30
0.0
 11
319.64877174251887
 21
1142.5623211411221
 31
0.0
  0
LINE
  5
1F89
  8
UNIE640
 10
369.64877174251887
 20
1142.5623211411221
 30
0.0
 11
419.64877174251882
 21
1142.5623211411221
 31
0.0
  0
LINE
  5
1F8A
  8
UNIE640
 10
469.64877174251882
 20
1142.5623211411221
 30
0.0
 11
519.64877174251876
 21
1142.5623211411221
 31
0.0
  0
LINE
  5
1F8B
  8
UNIE640
 10
569.64877174251876
 20
1142.5623211411221
 30
0.0
 11
619.64877174251876
 21
1142.5623211411221
 31
0.0
  0
LINE
  5
1F8C
  8
UNIE640
 10
669.64877174251876
 20
1142.5623211411221
 30
0.0
 11
719.64877174251876
 21
1142.5623211411221
 31
0.0
  0
LINE
  5
1F8D
  8
UNIE640
 10
769.64877174251876
 20
1142.5623211411221
 30
0.0
 11
819.64877174251876
 21
1142.5623211411221
 31
0.0
  0
LINE
  5
1F8E
  8
UNIE640
 10
869.64877174251876
 20
1142.5623211411221
 30
0.0
 11
919.64877174251876
 21
1142.5623211411221
 31
0.0
  0
LINE
  5
1F8F
  8
UNIE640
 10
969.64877174251876
 20
1142.5623211411221
 30
0.0
 11
1019.648771742519
 21
1142.5623211411221
 31
0.0
  0
LINE
  5
1F90
  8
UNIE640
 10
1069.6487717425191
 20
1142.5623211411221
 30
0.0
 11
1119.6487717425191
 21
1142.5623211411221
 31
0.0
  0
LINE
  5
1F91
  8
UNIE640
 10
1169.6487717425191
 20
1142.5623211411221
 30
0.0
 11
1219.6487717425191
 21
1142.5623211411221
 31
0.0
  0
LINE
  5
1F92
  8
UNIE640
 10
1269.6487717425191
 20
1142.5623211411221
 30
0.0
 11
1319.6487717425191
 21
1142.5623211411221
 31
0.0
  0
LINE
  5
1F93
  8
UNIE640
 10
1369.6487717425191
 20
1142.5623211411221
 30
0.0
 11
1419.6487717425191
 21
1142.5623211411221
 31
0.0
  0
LINE
  5
1F94
  8
UNIE640
 10
1469.6487717425191
 20
1142.5623211411221
 30
0.0
 11
1519.6487717425191
 21
1142.5623211411221
 31
0.0
  0
LINE
  5
1F95
  8
UNIE640
 10
1569.6487717425191
 20
1142.5623211411221
 30
0.0
 11
1619.6487717425191
 21
1142.5623211411221
 31
0.0
  0
LINE
  5
1F96
  8
UNIE640
 10
1689.1483536748999
 20
1142.5623211411221
 30
0.0
 11
1739.1483536748999
 21
1142.5623211411221
 31
0.0
  0
LINE
  5
1F97
  8
UNIE640
 10
1789.1483536748999
 20
1142.5623211411221
 30
0.0
 11
1839.1483536748999
 21
1142.5623211411221
 31
0.0
  0
LINE
  5
1F98
  8
UNIE640
 10
1889.1483536748999
 20
1142.5623211411221
 30
0.0
 11
1939.1483536748999
 21
1142.5623211411221
 31
0.0
  0
LINE
  5
1F99
  8
UNIE640
 10
1989.1483536748999
 20
1142.5623211411221
 30
0.0
 11
2003.6487717425191
 21
1142.5623211411221
 31
0.0
  0
LINE
  5
1F9A
  8
UNIE640
 10
169.6487717425189
 20
1202.5623211411221
 30
0.0
 11
219.6487717425189
 21
1202.5623211411221
 31
0.0
  0
LINE
  5
1F9B
  8
UNIE640
 10
269.64877174251887
 20
1202.5623211411221
 30
0.0
 11
319.64877174251887
 21
1202.5623211411221
 31
0.0
  0
LINE
  5
1F9C
  8
UNIE640
 10
369.64877174251887
 20
1202.5623211411221
 30
0.0
 11
419.64877174251882
 21
1202.5623211411221
 31
0.0
  0
LINE
  5
1F9D
  8
UNIE640
 10
469.64877174251882
 20
1202.5623211411221
 30
0.0
 11
519.64877174251876
 21
1202.5623211411221
 31
0.0
  0
LINE
  5
1F9E
  8
UNIE640
 10
569.64877174251876
 20
1202.5623211411221
 30
0.0
 11
619.64877174251876
 21
1202.5623211411221
 31
0.0
  0
LINE
  5
1F9F
  8
UNIE640
 10
669.64877174251876
 20
1202.5623211411221
 30
0.0
 11
719.64877174251876
 21
1202.5623211411221
 31
0.0
  0
LINE
  5
1FA0
  8
UNIE640
 10
769.64877174251876
 20
1202.5623211411221
 30
0.0
 11
819.64877174251876
 21
1202.5623211411221
 31
0.0
  0
LINE
  5
1FA1
  8
UNIE640
 10
869.64877174251876
 20
1202.5623211411221
 30
0.0
 11
919.64877174251876
 21
1202.5623211411221
 31
0.0
  0
LINE
  5
1FA2
  8
UNIE640
 10
969.64877174251876
 20
1202.5623211411221
 30
0.0
 11
1019.648771742519
 21
1202.5623211411221
 31
0.0
  0
LINE
  5
1FA3
  8
UNIE640
 10
1069.6487717425191
 20
1202.5623211411221
 30
0.0
 11
1119.6487717425191
 21
1202.5623211411221
 31
0.0
  0
LINE
  5
1FA4
  8
UNIE640
 10
1169.6487717425191
 20
1202.5623211411221
 30
0.0
 11
1219.6487717425191
 21
1202.5623211411221
 31
0.0
  0
LINE
  5
1FA5
  8
UNIE640
 10
1269.6487717425191
 20
1202.5623211411221
 30
0.0
 11
1319.6487717425191
 21
1202.5623211411221
 31
0.0
  0
LINE
  5
1FA6
  8
UNIE640
 10
1369.6487717425191
 20
1202.5623211411221
 30
0.0
 11
1419.6487717425191
 21
1202.5623211411221
 31
0.0
  0
LINE
  5
1FA7
  8
UNIE640
 10
1469.6487717425191
 20
1202.5623211411221
 30
0.0
 11
1519.6487717425191
 21
1202.5623211411221
 31
0.0
  0
LINE
  5
1FA8
  8
UNIE640
 10
1569.6487717425191
 20
1202.5623211411221
 30
0.0
 11
1619.6487717425191
 21
1202.5623211411221
 31
0.0
  0
LINE
  5
1FA9
  8
UNIE640
 10
1689.1483536748999
 20
1202.5623211411221
 30
0.0
 11
1739.1483536748999
 21
1202.5623211411221
 31
0.0
  0
LINE
  5
1FAA
  8
UNIE640
 10
1789.1483536748999
 20
1202.5623211411221
 30
0.0
 11
1839.1483536748999
 21
1202.5623211411221
 31
0.0
  0
LINE
  5
1FAB
  8
UNIE640
 10
1889.1483536748999
 20
1202.5623211411221
 30
0.0
 11
1939.1483536748999
 21
1202.5623211411221
 31
0.0
  0
LINE
  5
1FAC
  8
UNIE640
 10
1989.1483536748999
 20
1202.5623211411221
 30
0.0
 11
2003.6487717425191
 21
1202.5623211411221
 31
0.0
  0
LINE
  5
1FAD
  8
UNIE640
 10
169.6487717425189
 20
1262.5623211411221
 30
0.0
 11
219.6487717425189
 21
1262.5623211411221
 31
0.0
  0
LINE
  5
1FAE
  8
UNIE640
 10
269.64877174251887
 20
1262.5623211411221
 30
0.0
 11
319.64877174251887
 21
1262.5623211411221
 31
0.0
  0
LINE
  5
1FAF
  8
UNIE640
 10
369.64877174251887
 20
1262.5623211411221
 30
0.0
 11
419.64877174251882
 21
1262.5623211411221
 31
0.0
  0
LINE
  5
1FB0
  8
UNIE640
 10
469.64877174251882
 20
1262.5623211411221
 30
0.0
 11
519.64877174251876
 21
1262.5623211411221
 31
0.0
  0
LINE
  5
1FB1
  8
UNIE640
 10
569.64877174251876
 20
1262.5623211411221
 30
0.0
 11
619.64877174251876
 21
1262.5623211411221
 31
0.0
  0
LINE
  5
1FB2
  8
UNIE640
 10
669.64877174251876
 20
1262.5623211411221
 30
0.0
 11
719.64877174251876
 21
1262.5623211411221
 31
0.0
  0
LINE
  5
1FB3
  8
UNIE640
 10
769.64877174251876
 20
1262.5623211411221
 30
0.0
 11
819.64877174251876
 21
1262.5623211411221
 31
0.0
  0
LINE
  5
1FB4
  8
UNIE640
 10
869.64877174251876
 20
1262.5623211411221
 30
0.0
 11
919.64877174251876
 21
1262.5623211411221
 31
0.0
  0
LINE
  5
1FB5
  8
UNIE640
 10
969.64877174251876
 20
1262.5623211411221
 30
0.0
 11
1019.648771742519
 21
1262.5623211411221
 31
0.0
  0
LINE
  5
1FB6
  8
UNIE640
 10
1069.6487717425191
 20
1262.5623211411221
 30
0.0
 11
1119.6487717425191
 21
1262.5623211411221
 31
0.0
  0
LINE
  5
1FB7
  8
UNIE640
 10
1169.6487717425191
 20
1262.5623211411221
 30
0.0
 11
1219.6487717425191
 21
1262.5623211411221
 31
0.0
  0
LINE
  5
1FB8
  8
UNIE640
 10
1269.6487717425191
 20
1262.5623211411221
 30
0.0
 11
1319.6487717425191
 21
1262.5623211411221
 31
0.0
  0
LINE
  5
1FB9
  8
UNIE640
 10
1369.6487717425191
 20
1262.5623211411221
 30
0.0
 11
1419.6487717425191
 21
1262.5623211411221
 31
0.0
  0
LINE
  5
1FBA
  8
UNIE640
 10
1469.6487717425191
 20
1262.5623211411221
 30
0.0
 11
1519.6487717425191
 21
1262.5623211411221
 31
0.0
  0
LINE
  5
1FBB
  8
UNIE640
 10
1569.6487717425191
 20
1262.5623211411221
 30
0.0
 11
1619.6487717425191
 21
1262.5623211411221
 31
0.0
  0
LINE
  5
1FBC
  8
UNIE640
 10
1689.1483536748999
 20
1262.5623211411221
 30
0.0
 11
1739.1483536748999
 21
1262.5623211411221
 31
0.0
  0
LINE
  5
1FBD
  8
UNIE640
 10
1789.1483536748999
 20
1262.5623211411221
 30
0.0
 11
1839.1483536748999
 21
1262.5623211411221
 31
0.0
  0
LINE
  5
1FBE
  8
UNIE640
 10
1889.1483536748999
 20
1262.5623211411221
 30
0.0
 11
1939.1483536748999
 21
1262.5623211411221
 31
0.0
  0
LINE
  5
1FBF
  8
UNIE640
 10
1989.1483536748999
 20
1262.5623211411221
 30
0.0
 11
2003.6487717425191
 21
1262.5623211411221
 31
0.0
  0
LINE
  5
1FC0
  8
UNIE640
 10
169.6487717425189
 20
1322.5623211411221
 30
0.0
 11
219.6487717425189
 21
1322.5623211411221
 31
0.0
  0
LINE
  5
1FC1
  8
UNIE640
 10
269.64877174251887
 20
1322.5623211411221
 30
0.0
 11
319.64877174251887
 21
1322.5623211411221
 31
0.0
  0
LINE
  5
1FC2
  8
UNIE640
 10
369.64877174251887
 20
1322.5623211411221
 30
0.0
 11
419.64877174251882
 21
1322.5623211411221
 31
0.0
  0
LINE
  5
1FC3
  8
UNIE640
 10
469.64877174251882
 20
1322.5623211411221
 30
0.0
 11
519.64877174251876
 21
1322.5623211411221
 31
0.0
  0
LINE
  5
1FC4
  8
UNIE640
 10
569.64877174251876
 20
1322.5623211411221
 30
0.0
 11
619.64877174251876
 21
1322.5623211411221
 31
0.0
  0
LINE
  5
1FC5
  8
UNIE640
 10
669.64877174251876
 20
1322.5623211411221
 30
0.0
 11
719.64877174251876
 21
1322.5623211411221
 31
0.0
  0
LINE
  5
1FC6
  8
UNIE640
 10
769.64877174251876
 20
1322.5623211411221
 30
0.0
 11
819.64877174251876
 21
1322.5623211411221
 31
0.0
  0
LINE
  5
1FC7
  8
UNIE640
 10
869.64877174251876
 20
1322.5623211411221
 30
0.0
 11
919.64877174251876
 21
1322.5623211411221
 31
0.0
  0
LINE
  5
1FC8
  8
UNIE640
 10
969.64877174251876
 20
1322.5623211411221
 30
0.0
 11
1019.648771742519
 21
1322.5623211411221
 31
0.0
  0
LINE
  5
1FC9
  8
UNIE640
 10
1069.6487717425191
 20
1322.5623211411221
 30
0.0
 11
1119.6487717425191
 21
1322.5623211411221
 31
0.0
  0
LINE
  5
1FCA
  8
UNIE640
 10
1169.6487717425191
 20
1322.5623211411221
 30
0.0
 11
1219.6487717425191
 21
1322.5623211411221
 31
0.0
  0
LINE
  5
1FCB
  8
UNIE640
 10
1269.6487717425191
 20
1322.5623211411221
 30
0.0
 11
1319.6487717425191
 21
1322.5623211411221
 31
0.0
  0
LINE
  5
1FCC
  8
UNIE640
 10
1369.6487717425191
 20
1322.5623211411221
 30
0.0
 11
1419.6487717425191
 21
1322.5623211411221
 31
0.0
  0
LINE
  5
1FCD
  8
UNIE640
 10
1469.6487717425191
 20
1322.5623211411221
 30
0.0
 11
1519.6487717425191
 21
1322.5623211411221
 31
0.0
  0
LINE
  5
1FCE
  8
UNIE640
 10
1569.6487717425191
 20
1322.5623211411221
 30
0.0
 11
1619.6487717425191
 21
1322.5623211411221
 31
0.0
  0
LINE
  5
1FCF
  8
UNIE640
 10
1689.1483536748999
 20
1322.5623211411221
 30
0.0
 11
1739.1483536748999
 21
1322.5623211411221
 31
0.0
  0
LINE
  5
1FD0
  8
UNIE640
 10
1789.1483536748999
 20
1322.5623211411221
 30
0.0
 11
1839.1483536748999
 21
1322.5623211411221
 31
0.0
  0
LINE
  5
1FD1
  8
UNIE640
 10
1889.1483536748999
 20
1322.5623211411221
 30
0.0
 11
1939.1483536748999
 21
1322.5623211411221
 31
0.0
  0
LINE
  5
1FD2
  8
UNIE640
 10
1989.1483536748999
 20
1322.5623211411221
 30
0.0
 11
2003.6487717425191
 21
1322.5623211411221
 31
0.0
  0
LINE
  5
1FD3
  8
UNIE640
 10
169.6487717425189
 20
1382.5623211411221
 30
0.0
 11
219.6487717425189
 21
1382.5623211411221
 31
0.0
  0
LINE
  5
1FD4
  8
UNIE640
 10
269.64877174251887
 20
1382.5623211411221
 30
0.0
 11
319.64877174251887
 21
1382.5623211411221
 31
0.0
  0
LINE
  5
1FD5
  8
UNIE640
 10
369.64877174251887
 20
1382.5623211411221
 30
0.0
 11
419.64877174251882
 21
1382.5623211411221
 31
0.0
  0
LINE
  5
1FD6
  8
UNIE640
 10
469.64877174251882
 20
1382.5623211411221
 30
0.0
 11
519.64877174251876
 21
1382.5623211411221
 31
0.0
  0
LINE
  5
1FD7
  8
UNIE640
 10
569.64877174251876
 20
1382.5623211411221
 30
0.0
 11
619.64877174251876
 21
1382.5623211411221
 31
0.0
  0
LINE
  5
1FD8
  8
UNIE640
 10
669.64877174251876
 20
1382.5623211411221
 30
0.0
 11
719.64877174251876
 21
1382.5623211411221
 31
0.0
  0
LINE
  5
1FD9
  8
UNIE640
 10
769.64877174251876
 20
1382.5623211411221
 30
0.0
 11
819.64877174251876
 21
1382.5623211411221
 31
0.0
  0
LINE
  5
1FDA
  8
UNIE640
 10
869.64877174251876
 20
1382.5623211411221
 30
0.0
 11
919.64877174251876
 21
1382.5623211411221
 31
0.0
  0
LINE
  5
1FDB
  8
UNIE640
 10
969.64877174251876
 20
1382.5623211411221
 30
0.0
 11
1019.648771742519
 21
1382.5623211411221
 31
0.0
  0
LINE
  5
1FDC
  8
UNIE640
 10
1069.6487717425191
 20
1382.5623211411221
 30
0.0
 11
1119.6487717425191
 21
1382.5623211411221
 31
0.0
  0
LINE
  5
1FDD
  8
UNIE640
 10
1169.6487717425191
 20
1382.5623211411221
 30
0.0
 11
1219.6487717425191
 21
1382.5623211411221
 31
0.0
  0
LINE
  5
1FDE
  8
UNIE640
 10
1269.6487717425191
 20
1382.5623211411221
 30
0.0
 11
1319.6487717425191
 21
1382.5623211411221
 31
0.0
  0
LINE
  5
1FDF
  8
UNIE640
 10
1369.6487717425191
 20
1382.5623211411221
 30
0.0
 11
1419.6487717425191
 21
1382.5623211411221
 31
0.0
  0
LINE
  5
1FE0
  8
UNIE640
 10
1469.6487717425191
 20
1382.5623211411221
 30
0.0
 11
1519.6487717425191
 21
1382.5623211411221
 31
0.0
  0
LINE
  5
1FE1
  8
UNIE640
 10
1569.6487717425191
 20
1382.5623211411221
 30
0.0
 11
1619.6487717425191
 21
1382.5623211411221
 31
0.0
  0
LINE
  5
1FE2
  8
UNIE640
 10
1689.1483536748999
 20
1382.5623211411221
 30
0.0
 11
1739.1483536748999
 21
1382.5623211411221
 31
0.0
  0
LINE
  5
1FE3
  8
UNIE640
 10
1789.1483536748999
 20
1382.5623211411221
 30
0.0
 11
1839.1483536748999
 21
1382.5623211411221
 31
0.0
  0
LINE
  5
1FE4
  8
UNIE640
 10
1889.1483536748999
 20
1382.5623211411221
 30
0.0
 11
1939.1483536748999
 21
1382.5623211411221
 31
0.0
  0
LINE
  5
1FE5
  8
UNIE640
 10
1989.1483536748999
 20
1382.5623211411221
 30
0.0
 11
2003.6487717425191
 21
1382.5623211411221
 31
0.0
  0
LINE
  5
1FE6
  8
UNIE640
 10
169.6487717425189
 20
1442.5623211411221
 30
0.0
 11
219.6487717425189
 21
1442.5623211411221
 31
0.0
  0
LINE
  5
1FE7
  8
UNIE640
 10
269.64877174251887
 20
1442.5623211411221
 30
0.0
 11
319.64877174251887
 21
1442.5623211411221
 31
0.0
  0
LINE
  5
1FE8
  8
UNIE640
 10
369.64877174251887
 20
1442.5623211411221
 30
0.0
 11
419.64877174251882
 21
1442.5623211411221
 31
0.0
  0
LINE
  5
1FE9
  8
UNIE640
 10
469.64877174251882
 20
1442.5623211411221
 30
0.0
 11
519.64877174251876
 21
1442.5623211411221
 31
0.0
  0
LINE
  5
1FEA
  8
UNIE640
 10
569.64877174251876
 20
1442.5623211411221
 30
0.0
 11
619.64877174251876
 21
1442.5623211411221
 31
0.0
  0
LINE
  5
1FEB
  8
UNIE640
 10
669.64877174251876
 20
1442.5623211411221
 30
0.0
 11
719.64877174251876
 21
1442.5623211411221
 31
0.0
  0
LINE
  5
1FEC
  8
UNIE640
 10
769.64877174251876
 20
1442.5623211411221
 30
0.0
 11
819.64877174251876
 21
1442.5623211411221
 31
0.0
  0
LINE
  5
1FED
  8
UNIE640
 10
869.64877174251876
 20
1442.5623211411221
 30
0.0
 11
919.64877174251876
 21
1442.5623211411221
 31
0.0
  0
LINE
  5
1FEE
  8
UNIE640
 10
969.64877174251876
 20
1442.5623211411221
 30
0.0
 11
1019.648771742519
 21
1442.5623211411221
 31
0.0
  0
LINE
  5
1FEF
  8
UNIE640
 10
1069.6487717425191
 20
1442.5623211411221
 30
0.0
 11
1119.6487717425191
 21
1442.5623211411221
 31
0.0
  0
LINE
  5
1FF0
  8
UNIE640
 10
1169.6487717425191
 20
1442.5623211411221
 30
0.0
 11
1219.6487717425191
 21
1442.5623211411221
 31
0.0
  0
LINE
  5
1FF1
  8
UNIE640
 10
1269.6487717425191
 20
1442.5623211411221
 30
0.0
 11
1319.6487717425191
 21
1442.5623211411221
 31
0.0
  0
LINE
  5
1FF2
  8
UNIE640
 10
1369.6487717425191
 20
1442.5623211411221
 30
0.0
 11
1419.6487717425191
 21
1442.5623211411221
 31
0.0
  0
LINE
  5
1FF3
  8
UNIE640
 10
1469.6487717425191
 20
1442.5623211411221
 30
0.0
 11
1519.6487717425191
 21
1442.5623211411221
 31
0.0
  0
LINE
  5
1FF4
  8
UNIE640
 10
1569.6487717425191
 20
1442.5623211411221
 30
0.0
 11
1619.6487717425191
 21
1442.5623211411221
 31
0.0
  0
LINE
  5
1FF5
  8
UNIE640
 10
1689.1483536748999
 20
1442.5623211411221
 30
0.0
 11
1739.1483536748999
 21
1442.5623211411221
 31
0.0
  0
LINE
  5
1FF6
  8
UNIE640
 10
1789.1483536748999
 20
1442.5623211411221
 30
0.0
 11
1839.1483536748999
 21
1442.5623211411221
 31
0.0
  0
LINE
  5
1FF7
  8
UNIE640
 10
1889.1483536748999
 20
1442.5623211411221
 30
0.0
 11
1939.1483536748999
 21
1442.5623211411221
 31
0.0
  0
LINE
  5
1FF8
  8
UNIE640
 10
1989.1483536748999
 20
1442.5623211411221
 30
0.0
 11
2003.6487717425191
 21
1442.5623211411221
 31
0.0
  0
LINE
  5
1FF9
  8
UNIE640
 10
169.6487717425189
 20
1502.5623211411221
 30
0.0
 11
219.6487717425189
 21
1502.5623211411221
 31
0.0
  0
LINE
  5
1FFA
  8
UNIE640
 10
269.64877174251887
 20
1502.5623211411221
 30
0.0
 11
319.64877174251887
 21
1502.5623211411221
 31
0.0
  0
LINE
  5
1FFB
  8
UNIE640
 10
369.64877174251887
 20
1502.5623211411221
 30
0.0
 11
419.64877174251882
 21
1502.5623211411221
 31
0.0
  0
LINE
  5
1FFC
  8
UNIE640
 10
469.64877174251882
 20
1502.5623211411221
 30
0.0
 11
519.64877174251876
 21
1502.5623211411221
 31
0.0
  0
LINE
  5
1FFD
  8
UNIE640
 10
569.64877174251876
 20
1502.5623211411221
 30
0.0
 11
619.64877174251876
 21
1502.5623211411221
 31
0.0
  0
LINE
  5
1FFE
  8
UNIE640
 10
669.64877174251876
 20
1502.5623211411221
 30
0.0
 11
719.64877174251876
 21
1502.5623211411221
 31
0.0
  0
LINE
  5
1FFF
  8
UNIE640
 10
769.64877174251876
 20
1502.5623211411221
 30
0.0
 11
819.64877174251876
 21
1502.5623211411221
 31
0.0
  0
LINE
  5
2000
  8
UNIE640
 10
869.64877174251876
 20
1502.5623211411221
 30
0.0
 11
919.64877174251876
 21
1502.5623211411221
 31
0.0
  0
LINE
  5
2001
  8
UNIE640
 10
969.64877174251876
 20
1502.5623211411221
 30
0.0
 11
1019.648771742519
 21
1502.5623211411221
 31
0.0
  0
LINE
  5
2002
  8
UNIE640
 10
1069.6487717425191
 20
1502.5623211411221
 30
0.0
 11
1119.6487717425191
 21
1502.5623211411221
 31
0.0
  0
LINE
  5
2003
  8
UNIE640
 10
1169.6487717425191
 20
1502.5623211411221
 30
0.0
 11
1219.6487717425191
 21
1502.5623211411221
 31
0.0
  0
LINE
  5
2004
  8
UNIE640
 10
1269.6487717425191
 20
1502.5623211411221
 30
0.0
 11
1319.6487717425191
 21
1502.5623211411221
 31
0.0
  0
LINE
  5
2005
  8
UNIE640
 10
1369.6487717425191
 20
1502.5623211411221
 30
0.0
 11
1419.6487717425191
 21
1502.5623211411221
 31
0.0
  0
LINE
  5
2006
  8
UNIE640
 10
1469.6487717425191
 20
1502.5623211411221
 30
0.0
 11
1519.6487717425191
 21
1502.5623211411221
 31
0.0
  0
LINE
  5
2007
  8
UNIE640
 10
1569.6487717425191
 20
1502.5623211411221
 30
0.0
 11
1619.6487717425191
 21
1502.5623211411221
 31
0.0
  0
LINE
  5
2008
  8
UNIE640
 10
1689.1483536748999
 20
1502.5623211411221
 30
0.0
 11
1739.1483536748999
 21
1502.5623211411221
 31
0.0
  0
LINE
  5
2009
  8
UNIE640
 10
1789.1483536748999
 20
1502.5623211411221
 30
0.0
 11
1839.1483536748999
 21
1502.5623211411221
 31
0.0
  0
LINE
  5
200A
  8
UNIE640
 10
1889.1483536748999
 20
1502.5623211411221
 30
0.0
 11
1939.1483536748999
 21
1502.5623211411221
 31
0.0
  0
LINE
  5
200B
  8
UNIE640
 10
1989.1483536748999
 20
1502.5623211411221
 30
0.0
 11
2003.6487717425191
 21
1502.5623211411221
 31
0.0
  0
LINE
  5
200C
  8
UNIE640
 10
169.6487717425189
 20
1562.5623211411221
 30
0.0
 11
219.6487717425189
 21
1562.5623211411221
 31
0.0
  0
LINE
  5
200D
  8
UNIE640
 10
269.64877174251887
 20
1562.5623211411221
 30
0.0
 11
319.64877174251887
 21
1562.5623211411221
 31
0.0
  0
LINE
  5
200E
  8
UNIE640
 10
369.64877174251887
 20
1562.5623211411221
 30
0.0
 11
419.64877174251882
 21
1562.5623211411221
 31
0.0
  0
LINE
  5
200F
  8
UNIE640
 10
469.64877174251882
 20
1562.5623211411221
 30
0.0
 11
519.64877174251876
 21
1562.5623211411221
 31
0.0
  0
LINE
  5
2010
  8
UNIE640
 10
569.64877174251876
 20
1562.5623211411221
 30
0.0
 11
619.64877174251876
 21
1562.5623211411221
 31
0.0
  0
LINE
  5
2011
  8
UNIE640
 10
669.64877174251876
 20
1562.5623211411221
 30
0.0
 11
719.64877174251876
 21
1562.5623211411221
 31
0.0
  0
LINE
  5
2012
  8
UNIE640
 10
769.64877174251876
 20
1562.5623211411221
 30
0.0
 11
819.64877174251876
 21
1562.5623211411221
 31
0.0
  0
LINE
  5
2013
  8
UNIE640
 10
869.64877174251876
 20
1562.5623211411221
 30
0.0
 11
919.64877174251876
 21
1562.5623211411221
 31
0.0
  0
LINE
  5
2014
  8
UNIE640
 10
969.64877174251876
 20
1562.5623211411221
 30
0.0
 11
1019.648771742519
 21
1562.5623211411221
 31
0.0
  0
LINE
  5
2015
  8
UNIE640
 10
1069.6487717425191
 20
1562.5623211411221
 30
0.0
 11
1119.6487717425191
 21
1562.5623211411221
 31
0.0
  0
LINE
  5
2016
  8
UNIE640
 10
1169.6487717425191
 20
1562.5623211411221
 30
0.0
 11
1219.6487717425191
 21
1562.5623211411221
 31
0.0
  0
LINE
  5
2017
  8
UNIE640
 10
1269.6487717425191
 20
1562.5623211411221
 30
0.0
 11
1319.6487717425191
 21
1562.5623211411221
 31
0.0
  0
LINE
  5
2018
  8
UNIE640
 10
1369.6487717425191
 20
1562.5623211411221
 30
0.0
 11
1419.6487717425191
 21
1562.5623211411221
 31
0.0
  0
LINE
  5
2019
  8
UNIE640
 10
1469.6487717425191
 20
1562.5623211411221
 30
0.0
 11
1519.6487717425191
 21
1562.5623211411221
 31
0.0
  0
LINE
  5
201A
  8
UNIE640
 10
1569.6487717425191
 20
1562.5623211411221
 30
0.0
 11
1619.6487717425191
 21
1562.5623211411221
 31
0.0
  0
LINE
  5
201B
  8
UNIE640
 10
1689.1483536748999
 20
1562.5623211411221
 30
0.0
 11
1739.1483536748999
 21
1562.5623211411221
 31
0.0
  0
LINE
  5
201C
  8
UNIE640
 10
1789.1483536748999
 20
1562.5623211411221
 30
0.0
 11
1839.1483536748999
 21
1562.5623211411221
 31
0.0
  0
LINE
  5
201D
  8
UNIE640
 10
1889.1483536748999
 20
1562.5623211411221
 30
0.0
 11
1939.1483536748999
 21
1562.5623211411221
 31
0.0
  0
LINE
  5
201E
  8
UNIE640
 10
1989.1483536748999
 20
1562.5623211411221
 30
0.0
 11
2003.6487717425191
 21
1562.5623211411221
 31
0.0
  0
LINE
  5
201F
  8
UNIE640
 10
169.6487717425189
 20
1622.5623211411221
 30
0.0
 11
2003.6487717425191
 21
1622.5623211411221
 31
0.0
  0
INSERT
  5
2020
  8
0
  2
*U51
 10
0.0
 20
0.0
 30
0.0
  0
DIMENSION
  5
2021
  8
DIM
  2
*D29
 10
1099.6487717425191
 20
157.14093614606099
 30
0.0
 11
634.64877174251887
 21
294.64093614606099
 31
0.0
 70
     0
 13
169.6487717425189
 23
422.56232114112203
 33
0.0
 14
1099.6487717425191
 24
422.56232114112203
 34
0.0
  0
DIMENSION
  5
2039
  8
DIM
  2
*D30
 10
2003.6487717425191
 20
157.14093614606099
 30
0.0
 11
1551.6487717425191
 21
294.64093614606099
 31
0.0
 70
     0
 13
1099.6487717425191
 23
422.56232114112203
 33
0.0
 14
2003.6487717425191
 24
422.56232114112203
 34
0.0
  0
DIMENSION
  5
2051
  8
DIM
  2
*D31
 10
2361.2681779769632
 20
1622.5623211411221
 30
0.0
 11
2223.7681779769619
 21
1022.562321141122
 31
0.0
 70
     0
 13
2003.6487717425191
 23
422.56232114112203
 33
0.0
 14
2003.6487717425191
 24
1622.5623211411221
 34
0.0
 50
90.0
  0
INSERT
  5
2BDA
  8
0
  2
*U79
 10
0.0
 20
0.0
 30
0.0
  0
ENDSEC
  0
EOF
