  0
SECTION
  2
HEADER
  9
$ACADVER
  1
AC1009
  9
$INSBASE
 10
0.0
 20
0.0
 30
0.0
  9
$EXTMIN
 10
130.75758263874741
 20
299.2474247835853
 30
-0.0000000000000058
  9
$EXTMAX
 10
6104.6354610587441
 20
4736.1121895597753
 30
0.0000000000000104
  9
$LIMMIN
 10
0.0
 20
0.0
  9
$LIMMAX
 10
1189.0
 20
841.0
  9
$ORTHOMODE
 70
     0
  9
$REGENMODE
 70
     1
  9
$FILLMODE
 70
     1
  9
$QTEXTMODE
 70
     0
  9
$MIRRTEXT
 70
     0
  9
$DRAGMODE
 70
     2
  9
$LTSCALE
 40
100.0
  9
$OSMODE
 70
    37
  9
$ATTMODE
 70
     1
  9
$TEXTSIZE
 40
20.0
  9
$TRACEWID
 40
0.05
  9
$TEXTSTYLE
  7
STANDARD
  9
$CLAYER
  8
0
  9
$CELTYPE
  6
BYLAYER
  9
$CECOLOR
 62
   256
  9
$DIMSCALE
 40
50.0
  9
$DIMASZ
 40
4.0
  9
$DIMEXO
 40
1.0
  9
$DIMDLI
 40
0.38
  9
$DIMRND
 40
0.0
  9
$DIMDLE
 40
0.0
  9
$DIMEXE
 40
1.5
  9
$DIMTP
 40
0.01
  9
$DIMTM
 40
0.01
  9
$DIMTXT
 40
3.5
  9
$DIMCEN
 40
0.09
  9
$DIMTSZ
 40
0.0
  9
$DIMTOL
 70
     0
  9
$DIMLIM
 70
     0
  9
$DIMTIH
 70
     0
  9
$DIMTOH
 70
     0
  9
$DIMSE1
 70
     0
  9
$DIMSE2
 70
     0
  9
$DIMTAD
 70
     1
  9
$DIMZIN
 70
     8
  9
$DIMBLK
  1
_FILLED
  9
$DIMASO
 70
     1
  9
$DIMSHO
 70
     1
  9
$DIMPOST
  1

  9
$DIMAPOST
  1

  9
$DIMALT
 70
     0
  9
$DIMALTD
 70
     2
  9
$DIMALTF
 40
25.399999999999999
  9
$DIMLFAC
 40
1.0
  9
$DIMTOFL
 70
     0
  9
$DIMTVP
 40
0.0
  9
$DIMTIX
 70
     0
  9
$DIMSOXD
 70
     0
  9
$DIMSAH
 70
     0
  9
$DIMBLK1
  1

  9
$DIMBLK2
  1

  9
$DIMSTYLE
  2
STANDARD
  9
$DIMCLRD
 70
   256
  9
$DIMCLRE
 70
   256
  9
$DIMCLRT
 70
   256
  9
$DIMTFAC
 40
1.0
  9
$DIMGAP
 40
1.0
  9
$LUNITS
 70
     2
  9
$LUPREC
 70
     4
  9
$SKETCHINC
 40
0.1
  9
$FILLETRAD
 40
0.0
  9
$AUNITS
 70
     0
  9
$AUPREC
 70
     0
  9
$MENU
  1
.
  9
$ELEVATION
 40
0.0
  9
$PELEVATION
 40
0.0
  9
$THICKNESS
 40
0.0
  9
$LIMCHECK
 70
     0
  9
$BLIPMODE
 70
     0
  9
$CHAMFERA
 40
0.0
  9
$CHAMFERB
 40
0.0
  9
$SKPOLY
 70
     0
  9
$TDCREATE
 40
2456441.3711821642
  9
$TDUPDATE
 40
2456442.4602278471
  9
$TDINDWG
 40
0.4024443056
  9
$TDUSRTIMER
 40
0.4024443056
  9
$USRTIMER
 70
     1
  9
$ANGBASE
 50
0.0
  9
$ANGDIR
 70
     0
  9
$PDMODE
 70
     3
  9
$PDSIZE
 40
4.0
  9
$PLINEWID
 40
0.0
  9
$COORDS
 70
     1
  9
$SPLFRAME
 70
     0
  9
$SPLINETYPE
 70
     6
  9
$SPLINESEGS
 70
     8
  9
$ATTDIA
 70
     0
  9
$ATTREQ
 70
     1
  9
$HANDLING
 70
     1
  9
$HANDSEED
  5
3032
  9
$SURFTAB1
 70
     6
  9
$SURFTAB2
 70
     6
  9
$SURFTYPE
 70
     6
  9
$SURFU
 70
     6
  9
$SURFV
 70
     6
  9
$UCSNAME
  2

  9
$UCSORG
 10
0.0
 20
0.0
 30
0.0
  9
$UCSXDIR
 10
1.0
 20
0.0
 30
0.0
  9
$UCSYDIR
 10
0.0
 20
1.0
 30
0.0
  9
$PUCSNAME
  2

  9
$PUCSORG
 10
0.0
 20
0.0
 30
0.0
  9
$PUCSXDIR
 10
1.0
 20
0.0
 30
0.0
  9
$PUCSYDIR
 10
0.0
 20
1.0
 30
0.0
  9
$USERI1
 70
     0
  9
$USERI2
 70
     0
  9
$USERI3
 70
     0
  9
$USERI4
 70
     0
  9
$USERI5
 70
     0
  9
$USERR1
 40
0.0
  9
$USERR2
 40
0.0
  9
$USERR3
 40
0.0
  9
$USERR4
 40
0.0
  9
$USERR5
 40
0.0
  9
$WORLDVIEW
 70
     1
  9
$SHADEDGE
 70
     3
  9
$SHADEDIF
 70
    70
  9
$TILEMODE
 70
     1
  9
$MAXACTVP
 70
    64
  9
$PLIMCHECK
 70
     0
  9
$PEXTMIN
 10
1.0000000000000000E+020
 20
1.0000000000000000E+020
 30
1.0000000000000000E+020
  9
$PEXTMAX
 10
-1.0000000000000000E+020
 20
-1.0000000000000000E+020
 30
-1.0000000000000000E+020
  9
$PLIMMIN
 10
0.0
 20
0.0
  9
$PLIMMAX
 10
12.0
 20
9.0
  9
$UNITMODE
 70
     0
  9
$VISRETAIN
 70
     1
  9
$PLINEGEN
 70
     0
  9
$PSLTSCALE
 70
     1
  0
ENDSEC
  0
SECTION
  2
TABLES
  0
TABLE
  2
VPORT
 70
     1
  0
VPORT
  2
*ACTIVE
 70
     0
 10
0.0
 20
0.0
 11
1.0
 21
1.0
 12
3052.3177305293721
 22
2368.0560947798881
 13
0.0
 23
0.0
 14
1.0
 24
1.0
 15
0.0
 25
0.0
 16
0.0
 26
0.0
 36
1.0
 17
0.0
 27
0.0
 37
0.0
 40
4767.1347584870218
 41
2.0743169398907102
 42
50.0
 43
0.0
 44
0.0
 50
0.0
 51
0.0
 71
     0
 72
   100
 73
     1
 74
     1
 75
     0
 76
     0
 77
     0
 78
     0
  0
ENDTAB
  0
TABLE
  2
LTYPE
 70
     6
  0
LTYPE
  2
CONTINUOUS
 70
     0
  3
Solid line
 72
    65
 73
     0
 40
0.0
  0
LTYPE
  2
CENTER
 70
     0
  3
____ _ ____ _ ____ _ ____ _ ____ _ ____ _ ____
 72
    65
 73
     4
 40
0.6
 49
0.375
 49
-0.075
 49
0.075
 49
-0.075
  0
LTYPE
  2
HIDDEN
 70
     0
  3
- - - - - - - - - - - - - - - - - - - -
 72
    65
 73
     2
 40
0.2
 49
0.1
 49
-0.1
  0
LTYPE
  2
PHANTOM
 70
     0
  3
_____ _ _ _____ _ _ _____ _ _ _____
 72
    65
 73
     6
 40
0.8
 49
0.45
 49
-0.05
 49
0.1
 49
-0.05
 49
0.1
 49
-0.05
  0
LTYPE
  2
DOT
 70
     0
  3
. . . . . . . . . . . . . . . . . . . .
 72
    65
 73
     2
 40
0.2
 49
0.1
 49
-0.1
  0
LTYPE
  2
DASHED
 70
     0
  3
- - - - - - - - - - - - - - - - - - - -
 72
    65
 73
     2
 40
0.2
 49
0.1
 49
-0.1
  0
ENDTAB
  0
TABLE
  2
LAYER
 70
    18
  0
LAYER
  2
0
 70
     0
 62
     7
  6
CONTINUOUS
  0
LAYER
  2
DEFPOINTS
 70
     0
 62
     7
  6
CONTINUOUS
  0
LAYER
  2
DIM
 70
     0
 62
    -5
  6
CONTINUOUS
  0
LAYER
  2
UITSLAG
 70
     0
 62
    70
  6
CONTINUOUS
  0
LAYER
  2
CFM450
 70
     0
 62
   140
  6
CONTINUOUS
  0
LAYER
  2
GEBRUIKT
 70
     0
 62
    -9
  6
CONTINUOUS
  0
LAYER
  2
DATUM
 70
     0
 62
    -7
  6
CONTINUOUS
  0
ENDTAB
  0
TABLE
  2
STYLE
 70
     3
  0
STYLE
  2
STANDARD
 70
     0
 40
0.0
 41
0.8
 50
0.0
 71
     0
 42
20.0
  3
txt
  4

  0
STYLE
  2
TEXTSTYLE_1
 70
     0
 40
0.0
 41
0.8
 50
0.0
 71
     0
 42
0.2
  3
gdt
  4

  0
STYLE
  2

 70
     1
 40
0.0
 41
1.0
 50
0.0
 71
     0
 42
0.2
  3
ltypeshp.shx
  4

  0
ENDTAB
  0
TABLE
  2
VIEW
 70
     2
  0
ENDTAB
  0
TABLE
  2
UCS
 70
     0
  0
ENDTAB
  0
TABLE
  2
APPID
 70
    11
  0
APPID
  2
ACAD
 70
     0
  0
APPID
  2
ACAD_NAV_VCDISPLAY
 70
     0
  0
APPID
  2
ACAECLAYERSTANDARD
 70
     0
  0
APPID
  2
ACCMTRANSPARENCY
 70
     0
  0
APPID
  2
ACAD_DSTYLE_DIMJAG
 70
     0
  0
APPID
  2
ACAD_DSTYLE_DIMTALN
 70
     0
  0
APPID
  2
ACAD_EXEMPT_FROM_CAD_STANDARDS
 70
     0
  0
APPID
  2
GRADIENTCOLOR1ACI
 70
     0
  0
APPID
  2
GRADIENTCOLOR2ACI
 70
     0
  0
APPID
  2
ACAD_PSEXT
 70
     0
  0
APPID
  2
ACAD_MLEADERVER
 70
     0
  0
ENDTAB
  0
TABLE
  2
DIMSTYLE
 70
     2
  0
DIMSTYLE
  2
STANDARD
 70
     0
  3

  4

  5
_FILLED
  6

  7

 40
50.0
 41
4.0
 42
1.0
 43
0.38
 44
1.5
 45
0.0
 46
0.0
 47
0.01
 48
0.01
140
3.5
141
0.09
142
0.0
143
25.399999999999999
144
1.0
145
0.0
146
1.0
147
1.0
 71
     0
 72
     0
 73
     0
 74
     0
 75
     0
 76
     0
 77
     1
 78
     8
170
     0
171
     2
172
     0
173
     0
174
     0
175
     0
176
   256
177
   256
178
   256
  0
DIMSTYLE
  2
DIMSTYLE_1
 70
     0
  3

  4

  5
_FILLED
  6
_FILLED
  7
_FILLED
 40
1.0
 41
4.0
 42
1.0
 43
0.38
 44
1.5
 45
0.0
 46
0.0
 47
0.5
 48
0.5
140
3.5
141
0.09
142
0.0
143
25.399999999999999
144
5.0
145
0.0
146
1.0
147
0.875
 71
     0
 72
     0
 73
     0
 74
     0
 75
     0
 76
     0
 77
     1
 78
     8
170
     0
171
     2
172
     0
173
     0
174
     0
175
     0
176
     0
177
     0
178
     0
  0
ENDTAB
  0
ENDSEC
  0
SECTION
  2
BLOCKS
  0
BLOCK
  8
0
  2
$MODEL_SPACE
 70
     0
 10
0.0
 20
0.0
 30
0.0
  3
$MODEL_SPACE
  1

  0
ENDBLK
  5
21
  8
0
  0
BLOCK
 67
     1
  8
0
  2
$PAPER_SPACE
 70
     0
 10
0.0
 20
0.0
 30
0.0
  3
$PAPER_SPACE
  1

  0
ENDBLK
  5
1D
 67
     1
  8
0
  0
BLOCK
  8
0
  2
_FILLED
 70
     0
 10
0.0
 20
0.0
 30
0.0
  3
_FILLED
  1

  0
SOLID
  5
25A
  8
0
  6
BYBLOCK
 62
     0
 10
0.0
 20
0.0
 30
0.0
 11
-1.0
 21
0.1875
 31
0.0
 12
-1.0
 22
-0.1875
 32
0.0
 13
-1.0
 23
-0.1875
 33
0.0
  0
ENDBLK
  5
25B
  8
0
  6
BYBLOCK
 62
     0
  0
BLOCK
  8
0
  2
*D1
 70
     1
 10
0.0
 20
0.0
 30
0.0
  3
*D1
  1

  0
LINE
  5
1733
  8
DIM
 10
2936.1865263045979
 20
43.2388760447393
 30
0.0
 11
2936.1865263045979
 21
-57.655039854726049
 31
0.0
  0
LINE
  5
1734
  8
DIM
 10
5445.7670126381081
 20
98.103921219570111
 30
0.0
 11
5445.7670126381081
 21
-57.655039854726049
 31
0.0
  0
LINE
  5
1735
  8
DIM
 10
3136.1865263045979
 20
17.344960145273941
 30
0.0
 11
5245.7670126381081
 21
17.344960145273941
 31
0.0
  0
INSERT
  5
1736
  8
DIM
  2
_FILLED
 10
2936.1865263045979
 20
17.344960145273941
 30
0.0
 41
200.0
 42
200.0
 43
200.0
 50
180.0
  0
INSERT
  5
1737
  8
DIM
  2
_FILLED
 10
5445.7670126381081
 20
17.344960145273941
 30
0.0
 41
200.0
 42
200.0
 43
200.0
  0
INSERT
  5
1738
  8
0
  2
*U42
 10
0.0
 20
0.0
 30
0.0
  0
POINT
  5
1739
  8
DEFPOINTS
 62
     0
 10
2936.1865263045979
 20
93.238876044739285
 30
0.0
  0
POINT
  5
173A
  8
DEFPOINTS
 62
     0
 10
5445.7670126381081
 20
148.10392121957011
 30
0.0
  0
POINT
  5
173B
  8
DEFPOINTS
 62
     0
 10
5445.7670126381081
 20
17.344960145273941
 30
0.0
  0
ENDBLK
  5
9E5
  8
0
  0
BLOCK
  8
0
  2
*D2
 70
     1
 10
0.0
 20
0.0
 30
0.0
  3
*D2
  1

  0
ARC
  5
173C
  8
DIM
 10
5406.1744375460003
 20
256.91165162699963
 30
0.0
 40
87.590404158196449
 50
274.2650191255911
 51
94.265019125591166
  0
LINE
  5
173D
  8
DIM
 10
5412.6885271460296
 20
169.5638094253809
 30
0.0
 11
4661.4413813242663
 21
113.5384847430109
 31
0.0
  0
ARC
  5
173E
  8
DIM
 10
5406.1744375460003
 20
256.91165162699963
 30
0.0
 40
87.590404158196449
 50
94.265019125591166
 51
274.2650191255911
  0
ARC
  5
173F
  8
DIM
 10
5406.1744375460003
 20
256.91165162699963
 30
0.0
 40
87.590404158196449
 50
359.99501912557741
 51
179.99501912557739
  0
INSERT
  5
1740
  8
DIM
  2
_FILLED
 10
5399.66034794597
 20
344.25949382861882
 30
0.0
 41
200.0
 42
200.0
 43
200.0
 50
94.265019125591166
  0
INSERT
  5
1741
  8
DIM
  2
_FILLED
 10
5318.5840337187756
 20
256.91926609366561
 30
0.0
 41
200.0
 42
200.0
 43
200.0
 50
179.99501912557739
  0
INSERT
  5
1742
  8
0
  2
*U43
 10
0.0
 20
0.0
 30
0.0
  0
POINT
  5
1743
  8
DEFPOINTS
 62
     0
 10
5358.6724424334234
 20
330.50267934723797
 30
0.0
  0
POINT
  5
1744
  8
DEFPOINTS
 62
     0
 10
4229.9625197175001
 20
257.01390285600019
 30
0.0
  0
POINT
  5
1745
  8
DEFPOINTS
 62
     0
 10
5406.1744375460003
 20
256.91165162699963
 30
0.0
  0
POINT
  5
1746
  8
DEFPOINTS
 62
     0
 10
5382.3120263068586
 20
576.88424326234269
 30
0.0
  0
POINT
  5
1747
  8
DEFPOINTS
 62
     0
 10
5406.1744375460003
 20
256.91165162699963
 30
0.0
  0
ENDBLK
  5
A14
  8
0
  0
BLOCK
  8
0
  2
*D3
 70
     1
 10
0.0
 20
0.0
 30
0.0
  3
*D3
  1

  0
LINE
  5
1748
  8
UITSLAG
 10
5455.5355907190014
 20
1821.6216381595
 30
0.0
 11
5745.5131728042506
 21
1821.6216381595
 31
0.0
  0
LINE
  5
1749
  8
UITSLAG
 10
5455.5373517680009
 20
1101.5885082305001
 30
0.0
 11
5745.5131728042506
 21
1101.5885082305001
 31
0.0
  0
LINE
  5
174A
  8
UITSLAG
 10
5670.5131728042506
 20
1621.6216381594991
 30
0.0
 11
5670.5131728042506
 21
1301.5885082305001
 31
0.0
  0
INSERT
  5
174B
  8
UITSLAG
  2
_FILLED
 10
5670.5131728042506
 20
1821.6216381595
 30
0.0
 41
200.0
 42
200.0
 43
200.0
 50
90.0
  0
INSERT
  5
174C
  8
UITSLAG
  2
_FILLED
 10
5670.5131728042506
 20
1101.5885082305001
 30
0.0
 41
200.0
 42
200.0
 43
200.0
 50
270.0
  0
INSERT
  5
174D
  8
0
  2
*U44
 10
0.0
 20
0.0
 30
0.0
  0
POINT
  5
174E
  8
DEFPOINTS
 62
     0
 10
5405.5355907190014
 20
1821.6216381595
 30
0.0
  0
POINT
  5
174F
  8
DEFPOINTS
 62
     0
 10
5405.537351768
 20
1101.5885082305001
 30
0.0
  0
POINT
  5
1750
  8
DEFPOINTS
 62
     0
 10
5670.5131728042506
 20
1101.5885082305001
 30
0.0
  0
ENDBLK
  5
A4B
  8
0
  0
BLOCK
  8
0
  2
*D4
 70
     1
 10
0.0
 20
0.0
 30
0.0
  3
*D4
  1

  0
LINE
  5
1751
  8
UITSLAG
 10
4245.7670126381081
 20
1829.4432826815289
 30
0.0
 11
4372.9706120807787
 21
1829.4432826815289
 31
0.0
  0
LINE
  5
1752
  8
UITSLAG
 10
4245.7670126381081
 20
1093.7647976185699
 30
0.0
 11
4372.9706120807787
 21
1093.7647976185699
 31
0.0
  0
LINE
  5
1753
  8
UITSLAG
 10
4297.9706120807787
 20
1629.4432826815289
 30
0.0
 11
4297.9706120807787
 21
1293.7647976185699
 31
0.0
  0
INSERT
  5
1754
  8
UITSLAG
  2
_FILLED
 10
4297.9706120807787
 20
1829.4432826815289
 30
0.0
 41
200.0
 42
200.0
 43
200.0
 50
90.0
  0
INSERT
  5
1755
  8
UITSLAG
  2
_FILLED
 10
4297.9706120807787
 20
1093.7647976185699
 30
0.0
 41
200.0
 42
200.0
 43
200.0
 50
270.0
  0
INSERT
  5
1756
  8
0
  2
*U45
 10
0.0
 20
0.0
 30
0.0
  0
POINT
  5
1757
  8
DEFPOINTS
 62
     0
 10
4195.7670126381081
 20
1829.4432826815289
 30
0.0
  0
POINT
  5
1758
  8
DEFPOINTS
 62
     0
 10
4195.7670126381081
 20
1093.7647976185699
 30
0.0
  0
POINT
  5
1759
  8
DEFPOINTS
 62
     0
 10
4297.9706120807787
 20
1093.7647976185699
 30
0.0
  0
ENDBLK
  5
A6C
  8
0
  0
BLOCK
  8
0
  2
*D5
 70
     1
 10
0.0
 20
0.0
 30
0.0
  3
*D5
  1

  0
LINE
  5
175A
  8
UITSLAG
 10
4145.7670126381081
 20
1829.4432826815289
 30
0.0
 11
4057.7349735643038
 21
1829.4432826815289
 31
0.0
  0
LINE
  5
175B
  8
UITSLAG
 10
4145.7670126381081
 20
1461.604039392
 30
0.0
 11
4057.7349735643038
 21
1461.604039392
 31
0.0
  0
LINE
  5
175C
  8
UITSLAG
 10
4132.7349735643029
 20
2029.44328268153
 30
0.0
 11
4132.7349735643038
 21
2229.44328268153
 31
0.0
  0
LINE
  5
175D
  8
UITSLAG
 10
4132.7349735643029
 20
1261.604039392
 30
0.0
 11
4132.7349735643029
 21
588.27070605866675
 31
0.0
  0
INSERT
  5
175E
  8
UITSLAG
  2
_FILLED
 10
4132.7349735643029
 20
1829.4432826815289
 30
0.0
 41
200.0
 42
200.0
 43
200.0
 50
270.0
  0
INSERT
  5
175F
  8
UITSLAG
  2
_FILLED
 10
4132.7349735643029
 20
1461.604039392
 30
0.0
 41
200.0
 42
200.0
 43
200.0
 50
90.0
  0
INSERT
  5
1760
  8
0
  2
*U46
 10
0.0
 20
0.0
 30
0.0
  0
POINT
  5
1761
  8
DEFPOINTS
 62
     0
 10
4195.7670126381081
 20
1829.4432826815289
 30
0.0
  0
POINT
  5
1762
  8
DEFPOINTS
 62
     0
 10
4195.7670126381081
 20
1461.604039392
 30
0.0
  0
POINT
  5
1763
  8
DEFPOINTS
 62
     0
 10
4132.7349735643029
 20
1461.604039392
 30
0.0
  0
ENDBLK
  5
AEE
  8
0
  0
BLOCK
  8
0
  2
*D6
 70
     1
 10
0.0
 20
0.0
 30
0.0
  3
*D6
  1

  0
LINE
  5
1764
  8
UITSLAG
 10
4145.7670126381081
 20
1461.604039392
 30
0.0
 11
4056.2349735643038
 21
1461.604039392
 31
0.0
  0
LINE
  5
1765
  8
UITSLAG
 10
4145.7670126381081
 20
1093.7647976185699
 30
0.0
 11
4056.2349735643038
 21
1093.7647976185699
 31
0.0
  0
LINE
  5
1766
  8
UITSLAG
 10
4131.2349735643029
 20
1661.604039392
 30
0.0
 11
4131.2349735643029
 21
1861.604039392
 31
0.0
  0
LINE
  5
1767
  8
UITSLAG
 10
4131.2349735643029
 20
893.76479761857036
 30
0.0
 11
4131.2349735643029
 21
220.43146428523701
 31
0.0
  0
INSERT
  5
1768
  8
UITSLAG
  2
_FILLED
 10
4131.2349735643029
 20
1461.604039392
 30
0.0
 41
200.0
 42
200.0
 43
200.0
 50
270.0
  0
INSERT
  5
1769
  8
UITSLAG
  2
_FILLED
 10
4131.2349735643029
 20
1093.7647976185699
 30
0.0
 41
200.0
 42
200.0
 43
200.0
 50
90.0
  0
INSERT
  5
176A
  8
0
  2
*U47
 10
0.0
 20
0.0
 30
0.0
  0
POINT
  5
176B
  8
DEFPOINTS
 62
     0
 10
4195.7670126381081
 20
1461.604039392
 30
0.0
  0
POINT
  5
176C
  8
DEFPOINTS
 62
     0
 10
4195.7670126381081
 20
1093.7647976185699
 30
0.0
  0
POINT
  5
176D
  8
DEFPOINTS
 62
     0
 10
4131.2349735643029
 20
1093.7647976185699
 30
0.0
  0
ENDBLK
  5
B06
  8
0
  0
BLOCK
  8
0
  2
*D7
 70
     1
 10
0.0
 20
0.0
 30
0.0
  3
*D7
  1

  0
LINE
  5
176E
  8
UITSLAG
 10
3910.98946127
 20
1825.69089794
 30
0.0
 11
3837.4072171398302
 21
1825.69089794
 31
0.0
  0
LINE
  5
176F
  8
UITSLAG
 10
4146.7670126381072
 20
1093.7647976185699
 30
0.0
 11
3837.4072171398302
 21
1093.7647976185699
 31
0.0
  0
LINE
  5
1770
  8
UITSLAG
 10
3912.4072171398288
 20
1625.69089794
 30
0.0
 11
3912.4072171398288
 21
1293.7647976185699
 31
0.0
  0
INSERT
  5
1771
  8
UITSLAG
  2
_FILLED
 10
3912.4072171398288
 20
1825.69089794
 30
0.0
 41
200.0
 42
200.0
 43
200.0
 50
90.0
  0
INSERT
  5
1772
  8
UITSLAG
  2
_FILLED
 10
3912.4072171398288
 20
1093.7647976185699
 30
0.0
 41
200.0
 42
200.0
 43
200.0
 50
270.0
  0
INSERT
  5
1773
  8
0
  2
*U48
 10
0.0
 20
0.0
 30
0.0
  0
POINT
  5
1774
  8
DEFPOINTS
 62
     0
 10
3960.9894612699991
 20
1825.69089794
 30
0.0
  0
POINT
  5
1775
  8
DEFPOINTS
 62
     0
 10
4196.7670126381072
 20
1093.7647976185699
 30
0.0
  0
POINT
  5
1776
  8
DEFPOINTS
 62
     0
 10
3912.4072171398288
 20
1093.7647976185699
 30
0.0
  0
ENDBLK
  5
E56
  8
0
  0
BLOCK
  8
0
  2
*D8
 70
     1
 10
0.0
 20
0.0
 30
0.0
  3
*D8
  1

  0
LINE
  5
1777
  8
UITSLAG
 10
2886.1865263045979
 20
1461.604039392
 30
0.0
 11
2778.9594347652169
 21
1461.604039392
 31
0.0
  0
LINE
  5
1778
  8
UITSLAG
 10
2886.1865263045979
 20
1070.124612219
 30
0.0
 11
2778.9594347652169
 21
1070.124612219
 31
0.0
  0
LINE
  5
1779
  8
UITSLAG
 10
2853.9594347652169
 20
1661.604039392
 30
0.0
 11
2853.9594347652169
 21
1861.604039392
 31
0.0
  0
LINE
  5
177A
  8
UITSLAG
 10
2853.959434765216
 20
870.12461221899991
 30
0.0
 11
2853.959434765216
 21
243.4579455523334
 31
0.0
  0
INSERT
  5
177B
  8
UITSLAG
  2
_FILLED
 10
2853.9594347652169
 20
1461.604039392
 30
0.0
 41
200.0
 42
200.0
 43
200.0
 50
270.0
  0
INSERT
  5
177C
  8
UITSLAG
  2
_FILLED
 10
2853.9594347652169
 20
1070.124612219
 30
0.0
 41
200.0
 42
200.0
 43
200.0
 50
90.0
  0
INSERT
  5
177D
  8
0
  2
*U49
 10
0.0
 20
0.0
 30
0.0
  0
POINT
  5
177E
  8
DEFPOINTS
 62
     0
 10
2936.1865263045979
 20
1461.604039392
 30
0.0
  0
POINT
  5
177F
  8
DEFPOINTS
 62
     0
 10
2936.1865263045979
 20
1070.124612219
 30
0.0
  0
POINT
  5
1780
  8
DEFPOINTS
 62
     0
 10
2853.9594347652169
 20
1070.124612219
 30
0.0
  0
ENDBLK
  5
E6E
  8
0
  0
BLOCK
  8
0
  2
*D9
 70
     1
 10
0.0
 20
0.0
 30
0.0
  3
*D9
  1

  0
LINE
  5
1781
  8
UITSLAG
 10
2886.1865263045979
 20
2978.774253931525
 30
0.0
 11
2674.2411707745782
 21
2978.774253931525
 31
0.0
  0
LINE
  5
1782
  8
UITSLAG
 10
2886.1865263045979
 20
2820.5749437049672
 30
0.0
 11
2674.2411707745782
 21
2820.5749437049672
 31
0.0
  0
LINE
  5
1783
  8
UITSLAG
 10
2749.2411707745782
 20
3178.774253931525
 30
0.0
 11
2749.2411707745782
 21
3378.774253931525
 31
0.0
  0
LINE
  5
1784
  8
UITSLAG
 10
2749.2411707745782
 20
2620.5749437049672
 30
0.0
 11
2749.2411707745782
 21
1993.9082770383
 31
0.0
  0
INSERT
  5
1785
  8
UITSLAG
  2
_FILLED
 10
2749.2411707745782
 20
2978.774253931525
 30
0.0
 41
200.0
 42
200.0
 43
200.0
 50
270.0
  0
INSERT
  5
1786
  8
UITSLAG
  2
_FILLED
 10
2749.2411707745782
 20
2820.5749437049672
 30
0.0
 41
200.0
 42
200.0
 43
200.0
 50
90.0
  0
INSERT
  5
1787
  8
0
  2
*U50
 10
0.0
 20
0.0
 30
0.0
  0
POINT
  5
1788
  8
DEFPOINTS
 62
     0
 10
2936.1865263045979
 20
2978.774253931525
 30
0.0
  0
POINT
  5
1789
  8
DEFPOINTS
 62
     0
 10
2936.1865263045979
 20
2820.5749437049672
 30
0.0
  0
POINT
  5
178A
  8
DEFPOINTS
 62
     0
 10
2749.2411707745782
 20
2820.5749437049672
 30
0.0
  0
ENDBLK
  5
E9F
  8
0
  0
BLOCK
  8
0
  2
*D10
 70
     1
 10
0.0
 20
0.0
 30
0.0
  3
*D10
  1

  0
LINE
  5
178B
  8
UITSLAG
 10
2924.4223003470011
 20
2013.604039392
 30
0.0
 11
2524.8781036833539
 21
2013.604039392
 31
0.0
  0
LINE
  5
178C
  8
UITSLAG
 10
2886.9926711666949
 20
2084.9967141563752
 30
0.0
 11
2524.8781036833539
 21
2084.9967141563752
 31
0.0
  0
LINE
  5
178D
  8
UITSLAG
 10
2599.8781036833539
 20
1813.604039392
 30
0.0
 11
2599.8781036833539
 21
1613.604039392
 31
0.0
  0
LINE
  5
178E
  8
UITSLAG
 10
2599.8781036833539
 20
2284.9967141563752
 30
0.0
 11
2599.8781036833539
 21
2771.6633808230408
 31
0.0
  0
INSERT
  5
178F
  8
UITSLAG
  2
_FILLED
 10
2599.8781036833539
 20
2013.604039392
 30
0.0
 41
200.0
 42
200.0
 43
200.0
 50
90.0
  0
INSERT
  5
1790
  8
UITSLAG
  2
_FILLED
 10
2599.8781036833539
 20
2084.9967141563752
 30
0.0
 41
200.0
 42
200.0
 43
200.0
 50
270.0
  0
INSERT
  5
1791
  8
0
  2
*U51
 10
0.0
 20
0.0
 30
0.0
  0
POINT
  5
1792
  8
DEFPOINTS
 62
     0
 10
2974.4223003470011
 20
2013.604039392
 30
0.0
  0
POINT
  5
1793
  8
DEFPOINTS
 62
     0
 10
2936.9926711666949
 20
2084.9967141563752
 30
0.0
  0
POINT
  5
1794
  8
DEFPOINTS
 62
     0
 10
2599.8781036833539
 20
2084.9967141563752
 30
0.0
  0
ENDBLK
  5
1047
  8
0
  0
BLOCK
  8
0
  2
*D13
 70
     1
 10
0.0
 20
0.0
 30
0.0
  3
*D13
  1

  0
LINE
  5
2C42
  8
DIM
 10
739.75226890041085
 20
4194.328024878987
 30
0.0
 11
739.75226890041074
 21
2611.0018333737098
 31
0.0
  0
LINE
  5
2C43
  8
DIM
 10
5792.1610378440346
 20
3349.6939473951502
 30
0.0
 11
5792.1610378440346
 21
2611.0018333737098
 31
0.0
  0
LINE
  5
2C44
  8
DIM
 10
939.75226890041074
 20
2686.0018333737098
 30
0.0
 11
5592.1610378440346
 21
2686.0018333737098
 31
0.0
  0
INSERT
  5
2C45
  8
DIM
  2
_FILLED
 10
739.75226890041074
 20
2686.0018333737098
 30
0.0
 41
200.0
 42
200.0
 43
200.0
 50
180.0
  0
INSERT
  5
2C46
  8
DIM
  2
_FILLED
 10
5792.1610378440346
 20
2686.0018333737098
 30
0.0
 41
200.0
 42
200.0
 43
200.0
  0
INSERT
  5
2C47
  8
0
  2
*U87
 10
0.0
 20
0.0
 30
0.0
  0
POINT
  5
2C48
  8
DEFPOINTS
 62
     0
 10
739.75226890041085
 20
4244.328024878987
 30
0.0
  0
POINT
  5
2C49
  8
DEFPOINTS
 62
     0
 10
5792.1610378440346
 20
3399.6939473951502
 30
0.0
  0
POINT
  5
2C4A
  8
DEFPOINTS
 62
     0
 10
5792.1610378440346
 20
2686.0018333737098
 30
0.0
  0
ENDBLK
  5
16D4
  8
0
  0
BLOCK
  8
0
  2
*D14
 70
     1
 10
0.0
 20
0.0
 30
0.0
  3
*D14
  1

  0
LINE
  5
24E4
  8
DIM
 10
24317.820596925569
 20
-377.75178799772402
 30
0.0
 11
24317.820596925569
 21
-856.81257571207232
 31
0.0
  0
LINE
  5
24E5
  8
DIM
 10
34413.651345466569
 20
-354.99217399249579
 30
0.0
 11
34413.651345466569
 21
-856.81257571207232
 31
0.0
  0
LINE
  5
24E6
  8
DIM
 10
24517.820596925569
 20
-781.81257571207243
 30
0.0
 11
34213.651345466569
 21
-781.81257571207243
 31
0.0
  0
INSERT
  5
24E7
  8
DIM
  2
_FILLED
 10
24317.820596925569
 20
-781.81257571207243
 30
0.0
 41
200.0
 42
200.0
 43
200.0
 50
180.0
  0
INSERT
  5
24E8
  8
DIM
  2
_FILLED
 10
34413.651345466569
 20
-781.81257571207243
 30
0.0
 41
200.0
 42
200.0
 43
200.0
  0
INSERT
  5
24E9
  8
0
  2
*U76
 10
0.0
 20
0.0
 30
0.0
  0
POINT
  5
24EA
  8
DEFPOINTS
 62
     0
 10
24317.820596925569
 20
-327.75178799772402
 30
0.0
  0
POINT
  5
24EB
  8
DEFPOINTS
 62
     0
 10
34413.651345466569
 20
-304.99217399249579
 30
0.0
  0
POINT
  5
24EC
  8
DEFPOINTS
 62
     0
 10
34413.651345466569
 20
-781.81257571207243
 30
0.0
  0
ENDBLK
  5
16EC
  8
0
  0
BLOCK
  8
0
  2
*D15
 70
     1
 10
0.0
 20
0.0
 30
0.0
  3
*D15
  1

  0
LINE
  5
24ED
  8
DIM
 10
24267.820596925569
 20
-327.75178799772402
 30
0.0
 11
24045.058056268939
 21
-327.75178799772391
 31
0.0
  0
LINE
  5
24EE
  8
DIM
 10
24327.38947459697
 20
921.44206714008033
 30
0.0
 11
24045.058056268939
 21
921.44206714008033
 31
0.0
  0
LINE
  5
24EF
  8
DIM
 10
24120.058056268939
 20
-127.75178799772389
 30
0.0
 11
24120.058056268939
 21
721.44206714008044
 31
0.0
  0
INSERT
  5
24F0
  8
DIM
  2
_FILLED
 10
24120.058056268939
 20
-327.75178799772391
 30
0.0
 41
200.0
 42
200.0
 43
200.0
 50
270.0
  0
INSERT
  5
24F1
  8
DIM
  2
_FILLED
 10
24120.058056268939
 20
921.44206714008033
 30
0.0
 41
200.0
 42
200.0
 43
200.0
 50
90.0
  0
INSERT
  5
24F2
  8
0
  2
*U77
 10
0.0
 20
0.0
 30
0.0
  0
POINT
  5
24F3
  8
DEFPOINTS
 62
     0
 10
24317.820596925569
 20
-327.75178799772402
 30
0.0
  0
POINT
  5
24F4
  8
DEFPOINTS
 62
     0
 10
24377.38947459697
 20
921.44206714008033
 30
0.0
  0
POINT
  5
24F5
  8
DEFPOINTS
 62
     0
 10
24120.058056268939
 20
921.44206714008033
 30
0.0
  0
ENDBLK
  5
1704
  8
0
  0
BLOCK
  8
0
  2
*D16
 70
     1
 10
0.0
 20
0.0
 30
0.0
  3
*D16
  1

  0
LINE
  5
2C4B
  8
DIM
 10
753.64403163798852
 20
3082.88286109714
 30
0.0
 11
388.82974301501213
 21
3082.88286109714
 31
0.0
  0
LINE
  5
2C4C
  8
DIM
 10
3158.7537158896312
 20
4432.8308240509186
 30
0.0
 11
388.82974301501241
 21
4432.8308240509195
 31
0.0
  0
LINE
  5
2C4D
  8
DIM
 10
463.82974301501213
 20
3282.88286109714
 30
0.0
 11
463.82974301501241
 21
4232.8308240509195
 31
0.0
  0
INSERT
  5
2C4E
  8
DIM
  2
_FILLED
 10
463.82974301501201
 20
3082.88286109714
 30
0.0
 41
200.0
 42
200.0
 43
200.0
 50
270.0
  0
INSERT
  5
2C4F
  8
DIM
  2
_FILLED
 10
463.82974301501241
 20
4432.8308240509195
 30
0.0
 41
200.0
 42
200.0
 43
200.0
 50
90.0
  0
INSERT
  5
2C50
  8
0
  2
*U88
 10
0.0
 20
0.0
 30
0.0
  0
POINT
  5
2C51
  8
DEFPOINTS
 62
     0
 10
803.64403163798841
 20
3082.88286109714
 30
0.0
  0
POINT
  5
2C52
  8
DEFPOINTS
 62
     0
 10
3208.7537158896298
 20
4432.8308240509186
 30
0.0
  0
POINT
  5
2C53
  8
DEFPOINTS
 62
     0
 10
463.82974301501241
 20
4432.8308240509195
 30
0.0
  0
ENDBLK
  5
171C
  8
0
  0
BLOCK
  8
0
  2
*D17
 70
     1
 10
0.0
 20
0.0
 30
0.0
  3
*D17
  1

  0
LINE
  5
21FA
  8
DIM
 10
30029.137939768119
 20
10208.05478110321
 30
0.0
 11
30349.9859006365
 21
10208.05478110321
 31
0.0
  0
LINE
  5
21FB
  8
DIM
 10
30029.137939768119
 20
10928.05478110321
 30
0.0
 11
30349.9859006365
 21
10928.05478110321
 31
0.0
  0
LINE
  5
21FC
  8
DIM
 10
30274.9859006365
 20
10408.05478110321
 30
0.0
 11
30274.9859006365
 21
10728.05478110321
 31
0.0
  0
INSERT
  5
21FD
  8
DIM
  2
_FILLED
 10
30274.9859006365
 20
10208.05478110321
 30
0.0
 41
200.0
 42
200.0
 43
200.0
 50
270.0
  0
INSERT
  5
21FE
  8
DIM
  2
_FILLED
 10
30274.9859006365
 20
10928.05478110321
 30
0.0
 41
200.0
 42
200.0
 43
200.0
 50
90.0
  0
INSERT
  5
21FF
  8
0
  2
*U59
 10
0.0
 20
0.0
 30
0.0
  0
POINT
  5
2200
  8
DEFPOINTS
 62
     0
 10
29979.137939768119
 20
10208.05478110321
 30
0.0
  0
POINT
  5
2201
  8
DEFPOINTS
 62
     0
 10
29979.137939768119
 20
10928.05478110321
 30
0.0
  0
POINT
  5
2202
  8
DEFPOINTS
 62
     0
 10
30274.9859006365
 20
10928.05478110321
 30
0.0
  0
ENDBLK
  5
17CF
  8
0
  0
BLOCK
  8
0
  2
*D18
 70
     1
 10
0.0
 20
0.0
 30
0.0
  3
*D18
  1

  0
LINE
  5
2203
  8
DIM
 10
31251.589032612392
 20
10208.05478110321
 30
0.0
 11
31572.43699348078
 21
10208.05478110321
 31
0.0
  0
LINE
  5
2204
  8
DIM
 10
31251.589032612392
 20
10653.05478110321
 30
0.0
 11
31572.43699348078
 21
10653.05478110321
 31
0.0
  0
LINE
  5
2205
  8
DIM
 10
31497.43699348078
 20
10008.05478110321
 30
0.0
 11
31497.43699348078
 21
9808.0547811032156
 31
0.0
  0
LINE
  5
2206
  8
DIM
 10
31497.43699348078
 20
10853.05478110321
 30
0.0
 11
31497.43699348078
 21
11526.38811443655
 31
0.0
  0
INSERT
  5
2207
  8
DIM
  2
_FILLED
 10
31497.43699348078
 20
10208.05478110321
 30
0.0
 41
200.0
 42
200.0
 43
200.0
 50
90.0
  0
INSERT
  5
2208
  8
DIM
  2
_FILLED
 10
31497.43699348078
 20
10653.05478110321
 30
0.0
 41
200.0
 42
200.0
 43
200.0
 50
270.0
  0
INSERT
  5
2209
  8
0
  2
*U60
 10
0.0
 20
0.0
 30
0.0
  0
POINT
  5
220A
  8
DEFPOINTS
 62
     0
 10
31201.589032612392
 20
10208.05478110321
 30
0.0
  0
POINT
  5
220B
  8
DEFPOINTS
 62
     0
 10
31201.589032612392
 20
10653.05478110321
 30
0.0
  0
POINT
  5
220C
  8
DEFPOINTS
 62
     0
 10
31497.43699348078
 20
10653.05478110321
 30
0.0
  0
ENDBLK
  5
1805
  8
0
  0
BLOCK
  8
0
  2
*D19
 70
     1
 10
0.0
 20
0.0
 30
0.0
  3
*D19
  1

  0
LINE
  5
220D
  8
DIM
 10
32023.020700131849
 20
10208.05478110321
 30
0.0
 11
31915.029906488711
 21
10208.05478110321
 31
0.0
  0
LINE
  5
220E
  8
DIM
 10
32023.020700131849
 20
11102.88396501141
 30
0.0
 11
31915.029906488711
 21
11102.88396501141
 31
0.0
  0
LINE
  5
220F
  8
DIM
 10
31990.029906488711
 20
10408.05478110321
 30
0.0
 11
31990.029906488711
 21
10902.883965011421
 31
0.0
  0
INSERT
  5
2210
  8
DIM
  2
_FILLED
 10
31990.029906488711
 20
10208.05478110321
 30
0.0
 41
200.0
 42
200.0
 43
200.0
 50
270.0
  0
INSERT
  5
2211
  8
DIM
  2
_FILLED
 10
31990.029906488711
 20
11102.88396501141
 30
0.0
 41
200.0
 42
200.0
 43
200.0
 50
90.0
  0
INSERT
  5
2212
  8
0
  2
*U61
 10
0.0
 20
0.0
 30
0.0
  0
POINT
  5
2213
  8
DEFPOINTS
 62
     0
 10
32073.020700131849
 20
10208.05478110321
 30
0.0
  0
POINT
  5
2214
  8
DEFPOINTS
 62
     0
 10
32073.020700131849
 20
11102.88396501141
 30
0.0
  0
POINT
  5
2215
  8
DEFPOINTS
 62
     0
 10
31990.029906488711
 20
11102.88396501141
 30
0.0
  0
ENDBLK
  5
18FB
  8
0
  0
BLOCK
  8
0
  2
*D20
 70
     1
 10
0.0
 20
0.0
 30
0.0
  3
*D20
  1

  0
LINE
  5
2216
  8
DIM
 10
32073.020700131849
 20
10158.05478110321
 30
0.0
 11
32073.020700131849
 21
9586.8014564376008
 31
0.0
  0
LINE
  5
2217
  8
DIM
 10
32423.020700131849
 20
10158.05478110321
 30
0.0
 11
32423.020700131849
 21
9586.8014564376008
 31
0.0
  0
LINE
  5
2218
  8
DIM
 10
31873.020700131849
 20
9661.8014564376008
 30
0.0
 11
31673.020700131849
 21
9661.8014564376008
 31
0.0
  0
LINE
  5
2219
  8
DIM
 10
32623.020700131849
 20
9661.8014564376008
 30
0.0
 11
33273.020700131849
 21
9661.8014564376008
 31
0.0
  0
INSERT
  5
221A
  8
DIM
  2
_FILLED
 10
32073.020700131849
 20
9661.8014564376008
 30
0.0
 41
200.0
 42
200.0
 43
200.0
  0
INSERT
  5
221B
  8
DIM
  2
_FILLED
 10
32423.020700131849
 20
9661.8014564376008
 30
0.0
 41
200.0
 42
200.0
 43
200.0
 50
180.0
  0
INSERT
  5
221C
  8
0
  2
*U62
 10
0.0
 20
0.0
 30
0.0
  0
POINT
  5
221D
  8
DEFPOINTS
 62
     0
 10
32073.020700131849
 20
10208.05478110321
 30
0.0
  0
POINT
  5
221E
  8
DEFPOINTS
 62
     0
 10
32423.020700131849
 20
10208.05478110321
 30
0.0
  0
POINT
  5
221F
  8
DEFPOINTS
 62
     0
 10
32423.020700131849
 20
9661.8014564376008
 30
0.0
  0
ENDBLK
  5
1913
  8
0
  0
BLOCK
  8
0
  2
*D21
 70
     1
 10
0.0
 20
0.0
 30
0.0
  3
*D21
  1

  0
LINE
  5
2220
  8
DIM
 10
32473.020700131849
 20
10943.75464514046
 30
0.0
 11
32979.04620456777
 21
10943.75464514046
 31
0.0
  0
LINE
  5
2221
  8
DIM
 10
32411.755755903228
 20
11102.88396501141
 30
0.0
 11
32979.04620456777
 21
11102.88396501141
 31
0.0
  0
LINE
  5
2222
  8
DIM
 10
32904.04620456777
 20
10743.754645140451
 30
0.0
 11
32904.04620456777
 21
10543.754645140451
 31
0.0
  0
LINE
  5
2223
  8
DIM
 10
32904.04620456777
 20
11302.88396501141
 30
0.0
 11
32904.04620456777
 21
11929.550631678079
 31
0.0
  0
INSERT
  5
2224
  8
DIM
  2
_FILLED
 10
32904.04620456777
 20
10943.75464514046
 30
0.0
 41
200.0
 42
200.0
 43
200.0
 50
90.0
  0
INSERT
  5
2225
  8
DIM
  2
_FILLED
 10
32904.04620456777
 20
11102.88396501141
 30
0.0
 41
200.0
 42
200.0
 43
200.0
 50
270.0
  0
INSERT
  5
2226
  8
0
  2
*U63
 10
0.0
 20
0.0
 30
0.0
  0
POINT
  5
2227
  8
DEFPOINTS
 62
     0
 10
32423.020700131849
 20
10943.75464514046
 30
0.0
  0
POINT
  5
2228
  8
DEFPOINTS
 62
     0
 10
32361.755755903239
 20
11102.88396501141
 30
0.0
  0
POINT
  5
2229
  8
DEFPOINTS
 62
     0
 10
32904.04620456777
 20
11102.88396501141
 30
0.0
  0
ENDBLK
  5
1971
  8
0
  0
BLOCK
  8
0
  2
*D22
 70
     1
 10
0.0
 20
0.0
 30
0.0
  3
*D22
  1

  0
LINE
  5
222A
  8
DIM
 10
32423.020700131849
 20
10993.75464514046
 30
0.0
 11
32423.020700131849
 21
11438.49132230883
 31
0.0
  0
LINE
  5
222B
  8
DIM
 10
32361.755755903239
 20
11152.88396501141
 30
0.0
 11
32361.755755903239
 21
11438.49132230883
 31
0.0
  0
LINE
  5
222C
  8
DIM
 10
32623.020700131849
 20
11363.491322308841
 30
0.0
 11
32823.020700131849
 21
11363.491322308841
 31
0.0
  0
LINE
  5
222D
  8
DIM
 10
32161.755755903239
 20
11363.491322308841
 30
0.0
 11
31675.089089236571
 21
11363.491322308841
 31
0.0
  0
INSERT
  5
222E
  8
DIM
  2
_FILLED
 10
32423.020700131849
 20
11363.491322308841
 30
0.0
 41
200.0
 42
200.0
 43
200.0
 50
180.0
  0
INSERT
  5
222F
  8
DIM
  2
_FILLED
 10
32361.755755903239
 20
11363.491322308841
 30
0.0
 41
200.0
 42
200.0
 43
200.0
  0
INSERT
  5
2230
  8
0
  2
*U64
 10
0.0
 20
0.0
 30
0.0
  0
POINT
  5
2231
  8
DEFPOINTS
 62
     0
 10
32423.020700131849
 20
10943.75464514046
 30
0.0
  0
POINT
  5
2232
  8
DEFPOINTS
 62
     0
 10
32361.755755903239
 20
11102.88396501141
 30
0.0
  0
POINT
  5
2233
  8
DEFPOINTS
 62
     0
 10
32361.755755903239
 20
11363.491322308841
 30
0.0
  0
ENDBLK
  5
198B
  8
0
  0
BLOCK
  8
0
  2
*D23
 70
     1
 10
0.0
 20
0.0
 30
0.0
  3
*D23
  1

  0
LINE
  5
2234
  8
DIM
 10
32623.020700131849
 20
10790.05478110321
 30
0.0
 11
32906.957170065361
 21
10790.05478110321
 31
0.0
  0
LINE
  5
2235
  8
DIM
 10
32623.020700131849
 20
10208.05478110321
 30
0.0
 11
32906.957170065361
 21
10208.05478110321
 31
0.0
  0
LINE
  5
2236
  8
DIM
 10
32831.957170065361
 20
10590.05478110321
 30
0.0
 11
32831.957170065361
 21
10408.05478110321
 31
0.0
  0
INSERT
  5
2237
  8
DIM
  2
_FILLED
 10
32831.957170065361
 20
10790.05478110321
 30
0.0
 41
200.0
 42
200.0
 43
200.0
 50
90.0
  0
INSERT
  5
2238
  8
DIM
  2
_FILLED
 10
32831.957170065361
 20
10208.05478110321
 30
0.0
 41
200.0
 42
200.0
 43
200.0
 50
270.0
  0
INSERT
  5
2239
  8
0
  2
*U65
 10
0.0
 20
0.0
 30
0.0
  0
POINT
  5
223A
  8
DEFPOINTS
 62
     0
 10
32573.020700131849
 20
10790.05478110321
 30
0.0
  0
POINT
  5
223B
  8
DEFPOINTS
 62
     0
 10
32573.020700131849
 20
10208.05478110321
 30
0.0
  0
POINT
  5
223C
  8
DEFPOINTS
 62
     0
 10
32831.957170065361
 20
10208.05478110321
 30
0.0
  0
ENDBLK
  5
19AF
  8
0
  0
BLOCK
  8
0
  2
*D24
 70
     1
 10
0.0
 20
0.0
 30
0.0
  3
*D24
  1

  0
LINE
  5
223D
  8
DIM
 10
32433.020700131849
 20
10158.05478110321
 30
0.0
 11
32433.020700131849
 21
9972.2452024657996
 31
0.0
  0
LINE
  5
223E
  8
DIM
 10
32573.020700131849
 20
10158.05478110321
 30
0.0
 11
32573.020700131849
 21
9972.2452024657996
 31
0.0
  0
LINE
  5
223F
  8
DIM
 10
32233.020700131849
 20
10047.24520246579
 30
0.0
 11
32033.020700131849
 21
10047.24520246579
 31
0.0
  0
LINE
  5
2240
  8
DIM
 10
32773.020700131849
 20
10047.24520246579
 30
0.0
 11
33376.354033465177
 21
10047.24520246579
 31
0.0
  0
INSERT
  5
2241
  8
DIM
  2
_FILLED
 10
32433.020700131849
 20
10047.24520246579
 30
0.0
 41
200.0
 42
200.0
 43
200.0
  0
INSERT
  5
2242
  8
DIM
  2
_FILLED
 10
32573.020700131849
 20
10047.24520246579
 30
0.0
 41
200.0
 42
200.0
 43
200.0
 50
180.0
  0
INSERT
  5
2243
  8
0
  2
*U66
 10
0.0
 20
0.0
 30
0.0
  0
POINT
  5
2244
  8
DEFPOINTS
 62
     0
 10
32433.020700131849
 20
10208.05478110321
 30
0.0
  0
POINT
  5
2245
  8
DEFPOINTS
 62
     0
 10
32573.020700131849
 20
10208.05478110321
 30
0.0
  0
POINT
  5
2246
  8
DEFPOINTS
 62
     0
 10
32573.020700131849
 20
10047.24520246579
 30
0.0
  0
ENDBLK
  5
19D1
  8
0
  0
BLOCK
  8
0
  2
*D25
 70
     1
 10
0.0
 20
0.0
 30
0.0
  3
*D25
  1

  0
LINE
  5
2247
  8
DIM
 10
34044.636353343798
 20
10208.05478110321
 30
0.0
 11
34365.484314212183
 21
10208.05478110321
 31
0.0
  0
LINE
  5
2248
  8
DIM
 10
34044.636353343798
 20
10382.05478110321
 30
0.0
 11
34365.484314212183
 21
10382.05478110321
 31
0.0
  0
LINE
  5
2249
  8
DIM
 10
34290.48431421219
 20
10008.05478110321
 30
0.0
 11
34290.48431421219
 21
9808.0547811032156
 31
0.0
  0
LINE
  5
224A
  8
DIM
 10
34290.48431421219
 20
10582.05478110321
 30
0.0
 11
34290.48431421219
 21
11208.72144776988
 31
0.0
  0
INSERT
  5
224B
  8
DIM
  2
_FILLED
 10
34290.48431421219
 20
10208.05478110321
 30
0.0
 41
200.0
 42
200.0
 43
200.0
 50
90.0
  0
INSERT
  5
224C
  8
DIM
  2
_FILLED
 10
34290.48431421219
 20
10382.05478110321
 30
0.0
 41
200.0
 42
200.0
 43
200.0
 50
270.0
  0
INSERT
  5
224D
  8
0
  2
*U67
 10
0.0
 20
0.0
 30
0.0
  0
POINT
  5
224E
  8
DEFPOINTS
 62
     0
 10
33994.636353343798
 20
10208.05478110321
 30
0.0
  0
POINT
  5
224F
  8
DEFPOINTS
 62
     0
 10
33994.636353343798
 20
10382.05478110321
 30
0.0
  0
POINT
  5
2250
  8
DEFPOINTS
 62
     0
 10
34290.48431421219
 20
10382.05478110321
 30
0.0
  0
ENDBLK
  5
19FB
  8
0
  0
BLOCK
  8
0
  2
*D26
 70
     1
 10
0.0
 20
0.0
 30
0.0
  3
*D26
  1

  0
LINE
  5
249E
  8
DIM
 10
6295.3355311627784
 20
4743.9943542493202
 30
0.0
 11
6295.3355311627784
 21
4961.3011262548453
 31
0.0
  0
LINE
  5
249F
  8
DIM
 10
7225.8348128917669
 20
4743.9943542493202
 30
0.0
 11
7225.8348128917669
 21
4961.3011262548453
 31
0.0
  0
LINE
  5
24A0
  8
DIM
 10
6495.3355311627793
 20
4886.3011262548453
 30
0.0
 11
7025.8348128917669
 21
4886.3011262548453
 31
0.0
  0
INSERT
  5
24A1
  8
DIM
  2
_FILLED
 10
6295.3355311627784
 20
4886.3011262548453
 30
0.0
 41
200.0
 42
200.0
 43
200.0
 50
180.0
  0
INSERT
  5
24A2
  8
DIM
  2
_FILLED
 10
7225.8348128917669
 20
4886.3011262548453
 30
0.0
 41
200.0
 42
200.0
 43
200.0
  0
INSERT
  5
24A3
  8
0
  2
*U72
 10
0.0
 20
0.0
 30
0.0
  0
POINT
  5
24A4
  8
DEFPOINTS
 62
     0
 10
6295.3355311627784
 20
4693.9943542493202
 30
0.0
  0
POINT
  5
24A5
  8
DEFPOINTS
 62
     0
 10
7225.8348128917669
 20
4693.9943542493202
 30
0.0
  0
POINT
  5
24A6
  8
DEFPOINTS
 62
     0
 10
7225.8348128917669
 20
4886.3011262548453
 30
0.0
  0
ENDBLK
  5
1BC3
  8
0
  0
BLOCK
  8
0
  2
*D27
 70
     1
 10
0.0
 20
0.0
 30
0.0
  3
*D27
  1

  0
LINE
  5
24A7
  8
DIM
 10
6245.3355311627784
 20
4633.9943542493202
 30
0.0
 11
6066.7960756726534
 21
4633.9943542493202
 31
0.0
  0
LINE
  5
24A8
  8
DIM
 10
6245.3355311627784
 20
3730.450426746334
 30
0.0
 11
6066.7960756726534
 21
3730.450426746334
 31
0.0
  0
LINE
  5
24A9
  8
DIM
 10
6141.7960756726543
 20
4433.9943542493202
 30
0.0
 11
6141.7960756726543
 21
3930.4504267463349
 31
0.0
  0
INSERT
  5
24AA
  8
DIM
  2
_FILLED
 10
6141.7960756726543
 20
4633.9943542493202
 30
0.0
 41
200.0
 42
200.0
 43
200.0
 50
90.0
  0
INSERT
  5
24AB
  8
DIM
  2
_FILLED
 10
6141.7960756726543
 20
3730.450426746334
 30
0.0
 41
200.0
 42
200.0
 43
200.0
 50
270.0
  0
INSERT
  5
24AC
  8
0
  2
*U73
 10
0.0
 20
0.0
 30
0.0
  0
POINT
  5
24AD
  8
DEFPOINTS
 62
     0
 10
6295.3355311627784
 20
4633.9943542493202
 30
0.0
  0
POINT
  5
24AE
  8
DEFPOINTS
 62
     0
 10
6295.3355311627784
 20
3730.450426746334
 30
0.0
  0
POINT
  5
24AF
  8
DEFPOINTS
 62
     0
 10
6141.7960756726543
 20
3730.450426746334
 30
0.0
  0
ENDBLK
  5
1BDB
  8
0
  0
BLOCK
  8
0
  2
*D28
 70
     1
 10
0.0
 20
0.0
 30
0.0
  3
*D28
  1

  0
LINE
  5
24B0
  8
DIM
 10
6245.3355311627784
 20
4633.9943542493202
 30
0.0
 11
6066.7960756726534
 21
4633.9943542493202
 31
0.0
  0
LINE
  5
24B1
  8
DIM
 10
6245.3355311627784
 20
4693.9943542493202
 30
0.0
 11
6066.7960756726534
 21
4693.9943542493211
 31
0.0
  0
LINE
  5
24B2
  8
DIM
 10
6141.7960756726543
 20
4433.9943542493202
 30
0.0
 11
6141.7960756726543
 21
4233.9943542493211
 31
0.0
  0
LINE
  5
24B3
  8
DIM
 10
6141.7960756726543
 20
4893.9943542493211
 30
0.0
 11
6141.7960756726543
 21
5403.9943542493211
 31
0.0
  0
INSERT
  5
24B4
  8
DIM
  2
_FILLED
 10
6141.7960756726543
 20
4633.9943542493202
 30
0.0
 41
200.0
 42
200.0
 43
200.0
 50
90.0
  0
INSERT
  5
24B5
  8
DIM
  2
_FILLED
 10
6141.7960756726543
 20
4693.9943542493211
 30
0.0
 41
200.0
 42
200.0
 43
200.0
 50
270.0
  0
INSERT
  5
24B6
  8
0
  2
*U74
 10
0.0
 20
0.0
 30
0.0
  0
POINT
  5
24B7
  8
DEFPOINTS
 62
     0
 10
6295.3355311627784
 20
4633.9943542493202
 30
0.0
  0
POINT
  5
24B8
  8
DEFPOINTS
 62
     0
 10
6295.3355311627784
 20
4693.9943542493202
 30
0.0
  0
POINT
  5
24B9
  8
DEFPOINTS
 62
     0
 10
6141.7960756726543
 20
4693.9943542493211
 30
0.0
  0
ENDBLK
  5
1BF7
  8
0
  0
BLOCK
  8
0
  2
*D29
 70
     1
 10
0.0
 20
0.0
 30
0.0
  3
*D29
  1

  0
LINE
  5
2155
  8
DIM
 10
24472.449622810851
 20
9722.0610950686896
 30
0.0
 11
24472.449622810851
 21
9431.6397100736285
 31
0.0
  0
LINE
  5
2156
  8
DIM
 10
25402.449622810851
 20
9722.0610950686896
 30
0.0
 11
25402.449622810851
 21
9431.6397100736285
 31
0.0
  0
LINE
  5
2157
  8
DIM
 10
24672.449622810851
 20
9506.6397100736285
 30
0.0
 11
25202.449622810851
 21
9506.6397100736285
 31
0.0
  0
INSERT
  5
2158
  8
DIM
  2
_FILLED
 10
24472.449622810851
 20
9506.6397100736285
 30
0.0
 41
200.0
 42
200.0
 43
200.0
 50
180.0
  0
INSERT
  5
2159
  8
DIM
  2
_FILLED
 10
25402.449622810851
 20
9506.6397100736285
 30
0.0
 41
200.0
 42
200.0
 43
200.0
  0
INSERT
  5
215A
  8
0
  2
*U54
 10
0.0
 20
0.0
 30
0.0
  0
POINT
  5
215B
  8
DEFPOINTS
 62
     0
 10
24472.449622810851
 20
9772.0610950686914
 30
0.0
  0
POINT
  5
215C
  8
DEFPOINTS
 62
     0
 10
25402.449622810851
 20
9772.0610950686914
 30
0.0
  0
POINT
  5
215D
  8
DEFPOINTS
 62
     0
 10
25402.449622810851
 20
9506.6397100736285
 30
0.0
  0
ENDBLK
  5
2024
  8
0
  0
BLOCK
  8
0
  2
*D30
 70
     1
 10
0.0
 20
0.0
 30
0.0
  3
*D30
  1

  0
LINE
  5
215E
  8
DIM
 10
25402.449622810851
 20
9722.0610950686896
 30
0.0
 11
25402.449622810851
 21
9431.6397100736285
 31
0.0
  0
LINE
  5
215F
  8
DIM
 10
26306.449622810851
 20
9722.0610950686896
 30
0.0
 11
26306.449622810851
 21
9431.6397100736285
 31
0.0
  0
LINE
  5
2160
  8
DIM
 10
25602.449622810851
 20
9506.6397100736285
 30
0.0
 11
26106.449622810851
 21
9506.6397100736285
 31
0.0
  0
INSERT
  5
2161
  8
DIM
  2
_FILLED
 10
25402.449622810851
 20
9506.6397100736285
 30
0.0
 41
200.0
 42
200.0
 43
200.0
 50
180.0
  0
INSERT
  5
2162
  8
DIM
  2
_FILLED
 10
26306.449622810851
 20
9506.6397100736285
 30
0.0
 41
200.0
 42
200.0
 43
200.0
  0
INSERT
  5
2163
  8
0
  2
*U55
 10
0.0
 20
0.0
 30
0.0
  0
POINT
  5
2164
  8
DEFPOINTS
 62
     0
 10
25402.449622810851
 20
9772.0610950686914
 30
0.0
  0
POINT
  5
2165
  8
DEFPOINTS
 62
     0
 10
26306.449622810851
 20
9772.0610950686914
 30
0.0
  0
POINT
  5
2166
  8
DEFPOINTS
 62
     0
 10
26306.449622810851
 20
9506.6397100736285
 30
0.0
  0
ENDBLK
  5
203C
  8
0
  0
BLOCK
  8
0
  2
*D31
 70
     1
 10
0.0
 20
0.0
 30
0.0
  3
*D31
  1

  0
LINE
  5
2167
  8
DIM
 10
26356.449622810851
 20
9772.0610950686914
 30
0.0
 11
26739.069029045291
 21
9772.0610950686914
 31
0.0
  0
LINE
  5
2168
  8
DIM
 10
26356.449622810851
 20
10972.06109506869
 30
0.0
 11
26739.069029045291
 21
10972.06109506869
 31
0.0
  0
LINE
  5
2169
  8
DIM
 10
26664.069029045291
 20
9972.0610950686896
 30
0.0
 11
26664.069029045291
 21
10772.06109506869
 31
0.0
  0
INSERT
  5
216A
  8
DIM
  2
_FILLED
 10
26664.069029045291
 20
9772.0610950686914
 30
0.0
 41
200.0
 42
200.0
 43
200.0
 50
270.0
  0
INSERT
  5
216B
  8
DIM
  2
_FILLED
 10
26664.069029045291
 20
10972.06109506869
 30
0.0
 41
200.0
 42
200.0
 43
200.0
 50
90.0
  0
INSERT
  5
216C
  8
0
  2
*U56
 10
0.0
 20
0.0
 30
0.0
  0
POINT
  5
216D
  8
DEFPOINTS
 62
     0
 10
26306.449622810851
 20
9772.0610950686914
 30
0.0
  0
POINT
  5
216E
  8
DEFPOINTS
 62
     0
 10
26306.449622810851
 20
10972.06109506869
 30
0.0
  0
POINT
  5
216F
  8
DEFPOINTS
 62
     0
 10
26664.069029045291
 20
10972.06109506869
 30
0.0
  0
ENDBLK
  5
2054
  8
0
  0
BLOCK
  8
0
  2
*D32
 70
     1
 10
0.0
 20
0.0
 30
0.0
  3
*D32
  1

  0
LINE
  5
24F6
  8
DIM
 10
24340.783467873702
 20
-2857.7405078362858
 30
0.0
 11
24340.783467873702
 21
-3336.8012955506342
 31
0.0
  0
LINE
  5
24F7
  8
DIM
 10
34436.614216414702
 20
-2834.980893831058
 30
0.0
 11
34436.614216414702
 21
-3336.8012955506342
 31
0.0
  0
LINE
  5
24F8
  8
DIM
 10
24540.783467873702
 20
-3261.8012955506351
 30
0.0
 11
34236.614216414702
 21
-3261.8012955506351
 31
0.0
  0
INSERT
  5
24F9
  8
DIM
  2
_FILLED
 10
24340.783467873702
 20
-3261.8012955506351
 30
0.0
 41
200.0
 42
200.0
 43
200.0
 50
180.0
  0
INSERT
  5
24FA
  8
DIM
  2
_FILLED
 10
34436.614216414702
 20
-3261.8012955506351
 30
0.0
 41
200.0
 42
200.0
 43
200.0
  0
INSERT
  5
24FB
  8
0
  2
*U78
 10
0.0
 20
0.0
 30
0.0
  0
POINT
  5
24FC
  8
DEFPOINTS
 62
     0
 10
24340.783467873702
 20
-2807.7405078362858
 30
0.0
  0
POINT
  5
24FD
  8
DEFPOINTS
 62
     0
 10
34436.614216414702
 20
-2784.980893831058
 30
0.0
  0
POINT
  5
24FE
  8
DEFPOINTS
 62
     0
 10
34436.614216414702
 20
-3261.8012955506351
 30
0.0
  0
ENDBLK
  5
2313
  8
0
  0
BLOCK
  8
0
  2
*D33
 70
     1
 10
0.0
 20
0.0
 30
0.0
  3
*D33
  1

  0
LINE
  5
24FF
  8
DIM
 10
24290.783467873702
 20
-2807.7405078362858
 30
0.0
 11
24068.020927217069
 21
-2807.7405078362858
 31
0.0
  0
LINE
  5
2500
  8
DIM
 10
24350.3523455451
 20
-1558.5466526984819
 30
0.0
 11
24068.020927217069
 21
-1558.5466526984819
 31
0.0
  0
LINE
  5
2501
  8
DIM
 10
24143.020927217069
 20
-2607.7405078362858
 30
0.0
 11
24143.020927217069
 21
-1758.5466526984819
 31
0.0
  0
INSERT
  5
2502
  8
DIM
  2
_FILLED
 10
24143.020927217069
 20
-2807.7405078362858
 30
0.0
 41
200.0
 42
200.0
 43
200.0
 50
270.0
  0
INSERT
  5
2503
  8
DIM
  2
_FILLED
 10
24143.020927217069
 20
-1558.5466526984819
 30
0.0
 41
200.0
 42
200.0
 43
200.0
 50
90.0
  0
INSERT
  5
2504
  8
0
  2
*U79
 10
0.0
 20
0.0
 30
0.0
  0
POINT
  5
2505
  8
DEFPOINTS
 62
     0
 10
24340.783467873702
 20
-2807.7405078362858
 30
0.0
  0
POINT
  5
2506
  8
DEFPOINTS
 62
     0
 10
24400.3523455451
 20
-1558.5466526984819
 30
0.0
  0
POINT
  5
2507
  8
DEFPOINTS
 62
     0
 10
24143.020927217069
 20
-1558.5466526984819
 30
0.0
  0
ENDBLK
  5
231F
  8
0
  0
BLOCK
  8
0
  2
*D34
 70
     1
 10
0.0
 20
0.0
 30
0.0
  3
*D34
  1

  0
LINE
  5
2C7D
  8
DIM
 10
632.14770668995334
 20
1883.904462421689
 30
0.0
 11
632.14770668995322
 21
300.57827091641229
 31
0.0
  0
LINE
  5
2C7E
  8
DIM
 10
5993.3103989254741
 20
1633.892520390895
 30
0.0
 11
5993.3103989254741
 21
300.57827091641229
 31
0.0
  0
LINE
  5
2C7F
  8
DIM
 10
832.14770668995322
 20
375.57827091641229
 30
0.0
 11
5793.3103989254732
 21
375.57827091641229
 31
0.0
  0
INSERT
  5
2C80
  8
DIM
  2
_FILLED
 10
632.14770668995322
 20
375.57827091641229
 30
0.0
 41
200.0
 42
200.0
 43
200.0
 50
180.0
  0
INSERT
  5
2C81
  8
DIM
  2
_FILLED
 10
5993.3103989254741
 20
375.57827091641229
 30
0.0
 41
200.0
 42
200.0
 43
200.0
  0
INSERT
  5
2C82
  8
0
  2
*U90
 10
0.0
 20
0.0
 30
0.0
  0
POINT
  5
2C83
  8
DEFPOINTS
 62
     0
 10
632.14770668995334
 20
1933.904462421689
 30
0.0
  0
POINT
  5
2C84
  8
DEFPOINTS
 62
     0
 10
5993.3103989254741
 20
1683.892520390895
 30
0.0
  0
POINT
  5
2C85
  8
DEFPOINTS
 62
     0
 10
5993.3103989254741
 20
375.57827091641229
 30
0.0
  0
ENDBLK
  5
241A
  8
0
  0
BLOCK
  8
0
  2
*D35
 70
     1
 10
0.0
 20
0.0
 30
0.0
  3
*D35
  1

  0
LINE
  5
2C74
  8
DIM
 10
646.039469427531
 20
772.45929863984202
 30
0.0
 11
281.2251808045545
 21
772.45929863984202
 31
0.0
  0
LINE
  5
2C75
  8
DIM
 10
3051.1491536791732
 20
2122.4072615936229
 30
0.0
 11
281.22518080455478
 21
2122.4072615936229
 31
0.0
  0
LINE
  5
2C76
  8
DIM
 10
356.22518080455461
 20
972.45929863984202
 30
0.0
 11
356.22518080455478
 21
1922.4072615936229
 31
0.0
  0
INSERT
  5
2C77
  8
DIM
  2
_FILLED
 10
356.2251808045545
 20
772.45929863984202
 30
0.0
 41
200.0
 42
200.0
 43
200.0
 50
270.0
  0
INSERT
  5
2C78
  8
DIM
  2
_FILLED
 10
356.22518080455478
 20
2122.4072615936229
 30
0.0
 41
200.0
 42
200.0
 43
200.0
 50
90.0
  0
INSERT
  5
2C79
  8
0
  2
*U89
 10
0.0
 20
0.0
 30
0.0
  0
POINT
  5
2C7A
  8
DEFPOINTS
 62
     0
 10
696.039469427531
 20
772.45929863984202
 30
0.0
  0
POINT
  5
2C7B
  8
DEFPOINTS
 62
     0
 10
3101.1491536791732
 20
2122.407261593622
 30
0.0
  0
POINT
  5
2C7C
  8
DEFPOINTS
 62
     0
 10
356.22518080455478
 20
2122.4072615936229
 30
0.0
  0
ENDBLK
  5
2426
  8
0
  0
BLOCK
  8
0
  2
*D36
 70
     1
 10
0.0
 20
0.0
 30
0.0
  3
*D36
  1

  0
LINE
  5
271C
  8
DIM
 10
33284.434379352148
 20
-6741.8585727018653
 30
0.0
 11
33284.434379352148
 21
-7173.9230870379843
 31
0.0
  0
LINE
  5
271D
  8
DIM
 10
35818.432880063163
 20
-6530.7371365925064
 30
0.0
 11
35818.432880063163
 21
-7173.9230870379843
 31
0.0
  0
LINE
  5
271E
  8
DIM
 10
33484.434379352148
 20
-7098.9230870379843
 30
0.0
 11
35618.43288006317
 21
-7098.9230870379843
 31
0.0
  0
INSERT
  5
271F
  8
DIM
  2
_FILLED
 10
33284.434379352148
 20
-7098.9230870379843
 30
0.0
 41
200.0
 42
200.0
 43
200.0
 50
180.0
  0
INSERT
  5
2720
  8
DIM
  2
_FILLED
 10
35818.432880063163
 20
-7098.9230870379843
 30
0.0
 41
200.0
 42
200.0
 43
200.0
  0
INSERT
  5
2721
  8
0
  2
*U81
 10
0.0
 20
0.0
 30
0.0
  0
POINT
  5
2722
  8
DEFPOINTS
 62
     0
 10
33284.434379352148
 20
-6691.8585727018653
 30
0.0
  0
POINT
  5
2723
  8
DEFPOINTS
 62
     0
 10
35818.432880063163
 20
-6480.7371365925064
 30
0.0
  0
POINT
  5
2724
  8
DEFPOINTS
 62
     0
 10
35818.432880063163
 20
-7098.9230870379843
 30
0.0
  0
ENDBLK
  5
271B
  8
0
  0
BLOCK
  8
0
  2
*D37
 70
     1
 10
0.0
 20
0.0
 30
0.0
  3
*D37
  1

  0
LINE
  5
2728
  8
DIM
 10
33234.434379352148
 20
-6691.8585727018653
 30
0.0
 11
32783.319861390228
 21
-6691.8585727018653
 31
0.0
  0
LINE
  5
2729
  8
DIM
 10
33234.434379352148
 20
-5694.0360636296873
 30
0.0
 11
32783.319861390228
 21
-5694.0360636296873
 31
0.0
  0
LINE
  5
272A
  8
DIM
 10
32858.319861390228
 20
-6491.8585727018653
 30
0.0
 11
32858.319861390228
 21
-5894.0360636296882
 31
0.0
  0
INSERT
  5
272B
  8
DIM
  2
_FILLED
 10
32858.319861390228
 20
-6691.8585727018653
 30
0.0
 41
200.0
 42
200.0
 43
200.0
 50
270.0
  0
INSERT
  5
272C
  8
DIM
  2
_FILLED
 10
32858.319861390228
 20
-5694.0360636296873
 30
0.0
 41
200.0
 42
200.0
 43
200.0
 50
90.0
  0
INSERT
  5
272D
  8
0
  2
*U82
 10
0.0
 20
0.0
 30
0.0
  0
POINT
  5
272E
  8
DEFPOINTS
 62
     0
 10
33284.434379352148
 20
-6691.8585727018653
 30
0.0
  0
POINT
  5
272F
  8
DEFPOINTS
 62
     0
 10
33284.434379352148
 20
-5694.0360636296873
 30
0.0
  0
POINT
  5
2730
  8
DEFPOINTS
 62
     0
 10
32858.319861390228
 20
-5694.0360636296873
 30
0.0
  0
ENDBLK
  5
2727
  8
0
  0
BLOCK
  8
0
  2
*D38
 70
     1
 10
0.0
 20
0.0
 30
0.0
  3
*D38
  1

  0
LINE
  5
2B84
  8
DIM
 10
24985.268442316461
 20
-6737.1755230009949
 30
0.0
 11
24985.268442316461
 21
-7312.0250899819148
 31
0.0
  0
LINE
  5
2B85
  8
DIM
 10
26235.268442316461
 20
-6737.1755230009949
 30
0.0
 11
26235.268442316461
 21
-7312.0250899819148
 31
0.0
  0
LINE
  5
2B86
  8
DIM
 10
25185.268442316461
 20
-7237.0250899819157
 30
0.0
 11
26035.268442316461
 21
-7237.0250899819157
 31
0.0
  0
INSERT
  5
2B87
  8
DIM
  2
_FILLED
 10
24985.268442316461
 20
-7237.0250899819157
 30
0.0
 41
200.0
 42
200.0
 43
200.0
 50
180.0
  0
INSERT
  5
2B88
  8
DIM
  2
_FILLED
 10
26235.268442316461
 20
-7237.0250899819157
 30
0.0
 41
200.0
 42
200.0
 43
200.0
  0
INSERT
  5
2B89
  8
0
  2
*U84
 10
0.0
 20
0.0
 30
0.0
  0
POINT
  5
2B8A
  8
DEFPOINTS
 62
     0
 10
24985.268442316461
 20
-6687.1755230009949
 30
0.0
  0
POINT
  5
2B8B
  8
DEFPOINTS
 62
     0
 10
26235.268442316461
 20
-6687.1755230009949
 30
0.0
  0
POINT
  5
2B8C
  8
DEFPOINTS
 62
     0
 10
26235.268442316461
 20
-7237.0250899819157
 30
0.0
  0
ENDBLK
  5
2B57
  8
0
  0
BLOCK
  8
0
  2
*D39
 70
     1
 10
0.0
 20
0.0
 30
0.0
  3
*D39
  1

  0
LINE
  5
2B7A
  8
DIM
 10
26255.268442316461
 20
-6737.1755230009949
 30
0.0
 11
26255.268442316461
 21
-7312.0250899819148
 31
0.0
  0
LINE
  5
2B7B
  8
DIM
 10
27505.268442316461
 20
-6737.1755230009949
 30
0.0
 11
27505.268442316461
 21
-7312.0250899819148
 31
0.0
  0
LINE
  5
2B7C
  8
DIM
 10
26455.268442316461
 20
-7237.0250899819157
 30
0.0
 11
27305.268442316461
 21
-7237.0250899819157
 31
0.0
  0
INSERT
  5
2B7D
  8
DIM
  2
_FILLED
 10
26255.268442316461
 20
-7237.0250899819157
 30
0.0
 41
200.0
 42
200.0
 43
200.0
 50
180.0
  0
INSERT
  5
2B7E
  8
DIM
  2
_FILLED
 10
27505.268442316461
 20
-7237.0250899819157
 30
0.0
 41
200.0
 42
200.0
 43
200.0
  0
INSERT
  5
2B7F
  8
0
  2
*U83
 10
0.0
 20
0.0
 30
0.0
  0
POINT
  5
2B80
  8
DEFPOINTS
 62
     0
 10
26255.268442316461
 20
-6687.1755230009949
 30
0.0
  0
POINT
  5
2B81
  8
DEFPOINTS
 62
     0
 10
27505.268442316461
 20
-6687.1755230009949
 30
0.0
  0
POINT
  5
2B82
  8
DEFPOINTS
 62
     0
 10
27505.268442316461
 20
-7237.0250899819157
 30
0.0
  0
ENDBLK
  5
2B6F
  8
0
  0
BLOCK
  8
0
  2
*D40
 70
     1
 10
0.0
 20
0.0
 30
0.0
  3
*D40
  1

  0
LINE
  5
2B9B
  8
DIM
 10
24935.268442316461
 20
-5437.1755230009949
 30
0.0
 11
24745.341675629272
 21
-5437.1755230009949
 31
0.0
  0
LINE
  5
2B9C
  8
DIM
 10
24935.268442316461
 20
-6687.1755230009949
 30
0.0
 11
24745.341675629272
 21
-6687.1755230009949
 31
0.0
  0
LINE
  5
2B9D
  8
DIM
 10
24820.341675629272
 20
-5637.1755230009949
 30
0.0
 11
24820.341675629272
 21
-6487.1755230009949
 31
0.0
  0
INSERT
  5
2B9E
  8
DIM
  2
_FILLED
 10
24820.341675629272
 20
-5437.1755230009949
 30
0.0
 41
200.0
 42
200.0
 43
200.0
 50
90.0
  0
INSERT
  5
2B9F
  8
DIM
  2
_FILLED
 10
24820.341675629272
 20
-6687.1755230009949
 30
0.0
 41
200.0
 42
200.0
 43
200.0
 50
270.0
  0
INSERT
  5
2BA0
  8
0
  2
*U85
 10
0.0
 20
0.0
 30
0.0
  0
POINT
  5
2BA1
  8
DEFPOINTS
 62
     0
 10
24985.268442316461
 20
-5437.1755230009949
 30
0.0
  0
POINT
  5
2BA2
  8
DEFPOINTS
 62
     0
 10
24985.268442316461
 20
-6687.1755230009949
 30
0.0
  0
POINT
  5
2BA3
  8
DEFPOINTS
 62
     0
 10
24820.341675629272
 20
-6687.1755230009949
 30
0.0
  0
ENDBLK
  5
2B90
  8
0
  0
BLOCK
  8
0
  2
*U41
 70
     1
 10
0.0
 20
0.0
 30
0.0
  3
*U41
  1

  0
TEXT
  5
2CD7
  8
DIM
 10
1093.956878734738
 20
4615.2547296378316
 30
0.0
 40
120.0
  1
CFM deel 1: 1x snijden uit 450 g/m2 "M8610" of "Unifilo 816"
 41
0.8
  0
ENDBLK
  5
2CD9
  8
0
  0
BLOCK
  8
0
  2
*U42
 70
     1
 10
0.0
 20
0.0
 30
0.0
  3
*U42
  1

  0
TEXT
  5
2CDB
  8
DIM
 10
3969.3101028046858
 20
67.344960145273944
 30
0.0
 40
175.0
  1
2510
 41
0.8
  0
ENDBLK
  5
2CDD
  8
0
  0
BLOCK
  8
0
  2
*U43
 70
     1
 10
0.0
 20
0.0
 30
0.0
  3
*U43
  1

  0
TEXT
  5
2CDF
  8
DIM
 10
5366.5454859199654
 20
115.98377819723029
 30
0.0
 40
175.0
  1
85.73
 50
184.26501912559121
 41
0.8
  0
ENDBLK
  5
2CE1
  8
0
  0
BLOCK
  8
0
  2
*U44
 70
     1
 10
0.0
 20
0.0
 30
0.0
  3
*U44
  1

  0
TEXT
  5
2CE3
  8
UITSLAG
 10
5620.5131728042506
 20
1286.6050731950011
 30
0.0
 40
175.0
  1
720
 50
90.0
 41
0.8
  0
ENDBLK
  5
2CE5
  8
0
  0
BLOCK
  8
0
  2
*U45
 70
     1
 10
0.0
 20
0.0
 30
0.0
  3
*U45
  1

  0
TEXT
  5
2CE7
  8
UITSLAG
 10
4247.9706120807787
 20
1274.9373734833839
 30
0.0
 40
175.0
  1
736
 50
90.0
 41
0.8
  0
ENDBLK
  5
2CE9
  8
0
  0
BLOCK
  8
0
  2
*U46
 70
     1
 10
0.0
 20
0.0
 30
0.0
  3
*U46
  1

  0
TEXT
  5
2CEB
  8
UITSLAG
 10
4082.7349735643038
 20
638.27070605866743
 30
0.0
 40
175.0
  1
368
 50
90.0
 41
0.8
  0
ENDBLK
  5
2CED
  8
0
  0
BLOCK
  8
0
  2
*U47
 70
     1
 10
0.0
 20
0.0
 30
0.0
  3
*U47
  1

  0
TEXT
  5
2CEF
  8
UITSLAG
 10
4081.2349735643038
 20
270.43146428523778
 30
0.0
 40
175.0
  1
368
 50
90.0
 41
0.8
  0
ENDBLK
  5
2CF1
  8
0
  0
BLOCK
  8
0
  2
*U48
 70
     1
 10
0.0
 20
0.0
 30
0.0
  3
*U48
  1

  0
TEXT
  5
2CF3
  8
UITSLAG
 10
3862.4072171398288
 20
1273.0611811126189
 30
0.0
 40
175.0
  1
732
 50
90.0
 41
0.8
  0
ENDBLK
  5
2CF5
  8
0
  0
BLOCK
  8
0
  2
*U49
 70
     1
 10
0.0
 20
0.0
 30
0.0
  3
*U49
  1

  0
TEXT
  5
2CF7
  8
UITSLAG
 10
2803.959434765216
 20
293.4579455523338
 30
0.0
 40
175.0
  1
391
 50
90.0
 41
0.8
  0
ENDBLK
  5
2CF9
  8
0
  0
BLOCK
  8
0
  2
*U50
 70
     1
 10
0.0
 20
0.0
 30
0.0
  3
*U50
  1

  0
TEXT
  5
2CFB
  8
UITSLAG
 10
2699.2411707745769
 20
2043.9082770383011
 30
0.0
 40
175.0
  1
158
 50
90.0
 41
0.8
  0
ENDBLK
  5
2CFD
  8
0
  0
BLOCK
  8
0
  2
*U51
 70
     1
 10
0.0
 20
0.0
 30
0.0
  3
*U51
  1

  0
TEXT
  5
2CFF
  8
UITSLAG
 10
2549.8781036833529
 20
2534.9967141563752
 30
0.0
 40
175.0
  1
71
 50
90.0
 41
0.8
  0
ENDBLK
  5
2D01
  8
0
  0
BLOCK
  8
0
  2
*X52
 70
     1
 10
0.0
 20
0.0
 30
0.0
  3
*X52
  1

  0
LINE
  5
2D03
  8
0
 62
     0
 10
5763.0607760115472
 20
3083.0522941658869
 30
0.0
 11
5786.4466827749129
 21
3106.4382009292531
 31
0.0
  0
LINE
  5
2D04
  8
0
 62
     0
 10
5696.205955262436
 20
3083.5493943247948
 30
0.0
 11
5787.7851780391438
 21
3175.128617101504
 31
0.0
  0
LINE
  5
2D05
  8
0
 62
     0
 10
5629.3511345133238
 20
3084.0464944837031
 30
0.0
 11
5789.1236733033802
 21
3243.8190332737558
 31
0.0
  0
LINE
  5
2D06
  8
0
 62
     0
 10
5562.4963137642153
 20
3084.5435946426101
 30
0.0
 11
5790.4621685676138
 21
3312.50944944601
 31
0.0
  0
LINE
  5
2D07
  8
0
 62
     0
 10
5495.6414930151041
 20
3085.040694801517
 30
0.0
 11
5791.8006638318466
 21
3381.1998656182618
 31
0.0
  0
LINE
  5
2D08
  8
0
 62
     0
 10
5428.7866722659919
 20
3085.5377949604272
 30
0.0
 11
5789.5946919448306
 21
3446.3458146392641
 31
0.0
  0
LINE
  5
2D09
  8
0
 62
     0
 10
5361.9318515168816
 20
3086.0348951193341
 30
0.0
 11
5786.0828146338372
 21
3510.185858236287
 31
0.0
  0
LINE
  5
2D0A
  8
0
 62
     0
 10
5295.0770307677712
 20
3086.5319952782411
 30
0.0
 11
5782.5709373228401
 21
3574.0259018333109
 31
0.0
  0
LINE
  5
2D0B
  8
0
 62
     0
 10
5228.2222100186591
 20
3087.029095437149
 30
0.0
 11
5779.0590600118476
 21
3637.8659454303379
 31
0.0
  0
LINE
  5
2D0C
  8
0
 62
     0
 10
5161.3673892695479
 20
3087.5261955960559
 30
0.0
 11
5775.5471827008496
 21
3701.7059890273558
 31
0.0
  0
LINE
  5
2D0D
  8
0
 62
     0
 10
5094.5125685204357
 20
3088.0232957549629
 30
0.0
 11
5772.035305389858
 21
3765.5460326243829
 31
0.0
  0
LINE
  5
2D0E
  8
0
 62
     0
 10
5027.6577477713254
 20
3088.5203959138712
 30
0.0
 11
5768.5234280788609
 21
3829.3860762214072
 31
0.0
  0
LINE
  5
2D0F
  8
0
 62
     0
 10
4960.802927022216
 20
3089.0174960727782
 30
0.0
 11
5765.0115507678684
 21
3893.2261198184301
 31
0.0
  0
LINE
  5
2D10
  8
0
 62
     0
 10
4893.9481062731038
 20
3089.514596231686
 30
0.0
 11
5761.4996734568722
 21
3957.0661634154549
 31
0.0
  0
LINE
  5
2D11
  8
0
 62
     0
 10
4827.0932855239889
 20
3090.0116963905912
 30
0.0
 11
5757.9877961458751
 21
4020.906207012476
 31
0.0
  0
LINE
  5
2D12
  8
0
 62
     0
 10
4760.2384647748804
 20
3090.508796549499
 30
0.0
 11
5754.4759188348817
 21
4084.7462506095021
 31
0.0
  0
LINE
  5
2D13
  8
0
 62
     0
 10
4693.3836440257692
 20
3091.005896708406
 30
0.0
 11
5748.9715532934833
 21
4146.5938059761193
 31
0.0
  0
LINE
  5
2D14
  8
0
 62
     0
 10
4626.528823276657
 20
3091.5029968673148
 30
0.0
 11
5741.2167303800088
 21
4206.1909039706634
 31
0.0
  0
LINE
  5
2D15
  8
0
 62
     0
 10
4559.6740025275458
 20
3092.0000970262231
 30
0.0
 11
5733.4619074665352
 21
4265.7880019652093
 31
0.0
  0
LINE
  5
2D16
  8
0
 62
     0
 10
4491.8632071063967
 20
3091.5412225130922
 30
0.0
 11
5725.7070845530616
 21
4325.3850999597544
 31
0.0
  0
LINE
  5
2D17
  8
0
 62
     0
 10
4424.0156221163434
 20
3091.0455584310571
 30
0.0
 11
5717.9522616395898
 21
4384.982197954303
 31
0.0
  0
LINE
  5
2D18
  8
0
 62
     0
 10
4356.1680371262873
 20
3090.5498943490188
 30
0.0
 11
5696.6433130822579
 21
4431.0251703049898
 31
0.0
  0
LINE
  5
2D19
  8
0
 62
     0
 10
4288.3204521362286
 20
3090.0542302669801
 30
0.0
 11
5620.1348001392471
 21
4421.8685782699977
 31
0.0
  0
LINE
  5
2D1A
  8
0
 62
     0
 10
4220.4728671461771
 20
3089.5585661849459
 30
0.0
 11
5543.6262871962299
 21
4412.7119862349991
 31
0.0
  0
LINE
  5
2D1B
  8
0
 62
     0
 10
4152.6252821561193
 20
3089.0629021029081
 30
0.0
 11
5467.1177742532136
 21
4403.5553942000033
 31
0.0
  0
LINE
  5
2D1C
  8
0
 62
     0
 10
4084.7776971660642
 20
3088.5672380208712
 30
0.0
 11
5390.609261310201
 21
4394.3988021650057
 31
0.0
  0
LINE
  5
2D1D
  8
0
 62
     0
 10
4016.9301121760068
 20
3088.0715739388329
 30
0.0
 11
5314.1007483671892
 21
4385.2422101300117
 31
0.0
  0
LINE
  5
2D1E
  8
0
 62
     0
 10
3949.0825271859539
 20
3087.5759098567978
 30
0.0
 11
5237.5922354241757
 21
4376.0856180950204
 31
0.0
  0
LINE
  5
2D1F
  8
0
 62
     0
 10
3881.2349421958952
 20
3087.0802457747582
 30
0.0
 11
5161.0837224811621
 21
4366.9290260600246
 31
0.0
  0
LINE
  5
2D20
  8
0
 62
     0
 10
3813.3873572058401
 20
3086.5845816927208
 30
0.0
 11
5084.5752095381467
 21
4357.7724340250279
 31
0.0
  0
LINE
  5
2D21
  8
0
 62
     0
 10
3745.539772215785
 20
3086.0889176106848
 30
0.0
 11
5008.0666965951332
 21
4348.6158419900312
 31
0.0
  0
LINE
  5
2D22
  8
0
 62
     0
 10
3677.6921872257299
 20
3085.5932535286479
 30
0.0
 11
4931.5581836521178
 21
4339.4592499550363
 31
0.0
  0
LINE
  5
2D23
  8
0
 62
     0
 10
3609.8446022356752
 20
3085.0975894466119
 30
0.0
 11
4855.0496707091042
 21
4330.3026579200387
 31
0.0
  0
LINE
  5
2D24
  8
0
 62
     0
 10
3896.5937985583751
 20
3439.1987066773308
 30
0.0
 11
4778.5411577660907
 21
4321.1460658850456
 31
0.0
  0
LINE
  5
2D25
  8
0
 62
     0
 10
3541.9970172456178
 20
3084.6019253645741
 30
0.0
 11
3762.9896178191689
 21
3305.5945259381242
 31
0.0
  0
LINE
  5
2D26
  8
0
 62
     0
 10
3893.142229215101
 20
3503.099058242075
 30
0.0
 11
4702.0326448230762
 21
4311.9894738500516
 31
0.0
  0
LINE
  5
2D27
  8
0
 62
     0
 10
3474.1494322555609
 20
3084.1062612825349
 30
0.0
 11
3691.7169464980288
 21
3301.6737755250028
 31
0.0
  0
LINE
  5
2D28
  8
0
 62
     0
 10
3889.6303519108369
 20
3566.9391018458291
 30
0.0
 11
4625.5241318800608
 21
4302.8328818150549
 31
0.0
  0
LINE
  5
2D29
  8
0
 62
     0
 10
3406.3018472655058
 20
3083.6105972004971
 30
0.0
 11
3620.444275176887
 21
3297.753025111881
 31
0.0
  0
LINE
  5
2D2A
  8
0
 62
     0
 10
3886.1184746065678
 20
3630.77914544958
 30
0.0
 11
4549.01561893705
 21
4293.6762897800609
 31
0.0
  0
LINE
  5
2D2B
  8
0
 62
     0
 10
3338.4542622754511
 20
3083.1149331184629
 30
0.0
 11
3549.1716038557479
 21
3293.8322746987601
 31
0.0
  0
LINE
  5
2D2C
  8
0
 62
     0
 10
3882.606597302301
 20
3694.6191890533319
 30
0.0
 11
4228.8884588372002
 21
4040.9010505882311
 31
0.0
  0
LINE
  5
2D2D
  8
0
 62
     0
 10
3304.7526264265412
 20
3116.765218177572
 30
0.0
 11
3487.123157644955
 21
3299.1357493959858
 31
0.0
  0
LINE
  5
2D2E
  8
0
 62
     0
 10
4290.1681323933262
 20
4102.1807241443539
 30
0.0
 11
4472.5071059940356
 21
4284.5196977450641
 31
0.0
  0
LINE
  5
2D2F
  8
0
 62
     0
 10
3270.9593900808868
 20
3082.9719818319181
 30
0.0
 11
3283.2565215632412
 21
3095.2691133142712
 31
0.0
  0
LINE
  5
2D30
  8
0
 62
     0
 10
3879.094719998036
 20
3758.459232657086
 30
0.0
 11
4154.4001723981964
 21
4033.7646850572442
 31
0.0
  0
LINE
  5
2D31
  8
0
 62
     0
 10
3301.2407491155432
 20
3180.6052617745918
 30
0.0
 11
3443.7305551913751
 21
3323.0950678504241
 31
0.0
  0
LINE
  5
2D32
  8
0
 62
     0
 10
4286.7811692048363
 20
4166.1456818638826
 30
0.0
 11
4395.9985930510211
 21
4275.3631057100702
 31
0.0
  0
LINE
  5
2D33
  8
0
 62
     0
 10
3204.104569331776
 20
3083.4690819908251
 30
0.0
 11
3284.5950168274758
 21
3163.9595294865248
 31
0.0
  0
LINE
  5
2D34
  8
0
 62
     0
 10
3875.5828426937728
 20
3822.2992762608392
 30
0.0
 11
4093.1856286338921
 21
4039.9020622009571
 31
0.0
  0
LINE
  5
2D35
  8
0
 62
     0
 10
3297.7288718045402
 20
3244.4453053716079
 30
0.0
 11
3413.2839232657848
 21
3360.000356832852
 31
0.0
  0
LINE
  5
2D36
  8
0
 62
     0
 10
4283.3942060163481
 20
4230.1106395834158
 30
0.0
 11
4319.4900801080057
 21
4266.2065136750734
 31
0.0
  0
LINE
  5
2D37
  8
0
 62
     0
 10
3137.2497485826648
 20
3083.966182149732
 30
0.0
 11
3285.933512091709
 21
3232.6499456587771
 31
0.0
  0
LINE
  5
2D38
  8
0
 62
     0
 10
3294.216994493539
 20
3308.2853489686258
 30
0.0
 11
3397.5406837347132
 21
3411.6090382097968
 31
0.0
  0
LINE
  5
2D39
  8
0
 62
     0
 10
3870.920220204931
 20
3884.9885746800178
 30
0.0
 11
4089.7986654454012
 21
4103.8670199204862
 31
0.0
  0
LINE
  5
2D3A
  8
0
 62
     0
 10
3070.3949278335549
 20
3084.4632823086399
 30
0.0
 11
3287.2720073559449
 21
3301.340361831029
 31
0.0
  0
LINE
  5
2D3B
  8
0
 62
     0
 10
3851.257322983347
 20
3932.6775983664511
 30
0.0
 11
4086.411702256913
 21
4167.8319776400194
 31
0.0
  0
LINE
  5
2D3C
  8
0
 62
     0
 10
3290.705117182541
 20
3372.1253925656438
 30
0.0
 11
3393.9643871438329
 21
3475.384662526938
 31
0.0
  0
LINE
  5
2D3D
  8
0
 62
     0
 10
4180.0982849750872
 20
4261.5185603581922
 30
0.0
 11
4181.0724999883532
 21
4262.4927753714583
 31
0.0
  0
LINE
  5
2D3E
  8
0
 62
     0
 10
3003.5401070844441
 20
3084.9603824675469
 30
0.0
 11
3288.610502620179
 21
3370.030778003284
 31
0.0
  0
LINE
  5
2D3F
  8
0
 62
     0
 10
3817.9437922065431
 20
3966.7159884976659
 30
0.0
 11
4083.0247390684231
 21
4231.7969353595472
 31
0.0
  0
LINE
  5
2D40
  8
0
 62
     0
 10
3287.1932398715398
 20
3435.965436162664
 30
0.0
 11
3390.4525098395679
 21
3539.2247061306921
 31
0.0
  0
LINE
  5
2D41
  8
0
 62
     0
 10
4108.980665341729
 20
4257.7528616328527
 30
0.0
 11
4145.2010439176101
 21
4293.9732402087338
 31
0.0
  0
LINE
  5
2D42
  8
0
 62
     0
 10
2936.6852863353288
 20
3085.457482626452
 30
0.0
 11
3287.193239871538
 21
3435.9654361626622
 31
0.0
  0
LINE
  5
2D43
  8
0
 62
     0
 10
3283.6813625605391
 20
3499.8054797596801
 30
0.0
 11
3386.9406325353011
 21
3603.064749734443
 31
0.0
  0
LINE
  5
2D44
  8
0
 62
     0
 10
3771.1712743616249
 20
3987.2953915607668
 30
0.0
 11
4073.9283725964701
 21
4290.0524897956129
 31
0.0
  0
LINE
  5
2D45
  8
0
 62
     0
 10
2869.830465586218
 20
3085.9545827853599
 30
0.0
 11
3283.6813625605391
 21
3499.8054797596801
 31
0.0
  0
LINE
  5
2D46
  8
0
 62
     0
 10
3280.169485249537
 20
3563.645523356698
 30
0.0
 11
3383.4287552310338
 21
3666.9047933381962
 31
0.0
  0
LINE
  5
2D47
  8
0
 62
     0
 10
3704.962035219296
 20
3988.4380733264552
 30
0.0
 11
4002.6557012753301
 21
4286.131739382492
 31
0.0
  0
LINE
  5
2D48
  8
0
 62
     0
 10
2802.9756448371081
 20
3086.4516829442682
 30
0.0
 11
3280.169485249537
 21
3563.645523356698
 31
0.0
  0
LINE
  5
2D49
  8
0
 62
     0
 10
3276.6576079385381
 20
3627.4855669537178
 30
0.0
 11
3379.9168779267702
 21
3730.744836941949
 31
0.0
  0
LINE
  5
2D4A
  8
0
 62
     0
 10
3633.6893638981528
 20
3984.517322913332
 30
0.0
 11
3931.3830299541878
 21
4282.2109889693666
 31
0.0
  0
LINE
  5
2D4B
  8
0
 62
     0
 10
2736.1208240879969
 20
3086.9487831031761
 30
0.0
 11
3276.6576079385341
 21
3627.4855669537142
 31
0.0
  0
LINE
  5
2D4C
  8
0
 62
     0
 10
3273.1457306275388
 20
3691.3256105507348
 30
0.0
 11
3376.4050006224988
 21
3794.5848805456981
 31
0.0
  0
LINE
  5
2D4D
  8
0
 62
     0
 10
3562.4166925770128
 20
3980.596572500212
 30
0.0
 11
3860.1103586330478
 21
4278.2902385562456
 31
0.0
  0
LINE
  5
2D4E
  8
0
 62
     0
 10
2669.266003338882
 20
3087.4458832620812
 30
0.0
 11
3273.1457306275352
 21
3691.3256105507339
 31
0.0
  0
LINE
  5
2D4F
  8
0
 62
     0
 10
3269.6338533165358
 20
3755.1656541477541
 30
0.0
 11
3374.3501113118159
 21
3859.8819121430329
 31
0.0
  0
LINE
  5
2D50
  8
0
 62
     0
 10
3491.012120662223
 20
3976.5439214934399
 30
0.0
 11
3788.8376873119068
 21
4274.3694881431238
 31
0.0
  0
LINE
  5
2D51
  8
0
 62
     0
 10
2602.4111825897712
 20
3087.9429834209882
 30
0.0
 11
3269.633853316534
 21
3755.16565414775
 31
0.0
  0
LINE
  5
2D52
  8
0
 62
     0
 10
3266.1219760055351
 20
3819.0056977447698
 30
0.0
 11
3717.5650159907691
 21
4270.4487377300029
 31
0.0
  0
LINE
  5
2D53
  8
0
 62
     0
 10
2535.5563618406632
 20
3088.4400835798951
 30
0.0
 11
3266.1219760055351
 21
3819.0056977447698
 31
0.0
  0
LINE
  5
2D54
  8
0
 62
     0
 10
3262.6100986945371
 20
3882.8457413417891
 30
0.0
 11
3646.2923446696259
 21
4266.5279873168784
 31
0.0
  0
LINE
  5
2D55
  8
0
 62
     0
 10
2468.7015410915519
 20
3088.9371837388048
 30
0.0
 11
3262.6100986945348
 21
3882.8457413417868
 31
0.0
  0
LINE
  5
2D56
  8
0
 62
     0
 10
3259.0982213835359
 20
3946.6857849388061
 30
0.0
 11
3575.019673348485
 21
4262.6072369037556
 31
0.0
  0
LINE
  5
2D57
  8
0
 62
     0
 10
2401.8467203424411
 20
3089.4342838977118
 30
0.0
 11
3259.0982213835359
 21
3946.6857849388061
 31
0.0
  0
LINE
  5
2D58
  8
0
 62
     0
 10
3255.5863440725329
 20
4010.5258285358232
 30
0.0
 11
3503.7470020273458
 21
4258.6864864906338
 31
0.0
  0
LINE
  5
2D59
  8
0
 62
     0
 10
2334.9918995933299
 20
3089.9313840566192
 30
0.0
 11
3255.5863440725329
 21
4010.5258285358232
 31
0.0
  0
LINE
  5
2D5A
  8
0
 62
     0
 10
3252.0744667615349
 20
4074.3658721328402
 30
0.0
 11
3432.4743307062058
 21
4254.7657360775138
 31
0.0
  0
LINE
  5
2D5B
  8
0
 62
     0
 10
2268.1370788442191
 20
3090.4284842155271
 30
0.0
 11
3252.0744667615349
 21
4074.3658721328402
 31
0.0
  0
LINE
  5
2D5C
  8
0
 62
     0
 10
3248.562589450532
 20
4138.205915729859
 30
0.0
 11
3361.2016593850622
 21
4250.8449856643892
 31
0.0
  0
LINE
  5
2D5D
  8
0
 62
     0
 10
2201.2822580951051
 20
3090.9255843744322
 30
0.0
 11
3247.2600379041041
 21
4136.9033641834312
 31
0.0
  0
LINE
  5
2D5E
  8
0
 62
     0
 10
3245.0507121395299
 20
4202.0459593268752
 30
0.0
 11
3289.9289880639212
 21
4246.9242352512656
 31
0.0
  0
LINE
  5
2D5F
  8
0
 62
     0
 10
2134.4274373459939
 20
3091.4226845333401
 30
0.0
 11
3239.5052149906301
 21
4196.5004621779754
 31
0.0
  0
LINE
  5
2D60
  8
0
 62
     0
 10
2067.5726165968831
 20
3091.919784692247
 30
0.0
 11
3231.7503920771578
 21
4256.0975601725231
 31
0.0
  0
LINE
  5
2D61
  8
0
 62
     0
 10
1999.923252533212
 20
3091.6223415365948
 30
0.0
 11
3223.9955691636878
 21
4315.6946581670682
 31
0.0
  0
LINE
  5
2D62
  8
0
 62
     0
 10
1932.0756675431551
 20
3091.126677454557
 30
0.0
 11
3216.2407462502129
 21
4375.2917561616141
 31
0.0
  0
LINE
  5
2D63
  8
0
 62
     0
 10
1864.2280825531
 20
3090.6310133725201
 30
0.0
 11
3206.1170655180031
 21
4432.5199963374243
 31
0.0
  0
LINE
  5
2D64
  8
0
 62
     0
 10
1796.3804975630439
 20
3090.1353492904841
 30
0.0
 11
3129.7640956683699
 21
4423.518947395808
 31
0.0
  0
LINE
  5
2D65
  8
0
 62
     0
 10
1728.5329125729891
 20
3089.6396852084472
 30
0.0
 11
3053.4111258187349
 21
4414.5178984541908
 31
0.0
  0
LINE
  5
2D66
  8
0
 62
     0
 10
1660.685327582934
 20
3089.1440211264112
 30
0.0
 11
2977.0581559691018
 21
4405.5168495125763
 31
0.0
  0
LINE
  5
2D67
  8
0
 62
     0
 10
1592.8377425928791
 20
3088.6483570443752
 30
0.0
 11
2900.7051861194682
 21
4396.5158005709618
 31
0.0
  0
LINE
  5
2D68
  8
0
 62
     0
 10
1524.9901576028219
 20
3088.152692962336
 30
0.0
 11
2824.3522162698318
 21
4387.5147516293446
 31
0.0
  0
LINE
  5
2D69
  8
0
 62
     0
 10
1457.142572612765
 20
3087.6570288802982
 30
0.0
 11
2747.9992464201991
 21
4378.5137026877301
 31
0.0
  0
LINE
  5
2D6A
  8
0
 62
     0
 10
1389.2949876227101
 20
3087.1613647982608
 30
0.0
 11
2671.6462765705642
 21
4369.5126537461119
 31
0.0
  0
LINE
  5
2D6B
  8
0
 62
     0
 10
1321.447402632655
 20
3086.6657007162248
 30
0.0
 11
2595.293306720931
 21
4360.5116048044983
 31
0.0
  0
LINE
  5
2D6C
  8
0
 62
     0
 10
1253.5998176426019
 20
3086.1700366341902
 30
0.0
 11
2518.9403368712979
 21
4351.5105558628829
 31
0.0
  0
LINE
  5
2D6D
  8
0
 62
     0
 10
1185.752232652545
 20
3085.6743725521519
 30
0.0
 11
2442.5873670216611
 21
4342.5095069212666
 31
0.0
  0
LINE
  5
2D6E
  8
0
 62
     0
 10
1117.9046476624901
 20
3085.178708470115
 30
0.0
 11
2366.2343971720261
 21
4333.5084579796512
 31
0.0
  0
LINE
  5
2D6F
  8
0
 62
     0
 10
1392.548505313478
 20
3427.1744870291218
 30
0.0
 11
2289.8814273223929
 21
4324.5074090380358
 31
0.0
  0
LINE
  5
2D70
  8
0
 62
     0
 10
1050.0570626724329
 20
3084.6830443880772
 30
0.0
 11
1271.6185640255901
 21
3306.244545741235
 31
0.0
  0
LINE
  5
2D71
  8
0
 62
     0
 10
1389.97551115649
 20
3491.9534137801529
 30
0.0
 11
2213.5284574727589
 21
4315.5063600964222
 31
0.0
  0
LINE
  5
2D72
  8
0
 62
     0
 10
982.20947768237602
 20
3084.1873803060389
 30
0.0
 11
1200.333938189729
 21
3302.3118408133928
 31
0.0
  0
LINE
  5
2D73
  8
0
 62
     0
 10
1386.463633852223
 20
3555.7934573839052
 30
0.0
 11
2137.175487623123
 21
4306.5053111548032
 31
0.0
  0
LINE
  5
2D74
  8
0
 62
     0
 10
914.36189269232273
 20
3083.6917162240038
 30
0.0
 11
1129.0612668685901
 21
3298.391090400271
 31
0.0
  0
LINE
  5
2D75
  8
0
 62
     0
 10
1382.951756547958
 20
3619.6335009876589
 30
0.0
 11
2060.8225177734889
 21
4297.5042622131887
 31
0.0
  0
LINE
  5
2D76
  8
0
 62
     0
 10
846.51430770226955
 20
3083.1960521419701
 30
0.0
 11
1057.7885955474469
 21
3294.4703399871469
 31
0.0
  0
LINE
  5
2D77
  8
0
 62
     0
 10
1379.4398792436909
 20
3683.4735445914112
 30
0.0
 11
1984.4145624803491
 21
4288.4482278280693
 31
0.0
  0
LINE
  5
2D78
  8
0
 62
     0
 10
802.35117435323809
 20
3106.3848397009569
 30
0.0
 11
992.46994962964698
 21
3296.5036149773659
 31
0.0
  0
LINE
  5
2D79
  8
0
 62
     0
 10
1375.928001939423
 20
3747.3135881951612
 30
0.0
 11
1906.9878094259909
 21
4278.3733956817277
 31
0.0
  0
LINE
  5
2D7A
  8
0
 62
     0
 10
798.83929704220463
 20
3170.2248832979421
 30
0.0
 11
946.52354473076957
 21
3317.9091309865071
 31
0.0
  0
LINE
  5
2D7B
  8
0
 62
     0
 10
1372.4161246351589
 20
3811.1536317989162
 30
0.0
 11
1829.5610563716341
 21
4268.2985635353907
 31
0.0
  0
LINE
  5
2D7C
  8
0
 62
     0
 10
795.32741973116924
 20
3234.064926894926
 30
0.0
 11
913.88205967812064
 21
3352.619566841875
 31
0.0
  0
LINE
  5
2D7D
  8
0
 62
     0
 10
1368.6992166643081
 20
3874.7886447360838
 30
0.0
 11
1752.13430331728
 21
4258.2237313890528
 31
0.0
  0
LINE
  5
2D7E
  8
0
 62
     0
 10
791.81554242017035
 20
3297.9049704919448
 30
0.0
 11
895.09393851076481
 21
3401.1833665825402
 31
0.0
  0
LINE
  5
2D7F
  8
0
 62
     0
 10
1351.9805989873951
 20
3925.4219479671879
 30
0.0
 11
1678.6710479150611
 21
4252.1123968948541
 31
0.0
  0
LINE
  5
2D80
  8
0
 62
     0
 10
788.30366510917338
 20
3361.7450140889669
 30
0.0
 11
890.79766908521754
 21
3464.2390180650109
 31
0.0
  0
LINE
  5
2D81
  8
0
 62
     0
 10
1320.854678006895
 20
3961.6479478947081
 30
0.0
 11
1653.8180356093069
 21
4294.6113054971192
 31
0.0
  0
LINE
  5
2D82
  8
0
 62
     0
 10
784.79178779817994
 20
3425.5850576859921
 30
0.0
 11
887.28579178094878
 21
3528.0790616687609
 31
0.0
  0
LINE
  5
2D83
  8
0
 62
     0
 10
1276.6940421908109
 20
3984.8392329866419
 30
0.0
 11
1582.5453642881671
 21
4290.6905550839983
 31
0.0
  0
LINE
  5
2D84
  8
0
 62
     0
 10
781.27991048718275
 20
3489.4251012830141
 30
0.0
 11
883.77391447668549
 21
3591.9191052725168
 31
0.0
  0
LINE
  5
2D85
  8
0
 62
     0
 10
1213.579026910995
 20
3989.0761386148438
 30
0.0
 11
1511.2726929670241
 21
4286.7698046708738
 31
0.0
  0
LINE
  5
2D86
  8
0
 62
     0
 10
777.76803317618578
 20
3553.2651448800352
 30
0.0
 11
880.26203717242061
 21
3655.759148876271
 31
0.0
  0
LINE
  5
2D87
  8
0
 62
     0
 10
1142.306355589853
 20
3985.1553882017201
 30
0.0
 11
1440.000021645885
 21
4282.849054257752
 31
0.0
  0
LINE
  5
2D88
  8
0
 62
     0
 10
774.25615586519234
 20
3617.1051884770609
 30
0.0
 11
876.75015986815367
 21
3719.5991924800219
 31
0.0
  0
LINE
  5
2D89
  8
0
 62
     0
 10
1071.03368426871
 20
3981.2346377885979
 30
0.0
 11
1368.7273503247429
 21
4278.9283038446292
 31
0.0
  0
LINE
  5
2D8A
  8
0
 62
     0
 10
770.74427855419515
 20
3680.945232074082
 30
0.0
 11
873.23828256388504
 21
3783.4392360837719
 31
0.0
  0
LINE
  5
2D8B
  8
0
 62
     0
 10
999.76101294757063
 20
3977.313887375476
 30
0.0
 11
1297.454679003604
 21
4275.0075534315092
 31
0.0
  0
LINE
  5
2D8C
  8
0
 62
     0
 10
767.23240124319818
 20
3744.785275671104
 30
0.0
 11
869.93919013439881
 21
3847.4920645623051
 31
0.0
  0
LINE
  5
2D8D
  8
0
 62
     0
 10
763.72052393220474
 20
3808.6253192681288
 30
0.0
 11
1226.1820076824599
 21
4271.0868030183838
 31
0.0
  0
LINE
  5
2D8E
  8
0
 62
     0
 10
760.20864662120755
 20
3872.4653628651499
 30
0.0
 11
1154.909336361321
 21
4267.1660526052638
 31
0.0
  0
LINE
  5
2D8F
  8
0
 62
     0
 10
756.69676931021058
 20
3936.305406462172
 30
0.0
 11
1083.636665040179
 21
4263.245302192141
 31
0.0
  0
LINE
  5
2D90
  8
0
 62
     0
 10
753.18489199921714
 20
4000.1454500591972
 30
0.0
 11
1012.363993719038
 21
4259.3245517790156
 31
0.0
  0
LINE
  5
2D91
  8
0
 62
     0
 10
749.6730146882237
 20
4063.9854936562219
 30
0.0
 11
941.09132239789687
 21
4255.4038013658947
 31
0.0
  0
LINE
  5
2D92
  8
0
 62
     0
 10
746.16113737722287
 20
4127.8255372532403
 30
0.0
 11
869.81865107675731
 21
4251.4830509527737
 31
0.0
  0
LINE
  5
2D93
  8
0
 62
     0
 10
742.64926006622954
 20
4191.6655808502646
 30
0.0
 11
798.54597975561592
 21
4247.5623005396519
 31
0.0
  0
ENDBLK
  5
2D95
  8
0
  0
BLOCK
  8
0
  2
*X53
 70
     1
 10
0.0
 20
0.0
 30
0.0
  3
*X53
  1

  0
LINE
  5
2D97
  8
0
 62
     0
 10
3757.6774409310469
 20
3502.3381117740591
 30
0.0
 11
3770.6451387841648
 21
3515.3058096271739
 31
0.0
  0
LINE
  5
2D98
  8
0
 62
     0
 10
3679.0633393002349
 20
3491.0759310512658
 30
0.0
 11
3762.2054316063682
 21
3574.2180233573981
 31
0.0
  0
LINE
  5
2D99
  8
0
 62
     0
 10
3600.449237669422
 20
3479.8137503284711
 30
0.0
 11
3756.2518460136198
 21
3635.6163586726689
 31
0.0
  0
LINE
  5
2D9A
  8
0
 62
     0
 10
3557.0948170144461
 20
3503.8112505815129
 30
0.0
 11
3752.7399687026191
 21
3699.4564022696868
 31
0.0
  0
LINE
  5
2D9B
  8
0
 62
     0
 10
3548.6551098366472
 20
3562.723464311734
 30
0.0
 11
3749.2280913916252
 21
3763.296445866712
 31
0.0
  0
LINE
  5
2D9C
  8
0
 62
     0
 10
3488.683386698413
 20
3570.103662081518
 30
0.0
 11
3745.716214080629
 21
3827.1364894637341
 31
0.0
  0
LINE
  5
2D9D
  8
0
 62
     0
 10
3445.878374710659
 20
3594.6505710017832
 30
0.0
 11
3690.271916773203
 21
3839.0441130643248
 31
0.0
  0
LINE
  5
2D9E
  8
0
 62
     0
 10
3442.4914115221691
 20
3658.6155287213119
 30
0.0
 11
3614.784268133943
 21
3830.9083853330849
 31
0.0
  0
LINE
  5
2D9F
  8
0
 62
     0
 10
3439.1044483336832
 20
3722.5804864408442
 30
0.0
 11
3514.381499275305
 21
3797.857537382466
 31
0.0
  0
LINE
  5
2DA0
  8
0
 62
     0
 10
3435.7174851451932
 20
3786.5454441603729
 30
0.0
 11
3443.2638796419428
 21
3794.0918386571238
 31
0.0
  0
LINE
  5
2DA1
  8
0
 62
     0
 10
1183.590438194831
 20
3554.9760244505692
 30
0.0
 11
1231.3169470966579
 21
3602.7025333523961
 31
0.0
  0
LINE
  5
2DA2
  8
0
 62
     0
 10
1104.976336564019
 20
3543.7138437277749
 30
0.0
 11
1227.8050697856629
 21
3666.5425769494182
 31
0.0
  0
LINE
  5
2DA3
  8
0
 62
     0
 10
1026.362234933207
 20
3532.451663004982
 30
0.0
 11
1224.2931924746681
 21
3730.3826205464429
 31
0.0
  0
LINE
  5
2DA4
  8
0
 62
     0
 10
1019.451089039248
 20
3592.8924380190419
 30
0.0
 11
1220.781315163669
 21
3794.2226641434631
 31
0.0
  0
LINE
  5
2DA5
  8
0
 62
     0
 10
1016.064125850758
 20
3656.8573957385711
 30
0.0
 11
1155.909565603677
 21
3796.7028354914901
 31
0.0
  0
LINE
  5
2DA6
  8
0
 62
     0
 10
1012.6771626622721
 20
3720.822353458103
 30
0.0
 11
1080.4219169644241
 21
3788.5671077602542
 31
0.0
  0
ENDBLK
  5
2DA8
  8
0
  0
BLOCK
  8
0
  2
*U54
 70
     1
 10
0.0
 20
0.0
 30
0.0
  3
*U54
  1

  0
TEXT
  5
2DAA
  8
DIM
 10
24762.449622810851
 20
9556.6397100736285
 30
0.0
 40
175.0
  1
930
 41
0.8
  0
ENDBLK
  5
2DAC
  8
0
  0
BLOCK
  8
0
  2
*U55
 70
     1
 10
0.0
 20
0.0
 30
0.0
  3
*U55
  1

  0
TEXT
  5
2DAE
  8
DIM
 10
25679.449622810851
 20
9556.6397100736285
 30
0.0
 40
175.0
  1
904
 41
0.8
  0
ENDBLK
  5
2DB0
  8
0
  0
BLOCK
  8
0
  2
*U56
 70
     1
 10
0.0
 20
0.0
 30
0.0
  3
*U56
  1

  0
TEXT
  5
2DB2
  8
DIM
 10
26614.069029045291
 20
10162.06109506869
 30
0.0
 40
175.0
  1
1200
 50
90.0
 41
0.8
  0
ENDBLK
  5
2DB4
  8
0
  0
BLOCK
  8
0
  2
*U57
 70
     1
 10
0.0
 20
0.0
 30
0.0
  3
*U57
  1

  0
TEXT
  5
2DC0
  8
DIM
 10
1805.4220085869131
 20
2819.6315222061971
 30
0.0
 40
120.0
  1
laag 6
 41
0.8
  0
LINE
  5
2DC1
  8
DIM
  6
BYBLOCK
 10
1734.6220085869129
 20
2859.6315222061971
 30
0.0
 11
1745.4220085869131
 21
2859.6315222061971
 31
0.0
  0
POLYLINE
  5
2DC2
  8
DIM
  6
BYBLOCK
 66
     1
 10
0.0
 20
0.0
 30
0.0
  0
VERTEX
  5
2DC3
  8
DIM
  6
BYBLOCK
 10
1659.8309375543199
 20
3058.4632499317809
 30
0.0
  0
VERTEX
  5
2DC4
  8
DIM
  6
BYBLOCK
 10
1734.6220085869129
 20
2859.6315222061971
 30
0.0
  0
SEQEND
  5
2DC5
  8
DIM
  6
BYBLOCK
  0
SOLID
  5
2DC6
  8
DIM
 10
1641.111457050403
 20
3051.421868699133
 30
0.0
 11
1617.5826501584379
 21
3170.7801329552822
 31
0.0
 12
1678.550418058237
 22
3065.5046311644278
 32
0.0
 13
1678.550418058237
 23
3065.5046311644278
 33
0.0
  0
POLYLINE
  5
2DC7
  8
DIM
  6
BYBLOCK
 66
     1
 10
0.0
 20
0.0
 30
0.0
  0
VERTEX
  5
2DC8
  8
DIM
  6
BYBLOCK
 10
1200.0263261948669
 20
3555.5872399691102
 30
0.0
  0
VERTEX
  5
2DC9
  8
DIM
  6
BYBLOCK
 10
1734.6220085869129
 20
2859.6315222061971
 30
0.0
  0
SEQEND
  5
2DCA
  8
DIM
  6
BYBLOCK
  0
SOLID
  5
2DCB
  8
DIM
 10
1184.165536168565
 20
3543.4038356935571
 30
0.0
 11
1126.9259005415511
 21
3650.7519801269232
 31
0.0
 12
1215.887116221169
 22
3567.7706442446629
 32
0.0
 13
1215.887116221169
 23
3567.7706442446629
 33
0.0
  0
ENDBLK
  5
2DCD
  8
0
  0
BLOCK
  8
0
  2
*U58
 70
     1
 10
0.0
 20
0.0
 30
0.0
  3
*U58
  1

  0
TEXT
  5
2DCF
  8
DIM
 10
4294.420924160363
 20
2824.8321134807702
 30
0.0
 40
120.0
  1
laag 7
 41
0.8
  0
LINE
  5
2DD0
  8
DIM
  6
BYBLOCK
 10
4223.6209241603638
 20
2864.8321134807702
 30
0.0
 11
4234.4209241603648
 21
2864.8321134807702
 31
0.0
  0
POLYLINE
  5
2DD1
  8
DIM
  6
BYBLOCK
 66
     1
 10
0.0
 20
0.0
 30
0.0
  0
VERTEX
  5
2DD2
  8
DIM
  6
BYBLOCK
 10
4148.8298531277705
 20
3063.6638412063539
 30
0.0
  0
VERTEX
  5
2DD3
  8
DIM
  6
BYBLOCK
 10
4223.6209241603638
 20
2864.8321134807702
 30
0.0
  0
SEQEND
  5
2DD4
  8
DIM
  6
BYBLOCK
  0
SOLID
  5
2DD5
  8
DIM
 10
4130.1103726238543
 20
3056.622459973707
 30
0.0
 11
4106.581565731889
 21
3175.9807242298562
 31
0.0
 12
4167.5493336316867
 22
3070.7052224390009
 32
0.0
 13
4167.5493336316867
 23
3070.7052224390009
 33
0.0
  0
POLYLINE
  5
2DD6
  8
DIM
  6
BYBLOCK
 66
     1
 10
0.0
 20
0.0
 30
0.0
  0
VERTEX
  5
2DD7
  8
DIM
  6
BYBLOCK
 10
3689.0252417683191
 20
3560.7878312436828
 30
0.0
  0
VERTEX
  5
2DD8
  8
DIM
  6
BYBLOCK
 10
4223.6209241603638
 20
2864.8321134807702
 30
0.0
  0
SEQEND
  5
2DD9
  8
DIM
  6
BYBLOCK
  0
SOLID
  5
2DDA
  8
DIM
 10
3673.1644517420168
 20
3548.6044269681311
 30
0.0
 11
3615.9248161150031
 21
3655.9525714014958
 31
0.0
 12
3704.886031794621
 22
3572.971235519236
 32
0.0
 13
3704.886031794621
 23
3572.971235519236
 33
0.0
  0
ENDBLK
  5
2DDC
  8
0
  0
BLOCK
  8
0
  2
*U59
 70
     1
 10
0.0
 20
0.0
 30
0.0
  3
*U59
  1

  0
TEXT
  5
2DDE
  8
DIM
 10
30224.9859006365
 20
10393.054781103219
 30
0.0
 40
175.0
  1
720
 50
90.0
 41
0.8
  0
ENDBLK
  5
2DE0
  8
0
  0
BLOCK
  8
0
  2
*U60
 70
     1
 10
0.0
 20
0.0
 30
0.0
  3
*U60
  1

  0
TEXT
  5
2DE2
  8
DIM
 10
31447.436993480769
 20
11103.054781103219
 30
0.0
 40
175.0
  1
445
 50
90.0
 41
0.8
  0
ENDBLK
  5
2DE4
  8
0
  0
BLOCK
  8
0
  2
*U61
 70
     1
 10
0.0
 20
0.0
 30
0.0
  3
*U61
  1

  0
TEXT
  5
2DE6
  8
DIM
 10
31940.029906488711
 20
10468.80270639065
 30
0.0
 40
175.0
  1
895
 50
90.0
 41
0.8
  0
ENDBLK
  5
2DE8
  8
0
  0
BLOCK
  8
0
  2
*U62
 70
     1
 10
0.0
 20
0.0
 30
0.0
  3
*U62
  1

  0
TEXT
  5
2DEA
  8
DIM
 10
32873.020700131849
 20
9711.8014564376008
 30
0.0
 40
175.0
  1
350
 41
0.8
  0
ENDBLK
  5
2DEC
  8
0
  0
BLOCK
  8
0
  2
*U63
 70
     1
 10
0.0
 20
0.0
 30
0.0
  3
*U63
  1

  0
TEXT
  5
2DEE
  8
DIM
 10
32854.04620456777
 20
11552.883965011421
 30
0.0
 40
175.0
  1
159
 50
90.0
 41
0.8
  0
ENDBLK
  5
2DF0
  8
0
  0
BLOCK
  8
0
  2
*U64
 70
     1
 10
0.0
 20
0.0
 30
0.0
  3
*U64
  1

  0
TEXT
  5
2DF2
  8
DIM
 10
31725.089089236579
 20
11413.49132230883
 30
0.0
 40
175.0
  1
61
 41
0.8
  0
ENDBLK
  5
2DF4
  8
0
  0
BLOCK
  8
0
  2
*U65
 70
     1
 10
0.0
 20
0.0
 30
0.0
  3
*U65
  1

  0
TEXT
  5
2DF6
  8
DIM
 10
32781.957170065361
 20
10312.38811443655
 30
0.0
 40
175.0
  1
582
 50
90.0
 41
0.8
  0
ENDBLK
  5
2DF8
  8
0
  0
BLOCK
  8
0
  2
*U66
 70
     1
 10
0.0
 20
0.0
 30
0.0
  3
*U66
  1

  0
TEXT
  5
2DFA
  8
DIM
 10
33023.020700131849
 20
10097.2452024658
 30
0.0
 40
175.0
  1
140
 41
0.8
  0
ENDBLK
  5
2DFC
  8
0
  0
BLOCK
  8
0
  2
*U67
 70
     1
 10
0.0
 20
0.0
 30
0.0
  3
*U67
  1

  0
TEXT
  5
2DFE
  8
DIM
 10
34240.484314212183
 20
10832.054781103219
 30
0.0
 40
175.0
  1
174
 50
90.0
 41
0.8
  0
ENDBLK
  5
2E00
  8
0
  0
BLOCK
  8
0
  2
*U68
 70
     1
 10
0.0
 20
0.0
 30
0.0
  3
*U68
  1

  0
TEXT
  5
2E04
  8
DIM
 10
986.35231652428047
 20
2304.831167180535
 30
0.0
 40
120.0
  1
CFM deel 2: 1x snijden uit 450 g/m2 "M8610" of "Unifilo 816"
 41
0.8
  0
ENDBLK
  5
2E06
  8
0
  0
BLOCK
  8
0
  2
*U69
 70
     1
 10
0.0
 20
0.0
 30
0.0
  3
*U69
  1

  0
TEXT
  5
2E08
  8
DIM
 10
1697.8174463764551
 20
509.2079597488991
 30
0.0
 40
120.0
  1
laag 9
 41
0.8
  0
LINE
  5
2E09
  8
DIM
  6
BYBLOCK
 10
1627.0174463764561
 20
549.20795974889916
 30
0.0
 11
1637.817446376456
 21
549.20795974889916
 31
0.0
  0
POLYLINE
  5
2E0A
  8
DIM
  6
BYBLOCK
 66
     1
 10
0.0
 20
0.0
 30
0.0
  0
VERTEX
  5
2E0B
  8
DIM
  6
BYBLOCK
 10
1552.2263753438619
 20
748.039687474483
 30
0.0
  0
VERTEX
  5
2E0C
  8
DIM
  6
BYBLOCK
 10
1627.0174463764561
 20
549.20795974889916
 30
0.0
  0
SEQEND
  5
2E0D
  8
DIM
  6
BYBLOCK
  0
SOLID
  5
2E0E
  8
DIM
 10
1533.5068948399451
 20
740.99830624183585
 30
0.0
 11
1509.9780879479799
 21
860.35657049798465
 31
0.0
 12
1570.9458558477791
 22
755.08106870712993
 32
0.0
 13
1570.9458558477791
 23
755.08106870712993
 33
0.0
  0
ENDBLK
  5
2E10
  8
0
  0
BLOCK
  8
0
  2
*U70
 70
     1
 10
0.0
 20
0.0
 30
0.0
  3
*U70
  1

  0
TEXT
  5
2E12
  8
DIM
 10
4186.8163619499064
 20
514.40855102347257
 30
0.0
 40
120.0
  1
laag 10
 41
0.8
  0
LINE
  5
2E13
  8
DIM
  6
BYBLOCK
 10
4116.0163619499072
 20
554.40855102347268
 30
0.0
 11
4126.8163619499082
 21
554.40855102347268
 31
0.0
  0
POLYLINE
  5
2E14
  8
DIM
  6
BYBLOCK
 66
     1
 10
0.0
 20
0.0
 30
0.0
  0
VERTEX
  5
2E15
  8
DIM
  6
BYBLOCK
 10
4041.225290917313
 20
753.24027874905653
 30
0.0
  0
VERTEX
  5
2E16
  8
DIM
  6
BYBLOCK
 10
4116.0163619499072
 20
554.40855102347268
 30
0.0
  0
SEQEND
  5
2E17
  8
DIM
  6
BYBLOCK
  0
SOLID
  5
2E18
  8
DIM
 10
4022.5058104133959
 20
746.19889751640949
 30
0.0
 11
3998.9770035214319
 21
865.55716177255817
 31
0.0
 12
4059.9447714212311
 22
760.28165998170346
 32
0.0
 13
4059.9447714212311
 23
760.28165998170346
 33
0.0
  0
ENDBLK
  5
2E1A
  8
0
  0
BLOCK
  8
0
  2
*X71
 70
     1
 10
0.0
 20
0.0
 30
0.0
  3
*X71
  1

  0
LINE
  5
2E1C
  8
0
 62
     0
 10
5948.7003387915966
 20
983.98554760148545
 30
0.0
 11
5957.2742905200221
 21
992.55949932990904
 31
0.0
  0
LINE
  5
2E1D
  8
0
 62
     0
 10
5870.0862371607836
 20
972.72336687869029
 30
0.0
 11
5953.7624132090168
 21
1056.399542926923
 31
0.0
  0
LINE
  5
2E1E
  8
0
 62
     0
 10
5669.8843215496599
 20
772.52145126756648
 30
0.0
 11
5678.5532565202948
 21
781.19038623820234
 31
0.0
  0
LINE
  5
2E1F
  8
0
 62
     0
 10
5791.4721355299725
 20
961.46118615589864
 30
0.0
 11
5950.2505358980243
 21
1120.239586523948
 31
0.0
  0
LINE
  5
2E20
  8
0
 62
     0
 10
5603.0295008005478
 20
773.018551426474
 30
0.0
 11
5679.8917517845302
 21
849.88080241045463
 31
0.0
  0
LINE
  5
2E21
  8
0
 62
     0
 10
5745.3433117905106
 20
982.68428332445546
 30
0.0
 11
5946.7386585870217
 21
1184.07963012097
 31
0.0
  0
LINE
  5
2E22
  8
0
 62
     0
 10
5536.1746800514384
 20
773.51565158538142
 30
0.0
 11
5681.230247048763
 21
918.57121858270693
 31
0.0
  0
LINE
  5
2E23
  8
0
 62
     0
 10
5741.9563486020234
 20
1046.649241043986
 30
0.0
 11
5919.3895726705186
 21
1224.0824651124819
 31
0.0
  0
LINE
  5
2E24
  8
0
 62
     0
 10
5469.3198593023262
 20
774.01275174428883
 30
0.0
 11
5682.5687423129966
 21
987.26163475495935
 31
0.0
  0
LINE
  5
2E25
  8
0
 62
     0
 10
5738.5693854135388
 20
1110.6141987635201
 30
0.0
 11
5843.9019240312628
 21
1215.946737381244
 31
0.0
  0
LINE
  5
2E26
  8
0
 62
     0
 10
5402.465038553215
 20
774.50985190319625
 30
0.0
 11
5683.9072375772303
 21
1055.9520509272111
 31
0.0
  0
LINE
  5
2E27
  8
0
 62
     0
 10
5735.182422225047
 20
1174.579156483047
 30
0.0
 11
5768.4142753920059
 21
1207.8110096500061
 31
0.0
  0
LINE
  5
2E28
  8
0
 62
     0
 10
5335.6102178041037
 20
775.00695206210355
 30
0.0
 11
5682.7480368482502
 21
1122.1447711062499
 31
0.0
  0
LINE
  5
2E29
  8
0
 62
     0
 10
5268.7553970549916
 20
775.50405222101097
 30
0.0
 11
5679.2361595372568
 21
1185.9848147032751
 31
0.0
  0
LINE
  5
2E2A
  8
0
 62
     0
 10
5201.9005763058813
 20
776.00115237991838
 30
0.0
 11
5675.7242822262633
 21
1249.8248583003001
 31
0.0
  0
LINE
  5
2E2B
  8
0
 62
     0
 10
5135.04575555677
 20
776.4982525388258
 30
0.0
 11
5672.2124049152699
 21
1313.664901897326
 31
0.0
  0
LINE
  5
2E2C
  8
0
 62
     0
 10
5972.041080340915
 20
1680.8454982309879
 30
0.0
 11
5991.0270067985984
 21
1699.831424688673
 31
0.0
  0
LINE
  5
2E2D
  8
0
 62
     0
 10
5068.1909348076588
 20
776.99535269773321
 30
0.0
 11
5668.7005276042719
 21
1377.5049454943471
 31
0.0
  0
LINE
  5
2E2E
  8
0
 62
     0
 10
5893.426978710103
 20
1669.5833175082009
 30
0.0
 11
5982.5872996208018
 21
1758.743638418895
 31
0.0
  0
LINE
  5
2E2F
  8
0
 62
     0
 10
5001.3361140585521
 20
777.49245285664438
 30
0.0
 11
5665.1886502932757
 21
1441.3449890913689
 31
0.0
  0
LINE
  5
2E30
  8
0
 62
     0
 10
5814.8128770792937
 20
1658.3211367854051
 30
0.0
 11
5977.0563298111192
 21
1820.5645895172311
 31
0.0
  0
LINE
  5
2E31
  8
0
 62
     0
 10
4934.4812933094399
 20
777.98955301555179
 30
0.0
 11
5661.6767729822786
 21
1505.18503268839
 31
0.0
  0
LINE
  5
2E32
  8
0
 62
     0
 10
5777.4766850288834
 20
1688.3368656430141
 30
0.0
 11
5973.5444525001221
 21
1884.404633114252
 31
0.0
  0
LINE
  5
2E33
  8
0
 62
     0
 10
4867.6264725603287
 20
778.48665317445921
 30
0.0
 11
5658.1648956712852
 21
1569.0250762854159
 31
0.0
  0
LINE
  5
2E34
  8
0
 62
     0
 10
5769.0369778510831
 20
1747.2490793732361
 30
0.0
 11
5970.0325751891251
 21
1948.244676711274
 31
0.0
  0
LINE
  5
2E35
  8
0
 62
     0
 10
4800.7716518112175
 20
778.98375333336662
 30
0.0
 11
5654.6530183602881
 21
1632.8651198824371
 31
0.0
  0
LINE
  5
2E36
  8
0
 62
     0
 10
5703.6899321531782
 20
1749.2539545833461
 30
0.0
 11
5966.5206978781271
 21
2012.084720308299
 31
0.0
  0
LINE
  5
2E37
  8
0
 62
     0
 10
4733.9168310621062
 20
779.48085349227404
 30
0.0
 11
5651.141141049291
 21
1696.7051634794591
 31
0.0
  0
LINE
  5
2E38
  8
0
 62
     0
 10
5666.6935712724344
 20
1779.60951461062
 30
0.0
 11
5904.9036840233102
 21
2017.819627361496
 31
0.0
  0
LINE
  5
2E39
  8
0
 62
     0
 10
4667.062010312995
 20
779.97795365118145
 30
0.0
 11
5647.6292637382976
 21
1760.5452070764841
 31
0.0
  0
LINE
  5
2E3A
  8
0
 62
     0
 10
5663.3066080839462
 20
1843.57447233015
 30
0.0
 11
5829.4160353840534
 21
2009.6838996302581
 31
0.0
  0
LINE
  5
2E3B
  8
0
 62
     0
 10
4600.2071895638828
 20
780.4750538100925
 30
0.0
 11
5643.0405790055274
 21
1823.308443251731
 31
0.0
  0
LINE
  5
2E3C
  8
0
 62
     0
 10
5659.9196448954572
 20
1907.539430049681
 30
0.0
 11
5729.3880447300726
 21
1977.0078298842959
 31
0.0
  0
LINE
  5
2E3D
  8
0
 62
     0
 10
4533.3523688147734
 20
780.97215396899992
 30
0.0
 11
5635.2857560920529
 21
1882.9055412462769
 31
0.0
  0
LINE
  5
2E3E
  8
0
 62
     0
 10
5656.5326817069654
 20
1971.5043877692081
 30
0.0
 11
5658.2704250967108
 21
1973.242131158953
 31
0.0
  0
LINE
  5
2E3F
  8
0
 62
     0
 10
4466.4975480656649
 20
781.46925412790733
 30
0.0
 11
5627.5309331785793
 21
1942.502639240822
 31
0.0
  0
LINE
  5
2E40
  8
0
 62
     0
 10
4398.9010036031787
 20
781.2246305734443
 30
0.0
 11
5619.7761102651093
 21
2002.09973723537
 31
0.0
  0
LINE
  5
2E41
  8
0
 62
     0
 10
4331.0534186131263
 20
780.72896649140603
 30
0.0
 11
5612.0212873516321
 21
2061.6968352299118
 31
0.0
  0
LINE
  5
2E42
  8
0
 62
     0
 10
4263.2058336230693
 20
780.23330240937128
 30
0.0
 11
5604.2664644381621
 21
2121.29393322446
 31
0.0
  0
LINE
  5
2E43
  8
0
 62
     0
 10
4195.358248633016
 20
779.73763832733312
 30
0.0
 11
5529.0417333760233
 21
2113.4211230703399
 31
0.0
  0
LINE
  5
2E44
  8
0
 62
     0
 10
4127.5106636429591
 20
779.24197424529484
 30
0.0
 11
5452.533220433008
 21
2104.2645310353441
 31
0.0
  0
LINE
  5
2E45
  8
0
 62
     0
 10
4059.6630786529022
 20
778.74631016325657
 30
0.0
 11
5376.0247074899917
 21
2095.107939000347
 31
0.0
  0
LINE
  5
2E46
  8
0
 62
     0
 10
3991.8154936628462
 20
778.25064608121818
 30
0.0
 11
5299.5161945469781
 21
2085.9513469653498
 31
0.0
  0
LINE
  5
2E47
  8
0
 62
     0
 10
3923.9679086727951
 20
777.75498199918729
 30
0.0
 11
5223.0076816039664
 21
2076.7947549303572
 31
0.0
  0
LINE
  5
2E48
  8
0
 62
     0
 10
3856.1203236827391
 20
777.25931791714902
 30
0.0
 11
5146.4991686609537
 21
2067.6381628953641
 31
0.0
  0
LINE
  5
2E49
  8
0
 62
     0
 10
3788.2727386926822
 20
776.76365383511074
 30
0.0
 11
5069.9906557179384
 21
2058.4815708603669
 31
0.0
  0
LINE
  5
2E4A
  8
0
 62
     0
 10
3720.4251537026248
 20
776.26798975307236
 30
0.0
 11
4993.4821427749221
 21
2049.3249788253738
 31
0.0
  0
LINE
  5
2E4B
  8
0
 62
     0
 10
3652.5775687125679
 20
775.7723256710342
 30
0.0
 11
4916.9736298319067
 21
2040.1683867903739
 31
0.0
  0
LINE
  5
2E4C
  8
0
 62
     0
 10
3584.729983722511
 20
775.27666158899956
 30
0.0
 11
4840.4651168888931
 21
2031.011794755377
 31
0.0
  0
LINE
  5
2E4D
  8
0
 62
     0
 10
3516.8823987324581
 20
774.78099750696117
 30
0.0
 11
4763.9566039458769
 21
2021.8552027203841
 31
0.0
  0
LINE
  5
2E4E
  8
0
 62
     0
 10
3449.0348137424039
 20
774.28533342492665
 30
0.0
 11
4687.4480910028651
 21
2012.6986106853869
 31
0.0
  0
LINE
  5
2E4F
  8
0
 62
     0
 10
3381.1872287523479
 20
773.78966934288837
 30
0.0
 11
4610.9395780598534
 21
2003.5420186503941
 31
0.0
  0
LINE
  5
2E50
  8
0
 62
     0
 10
3313.339643762291
 20
773.29400526085374
 30
0.0
 11
4534.4310651168371
 21
1994.385426615401
 31
0.0
  0
LINE
  5
2E51
  8
0
 62
     0
 10
3245.492058772234
 20
772.79834117881182
 30
0.0
 11
4457.9225521738263
 21
1985.2288345804041
 31
0.0
  0
LINE
  5
2E52
  8
0
 62
     0
 10
4183.2945192644211
 20
1777.9527225790191
 30
0.0
 11
4381.41403923081
 21
1976.072242545408
 31
0.0
  0
LINE
  5
2E53
  8
0
 62
     0
 10
3197.9059713299612
 20
792.56417464455797
 30
0.0
 11
4138.2498044876411
 21
1732.908007802238
 31
0.0
  0
LINE
  5
2E54
  8
0
 62
     0
 10
3194.3940940189609
 20
856.4042182415759
 30
0.0
 11
4062.143683331818
 21
1724.153807554437
 31
0.0
  0
LINE
  5
2E55
  8
0
 62
     0
 10
4179.9075560759338
 20
1841.9176802985489
 30
0.0
 11
4304.9055262877964
 21
1966.9156505104111
 31
0.0
  0
LINE
  5
2E56
  8
0
 62
     0
 10
3110.9281148698901
 20
772.93823909250557
 30
0.0
 11
3176.701590572859
 21
838.71171479547411
 31
0.0
  0
LINE
  5
2E57
  8
0
 62
     0
 10
3190.8822167079602
 20
920.24426183859396
 30
0.0
 11
3991.0260636984608
 21
1720.3881088290941
 31
0.0
  0
LINE
  5
2E58
  8
0
 62
     0
 10
4176.5205928874448
 20
1905.8826380180799
 30
0.0
 11
4228.3970133447838
 21
1957.759058475418
 31
0.0
  0
LINE
  5
2E59
  8
0
 62
     0
 10
3044.0732941207748
 20
773.43533925140935
 30
0.0
 11
3178.0400858370922
 21
907.40213096772629
 31
0.0
  0
LINE
  5
2E5A
  8
0
 62
     0
 10
3187.370339396959
 20
984.0843054356119
 30
0.0
 11
3982.9250523164919
 21
1779.639018355145
 31
0.0
  0
LINE
  5
2E5B
  8
0
 62
     0
 10
2977.218473371664
 20
773.93243941032051
 30
0.0
 11
3179.3785811013258
 21
976.09254713998234
 31
0.0
  0
LINE
  5
2E5C
  8
0
 62
     0
 10
3183.8584620859592
 20
1047.9243490326301
 30
0.0
 11
3979.5380891280038
 21
1843.6039760746751
 31
0.0
  0
LINE
  5
2E5D
  8
0
 62
     0
 10
2910.3636526225532
 20
774.42953956922418
 30
0.0
 11
3180.7170763655558
 21
1044.7829633122269
 31
0.0
  0
LINE
  5
2E5E
  8
0
 62
     0
 10
3180.346584774958
 20
1111.764392629648
 30
0.0
 11
3976.1511259395161
 21
1907.568933794206
 31
0.0
  0
LINE
  5
2E5F
  8
0
 62
     0
 10
4016.7241762753551
 20
1948.1419841300451
 30
0.0
 11
4052.9780169476539
 21
1984.3958248023439
 31
0.0
  0
LINE
  5
2E60
  8
0
 62
     0
 10
2843.508831873442
 20
774.9266397281317
 30
0.0
 11
3180.346584774958
 21
1111.764392629648
 31
0.0
  0
LINE
  5
2E61
  8
0
 62
     0
 10
3176.8347074639541
 20
1175.6044362266621
 30
0.0
 11
3981.705345626513
 21
1980.4750743892221
 31
0.0
  0
LINE
  5
2E62
  8
0
 62
     0
 10
2776.6540111243298
 20
775.42373988703912
 30
0.0
 11
3176.8347074639541
 21
1175.6044362266621
 31
0.0
  0
LINE
  5
2E63
  8
0
 62
     0
 10
3173.3228301529562
 20
1239.444479823683
 30
0.0
 11
3910.4326743053762
 21
1976.5543239761021
 31
0.0
  0
LINE
  5
2E64
  8
0
 62
     0
 10
2709.799190375219
 20
775.92084004594653
 30
0.0
 11
3173.3228301529562
 21
1239.444479823683
 31
0.0
  0
LINE
  5
2E65
  8
0
 62
     0
 10
3169.8109528419559
 20
1303.284523420702
 30
0.0
 11
3839.1600029842339
 21
1972.63357356298
 31
0.0
  0
LINE
  5
2E66
  8
0
 62
     0
 10
2642.9443696261078
 20
776.41794020485395
 30
0.0
 11
3169.8109528419559
 21
1303.284523420702
 31
0.0
  0
LINE
  5
2E67
  8
0
 62
     0
 10
3166.2990755309552
 20
1367.1245670177159
 30
0.0
 11
3767.8873316630929
 21
1968.7128231498541
 31
0.0
  0
LINE
  5
2E68
  8
0
 62
     0
 10
2576.089548876997
 20
776.91504036376125
 30
0.0
 11
3166.2990755309552
 21
1367.1245670177159
 31
0.0
  0
LINE
  5
2E69
  8
0
 62
     0
 10
3162.7871982199499
 20
1430.964610614737
 30
0.0
 11
3696.6146603419511
 21
1964.7920727367341
 31
0.0
  0
LINE
  5
2E6A
  8
0
 62
     0
 10
2509.2347281278821
 20
777.41214052266866
 30
0.0
 11
3162.7871982199499
 21
1430.964610614737
 31
0.0
  0
LINE
  5
2E6B
  8
0
 62
     0
 10
3159.2753209089569
 20
1494.804654211755
 30
0.0
 11
3625.341989020817
 21
1960.871322323615
 31
0.0
  0
LINE
  5
2E6C
  8
0
 62
     0
 10
2442.3799073787741
 20
777.90924068157608
 30
0.0
 11
3159.2753209089569
 21
1494.804654211755
 31
0.0
  0
LINE
  5
2E6D
  8
0
 62
     0
 10
3155.763443597953
 20
1558.6446978087729
 30
0.0
 11
3554.0693176996679
 21
1956.9505719104891
 31
0.0
  0
LINE
  5
2E6E
  8
0
 62
     0
 10
2375.5250866296628
 20
778.40634084048349
 30
0.0
 11
3155.763443597953
 21
1558.6446978087729
 31
0.0
  0
LINE
  5
2E6F
  8
0
 62
     0
 10
3152.2515662869519
 20
1622.484741405787
 30
0.0
 11
3482.796646378531
 21
1953.02982149737
 31
0.0
  0
LINE
  5
2E70
  8
0
 62
     0
 10
2308.6702658805561
 20
778.90344099939102
 30
0.0
 11
3152.2515662869519
 21
1622.484741405787
 31
0.0
  0
LINE
  5
2E71
  8
0
 62
     0
 10
3148.7396889759511
 20
1686.324785002809
 30
0.0
 11
3411.523975057386
 21
1949.1090710842429
 31
0.0
  0
LINE
  5
2E72
  8
0
 62
     0
 10
2241.8154451314399
 20
779.40054115829844
 30
0.0
 11
3148.7396889759511
 21
1686.324785002809
 31
0.0
  0
LINE
  5
2E73
  8
0
 62
     0
 10
3145.2278116649541
 20
1750.1648285998269
 30
0.0
 11
3340.2513037362519
 21
1945.1883206711279
 31
0.0
  0
LINE
  5
2E74
  8
0
 62
     0
 10
2174.9606243823332
 20
779.89764131720585
 30
0.0
 11
3145.2278116649541
 21
1750.1648285998269
 31
0.0
  0
LINE
  5
2E75
  8
0
 62
     0
 10
3141.7159343539429
 20
1814.0048721968381
 30
0.0
 11
3268.9786324151032
 21
1941.267570258002
 31
0.0
  0
LINE
  5
2E76
  8
0
 62
     0
 10
2108.1058036332179
 20
780.39474147611315
 30
0.0
 11
3141.329063616141
 21
1813.618001459035
 31
0.0
  0
LINE
  5
2E77
  8
0
 62
     0
 10
3138.204057042949
 20
1877.8449157938589
 30
0.0
 11
3197.7059610939691
 21
1937.3468198448791
 31
0.0
  0
LINE
  5
2E78
  8
0
 62
     0
 10
2041.25098288411
 20
780.89184163502068
 30
0.0
 11
3133.5742407026701
 21
1873.21509945358
 31
0.0
  0
LINE
  5
2E79
  8
0
 62
     0
 10
1974.3961621349949
 20
781.3889417939281
 30
0.0
 11
3125.8194177891969
 21
1932.8121974481289
 31
0.0
  0
LINE
  5
2E7A
  8
0
 62
     0
 10
1906.961049029996
 20
781.30574959694775
 30
0.0
 11
3118.0645948757301
 21
1992.4092954426781
 31
0.0
  0
LINE
  5
2E7B
  8
0
 62
     0
 10
1839.11346403994
 20
780.81008551490959
 30
0.0
 11
3110.3097719622529
 21
2052.0063934372229
 31
0.0
  0
LINE
  5
2E7C
  8
0
 62
     0
 10
1771.2658790498861
 20
780.31442143287131
 30
0.0
 11
3102.554949048787
 21
2111.603491431772
 31
0.0
  0
LINE
  5
2E7D
  8
0
 62
     0
 10
1703.418294059825
 20
779.81875735083304
 30
0.0
 11
3038.6374607572402
 21
2115.0379240482512
 31
0.0
  0
LINE
  5
2E7E
  8
0
 62
     0
 10
1635.570709069772
 20
779.32309326879465
 30
0.0
 11
2962.2844909076121
 21
2106.0368751066349
 31
0.0
  0
LINE
  5
2E7F
  8
0
 62
     0
 10
1567.723124079715
 20
778.82742918676013
 30
0.0
 11
2885.931521057973
 21
2097.0358261650222
 31
0.0
  0
LINE
  5
2E80
  8
0
 62
     0
 10
1499.875539089662
 20
778.33176510472185
 30
0.0
 11
2809.5785512083421
 21
2088.0347772234022
 31
0.0
  0
LINE
  5
2E81
  8
0
 62
     0
 10
1432.027954099605
 20
777.83610102268722
 30
0.0
 11
2733.2255813587071
 21
2079.0337282817891
 31
0.0
  0
LINE
  5
2E82
  8
0
 62
     0
 10
1364.180369109552
 20
777.34043694064894
 30
0.0
 11
2656.8726115090758
 21
2070.0326793401732
 31
0.0
  0
LINE
  5
2E83
  8
0
 62
     0
 10
1296.332784119491
 20
776.84477285861067
 30
0.0
 11
2580.5196416594372
 21
2061.0316303985569
 31
0.0
  0
LINE
  5
2E84
  8
0
 62
     0
 10
1228.4851991294379
 20
776.34910877657603
 30
0.0
 11
2504.1666718098058
 21
2052.0305814569442
 31
0.0
  0
LINE
  5
2E85
  8
0
 62
     0
 10
1160.637614139381
 20
775.85344469453776
 30
0.0
 11
2427.8137019601709
 21
2043.0295325153279
 31
0.0
  0
LINE
  5
2E86
  8
0
 62
     0
 10
1092.7900291493279
 20
775.35778061250312
 30
0.0
 11
2351.46073211054
 21
2034.028483573715
 31
0.0
  0
LINE
  5
2E87
  8
0
 62
     0
 10
1024.942444159271
 20
774.86211653046485
 30
0.0
 11
2275.1077622609009
 21
2025.027434632095
 31
0.0
  0
LINE
  5
2E88
  8
0
 62
     0
 10
957.09485916921767
 20
774.36645244843021
 30
0.0
 11
2198.7547924112728
 21
2016.026385690486
 31
0.0
  0
LINE
  5
2E89
  8
0
 62
     0
 10
889.24727417916074
 20
773.87078836639193
 30
0.0
 11
2122.4018225616351
 21
2007.025336748866
 31
0.0
  0
LINE
  5
2E8A
  8
0
 62
     0
 10
821.39968918910745
 20
773.37512428435366
 30
0.0
 11
2046.0488527120031
 21
1998.024287807249
 31
0.0
  0
LINE
  5
2E8B
  8
0
 62
     0
 10
753.55210419904688
 20
772.87946020231527
 30
0.0
 11
1969.6958828623649
 21
1989.0232388656329
 31
0.0
  0
LINE
  5
2E8C
  8
0
 62
     0
 10
695.50451925666857
 20
782.1837961679521
 30
0.0
 11
1893.342913012737
 21
1980.02218992402
 31
0.0
  0
LINE
  5
2E8D
  8
0
 62
     0
 10
691.99264194562784
 20
846.02383976493729
 30
0.0
 11
1816.0929103807759
 21
1970.1241082000811
 31
0.0
  0
LINE
  5
2E8E
  8
0
 62
     0
 10
688.48076463460166
 20
909.86388336192238
 30
0.0
 11
1738.6661573264209
 21
1960.049276053742
 31
0.0
  0
LINE
  5
2E8F
  8
0
 62
     0
 10
684.96888732358627
 20
973.70392695892951
 30
0.0
 11
1661.239404272063
 21
1949.9744439074061
 31
0.0
  0
LINE
  5
2E90
  8
0
 62
     0
 10
681.45701001259295
 20
1037.543970555955
 30
0.0
 11
1583.812651217708
 21
1939.8996117610659
 31
0.0
  0
LINE
  5
2E91
  8
0
 62
     0
 10
677.94513270159587
 20
1101.3840141529761
 30
0.0
 11
1561.59500863935
 21
1985.0338900907329
 31
0.0
  0
LINE
  5
2E92
  8
0
 62
     0
 10
674.43325539060243
 20
1165.2240577499981
 30
0.0
 11
1490.322337318212
 21
1981.113139677607
 31
0.0
  0
LINE
  5
2E93
  8
0
 62
     0
 10
670.92137807960535
 20
1229.0641013470231
 30
0.0
 11
1419.049665997067
 21
1977.1923892644841
 31
0.0
  0
LINE
  5
2E94
  8
0
 62
     0
 10
667.40950076861191
 20
1292.9041449440449
 30
0.0
 11
1347.776994675929
 21
1973.271638851365
 31
0.0
  0
LINE
  5
2E95
  8
0
 62
     0
 10
663.89762345761108
 20
1356.744188541066
 30
0.0
 11
1276.504323354784
 21
1969.3508884382391
 31
0.0
  0
LINE
  5
2E96
  8
0
 62
     0
 10
660.38574614662139
 20
1420.584232138091
 30
0.0
 11
1205.231652033646
 21
1965.4301380251161
 31
0.0
  0
LINE
  5
2E97
  8
0
 62
     0
 10
656.87386883562056
 20
1484.424275735113
 30
0.0
 11
1133.958980712501
 21
1961.5093876119929
 31
0.0
  0
LINE
  5
2E98
  8
0
 62
     0
 10
653.36199152462723
 20
1548.2643193321339
 30
0.0
 11
1062.6863093913671
 21
1957.588637198874
 31
0.0
  0
LINE
  5
2E99
  8
0
 62
     0
 10
649.85011421363015
 20
1612.1043629291601
 30
0.0
 11
991.41363807022196
 21
1953.6678867857511
 31
0.0
  0
LINE
  5
2E9A
  8
0
 62
     0
 10
646.3382369026366
 20
1675.944406526181
 30
0.0
 11
920.14096674908421
 21
1949.747136372629
 31
0.0
  0
LINE
  5
2E9B
  8
0
 62
     0
 10
642.82635959163963
 20
1739.7844501232071
 30
0.0
 11
848.86829542793942
 21
1945.8263859595061
 31
0.0
  0
LINE
  5
2E9C
  8
0
 62
     0
 10
639.31448228064619
 20
1803.624493720228
 30
0.0
 11
777.59562410680155
 21
1941.9056355463831
 31
0.0
  0
LINE
  5
2E9D
  8
0
 62
     0
 10
635.80260496964536
 20
1867.46453731725
 30
0.0
 11
706.32295278565653
 21
1937.9848851332611
 31
0.0
  0
LINE
  5
2E9E
  8
0
 62
     0
 10
632.29072765865567
 20
1931.304580914275
 30
0.0
 11
635.05028146451878
 21
1934.0641347201381
 31
0.0
  0
ENDBLK
  5
2EA0
  8
0
  0
BLOCK
  8
0
  2
*U72
 70
     1
 10
0.0
 20
0.0
 30
0.0
  3
*U72
  1

  0
TEXT
  5
2EA2
  8
DIM
 10
6585.585172027274
 20
4936.3011262548453
 30
0.0
 40
175.0
  1
930
 41
0.8
  0
ENDBLK
  5
2EA4
  8
0
  0
BLOCK
  8
0
  2
*U73
 70
     1
 10
0.0
 20
0.0
 30
0.0
  3
*U73
  1

  0
TEXT
  5
2EA6
  8
DIM
 10
6091.7960756726534
 20
4007.2223904978291
 30
0.0
 40
175.0
  1
904
 50
90.0
 41
0.8
  0
ENDBLK
  5
2EA8
  8
0
  0
BLOCK
  8
0
  2
*U74
 70
     1
 10
0.0
 20
0.0
 30
0.0
  3
*U74
  1

  0
TEXT
  5
2EAA
  8
DIM
 10
6091.7960756726534
 20
5143.994354249322
 30
0.0
 40
175.0
  1
60
 50
90.0
 41
0.8
  0
ENDBLK
  5
2EAC
  8
0
  0
BLOCK
  8
0
  2
*U75
 70
     1
 10
0.0
 20
0.0
 30
0.0
  3
*U75
  1

  0
TEXT
  5
2EAE
  8
DIM
 10
24318.732006478891
 20
-6416.4403226085878
 30
0.0
 40
175.0
  1
998
 50
90.0
 41
0.8
  0
ENDBLK
  5
2EB0
  8
0
  0
BLOCK
  8
0
  2
*U76
 70
     1
 10
0.0
 20
0.0
 30
0.0
  3
*U76
  1

  0
TEXT
  5
2EB2
  8
DIM
 10
29085.735971196071
 20
-731.81257571207243
 30
0.0
 40
175.0
  1
10096
 41
0.8
  0
ENDBLK
  5
2EB4
  8
0
  0
BLOCK
  8
0
  2
*U77
 70
     1
 10
0.0
 20
0.0
 30
0.0
  3
*U77
  1

  0
TEXT
  5
2EB6
  8
DIM
 10
24070.058056268939
 20
63.511806237848802
 30
0.0
 40
175.0
  1
1249
 50
90.0
 41
0.8
  0
ENDBLK
  5
2EB8
  8
0
  0
BLOCK
  8
0
  2
*U78
 70
     1
 10
0.0
 20
0.0
 30
0.0
  3
*U78
  1

  0
TEXT
  5
2EBA
  8
DIM
 10
29108.6988421442
 20
-3211.8012955506342
 30
0.0
 40
175.0
  1
10096
 41
0.8
  0
ENDBLK
  5
2EBC
  8
0
  0
BLOCK
  8
0
  2
*U79
 70
     1
 10
0.0
 20
0.0
 30
0.0
  3
*U79
  1

  0
TEXT
  5
2EBE
  8
DIM
 10
24093.020927217069
 20
-2416.4769136007139
 30
0.0
 40
175.0
  1
1249
 50
90.0
 41
0.8
  0
ENDBLK
  5
2EC0
  8
0
  0
BLOCK
  8
0
  2
*U80
 70
     1
 10
0.0
 20
0.0
 30
0.0
  3
*U80
  1

  0
TEXT
  5
2EC2
  8
DIM
 10
25792.970100940889
 20
-7085.7494248141311
 30
0.0
 40
175.0
  1
2534
 41
0.8
  0
ENDBLK
  5
2EC4
  8
0
  0
BLOCK
  8
0
  2
*U81
 70
     1
 10
0.0
 20
0.0
 30
0.0
  3
*U81
  1

  0
TEXT
  5
2EC6
  8
DIM
 10
34282.557955852237
 20
-7048.9230870379843
 30
0.0
 40
175.0
  1
2534
 41
0.8
  0
ENDBLK
  5
2EC8
  8
0
  0
BLOCK
  8
0
  2
*U82
 70
     1
 10
0.0
 20
0.0
 30
0.0
  3
*U82
  1

  0
TEXT
  5
2ECA
  8
DIM
 10
32808.319861390228
 20
-6379.613984832441
 30
0.0
 40
175.0
  1
998
 50
90.0
 41
0.8
  0
ENDBLK
  5
2ECC
  8
0
  0
BLOCK
  8
0
  2
*U83
 70
     1
 10
0.0
 20
0.0
 30
0.0
  3
*U83
  1

  0
TEXT
  5
2ECE
  8
DIM
 10
26658.601775649789
 20
-7187.0250899819148
 30
0.0
 40
175.0
  1
1250
 41
0.8
  0
ENDBLK
  5
2ED0
  8
0
  0
BLOCK
  8
0
  2
*U84
 70
     1
 10
0.0
 20
0.0
 30
0.0
  3
*U84
  1

  0
TEXT
  5
2ED2
  8
DIM
 10
25388.601775649789
 20
-7187.0250899819148
 30
0.0
 40
175.0
  1
1250
 41
0.8
  0
ENDBLK
  5
2ED4
  8
0
  0
BLOCK
  8
0
  2
*U85
 70
     1
 10
0.0
 20
0.0
 30
0.0
  3
*U85
  1

  0
TEXT
  5
2ED6
  8
DIM
 10
24770.341675629272
 20
-6283.8421896676591
 30
0.0
 40
175.0
  1
1250
 50
90.0
 41
0.8
  0
ENDBLK
  5
2ED8
  8
0
  0
BLOCK
  8
0
  2
*U86
 70
     1
 10
0.0
 20
0.0
 30
0.0
  3
*U86
  1

  0
TEXT
  5
2EDA
  8
DATUM
 10
3643.7727698681711
 20
4476.7624400582717
 30
0.0
 40
60.0
  1
door: Roland Smith
 41
0.8
  0
TEXT
  5
2EDB
  8
DATUM
 10
3643.7727698681711
 20
4376.7624400582708
 30
0.0
 40
60.0
  1
datum: 29 mei 2013
 41
0.8
  0
ENDBLK
  5
2EDD
  8
0
  0
BLOCK
  8
0
  2
*U87
 70
     1
 10
0.0
 20
0.0
 30
0.0
  3
*U87
  1

  0
TEXT
  5
2EDF
  8
DIM
 10
3020.9566533722232
 20
2736.0018333737098
 30
0.0
 40
175.0
  1
5052
 41
0.8
  0
ENDBLK
  5
2EE1
  8
0
  0
BLOCK
  8
0
  2
*U88
 70
     1
 10
0.0
 20
0.0
 30
0.0
  3
*U88
  1

  0
TEXT
  5
2EE3
  8
DIM
 10
413.82974301501162
 20
3536.1901759073639
 30
0.0
 40
175.0
  1
1350
 50
90.0
 41
0.8
  0
ENDBLK
  5
2EE5
  8
0
  0
BLOCK
  8
0
  2
*U89
 70
     1
 10
0.0
 20
0.0
 30
0.0
  3
*U89
  1

  0
TEXT
  5
2EE7
  8
DIM
 10
306.22518080455438
 20
1225.766613450066
 30
0.0
 40
175.0
  1
1350
 50
90.0
 41
0.8
  0
ENDBLK
  5
2EE9
  8
0
  0
BLOCK
  8
0
  2
*U90
 70
     1
 10
0.0
 20
0.0
 30
0.0
  3
*U90
  1

  0
TEXT
  5
2EEB
  8
DIM
 10
3079.3957194743798
 20
425.57827091641218
 30
0.0
 40
175.0
  1
5361
 41
0.8
  0
ENDBLK
  5
2EED
  8
0
  0
ENDSEC
  0
SECTION
  2
ENTITIES
  0
LINE
  5
DB0
  8
CFM450
 10
5792.1610378440346
 20
3399.6939473952189
 30
0.0
 11
5752.6132199165331
 21
4118.6069950561168
 31
0.0
1001
ACAD
1000
ASC_BOUNDS
1002
{
1070
    19
1005
1B80
1002
}
  0
LINE
  5
DB1
  8
CFM450
 10
5752.6132199165258
 20
4118.6069950561823
 30
0.0
 11
5711.7262271310719
 21
4432.8303039473958
 31
0.0
1001
ACAD
1000
ASC_BOUNDS
1002
{
1070
    19
1005
1B80
1002
}
  0
LINE
  5
DB2
  8
CFM450
 10
5711.7262271310719
 20
4432.8303039473958
 30
0.0
 11
4281.7222584548554
 21
4261.6864345149161
 31
0.0
1001
ACAD
1000
ASC_BOUNDS
1002
{
1070
    19
1005
1B80
1002
}
  0
LINE
  5
DB3
  8
CFM450
 10
5792.1610378440346
 20
3399.6939473952189
 30
0.0
 11
5785.9876652746279
 21
3082.8818208900921
 31
0.0
1001
ACAD
1000
ASC_BOUNDS
1002
{
1070
    19
1005
1B80
1002
}
  0
LINE
  5
DB4
  8
CFM450
 10
5785.9876652746279
 20
3082.8818208900921
 30
0.0
 11
4557.1965159971551
 21
3092.0185184195361
 31
0.0
1001
ACAD
1000
ASC_BOUNDS
1002
{
1070
    19
1005
1B80
1002
}
  0
LINE
  5
DB5
  8
CFM450
 10
5752.6132199165258
 20
4118.6069950561823
 30
0.0
 11
5712.673606157583
 21
4116.409894060208
 31
0.0
  0
LINE
  5
DB6
  8
CFM450
 10
4181.1231069853857
 20
4261.572824982879
 30
0.0
 11
4179.2377410184235
 21
4295.8456183832259
 31
0.0
1001
ACAD
1000
ASC_BOUNDS
1002
{
1070
    19
1005
1B80
1002
}
  0
LINE
  5
DB7
  8
CFM450
 10
3306.6165428794338
 20
3082.8823409936158
 30
0.0
 11
3242.7247801418598
 21
4244.3275047754651
 31
0.0
1001
ACAD
1000
ASC_BOUNDS
1002
{
1070
    19
1005
1B80
1005
1B80
1002
}
  0
LINE
  5
DB8
  8
CFM450
 10
3242.7247801418598
 20
4244.3275047754651
 30
0.0
 11
4179.2377410184235
 21
4295.8456183832259
 31
0.0
1001
ACAD
1000
ASC_BOUNDS
1002
{
1070
    19
1005
1B80
1002
}
  0
LINE
  5
DB9
  8
CFM450
 10
3306.6165428794338
 20
3082.8823409936158
 30
0.0
 11
4557.1965159971551
 21
3092.0185184195361
 31
0.0
1001
ACAD
1000
ASC_BOUNDS
1002
{
1070
    19
1005
1B80
1002
}
  0
LINE
  5
DBA
  8
CFM450
 10
4281.7222584548554
 20
4261.6864345149161
 30
0.0
 11
4292.9271366946296
 21
4050.0751700950091
 31
0.0
1001
ACAD
1000
ASC_BOUNDS
1002
{
1070
    19
1005
1B80
1002
}
  0
LINE
  5
DBB
  8
CFM450
 10
4081.7267778286368
 20
4256.3097603311226
 30
0.0
 11
4093.6808453523158
 21
4030.549578960623
 31
0.0
1001
ACAD
1000
ASC_BOUNDS
1002
{
1070
    19
1005
1B80
1002
}
  0
LINE
  5
DBC
  8
CFM450
 10
4193.5409527786942
 20
4035.8372008071769
 30
0.0
 11
4292.9271366946296
 21
4050.0751700950091
 31
0.0
1001
ACAD
1000
ASC_BOUNDS
1002
{
1070
    19
1005
1B80
1002
}
  0
LINE
  5
DC6
  8
CFM450
 10
4081.7267778286368
 20
4256.3097603311226
 30
0.0
 11
4181.1231069853857
 21
4261.572824982879
 31
0.0
1001
ACAD
1000
ASC_BOUNDS
1002
{
1070
    19
1005
1B80
1002
}
  0
LINE
  5
DC7
  8
CFM450
 10
4193.5409527786942
 20
4035.8372008071769
 30
0.0
 11
4093.6808453523158
 21
4030.549578960623
 31
0.0
1001
ACAD
1000
ASC_BOUNDS
1002
{
1070
    19
1005
1B80
1002
}
  0
LINE
  5
DD0
  8
CFM450
 10
5792.1610378440346
 20
3399.6939473952189
 30
0.0
 11
5752.2214240850917
 21
3397.4968463992459
 31
0.0
  0
LINE
  5
DE0
  8
CFM450
 10
3347.0232720593299
 20
3243.969632589934
 30
0.0
 11
3297.1225013290282
 21
3240.791585349009
 31
0.0
  0
LINE
  5
DE2
  8
CFM450
 10
3373.9120647924501
 20
3839.8930659673588
 30
0.0
 11
3397.2412127328389
 21
3415.8082561328451
 31
0.0
1001
ACAD
1000
ASC_BOUNDS
1002
{
1070
    19
1005
1B80
1002
}
  0
LINE
  5
DE3
  8
CFM450
 10
3896.434014001421
 20
3443.269137639345
 30
0.0
 11
3873.1048660610359
 21
3867.3539474738582
 31
0.0
1001
ACAD
1000
ASC_BOUNDS
1002
{
1070
    19
1005
1B80
1002
}
  0
LINE
  5
DE4
  8
CFM450
 10
3534.316223198181
 20
3293.0150717123888
 30
0.0
 11
3773.6552101517191
 21
3306.1812462724261
 31
0.0
1001
ACAD
1000
ASC_BOUNDS
1002
{
1070
    19
1005
1B80
1002
}
  0
LINE
  5
DE5
  8
CFM450
 10
3736.029855595687
 20
3990.147131894315
 30
0.0
 11
3496.690868642148
 21
3976.9809573342782
 31
0.0
1001
ACAD
1000
ASC_BOUNDS
1002
{
1070
    19
1005
1B80
1002
}
  0
ARC
  5
DE6
  8
CFM450
 10
3527.1758435552292
 20
3422.9486920216982
 30
0.0
 40
130.13017486449999
 50
183.14547203485861
 51
273.14547172089527
1001
ACAD
1000
ASC_BOUNDS
1002
{
1070
    19
1005
1B80
1002
}
  0
ARC
  5
DE7
  8
CFM450
 10
3766.500188524104
 20
3436.1140610712141
 30
0.0
 40
130.13017486449999
 50
273.15192829978241
 51
3.1519279856080331
1001
ACAD
1000
ASC_BOUNDS
1002
{
1070
    19
1005
1B80
1002
}
  0
ARC
  5
DE8
  8
CFM450
 10
3503.845890269768
 20
3847.0481425354878
 30
0.0
 40
130.13017486449999
 50
93.15192829978244
 51
183.15192798560801
1001
ACAD
1000
ASC_BOUNDS
1002
{
1070
    19
1005
1B80
1002
}
  0
ARC
  5
DE9
  8
CFM450
 10
3743.1702352386751
 20
3860.2135115845072
 30
0.0
 40
130.13017486449999
 50
3.145472034858666
 51
93.145471720895245
1001
ACAD
1000
ASC_BOUNDS
1002
{
1070
    19
1005
1B80
1002
}
  0
LINE
  5
DF7
  8
CFM450
 10
3249.6407086750769
 20
4118.6075151597051
 30
0.0
 11
3208.7537158896298
 21
4432.8308240509186
 31
0.0
1001
ACAD
1000
ASC_BOUNDS
1002
{
1070
    19
1005
1B80
1002
}
  0
LINE
  5
DF8
  8
CFM450
 10
3208.7537158896298
 20
4432.8308240509186
 30
0.0
 11
1988.3793705880601
 21
4288.9641318870899
 31
0.0
1001
ACAD
1000
ASC_BOUNDS
1002
{
1070
    19
1005
1B80
1002
}
  0
LINE
  5
DF9
  8
CFM450
 10
3289.1885266025902
 20
3399.6944674987431
 30
0.0
 11
3283.0151540331831
 21
3082.8823409936158
 31
0.0
1001
ACAD
1000
ASC_BOUNDS
1002
{
1070
    19
1005
1B80
1002
}
  0
LINE
  5
DFA
  8
CFM450
 10
3283.0151540331831
 20
3082.8823409936158
 30
0.0
 11
2054.2240047557102
 21
3092.019038523058
 31
0.0
1001
ACAD
1000
ASC_BOUNDS
1002
{
1070
    19
1005
1B80
1002
}
  0
LINE
  5
DFB
  8
CFM450
 10
3289.1885266025902
 20
3399.6944674987431
 30
0.0
 11
3249.2489128436468
 21
3397.497366502771
 31
0.0
  0
LINE
  5
DFC
  8
CFM450
 10
3249.6407086750769
 20
4118.6075151597051
 30
0.0
 11
3209.701094916134
 21
4116.4104141637299
 31
0.0
  0
LINE
  5
DFD
  8
CFM450
 10
1690.568441537253
 20
4035.8377209107002
 30
0.0
 11
1676.265229776978
 21
4295.8461384867496
 31
0.0
1001
ACAD
1000
ASC_BOUNDS
1002
{
1070
    19
1005
1B80
1002
}
  0
LINE
  5
DFE
  8
CFM450
 10
1988.3793705880601
 20
4288.9641318870899
 30
0.0
 11
1678.8593634244421
 21
4248.6891365515949
 31
0.0
1001
ACAD
1000
ASC_BOUNDS
1002
{
1070
    19
1005
1B80
1002
}
  0
LINE
  5
DFF
  8
CFM450
 10
773.99368556558329
 20
3621.8764586229099
 30
0.0
 11
739.75226890041085
 21
4244.328024878987
 31
0.0
1001
ACAD
1000
ASC_BOUNDS
1002
{
1070
    19
1005
1B80
1002
}
  0
LINE
  5
E00
  8
CFM450
 10
773.99368556558329
 20
3621.8764586229099
 30
0.0
 11
794.95453508636626
 21
3240.8433447816042
 31
0.0
1001
ACAD
1000
ASC_BOUNDS
1002
{
1070
    19
1005
1B80
1002
}
  0
LINE
  5
E01
  8
CFM450
 10
739.75226890041085
 20
4244.328024878987
 30
0.0
 11
1676.265229776978
 21
4295.8461384867496
 31
0.0
1001
ACAD
1000
ASC_BOUNDS
1002
{
1070
    19
1005
1B80
1002
}
  0
LINE
  5
E02
  8
CFM450
 10
803.64403163798841
 20
3082.88286109714
 30
0.0
 11
2054.2240047557102
 21
3092.019038523058
 31
0.0
1001
ACAD
1000
ASC_BOUNDS
1002
{
1070
    19
1005
1B80
1002
}
  0
LINE
  5
E03
  8
CFM450
 10
794.9545350864646
 20
3240.8433447816342
 30
0.0
 11
803.64403163798841
 21
3082.88286109714
 31
0.0
1001
ACAD
1000
ASC_BOUNDS
1002
{
1070
    19
1005
1B80
1002
}
  0
LINE
  5
E09
  8
CFM450
 10
870.13462569030526
 20
3839.8493065288972
 30
0.0
 11
893.46377363069405
 21
3415.7644966943831
 31
0.0
1001
ACAD
1000
ASC_BOUNDS
1002
{
1070
    19
1005
1B80
1002
}
  0
LINE
  5
E0A
  8
CFM450
 10
1392.65657489928
 20
3443.2253782008829
 30
0.0
 11
1369.327426958891
 21
3867.3101880353952
 31
0.0
1001
ACAD
1000
ASC_BOUNDS
1002
{
1070
    19
1005
1B80
1002
}
  0
LINE
  5
E0B
  8
CFM450
 10
1030.5387840960429
 20
3292.971312273929
 30
0.0
 11
1269.8777710495849
 21
3306.1374868339672
 31
0.0
1001
ACAD
1000
ASC_BOUNDS
1002
{
1070
    19
1005
1B80
1002
}
  0
LINE
  5
E0C
  8
CFM450
 10
1232.2524164935489
 20
3990.1033724558529
 30
0.0
 11
992.91342954000709
 21
3976.9371978958161
 31
0.0
1001
ACAD
1000
ASC_BOUNDS
1002
{
1070
    19
1005
1B80
1002
}
  0
ARC
  5
E0D
  8
CFM450
 10
1023.398404453081
 20
3422.9049325832361
 30
0.0
 40
130.13017486449999
 50
183.14547203485861
 51
273.14547172068711
1001
ACAD
1000
ASC_BOUNDS
1002
{
1070
    19
1005
1B80
1002
}
  0
ARC
  5
E0E
  8
CFM450
 10
1262.7227494219619
 20
3436.070301632752
 30
0.0
 40
130.13017486449999
 50
273.15192829978241
 51
3.1519279856080331
1001
ACAD
1000
ASC_BOUNDS
1002
{
1070
    19
1005
1B80
1002
}
  0
ARC
  5
E0F
  8
CFM450
 10
1000.068451167626
 20
3847.0043830970262
 30
0.0
 40
130.13017486449999
 50
93.15192829978244
 51
183.15192798560801
1001
ACAD
1000
ASC_BOUNDS
1002
{
1070
    19
1005
1B80
1002
}
  0
ARC
  5
E10
  8
CFM450
 10
1239.392796136533
 20
3860.1697521460469
 30
0.0
 40
130.13017486449999
 50
3.145472034858666
 51
93.145471720687084
1001
ACAD
1000
ASC_BOUNDS
1002
{
1070
    19
1005
1B80
1002
}
  0
LINE
  5
E11
  8
CFM450
 10
793.76759452933754
 20
3262.4199347924318
 30
0.0
 11
833.70720828828053
 21
3264.617035788403
 31
0.0
  0
LINE
  5
14A6
  8
CFM450
 10
5779.9386508261641
 20
3621.8764586229099
 30
0.0
 11
5792.1610378440319
 21
3399.693947395192
 31
0.0
1001
ACAD
1000
ASC_BOUNDS
1002
{
1070
    19
1005
1B80
1002
}
  0
LINE
  5
14BA
  8
CFM450
 10
3758.0236105068939
 20
3603.408649667505
 30
0.0
 11
3744.7382490032219
 21
3844.9142554986229
 31
0.0
1001
ACAD
1000
ASC_BOUNDS
1002
{
1070
    19
1005
1B94
1005
1B80
1002
}
  0
LINE
  5
14BB
  8
CFM450
 10
3435.3401174699361
 20
3793.6722731364448
 30
0.0
 11
3447.2941849936142
 21
3567.9120917659438
 31
0.0
1001
ACAD
1000
ASC_BOUNDS
1002
{
1070
    19
1005
1B94
1005
1B80
1002
}
  0
LINE
  5
14BC
  8
CFM450
 10
3561.3354148128019
 20
3474.2103416189352
 30
0.0
 11
3772.2047328997041
 21
3504.4192776739401
 31
0.0
1001
ACAD
1000
ASC_BOUNDS
1002
{
1070
    19
1005
1B94
1005
1B80
1002
}
  0
LINE
  5
14BD
  8
CFM450
 10
3561.4826555471918
 20
3825.163771274249
 30
0.0
 11
3744.7382490032219
 21
3844.9142554986229
 31
0.0
1001
ACAD
1000
ASC_BOUNDS
1002
{
1070
    19
1005
1B94
1005
1B80
1002
}
  0
POLYLINE
  8
CFM450
  5
2EEE
  66
     1
 10
0.000000
 20
0.000000
 30
0.000000
  70
     8
  0
VERTEX
  8
CFM450
  5
2EEF
 10
3561.48
 20
3825.16
 30
0.000000
  70
    32
  0
VERTEX
  8
CFM450
  5
2EF0
 10
3561.24
 20
3825.14
 30
0.000000
  70
    32
  0
VERTEX
  8
CFM450
  5
2EF1
 10
3560.99
 20
3825.11
 30
0.000000
  70
    32
  0
VERTEX
  8
CFM450
  5
2EF2
 10
3560.75
 20
3825.07
 30
0.000000
  70
    32
  0
VERTEX
  8
CFM450
  5
2EF3
 10
3560.50
 20
3825.04
 30
0.000000
  70
    32
  0
VERTEX
  8
CFM450
  5
2EF4
 10
3560.26
 20
3825.00
 30
0.000000
  70
    32
  0
VERTEX
  8
CFM450
  5
2EF5
 10
3560.01
 20
3824.96
 30
0.000000
  70
    32
  0
VERTEX
  8
CFM450
  5
2EF6
 10
3559.77
 20
3824.92
 30
0.000000
  70
    32
  0
VERTEX
  8
CFM450
  5
2EF7
 10
3559.52
 20
3824.88
 30
0.000000
  70
    32
  0
VERTEX
  8
CFM450
  5
2EF8
 10
3559.28
 20
3824.84
 30
0.000000
  70
    32
  0
VERTEX
  8
CFM450
  5
2EF9
 10
3559.03
 20
3824.79
 30
0.000000
  70
    32
  0
VERTEX
  8
CFM450
  5
2EFA
 10
3558.79
 20
3824.74
 30
0.000000
  70
    32
  0
VERTEX
  8
CFM450
  5
2EFB
 10
3558.54
 20
3824.69
 30
0.000000
  70
    32
  0
VERTEX
  8
CFM450
  5
2EFC
 10
3558.30
 20
3824.64
 30
0.000000
  70
    32
  0
VERTEX
  8
CFM450
  5
2EFD
 10
3558.06
 20
3824.58
 30
0.000000
  70
    32
  0
VERTEX
  8
CFM450
  5
2EFE
 10
3557.82
 20
3824.52
 30
0.000000
  70
    32
  0
VERTEX
  8
CFM450
  5
2EFF
 10
3557.57
 20
3824.46
 30
0.000000
  70
    32
  0
VERTEX
  8
CFM450
  5
2F00
 10
3557.33
 20
3824.40
 30
0.000000
  70
    32
  0
VERTEX
  8
CFM450
  5
2F01
 10
3557.09
 20
3824.34
 30
0.000000
  70
    32
  0
VERTEX
  8
CFM450
  5
2F02
 10
3556.85
 20
3824.27
 30
0.000000
  70
    32
  0
VERTEX
  8
CFM450
  5
2F03
 10
3556.61
 20
3824.20
 30
0.000000
  70
    32
  0
VERTEX
  8
CFM450
  5
2F04
 10
3556.37
 20
3824.13
 30
0.000000
  70
    32
  0
VERTEX
  8
CFM450
  5
2F05
 10
3556.13
 20
3824.06
 30
0.000000
  70
    32
  0
VERTEX
  8
CFM450
  5
2F06
 10
3555.89
 20
3823.99
 30
0.000000
  70
    32
  0
VERTEX
  8
CFM450
  5
2F07
 10
3555.65
 20
3823.91
 30
0.000000
  70
    32
  0
VERTEX
  8
CFM450
  5
2F08
 10
3555.41
 20
3823.83
 30
0.000000
  70
    32
  0
VERTEX
  8
CFM450
  5
2F09
 10
3555.18
 20
3823.75
 30
0.000000
  70
    32
  0
VERTEX
  8
CFM450
  5
2F0A
 10
3554.94
 20
3823.67
 30
0.000000
  70
    32
  0
VERTEX
  8
CFM450
  5
2F0B
 10
3554.70
 20
3823.59
 30
0.000000
  70
    32
  0
VERTEX
  8
CFM450
  5
2F0C
 10
3554.47
 20
3823.50
 30
0.000000
  70
    32
  0
VERTEX
  8
CFM450
  5
2F0D
 10
3554.23
 20
3823.41
 30
0.000000
  70
    32
  0
VERTEX
  8
CFM450
  5
2F0E
 10
3554.00
 20
3823.32
 30
0.000000
  70
    32
  0
VERTEX
  8
CFM450
  5
2F0F
 10
3553.76
 20
3823.23
 30
0.000000
  70
    32
  0
VERTEX
  8
CFM450
  5
2F10
 10
3553.53
 20
3823.14
 30
0.000000
  70
    32
  0
VERTEX
  8
CFM450
  5
2F11
 10
3553.30
 20
3823.04
 30
0.000000
  70
    32
  0
VERTEX
  8
CFM450
  5
2F12
 10
3553.07
 20
3822.94
 30
0.000000
  70
    32
  0
VERTEX
  8
CFM450
  5
2F13
 10
3552.84
 20
3822.84
 30
0.000000
  70
    32
  0
VERTEX
  8
CFM450
  5
2F14
 10
3552.61
 20
3822.74
 30
0.000000
  70
    32
  0
VERTEX
  8
CFM450
  5
2F15
 10
3552.38
 20
3822.64
 30
0.000000
  70
    32
  0
VERTEX
  8
CFM450
  5
2F16
 10
3552.15
 20
3822.53
 30
0.000000
  70
    32
  0
VERTEX
  8
CFM450
  5
2F17
 10
3551.92
 20
3822.43
 30
0.000000
  70
    32
  0
VERTEX
  8
CFM450
  5
2F18
 10
3551.69
 20
3822.32
 30
0.000000
  70
    32
  0
VERTEX
  8
CFM450
  5
2F19
 10
3551.47
 20
3822.20
 30
0.000000
  70
    32
  0
VERTEX
  8
CFM450
  5
2F1A
 10
3551.24
 20
3822.09
 30
0.000000
  70
    32
  0
VERTEX
  8
CFM450
  5
2F1B
 10
3551.02
 20
3821.98
 30
0.000000
  70
    32
  0
VERTEX
  8
CFM450
  5
2F1C
 10
3550.80
 20
3821.86
 30
0.000000
  70
    32
  0
VERTEX
  8
CFM450
  5
2F1D
 10
3550.57
 20
3821.74
 30
0.000000
  70
    32
  0
VERTEX
  8
CFM450
  5
2F1E
 10
3550.35
 20
3821.62
 30
0.000000
  70
    32
  0
VERTEX
  8
CFM450
  5
2F1F
 10
3550.13
 20
3821.50
 30
0.000000
  70
    32
  0
VERTEX
  8
CFM450
  5
2F20
 10
3549.91
 20
3821.37
 30
0.000000
  70
    32
  0
VERTEX
  8
CFM450
  5
2F21
 10
3549.69
 20
3821.24
 30
0.000000
  70
    32
  0
VERTEX
  8
CFM450
  5
2F22
 10
3549.48
 20
3821.11
 30
0.000000
  70
    32
  0
VERTEX
  8
CFM450
  5
2F23
 10
3549.26
 20
3820.98
 30
0.000000
  70
    32
  0
VERTEX
  8
CFM450
  5
2F24
 10
3549.05
 20
3820.85
 30
0.000000
  70
    32
  0
VERTEX
  8
CFM450
  5
2F25
 10
3548.83
 20
3820.72
 30
0.000000
  70
    32
  0
VERTEX
  8
CFM450
  5
2F26
 10
3548.62
 20
3820.58
 30
0.000000
  70
    32
  0
VERTEX
  8
CFM450
  5
2F27
 10
3548.41
 20
3820.44
 30
0.000000
  70
    32
  0
VERTEX
  8
CFM450
  5
2F28
 10
3548.20
 20
3820.30
 30
0.000000
  70
    32
  0
VERTEX
  8
CFM450
  5
2F29
 10
3547.99
 20
3820.16
 30
0.000000
  70
    32
  0
VERTEX
  8
CFM450
  5
2F2A
 10
3547.78
 20
3820.02
 30
0.000000
  70
    32
  0
VERTEX
  8
CFM450
  5
2F2B
 10
3547.57
 20
3819.87
 30
0.000000
  70
    32
  0
VERTEX
  8
CFM450
  5
2F2C
 10
3547.37
 20
3819.73
 30
0.000000
  70
    32
  0
VERTEX
  8
CFM450
  5
2F2D
 10
3547.16
 20
3819.58
 30
0.000000
  70
    32
  0
VERTEX
  8
CFM450
  5
2F2E
 10
3546.96
 20
3819.43
 30
0.000000
  70
    32
  0
VERTEX
  8
CFM450
  5
2F2F
 10
3546.76
 20
3819.28
 30
0.000000
  70
    32
  0
VERTEX
  8
CFM450
  5
2F30
 10
3546.56
 20
3819.12
 30
0.000000
  70
    32
  0
VERTEX
  8
CFM450
  5
2F31
 10
3546.36
 20
3818.97
 30
0.000000
  70
    32
  0
VERTEX
  8
CFM450
  5
2F32
 10
3546.16
 20
3818.81
 30
0.000000
  70
    32
  0
VERTEX
  8
CFM450
  5
2F33
 10
3545.96
 20
3818.65
 30
0.000000
  70
    32
  0
VERTEX
  8
CFM450
  5
2F34
 10
3545.77
 20
3818.49
 30
0.000000
  70
    32
  0
VERTEX
  8
CFM450
  5
2F35
 10
3545.58
 20
3818.32
 30
0.000000
  70
    32
  0
VERTEX
  8
CFM450
  5
2F36
 10
3545.38
 20
3818.16
 30
0.000000
  70
    32
  0
VERTEX
  8
CFM450
  5
2F37
 10
3545.19
 20
3817.99
 30
0.000000
  70
    32
  0
VERTEX
  8
CFM450
  5
2F38
 10
3545.00
 20
3817.82
 30
0.000000
  70
    32
  0
VERTEX
  8
CFM450
  5
2F39
 10
3544.82
 20
3817.65
 30
0.000000
  70
    32
  0
VERTEX
  8
CFM450
  5
2F3A
 10
3544.63
 20
3817.48
 30
0.000000
  70
    32
  0
VERTEX
  8
CFM450
  5
2F3B
 10
3544.45
 20
3817.31
 30
0.000000
  70
    32
  0
VERTEX
  8
CFM450
  5
2F3C
 10
3544.26
 20
3817.13
 30
0.000000
  70
    32
  0
VERTEX
  8
CFM450
  5
2F3D
 10
3544.08
 20
3816.96
 30
0.000000
  70
    32
  0
VERTEX
  8
CFM450
  5
2F3E
 10
3543.90
 20
3816.78
 30
0.000000
  70
    32
  0
VERTEX
  8
CFM450
  5
2F3F
 10
3543.72
 20
3816.60
 30
0.000000
  70
    32
  0
VERTEX
  8
CFM450
  5
2F40
 10
3543.54
 20
3816.42
 30
0.000000
  70
    32
  0
VERTEX
  8
CFM450
  5
2F41
 10
3543.37
 20
3816.23
 30
0.000000
  70
    32
  0
VERTEX
  8
CFM450
  5
2F42
 10
3543.20
 20
3816.05
 30
0.000000
  70
    32
  0
VERTEX
  8
CFM450
  5
2F43
 10
3543.02
 20
3815.86
 30
0.000000
  70
    32
  0
VERTEX
  8
CFM450
  5
2F44
 10
3542.85
 20
3815.68
 30
0.000000
  70
    32
  0
VERTEX
  8
CFM450
  5
2F45
 10
3542.68
 20
3815.49
 30
0.000000
  70
    32
  0
VERTEX
  8
CFM450
  5
2F46
 10
3542.52
 20
3815.30
 30
0.000000
  70
    32
  0
VERTEX
  8
CFM450
  5
2F47
 10
3542.35
 20
3815.10
 30
0.000000
  70
    32
  0
VERTEX
  8
CFM450
  5
2F48
 10
3542.19
 20
3814.91
 30
0.000000
  70
    32
  0
VERTEX
  8
CFM450
  5
2F49
 10
3542.02
 20
3814.72
 30
0.000000
  70
    32
  0
VERTEX
  8
CFM450
  5
2F4A
 10
3541.86
 20
3814.52
 30
0.000000
  70
    32
  0
VERTEX
  8
CFM450
  5
2F4B
 10
3541.70
 20
3814.32
 30
0.000000
  70
    32
  0
VERTEX
  8
CFM450
  5
2F4C
 10
3541.54
 20
3814.12
 30
0.000000
  70
    32
  0
VERTEX
  8
CFM450
  5
2F4D
 10
3541.39
 20
3813.92
 30
0.000000
  70
    32
  0
VERTEX
  8
CFM450
  5
2F4E
 10
3541.23
 20
3813.72
 30
0.000000
  70
    32
  0
VERTEX
  8
CFM450
  5
2F4F
 10
3541.08
 20
3813.52
 30
0.000000
  70
    32
  0
VERTEX
  8
CFM450
  5
2F50
 10
3540.93
 20
3813.31
 30
0.000000
  70
    32
  0
VERTEX
  8
CFM450
  5
2F51
 10
3540.78
 20
3813.11
 30
0.000000
  70
    32
  0
VERTEX
  8
CFM450
  5
2F52
 10
3540.63
 20
3812.90
 30
0.000000
  70
    32
  0
VERTEX
  8
CFM450
  5
2F53
 10
3540.49
 20
3812.69
 30
0.000000
  70
    32
  0
VERTEX
  8
CFM450
  5
2F54
 10
3540.34
 20
3812.48
 30
0.000000
  70
    32
  0
VERTEX
  8
CFM450
  5
2F55
 10
3540.20
 20
3812.27
 30
0.000000
  70
    32
  0
VERTEX
  8
CFM450
  5
2F56
 10
3540.06
 20
3812.06
 30
0.000000
  70
    32
  0
VERTEX
  8
CFM450
  5
2F57
 10
3539.92
 20
3811.85
 30
0.000000
  70
    32
  0
VERTEX
  8
CFM450
  5
2F58
 10
3539.78
 20
3811.63
 30
0.000000
  70
    32
  0
VERTEX
  8
CFM450
  5
2F59
 10
3539.65
 20
3811.42
 30
0.000000
  70
    32
  0
VERTEX
  8
CFM450
  5
2F5A
 10
3539.51
 20
3811.20
 30
0.000000
  70
    32
  0
VERTEX
  8
CFM450
  5
2F5B
 10
3539.38
 20
3810.99
 30
0.000000
  70
    32
  0
VERTEX
  8
CFM450
  5
2F5C
 10
3539.25
 20
3810.77
 30
0.000000
  70
    32
  0
VERTEX
  8
CFM450
  5
2F5D
 10
3539.12
 20
3810.55
 30
0.000000
  70
    32
  0
VERTEX
  8
CFM450
  5
2F5E
 10
3539.00
 20
3810.33
 30
0.000000
  70
    32
  0
VERTEX
  8
CFM450
  5
2F5F
 10
3538.87
 20
3810.11
 30
0.000000
  70
    32
  0
VERTEX
  8
CFM450
  5
2F60
 10
3538.75
 20
3809.88
 30
0.000000
  70
    32
  0
VERTEX
  8
CFM450
  5
2F61
 10
3538.63
 20
3809.66
 30
0.000000
  70
    32
  0
VERTEX
  8
CFM450
  5
2F62
 10
3538.51
 20
3809.44
 30
0.000000
  70
    32
  0
VERTEX
  8
CFM450
  5
2F63
 10
3538.39
 20
3809.21
 30
0.000000
  70
    32
  0
VERTEX
  8
CFM450
  5
2F64
 10
3538.27
 20
3808.99
 30
0.000000
  70
    32
  0
VERTEX
  8
CFM450
  5
2F65
 10
3538.16
 20
3808.76
 30
0.000000
  70
    32
  0
VERTEX
  8
CFM450
  5
2F66
 10
3538.05
 20
3808.53
 30
0.000000
  70
    32
  0
VERTEX
  8
CFM450
  5
2F67
 10
3537.94
 20
3808.30
 30
0.000000
  70
    32
  0
VERTEX
  8
CFM450
  5
2F68
 10
3537.83
 20
3808.07
 30
0.000000
  70
    32
  0
VERTEX
  8
CFM450
  5
2F69
 10
3537.72
 20
3807.84
 30
0.000000
  70
    32
  0
VERTEX
  8
CFM450
  5
2F6A
 10
3537.62
 20
3807.61
 30
0.000000
  70
    32
  0
VERTEX
  8
CFM450
  5
2F6B
 10
3537.52
 20
3807.38
 30
0.000000
  70
    32
  0
VERTEX
  8
CFM450
  5
2F6C
 10
3537.42
 20
3807.15
 30
0.000000
  70
    32
  0
VERTEX
  8
CFM450
  5
2F6D
 10
3537.32
 20
3806.92
 30
0.000000
  70
    32
  0
VERTEX
  8
CFM450
  5
2F6E
 10
3537.22
 20
3806.68
 30
0.000000
  70
    32
  0
VERTEX
  8
CFM450
  5
2F6F
 10
3537.13
 20
3806.45
 30
0.000000
  70
    32
  0
VERTEX
  8
CFM450
  5
2F70
 10
3537.03
 20
3806.21
 30
0.000000
  70
    32
  0
VERTEX
  8
CFM450
  5
2F71
 10
3536.94
 20
3805.98
 30
0.000000
  70
    32
  0
VERTEX
  8
CFM450
  5
2F72
 10
3536.86
 20
3805.74
 30
0.000000
  70
    32
  0
VERTEX
  8
CFM450
  5
2F73
 10
3536.77
 20
3805.51
 30
0.000000
  70
    32
  0
VERTEX
  8
CFM450
  5
2F74
 10
3536.68
 20
3805.27
 30
0.000000
  70
    32
  0
VERTEX
  8
CFM450
  5
2F75
 10
3536.60
 20
3805.03
 30
0.000000
  70
    32
  0
VERTEX
  8
CFM450
  5
2F76
 10
3536.52
 20
3804.79
 30
0.000000
  70
    32
  0
VERTEX
  8
CFM450
  5
2F77
 10
3536.44
 20
3804.55
 30
0.000000
  70
    32
  0
VERTEX
  8
CFM450
  5
2F78
 10
3536.36
 20
3804.31
 30
0.000000
  70
    32
  0
VERTEX
  8
CFM450
  5
2F79
 10
3536.29
 20
3804.07
 30
0.000000
  70
    32
  0
VERTEX
  8
CFM450
  5
2F7A
 10
3536.22
 20
3803.83
 30
0.000000
  70
    32
  0
VERTEX
  8
CFM450
  5
2F7B
 10
3536.15
 20
3803.59
 30
0.000000
  70
    32
  0
VERTEX
  8
CFM450
  5
2F7C
 10
3536.08
 20
3803.35
 30
0.000000
  70
    32
  0
VERTEX
  8
CFM450
  5
2F7D
 10
3536.01
 20
3803.11
 30
0.000000
  70
    32
  0
VERTEX
  8
CFM450
  5
2F7E
 10
3535.95
 20
3802.87
 30
0.000000
  70
    32
  0
VERTEX
  8
CFM450
  5
2F7F
 10
3535.88
 20
3802.63
 30
0.000000
  70
    32
  0
VERTEX
  8
CFM450
  5
2F80
 10
3535.82
 20
3802.38
 30
0.000000
  70
    32
  0
VERTEX
  8
CFM450
  5
2F81
 10
3535.76
 20
3802.14
 30
0.000000
  70
    32
  0
VERTEX
  8
CFM450
  5
2F82
 10
3535.71
 20
3801.90
 30
0.000000
  70
    32
  0
VERTEX
  8
CFM450
  5
2F83
 10
3535.65
 20
3801.65
 30
0.000000
  70
    32
  0
VERTEX
  8
CFM450
  5
2F84
 10
3535.60
 20
3801.41
 30
0.000000
  70
    32
  0
VERTEX
  8
CFM450
  5
2F85
 10
3535.55
 20
3801.16
 30
0.000000
  70
    32
  0
VERTEX
  8
CFM450
  5
2F86
 10
3535.50
 20
3800.92
 30
0.000000
  70
    32
  0
VERTEX
  8
CFM450
  5
2F87
 10
3535.46
 20
3800.68
 30
0.000000
  70
    32
  0
VERTEX
  8
CFM450
  5
2F88
 10
3535.42
 20
3800.43
 30
0.000000
  70
    32
  0
VERTEX
  8
CFM450
  5
2F89
 10
3535.37
 20
3800.19
 30
0.000000
  70
    32
  0
VERTEX
  8
CFM450
  5
2F8A
 10
3535.33
 20
3799.94
 30
0.000000
  70
    32
  0
VERTEX
  8
CFM450
  5
2F8B
 10
3535.30
 20
3799.70
 30
0.000000
  70
    32
  0
VERTEX
  8
CFM450
  5
2F8C
 10
3535.26
 20
3799.45
 30
0.000000
  70
    32
  0
VERTEX
  8
CFM450
  5
2F8D
 10
3535.23
 20
3799.21
 30
0.000000
  70
    32
  0
VERTEX
  8
CFM450
  5
2F8E
 10
3535.20
 20
3798.96
 30
0.000000
  70
    32
  0
SEQEND
  8
CFM450
  5
2F8F
  0
LINE
  5
14BF
  8
CFM450
 10
3772.2047328997041
 20
3504.4192776739401
 30
0.0
 11
3758.0236105068939
 21
3603.408649667505
 31
0.0
1001
ACAD
1000
ASC_BOUNDS
1002
{
1070
    19
1005
1B94
1005
1B80
1002
}
  0
LINE
  5
14C0
  8
CFM450
 10
3561.3354148128019
 20
3474.2103416189352
 30
0.0
 11
3547.154292419993
 21
3573.1997136124992
 31
0.0
1001
ACAD
1000
ASC_BOUNDS
1002
{
1070
    19
1005
1B94
1005
1B80
1002
}
  0
LINE
  5
14C1
  8
CFM450
 10
3547.154292419993
 20
3573.1997136124992
 30
0.0
 11
3447.2941849936142
 21
3567.9120917659438
 31
0.0
1001
ACAD
1000
ASC_BOUNDS
1002
{
1070
    19
1005
1B94
1005
1B80
1002
}
  0
LINE
  5
14C2
  8
CFM450
 10
3535.2002248963149
 20
3798.959894982996
 30
0.0
 11
3435.3401174699361
 21
3793.6722731364448
 31
0.0
1001
ACAD
1000
ASC_BOUNDS
1002
{
1070
    19
1005
1B94
1005
1B80
1002
}
  0
LINE
  5
14C3
  8
CFM450
 10
1233.548700486964
 20
3562.1329971419709
 30
0.0
 11
1220.263338983292
 21
3803.6386029730879
 31
0.0
1001
ACAD
1000
ASC_BOUNDS
1002
{
1070
    19
1005
1B94
1005
1B80
1002
}
  0
LINE
  5
14C4
  8
CFM450
 10
1010.725314876385
 20
3757.684242457467
 30
0.0
 11
1022.679382400063
 21
3531.924061086966
 31
0.0
1001
ACAD
1000
ASC_BOUNDS
1002
{
1070
    19
1005
1B94
1005
1B80
1002
}
  0
LINE
  5
14C5
  8
CFM450
 10
1022.679382400063
 20
3531.924061086966
 30
0.0
 11
1233.548700486964
 21
3562.1329971419709
 31
0.0
1001
ACAD
1000
ASC_BOUNDS
1002
{
1070
    19
1005
1B94
1005
1B80
1002
}
  0
LINE
  5
14C6
  8
CFM450
 10
1037.0077455272581
 20
3783.888118748715
 30
0.0
 11
1220.263338983292
 21
3803.6386029730879
 31
0.0
1001
ACAD
1000
ASC_BOUNDS
1002
{
1070
    19
1005
1B94
1005
1B80
1002
}
  0
POLYLINE
  8
CFM450
  5
2F90
  66
     1
 10
0.000000
 20
0.000000
 30
0.000000
  70
     8
  0
VERTEX
  8
CFM450
  5
2F91
 10
1037.01
 20
3783.89
 30
0.000000
  70
    32
  0
VERTEX
  8
CFM450
  5
2F92
 10
1036.76
 20
3783.86
 30
0.000000
  70
    32
  0
VERTEX
  8
CFM450
  5
2F93
 10
1036.52
 20
3783.83
 30
0.000000
  70
    32
  0
VERTEX
  8
CFM450
  5
2F94
 10
1036.27
 20
3783.80
 30
0.000000
  70
    32
  0
VERTEX
  8
CFM450
  5
2F95
 10
1036.03
 20
3783.76
 30
0.000000
  70
    32
  0
VERTEX
  8
CFM450
  5
2F96
 10
1035.78
 20
3783.73
 30
0.000000
  70
    32
  0
VERTEX
  8
CFM450
  5
2F97
 10
1035.54
 20
3783.69
 30
0.000000
  70
    32
  0
VERTEX
  8
CFM450
  5
2F98
 10
1035.29
 20
3783.65
 30
0.000000
  70
    32
  0
VERTEX
  8
CFM450
  5
2F99
 10
1035.05
 20
3783.61
 30
0.000000
  70
    32
  0
VERTEX
  8
CFM450
  5
2F9A
 10
1034.80
 20
3783.56
 30
0.000000
  70
    32
  0
VERTEX
  8
CFM450
  5
2F9B
 10
1034.56
 20
3783.51
 30
0.000000
  70
    32
  0
VERTEX
  8
CFM450
  5
2F9C
 10
1034.31
 20
3783.46
 30
0.000000
  70
    32
  0
VERTEX
  8
CFM450
  5
2F9D
 10
1034.07
 20
3783.41
 30
0.000000
  70
    32
  0
VERTEX
  8
CFM450
  5
2F9E
 10
1033.83
 20
3783.36
 30
0.000000
  70
    32
  0
VERTEX
  8
CFM450
  5
2F9F
 10
1033.58
 20
3783.30
 30
0.000000
  70
    32
  0
VERTEX
  8
CFM450
  5
2FA0
 10
1033.34
 20
3783.25
 30
0.000000
  70
    32
  0
VERTEX
  8
CFM450
  5
2FA1
 10
1033.10
 20
3783.19
 30
0.000000
  70
    32
  0
VERTEX
  8
CFM450
  5
2FA2
 10
1032.86
 20
3783.13
 30
0.000000
  70
    32
  0
VERTEX
  8
CFM450
  5
2FA3
 10
1032.62
 20
3783.06
 30
0.000000
  70
    32
  0
VERTEX
  8
CFM450
  5
2FA4
 10
1032.37
 20
3783.00
 30
0.000000
  70
    32
  0
VERTEX
  8
CFM450
  5
2FA5
 10
1032.13
 20
3782.93
 30
0.000000
  70
    32
  0
VERTEX
  8
CFM450
  5
2FA6
 10
1031.89
 20
3782.86
 30
0.000000
  70
    32
  0
VERTEX
  8
CFM450
  5
2FA7
 10
1031.65
 20
3782.79
 30
0.000000
  70
    32
  0
VERTEX
  8
CFM450
  5
2FA8
 10
1031.42
 20
3782.71
 30
0.000000
  70
    32
  0
VERTEX
  8
CFM450
  5
2FA9
 10
1031.18
 20
3782.64
 30
0.000000
  70
    32
  0
VERTEX
  8
CFM450
  5
2FAA
 10
1030.94
 20
3782.56
 30
0.000000
  70
    32
  0
VERTEX
  8
CFM450
  5
2FAB
 10
1030.70
 20
3782.48
 30
0.000000
  70
    32
  0
VERTEX
  8
CFM450
  5
2FAC
 10
1030.46
 20
3782.40
 30
0.000000
  70
    32
  0
VERTEX
  8
CFM450
  5
2FAD
 10
1030.23
 20
3782.31
 30
0.000000
  70
    32
  0
VERTEX
  8
CFM450
  5
2FAE
 10
1029.99
 20
3782.23
 30
0.000000
  70
    32
  0
VERTEX
  8
CFM450
  5
2FAF
 10
1029.76
 20
3782.14
 30
0.000000
  70
    32
  0
VERTEX
  8
CFM450
  5
2FB0
 10
1029.52
 20
3782.05
 30
0.000000
  70
    32
  0
VERTEX
  8
CFM450
  5
2FB1
 10
1029.29
 20
3781.96
 30
0.000000
  70
    32
  0
VERTEX
  8
CFM450
  5
2FB2
 10
1029.06
 20
3781.86
 30
0.000000
  70
    32
  0
VERTEX
  8
CFM450
  5
2FB3
 10
1028.82
 20
3781.77
 30
0.000000
  70
    32
  0
VERTEX
  8
CFM450
  5
2FB4
 10
1028.59
 20
3781.67
 30
0.000000
  70
    32
  0
VERTEX
  8
CFM450
  5
2FB5
 10
1028.36
 20
3781.57
 30
0.000000
  70
    32
  0
VERTEX
  8
CFM450
  5
2FB6
 10
1028.13
 20
3781.47
 30
0.000000
  70
    32
  0
VERTEX
  8
CFM450
  5
2FB7
 10
1027.90
 20
3781.36
 30
0.000000
  70
    32
  0
VERTEX
  8
CFM450
  5
2FB8
 10
1027.67
 20
3781.26
 30
0.000000
  70
    32
  0
VERTEX
  8
CFM450
  5
2FB9
 10
1027.45
 20
3781.15
 30
0.000000
  70
    32
  0
VERTEX
  8
CFM450
  5
2FBA
 10
1027.22
 20
3781.04
 30
0.000000
  70
    32
  0
VERTEX
  8
CFM450
  5
2FBB
 10
1026.99
 20
3780.93
 30
0.000000
  70
    32
  0
VERTEX
  8
CFM450
  5
2FBC
 10
1026.77
 20
3780.82
 30
0.000000
  70
    32
  0
VERTEX
  8
CFM450
  5
2FBD
 10
1026.54
 20
3780.70
 30
0.000000
  70
    32
  0
VERTEX
  8
CFM450
  5
2FBE
 10
1026.32
 20
3780.58
 30
0.000000
  70
    32
  0
VERTEX
  8
CFM450
  5
2FBF
 10
1026.10
 20
3780.46
 30
0.000000
  70
    32
  0
VERTEX
  8
CFM450
  5
2FC0
 10
1025.88
 20
3780.34
 30
0.000000
  70
    32
  0
VERTEX
  8
CFM450
  5
2FC1
 10
1025.66
 20
3780.22
 30
0.000000
  70
    32
  0
VERTEX
  8
CFM450
  5
2FC2
 10
1025.44
 20
3780.09
 30
0.000000
  70
    32
  0
VERTEX
  8
CFM450
  5
2FC3
 10
1025.22
 20
3779.97
 30
0.000000
  70
    32
  0
VERTEX
  8
CFM450
  5
2FC4
 10
1025.00
 20
3779.84
 30
0.000000
  70
    32
  0
VERTEX
  8
CFM450
  5
2FC5
 10
1024.79
 20
3779.71
 30
0.000000
  70
    32
  0
VERTEX
  8
CFM450
  5
2FC6
 10
1024.57
 20
3779.58
 30
0.000000
  70
    32
  0
VERTEX
  8
CFM450
  5
2FC7
 10
1024.36
 20
3779.44
 30
0.000000
  70
    32
  0
VERTEX
  8
CFM450
  5
2FC8
 10
1024.14
 20
3779.31
 30
0.000000
  70
    32
  0
VERTEX
  8
CFM450
  5
2FC9
 10
1023.93
 20
3779.17
 30
0.000000
  70
    32
  0
VERTEX
  8
CFM450
  5
2FCA
 10
1023.72
 20
3779.03
 30
0.000000
  70
    32
  0
VERTEX
  8
CFM450
  5
2FCB
 10
1023.51
 20
3778.89
 30
0.000000
  70
    32
  0
VERTEX
  8
CFM450
  5
2FCC
 10
1023.30
 20
3778.74
 30
0.000000
  70
    32
  0
VERTEX
  8
CFM450
  5
2FCD
 10
1023.10
 20
3778.60
 30
0.000000
  70
    32
  0
VERTEX
  8
CFM450
  5
2FCE
 10
1022.89
 20
3778.45
 30
0.000000
  70
    32
  0
VERTEX
  8
CFM450
  5
2FCF
 10
1022.69
 20
3778.30
 30
0.000000
  70
    32
  0
VERTEX
  8
CFM450
  5
2FD0
 10
1022.48
 20
3778.15
 30
0.000000
  70
    32
  0
VERTEX
  8
CFM450
  5
2FD1
 10
1022.28
 20
3778.00
 30
0.000000
  70
    32
  0
VERTEX
  8
CFM450
  5
2FD2
 10
1022.08
 20
3777.85
 30
0.000000
  70
    32
  0
VERTEX
  8
CFM450
  5
2FD3
 10
1021.88
 20
3777.69
 30
0.000000
  70
    32
  0
VERTEX
  8
CFM450
  5
2FD4
 10
1021.69
 20
3777.53
 30
0.000000
  70
    32
  0
VERTEX
  8
CFM450
  5
2FD5
 10
1021.49
 20
3777.37
 30
0.000000
  70
    32
  0
VERTEX
  8
CFM450
  5
2FD6
 10
1021.29
 20
3777.21
 30
0.000000
  70
    32
  0
VERTEX
  8
CFM450
  5
2FD7
 10
1021.10
 20
3777.05
 30
0.000000
  70
    32
  0
VERTEX
  8
CFM450
  5
2FD8
 10
1020.91
 20
3776.88
 30
0.000000
  70
    32
  0
VERTEX
  8
CFM450
  5
2FD9
 10
1020.72
 20
3776.72
 30
0.000000
  70
    32
  0
VERTEX
  8
CFM450
  5
2FDA
 10
1020.53
 20
3776.55
 30
0.000000
  70
    32
  0
VERTEX
  8
CFM450
  5
2FDB
 10
1020.34
 20
3776.38
 30
0.000000
  70
    32
  0
VERTEX
  8
CFM450
  5
2FDC
 10
1020.15
 20
3776.21
 30
0.000000
  70
    32
  0
VERTEX
  8
CFM450
  5
2FDD
 10
1019.97
 20
3776.03
 30
0.000000
  70
    32
  0
VERTEX
  8
CFM450
  5
2FDE
 10
1019.79
 20
3775.86
 30
0.000000
  70
    32
  0
VERTEX
  8
CFM450
  5
2FDF
 10
1019.61
 20
3775.68
 30
0.000000
  70
    32
  0
VERTEX
  8
CFM450
  5
2FE0
 10
1019.43
 20
3775.50
 30
0.000000
  70
    32
  0
VERTEX
  8
CFM450
  5
2FE1
 10
1019.25
 20
3775.32
 30
0.000000
  70
    32
  0
VERTEX
  8
CFM450
  5
2FE2
 10
1019.07
 20
3775.14
 30
0.000000
  70
    32
  0
VERTEX
  8
CFM450
  5
2FE3
 10
1018.89
 20
3774.96
 30
0.000000
  70
    32
  0
VERTEX
  8
CFM450
  5
2FE4
 10
1018.72
 20
3774.77
 30
0.000000
  70
    32
  0
VERTEX
  8
CFM450
  5
2FE5
 10
1018.55
 20
3774.59
 30
0.000000
  70
    32
  0
VERTEX
  8
CFM450
  5
2FE6
 10
1018.38
 20
3774.40
 30
0.000000
  70
    32
  0
VERTEX
  8
CFM450
  5
2FE7
 10
1018.21
 20
3774.21
 30
0.000000
  70
    32
  0
VERTEX
  8
CFM450
  5
2FE8
 10
1018.04
 20
3774.02
 30
0.000000
  70
    32
  0
VERTEX
  8
CFM450
  5
2FE9
 10
1017.87
 20
3773.83
 30
0.000000
  70
    32
  0
VERTEX
  8
CFM450
  5
2FEA
 10
1017.71
 20
3773.63
 30
0.000000
  70
    32
  0
VERTEX
  8
CFM450
  5
2FEB
 10
1017.55
 20
3773.44
 30
0.000000
  70
    32
  0
VERTEX
  8
CFM450
  5
2FEC
 10
1017.39
 20
3773.24
 30
0.000000
  70
    32
  0
VERTEX
  8
CFM450
  5
2FED
 10
1017.23
 20
3773.05
 30
0.000000
  70
    32
  0
VERTEX
  8
CFM450
  5
2FEE
 10
1017.07
 20
3772.85
 30
0.000000
  70
    32
  0
VERTEX
  8
CFM450
  5
2FEF
 10
1016.91
 20
3772.65
 30
0.000000
  70
    32
  0
VERTEX
  8
CFM450
  5
2FF0
 10
1016.76
 20
3772.44
 30
0.000000
  70
    32
  0
VERTEX
  8
CFM450
  5
2FF1
 10
1016.61
 20
3772.24
 30
0.000000
  70
    32
  0
VERTEX
  8
CFM450
  5
2FF2
 10
1016.45
 20
3772.04
 30
0.000000
  70
    32
  0
VERTEX
  8
CFM450
  5
2FF3
 10
1016.31
 20
3771.83
 30
0.000000
  70
    32
  0
VERTEX
  8
CFM450
  5
2FF4
 10
1016.16
 20
3771.62
 30
0.000000
  70
    32
  0
VERTEX
  8
CFM450
  5
2FF5
 10
1016.01
 20
3771.42
 30
0.000000
  70
    32
  0
VERTEX
  8
CFM450
  5
2FF6
 10
1015.87
 20
3771.21
 30
0.000000
  70
    32
  0
VERTEX
  8
CFM450
  5
2FF7
 10
1015.73
 20
3771.00
 30
0.000000
  70
    32
  0
VERTEX
  8
CFM450
  5
2FF8
 10
1015.58
 20
3770.78
 30
0.000000
  70
    32
  0
VERTEX
  8
CFM450
  5
2FF9
 10
1015.45
 20
3770.57
 30
0.000000
  70
    32
  0
VERTEX
  8
CFM450
  5
2FFA
 10
1015.31
 20
3770.36
 30
0.000000
  70
    32
  0
VERTEX
  8
CFM450
  5
2FFB
 10
1015.17
 20
3770.14
 30
0.000000
  70
    32
  0
VERTEX
  8
CFM450
  5
2FFC
 10
1015.04
 20
3769.93
 30
0.000000
  70
    32
  0
VERTEX
  8
CFM450
  5
2FFD
 10
1014.91
 20
3769.71
 30
0.000000
  70
    32
  0
VERTEX
  8
CFM450
  5
2FFE
 10
1014.78
 20
3769.49
 30
0.000000
  70
    32
  0
VERTEX
  8
CFM450
  5
2FFF
 10
1014.65
 20
3769.27
 30
0.000000
  70
    32
  0
VERTEX
  8
CFM450
  5
3000
 10
1014.52
 20
3769.05
 30
0.000000
  70
    32
  0
VERTEX
  8
CFM450
  5
3001
 10
1014.40
 20
3768.83
 30
0.000000
  70
    32
  0
VERTEX
  8
CFM450
  5
3002
 10
1014.27
 20
3768.61
 30
0.000000
  70
    32
  0
VERTEX
  8
CFM450
  5
3003
 10
1014.15
 20
3768.39
 30
0.000000
  70
    32
  0
VERTEX
  8
CFM450
  5
3004
 10
1014.03
 20
3768.16
 30
0.000000
  70
    32
  0
VERTEX
  8
CFM450
  5
3005
 10
1013.92
 20
3767.94
 30
0.000000
  70
    32
  0
VERTEX
  8
CFM450
  5
3006
 10
1013.80
 20
3767.71
 30
0.000000
  70
    32
  0
VERTEX
  8
CFM450
  5
3007
 10
1013.69
 20
3767.48
 30
0.000000
  70
    32
  0
VERTEX
  8
CFM450
  5
3008
 10
1013.57
 20
3767.26
 30
0.000000
  70
    32
  0
VERTEX
  8
CFM450
  5
3009
 10
1013.46
 20
3767.03
 30
0.000000
  70
    32
  0
VERTEX
  8
CFM450
  5
300A
 10
1013.36
 20
3766.80
 30
0.000000
  70
    32
  0
VERTEX
  8
CFM450
  5
300B
 10
1013.25
 20
3766.57
 30
0.000000
  70
    32
  0
VERTEX
  8
CFM450
  5
300C
 10
1013.15
 20
3766.34
 30
0.000000
  70
    32
  0
VERTEX
  8
CFM450
  5
300D
 10
1013.04
 20
3766.11
 30
0.000000
  70
    32
  0
VERTEX
  8
CFM450
  5
300E
 10
1012.94
 20
3765.87
 30
0.000000
  70
    32
  0
VERTEX
  8
CFM450
  5
300F
 10
1012.84
 20
3765.64
 30
0.000000
  70
    32
  0
VERTEX
  8
CFM450
  5
3010
 10
1012.75
 20
3765.41
 30
0.000000
  70
    32
  0
VERTEX
  8
CFM450
  5
3011
 10
1012.65
 20
3765.17
 30
0.000000
  70
    32
  0
VERTEX
  8
CFM450
  5
3012
 10
1012.56
 20
3764.94
 30
0.000000
  70
    32
  0
VERTEX
  8
CFM450
  5
3013
 10
1012.47
 20
3764.70
 30
0.000000
  70
    32
  0
VERTEX
  8
CFM450
  5
3014
 10
1012.38
 20
3764.47
 30
0.000000
  70
    32
  0
VERTEX
  8
CFM450
  5
3015
 10
1012.29
 20
3764.23
 30
0.000000
  70
    32
  0
VERTEX
  8
CFM450
  5
3016
 10
1012.21
 20
3763.99
 30
0.000000
  70
    32
  0
VERTEX
  8
CFM450
  5
3017
 10
1012.13
 20
3763.75
 30
0.000000
  70
    32
  0
VERTEX
  8
CFM450
  5
3018
 10
1012.04
 20
3763.52
 30
0.000000
  70
    32
  0
VERTEX
  8
CFM450
  5
3019
 10
1011.97
 20
3763.28
 30
0.000000
  70
    32
  0
VERTEX
  8
CFM450
  5
301A
 10
1011.89
 20
3763.04
 30
0.000000
  70
    32
  0
VERTEX
  8
CFM450
  5
301B
 10
1011.81
 20
3762.80
 30
0.000000
  70
    32
  0
VERTEX
  8
CFM450
  5
301C
 10
1011.74
 20
3762.56
 30
0.000000
  70
    32
  0
VERTEX
  8
CFM450
  5
301D
 10
1011.67
 20
3762.32
 30
0.000000
  70
    32
  0
VERTEX
  8
CFM450
  5
301E
 10
1011.60
 20
3762.08
 30
0.000000
  70
    32
  0
VERTEX
  8
CFM450
  5
301F
 10
1011.54
 20
3761.83
 30
0.000000
  70
    32
  0
VERTEX
  8
CFM450
  5
3020
 10
1011.47
 20
3761.59
 30
0.000000
  70
    32
  0
VERTEX
  8
CFM450
  5
3021
 10
1011.41
 20
3761.35
 30
0.000000
  70
    32
  0
VERTEX
  8
CFM450
  5
3022
 10
1011.35
 20
3761.11
 30
0.000000
  70
    32
  0
VERTEX
  8
CFM450
  5
3023
 10
1011.29
 20
3760.86
 30
0.000000
  70
    32
  0
VERTEX
  8
CFM450
  5
3024
 10
1011.23
 20
3760.62
 30
0.000000
  70
    32
  0
VERTEX
  8
CFM450
  5
3025
 10
1011.18
 20
3760.38
 30
0.000000
  70
    32
  0
VERTEX
  8
CFM450
  5
3026
 10
1011.13
 20
3760.13
 30
0.000000
  70
    32
  0
VERTEX
  8
CFM450
  5
3027
 10
1011.08
 20
3759.89
 30
0.000000
  70
    32
  0
VERTEX
  8
CFM450
  5
3028
 10
1011.03
 20
3759.64
 30
0.000000
  70
    32
  0
VERTEX
  8
CFM450
  5
3029
 10
1010.98
 20
3759.40
 30
0.000000
  70
    32
  0
VERTEX
  8
CFM450
  5
302A
 10
1010.94
 20
3759.16
 30
0.000000
  70
    32
  0
VERTEX
  8
CFM450
  5
302B
 10
1010.90
 20
3758.91
 30
0.000000
  70
    32
  0
VERTEX
  8
CFM450
  5
302C
 10
1010.86
 20
3758.67
 30
0.000000
  70
    32
  0
VERTEX
  8
CFM450
  5
302D
 10
1010.82
 20
3758.42
 30
0.000000
  70
    32
  0
VERTEX
  8
CFM450
  5
302E
 10
1010.79
 20
3758.17
 30
0.000000
  70
    32
  0
VERTEX
  8
CFM450
  5
302F
 10
1010.76
 20
3757.93
 30
0.000000
  70
    32
  0
VERTEX
  8
CFM450
  5
3030
 10
1010.73
 20
3757.68
 30
0.000000
  70
    32
  0
SEQEND
  8
CFM450
  5
3031
  0
INSERT
  5
16C3
  8
0
  2
*U41
 10
0.0
 20
0.0
 30
0.0
  0
DIMENSION
  5
16D1
  8
DIM
  2
*D13
 10
5792.1610378440346
 20
2686.0018333737098
 30
0.0
 11
3265.9566533722232
 21
2823.5018333737098
 31
0.0
 70
     0
 13
739.75226890041085
 23
4244.328024878987
 33
0.0
 14
5792.1610378440346
 24
3399.6939473951502
 34
0.0
  0
DIMENSION
  5
1719
  8
DIM
  2
*D16
 10
463.82974301501241
 20
4432.8308240509195
 30
0.0
 11
326.32974301501162
 21
3757.85684257403
 31
0.0
 70
     0
 13
803.64403163798841
 23
3082.88286109714
 33
0.0
 14
3208.7537158896298
 24
4432.8308240509186
 34
0.0
 50
90.0
  0
INSERT
  5
1B80
  8
GEBRUIKT
  6
CONTINUOUS
  2
*X52
 10
0.0
 20
0.0
 30
0.0
1001
GRADIENTCOLOR1ACI
1070
     5
1001
GRADIENTCOLOR2ACI
1070
     2
1001
ACAD
1000
HATCH
1002
{
1070
    19
1000
ANSI31
1040
15.0
1040
0.0
1000
ASC_BOUNDS
1070
     6
1070
     1
1070
     9
1005
14BD
1005
14BE
1005
14C2
1005
14BB
1005
14C1
1005
14C0
1005
14BC
1005
14BF
1005
14BA
1070
     1
1070
     8
1005
DE5
1005
DE8
1005
DE2
1005
DE6
1005
DE4
1005
DE7
1005
DE3
1005
DE9
1070
     1
1070
    15
1005
DBB
1005
DC7
1005
DBC
1005
DBA
1005
DB2
1005
DB1
1005
DB0
1005
14A6
1005
DB3
1005
DB4
1005
DB9
1005
DB7
1005
DB8
1005
DB6
1005
DC6
1070
     1
1070
     5
1005
14C6
1005
14C7
1005
14C4
1005
14C5
1005
14C3
1070
     1
1070
     8
1005
E10
1005
E0C
1005
E0F
1005
E09
1005
E0D
1005
E0B
1005
E0E
1005
E0A
1070
     1
1070
    12
1005
DFD
1005
DFE
1005
DF8
1005
DF7
1005
DB7
1005
DF9
1005
DFA
1005
E02
1005
E03
1005
E00
1005
DFF
1005
E01
1000
ASC_SEEDPOINT
1011
1230.3090813259039
1021
0.0
1031
0.0
1021
4147.5011901020398
1031
0.0
1000
R14_HATCH_DATA
1000
1B80
1011
1.0
1021
0.0
1031
0.0
1021
0.0
1031
0.0
1011
0.0
1021
0.0
1031
0.0
1021
1.0
1031
0.0
1011
0.0
1021
0.0
1031
0.0
1021
0.0
1031
1.0
1040
0.0
1010
0.0
1020
0.0
1030
1.0
1000
ANSI31
1070
     0
1070
     1
1071
        6
1071
        7
1070
     0
1070
     1
1071
       12
1040
739.75226890041085
1040
4244.328024878987
1040
773.99368556558329
1040
3621.8764586229099
1040
794.95453508636626
1040
3240.8433447816042
1040
803.64403163798841
1040
3082.88286109714
1040
2054.2240047556952
1040
3092.019038523058
1040
3283.0151540331831
1040
3082.8823409936158
1040
3289.1885266025902
1040
3399.694467498749
1040
3249.64070867498
1040
4118.6075151604564
1040
3208.7537158896298
1040
4432.8308240509186
1040
1988.379370588061
1040
4288.9641318870899
1040
1678.859363424443
1040
4248.6891365515949
1040
1676.265229776978
1040
4295.8461384867496
1071
       12
1005
E01
1005
DFF
1005
E00
1005
E03
1005
E02
1005
DFA
1005
DF9
1005
DB7
1005
DF7
1005
DF8
1005
DFE
1005
DFD
1071
       22
1070
     1
1070
     1
1071
        8
1040
1369.3265191983271
1040
3867.3174805660701
1040
0.0
1040
1392.6564639711889
1040
3443.2181847952979
1040
-0.4133971189858887
1040
1270.2329006487939
1040
3306.1570227163329
1040
0.0
1040
1030.908539036903
1040
3292.991652704703
1040
-0.4150307888501401
1040
893.46468139128683
1040
3415.7572041632138
1040
0.0
1040
870.13473661839976
1040
3839.856499934479
1040
-0.4133971189886397
1040
992.55829994201429
1040
3976.9176620135158
1040
0.0
1040
1231.8826617312329
1040
3990.0830320349
1040
-0.4150307884474235
1071
        8
1005
E0A
1005
E0E
1005
E0B
1005
E0D
1005
E09
1005
E0F
1005
E0C
1005
E10
1071
        4
1071
        5
1070
     1
1040
1220.263338983292
1040
3803.6386029730879
1040
1233.548700486964
1040
3562.1329971419709
1070
     1
1040
1233.548700486964
1040
3562.1329971419709
1040
1022.679382400063
1040
3531.924061086966
1070
     1
1040
1022.679382400063
1040
3531.924061086966
1040
1010.022989818954
1040
3770.9480986329932
1070
     4
1070
     3
1070
     0
1070
     0
1071
        9
1071
        5
1040
0.0
1040
0.0
1040
0.0
1040
0.0
1040
0.5436526744
1040
1.0
1040
1.0
1040
1.0
1040
1.0
1040
1010.725314876385
1040
3757.6842424574652
1040
1011.568038317851
1040
3764.7556012391778
1040
1018.1811431190509
1040
3777.6614868332708
1040
1031.064978025337
1040
3783.2421724510591
1040
1037.0077455272581
1040
3783.888118748715
1070
     1
1040
1037.0077455272581
1040
3783.888118748715
1040
1220.263338983292
1040
3803.6386029730879
1071
        5
1005
14C3
1005
14C5
1005
14C4
1005
14C7
1005
14C6
1071
        7
1070
     0
1070
     1
1071
       15
1040
3242.7247801418598
1040
4244.3275047754651
1040
3306.6165428794338
1040
3082.8823409936158
1040
4557.1965159971433
1040
3092.0185184195361
1040
5785.9876652746279
1040
3082.8818208900921
1040
5792.1610378440328
1040
3399.6939473951429
1040
5779.9386508261641
1040
3621.8764586229099
1040
5752.6132199165331
1040
4118.6069950561223
1040
5711.7262271310728
1040
4432.8303039473958
1040
4281.7222584548554
1040
4261.6864345149161
1040
4292.9271366946296
1040
4050.0751700950091
1040
4193.5409527786942
1040
4035.8372008071769
1040
4093.6808453523158
1040
4030.549578960623
1040
4081.7267778286368
1040
4256.3097603311226
1040
4181.1231069853857
1040
4261.572824982879
1040
4179.2377410184235
1040
4295.8456183832259
1071
       15
1005
DC6
1005
DB6
1005
DB8
1005
DB7
1005
DB9
1005
DB4
1005
DB3
1005
14A6
1005
DB0
1005
DB1
1005
DB2
1005
DBA
1005
DBC
1005
DC7
1005
DBB
1071
       22
1070
     1
1070
     1
1071
        8
1040
3735.660100833933
1040
3990.126791473393
1040
-0.4150307884461667
1040
3873.1039583004699
1040
3867.361240004529
1040
0.0
1040
3896.4339030733299
1040
3443.2619442337609
1040
-0.4133971189870075
1040
3774.010339750439
1040
3306.200782154765
1040
0.0
1040
3534.6859781386379
1040
3293.035412143141
1040
-0.415030788849206
1040
3397.2421204934358
1040
3415.8009636016759
1040
0.0
1040
3373.9121757205412
1040
3839.9002593729401
1040
-0.4133971189886662
1040
3496.3357390441661
1040
3976.9614214519788
1040
0.0
1071
        8
1005
DE9
1005
DE3
1005
DE7
1005
DE4
1005
DE6
1005
DE2
1005
DE8
1005
DE5
1071
        4
1071
        9
1070
     1
1040
3744.7382490032228
1040
3844.9142554986229
1040
3758.0236105068948
1040
3603.4086496675031
1070
     1
1040
3758.0236105068948
1040
3603.4086496675031
1040
3772.2047328997041
1040
3504.4192776739401
1070
     1
1040
3772.2047328997041
1040
3504.4192776739401
1040
3561.3354148128019
1040
3474.2103416189352
1070
     1
1040
3561.3354148128019
1040
3474.2103416189352
1040
3547.154292419993
1040
3573.1997136124992
1070
     1
1040
3547.154292419993
1040
3573.1997136124992
1040
3447.2941849936142
1040
3567.9120917659438
1070
     1
1040
3447.2941849936142
1040
3567.9120917659438
1040
3435.3401174699352
1040
3793.6722731364448
1070
     1
1040
3435.3401174699352
1040
3793.6722731364448
1040
3535.200224896314
1040
3798.959894982996
1070
     4
1070
     3
1070
     0
1070
     0
1071
        9
1071
        5
1040
0.0
1040
0.0
1040
0.0
1040
0.0
1040
0.5436526744
1040
1.0
1040
1.0
1040
1.0
1040
1.0
1040
3535.2002248963149
1040
3798.9598949829979
1040
3536.042948337782
1040
3806.0312537647142
1040
3542.65605313898
1040
3818.9371393588049
1040
3555.5398880452672
1040
3824.5178249765941
1040
3561.4826555471918
1040
3825.1637712742472
1070
     1
1040
3547.1773909818812
1040
3823.6220125928662
1040
3744.7382490032228
1040
3844.9142554986229
1071
        9
1005
14BA
1005
14BF
1005
14BC
1005
14C0
1005
14C1
1005
14BB
1005
14C2
1005
14BE
1005
14BD
1070
     1
1070
     1
1040
0.0
1040
15.0
1070
     0
1070
     1
1040
0.7853981633974483
1040
-16947.186603442718
1040
-3530.0859882719228
1040
-33.675960454009321
1040
33.675960454009328
1070
     0
1040
3.5841474992438749
1071
        6
1040
1230.3090813259039
1040
4147.5011901020398
1040
0.0
1040
1230.3090813259039
1040
4147.5011901020398
1040
0.0
1040
1230.3090813259039
1040
4147.5011901020398
1040
0.0
1040
3561.3229393083752
1040
4108.0755394798898
1040
0.0
1040
3561.3229393083752
1040
4108.0755394798898
1040
0.0
1040
3561.3229393083752
1040
4108.0755394798898
1040
0.0
1002
}
  0
INSERT
  5
1B94
  8
GEBRUIKT
  6
CONTINUOUS
  2
*X53
 10
0.0
 20
0.0
 30
0.0
1001
GRADIENTCOLOR1ACI
1070
     5
1001
GRADIENTCOLOR2ACI
1070
     2
1001
ACAD
1000
HATCH
1002
{
1070
    19
1000
ANSI31
1040
15.0
1040
0.0
1000
ASC_BOUNDS
1070
     2
1070
     1
1070
     9
1005
14BA
1005
14BF
1005
14BC
1005
14C0
1005
14C1
1005
14BB
1005
14C2
1005
14BE
1005
14BD
1070
     1
1070
     5
1005
14C3
1005
14C5
1005
14C4
1005
14C7
1005
14C6
1000
ASC_SEEDPOINT
1011
1176.516450079172
1021
0.0
1031
0.0
1021
3706.6510397739839
1031
0.0
1000
R14_HATCH_DATA
1000
1B94
1011
1.0
1021
0.0
1031
0.0
1021
0.0
1031
0.0
1011
0.0
1021
0.0
1031
0.0
1021
1.0
1031
0.0
1011
0.0
1021
0.0
1031
0.0
1021
0.0
1031
1.0
1040
0.0
1010
0.0
1020
0.0
1030
1.0
1000
ANSI31
1070
     0
1070
     1
1071
        2
1071
        5
1071
        5
1070
     1
1040
1220.263338983292
1040
3803.6386029730879
1040
1037.0077455272581
1040
3783.888118748715
1070
     4
1070
     3
1070
     0
1070
     0
1071
        9
1071
        5
1040
0.0
1040
0.0
1040
0.0
1040
0.0
1040
0.4563473256
1040
1.0
1040
1.0
1040
1.0
1040
1.0
1040
1037.0077455272581
1040
3783.888118748715
1040
1031.064978025337
1040
3783.2421724510591
1040
1018.1811431190509
1040
3777.6614868332708
1040
1011.568038317851
1040
3764.7556012391778
1040
1010.725314876385
1040
3757.6842424574652
1070
     1
1040
1010.725314876385
1040
3757.6842424574652
1040
1022.679382400063
1040
3531.924061086966
1070
     1
1040
1022.679382400063
1040
3531.924061086966
1040
1233.548700486964
1040
3562.1329971419709
1070
     1
1040
1233.548700486964
1040
3562.1329971419709
1040
1220.263338983292
1040
3803.6386029730879
1071
        5
1005
14C6
1005
14C7
1005
14C4
1005
14C5
1005
14C3
1071
        5
1071
        9
1070
     1
1040
3547.154292419993
1040
3573.1997136124992
1040
3561.3354148128019
1040
3474.2103416189352
1070
     1
1040
3561.3354148128019
1040
3474.2103416189352
1040
3772.2047328997041
1040
3504.4192776739401
1070
     1
1040
3772.2047328997041
1040
3504.4192776739401
1040
3758.0236105068939
1040
3603.4086496675081
1070
     1
1040
3758.0236105068939
1040
3603.4086496675081
1040
3744.7382490032219
1040
3844.9142554986229
1070
     1
1040
3744.7382490032219
1040
3844.9142554986229
1040
3561.4826555471968
1040
3825.1637712742499
1070
     4
1070
     3
1070
     0
1070
     0
1071
        9
1071
        5
1040
0.0
1040
0.0
1040
0.0
1040
0.0
1040
0.4563473256
1040
1.0
1040
1.0
1040
1.0
1040
1.0
1040
3561.4826555471918
1040
3825.1637712742472
1040
3555.5398880452672
1040
3824.5178249765941
1040
3542.65605313898
1040
3818.9371393588049
1040
3536.042948337782
1040
3806.0312537647142
1040
3535.2002248963149
1040
3798.9598949829979
1070
     1
1040
3535.2002248963149
1040
3798.959894982996
1040
3435.3401174699361
1040
3793.6722731364448
1070
     1
1040
3435.3401174699361
1040
3793.6722731364448
1040
3447.2941849936142
1040
3567.9120917659438
1070
     1
1040
3447.2941849936142
1040
3567.9120917659438
1040
3547.154292419993
1040
3573.1997136124992
1071
        9
1005
14BD
1005
14BE
1005
14C2
1005
14BB
1005
14C1
1005
14C0
1005
14BC
1005
14BF
1005
14BA
1070
     1
1070
     1
1040
0.0
1040
15.0
1070
     0
1070
     1
1040
0.7853981633974483
1040
-16947.186603442718
1040
-3530.0859882719228
1040
-33.675960454009321
1040
33.675960454009328
1070
     0
1040
3.5841474992438749
1071
        2
1040
1176.516450079172
1040
3706.6510397739839
1040
0.0
1040
3600.770885160237
1040
3663.6412355298312
1040
0.0
1002
}
  0
INSERT
  5
21E8
  8
0
  2
*U57
 10
0.0
 20
0.0
 30
0.0
1001
ACAD_MLEADERVER
1070
     2
  0
INSERT
  5
21E9
  8
0
  2
*U58
 10
0.0
 20
0.0
 30
0.0
1001
ACAD_MLEADERVER
1070
     2
  0
INSERT
  5
240F
  8
0
  2
*U68
 10
0.0
 20
0.0
 30
0.0
  0
DIMENSION
  5
2410
  8
DIM
  2
*D34
 10
5993.3103989254741
 20
375.57827091641229
 30
0.0
 11
3312.7290528077142
 21
513.07827091641218
 31
0.0
 70
     0
 13
632.14770668995334
 23
1933.904462421689
 33
0.0
 14
5993.3103989254741
 24
1683.892520390895
 34
0.0
  0
DIMENSION
  5
2413
  8
DIM
  2
*D35
 10
356.22518080455478
 20
2122.4072615936229
 30
0.0
 11
218.72518080455441
 21
1447.433280116732
 31
0.0
 70
     0
 13
696.039469427531
 23
772.45929863984202
 33
0.0
 14
3101.1491536791732
 24
2122.407261593622
 34
0.0
 50
90.0
  0
INSERT
  5
2416
  8
0
  2
*U69
 10
0.0
 20
0.0
 30
0.0
1001
ACAD_MLEADERVER
1070
     2
  0
INSERT
  5
2417
  8
0
  2
*U70
 10
0.0
 20
0.0
 30
0.0
1001
ACAD_MLEADERVER
1070
     2
  0
INSERT
  5
2473
  8
GEBRUIKT
  6
CONTINUOUS
  2
*X71
 10
0.0
 20
0.0
 30
0.0
1001
GRADIENTCOLOR1ACI
1070
     5
1001
GRADIENTCOLOR2ACI
1070
     2
1001
ACAD
1000
HATCH
1002
{
1070
    19
1000
ANSI31
1040
15.0
1040
0.0
1000
R14_HATCH_DATA
1000
2473
1011
1.0
1021
0.0
1031
0.0
1021
0.0
1031
0.0
1011
0.0
1021
0.0
1031
0.0
1021
1.0
1031
0.0
1011
0.0
1021
0.0
1031
0.0
1021
0.0
1031
1.0
1040
0.0
1010
0.0
1020
0.0
1030
1.0
1000
ANSI31
1070
     0
1070
     0
1071
        4
1071
        7
1070
     0
1070
     1
1071
       12
1040
1946.6194425452529
1040
781.59547606576064
1040
3175.4105918227292
1040
772.45877853631828
1040
3181.5839643921349
1040
1089.2709050413839
1040
3142.0361464645171
1040
1808.1839527032041
1040
3101.1491536791718
1040
2122.407261593622
1040
1880.7748083776
1040
1978.5405694297931
1040
1571.254801213985
1040
1938.2655740942971
1040
1568.66066756652
1040
1985.4225760294521
1040
632.14770668995334
1040
1933.904462421689
1040
666.38912335512566
1040
1311.4528961656119
1040
687.34997287590875
1040
930.41978232430665
1040
696.039469427531
1040
772.45929863984202
1071
        0
1071
        7
1070
     0
1070
     1
1071
       15
1040
3199.0119806689768
1040
772.45877853631828
1040
4449.5919537867003
1040
781.5949559622386
1040
5678.383103064175
1040
772.45825843279454
1040
5684.5564756335789
1040
1089.270384937812
1040
5672.3340886157093
1040
1311.4528961656119
1040
5645.0086577060638
1040
1808.183432598938
1040
5604.121664920619
1040
2122.4067414900978
1040
4174.1176962443997
1040
1951.262872057619
1040
4185.3225744841757
1040
1739.651607637712
1040
4085.9363905682412
1040
1725.413638349879
1040
3986.0762831418542
1040
1720.126016503325
1040
3974.1222156181771
1040
1945.8861978738259
1040
4073.518544774925
1040
1951.149262525581
1040
4071.6331788079701
1040
1985.4220559259279
1040
3135.1202179313991
1040
1933.9039423181671
1071
        0
1071
        5
1071
        9
1070
     1
1040
5965.8439150289942
1040
2024.387498215578
1040
5782.5883215729737
1040
2004.637013991204
1070
     4
1070
     3
1070
     0
1070
     0
1071
        9
1071
        5
1040
0.0
1040
0.0
1040
0.0
1040
0.0
1040
0.4563473256
1040
1.0
1040
1.0
1040
1.0
1040
1.0
1040
5782.58832157297
1040
2004.637013991201
1040
5776.6455540710449
1040
2003.991067693549
1040
5763.7617191647578
1040
1998.4103820757589
1040
5757.1486143635557
1040
1985.504496481668
1040
5756.3058909220854
1040
1978.4331376999521
1070
     1
1040
5756.3058909220827
1040
1978.433137699951
1040
5656.4457834957138
1040
1973.145515853399
1070
     1
1040
5656.4457834957138
1040
1973.145515853399
1040
5668.3998510193924
1040
1747.3853344828981
1070
     1
1040
5668.3998510193924
1040
1747.3853344828981
1040
5768.2599584457639
1040
1752.6729563294541
1070
     1
1040
5768.2599584457639
1040
1752.6729563294541
1040
5782.4410808385728
1040
1653.6835843358899
1070
     1
1040
5782.4410808385728
1040
1653.6835843358899
1040
5993.3103989254741
1040
1683.892520390895
1070
     1
1040
5993.3103989254741
1040
1683.892520390895
1040
5979.1292765326643
1040
1782.881892384464
1070
     1
1040
5979.1292765326643
1040
1782.881892384464
1040
5965.8439150289942
1040
2024.387498215578
1071
        0
1071
        5
1071
        5
1070
     1
1040
5944.3898581075046
1040
1226.776886242096
1040
5761.1342646514686
1040
1207.026402017724
1070
     4
1070
     3
1070
     0
1070
     0
1071
        9
1071
        5
1040
0.0
1040
0.0
1040
0.0
1040
0.0
1040
0.4563473256
1040
1.0
1040
1.0
1040
1.0
1040
1.0
1040
5761.1342646514677
1040
1207.026402017724
1040
5755.1914971495489
1040
1206.3804557200669
1040
5742.3076622432636
1040
1200.7997701022789
1040
5735.6945574420679
1040
1187.8938845081859
1040
5734.8518340005967
1040
1180.822525726473
1070
     1
1040
5734.8518340005967
1040
1180.822525726473
1040
5746.8059015242761
1040
955.06234435597435
1070
     1
1040
5746.8059015242761
1040
955.06234435597435
1040
5957.6752196111793
1040
985.27128041097967
1070
     1
1040
5957.6752196111793
1040
985.27128041097967
1040
5944.3898581075046
1040
1226.776886242096
1071
        0
1070
     1
1070
     1
1040
0.0
1040
15.0
1070
     0
1070
     1
1040
0.7853981633974483
1040
-29769.768829079108
1040
-5840.5095507292208
1040
-33.675960454009321
1040
33.675960454009328
1070
     0
1040
8.2100077166860554
1071
        4
1040
1270.50214527348
1040
1256.5922349955219
1040
0.0
1040
3389.8824864738858
1040
1355.112289406286
1040
0.0
1040
5911.7807860597532
1040
1839.502765149409
1040
0.0
1040
5911.7807860597532
1040
1108.8120700899599
1040
0.0
1002
}
  0
INSERT
  5
2BD4
  8
0
  2
*U86
 10
0.0
 20
0.0
 30
0.0
  0
ENDSEC
  0
EOF
