  0
SECTION
  2
HEADER
  9
$ACADVER
  1
AC1015
  9
$ACADMAINTVER
 70
    13
  9
$DWGCODEPAGE
  3
ANSI_1252
  9
$INSBASE
 10
0.0
 20
0.0
 30
0.0
  9
$EXTMIN
 10
-262.9599652135445
 20
-668.4835652006232
 30
0.0
  9
$EXTMAX
 10
299.7671369346763
 20
137.3111355622653
 30
0.0
  9
$LIMMIN
 10
0.0
 20
0.0
  9
$LIMMAX
 10
420.0
 20
297.0
  9
$ORTHOMODE
 70
     1
  9
$REGENMODE
 70
     1
  9
$FILLMODE
 70
     1
  9
$QTEXTMODE
 70
     0
  9
$MIRRTEXT
 70
     1
  9
$LTSCALE
 40
1.0
  9
$ATTMODE
 70
     1
  9
$TEXTSIZE
 40
5.0
  9
$TRACEWID
 40
1.0
  9
$TEXTSTYLE
  7
Standard
  9
$CLAYER
  8
tekst
  9
$CELTYPE
  6
ByLayer
  9
$CECOLOR
 62
   256
  9
$CELTSCALE
 40
1.0
  9
$DISPSILH
 70
     0
  9
$DIMSCALE
 40
3.0
  9
$DIMASZ
 40
2.5
  9
$DIMEXO
 40
0.625
  9
$DIMDLI
 40
3.75
  9
$DIMRND
 40
0.0
  9
$DIMDLE
 40
0.0
  9
$DIMEXE
 40
1.25
  9
$DIMTP
 40
0.0
  9
$DIMTM
 40
0.0
  9
$DIMTXT
 40
2.5
  9
$DIMCEN
 40
2.5
  9
$DIMTSZ
 40
0.0
  9
$DIMTOL
 70
     0
  9
$DIMLIM
 70
     0
  9
$DIMTIH
 70
     0
  9
$DIMTOH
 70
     0
  9
$DIMSE1
 70
     0
  9
$DIMSE2
 70
     0
  9
$DIMTAD
 70
     1
  9
$DIMZIN
 70
     8
  9
$DIMBLK
  1

  9
$DIMASO
 70
     1
  9
$DIMSHO
 70
     1
  9
$DIMPOST
  1

  9
$DIMAPOST
  1

  9
$DIMALT
 70
     0
  9
$DIMALTD
 70
     3
  9
$DIMALTF
 40
0.03937007874016
  9
$DIMLFAC
 40
1.0
  9
$DIMTOFL
 70
     1
  9
$DIMTVP
 40
0.0
  9
$DIMTIX
 70
     0
  9
$DIMSOXD
 70
     0
  9
$DIMSAH
 70
     0
  9
$DIMBLK1
  1

  9
$DIMBLK2
  1

  9
$DIMSTYLE
  2
ISO-25
  9
$DIMCLRD
 70
     0
  9
$DIMCLRE
 70
     0
  9
$DIMCLRT
 70
     0
  9
$DIMTFAC
 40
1.0
  9
$DIMGAP
 40
0.625
  9
$DIMJUST
 70
     0
  9
$DIMSD1
 70
     0
  9
$DIMSD2
 70
     0
  9
$DIMTOLJ
 70
     0
  9
$DIMTZIN
 70
     8
  9
$DIMALTZ
 70
     0
  9
$DIMALTTZ
 70
     0
  9
$DIMUPT
 70
     0
  9
$DIMDEC
 70
     0
  9
$DIMTDEC
 70
     0
  9
$DIMALTU
 70
     2
  9
$DIMALTTD
 70
     3
  9
$DIMTXSTY
  7
Standard
  9
$DIMAUNIT
 70
     0
  9
$DIMADEC
 70
     0
  9
$DIMALTRND
 40
0.0
  9
$DIMAZIN
 70
     0
  9
$DIMDSEP
 70
    44
  9
$DIMATFIT
 70
     3
  9
$DIMFRAC
 70
     0
  9
$DIMLDRBLK
  1

  9
$DIMLUNIT
 70
     2
  9
$DIMLWD
 70
    -2
  9
$DIMLWE
 70
    -2
  9
$DIMTMOVE
 70
     0
  9
$LUNITS
 70
     2
  9
$LUPREC
 70
     4
  9
$SKETCHINC
 40
1.0
  9
$FILLETRAD
 40
4.0
  9
$AUNITS
 70
     0
  9
$AUPREC
 70
     0
  9
$MENU
  1
.
  9
$ELEVATION
 40
0.0
  9
$PELEVATION
 40
0.0
  9
$THICKNESS
 40
0.0
  9
$LIMCHECK
 70
     0
  9
$CHAMFERA
 40
0.0
  9
$CHAMFERB
 40
0.0
  9
$CHAMFERC
 40
20.0
  9
$CHAMFERD
 40
0.0
  9
$SKPOLY
 70
     0
  9
$TDCREATE
 40
2455219.621385335
  9
$TDUCREATE
 40
2455219.538052002
  9
$TDUPDATE
 40
2455440.537718148
  9
$TDUUPDATE
 40
2455440.454384814
  9
$TDINDWG
 40
0.2501438889
  9
$TDUSRTIMER
 40
0.2501437037
  9
$USRTIMER
 70
     1
  9
$ANGBASE
 50
0.0
  9
$ANGDIR
 70
     0
  9
$PDMODE
 70
     0
  9
$PDSIZE
 40
0.0
  9
$PLINEWID
 40
0.0
  9
$SPLFRAME
 70
     0
  9
$SPLINETYPE
 70
     6
  9
$SPLINESEGS
 70
     8
  9
$HANDSEED
  5
6EF
  9
$SURFTAB1
 70
     6
  9
$SURFTAB2
 70
     6
  9
$SURFTYPE
 70
     6
  9
$SURFU
 70
     6
  9
$SURFV
 70
     6
  9
$UCSBASE
  2

  9
$UCSNAME
  2

  9
$UCSORG
 10
0.0
 20
0.0
 30
0.0
  9
$UCSXDIR
 10
1.0
 20
0.0
 30
0.0
  9
$UCSYDIR
 10
0.0
 20
1.0
 30
0.0
  9
$UCSORTHOREF
  2

  9
$UCSORTHOVIEW
 70
     0
  9
$UCSORGTOP
 10
0.0
 20
0.0
 30
0.0
  9
$UCSORGBOTTOM
 10
0.0
 20
0.0
 30
0.0
  9
$UCSORGLEFT
 10
0.0
 20
0.0
 30
0.0
  9
$UCSORGRIGHT
 10
0.0
 20
0.0
 30
0.0
  9
$UCSORGFRONT
 10
0.0
 20
0.0
 30
0.0
  9
$UCSORGBACK
 10
0.0
 20
0.0
 30
0.0
  9
$PUCSBASE
  2

  9
$PUCSNAME
  2

  9
$PUCSORG
 10
0.0
 20
0.0
 30
0.0
  9
$PUCSXDIR
 10
1.0
 20
0.0
 30
0.0
  9
$PUCSYDIR
 10
0.0
 20
1.0
 30
0.0
  9
$PUCSORTHOREF
  2

  9
$PUCSORTHOVIEW
 70
     0
  9
$PUCSORGTOP
 10
0.0
 20
0.0
 30
0.0
  9
$PUCSORGBOTTOM
 10
0.0
 20
0.0
 30
0.0
  9
$PUCSORGLEFT
 10
0.0
 20
0.0
 30
0.0
  9
$PUCSORGRIGHT
 10
0.0
 20
0.0
 30
0.0
  9
$PUCSORGFRONT
 10
0.0
 20
0.0
 30
0.0
  9
$PUCSORGBACK
 10
0.0
 20
0.0
 30
0.0
  9
$USERI1
 70
     0
  9
$USERI2
 70
     0
  9
$USERI3
 70
     0
  9
$USERI4
 70
     0
  9
$USERI5
 70
     0
  9
$USERR1
 40
0.0
  9
$USERR2
 40
0.0
  9
$USERR3
 40
0.0
  9
$USERR4
 40
0.0
  9
$USERR5
 40
0.0
  9
$WORLDVIEW
 70
     1
  9
$SHADEDGE
 70
     3
  9
$SHADEDIF
 70
    70
  9
$TILEMODE
 70
     1
  9
$MAXACTVP
 70
    64
  9
$PINSBASE
 10
0.0
 20
0.0
 30
0.0
  9
$PLIMCHECK
 70
     0
  9
$PEXTMIN
 10
1.000000000000000E+20
 20
1.000000000000000E+20
 30
1.000000000000000E+20
  9
$PEXTMAX
 10
-1.000000000000000E+20
 20
-1.000000000000000E+20
 30
-1.000000000000000E+20
  9
$PLIMMIN
 10
0.0
 20
0.0
  9
$PLIMMAX
 10
420.0
 20
297.0
  9
$UNITMODE
 70
     0
  9
$VISRETAIN
 70
     1
  9
$PLINEGEN
 70
     0
  9
$PSLTSCALE
 70
     1
  9
$TREEDEPTH
 70
  3020
  9
$CMLSTYLE
  2
Standard
  9
$CMLJUST
 70
     0
  9
$CMLSCALE
 40
20.0
  9
$PROXYGRAPHICS
 70
     1
  9
$MEASUREMENT
 70
     1
  9
$CELWEIGHT
370
    -1
  9
$ENDCAPS
280
     0
  9
$JOINSTYLE
280
     0
  9
$LWDISPLAY
290
     0
  9
$INSUNITS
 70
     4
  9
$HYPERLINKBASE
  1

  9
$STYLESHEET
  1

  9
$XEDIT
290
     1
  9
$CEPSNTYPE
380
     0
  9
$PSTYLEMODE
290
     1
  9
$FINGERPRINTGUID
  2
{72A9821F-8BCC-4F94-BA2E-2EA6ED8E2B5F}
  9
$VERSIONGUID
  2
{83C6BA51-3F99-4DB5-96E9-5F84A61FD277}
  9
$EXTNAMES
290
     1
  9
$PSVPSCALE
 40
0.0
  9
$OLESTARTUP
290
     0
  0
ENDSEC
  0
SECTION
  2
CLASSES
  0
CLASS
  1
ACDBDICTIONARYWDFLT
  2
AcDbDictionaryWithDefault
  3
AutoCAD 2000
 90
        0
280
     0
281
     0
  0
CLASS
  1
ACDBPLACEHOLDER
  2
AcDbPlaceHolder
  3
AutoCAD 2000
 90
        0
280
     0
281
     0
  0
CLASS
  1
LAYOUT
  2
AcDbLayout
  3
AutoCAD 2000
 90
        0
280
     0
281
     0
  0
CLASS
  1
DICTIONARYVAR
  2
AcDbDictionaryVar
  3
AutoCAD 2000
 90
        0
280
     0
281
     0
  0
CLASS
  1
DIMASSOC
  2
AcDbDimAssoc
  3
"AcDbDimAssoc|Product Desc:     AcDim ARX App For Dimension|Company:          Autodesk, Inc.|WEB Address:      www.autodesk.com"
 90
        0
280
     0
281
     0
  0
ENDSEC
  0
SECTION
  2
TABLES
  0
TABLE
  2
VPORT
  5
8
330
0
100
AcDbSymbolTable
 70
     6
  0
VPORT
  5
6EE
330
8
100
AcDbSymbolTableRecord
100
AcDbViewportTableRecord
  2
*Active
 70
     0
 10
0.0
 20
0.0
 11
1.0
 21
1.0
 12
23.99146643979713
 22
59.16274478096784
 13
0.0
 23
0.0
 14
10.0
 24
10.0
 15
10.0
 25
10.0
 16
0.0
 26
0.0
 36
1.0
 17
0.0
 27
0.0
 37
0.0
 40
639.5883633997773
 41
1.60178117048346
 42
50.0
 43
0.0
 44
0.0
 50
0.0
 51
0.0
 71
     0
 72
   100
 73
     1
 74
     2
 75
     0
 76
     0
 77
     0
 78
     0
281
     0
 65
     1
110
0.0
120
0.0
130
0.0
111
1.0
121
0.0
131
0.0
112
0.0
122
1.0
132
0.0
 79
     0
146
0.0
  0
ENDTAB
  0
TABLE
  2
LTYPE
  5
5
330
0
100
AcDbSymbolTable
 70
     1
  0
LTYPE
  5
14
330
5
100
AcDbSymbolTableRecord
100
AcDbLinetypeTableRecord
  2
ByBlock
 70
     0
  3

 72
    65
 73
     0
 40
0.0
  0
LTYPE
  5
15
330
5
100
AcDbSymbolTableRecord
100
AcDbLinetypeTableRecord
  2
ByLayer
 70
     0
  3

 72
    65
 73
     0
 40
0.0
  0
LTYPE
  5
16
330
5
100
AcDbSymbolTableRecord
100
AcDbLinetypeTableRecord
  2
Continuous
 70
     0
  3
Solid line
 72
    65
 73
     0
 40
0.0
  0
ENDTAB
  0
TABLE
  2
LAYER
  5
2
330
0
100
AcDbSymbolTable
 70
     4
  0
LAYER
  5
10
330
2
100
AcDbSymbolTableRecord
100
AcDbLayerTableRecord
  2
0
 70
     0
 62
     7
  6
Continuous
370
    -3
390
F
  0
LAYER
  5
2B
330
2
100
AcDbSymbolTableRecord
100
AcDbLayerTableRecord
  2
snij
 70
     0
 62
     5
  6
Continuous
370
    -3
390
F
  0
LAYER
  5
14B
330
2
100
AcDbSymbolTableRecord
100
AcDbLayerTableRecord
  2
tekst
 70
     0
 62
     1
  6
Continuous
370
    -3
390
F
  0
LAYER
  5
1D6
330
2
100
AcDbSymbolTableRecord
100
AcDbLayerTableRecord
  2
Defpoints
 70
     0
 62
     7
  6
Continuous
290
     0
370
    -3
390
F
  0
ENDTAB
  0
TABLE
  2
STYLE
  5
3
330
0
100
AcDbSymbolTable
 70
     1
  0
STYLE
  5
11
330
3
100
AcDbSymbolTableRecord
100
AcDbTextStyleTableRecord
  2
Standard
 70
     0
 40
0.0
 41
1.0
 50
0.0
 71
     0
 42
5.0
  3
txt
  4

  0
ENDTAB
  0
TABLE
  2
VIEW
  5
6
330
0
100
AcDbSymbolTable
 70
     0
  0
ENDTAB
  0
TABLE
  2
UCS
  5
7
330
0
100
AcDbSymbolTable
 70
     0
  0
ENDTAB
  0
TABLE
  2
APPID
  5
9
330
0
100
AcDbSymbolTable
 70
     1
  0
APPID
  5
12
330
9
100
AcDbSymbolTableRecord
100
AcDbRegAppTableRecord
  2
ACAD
 70
     0
  0
ENDTAB
  0
TABLE
  2
DIMSTYLE
  5
A
330
0
100
AcDbSymbolTable
 70
     2
100
AcDbDimStyleTable
 71
     1
340
27
  0
DIMSTYLE
105
27
330
A
100
AcDbSymbolTableRecord
100
AcDbDimStyleTableRecord
  2
ISO-25
 70
     0
 40
3.0
 41
2.5
 42
0.625
 43
3.75
 44
1.25
 73
     0
 74
     0
 77
     1
 78
     8
140
2.5
141
2.5
143
0.03937007874016
147
0.625
171
     3
172
     1
271
     0
272
     0
274
     3
278
    44
283
     0
284
     8
340
11
  0
DIMSTYLE
105
2C
330
A
100
AcDbSymbolTableRecord
100
AcDbDimStyleTableRecord
  2
STANDARD
 70
     0
 41
4.0
 47
0.01
 48
0.01
 71
     1
 73
     0
 74
     0
 77
     1
 78
     8
140
3.5
271
     2
272
     2
284
     8
340
11
  0
ENDTAB
  0
TABLE
  2
BLOCK_RECORD
  5
1
330
0
100
AcDbSymbolTable
 70
    12
  0
BLOCK_RECORD
  5
1F
330
1
100
AcDbSymbolTableRecord
100
AcDbBlockTableRecord
  2
*Model_Space
340
22
  0
BLOCK_RECORD
  5
1B
330
1
100
AcDbSymbolTableRecord
100
AcDbBlockTableRecord
  2
*Paper_Space
340
1E
  0
BLOCK_RECORD
  5
23
330
1
100
AcDbSymbolTableRecord
100
AcDbBlockTableRecord
  2
*Paper_Space0
340
26
  0
BLOCK_RECORD
  5
437
330
1
100
AcDbSymbolTableRecord
100
AcDbBlockTableRecord
  2
*D1
340
0
  0
BLOCK_RECORD
  5
44F
330
1
100
AcDbSymbolTableRecord
100
AcDbBlockTableRecord
  2
*D2
340
0
  0
BLOCK_RECORD
  5
46D
330
1
100
AcDbSymbolTableRecord
100
AcDbBlockTableRecord
  2
*D3
340
0
  0
BLOCK_RECORD
  5
485
330
1
100
AcDbSymbolTableRecord
100
AcDbBlockTableRecord
  2
*D4
340
0
  0
BLOCK_RECORD
  5
4A0
330
1
100
AcDbSymbolTableRecord
100
AcDbBlockTableRecord
  2
*D5
340
0
  0
BLOCK_RECORD
  5
4D0
330
1
100
AcDbSymbolTableRecord
100
AcDbBlockTableRecord
  2
*D6
340
0
  0
BLOCK_RECORD
  5
50E
330
1
100
AcDbSymbolTableRecord
100
AcDbBlockTableRecord
  2
*D7
340
0
  0
BLOCK_RECORD
  5
532
330
1
100
AcDbSymbolTableRecord
100
AcDbBlockTableRecord
  2
*D8
340
0
  0
BLOCK_RECORD
  5
54C
330
1
100
AcDbSymbolTableRecord
100
AcDbBlockTableRecord
  2
*D9
340
0
  0
BLOCK_RECORD
  5
566
330
1
100
AcDbSymbolTableRecord
100
AcDbBlockTableRecord
  2
*D10
340
0
  0
BLOCK_RECORD
  5
6D6
330
1
100
AcDbSymbolTableRecord
100
AcDbBlockTableRecord
  2
*D11
340
0
  0
ENDTAB
  0
ENDSEC
  0
SECTION
  2
BLOCKS
  0
BLOCK
  5
20
330
1F
100
AcDbEntity
  8
0
100
AcDbBlockBegin
  2
*Model_Space
 70
     0
 10
0.0
 20
0.0
 30
0.0
  3
*Model_Space
  1

  0
ENDBLK
  5
21
330
1F
100
AcDbEntity
  8
0
100
AcDbBlockEnd
  0
BLOCK
  5
1C
330
1B
100
AcDbEntity
 67
     1
  8
0
100
AcDbBlockBegin
  2
*Paper_Space
 70
     0
 10
0.0
 20
0.0
 30
0.0
  3
*Paper_Space
  1

  0
ENDBLK
  5
1D
330
1B
100
AcDbEntity
 67
     1
  8
0
100
AcDbBlockEnd
  0
BLOCK
  5
24
330
23
100
AcDbEntity
  8
0
100
AcDbBlockBegin
  2
*Paper_Space0
 70
     0
 10
0.0
 20
0.0
 30
0.0
  3
*Paper_Space0
  1

  0
ENDBLK
  5
25
330
23
100
AcDbEntity
  8
0
100
AcDbBlockEnd
  0
BLOCK
  5
441
330
437
100
AcDbEntity
  8
0
100
AcDbBlockBegin
  2
*D1
 70
     1
 10
0.0
 20
0.0
 30
0.0
  3
*D1
  1

  0
LINE
  5
444
330
437
100
AcDbEntity
  8
tekst
 62
     0
370
    -2
100
AcDbLine
 10
-260.8000088964999
 20
1.875
 30
0.0
 11
-260.8000088964999
 21
8.06017619044519
 31
0.0
  0
LINE
  5
445
330
437
100
AcDbEntity
  8
tekst
 62
     0
370
    -2
100
AcDbLine
 10
260.5457906113024
 20
1.875
 30
0.0
 11
260.5457906113024
 21
8.06017619044519
 31
0.0
  0
LINE
  5
446
330
437
100
AcDbEntity
  8
tekst
 62
     0
370
    -2
100
AcDbLine
 10
-253.3000088965
 20
4.31017619044519
 30
0.0
 11
253.0457906113024
 21
4.31017619044519
 31
0.0
  0
SOLID
  5
447
330
437
100
AcDbEntity
  8
tekst
 62
     0
100
AcDbTrace
 10
-253.3000088965
 20
5.56017619044519
 30
0.0
 11
-253.3000088965
 21
3.06017619044519
 31
0.0
 12
-260.8000088964999
 22
4.31017619044519
 32
0.0
 13
-260.8000088964999
 23
4.31017619044519
 33
0.0
  0
SOLID
  5
448
330
437
100
AcDbEntity
  8
tekst
 62
     0
100
AcDbTrace
 10
253.0457906113024
 20
5.56017619044519
 30
0.0
 11
253.0457906113024
 21
3.06017619044519
 31
0.0
 12
260.5457906113024
 22
4.31017619044519
 32
0.0
 13
260.5457906113024
 23
4.31017619044519
 33
0.0
  0
MTEXT
  5
449
330
437
100
AcDbEntity
  8
tekst
 62
     0
100
AcDbMText
 10
-0.1271091425987546
 20
9.93517619044519
 30
0.0
 40
7.5
 41
0.0
 71
     5
 72
     1
  1
521
 73
     1
 44
1.0
  0
POINT
  5
44A
330
437
100
AcDbEntity
  8
Defpoints
 62
     0
100
AcDbPoint
 10
-260.8000088964999
 20
0.0
 30
0.0
  0
POINT
  5
44B
330
437
100
AcDbEntity
  8
Defpoints
 62
     0
100
AcDbPoint
 10
260.5457906113024
 20
0.0
 30
0.0
  0
POINT
  5
44C
330
437
100
AcDbEntity
  8
Defpoints
 62
     0
100
AcDbPoint
 10
260.5457906113024
 20
4.31017619044519
 30
0.0
  0
ENDBLK
  5
442
330
437
100
AcDbEntity
  8
0
100
AcDbBlockEnd
  0
BLOCK
  5
459
330
44F
100
AcDbEntity
  8
0
100
AcDbBlockBegin
  2
*D2
 70
     1
 10
0.0
 20
0.0
 30
0.0
  3
*D2
  1

  0
LINE
  5
45C
330
44F
100
AcDbEntity
  8
tekst
 62
     0
370
    -2
100
AcDbLine
 10
-220.5880254573707
 20
0.0505521316149493
 30
0.0
 11
-110.7605177548901
 21
0.0505521316149182
 31
0.0
  0
LINE
  5
45D
330
44F
100
AcDbEntity
  8
tekst
 62
     0
370
    -2
100
AcDbLine
 10
-2.002109142598733
 20
85.00002006500933
 30
0.0
 11
-118.26051775489
 21
85.00002006500936
 31
0.0
  0
LINE
  5
45E
330
44F
100
AcDbEntity
  8
tekst
 62
     0
370
    -2
100
AcDbLine
 10
-114.51051775489
 20
7.550552131614919
 30
0.0
 11
-114.51051775489
 21
77.50002006500935
 31
0.0
  0
SOLID
  5
45F
330
44F
100
AcDbEntity
  8
tekst
 62
     0
100
AcDbTrace
 10
-115.7605177548901
 20
7.550552131614919
 30
0.0
 11
-113.26051775489
 21
7.550552131614918
 31
0.0
 12
-114.51051775489
 22
0.0505521316149192
 32
0.0
 13
-114.51051775489
 23
0.0505521316149192
 33
0.0
  0
SOLID
  5
460
330
44F
100
AcDbEntity
  8
tekst
 62
     0
100
AcDbTrace
 10
-115.76051775489
 20
77.50002006500935
 30
0.0
 11
-113.26051775489
 21
77.50002006500935
 31
0.0
 12
-114.51051775489
 22
85.00002006500935
 32
0.0
 13
-114.51051775489
 23
85.00002006500935
 33
0.0
  0
MTEXT
  5
461
330
44F
100
AcDbEntity
  8
tekst
 62
     0
100
AcDbMText
 10
-120.1355177548901
 20
42.52528609831212
 30
0.0
 40
7.5
 41
0.0
 71
     5
 72
     1
  1
85
 11
0.0000000000000001
 21
1.0
 31
0.0
 73
     1
 44
1.0
  0
POINT
  5
462
330
44F
100
AcDbEntity
  8
Defpoints
 62
     0
100
AcDbPoint
 10
-222.4630254573706
 20
0.0505521316149498
 30
0.0
  0
POINT
  5
463
330
44F
100
AcDbEntity
  8
Defpoints
 62
     0
100
AcDbPoint
 10
-0.1271091425987334
 20
85.00002006500933
 30
0.0
  0
POINT
  5
464
330
44F
100
AcDbEntity
  8
Defpoints
 62
     0
100
AcDbPoint
 10
-114.51051775489
 20
85.00002006500935
 30
0.0
  0
ENDBLK
  5
45A
330
44F
100
AcDbEntity
  8
0
100
AcDbBlockEnd
  0
BLOCK
  5
477
330
46D
100
AcDbEntity
  8
0
100
AcDbBlockBegin
  2
*D3
 70
     1
 10
0.0
 20
0.0
 30
0.0
  3
*D3
  1

  0
LINE
  5
47A
330
46D
100
AcDbEntity
  8
snij
 62
     0
370
    -2
100
AcDbLine
 10
-260.8000088964999
 20
-1.875
 30
0.0
 11
-260.8000088964999
 21
-168.2444179867507
 31
0.0
  0
LINE
  5
47B
330
46D
100
AcDbEntity
  8
snij
 62
     0
370
    -2
100
AcDbLine
 10
260.5457906113024
 20
-1.875
 30
0.0
 11
260.5457906113024
 21
-168.2444179867507
 31
0.0
  0
LINE
  5
47C
330
46D
100
AcDbEntity
  8
snij
 62
     0
370
    -2
100
AcDbLine
 10
-253.3000088965
 20
-164.4944179867507
 30
0.0
 11
253.0457906113024
 21
-164.4944179867507
 31
0.0
  0
SOLID
  5
47D
330
46D
100
AcDbEntity
  8
snij
 62
     0
100
AcDbTrace
 10
-253.3000088965
 20
-163.2444179867507
 30
0.0
 11
-253.3000088965
 21
-165.7444179867507
 31
0.0
 12
-260.8000088964999
 22
-164.4944179867507
 32
0.0
 13
-260.8000088964999
 23
-164.4944179867507
 33
0.0
  0
SOLID
  5
47E
330
46D
100
AcDbEntity
  8
snij
 62
     0
100
AcDbTrace
 10
253.0457906113024
 20
-163.2444179867507
 30
0.0
 11
253.0457906113024
 21
-165.7444179867507
 31
0.0
 12
260.5457906113024
 22
-164.4944179867507
 32
0.0
 13
260.5457906113024
 23
-164.4944179867507
 33
0.0
  0
MTEXT
  5
47F
330
46D
100
AcDbEntity
  8
snij
 62
     0
100
AcDbMText
 10
-0.1271091425987546
 20
-158.8694179867507
 30
0.0
 40
7.5
 41
0.0
 71
     5
 72
     1
  1
521
 73
     1
 44
1.0
  0
POINT
  5
480
330
46D
100
AcDbEntity
  8
Defpoints
 62
     0
100
AcDbPoint
 10
-260.8000088964999
 20
0.0
 30
0.0
  0
POINT
  5
481
330
46D
100
AcDbEntity
  8
Defpoints
 62
     0
100
AcDbPoint
 10
260.5457906113024
 20
0.0
 30
0.0
  0
POINT
  5
482
330
46D
100
AcDbEntity
  8
Defpoints
 62
     0
100
AcDbPoint
 10
260.5457906113024
 20
-164.4944179867507
 30
0.0
  0
ENDBLK
  5
478
330
46D
100
AcDbEntity
  8
0
100
AcDbBlockEnd
  0
BLOCK
  5
48F
330
485
100
AcDbEntity
  8
0
100
AcDbBlockBegin
  2
*D4
 70
     1
 10
0.0
 20
0.0
 30
0.0
  3
*D4
  1

  0
LINE
  5
492
330
485
100
AcDbEntity
  8
snij
 62
     0
370
    -2
100
AcDbLine
 10
222.5224395114358
 20
-1.874903368800005
 30
0.0
 11
222.5224395114358
 21
-51.92528630891729
 31
0.0
  0
LINE
  5
493
330
485
100
AcDbEntity
  8
snij
 62
     0
370
    -2
100
AcDbLine
 10
260.5457906113024
 20
-3.75
 30
0.0
 11
260.5457906113024
 21
-51.92528630891729
 31
0.0
  0
LINE
  5
494
330
485
100
AcDbEntity
  8
snij
 62
     0
370
    -2
100
AcDbLine
 10
230.0224395114359
 20
-48.17528630891729
 30
0.0
 11
253.0457906113024
 21
-48.17528630891729
 31
0.0
  0
SOLID
  5
495
330
485
100
AcDbEntity
  8
snij
 62
     0
100
AcDbTrace
 10
230.0224395114359
 20
-46.92528630891729
 30
0.0
 11
230.0224395114359
 21
-49.42528630891729
 31
0.0
 12
222.5224395114358
 22
-48.17528630891729
 32
0.0
 13
222.5224395114358
 23
-48.17528630891729
 33
0.0
  0
SOLID
  5
496
330
485
100
AcDbEntity
  8
snij
 62
     0
100
AcDbTrace
 10
253.0457906113024
 20
-46.92528630891729
 30
0.0
 11
253.0457906113024
 21
-49.42528630891729
 31
0.0
 12
260.5457906113024
 22
-48.17528630891729
 32
0.0
 13
260.5457906113024
 23
-48.17528630891729
 33
0.0
  0
MTEXT
  5
497
330
485
100
AcDbEntity
  8
snij
 62
     0
100
AcDbMText
 10
241.5341150613691
 20
-42.55028630891729
 30
0.0
 40
7.5
 41
0.0
 71
     5
 72
     1
  1
38
 73
     1
 44
1.0
  0
POINT
  5
498
330
485
100
AcDbEntity
  8
Defpoints
 62
     0
100
AcDbPoint
 10
222.5224395114358
 20
0.0000966311999946
 30
0.0
  0
POINT
  5
499
330
485
100
AcDbEntity
  8
Defpoints
 62
     0
100
AcDbPoint
 10
260.5457906113024
 20
-1.875
 30
0.0
  0
POINT
  5
49A
330
485
100
AcDbEntity
  8
Defpoints
 62
     0
100
AcDbPoint
 10
260.5457906113024
 20
-48.17528630891729
 30
0.0
  0
ENDBLK
  5
490
330
485
100
AcDbEntity
  8
0
100
AcDbBlockEnd
  0
BLOCK
  5
4AA
330
4A0
100
AcDbEntity
  8
0
100
AcDbBlockBegin
  2
*D5
 70
     1
 10
0.0
 20
0.0
 30
0.0
  3
*D5
  1

  0
LINE
  5
4AD
330
4A0
100
AcDbEntity
  8
snij
 62
     0
370
    -2
100
AcDbLine
 10
-0.251854776522499
 20
34.13734224594813
 30
0.0
 11
-4.51537464652265
 21
-2.996582062072196
 31
0.0
  0
LINE
  5
4AE
330
4A0
100
AcDbEntity
  8
snij
 62
     0
370
    -2
100
AcDbLine
 10
159.7481452234775
 20
15.76699244015921
 30
0.0
 11
155.4846253534773
 21
-21.36693186786116
 31
0.0
  0
LINE
  5
4AF
330
4A0
100
AcDbEntity
  8
snij
 62
     0
370
    -2
100
AcDbLine
 10
3.363419694114138
 20
-0.1265472647309376
 30
0.0
 11
148.4613209112222
 21
-16.7859172737565
 31
0.0
  0
SOLID
  5
4B0
330
4A0
100
AcDbEntity
  8
snij
 62
     0
100
AcDbTrace
 10
3.506001343844423
 20
1.115294300510051
 30
0.0
 11
3.220838044383854
 21
-1.368388829971927
 31
0.0
 12
-4.087629697331796
 22
0.7289426336507681
 32
0.0
 13
-4.087629697331796
 23
0.7289426336507681
 33
0.0
  0
SOLID
  5
4B1
330
4A0
100
AcDbEntity
  8
snij
 62
     0
100
AcDbTrace
 10
148.6039025609525
 20
-15.54407570851551
 30
0.0
 11
148.3187392614919
 21
-18.02775883899748
 31
0.0
 12
155.9123703026681
 22
-17.6414071721382
 32
0.0
 13
155.9123703026681
 23
-17.6414071721382
 33
0.0
  0
MTEXT
  5
4B2
330
4A0
100
AcDbEntity
  8
snij
 62
     0
100
AcDbMText
 10
76.55398772645447
 20
-2.867945225659267
 30
0.0
 40
7.5
 41
0.0
 71
     5
 72
     1
  1
161
 11
0.9934732521927916
 21
-0.1140653197842274
 31
0.0
 73
     1
 44
1.0
  0
POINT
  5
4B3
330
4A0
100
AcDbEntity
  8
Defpoints
 62
     0
100
AcDbPoint
 10
-0.0379823019270731
 20
36.00010459380961
 30
0.0
  0
POINT
  5
4B4
330
4A0
100
AcDbEntity
  8
Defpoints
 62
     0
100
AcDbPoint
 10
159.9620176980729
 20
17.6297547880207
 30
0.0
  0
POINT
  5
4B5
330
4A0
100
AcDbEntity
  8
Defpoints
 62
     0
100
AcDbPoint
 10
155.9123703026681
 20
-17.6414071721382
 30
0.0
  0
ENDBLK
  5
4AB
330
4A0
100
AcDbEntity
  8
0
100
AcDbBlockEnd
  0
BLOCK
  5
4DC
330
4D0
100
AcDbEntity
  8
0
100
AcDbBlockBegin
  2
*D6
 70
     1
 10
0.0
 20
0.0
 30
0.0
  3
*D6
  1

  0
LINE
  5
4DF
330
4D0
100
AcDbEntity
  8
snij
 62
     0
370
    -2
100
AcDbLine
 10
213.4590773853834
 20
24.39557175953389
 30
0.0
 11
228.1176162233248
 21
23.81028820157223
 31
0.0
  0
LINE
  5
4E0
330
4D0
100
AcDbEntity
  8
snij
 62
     0
370
    -2
100
AcDbLine
 10
213.7888656853257
 20
32.65518291252563
 30
0.0
 11
228.4474045232671
 21
32.06989935456397
 31
0.0
  0
LINE
  5
4E1
330
4D0
100
AcDbEntity
  8
snij
 62
     0
370
    -2
100
AcDbLine
 10
224.0713815759182
 20
16.46586956030957
 30
0.0
 11
223.772161314498
 21
8.971840788336814
 31
0.0
  0
LINE
  5
4E2
330
4D0
100
AcDbEntity
  8
snij
 62
     0
370
    -2
100
AcDbLine
 10
224.9996103987009
 20
39.71353825724683
 30
0.0
 11
225.6479209651114
 21
55.95060059652116
 31
0.0
  0
LINE
  5
4E3
330
4D0
100
AcDbEntity
  8
snij
 62
     0
370
    -2
100
AcDbLine
 10
224.3706018373384
 20
23.95989833228234
 30
0.0
 11
224.7003901372807
 21
32.21950948527408
 31
0.0
  0
SOLID
  5
4E4
330
4D0
100
AcDbEntity
  8
snij
 62
     0
100
AcDbTrace
 10
222.8223767805894
 20
16.51573960387961
 30
0.0
 11
225.320386371247
 21
16.41599951673954
 31
0.0
 12
224.3706018373384
 22
23.95989833228234
 32
0.0
 13
224.3706018373384
 23
23.95989833228234
 33
0.0
  0
SOLID
  5
4E5
330
4D0
100
AcDbEntity
  8
snij
 62
     0
100
AcDbTrace
 10
223.7506056033721
 20
39.76340830081687
 30
0.0
 11
226.2486151940297
 21
39.6636682136768
 31
0.0
 12
224.7003901372807
 22
32.21950948527408
 32
0.0
 13
224.7003901372807
 23
32.21950948527408
 33
0.0
  0
MTEXT
  5
4E6
330
4D0
100
AcDbEntity
  8
snij
 62
     0
100
AcDbMText
 10
219.8528542336367
 20
51.80349900893556
 30
0.0
 40
7.5
 41
0.0
 71
     5
 72
     1
  1
8
 11
0.0398960348560291
 21
0.9992038362630355
 31
0.0
 73
     1
 44
1.0
  0
POINT
  5
4E7
330
4D0
100
AcDbEntity
  8
Defpoints
 62
     0
100
AcDbPoint
 10
211.5855701923902
 20
24.47037682488894
 30
0.0
  0
POINT
  5
4E8
330
4D0
100
AcDbEntity
  8
Defpoints
 62
     0
100
AcDbPoint
 10
211.9153584923326
 20
32.72998797788068
 30
0.0
  0
POINT
  5
4E9
330
4D0
100
AcDbEntity
  8
Defpoints
 62
     0
100
AcDbPoint
 10
224.7003901372807
 20
32.21950948527408
 30
0.0
  0
ENDBLK
  5
4DD
330
4D0
100
AcDbEntity
  8
0
100
AcDbBlockEnd
  0
BLOCK
  5
519
330
50E
100
AcDbEntity
  8
0
100
AcDbBlockBegin
  2
*D7
 70
     1
 10
0.0
 20
0.0
 30
0.0
  3
*D7
  1

  0
LINE
  5
6B4
330
50E
100
AcDbEntity
  8
tekst
 62
     0
370
    -2
100
AcDbLine
 10
-0.0379823019270731
 20
34.12510459380962
 30
0.0
 11
-0.0379823019270802
 21
-110.7469566698993
 31
0.0
  0
ARC
  5
6B5
330
50E
100
AcDbEntity
  8
tekst
 62
     0
370
    -2
100
AcDbCircle
 10
-0.0379823019270731
 20
49.32184825851312
 30
0.0
 40
156.3188049284125
100
AcDbArc
 50
272.7492506347918
 51
351.7585094886308
  0
SOLID
  5
6B6
330
50E
100
AcDbEntity
  8
tekst
 62
     0
100
AcDbTrace
 10
7.489846083822143
 20
-108.0666761633686
 30
0.0
 11
7.429872493285209
 21
-105.5673956332084
 31
0.0
 12
-0.0379823019270802
 22
-106.9969566698993
 32
0.0
 13
-0.0379823019270802
 23
-106.9969566698993
 33
0.0
  0
SOLID
  5
6B7
330
50E
100
AcDbEntity
  8
tekst
 62
     0
100
AcDbTrace
 10
153.4254361202101
 20
27.06368268307522
 30
0.0
 11
155.907502751274
 21
26.76477594350743
 31
0.0
 12
155.5631896544455
 22
34.36042920648306
 32
0.0
 13
155.5631896544455
 23
34.36042920648306
 33
0.0
  0
MTEXT
  5
6B8
330
50E
100
AcDbEntity
  8
tekst
 62
     0
100
AcDbMText
 10
100.8708233002818
 20
-61.75496824510088
 30
0.0
 40
7.5
 41
0.0
 71
     5
 72
     1
  1
84,51°
 11
0.7401725932088351
 21
0.6724169333549747
 31
0.0
 73
     1
 44
1.0
  0
POINT
  5
6B9
330
50E
100
AcDbEntity
  8
Defpoints
 62
     0
100
AcDbPoint
 10
73.75664946109477
 20
-88.48207438959979
 30
0.0
  0
POINT
  5
6BA
330
50E
100
AcDbEntity
  8
Defpoints
 62
     0
100
AcDbPoint
 10
-0.0379823019270731
 20
36.00010459380962
 30
0.0
  0
POINT
  5
6BB
330
50E
100
AcDbEntity
  8
Defpoints
 62
     0
100
AcDbPoint
 10
138.5522285666338
 20
35.99607316798166
 30
0.0
  0
POINT
  5
6BC
330
50E
100
AcDbEntity
  8
Defpoints
 62
     0
100
AcDbPoint
 10
227.34488712063
 20
27.45844998258162
 30
0.0
  0
POINT
  5
6BD
330
50E
100
AcDbEntity
  8
Defpoints
 62
     0
100
AcDbPoint
 10
-0.0379823019270731
 20
129.849727687839
 30
0.0
  0
ENDBLK
  5
51A
330
50E
100
AcDbEntity
  8
0
100
AcDbBlockEnd
  0
BLOCK
  5
53D
330
532
100
AcDbEntity
  8
0
100
AcDbBlockBegin
  2
*D8
 70
     1
 10
0.0
 20
0.0
 30
0.0
  3
*D8
  1

  0
LINE
  5
6AA
330
532
100
AcDbEntity
  8
tekst
 62
     0
370
    -2
100
AcDbLine
 10
-0.0379823019270766
 20
34.10897889049801
 30
0.0
 11
-0.0379823019270944
 21
-82.78766444816028
 31
0.0
  0
ARC
  5
6AB
330
532
100
AcDbEntity
  8
tekst
 62
     0
370
    -2
100
AcDbCircle
 10
-0.0379823019270731
 20
35.98397889049801
 30
0.0
 40
115.0216433386583
100
AcDbArc
 50
273.7366403125554
 51
356.2683596874443
  0
SOLID
  5
6AC
330
532
100
AcDbEntity
  8
tekst
 62
     0
100
AcDbTrace
 10
7.498783862117846
 20
-80.04248074406081
 30
0.0
 11
7.417277462731803
 21
-77.5438097559435
 31
0.0
 12
-0.0379823019270944
 22
-79.03766444816028
 32
0.0
 13
-0.0379823019270944
 23
-79.03766444816028
 33
0.0
  0
SOLID
  5
6AD
330
532
100
AcDbEntity
  8
tekst
 62
     0
100
AcDbTrace
 10
113.4904565063792
 20
28.53862632273562
 30
0.0
 11
115.9891345977574
 21
28.45733797383799
 31
0.0
 12
114.9836605987612
 22
35.99401642242146
 32
0.0
 13
114.9836605987612
 23
35.99401642242146
 33
0.0
  0
MTEXT
  5
6AE
330
532
100
AcDbEntity
  8
tekst
 62
     0
100
AcDbMText
 10
76.87854020041418
 20
-40.92583167186861
 30
0.0
 40
7.5
 41
0.0
 71
     5
 72
     1
  1
90,00°
 11
0.7070759271597061
 21
0.7071376338671575
 31
0.0
 73
     1
 44
1.0
  0
POINT
  5
6AF
330
532
100
AcDbEntity
  8
Defpoints
 62
     0
100
AcDbPoint
 10
57.47573692895265
 20
-63.62601326168045
 30
0.0
  0
POINT
  5
6B0
330
532
100
AcDbEntity
  8
Defpoints
 62
     0
100
AcDbPoint
 10
-0.0379823019270731
 20
36.00010459380962
 30
0.0
  0
POINT
  5
6B1
330
532
100
AcDbEntity
  8
Defpoints
 62
     0
100
AcDbPoint
 10
92.35549161044565
 20
35.9920417421538
 30
0.0
  0
POINT
  5
6B2
330
532
100
AcDbEntity
  8
Defpoints
 62
     0
100
AcDbPoint
 10
138.552228566632
 20
35.99607316798168
 30
0.0
  0
POINT
  5
6B3
330
532
100
AcDbEntity
  8
Defpoints
 62
     0
100
AcDbPoint
 10
-0.0379823019270731
 20
129.849727687839
 30
0.0
  0
ENDBLK
  5
53E
330
532
100
AcDbEntity
  8
0
100
AcDbBlockEnd
  0
BLOCK
  5
557
330
54C
100
AcDbEntity
  8
0
100
AcDbBlockBegin
  2
*D9
 70
     1
 10
0.0
 20
0.0
 30
0.0
  3
*D9
  1

  0
LINE
  5
628
330
54C
100
AcDbEntity
  8
tekst
 62
     0
370
    -2
100
AcDbLine
 10
-0.0379823019270731
 20
34.12510459380962
 30
0.0
 11
-0.0379823019270944
 21
-42.55644439298255
 31
0.0
  0
ARC
  5
629
330
54C
100
AcDbEntity
  8
tekst
 62
     0
370
    -2
100
AcDbCircle
 10
-0.0379823019270731
 20
36.00010459380985
 30
0.0
 40
74.8065489867924
100
AcDbArc
 50
275.746803355528
 51
354.248196644472
  0
SOLID
  5
62A
330
54C
100
AcDbEntity
  8
tekst
 62
     0
100
AcDbTrace
 10
7.515249845954301
 20
-39.67890305688074
 30
0.0
 11
7.389926593819582
 21
-37.18204621627606
 31
0.0
 12
-0.0379823019270909
 22
-38.80644439298255
 32
0.0
 13
-0.0379823019270909
 23
-38.80644439298255
 33
0.0
  0
SOLID
  5
62B
330
54C
100
AcDbEntity
  8
tekst
 62
     0
100
AcDbTrace
 10
73.14352002216884
 20
28.56580937892806
 30
0.0
 11
75.64036591674931
 21
28.44026823540671
 31
0.0
 12
74.7685664000231
 22
35.9935764909088
 32
0.0
 13
74.7685664000231
 23
35.9935764909088
 33
0.0
  0
MTEXT
  5
62C
330
54C
100
AcDbEntity
  8
tekst
 62
     0
100
AcDbMText
 10
48.43670313577884
 20
-12.47881124280851
 30
0.0
 40
7.5
 41
0.0
 71
     5
 72
     1
  1
90,00°
 11
0.7071376338671591
 21
0.7070759271597045
 31
0.0
 73
     1
 44
1.0
  0
POINT
  5
62D
330
54C
100
AcDbEntity
  8
Defpoints
 62
     0
100
AcDbPoint
 10
37.36340767465883
 20
-28.78535518793986
 30
0.0
  0
POINT
  5
62E
330
54C
100
AcDbEntity
  8
Defpoints
 62
     0
100
AcDbPoint
 10
-0.0379823019270731
 20
36.00010459380962
 30
0.0
  0
POINT
  5
62F
330
54C
100
AcDbEntity
  8
Defpoints
 62
     0
100
AcDbPoint
 10
46.15875465425931
 20
35.99607316798183
 30
0.0
  0
POINT
  5
630
330
54C
100
AcDbEntity
  8
Defpoints
 62
     0
100
AcDbPoint
 10
92.35549161044566
 20
35.9920417421538
 30
0.0
  0
POINT
  5
631
330
54C
100
AcDbEntity
  8
Defpoints
 62
     0
100
AcDbPoint
 10
-0.0379823019270731
 20
129.849727687839
 30
0.0
  0
ENDBLK
  5
558
330
54C
100
AcDbEntity
  8
0
100
AcDbBlockEnd
  0
BLOCK
  5
571
330
566
100
AcDbEntity
  8
0
100
AcDbBlockBegin
  2
*D10
 70
     1
 10
0.0
 20
0.0
 30
0.0
  3
*D10
  1

  0
LINE
  5
5EA
330
566
100
AcDbEntity
  8
tekst
 62
     0
370
    -2
100
AcDbLine
 10
-0.0379823019270731
 20
34.12510459380962
 30
0.0
 11
-0.0379823019270811
 21
4.238625262678195
 31
0.0
  0
ARC
  5
5EB
330
566
100
AcDbEntity
  8
tekst
 62
     0
370
    -2
100
AcDbCircle
 10
-0.0379823019270731
 20
36.00010459380962
 30
0.0
 40
28.01147933113143
100
AcDbArc
 50
239.2260172670109
 51
254.6130086335053
  0
ARC
  5
5EC
330
566
100
AcDbEntity
  8
tekst
 62
     0
370
    -2
100
AcDbCircle
 10
-0.0379823019270731
 20
36.00010459380962
 30
0.0
 40
28.01147933113143
100
AcDbArc
 50
15.38199136649454
 51
30.76898273298919
  0
ARC
  5
5ED
330
566
100
AcDbEntity
  8
tekst
 62
     0
370
    -2
100
AcDbCircle
 10
-0.0379823019270731
 20
36.00010459380962
 30
0.0
 40
28.01147933113143
100
AcDbArc
 50
270.0
 51
359.995
  0
SOLID
  5
5EE
330
566
100
AcDbEntity
  8
tekst
 62
     0
100
AcDbTrace
 10
-7.303128221467718
 20
10.23142591538498
 30
0.0
 11
-7.637812437505562
 21
7.753929906198469
 31
0.0
 12
-0.0379823019270802
 22
7.988625262678196
 32
0.0
 13
-0.0379823019270802
 23
7.988625262678196
 33
0.0
  0
SOLID
  5
5EF
330
566
100
AcDbEntity
  8
tekst
 62
     0
100
AcDbTrace
 10
28.20885548842205
 20
43.59746975670628
 30
0.0
 11
25.73133028196155
 21
43.26300174425536
 31
0.0
 12
27.97349692254455
 22
35.99766013109933
 32
0.0
 13
27.97349692254455
 23
35.99766013109933
 33
0.0
  0
MTEXT
  5
5F0
330
566
100
AcDbEntity
  8
tekst
 62
     0
100
AcDbMText
 10
15.34903587249942
 20
20.61174359014425
 30
0.0
 40
7.5
 41
0.0
 71
     5
 72
     1
  1
90,00°
 11
0.7071376338671591
 21
0.7070759271597045
 31
0.0
 73
     1
 44
1.0
  0
POINT
  5
5F1
330
566
100
AcDbEntity
  8
Defpoints
 62
     0
100
AcDbPoint
 10
13.9670517021104
 20
11.74104449527824
 30
0.0
  0
POINT
  5
5F2
330
566
100
AcDbEntity
  8
Defpoints
 62
     0
100
AcDbPoint
 10
-0.0379823019270731
 20
36.00010459380962
 30
0.0
  0
POINT
  5
5F3
330
566
100
AcDbEntity
  8
Defpoints
 62
     0
100
AcDbPoint
 10
-0.0379823019270731
 20
36.00010459380962
 30
0.0
  0
POINT
  5
5F4
330
566
100
AcDbEntity
  8
Defpoints
 62
     0
100
AcDbPoint
 10
46.15875465425931
 20
35.9960731679816
 30
0.0
  0
POINT
  5
5F5
330
566
100
AcDbEntity
  8
Defpoints
 62
     0
100
AcDbPoint
 10
-0.0379823019270731
 20
129.849727687839
 30
0.0
  0
ENDBLK
  5
572
330
566
100
AcDbEntity
  8
0
100
AcDbBlockEnd
  0
BLOCK
  5
6E0
330
6D6
100
AcDbEntity
  8
0
100
AcDbBlockBegin
  2
*D11
 70
     1
 10
0.0
 20
0.0
 30
0.0
  3
*D11
  1

  0
LINE
  5
6E3
330
6D6
100
AcDbEntity
  8
tekst
 62
     0
370
    -2
100
AcDbLine
 10
-262.8294932891225
 20
23.69503823714905
 30
0.0
 11
-262.8294932891225
 21
-49.7658387096817
 31
0.0
  0
LINE
  5
6E4
330
6D6
100
AcDbEntity
  8
tekst
 62
     0
370
    -2
100
AcDbLine
 10
262.7535286852684
 20
23.69503823714905
 30
0.0
 11
262.7535286852684
 21
-49.7658387096817
 31
0.0
  0
LINE
  5
6E5
330
6D6
100
AcDbEntity
  8
tekst
 62
     0
370
    -2
100
AcDbLine
 10
-255.3294932891225
 20
-46.0158387096817
 30
0.0
 11
255.2535286852684
 21
-46.0158387096817
 31
0.0
  0
SOLID
  5
6E6
330
6D6
100
AcDbEntity
  8
tekst
 62
     0
100
AcDbTrace
 10
-255.3294932891225
 20
-44.7658387096817
 30
0.0
 11
-255.3294932891225
 21
-47.2658387096817
 31
0.0
 12
-262.8294932891225
 22
-46.0158387096817
 32
0.0
 13
-262.8294932891225
 23
-46.0158387096817
 33
0.0
  0
SOLID
  5
6E7
330
6D6
100
AcDbEntity
  8
tekst
 62
     0
100
AcDbTrace
 10
255.2535286852684
 20
-44.7658387096817
 30
0.0
 11
255.2535286852684
 21
-47.2658387096817
 31
0.0
 12
262.7535286852684
 22
-46.0158387096817
 32
0.0
 13
262.7535286852684
 23
-46.0158387096817
 33
0.0
  0
MTEXT
  5
6E8
330
6D6
100
AcDbEntity
  8
tekst
 62
     0
100
AcDbMText
 10
-0.0379823019270585
 20
-40.3908387096817
 30
0.0
 40
7.5
 41
0.0
 71
     5
 72
     1
  1
526
 73
     1
 44
1.0
  0
POINT
  5
6E9
330
6D6
100
AcDbEntity
  8
Defpoints
 62
     0
100
AcDbPoint
 10
-262.8294932891225
 20
25.57003823714905
 30
0.0
  0
POINT
  5
6EA
330
6D6
100
AcDbEntity
  8
Defpoints
 62
     0
100
AcDbPoint
 10
262.7535286852684
 20
25.57003823714905
 30
0.0
  0
POINT
  5
6EB
330
6D6
100
AcDbEntity
  8
Defpoints
 62
     0
100
AcDbPoint
 10
262.7535286852684
 20
-46.0158387096817
 30
0.0
  0
ENDBLK
  5
6E1
330
6D6
100
AcDbEntity
  8
0
100
AcDbBlockEnd
  0
ENDSEC
  0
SECTION
  2
ENTITIES
  0
ARC
  5
40D
330
1F
100
AcDbEntity
  8
snij
100
AcDbCircle
 10
115.5154337483831
 20
-669.5881084047172
 30
0.0
 40
705.9601484511103
100
AcDbArc
 50
80.88552024684579
 51
88.13
  0
LINE
  5
4B9
330
1F
100
AcDbEntity
  8
snij
100
AcDbLine
 10
155.4096316142339
 20
65.23847758248864
 30
0.0
 11
155.2892225930466
 21
63.02061747514556
 31
0.0
  0
ARC
  5
4BA
330
1F
100
AcDbEntity
  8
snij
100
AcDbCircle
 10
135.3186323201471
 20
64.10483339089735
 30
0.0
 40
20.0
100
AcDbArc
 50
268.4538977840152
 51
356.8924268333026
  0
LINE
  5
4C3
330
1F
100
AcDbEntity
  8
snij
100
AcDbLine
 10
172.9182276166338
 20
70.1481832193404
 30
0.0
 11
159.0754347828212
 21
69.00813779650677
 31
0.0
  0
ARC
  5
4C4
330
1F
100
AcDbEntity
  8
snij
100
AcDbCircle
 10
159.4037496688139
 20
65.02163439933832
 30
0.0
 40
4.0
100
AcDbArc
 50
94.70806075727226
 51
176.892426833303
  0
LINE
  5
4C8
330
1F
100
AcDbEntity
  8
snij
100
AcDbLine
 10
172.9182276166338
 20
70.14818321934028
 30
0.0
 11
210.1092432020446
 21
58.25082345275088
 31
0.0
  0
ARC
  5
4C9
330
1F
100
AcDbEntity
  8
snij
100
AcDbCircle
 10
115.5154337483831
 20
-669.5881084047172
 30
0.0
 40
725.9601484511104
100
AcDbArc
 50
80.79818896248319
 51
81.94903400259393
  0
LINE
  5
4CE
330
1F
100
AcDbEntity
  8
snij
100
AcDbLine
 10
210.1092432020446
 20
58.25082345275088
 30
0.0
 11
210.3706575520969
 21
56.15012629694589
 31
0.0
  0
ARC
  5
4EB
330
1F
100
AcDbEntity
  8
snij
100
AcDbCircle
 10
218.3094248579995
 20
57.13804009011433
 30
0.0
 40
8.0
100
AcDbArc
 50
187.0935187467425
 51
261.9490340025943
  0
LINE
  5
4F7
330
1F
100
AcDbEntity
  8
snij
100
AcDbLine
 10
227.3448871206301
 20
27.45844998258153
 30
0.0
 11
262.7535286852685
 21
25.57003823714917
 31
0.0
  0
LINE
  5
4F8
330
1F
100
AcDbEntity
  8
snij
100
AcDbLine
 10
254.2220649520725
 20
35.03782804233164
 30
0.0
 11
259.0983281706342
 21
34.77776743766421
 31
0.0
  0
LINE
  5
4FA
330
1F
100
AcDbEntity
  8
snij
100
AcDbLine
 10
262.7535286852684
 20
25.57003823714905
 30
0.0
 11
262.8840006096904
 21
30.6813731810887
 31
0.0
  0
LINE
  5
4FB
330
1F
100
AcDbEntity
  8
snij
100
AcDbLine
 10
248.2871145935618
 20
38.17491106255748
 30
0.0
 11
244.0809298981521
 21
43.68973941291633
 31
0.0
  0
LINE
  5
4FC
330
1F
100
AcDbEntity
  8
snij
100
AcDbLine
 10
231.6054558236193
 20
47.02981204782714
 30
0.0
 11
237.9656062621192
 21
46.83440219785409
 31
0.0
  0
ARC
  5
4FD
330
1F
100
AcDbEntity
  8
snij
100
AcDbCircle
 10
254.6481150406747
 20
43.02647506933201
 30
0.0
 40
8.0
100
AcDbArc
 50
217.3329309159846
 51
266.9471967713767
  0
ARC
  5
4FE
330
1F
100
AcDbEntity
  8
snij
100
AcDbCircle
 10
237.7199294510393
 20
38.83817540614178
 30
0.0
 40
8.0
100
AcDbArc
 50
37.33293091598471
 51
88.24019276977628
  0
ARC
  5
4FF
330
1F
100
AcDbEntity
  8
snij
100
AcDbCircle
 10
258.885303126333
 20
30.78344392416402
 30
0.0
 40
4.0
100
AcDbArc
 50
358.5377855858417
 51
86.94719677137673
  0
LINE
  5
507
330
1F
100
AcDbEntity
  8
snij
100
AcDbLine
 10
-0.0379823019270724
 20
36.00010459380962
 30
0.0
 11
46.1587546542593
 21
35.9960731679816
 31
0.0
  0
LINE
  5
508
330
1F
100
AcDbEntity
  8
snij
100
AcDbLine
 10
46.1587546542593
 20
35.99607316798183
 30
0.0
 11
92.35549161044565
 21
35.9920417421538
 31
0.0
  0
LINE
  5
509
330
1F
100
AcDbEntity
  8
snij
100
AcDbLine
 10
92.35549161044565
 20
35.9920417421538
 30
0.0
 11
138.5522285666321
 21
35.9960731679817
 31
0.0
  0
LINE
  5
59F
330
1F
100
AcDbEntity
  8
snij
100
AcDbLine
 10
-0.299037205593145
 20
43.99584410540402
 30
0.0
 11
46.42120507374828
 21
43.99176699511823
 31
0.0
  0
LINE
  5
5A0
330
1F
100
AcDbEntity
  8
snij
100
AcDbLine
 10
45.89769975059322
 20
43.99181267957627
 30
0.0
 11
92.61794202993465
 21
43.98773556929035
 31
0.0
  0
LINE
  5
5A1
330
1F
100
AcDbEntity
  8
snij
100
AcDbLine
 10
92.09304119095667
 20
43.98773556929035
 30
0.0
 11
134.7790063305466
 21
44.11211462152163
 31
0.0
  0
LINE
  5
6BE
330
1F
100
AcDbEntity
  8
snij
100
AcDbLine
 10
-45.97366435444737
 20
43.99181267957627
 30
0.0
 11
-92.6939066337888
 21
43.98773556929035
 31
0.0
  0
LINE
  5
6BF
330
1F
100
AcDbEntity
  8
snij
100
AcDbLine
 10
-46.23471925811345
 20
35.99607316798183
 30
0.0
 11
-92.43145621429979
 21
35.9920417421538
 31
0.0
  0
LINE
  5
6C0
330
1F
100
AcDbEntity
  8
snij
100
AcDbLine
 10
0.223072601739
 20
43.99584410540402
 30
0.0
 11
-46.49716967760243
 21
43.99176699511823
 31
0.0
  0
LINE
  5
6C1
330
1F
100
AcDbEntity
  8
snij
100
AcDbLine
 10
-0.0379823019270726
 20
36.00010459380962
 30
0.0
 11
-46.23471925811345
 21
35.9960731679816
 31
0.0
  0
LINE
  5
6C2
330
1F
100
AcDbEntity
  8
snij
100
AcDbLine
 10
-172.9941922204879
 20
70.14818321934028
 30
0.0
 11
-210.1852078058987
 21
58.25082345275088
 31
0.0
  0
ARC
  5
6C3
330
1F
100
AcDbEntity
  8
snij
100
AcDbCircle
 10
-115.5913983522373
 20
-669.5881084047172
 30
0.0
 40
705.9601484511103
100
AcDbArc
 50
91.87000000000002
 51
99.11447975315423
  0
LINE
  5
6C4
330
1F
100
AcDbEntity
  8
snij
100
AcDbLine
 10
-92.16900579481082
 20
43.98773556929035
 30
0.0
 11
-134.8549709344007
 21
44.11211462152163
 31
0.0
  0
LINE
  5
6C5
330
1F
100
AcDbEntity
  8
snij
100
AcDbLine
 10
-92.43145621429979
 20
35.9920417421538
 30
0.0
 11
-138.6281931704862
 21
35.9960731679817
 31
0.0
  0
LINE
  5
6C6
330
1F
100
AcDbEntity
  8
snij
100
AcDbLine
 10
-172.9941922204879
 20
70.1481832193404
 30
0.0
 11
-159.1513993866754
 21
69.00813779650677
 31
0.0
  0
ARC
  5
6C7
330
1F
100
AcDbEntity
  8
snij
100
AcDbCircle
 10
-135.3945969240012
 20
64.10483339089735
 30
0.0
 40
20.0
100
AcDbArc
 50
183.1075731666973
 51
271.5461022159847
  0
ARC
  5
6C8
330
1F
100
AcDbEntity
  8
snij
100
AcDbCircle
 10
-159.479714272668
 20
65.02163439933832
 30
0.0
 40
4.0
100
AcDbArc
 50
3.107573166696929
 51
85.29193924272775
  0
LINE
  5
6C9
330
1F
100
AcDbEntity
  8
snij
100
AcDbLine
 10
-155.485596218088
 20
65.23847758248864
 30
0.0
 11
-155.3651871969008
 21
63.02061747514556
 31
0.0
  0
ARC
  5
6CA
330
1F
100
AcDbEntity
  8
snij
100
AcDbCircle
 10
-237.7958940548934
 20
38.83817540614178
 30
0.0
 40
8.0
100
AcDbArc
 50
91.75980723022371
 51
142.6670690840152
  0
LINE
  5
6CB
330
1F
100
AcDbEntity
  8
snij
100
AcDbLine
 10
-227.4208517244842
 20
27.45844998258153
 30
0.0
 11
-262.8294932891226
 21
25.57003823714917
 31
0.0
  0
ARC
  5
6CC
330
1F
100
AcDbEntity
  8
snij
100
AcDbCircle
 10
-218.3853894618537
 20
57.13804009011433
 30
0.0
 40
8.0
100
AcDbArc
 50
278.0509659974056
 51
352.9064812532574
  0
LINE
  5
6CD
330
1F
100
AcDbEntity
  8
snij
100
AcDbLine
 10
-210.1852078058987
 20
58.25082345275088
 30
0.0
 11
-210.4466221559511
 21
56.15012629694589
 31
0.0
  0
ARC
  5
6CE
330
1F
100
AcDbEntity
  8
snij
100
AcDbCircle
 10
-115.5913983522373
 20
-669.5881084047172
 30
0.0
 40
725.9601484511104
100
AcDbArc
 50
98.05096599740608
 51
99.20181103751682
  0
LINE
  5
6CF
330
1F
100
AcDbEntity
  8
snij
100
AcDbLine
 10
-231.6814204274735
 20
47.02981204782714
 30
0.0
 11
-238.0415708659733
 21
46.83440219785409
 31
0.0
  0
ARC
  5
6D0
330
1F
100
AcDbEntity
  8
snij
100
AcDbCircle
 10
-254.7240796445289
 20
43.02647506933201
 30
0.0
 40
8.0
100
AcDbArc
 50
273.0528032286232
 51
322.6670690840153
  0
ARC
  5
6D1
330
1F
100
AcDbEntity
  8
snij
100
AcDbCircle
 10
-258.9612677301871
 20
30.78344392416402
 30
0.0
 40
4.0
100
AcDbArc
 50
93.05280322862326
 51
181.4622144141582
  0
LINE
  5
6D2
330
1F
100
AcDbEntity
  8
snij
100
AcDbLine
 10
-254.2980295559266
 20
35.03782804233164
 30
0.0
 11
-259.1742927744884
 21
34.77776743766421
 31
0.0
  0
LINE
  5
6D3
330
1F
100
AcDbEntity
  8
snij
100
AcDbLine
 10
-262.8294932891225
 20
25.57003823714905
 30
0.0
 11
-262.9599652135445
 21
30.6813731810887
 31
0.0
  0
LINE
  5
6D4
330
1F
100
AcDbEntity
  8
snij
100
AcDbLine
 10
-248.363079197416
 20
38.17491106255748
 30
0.0
 11
-244.1568945020062
 21
43.68973941291633
 31
0.0
  0
ENDSEC
  0
SECTION
  2
OBJECTS
  0
DICTIONARY
  5
C
330
0
100
AcDbDictionary
281
     1
  3
ACAD_GROUP
350
D
  3
ACAD_LAYOUT
350
1A
  3
ACAD_MLINESTYLE
350
17
  3
ACAD_PLOTSETTINGS
350
19
  3
ACAD_PLOTSTYLENAME
350
E
  3
AcDbVariableDictionary
350
143
  0
DICTIONARY
  5
D
102
{ACAD_REACTORS
330
C
102
}
330
C
100
AcDbDictionary
281
     1
  0
DICTIONARY
  5
1A
102
{ACAD_REACTORS
330
C
102
}
330
C
100
AcDbDictionary
281
     1
  3
Layout1
350
1E
  3
Layout2
350
26
  3
Model
350
22
  0
DICTIONARY
  5
17
102
{ACAD_REACTORS
330
C
102
}
330
C
100
AcDbDictionary
281
     1
  3
Standard
350
18
  0
DICTIONARY
  5
19
102
{ACAD_REACTORS
330
C
102
}
330
C
100
AcDbDictionary
281
     1
  0
ACDBDICTIONARYWDFLT
  5
E
102
{ACAD_REACTORS
330
C
102
}
330
C
100
AcDbDictionary
281
     1
  3
Normal
350
F
100
AcDbDictionaryWithDefault
340
F
  0
DICTIONARY
  5
143
102
{ACAD_REACTORS
330
C
102
}
330
C
100
AcDbDictionary
281
     1
  3
DIMASSOC
350
145
  3
HIDETEXT
350
144
  0
LAYOUT
  5
1E
102
{ACAD_REACTORS
330
1A
102
}
330
1A
100
AcDbPlotSettings
  1

  2
Microsoft XPS Document Writer
  4

  6

 40
0.0
 41
0.0
 42
0.0
 43
0.0
 44
0.0
 45
0.0
 46
0.0
 47
0.0
 48
0.0
 49
0.0
140
0.0
141
0.0
142
1.0
143
1.0
 70
   688
 72
     0
 73
     0
 74
     5
  7

 75
    16
147
1.0
148
0.0
149
0.0
100
AcDbLayout
  1
Layout1
 70
     1
 71
     1
 10
0.0
 20
0.0
 11
420.0
 21
297.0
 12
0.0
 22
0.0
 32
0.0
 14
1.000000000000000E+20
 24
1.000000000000000E+20
 34
1.000000000000000E+20
 15
-1.000000000000000E+20
 25
-1.000000000000000E+20
 35
-1.000000000000000E+20
146
0.0
 13
0.0
 23
0.0
 33
0.0
 16
1.0
 26
0.0
 36
0.0
 17
0.0
 27
1.0
 37
0.0
 76
     0
330
1B
  0
LAYOUT
  5
26
102
{ACAD_REACTORS
330
1A
102
}
330
1A
100
AcDbPlotSettings
  1

  2
Microsoft XPS Document Writer
  4

  6

 40
0.0
 41
0.0
 42
0.0
 43
0.0
 44
0.0
 45
0.0
 46
0.0
 47
0.0
 48
0.0
 49
0.0
140
0.0
141
0.0
142
1.0
143
1.0
 70
   688
 72
     0
 73
     0
 74
     5
  7

 75
    16
147
1.0
148
0.0
149
0.0
100
AcDbLayout
  1
Layout2
 70
     1
 71
     2
 10
0.0
 20
0.0
 11
12.0
 21
9.0
 12
0.0
 22
0.0
 32
0.0
 14
0.0
 24
0.0
 34
0.0
 15
0.0
 25
0.0
 35
0.0
146
0.0
 13
0.0
 23
0.0
 33
0.0
 16
1.0
 26
0.0
 36
0.0
 17
0.0
 27
1.0
 37
0.0
 76
     0
330
23
  0
LAYOUT
  5
22
102
{ACAD_REACTORS
330
1A
102
}
330
1A
100
AcDbPlotSettings
  1

  2
\\nlybstqvp1ms119\pra15
  4
A4
  6

 40
5.027083396911621
 41
5.027085304260253
 42
5.027084350585937
 43
5.027069091796875
 44
209.9733276367187
 45
296.9683227539062
 46
34.5
 47
0.0
 48
-296.8781684199532
 49
-80.80138449082573
140
290.6720811379998
141
187.300031423457
142
1.0
143
2.047825846038876
 70
 11956
 72
     1
 73
     1
 74
     4
  7

 75
     0
147
0.4883227750710867
148
296.8781684199532
149
80.80138449082573
100
AcDbLayout
  1
Model
 70
     1
 71
     0
 10
0.0
 20
0.0
 11
12.0
 21
9.0
 12
0.0
 22
0.0
 32
0.0
 14
0.0
 24
0.0
 34
0.0
 15
0.0
 25
0.0
 35
0.0
146
0.0
 13
0.0
 23
0.0
 33
0.0
 16
1.0
 26
0.0
 36
0.0
 17
0.0
 27
1.0
 37
0.0
 76
     0
330
1F
  0
MLINESTYLE
  5
18
102
{ACAD_REACTORS
330
17
102
}
330
17
100
AcDbMlineStyle
  2
STANDARD
 70
     0
  3

 62
   256
 51
90.0
 52
90.0
 71
     2
 49
0.5
 62
   256
  6
BYLAYER
 49
-0.5
 62
   256
  6
BYLAYER
  0
ACDBPLACEHOLDER
  5
F
102
{ACAD_REACTORS
330
E
102
}
330
E
  0
DICTIONARYVAR
  5
145
102
{ACAD_REACTORS
330
143
102
}
330
143
100
DictionaryVariables
280
     0
  1
2
  0
DICTIONARYVAR
  5
144
102
{ACAD_REACTORS
330
143
102
}
330
143
100
DictionaryVariables
280
     0
  1
1
  0
ENDSEC
  0
EOF
