  0
SECTION
  2
HEADER
  9
$ACADVER
  1
AC1009
  9
$INSBASE
 10
0.0
 20
0.0
 30
0.0
  9
$EXTMIN
 10
-262.95996521354448
 20
25.570038237149181
 30
0.0
  9
$EXTMAX
 10
262.88400060969042
 20
70.148183219340396
 30
0.0
  9
$LIMMIN
 10
0.0
 20
0.0
  9
$LIMMAX
 10
420.0
 20
297.0
  9
$ORTHOMODE
 70
     1
  9
$REGENMODE
 70
     1
  9
$FILLMODE
 70
     1
  9
$QTEXTMODE
 70
     0
  9
$MIRRTEXT
 70
     1
  9
$DRAGMODE
 70
     2
  9
$LTSCALE
 40
1.0
  9
$OSMODE
 70
    37
  9
$ATTMODE
 70
     1
  9
$TEXTSIZE
 40
5.0
  9
$TRACEWID
 40
1.0
  9
$TEXTSTYLE
  7
STANDARD
  9
$CLAYER
  8
SNIJ
  9
$CELTYPE
  6
BYLAYER
  9
$CECOLOR
 62
   256
  9
$DIMSCALE
 40
3.0
  9
$DIMASZ
 40
2.5
  9
$DIMEXO
 40
0.625
  9
$DIMDLI
 40
3.75
  9
$DIMRND
 40
0.0
  9
$DIMDLE
 40
0.0
  9
$DIMEXE
 40
1.25
  9
$DIMTP
 40
0.0
  9
$DIMTM
 40
0.0
  9
$DIMTXT
 40
2.5
  9
$DIMCEN
 40
2.5
  9
$DIMTSZ
 40
0.0
  9
$DIMTOL
 70
     0
  9
$DIMLIM
 70
     0
  9
$DIMTIH
 70
     0
  9
$DIMTOH
 70
     0
  9
$DIMSE1
 70
     0
  9
$DIMSE2
 70
     0
  9
$DIMTAD
 70
     1
  9
$DIMZIN
 70
     8
  9
$DIMBLK
  1

  9
$DIMASO
 70
     1
  9
$DIMSHO
 70
     1
  9
$DIMPOST
  1

  9
$DIMAPOST
  1

  9
$DIMALT
 70
     0
  9
$DIMALTD
 70
     3
  9
$DIMALTF
 40
0.03937007874016
  9
$DIMLFAC
 40
1.0
  9
$DIMTOFL
 70
     1
  9
$DIMTVP
 40
0.0
  9
$DIMTIX
 70
     0
  9
$DIMSOXD
 70
     0
  9
$DIMSAH
 70
     0
  9
$DIMBLK1
  1

  9
$DIMBLK2
  1

  9
$DIMSTYLE
  2
ISO-25
  9
$DIMCLRD
 70
     0
  9
$DIMCLRE
 70
     0
  9
$DIMCLRT
 70
     0
  9
$DIMTFAC
 40
1.0
  9
$DIMGAP
 40
0.625
  9
$LUNITS
 70
     2
  9
$LUPREC
 70
     4
  9
$SKETCHINC
 40
1.0
  9
$FILLETRAD
 40
0.0
  9
$AUNITS
 70
     0
  9
$AUPREC
 70
     0
  9
$MENU
  1
.
  9
$ELEVATION
 40
0.0
  9
$PELEVATION
 40
0.0
  9
$THICKNESS
 40
0.0
  9
$LIMCHECK
 70
     0
  9
$BLIPMODE
 70
     0
  9
$CHAMFERA
 40
0.0
  9
$CHAMFERB
 40
0.0
  9
$SKPOLY
 70
     0
  9
$TDCREATE
 40
2455219.6213853359
  9
$TDUPDATE
 40
2456458.4526873608
  9
$TDINDWG
 40
0.2551444444
  9
$TDUSRTIMER
 40
0.2551442593
  9
$USRTIMER
 70
     1
  9
$ANGBASE
 50
0.0
  9
$ANGDIR
 70
     0
  9
$PDMODE
 70
     0
  9
$PDSIZE
 40
0.0
  9
$PLINEWID
 40
0.0
  9
$COORDS
 70
     1
  9
$SPLFRAME
 70
     0
  9
$SPLINETYPE
 70
     6
  9
$SPLINESEGS
 70
     8
  9
$ATTDIA
 70
     0
  9
$ATTREQ
 70
     1
  9
$HANDLING
 70
     1
  9
$HANDSEED
  5
855
  9
$SURFTAB1
 70
     6
  9
$SURFTAB2
 70
     6
  9
$SURFTYPE
 70
     6
  9
$SURFU
 70
     6
  9
$SURFV
 70
     6
  9
$UCSNAME
  2

  9
$UCSORG
 10
0.0
 20
0.0
 30
0.0
  9
$UCSXDIR
 10
1.0
 20
0.0
 30
0.0
  9
$UCSYDIR
 10
0.0
 20
1.0
 30
0.0
  9
$PUCSNAME
  2

  9
$PUCSORG
 10
0.0
 20
0.0
 30
0.0
  9
$PUCSXDIR
 10
1.0
 20
0.0
 30
0.0
  9
$PUCSYDIR
 10
0.0
 20
1.0
 30
0.0
  9
$USERI1
 70
     0
  9
$USERI2
 70
     0
  9
$USERI3
 70
     0
  9
$USERI4
 70
     0
  9
$USERI5
 70
     0
  9
$USERR1
 40
0.0
  9
$USERR2
 40
0.0
  9
$USERR3
 40
0.0
  9
$USERR4
 40
0.0
  9
$USERR5
 40
0.0
  9
$WORLDVIEW
 70
     1
  9
$SHADEDGE
 70
     3
  9
$SHADEDIF
 70
    70
  9
$TILEMODE
 70
     1
  9
$MAXACTVP
 70
    64
  9
$PLIMCHECK
 70
     0
  9
$PEXTMIN
 10
1.0000000000000000E+020
 20
1.0000000000000000E+020
 30
1.0000000000000000E+020
  9
$PEXTMAX
 10
-1.0000000000000000E+020
 20
-1.0000000000000000E+020
 30
-1.0000000000000000E+020
  9
$PLIMMIN
 10
0.0
 20
0.0
  9
$PLIMMAX
 10
420.0
 20
297.0
  9
$UNITMODE
 70
     0
  9
$VISRETAIN
 70
     1
  9
$PLINEGEN
 70
     0
  9
$PSLTSCALE
 70
     1
  0
ENDSEC
  0
SECTION
  2
TABLES
  0
TABLE
  2
VPORT
 70
     1
  0
VPORT
  2
*ACTIVE
 70
     0
 10
0.0
 20
0.0
 11
1.0
 21
1.0
 12
-6.938980617972617
 22
-54.203627130573473
 13
0.0
 23
0.0
 14
10.0
 24
10.0
 15
10.0
 25
10.0
 16
0.0
 26
0.0
 36
1.0
 17
0.0
 27
0.0
 37
0.0
 40
579.74239318597529
 41
1.70954356846473
 42
50.0
 43
0.0
 44
0.0
 50
0.0
 51
0.0
 71
     0
 72
   100
 73
     1
 74
     2
 75
     0
 76
     0
 77
     0
 78
     0
  0
ENDTAB
  0
TABLE
  2
LTYPE
 70
     1
  0
LTYPE
  2
CONTINUOUS
 70
     0
  3
Solid line
 72
    65
 73
     0
 40
0.0
  0
ENDTAB
  0
TABLE
  2
LAYER
 70
     4
  0
LAYER
  2
0
 70
     0
 62
     7
  6
CONTINUOUS
  0
LAYER
  2
SNIJ
 70
     0
 62
     5
  6
CONTINUOUS
  0
LAYER
  2
TEKST
 70
     0
 62
     1
  6
CONTINUOUS
  0
LAYER
  2
DEFPOINTS
 70
     0
 62
     7
  6
CONTINUOUS
  0
ENDTAB
  0
TABLE
  2
STYLE
 70
     1
  0
STYLE
  2
STANDARD
 70
     0
 40
0.0
 41
1.0
 50
0.0
 71
     0
 42
5.0
  3
txt
  4

  0
ENDTAB
  0
TABLE
  2
VIEW
 70
     0
  0
ENDTAB
  0
TABLE
  2
UCS
 70
     0
  0
ENDTAB
  0
TABLE
  2
APPID
 70
     3
  0
APPID
  2
ACAD
 70
     0
  0
APPID
  2
ACAD_NAV_VCDISPLAY
 70
     0
  0
APPID
  2
ACAD_MLEADERVER
 70
     0
  0
ENDTAB
  0
TABLE
  2
DIMSTYLE
 70
     2
  0
DIMSTYLE
  2
ISO-25
 70
     0
  3

  4

  5

  6

  7

 40
3.0
 41
2.5
 42
0.625
 43
3.75
 44
1.25
 45
0.0
 46
0.0
 47
0.0
 48
0.0
140
2.5
141
2.5
142
0.0
143
0.03937007874016
144
1.0
145
0.0
146
1.0
147
0.625
 71
     0
 72
     0
 73
     0
 74
     0
 75
     0
 76
     0
 77
     1
 78
     8
170
     0
171
     3
172
     1
173
     0
174
     0
175
     0
176
     0
177
     0
178
     0
  0
DIMSTYLE
  2
STANDARD
 70
     0
  3

  4

  5

  6

  7

 40
1.0
 41
4.0
 42
0.0625
 43
0.38
 44
0.18
 45
0.0
 46
0.0
 47
0.01
 48
0.01
140
3.5
141
0.09
142
0.0
143
25.399999999999999
144
1.0
145
0.0
146
1.0
147
0.09
 71
     1
 72
     0
 73
     0
 74
     0
 75
     0
 76
     0
 77
     1
 78
     8
170
     0
171
     2
172
     0
173
     0
174
     0
175
     0
176
     0
177
     0
178
     0
  0
ENDTAB
  0
ENDSEC
  0
SECTION
  2
BLOCKS
  0
BLOCK
  8
0
  2
$MODEL_SPACE
 70
     0
 10
0.0
 20
0.0
 30
0.0
  3
$MODEL_SPACE
  1

  0
ENDBLK
  5
21
  8
0
  0
BLOCK
 67
     1
  8
0
  2
$PAPER_SPACE
 70
     0
 10
0.0
 20
0.0
 30
0.0
  3
$PAPER_SPACE
  1

  0
ENDBLK
  5
1D
 67
     1
  8
0
  0
BLOCK
  8
0
  2
*D1
 70
     1
 10
0.0
 20
0.0
 30
0.0
  3
*D1
  1

  0
LINE
  5
444
  8
TEKST
 62
     0
 10
-260.80000889649989
 20
1.875
 30
0.0
 11
-260.80000889649989
 21
8.0601761904451905
 31
0.0
  0
LINE
  5
445
  8
TEKST
 62
     0
 10
260.54579061130238
 20
1.875
 30
0.0
 11
260.54579061130238
 21
8.0601761904451905
 31
0.0
  0
LINE
  5
446
  8
TEKST
 62
     0
 10
-253.3000088965
 20
4.3101761904451896
 30
0.0
 11
253.04579061130241
 21
4.3101761904451896
 31
0.0
  0
SOLID
  5
447
  8
TEKST
 62
     0
 10
-253.3000088965
 20
5.5601761904451896
 30
0.0
 11
-253.3000088965
 21
3.0601761904451901
 31
0.0
 12
-260.80000889649989
 22
4.3101761904451896
 32
0.0
 13
-260.80000889649989
 23
4.3101761904451896
 33
0.0
  0
SOLID
  5
448
  8
TEKST
 62
     0
 10
253.04579061130241
 20
5.5601761904451896
 30
0.0
 11
253.04579061130241
 21
3.0601761904451901
 31
0.0
 12
260.54579061130238
 22
4.3101761904451896
 32
0.0
 13
260.54579061130238
 23
4.3101761904451896
 33
0.0
  0
INSERT
  5
449
  8
SNIJ
  2
*U12
 10
0.0
 20
0.0
 30
0.0
  0
POINT
  5
44A
  8
DEFPOINTS
 62
     0
 10
-260.80000889649989
 20
0.0
 30
0.0
  0
POINT
  5
44B
  8
DEFPOINTS
 62
     0
 10
260.54579061130238
 20
0.0
 30
0.0
  0
POINT
  5
44C
  8
DEFPOINTS
 62
     0
 10
260.54579061130238
 20
4.3101761904451896
 30
0.0
  0
ENDBLK
  5
442
  8
0
  0
BLOCK
  8
0
  2
*D2
 70
     1
 10
0.0
 20
0.0
 30
0.0
  3
*D2
  1

  0
LINE
  5
45C
  8
TEKST
 62
     0
 10
-220.58802545737069
 20
0.0505521316149493
 30
0.0
 11
-110.7605177548901
 21
0.0505521316149182
 31
0.0
  0
LINE
  5
45D
  8
TEKST
 62
     0
 10
-2.0021091425987332
 20
85.000020065009323
 30
0.0
 11
-118.26051775489
 21
85.000020065009352
 31
0.0
  0
LINE
  5
45E
  8
TEKST
 62
     0
 10
-114.51051775489
 20
7.5505521316149178
 30
0.0
 11
-114.51051775489
 21
77.500020065009352
 31
0.0
  0
SOLID
  5
45F
  8
TEKST
 62
     0
 10
-115.7605177548901
 20
7.5505521316149178
 30
0.0
 11
-113.26051775489
 21
7.5505521316149169
 31
0.0
 12
-114.51051775489
 22
0.0505521316149192
 32
0.0
 13
-114.51051775489
 23
0.0505521316149192
 33
0.0
  0
SOLID
  5
460
  8
TEKST
 62
     0
 10
-115.76051775489
 20
77.500020065009352
 30
0.0
 11
-113.26051775489
 21
77.500020065009352
 31
0.0
 12
-114.51051775489
 22
85.000020065009352
 32
0.0
 13
-114.51051775489
 23
85.000020065009352
 33
0.0
  0
INSERT
  5
461
  8
SNIJ
  2
*U13
 10
0.0
 20
0.0
 30
0.0
  0
POINT
  5
462
  8
DEFPOINTS
 62
     0
 10
-222.46302545737061
 20
0.0505521316149498
 30
0.0
  0
POINT
  5
463
  8
DEFPOINTS
 62
     0
 10
-0.1271091425987334
 20
85.000020065009323
 30
0.0
  0
POINT
  5
464
  8
DEFPOINTS
 62
     0
 10
-114.51051775489
 20
85.000020065009352
 30
0.0
  0
ENDBLK
  5
45A
  8
0
  0
BLOCK
  8
0
  2
*D3
 70
     1
 10
0.0
 20
0.0
 30
0.0
  3
*D3
  1

  0
LINE
  5
47A
  8
SNIJ
 62
     0
 10
-260.80000889649989
 20
-1.875
 30
0.0
 11
-260.80000889649989
 21
-168.24441798675059
 31
0.0
  0
LINE
  5
47B
  8
SNIJ
 62
     0
 10
260.54579061130238
 20
-1.875
 30
0.0
 11
260.54579061130238
 21
-168.24441798675059
 31
0.0
  0
LINE
  5
47C
  8
SNIJ
 62
     0
 10
-253.3000088965
 20
-164.4944179867507
 30
0.0
 11
253.04579061130241
 21
-164.4944179867507
 31
0.0
  0
SOLID
  5
47D
  8
SNIJ
 62
     0
 10
-253.3000088965
 20
-163.2444179867507
 30
0.0
 11
-253.3000088965
 21
-165.7444179867507
 31
0.0
 12
-260.80000889649989
 22
-164.4944179867507
 32
0.0
 13
-260.80000889649989
 23
-164.4944179867507
 33
0.0
  0
SOLID
  5
47E
  8
SNIJ
 62
     0
 10
253.04579061130241
 20
-163.2444179867507
 30
0.0
 11
253.04579061130241
 21
-165.7444179867507
 31
0.0
 12
260.54579061130238
 22
-164.4944179867507
 32
0.0
 13
260.54579061130238
 23
-164.4944179867507
 33
0.0
  0
INSERT
  5
47F
  8
SNIJ
  2
*U14
 10
0.0
 20
0.0
 30
0.0
  0
POINT
  5
480
  8
DEFPOINTS
 62
     0
 10
-260.80000889649989
 20
0.0
 30
0.0
  0
POINT
  5
481
  8
DEFPOINTS
 62
     0
 10
260.54579061130238
 20
0.0
 30
0.0
  0
POINT
  5
482
  8
DEFPOINTS
 62
     0
 10
260.54579061130238
 20
-164.4944179867507
 30
0.0
  0
ENDBLK
  5
478
  8
0
  0
BLOCK
  8
0
  2
*D4
 70
     1
 10
0.0
 20
0.0
 30
0.0
  3
*D4
  1

  0
LINE
  5
492
  8
SNIJ
 62
     0
 10
222.52243951143581
 20
-1.874903368800005
 30
0.0
 11
222.52243951143581
 21
-51.925286308917293
 31
0.0
  0
LINE
  5
493
  8
SNIJ
 62
     0
 10
260.54579061130238
 20
-3.75
 30
0.0
 11
260.54579061130238
 21
-51.925286308917293
 31
0.0
  0
LINE
  5
494
  8
SNIJ
 62
     0
 10
230.02243951143589
 20
-48.175286308917293
 30
0.0
 11
253.04579061130241
 21
-48.175286308917293
 31
0.0
  0
SOLID
  5
495
  8
SNIJ
 62
     0
 10
230.02243951143589
 20
-46.925286308917293
 30
0.0
 11
230.02243951143589
 21
-49.425286308917293
 31
0.0
 12
222.52243951143581
 22
-48.175286308917293
 32
0.0
 13
222.52243951143581
 23
-48.175286308917293
 33
0.0
  0
SOLID
  5
496
  8
SNIJ
 62
     0
 10
253.04579061130241
 20
-46.925286308917293
 30
0.0
 11
253.04579061130241
 21
-49.425286308917293
 31
0.0
 12
260.54579061130238
 22
-48.175286308917293
 32
0.0
 13
260.54579061130238
 23
-48.175286308917293
 33
0.0
  0
INSERT
  5
497
  8
SNIJ
  2
*U15
 10
0.0
 20
0.0
 30
0.0
  0
POINT
  5
498
  8
DEFPOINTS
 62
     0
 10
222.52243951143581
 20
0.0000966311999946
 30
0.0
  0
POINT
  5
499
  8
DEFPOINTS
 62
     0
 10
260.54579061130238
 20
-1.875
 30
0.0
  0
POINT
  5
49A
  8
DEFPOINTS
 62
     0
 10
260.54579061130238
 20
-48.175286308917293
 30
0.0
  0
ENDBLK
  5
490
  8
0
  0
BLOCK
  8
0
  2
*D5
 70
     1
 10
0.0
 20
0.0
 30
0.0
  3
*D5
  1

  0
LINE
  5
4AD
  8
SNIJ
 62
     0
 10
-0.251854776522499
 20
34.137342245948133
 30
0.0
 11
-4.5153746465226501
 21
-2.996582062072195
 31
0.0
  0
LINE
  5
4AE
  8
SNIJ
 62
     0
 10
159.74814522347751
 20
15.766992440159211
 30
0.0
 11
155.4846253534773
 21
-21.366931867861162
 31
0.0
  0
LINE
  5
4AF
  8
SNIJ
 62
     0
 10
3.3634196941141381
 20
-0.1265472647309376
 30
0.0
 11
148.4613209112222
 21
-16.7859172737565
 31
0.0
  0
SOLID
  5
4B0
  8
SNIJ
 62
     0
 10
3.5060013438444231
 20
1.11529430051005
 30
0.0
 11
3.2208380443838531
 21
-1.3683888299719269
 31
0.0
 12
-4.0876296973317956
 22
0.7289426336507681
 32
0.0
 13
-4.0876296973317956
 23
0.7289426336507681
 33
0.0
  0
SOLID
  5
4B1
  8
SNIJ
 62
     0
 10
148.60390256095249
 20
-15.544075708515511
 30
0.0
 11
148.31873926149191
 21
-18.027758838997482
 31
0.0
 12
155.91237030266811
 22
-17.641407172138202
 32
0.0
 13
155.91237030266811
 23
-17.641407172138202
 33
0.0
  0
INSERT
  5
4B2
  8
SNIJ
  2
*U16
 10
0.0
 20
0.0
 30
0.0
  0
POINT
  5
4B3
  8
DEFPOINTS
 62
     0
 10
-0.0379823019270731
 20
36.00010459380961
 30
0.0
  0
POINT
  5
4B4
  8
DEFPOINTS
 62
     0
 10
159.96201769807291
 20
17.629754788020701
 30
0.0
  0
POINT
  5
4B5
  8
DEFPOINTS
 62
     0
 10
155.91237030266811
 20
-17.641407172138202
 30
0.0
  0
ENDBLK
  5
4AB
  8
0
  0
BLOCK
  8
0
  2
*D6
 70
     1
 10
0.0
 20
0.0
 30
0.0
  3
*D6
  1

  0
LINE
  5
4DF
  8
SNIJ
 62
     0
 10
213.45907738538341
 20
24.39557175953389
 30
0.0
 11
228.1176162233248
 21
23.810288201572231
 31
0.0
  0
LINE
  5
4E0
  8
SNIJ
 62
     0
 10
213.7888656853257
 20
32.655182912525632
 30
0.0
 11
228.4474045232671
 21
32.069899354563972
 31
0.0
  0
LINE
  5
4E1
  8
SNIJ
 62
     0
 10
224.0713815759182
 20
16.465869560309571
 30
0.0
 11
223.77216131449799
 21
8.9718407883368148
 31
0.0
  0
LINE
  5
4E2
  8
SNIJ
 62
     0
 10
224.9996103987009
 20
39.713538257246832
 30
0.0
 11
225.64792096511141
 21
55.950600596521163
 31
0.0
  0
LINE
  5
4E3
  8
SNIJ
 62
     0
 10
224.3706018373384
 20
23.959898332282339
 30
0.0
 11
224.70039013728069
 21
32.219509485274067
 31
0.0
  0
SOLID
  5
4E4
  8
SNIJ
 62
     0
 10
222.82237678058939
 20
16.515739603879609
 30
0.0
 11
225.320386371247
 21
16.415999516739539
 31
0.0
 12
224.3706018373384
 22
23.959898332282339
 32
0.0
 13
224.3706018373384
 23
23.959898332282339
 33
0.0
  0
SOLID
  5
4E5
  8
SNIJ
 62
     0
 10
223.75060560337201
 20
39.76340830081687
 30
0.0
 11
226.2486151940297
 21
39.6636682136768
 31
0.0
 12
224.70039013728069
 22
32.219509485274067
 32
0.0
 13
224.70039013728069
 23
32.219509485274067
 33
0.0
  0
INSERT
  5
4E6
  8
SNIJ
  2
*U17
 10
0.0
 20
0.0
 30
0.0
  0
POINT
  5
4E7
  8
DEFPOINTS
 62
     0
 10
211.58557019239021
 20
24.470376824888941
 30
0.0
  0
POINT
  5
4E8
  8
DEFPOINTS
 62
     0
 10
211.91535849233259
 20
32.729987977880683
 30
0.0
  0
POINT
  5
4E9
  8
DEFPOINTS
 62
     0
 10
224.70039013728069
 20
32.219509485274067
 30
0.0
  0
ENDBLK
  5
4DD
  8
0
  0
BLOCK
  8
0
  2
*D7
 70
     1
 10
0.0
 20
0.0
 30
0.0
  3
*D7
  1

  0
LINE
  5
6B4
  8
TEKST
 62
     0
 10
-0.0379823019270731
 20
34.125104593809617
 30
0.0
 11
-0.0379823019270802
 21
-110.7469566698993
 31
0.0
  0
ARC
  5
6B5
  8
TEKST
 62
     0
 10
-0.0379823019270731
 20
49.321848258513121
 30
0.0
 40
156.3188049284125
 50
272.74925063479179
 51
351.75850948863081
  0
SOLID
  5
6B6
  8
TEKST
 62
     0
 10
7.489846083822143
 20
-108.0666761633686
 30
0.0
 11
7.4298724932852078
 21
-105.56739563320841
 31
0.0
 12
-0.0379823019270802
 22
-106.9969566698993
 32
0.0
 13
-0.0379823019270802
 23
-106.9969566698993
 33
0.0
  0
SOLID
  5
6B7
  8
TEKST
 62
     0
 10
153.42543612021009
 20
27.063682683075221
 30
0.0
 11
155.907502751274
 21
26.764775943507431
 31
0.0
 12
155.56318965444549
 22
34.360429206483062
 32
0.0
 13
155.56318965444549
 23
34.360429206483062
 33
0.0
  0
INSERT
  5
6B8
  8
SNIJ
  2
*U21
 10
0.0
 20
0.0
 30
0.0
  0
POINT
  5
6B9
  8
DEFPOINTS
 62
     0
 10
73.756649461094767
 20
-88.482074389599788
 30
0.0
  0
POINT
  5
6BA
  8
DEFPOINTS
 62
     0
 10
-0.0379823019270731
 20
36.000104593809617
 30
0.0
  0
POINT
  5
6BB
  8
DEFPOINTS
 62
     0
 10
138.5522285666338
 20
35.996073167981663
 30
0.0
  0
POINT
  5
6BC
  8
DEFPOINTS
 62
     0
 10
227.34488712063001
 20
27.45844998258162
 30
0.0
  0
POINT
  5
6BD
  8
DEFPOINTS
 62
     0
 10
-0.0379823019270731
 20
129.84972768783899
 30
0.0
  0
ENDBLK
  5
51A
  8
0
  0
BLOCK
  8
0
  2
*D8
 70
     1
 10
0.0
 20
0.0
 30
0.0
  3
*D8
  1

  0
LINE
  5
6AA
  8
TEKST
 62
     0
 10
-0.0379823019270766
 20
34.108978890498022
 30
0.0
 11
-0.0379823019270944
 21
-82.787664448160285
 31
0.0
  0
ARC
  5
6AB
  8
TEKST
 62
     0
 10
-0.0379823019270731
 20
35.983978890498008
 30
0.0
 40
115.02164333865829
 50
273.73664031255538
 51
356.26835968744427
  0
SOLID
  5
6AC
  8
TEKST
 62
     0
 10
7.498783862117846
 20
-80.042480744060811
 30
0.0
 11
7.4172774627318017
 21
-77.543809755943499
 31
0.0
 12
-0.0379823019270944
 22
-79.037664448160285
 32
0.0
 13
-0.0379823019270944
 23
-79.037664448160285
 33
0.0
  0
SOLID
  5
6AD
  8
TEKST
 62
     0
 10
113.4904565063792
 20
28.53862632273562
 30
0.0
 11
115.9891345977574
 21
28.457337973837991
 31
0.0
 12
114.9836605987612
 22
35.99401642242146
 32
0.0
 13
114.9836605987612
 23
35.99401642242146
 33
0.0
  0
INSERT
  5
6AE
  8
SNIJ
  2
*U20
 10
0.0
 20
0.0
 30
0.0
  0
POINT
  5
6AF
  8
DEFPOINTS
 62
     0
 10
57.475736928952649
 20
-63.626013261680448
 30
0.0
  0
POINT
  5
6B0
  8
DEFPOINTS
 62
     0
 10
-0.0379823019270731
 20
36.000104593809617
 30
0.0
  0
POINT
  5
6B1
  8
DEFPOINTS
 62
     0
 10
92.355491610445654
 20
35.992041742153802
 30
0.0
  0
POINT
  5
6B2
  8
DEFPOINTS
 62
     0
 10
138.55222856663201
 20
35.996073167981692
 30
0.0
  0
POINT
  5
6B3
  8
DEFPOINTS
 62
     0
 10
-0.0379823019270731
 20
129.84972768783899
 30
0.0
  0
ENDBLK
  5
53E
  8
0
  0
BLOCK
  8
0
  2
*D9
 70
     1
 10
0.0
 20
0.0
 30
0.0
  3
*D9
  1

  0
LINE
  5
628
  8
TEKST
 62
     0
 10
-0.0379823019270731
 20
34.125104593809617
 30
0.0
 11
-0.0379823019270944
 21
-42.556444392982527
 31
0.0
  0
ARC
  5
629
  8
TEKST
 62
     0
 10
-0.0379823019270731
 20
36.000104593809851
 30
0.0
 40
74.806548986792393
 50
275.74680335552802
 51
354.24819664447199
  0
SOLID
  5
62A
  8
TEKST
 62
     0
 10
7.5152498459543011
 20
-39.678903056880742
 30
0.0
 11
7.3899265938195819
 21
-37.182046216276063
 31
0.0
 12
-0.0379823019270909
 22
-38.806444392982542
 32
0.0
 13
-0.0379823019270909
 23
-38.806444392982542
 33
0.0
  0
SOLID
  5
62B
  8
TEKST
 62
     0
 10
73.143520022168843
 20
28.565809378928058
 30
0.0
 11
75.640365916749303
 21
28.440268235406709
 31
0.0
 12
74.768566400023104
 22
35.993576490908801
 32
0.0
 13
74.768566400023104
 23
35.993576490908801
 33
0.0
  0
INSERT
  5
62C
  8
SNIJ
  2
*U19
 10
0.0
 20
0.0
 30
0.0
  0
POINT
  5
62D
  8
DEFPOINTS
 62
     0
 10
37.363407674658831
 20
-28.78535518793986
 30
0.0
  0
POINT
  5
62E
  8
DEFPOINTS
 62
     0
 10
-0.0379823019270731
 20
36.000104593809617
 30
0.0
  0
POINT
  5
62F
  8
DEFPOINTS
 62
     0
 10
46.158754654259312
 20
35.996073167981827
 30
0.0
  0
POINT
  5
630
  8
DEFPOINTS
 62
     0
 10
92.355491610445654
 20
35.992041742153802
 30
0.0
  0
POINT
  5
631
  8
DEFPOINTS
 62
     0
 10
-0.0379823019270731
 20
129.84972768783899
 30
0.0
  0
ENDBLK
  5
558
  8
0
  0
BLOCK
  8
0
  2
*D10
 70
     1
 10
0.0
 20
0.0
 30
0.0
  3
*D10
  1

  0
LINE
  5
5EA
  8
TEKST
 62
     0
 10
-0.0379823019270731
 20
34.125104593809617
 30
0.0
 11
-0.0379823019270811
 21
4.2386252626781937
 31
0.0
  0
ARC
  5
5EB
  8
TEKST
 62
     0
 10
-0.0379823019270731
 20
36.000104593809617
 30
0.0
 40
28.011479331131429
 50
239.22601726701089
 51
254.6130086335053
  0
ARC
  5
5EC
  8
TEKST
 62
     0
 10
-0.0379823019270731
 20
36.000104593809617
 30
0.0
 40
28.011479331131429
 50
15.381991366494541
 51
30.768982732989191
  0
ARC
  5
5ED
  8
TEKST
 62
     0
 10
-0.0379823019270731
 20
36.000104593809617
 30
0.0
 40
28.011479331131429
 50
270.0
 51
359.995
  0
SOLID
  5
5EE
  8
TEKST
 62
     0
 10
-7.303128221467718
 20
10.23142591538498
 30
0.0
 11
-7.6378124375055618
 21
7.7539299061984677
 31
0.0
 12
-0.0379823019270802
 22
7.9886252626781964
 32
0.0
 13
-0.0379823019270802
 23
7.9886252626781964
 33
0.0
  0
SOLID
  5
5EF
  8
TEKST
 62
     0
 10
28.208855488422049
 20
43.597469756706289
 30
0.0
 11
25.731330281961551
 21
43.263001744255362
 31
0.0
 12
27.973496922544548
 22
35.99766013109933
 32
0.0
 13
27.973496922544548
 23
35.99766013109933
 33
0.0
  0
INSERT
  5
5F0
  8
SNIJ
  2
*U18
 10
0.0
 20
0.0
 30
0.0
  0
POINT
  5
5F1
  8
DEFPOINTS
 62
     0
 10
13.9670517021104
 20
11.74104449527824
 30
0.0
  0
POINT
  5
5F2
  8
DEFPOINTS
 62
     0
 10
-0.0379823019270731
 20
36.000104593809617
 30
0.0
  0
POINT
  5
5F3
  8
DEFPOINTS
 62
     0
 10
-0.0379823019270731
 20
36.000104593809617
 30
0.0
  0
POINT
  5
5F4
  8
DEFPOINTS
 62
     0
 10
46.158754654259312
 20
35.996073167981599
 30
0.0
  0
POINT
  5
5F5
  8
DEFPOINTS
 62
     0
 10
-0.0379823019270731
 20
129.84972768783899
 30
0.0
  0
ENDBLK
  5
572
  8
0
  0
BLOCK
  8
0
  2
*D11
 70
     1
 10
0.0
 20
0.0
 30
0.0
  3
*D11
  1

  0
LINE
  5
6E3
  8
TEKST
 62
     0
 10
-262.82949328912252
 20
23.695038237149049
 30
0.0
 11
-262.82949328912252
 21
-49.765838709681702
 31
0.0
  0
LINE
  5
6E4
  8
TEKST
 62
     0
 10
262.75352868526841
 20
23.695038237149049
 30
0.0
 11
262.75352868526841
 21
-49.765838709681702
 31
0.0
  0
LINE
  5
6E5
  8
TEKST
 62
     0
 10
-255.3294932891225
 20
-46.015838709681702
 30
0.0
 11
255.25352868526841
 21
-46.015838709681702
 31
0.0
  0
SOLID
  5
6E6
  8
TEKST
 62
     0
 10
-255.3294932891225
 20
-44.765838709681702
 30
0.0
 11
-255.3294932891225
 21
-47.265838709681702
 31
0.0
 12
-262.82949328912252
 22
-46.015838709681702
 32
0.0
 13
-262.82949328912252
 23
-46.015838709681702
 33
0.0
  0
SOLID
  5
6E7
  8
TEKST
 62
     0
 10
255.25352868526841
 20
-44.765838709681702
 30
0.0
 11
255.25352868526841
 21
-47.265838709681702
 31
0.0
 12
262.75352868526841
 22
-46.015838709681702
 32
0.0
 13
262.75352868526841
 23
-46.015838709681702
 33
0.0
  0
INSERT
  5
6E8
  8
SNIJ
  2
*U22
 10
0.0
 20
0.0
 30
0.0
  0
POINT
  5
6E9
  8
DEFPOINTS
 62
     0
 10
-262.82949328912252
 20
25.570038237149049
 30
0.0
  0
POINT
  5
6EA
  8
DEFPOINTS
 62
     0
 10
262.75352868526841
 20
25.570038237149049
 30
0.0
  0
POINT
  5
6EB
  8
DEFPOINTS
 62
     0
 10
262.75352868526841
 20
-46.015838709681702
 30
0.0
  0
ENDBLK
  5
6E1
  8
0
  0
BLOCK
  8
0
  2
*U12
 70
     1
 10
0.0
 20
0.0
 30
0.0
  3
*U12
  1

  0
TEXT
  5
7F5
  8
TEKST
 62
     0
 10
-8.8771091425987532
 20
6.1851761904451896
 30
0.0
 40
7.5
  1
521
  0
ENDBLK
  5
7F7
  8
0
  0
BLOCK
  8
0
  2
*U13
 70
     1
 10
0.0
 20
0.0
 30
0.0
  3
*U13
  1

  0
TEXT
  5
7F9
  8
TEKST
 62
     0
 10
-116.3855177548901
 20
36.275286098312122
 30
0.0
 40
7.5
  1
85
 50
90.0
  0
ENDBLK
  5
7FB
  8
0
  0
BLOCK
  8
0
  2
*U14
 70
     1
 10
0.0
 20
0.0
 30
0.0
  3
*U14
  1

  0
TEXT
  5
7FD
  8
SNIJ
 62
     0
 10
-8.8771091425987532
 20
-162.6194179867507
 30
0.0
 40
7.5
  1
521
  0
ENDBLK
  5
7FF
  8
0
  0
BLOCK
  8
0
  2
*U15
 70
     1
 10
0.0
 20
0.0
 30
0.0
  3
*U15
  1

  0
TEXT
  5
801
  8
SNIJ
 62
     0
 10
235.28411506136911
 20
-46.300286308917279
 30
0.0
 40
7.5
  1
38
  0
ENDBLK
  5
803
  8
0
  0
BLOCK
  8
0
  2
*U16
 70
     1
 10
0.0
 20
0.0
 30
0.0
  3
*U16
  1

  0
TEXT
  5
805
  8
SNIJ
 62
     0
 10
68.675193385817678
 20
-5.7379800230005289
 30
0.0
 40
7.5
  1
161
 50
353.45028292721378
  0
ENDBLK
  5
807
  8
0
  0
BLOCK
  8
0
  2
*U17
 70
     1
 10
0.0
 20
0.0
 30
0.0
  3
*U17
  1

  0
TEXT
  5
809
  8
SNIJ
 62
     0
 10
223.50012853248299
 20
49.155879287567871
 30
0.0
 40
7.5
  1
8
 50
87.713518746742537
  0
ENDBLK
  5
80B
  8
0
  0
BLOCK
  8
0
  2
*U18
 70
     1
 10
0.0
 20
0.0
 30
0.0
  3
*U18
  1

  0
TEXT
  5
80D
  8
TEKST
 62
     0
 10
6.0676615945321597
 20
6.9119546679641788
 30
0.0
 40
7.5
  1
90,00°
 50
44.997500000000009
  0
ENDBLK
  5
80F
  8
0
  0
BLOCK
  8
0
  2
*U19
 70
     1
 10
0.0
 20
0.0
 30
0.0
  3
*U19
  1

  0
TEXT
  5
811
  8
TEKST
 62
     0
 10
39.15532885781159
 20
-26.17860016498858
 30
0.0
 40
7.5
  1
90,00°
 50
44.997500000000009
  0
ENDBLK
  5
813
  8
0
  0
BLOCK
  8
0
  2
*U20
 70
     1
 10
0.0
 20
0.0
 30
0.0
  3
*U20
  1

  0
TEXT
  5
815
  8
TEKST
 62
     0
 10
67.598361489903837
 20
-54.626430494583992
 30
0.0
 40
7.5
  1
90,00°
 50
45.002499999999863
  0
ENDBLK
  5
817
  8
0
  0
BLOCK
  8
0
  2
*U21
 70
     1
 10
0.0
 20
0.0
 30
0.0
  3
*U21
  1

  0
TEXT
  5
819
  8
TEKST
 62
     0
 10
90.481713706616986
 20
-75.415043349243675
 30
0.0
 40
7.5
  1
84,51°
 50
42.253880061711449
  0
ENDBLK
  5
81B
  8
0
  0
BLOCK
  8
0
  2
*U22
 70
     1
 10
0.0
 20
0.0
 30
0.0
  3
*U22
  1

  0
TEXT
  5
81D
  8
TEKST
 62
     0
 10
-10.037982301927061
 20
-44.140838709681702
 30
0.0
 40
7.5
  1
526
  0
ENDBLK
  5
81F
  8
0
  0
ENDSEC
  0
SECTION
  2
ENTITIES
  0
LINE
  5
7BF
  8
SNIJ
 10
-138.62819317048761
 20
35.996073167981763
 30
0.0
 11
138.55222856663849
 21
35.996073167981649
 31
0.0
  0
ARC
  5
7C0
  8
SNIJ
 10
115.5154337483831
 20
-669.58810840471722
 30
0.0
 40
705.96014845111029
 50
80.885520246845644
 51
88.12999999999947
  0
ARC
  5
7C1
  8
SNIJ
 10
-115.59139835223731
 20
-669.58810840471722
 30
0.0
 40
705.96014845111029
 50
91.870000000000104
 51
99.114479753154356
  0
LINE
  5
7C2
  8
SNIJ
 10
227.3448871206316
 20
27.458449982581559
 30
0.0
 11
262.75352868526841
 21
25.570038237149181
 31
0.0
  0
LINE
  5
7C3
  8
SNIJ
 10
-227.42085172448591
 20
27.458449982581438
 30
0.0
 11
-262.82949328912252
 21
25.570038237149181
 31
0.0
  0
LINE
  5
7C4
  8
SNIJ
 10
262.75352868526841
 20
25.570038237149181
 30
0.0
 11
262.88400060969042
 21
30.681373181088631
 31
0.0
  0
LINE
  5
7C5
  8
SNIJ
 10
-262.82949328912252
 20
25.570038237149181
 30
0.0
 11
-262.95996521354442
 21
30.681373181088691
 31
0.0
  0
ARC
  5
7C6
  8
SNIJ
 10
258.88530312633299
 20
30.783443924164018
 30
0.0
 40
4.0
 50
358.53778558584082
 51
86.947196771376454
  0
ARC
  5
7C7
  8
SNIJ
 10
-258.9612677301871
 20
30.783443924164018
 30
0.0
 40
4.0
 50
93.052803228623546
 51
181.46221441415841
  0
LINE
  5
7C8
  8
SNIJ
 10
254.2220649520724
 20
35.037828042331647
 30
0.0
 11
259.09832817063409
 21
34.77776743766421
 31
0.0
  0
LINE
  5
7C9
  8
SNIJ
 10
-254.2980295559266
 20
35.037828042331633
 30
0.0
 11
-259.17429277448832
 21
34.77776743766421
 31
0.0
  0
ARC
  5
7CA
  8
SNIJ
 10
254.6481150406747
 20
43.026475069332001
 30
0.0
 40
8.0
 50
217.33293091598429
 51
266.9471967713767
  0
ARC
  5
7CB
  8
SNIJ
 10
-254.7240796445289
 20
43.026475069332001
 30
0.0
 40
8.0
 50
273.05280322862342
 51
322.66706908401511
  0
LINE
  5
7CC
  8
SNIJ
 10
248.2871145935618
 20
38.174911062557499
 30
0.0
 11
244.08092989815211
 21
43.689739412916232
 31
0.0
  0
LINE
  5
7CD
  8
SNIJ
 10
-248.36307919741611
 20
38.174911062557392
 30
0.0
 11
-244.1568945020062
 21
43.689739412916339
 31
0.0
  0
ARC
  5
7CE
  8
SNIJ
 10
237.71992945103929
 20
38.838175406141779
 30
0.0
 40
8.0
 50
37.332930915984143
 51
88.240192769776414
  0
ARC
  5
7CF
  8
SNIJ
 10
-237.79589405489341
 20
38.838175406141779
 30
0.0
 40
8.0
 50
91.759807230223799
 51
142.667069084015
  0
LINE
  5
7D0
  8
SNIJ
 10
231.60545582361931
 20
47.029812047827129
 30
0.0
 11
237.96560626211919
 21
46.834402197854082
 31
0.0
  0
LINE
  5
7D1
  8
SNIJ
 10
-231.68142042747431
 20
47.029812047827129
 30
0.0
 11
-238.04157086597331
 21
46.834402197854089
 31
0.0
  0
ARC
  5
7D2
  8
SNIJ
 10
115.5154337483831
 20
-669.58810840471722
 30
0.0
 40
725.9601484511104
 50
80.798188962483195
 51
81.949034002593933
  0
ARC
  5
7D3
  8
SNIJ
 10
-115.59139835223731
 20
-669.58810840471722
 30
0.0
 40
725.9601484511104
 50
98.050965997406081
 51
99.201811037516876
  0
ARC
  5
7D4
  8
SNIJ
 10
218.30942485799949
 20
57.13804009011433
 30
0.0
 40
8.0
 50
187.0935187467405
 51
261.94903400259489
  0
ARC
  5
7D5
  8
SNIJ
 10
-218.38538946185369
 20
57.13804009011433
 30
0.0
 40
8.0
 50
278.05096599740591
 51
352.9064812532572
  0
LINE
  5
7D6
  8
SNIJ
 10
210.10924320204461
 20
58.250823452750879
 30
0.0
 11
210.3706575520969
 21
56.150126296946148
 31
0.0
  0
LINE
  5
7D7
  8
SNIJ
 10
-210.1852078058987
 20
58.250823452750879
 30
0.0
 11
-210.4466221559511
 21
56.150126296945842
 31
0.0
  0
LINE
  5
7D8
  8
SNIJ
 10
172.91822761663349
 20
70.148183219340353
 30
0.0
 11
210.10924320204461
 21
58.250823452750879
 31
0.0
  0
LINE
  5
7D9
  8
SNIJ
 10
-172.99419222048789
 20
70.148183219340396
 30
0.0
 11
-210.1852078058987
 21
58.250823452750879
 31
0.0
  0
LINE
  5
7DA
  8
SNIJ
 10
172.91822761663349
 20
70.148183219340353
 30
0.0
 11
159.0754347828213
 21
69.008137796506787
 31
0.0
  0
LINE
  5
7DB
  8
SNIJ
 10
-172.99419222048789
 20
70.148183219340396
 30
0.0
 11
-159.15139938667539
 21
69.008137796506787
 31
0.0
  0
ARC
  5
7DC
  8
SNIJ
 10
159.4037496688139
 20
65.021634399338325
 30
0.0
 40
4.0
 50
94.708060757272435
 51
176.89242683330161
  0
ARC
  5
7DD
  8
SNIJ
 10
-159.47971427266799
 20
65.021634399338325
 30
0.0
 40
4.0
 50
3.1075731666968318
 51
85.291939242727565
  0
LINE
  5
7DE
  8
SNIJ
 10
155.409631614234
 20
65.238477582488741
 30
0.0
 11
155.2892225930465
 21
63.020617475145322
 31
0.0
  0
LINE
  5
7DF
  8
SNIJ
 10
-155.48559621808801
 20
65.238477582488642
 30
0.0
 11
-155.36518719690071
 21
63.020617475145627
 31
0.0
  0
ARC
  5
7E0
  8
SNIJ
 10
135.31863232014709
 20
64.104833390897355
 30
0.0
 40
20.0
 50
268.45389778401682
 51
356.89242683330178
  0
ARC
  5
7E1
  8
SNIJ
 10
-135.39459692400121
 20
64.104833390897355
 30
0.0
 40
20.0
 50
183.10757316669719
 51
271.54610221598489
  0
LINE
  5
7E2
  8
SNIJ
 10
-134.85497093440071
 20
44.112114621521627
 30
0.0
 11
134.77900633054711
 21
44.112114621521627
 31
0.0
  0
ENDSEC
  0
EOF
