  0
SECTION
  2
HEADER
  9
$ACADVER
  1
AC1009
  9
$INSBASE
 10
0.0
 20
0.0
 30
0.0
  9
$EXTMIN
 10
-0.0000000015980959
 20
0.0
 30
0.0
  9
$EXTMAX
 10
2763.7846396876998
 20
1528.8724033843671
 30
0.0
  9
$LIMMIN
 10
0.0
 20
0.0
  9
$LIMMAX
 10
3000.0
 20
2000.0
  9
$ORTHOMODE
 70
     0
  9
$REGENMODE
 70
     1
  9
$FILLMODE
 70
     1
  9
$QTEXTMODE
 70
     0
  9
$MIRRTEXT
 70
     0
  9
$DRAGMODE
 70
     2
  9
$LTSCALE
 40
165.0
  9
$OSMODE
 70
    37
  9
$ATTMODE
 70
     1
  9
$TEXTSIZE
 40
0.2
  9
$TRACEWID
 40
0.05
  9
$TEXTSTYLE
  7
STANDARD
  9
$CLAYER
  8
0
  9
$CELTYPE
  6
BYLAYER
  9
$CECOLOR
 62
   256
  9
$DIMSCALE
 40
1.0
  9
$DIMASZ
 40
3.5
  9
$DIMEXO
 40
1.0
  9
$DIMDLI
 40
114.0
  9
$DIMRND
 40
0.0
  9
$DIMDLE
 40
0.0
  9
$DIMEXE
 40
1.5
  9
$DIMTP
 40
0.01
  9
$DIMTM
 40
0.01
  9
$DIMTXT
 40
3.5
  9
$DIMCEN
 40
27.0
  9
$DIMTSZ
 40
0.0
  9
$DIMTOL
 70
     1
  9
$DIMLIM
 70
     0
  9
$DIMTIH
 70
     1
  9
$DIMTOH
 70
     1
  9
$DIMSE1
 70
     0
  9
$DIMSE2
 70
     0
  9
$DIMTAD
 70
     0
  9
$DIMZIN
 70
     0
  9
$DIMBLK
  1

  9
$DIMASO
 70
     1
  9
$DIMSHO
 70
     1
  9
$DIMPOST
  1

  9
$DIMAPOST
  1

  9
$DIMALT
 70
     0
  9
$DIMALTD
 70
     2
  9
$DIMALTF
 40
25.399999999999999
  9
$DIMLFAC
 40
1.0
  9
$DIMTOFL
 70
     0
  9
$DIMTVP
 40
0.0
  9
$DIMTIX
 70
     0
  9
$DIMSOXD
 70
     0
  9
$DIMSAH
 70
     0
  9
$DIMBLK1
  1

  9
$DIMBLK2
  1

  9
$DIMSTYLE
  2
STANDARD
  9
$DIMCLRD
 70
     0
  9
$DIMCLRE
 70
     0
  9
$DIMCLRT
 70
     0
  9
$DIMTFAC
 40
1.0
  9
$DIMGAP
 40
0.625
  9
$LUNITS
 70
     2
  9
$LUPREC
 70
     4
  9
$SKETCHINC
 40
0.1
  9
$FILLETRAD
 40
0.0
  9
$AUNITS
 70
     0
  9
$AUPREC
 70
     0
  9
$MENU
  1
.
  9
$ELEVATION
 40
0.0
  9
$PELEVATION
 40
0.0
  9
$THICKNESS
 40
0.0
  9
$LIMCHECK
 70
     0
  9
$BLIPMODE
 70
     0
  9
$CHAMFERA
 40
0.0
  9
$CHAMFERB
 40
0.0
  9
$SKPOLY
 70
     0
  9
$TDCREATE
 40
2456505.5902364352
  9
$TDUPDATE
 40
2456505.6031264942
  9
$TDINDWG
 40
0.0128904282
  9
$TDUSRTIMER
 40
0.0128904282
  9
$USRTIMER
 70
     1
  9
$ANGBASE
 50
0.0
  9
$ANGDIR
 70
     0
  9
$PDMODE
 70
     3
  9
$PDSIZE
 40
8.0
  9
$PLINEWID
 40
0.0
  9
$COORDS
 70
     1
  9
$SPLFRAME
 70
     0
  9
$SPLINETYPE
 70
     6
  9
$SPLINESEGS
 70
     8
  9
$ATTDIA
 70
     0
  9
$ATTREQ
 70
     1
  9
$HANDLING
 70
     1
  9
$HANDSEED
  5
4C7
  9
$SURFTAB1
 70
     6
  9
$SURFTAB2
 70
     6
  9
$SURFTYPE
 70
     6
  9
$SURFU
 70
     6
  9
$SURFV
 70
     6
  9
$UCSNAME
  2

  9
$UCSORG
 10
0.0
 20
0.0
 30
0.0
  9
$UCSXDIR
 10
1.0
 20
0.0
 30
0.0
  9
$UCSYDIR
 10
0.0
 20
1.0
 30
0.0
  9
$PUCSNAME
  2

  9
$PUCSORG
 10
0.0
 20
0.0
 30
0.0
  9
$PUCSXDIR
 10
1.0
 20
0.0
 30
0.0
  9
$PUCSYDIR
 10
0.0
 20
1.0
 30
0.0
  9
$USERI1
 70
     0
  9
$USERI2
 70
     0
  9
$USERI3
 70
     0
  9
$USERI4
 70
     0
  9
$USERI5
 70
     0
  9
$USERR1
 40
0.0
  9
$USERR2
 40
0.0
  9
$USERR3
 40
0.0
  9
$USERR4
 40
0.0
  9
$USERR5
 40
0.0
  9
$WORLDVIEW
 70
     1
  9
$SHADEDGE
 70
     3
  9
$SHADEDIF
 70
    70
  9
$TILEMODE
 70
     1
  9
$MAXACTVP
 70
    64
  9
$PLIMCHECK
 70
     0
  9
$PEXTMIN
 10
1.0000000000000000E+020
 20
1.0000000000000000E+020
 30
1.0000000000000000E+020
  9
$PEXTMAX
 10
-1.0000000000000000E+020
 20
-1.0000000000000000E+020
 30
-1.0000000000000000E+020
  9
$PLIMMIN
 10
0.0
 20
0.0
  9
$PLIMMAX
 10
12.0
 20
9.0
  9
$UNITMODE
 70
     0
  9
$VISRETAIN
 70
     1
  9
$PLINEGEN
 70
     0
  9
$PSLTSCALE
 70
     1
  0
ENDSEC
  0
SECTION
  2
TABLES
  0
TABLE
  2
VPORT
 70
     1
  0
VPORT
  2
*ACTIVE
 70
     0
 10
0.0
 20
0.0
 11
1.0
 21
1.0
 12
1595.9850198647141
 22
947.30832687331315
 13
0.0
 23
0.0
 14
1.0
 24
1.0
 15
0.0
 25
0.0
 16
0.0
 26
0.0
 36
1.0
 17
0.0
 27
0.0
 37
0.0
 40
2327.4531353454709
 41
1.70954356846473
 42
50.0
 43
0.0
 44
0.0
 50
0.0
 51
0.0
 71
     0
 72
   100
 73
     1
 74
     1
 75
     0
 76
     0
 77
     0
 78
     0
  0
ENDTAB
  0
TABLE
  2
LTYPE
 70
     7
  0
LTYPE
  2
CONTINUOUS
 70
     0
  3
Solid line
 72
    65
 73
     0
 40
0.0
  0
LTYPE
  2
CENTER
 70
     0
  3
____ _ ____ _ ____ _ ____ _ ____ _ ____ _ ____
 72
    65
 73
     4
 40
0.6
 49
0.375
 49
-0.075
 49
0.075
 49
-0.075
  0
LTYPE
  2
HIDDEN
 70
     0
  3
- - - - - - - - - - - - - - - - - - - -
 72
    65
 73
     2
 40
0.2
 49
0.1
 49
-0.1
  0
LTYPE
  2
PHANTOM
 70
     0
  3
_____ _ _ _____ _ _ _____ _ _ _____
 72
    65
 73
     6
 40
0.8
 49
0.45
 49
-0.05
 49
0.1
 49
-0.05
 49
0.1
 49
-0.05
  0
LTYPE
  2
DOT
 70
     0
  3
. . . . . . . . . . . . . . . . . . . .
 72
    65
 73
     2
 40
0.2
 49
0.1
 49
-0.1
  0
LTYPE
  2
DASHED
 70
     0
  3
- - - - - - - - - - - - - - - - - - - -
 72
    65
 73
     2
 40
0.2
 49
0.1
 49
-0.1
  0
ENDTAB
  0
TABLE
  2
LAYER
 70
    36
  0
LAYER
  2
0
 70
     0
 62
     7
  6
CONTINUOUS
  0
LAYER
  2
DEFPOINTS
 70
     0
 62
     7
  6
CONTINUOUS
  0
ENDTAB
  0
TABLE
  2
STYLE
 70
     2
  0
STYLE
  2
STANDARD
 70
     0
 40
0.0
 41
0.85
 50
0.0
 71
     0
 42
0.2
  3
txt
  4

  0
STYLE
  2
TEXTSTYLE_1
 70
     0
 40
0.0
 41
0.8
 50
0.0
 71
     0
 42
0.2
  3
gdt
  4

  0
ENDTAB
  0
TABLE
  2
VIEW
 70
     7
  0
ENDTAB
  0
TABLE
  2
UCS
 70
     0
  0
ENDTAB
  0
TABLE
  2
APPID
 70
     4
  0
APPID
  2
ACAD
 70
     0
  0
APPID
  2
ACAD_NAV_VCDISPLAY
 70
     0
  0
APPID
  2
ACAD_EXEMPT_FROM_CAD_STANDARDS
 70
     0
  0
APPID
  2
ACAD_MLEADERVER
 70
     0
  0
ENDTAB
  0
TABLE
  2
DIMSTYLE
 70
     2
  0
DIMSTYLE
  2
STANDARD
 70
     0
  3

  4

  5

  6

  7

 40
1.0
 41
3.5
 42
1.0
 43
0.38
 44
1.5
 45
0.0
 46
0.0
 47
0.01
 48
0.01
140
3.5
141
0.09
142
0.0
143
25.399999999999999
144
1.0
145
0.0
146
1.0
147
0.625
 71
     1
 72
     0
 73
     0
 74
     0
 75
     0
 76
     0
 77
     1
 78
     8
170
     0
171
     2
172
     0
173
     0
174
     0
175
     0
176
     0
177
     0
178
     0
  0
ENDTAB
  0
ENDSEC
  0
SECTION
  2
BLOCKS
  0
BLOCK
  8
0
  2
$MODEL_SPACE
 70
     0
 10
0.0
 20
0.0
 30
0.0
  3
$MODEL_SPACE
  1

  0
ENDBLK
  5
21
  8
0
  0
BLOCK
 67
     1
  8
0
  2
$PAPER_SPACE
 70
     0
 10
0.0
 20
0.0
 30
0.0
  3
$PAPER_SPACE
  1

  0
ENDBLK
  5
1D
 67
     1
  8
0
  0
BLOCK
  8
0
  2
*D1
 70
     1
 10
0.0
 20
0.0
 30
0.0
  3
*D1
  1

  0
LINE
  5
340
  8
0
 62
     0
 10
191.8077048821028
 20
1517.531007897466
 30
0.0
 11
183.46016228918961
 21
1517.531007897466
 31
0.0
  0
LINE
  5
341
  8
0
 62
     0
 10
191.80770488210001
 20
1519.8307367176999
 30
0.0
 11
183.46016228918961
 21
1519.8307367176999
 31
0.0
  0
LINE
  5
342
  8
0
 62
     0
 10
184.96016228918961
 20
1514.031007897466
 30
0.0
 11
184.96016228918961
 21
1510.531007897466
 31
0.0
  0
LINE
  5
343
  8
0
 62
     0
 10
184.96016228918961
 20
1523.3307367176999
 30
0.0
 11
184.96016228918961
 21
1526.8307367176999
 31
0.0
  0
LINE
  5
344
  8
0
 62
     0
 10
184.96016228918961
 20
1526.8307367176999
 30
0.0
 11
188.46016228918961
 21
1526.8307367176999
 31
0.0
  0
SOLID
  5
345
  8
0
 62
     0
 10
184.37682895585621
 20
1514.031007897466
 30
0.0
 11
185.5434956225229
 21
1514.031007897466
 31
0.0
 12
184.96016228918961
 22
1517.531007897466
 32
0.0
 13
184.96016228918961
 23
1517.531007897466
 33
0.0
  0
SOLID
  5
346
  8
0
 62
     0
 10
184.37682895585621
 20
1523.3307367176999
 30
0.0
 11
185.5434956225229
 21
1523.3307367176999
 31
0.0
 12
184.96016228918961
 22
1519.8307367176999
 32
0.0
 13
184.96016228918961
 23
1519.8307367176999
 33
0.0
  0
INSERT
  5
347
  8
0
  2
*U3
 10
0.0
 20
0.0
 30
0.0
  0
POINT
  5
348
  8
DEFPOINTS
 62
     0
 10
192.8077048821028
 20
1517.531007897466
 30
0.0
  0
POINT
  5
349
  8
DEFPOINTS
 62
     0
 10
192.80770488210001
 20
1519.8307367176999
 30
0.0
  0
POINT
  5
34A
  8
DEFPOINTS
 62
     0
 10
184.96016228918961
 20
1519.8307367176999
 30
0.0
  0
ENDBLK
  5
333
  8
0
  0
BLOCK
  8
0
  2
*D2
 70
     1
 10
0.0
 20
0.0
 30
0.0
  3
*D2
  1

  0
LINE
  5
35B
  8
0
 62
     0
 10
191.80770488210001
 20
1519.8307367176999
 30
0.0
 11
134.3283116470314
 21
1519.8307367176999
 31
0.0
  0
LINE
  5
35C
  8
0
 62
     0
 10
191.8077048836999
 20
239.0310078974662
 30
0.0
 11
134.32831164703109
 21
239.0310078974662
 31
0.0
  0
LINE
  5
35D
  8
0
 62
     0
 10
135.8283116470314
 20
1516.3307367176999
 30
0.0
 11
135.8283116470312
 21
882.09753897424957
 31
0.0
  0
LINE
  5
35E
  8
0
 62
     0
 10
135.82831164703109
 20
242.5310078974662
 30
0.0
 11
135.8283116470312
 21
876.76420564091632
 31
0.0
  0
SOLID
  5
35F
  8
0
 62
     0
 10
135.244978313698
 20
1516.3307367176999
 30
0.0
 11
136.41164498036471
 21
1516.3307367176999
 31
0.0
 12
135.8283116470314
 22
1519.8307367176999
 32
0.0
 13
135.8283116470314
 23
1519.8307367176999
 33
0.0
  0
SOLID
  5
360
  8
0
 62
     0
 10
135.24497831369769
 20
242.5310078974662
 30
0.0
 11
136.4116449803644
 21
242.5310078974662
 31
0.0
 12
135.82831164703109
 22
239.0310078974662
 32
0.0
 13
135.82831164703109
 23
239.0310078974662
 33
0.0
  0
INSERT
  5
361
  8
0
  2
*U4
 10
0.0
 20
0.0
 30
0.0
  0
POINT
  5
362
  8
DEFPOINTS
 62
     0
 10
192.80770488210001
 20
1519.8307367176999
 30
0.0
  0
POINT
  5
363
  8
DEFPOINTS
 62
     0
 10
192.8077048836999
 20
239.0310078974662
 30
0.0
  0
POINT
  5
364
  8
DEFPOINTS
 62
     0
 10
135.82831164703109
 20
239.0310078974662
 30
0.0
  0
ENDBLK
  5
34F
  8
0
  0
BLOCK
  8
0
  2
*U3
 70
     1
 10
0.0
 20
0.0
 30
0.0
  3
*U3
  1

  0
TEXT
  5
4C0
  8
0
 62
     0
 10
189.0851622891893
 20
1525.372403384366
 30
0.0
 40
3.5
  1
2,2997±0,0100
 41
0.85
  0
ENDBLK
  5
4C2
  8
0
  0
BLOCK
  8
0
  2
*U4
 70
     1
 10
0.0
 20
0.0
 30
0.0
  3
*U4
  1

  0
TEXT
  5
4C4
  8
0
 62
     0
 10
116.2428949803644
 20
877.97253897424957
 30
0.0
 40
3.5
  1
1280,7997±0,0100
 41
0.85
  0
ENDBLK
  5
4C6
  8
0
  0
ENDSEC
  0
SECTION
  2
ENTITIES
  0
LINE
  5
225
  8
0
 10
0.0
 20
0.0
 30
0.0
 11
-0.000000000698094
 21
367.16242412759999
 31
0.0
  0
LINE
  5
226
  8
0
 10
-0.0000000005997833
 20
395.16242412126411
 30
0.0
 11
-0.0000000015980959
 21
1279.7997288202339
 31
0.0
  0
LINE
  5
229
  8
0
 10
611.06761559616859
 20
395.16242412703912
 30
0.0
 11
611.0676155951702
 21
1279.7997288213339
 31
0.0
  0
POLYLINE
  5
22B
  8
0
 66
     1
 10
0.0
 20
0.0
 30
0.0
  0
VERTEX
  5
39E
  8
0
 10
611.0676155962019
 20
395.16242412763381
 30
0.0
  0
VERTEX
  5
39F
  8
0
 10
610.90084909400196
 20
392.18415833333381
 30
0.0
  0
VERTEX
  5
3A0
  8
0
 10
610.44515600220188
 20
389.29999971913378
 30
0.0
  0
VERTEX
  5
3A1
  8
0
 10
609.70053632070199
 20
386.50994828513382
 30
0.0
  0
VERTEX
  5
3A2
  8
0
 10
608.65260639880194
 20
383.78570559323367
 30
0.0
  0
VERTEX
  5
3A3
  8
0
 10
607.31574988730199
 20
381.15557008143378
 30
0.0
  0
VERTEX
  5
3A4
  8
0
 10
605.73311773880175
 20
378.70443706343372
 30
0.0
  0
VERTEX
  5
3A5
  8
0
 10
603.89669054270178
 20
376.43814720943379
 30
0.0
  0
VERTEX
  5
3A6
  8
0
 10
601.81448770960196
 20
374.35085984923381
 30
0.0
  0
VERTEX
  5
3A7
  8
0
 10
599.55371842380191
 20
372.50994828513382
 30
0.0
  0
VERTEX
  5
3A8
  8
0
 10
597.10855624240185
 20
370.9234515101337
 30
0.0
  0
VERTEX
  5
3A9
  8
0
 10
594.48482760830188
 20
369.5833305312338
 30
0.0
  0
VERTEX
  5
3AA
  8
0
 10
591.76722103520194
 20
368.5328416713337
 30
0.0
  0
VERTEX
  5
3AB
  8
0
 10
588.98396602760192
 20
367.7864037047338
 30
0.0
  0
VERTEX
  5
3AC
  8
0
 10
586.10683308090188
 20
367.32959785713382
 30
0.0
  0
SEQEND
  5
3AD
  8
0
  0
LINE
  5
22F
  8
0
 10
2444.0611929593802
 20
307.18169631443379
 30
0.0
 11
2545.2907867110798
 21
307.18169631073368
 31
0.0
  0
POLYLINE
  5
233
  8
0
 66
     1
 10
0.0
 20
0.0
 30
0.0
  0
VERTEX
  5
3AE
  8
0
 10
27.931793405601919
 20
367.16242412763381
 30
0.0
  0
VERTEX
  5
3AF
  8
0
 10
24.96078251720192
 20
367.32959785663382
 30
0.0
  0
VERTEX
  5
3B0
  8
0
 10
22.08364956840191
 20
367.78640370453383
 30
0.0
  0
VERTEX
  5
3B1
  8
0
 10
19.300394559401919
 20
368.5328416713337
 30
0.0
  0
VERTEX
  5
3B2
  8
0
 10
16.582787985801929
 20
369.58333053133379
 30
0.0
  0
VERTEX
  5
3B3
  8
0
 10
13.95905935200193
 20
370.9234515101337
 30
0.0
  0
VERTEX
  5
3B4
  8
0
 10
11.51389717080192
 20
372.50994828513382
 30
0.0
  0
VERTEX
  5
3B5
  8
0
 10
9.2531278850019021
 20
374.35085984923381
 30
0.0
  0
VERTEX
  5
3B6
  8
0
 10
7.1709250519019463
 20
376.43814720943379
 30
0.0
  0
VERTEX
  5
3B7
  8
0
 10
5.334497855801942
 20
378.70443706343372
 30
0.0
  0
VERTEX
  5
3B8
  8
0
 10
3.7518657072019148
 20
381.1555700817338
 30
0.0
  0
VERTEX
  5
3B9
  8
0
 10
2.415009195701912
 20
383.78570559373378
 30
0.0
  0
VERTEX
  5
3BA
  8
0
 10
1.3670792739019071
 20
386.50994828513382
 30
0.0
  0
VERTEX
  5
3BB
  8
0
 10
0.6224595926019277
 20
389.29999971773373
 30
0.0
  0
VERTEX
  5
3BC
  8
0
 10
0.1667665012019484
 20
392.1841583297338
 30
0.0
  0
VERTEX
  5
3BD
  8
0
 10
-0.000000000598078
 20
395.16242412123381
 30
0.0
  0
SEQEND
  5
3BE
  8
0
  0
POLYLINE
  5
234
  8
0
 66
     1
 10
0.0
 20
0.0
 30
0.0
  0
VERTEX
  5
3BF
  8
0
 10
638.99940900237027
 20
367.16242412873379
 30
0.0
  0
VERTEX
  5
3C0
  8
0
 10
636.02839811397041
 20
367.32959785773369
 30
0.0
  0
VERTEX
  5
3C1
  8
0
 10
633.15126516517034
 20
367.7864037056338
 30
0.0
  0
VERTEX
  5
3C2
  8
0
 10
630.36801015617027
 20
368.53284167243368
 30
0.0
  0
VERTEX
  5
3C3
  8
0
 10
627.65040358257045
 20
369.58333053243371
 30
0.0
  0
VERTEX
  5
3C4
  8
0
 10
625.02667494877028
 20
370.92345151133372
 30
0.0
  0
VERTEX
  5
3C5
  8
0
 10
622.58151276757042
 20
372.50994828623379
 30
0.0
  0
VERTEX
  5
3C6
  8
0
 10
620.32074348177025
 20
374.35085985033379
 30
0.0
  0
VERTEX
  5
3C7
  8
0
 10
618.23854064867044
 20
376.4381472106337
 30
0.0
  0
VERTEX
  5
3C8
  8
0
 10
616.40211345257035
 20
378.70443706453369
 30
0.0
  0
VERTEX
  5
3C9
  8
0
 10
614.81948130397041
 20
381.15557008283372
 30
0.0
  0
VERTEX
  5
3CA
  8
0
 10
613.48262479247046
 20
383.78570559483381
 30
0.0
  0
VERTEX
  5
3CB
  8
0
 10
612.43469487057041
 20
386.50994828623379
 30
0.0
  0
VERTEX
  5
3CC
  8
0
 10
611.69007518937053
 20
389.29999971883382
 30
0.0
  0
VERTEX
  5
3CD
  8
0
 10
611.23438209787025
 20
392.18415833093383
 30
0.0
  0
VERTEX
  5
3CE
  8
0
 10
611.06761559617041
 20
395.16242412233379
 30
0.0
  0
SEQEND
  5
3CF
  8
0
  0
POLYLINE
  5
235
  8
0
 66
     1
 10
0.0
 20
0.0
 30
0.0
  0
VERTEX
  5
3D0
  8
0
 10
2416.1293995295432
 20
431.66242410023381
 30
0.0
  0
VERTEX
  5
3D1
  8
0
 10
2419.1004104170429
 20
431.82959782933369
 30
0.0
  0
VERTEX
  5
3D2
  8
0
 10
2421.9775433658428
 20
432.28640367723369
 30
0.0
  0
VERTEX
  5
3D3
  8
0
 10
2424.7607983748439
 20
433.03284164403368
 30
0.0
  0
VERTEX
  5
3D4
  8
0
 10
2427.4784049485429
 20
434.08333050393361
 30
0.0
  0
VERTEX
  5
3D5
  8
0
 10
2430.102133582443
 20
435.42345148283368
 30
0.0
  0
VERTEX
  5
3D6
  8
0
 10
2432.547295763844
 20
437.0099482577337
 30
0.0
  0
VERTEX
  5
3D7
  8
0
 10
2434.808065049644
 20
438.85085982193368
 30
0.0
  0
VERTEX
  5
3D8
  8
0
 10
2436.8902678829431
 20
440.9381471821336
 30
0.0
  0
VERTEX
  5
3D9
  8
0
 10
2438.7266950792432
 20
443.20443703603371
 30
0.0
  0
VERTEX
  5
3DA
  8
0
 10
2440.309327227943
 20
445.65557005433362
 30
0.0
  0
VERTEX
  5
3DB
  8
0
 10
2441.6461837397442
 20
448.28570556633372
 30
0.0
  0
VERTEX
  5
3DC
  8
0
 10
2442.6941136617429
 20
451.0099482577337
 30
0.0
  0
VERTEX
  5
3DD
  8
0
 10
2443.4387333431441
 20
453.79999969043359
 30
0.0
  0
VERTEX
  5
3DE
  8
0
 10
2443.8944264348438
 20
456.68415830243367
 30
0.0
  0
VERTEX
  5
3DF
  8
0
 10
2444.0611929368438
 20
459.66242409383369
 30
0.0
  0
SEQEND
  5
3E0
  8
0
  0
LINE
  5
236
  8
0
 10
1201.9529995078019
 20
367.32959785833378
 30
0.0
 11
1198.772719201002
 21
367.16242412973378
 31
0.0
  0
POLYLINE
  5
237
  8
0
 66
     1
 10
0.0
 20
0.0
 30
0.0
  0
VERTEX
  5
3E1
  8
0
 10
1805.0617839338429
 20
431.66242410673368
 30
0.0
  0
VERTEX
  5
3E2
  8
0
 10
1808.032794821243
 20
431.82959783573381
 30
0.0
  0
VERTEX
  5
3E3
  8
0
 10
1810.9099277700429
 20
432.28640368363381
 30
0.0
  0
VERTEX
  5
3E4
  8
0
 10
1813.6931827790429
 20
433.03284165043368
 30
0.0
  0
VERTEX
  5
3E5
  8
0
 10
1816.410789352743
 20
434.08333051043383
 30
0.0
  0
VERTEX
  5
3E6
  8
0
 10
1819.0345179866431
 20
435.42345148933367
 30
0.0
  0
VERTEX
  5
3E7
  8
0
 10
1821.4796801678431
 20
437.0099482642338
 30
0.0
  0
VERTEX
  5
3E8
  8
0
 10
1823.7404494536429
 20
438.85085982843373
 30
0.0
  0
VERTEX
  5
3E9
  8
0
 10
1825.8226522868431
 20
440.93814718863382
 30
0.0
  0
VERTEX
  5
3EA
  8
0
 10
1827.6590794830429
 20
443.2044370425337
 30
0.0
  0
VERTEX
  5
3EB
  8
0
 10
1829.2417116317431
 20
445.65557006083378
 30
0.0
  0
VERTEX
  5
3EC
  8
0
 10
1830.5785681433431
 20
448.28570557283371
 30
0.0
  0
VERTEX
  5
3ED
  8
0
 10
1831.6264980652429
 20
451.00994826423369
 30
0.0
  0
VERTEX
  5
3EE
  8
0
 10
1832.371117746543
 20
453.79999969693381
 30
0.0
  0
VERTEX
  5
3EF
  8
0
 10
1832.826810838143
 20
456.68415830893372
 30
0.0
  0
VERTEX
  5
3F0
  8
0
 10
1833.2028467612431
 20
459.66242410033368
 30
0.0
  0
SEQEND
  5
3F1
  8
0
  0
LINE
  5
238
  8
0
 10
586.10683308090188
 20
367.32959785713382
 30
0.0
 11
582.92655277410188
 21
367.1624241286338
 31
0.0
  0
LINE
  5
239
  8
0
 10
2227.5605242295019
 20
367.16242413029988
 30
0.0
 11
-0.000000000698094
 21
367.16242412759999
 31
0.0
  0
LINE
  5
23E
  8
0
 10
1250.067024564343
 20
431.6624241071338
 30
0.0
 11
1805.0617839328429
 21
431.66242410673368
 31
0.0
  0
LINE
  5
23F
  8
0
 10
1861.134640160144
 20
431.66242410133373
 30
0.0
 11
2416.1293995285432
 21
431.66242410023381
 31
0.0
  0
POLYLINE
  5
243
  8
0
 66
     1
 10
0.0
 20
0.0
 30
0.0
  0
VERTEX
  5
3F2
  8
0
 10
1222.135231164443
 20
459.66242410603388
 30
0.0
  0
VERTEX
  5
3F3
  8
0
 10
1222.301997666543
 20
456.68415831183358
 30
0.0
  0
VERTEX
  5
3F4
  8
0
 10
1222.757690758343
 20
453.79999969763372
 30
0.0
  0
VERTEX
  5
3F5
  8
0
 10
1223.502310439643
 20
451.00994826353377
 30
0.0
  0
VERTEX
  5
3F6
  8
0
 10
1224.550240361443
 20
448.28570557173367
 30
0.0
  0
VERTEX
  5
3F7
  8
0
 10
1225.8870968728429
 20
445.65557005993372
 30
0.0
  0
VERTEX
  5
3F8
  8
0
 10
1227.469729021343
 20
443.20443704183378
 30
0.0
  0
VERTEX
  5
3F9
  8
0
 10
1229.306156217343
 20
440.93814718793368
 30
0.0
  0
VERTEX
  5
3FA
  8
0
 10
1231.3883590503431
 20
438.8508598277337
 30
0.0
  0
VERTEX
  5
3FB
  8
0
 10
1233.6491283360431
 20
437.00994826353372
 30
0.0
  0
VERTEX
  5
3FC
  8
0
 10
1236.0942905174429
 20
435.4234514886337
 30
0.0
  0
VERTEX
  5
3FD
  8
0
 10
1238.7180191515431
 20
434.08333050973368
 30
0.0
  0
VERTEX
  5
3FE
  8
0
 10
1241.4356257245429
 20
433.03284164983381
 30
0.0
  0
VERTEX
  5
3FF
  8
0
 10
1244.2188807321429
 20
432.28640368323369
 30
0.0
  0
VERTEX
  5
400
  8
0
 10
1247.096013678743
 20
431.82959783563382
 30
0.0
  0
VERTEX
  5
401
  8
0
 10
1250.067024564343
 20
431.6624241071338
 30
0.0
  0
SEQEND
  5
402
  8
0
  0
LINE
  5
246
  8
0
 10
1222.1352311929429
 20
1279.799728783134
 30
0.0
 11
1222.135231164443
 21
459.66242410603388
 31
0.0
  0
POLYLINE
  5
248
  8
0
 66
     1
 10
0.0
 20
0.0
 30
0.0
  0
VERTEX
  5
403
  8
0
 10
1222.13523119297
 20
395.16242412873379
 30
0.0
  0
VERTEX
  5
404
  8
0
 10
1221.9684646907699
 20
392.1841583344339
 30
0.0
  0
VERTEX
  5
405
  8
0
 10
1221.5127715989699
 20
389.29999972033369
 30
0.0
  0
VERTEX
  5
406
  8
0
 10
1220.76815191747
 20
386.50994828623379
 30
0.0
  0
VERTEX
  5
407
  8
0
 10
1219.72022199557
 20
383.78570559433382
 30
0.0
  0
VERTEX
  5
408
  8
0
 10
1218.383365484071
 20
381.1555700826338
 30
0.0
  0
VERTEX
  5
409
  8
0
 10
1216.8007333355699
 20
378.70443706453369
 30
0.0
  0
VERTEX
  5
40A
  8
0
 10
1214.96430613947
 20
376.4381472106337
 30
0.0
  0
VERTEX
  5
40B
  8
0
 10
1212.88210330637
 20
374.35085985033379
 30
0.0
  0
VERTEX
  5
40C
  8
0
 10
1210.62133402057
 20
372.50994828623379
 30
0.0
  0
VERTEX
  5
40D
  8
0
 10
1208.1761718390701
 20
370.92345151123379
 30
0.0
  0
VERTEX
  5
40E
  8
0
 10
1205.5524432050711
 20
369.58333053233378
 30
0.0
  0
VERTEX
  5
40F
  8
0
 10
1202.8348366318701
 20
368.53284167243368
 30
0.0
  0
VERTEX
  5
410
  8
0
 10
1200.0515816243701
 20
367.78640370583378
 30
0.0
  0
VERTEX
  5
411
  8
0
 10
1197.1744486776699
 20
367.32959785833378
 30
0.0
  0
SEQEND
  5
412
  8
0
  0
LINE
  5
24C
  8
0
 10
2444.0611929768802
 20
793.49071253633383
 30
0.0
 11
2549.14833967308
 21
793.49071253253373
 31
0.0
  0
POLYLINE
  5
260
  8
0
 66
     1
 10
0.0
 20
0.0
 30
0.0
  0
VERTEX
  5
413
  8
0
 10
1833.2028467612431
 20
459.66242410033368
 30
0.0
  0
VERTEX
  5
414
  8
0
 10
1833.3696132632431
 20
456.68415830603368
 30
0.0
  0
VERTEX
  5
415
  8
0
 10
1833.825306354843
 20
453.79999969193369
 30
0.0
  0
VERTEX
  5
416
  8
0
 10
1834.5699260360429
 20
451.00994825783363
 30
0.0
  0
VERTEX
  5
417
  8
0
 10
1835.6178559577429
 20
448.2857055659336
 30
0.0
  0
VERTEX
  5
418
  8
0
 10
1836.954712469143
 20
445.65557005423369
 30
0.0
  0
VERTEX
  5
419
  8
0
 10
1838.5373446174431
 20
443.2044370361337
 30
0.0
  0
VERTEX
  5
41A
  8
0
 10
1840.373771813443
 20
440.93814718223371
 30
0.0
  0
VERTEX
  5
41B
  8
0
 10
1842.4559746463431
 20
438.85085982193368
 30
0.0
  0
VERTEX
  5
41C
  8
0
 10
1844.7167439320431
 20
437.00994825783368
 30
0.0
  0
VERTEX
  5
41D
  8
0
 10
1847.1619061133431
 20
435.42345148283368
 30
0.0
  0
VERTEX
  5
41E
  8
0
 10
1849.785634747343
 20
434.08333050393361
 30
0.0
  0
VERTEX
  5
41F
  8
0
 10
1852.503241320343
 20
433.03284164403368
 30
0.0
  0
VERTEX
  5
420
  8
0
 10
1855.286496327943
 20
432.28640367743361
 30
0.0
  0
VERTEX
  5
421
  8
0
 10
1858.1636292745429
 20
431.82959782993368
 30
0.0
  0
VERTEX
  5
422
  8
0
 10
1861.134640160144
 20
431.66242410133373
 30
0.0
  0
SEQEND
  5
423
  8
0
  0
LINE
  5
262
  8
0
 10
1833.2028467612431
 20
459.66242410033368
 30
0.0
 11
1833.2028467898431
 21
1251.799728783534
 31
0.0
  0
POLYLINE
  5
265
  8
0
 66
     1
 10
0.0
 20
0.0
 30
0.0
  0
VERTEX
  5
424
  8
0
 10
1833.2028467898431
 20
1251.799728783534
 30
0.0
  0
VERTEX
  5
425
  8
0
 10
1833.0360802877431
 20
1254.7779945778341
 30
0.0
  0
VERTEX
  5
426
  8
0
 10
1832.5803871959431
 20
1257.6621531919341
 30
0.0
  0
VERTEX
  5
427
  8
0
 10
1831.8357675146431
 20
1260.452204626034
 30
0.0
  0
VERTEX
  5
428
  8
0
 10
1830.7878375928431
 20
1263.1764473179339
 30
0.0
  0
VERTEX
  5
429
  8
0
 10
1829.4509810814429
 20
1265.806582829634
 30
0.0
  0
VERTEX
  5
42A
  8
0
 10
1827.868348932943
 20
1268.2577158477329
 30
0.0
  0
VERTEX
  5
42B
  8
0
 10
1826.0319217369431
 20
1270.524005701634
 30
0.0
  0
VERTEX
  5
42C
  8
0
 10
1823.949718903943
 20
1272.611293061934
 30
0.0
  0
VERTEX
  5
42D
  8
0
 10
1821.688949618243
 20
1274.452204626034
 30
0.0
  0
VERTEX
  5
42E
  8
0
 10
1819.2437874368429
 20
1276.0387014010339
 30
0.0
  0
VERTEX
  5
42F
  8
0
 10
1816.620058802743
 20
1277.3788223799329
 30
0.0
  0
VERTEX
  5
430
  8
0
 10
1813.9024522297429
 20
1278.4293112398341
 30
0.0
  0
VERTEX
  5
431
  8
0
 10
1811.1191972221429
 20
1279.1757492063341
 30
0.0
  0
VERTEX
  5
432
  8
0
 10
1808.242064275543
 20
1279.6325550539341
 30
0.0
  0
VERTEX
  5
433
  8
0
 10
1805.0617839686431
 20
1279.799728782534
 30
0.0
  0
SEQEND
  5
434
  8
0
  0
LINE
  5
26D
  8
0
 10
2545.2907867466802
 20
1279.799728754534
 30
0.0
 11
2444.06119299488
 21
1279.7997287582341
 31
0.0
  0
LINE
  5
26F
  8
0
 10
1805.0617839686431
 20
1279.799728782534
 30
0.0
 11
1222.1352311929429
 21
1279.799728783134
 31
0.0
  0
LINE
  5
270
  8
0
 10
-0.0000000015980959
 20
1279.7997288202339
 30
0.0
 11
582.92655276770176
 21
1279.7997288043341
 31
0.0
  0
LINE
  5
271
  8
0
 10
611.0676155951702
 20
1279.7997288213339
 30
0.0
 11
1193.9941683644699
 21
1279.799728805534
 31
0.0
  0
POLYLINE
  5
272
  8
0
 66
     1
 10
0.0
 20
0.0
 30
0.0
  0
VERTEX
  5
435
  8
0
 10
582.92655276770176
 20
1279.7997288043341
 30
0.0
  0
VERTEX
  5
436
  8
0
 10
585.89756365620201
 20
1279.632555075334
 30
0.0
  0
VERTEX
  5
437
  8
0
 10
588.77469660490192
 20
1279.1757492274339
 30
0.0
  0
VERTEX
  5
438
  8
0
 10
591.55795161390176
 20
1278.429311260634
 30
0.0
  0
VERTEX
  5
439
  8
0
 10
594.27555818750182
 20
1277.378822400633
 30
0.0
  0
VERTEX
  5
43A
  8
0
 10
596.8992868214018
 20
1276.0387014218329
 30
0.0
  0
VERTEX
  5
43B
  8
0
 10
599.34444900260189
 20
1274.4522046468339
 30
0.0
  0
VERTEX
  5
43C
  8
0
 10
601.6052182883019
 20
1272.6112930827339
 30
0.0
  0
VERTEX
  5
43D
  8
0
 10
603.68742112140183
 20
1270.524005722533
 30
0.0
  0
VERTEX
  5
43E
  8
0
 10
605.52384831760185
 20
1268.2577158685331
 30
0.0
  0
VERTEX
  5
43F
  8
0
 10
607.10648046610174
 20
1265.8065828502331
 30
0.0
  0
VERTEX
  5
440
  8
0
 10
608.44333697770185
 20
1263.1764473382341
 30
0.0
  0
VERTEX
  5
441
  8
0
 10
609.49126689950197
 20
1260.4522046468339
 30
0.0
  0
VERTEX
  5
442
  8
0
 10
610.23588658070184
 20
1257.662153214234
 30
0.0
  0
VERTEX
  5
443
  8
0
 10
610.69157967220178
 20
1254.777994602134
 30
0.0
  0
VERTEX
  5
444
  8
0
 10
611.06761559520191
 20
1251.799728810734
 30
0.0
  0
SEQEND
  5
445
  8
0
  0
POLYLINE
  5
273
  8
0
 66
     1
 10
0.0
 20
0.0
 30
0.0
  0
VERTEX
  5
446
  8
0
 10
1193.9941683644699
 20
1279.799728805534
 30
0.0
  0
VERTEX
  5
447
  8
0
 10
1196.9651792529701
 20
1279.6325550764341
 30
0.0
  0
VERTEX
  5
448
  8
0
 10
1199.84231220167
 20
1279.175749228534
 30
0.0
  0
VERTEX
  5
449
  8
0
 10
1202.6255672106699
 20
1278.4293112617329
 30
0.0
  0
VERTEX
  5
44A
  8
0
 10
1205.34317378427
 20
1277.378822401834
 30
0.0
  0
VERTEX
  5
44B
  8
0
 10
1207.96690241807
 20
1276.0387014229341
 30
0.0
  0
VERTEX
  5
44C
  8
0
 10
1210.4120645993701
 20
1274.4522046480331
 30
0.0
  0
VERTEX
  5
44D
  8
0
 10
1212.6728338850701
 20
1272.611293083834
 30
0.0
  0
VERTEX
  5
44E
  8
0
 10
1214.75503671817
 20
1270.5240057236331
 30
0.0
  0
VERTEX
  5
44F
  8
0
 10
1216.59146391427
 20
1268.2577158697341
 30
0.0
  0
VERTEX
  5
450
  8
0
 10
1218.1740960628711
 20
1265.8065828514341
 30
0.0
  0
VERTEX
  5
451
  8
0
 10
1219.5109525744699
 20
1263.1764473393339
 30
0.0
  0
VERTEX
  5
452
  8
0
 10
1220.5588824962699
 20
1260.4522046480331
 30
0.0
  0
VERTEX
  5
453
  8
0
 10
1221.3035021774699
 20
1257.662153215334
 30
0.0
  0
VERTEX
  5
454
  8
0
 10
1221.75919526897
 20
1254.7779946033329
 30
0.0
  0
VERTEX
  5
455
  8
0
 10
1222.13523119197
 20
1251.799728811834
 30
0.0
  0
SEQEND
  5
456
  8
0
  0
LINE
  5
274
  8
0
 10
2227.5605242295019
 20
367.16242413029988
 30
0.0
 11
2227.5605242302008
 21
0.0000000028000784
 31
0.0
  0
LINE
  5
276
  8
0
 10
2551.6534620561802
 20
325.73962183293389
 30
0.0
 11
2549.5864960674812
 21
323.4544640224338
 31
0.0
  0
POLYLINE
  5
277
  8
0
 66
     1
 10
0.0
 20
0.0
 30
0.0
  0
VERTEX
  5
457
  8
0
 10
2444.0611929938441
 20
1251.7997287770329
 30
0.0
  0
VERTEX
  5
458
  8
0
 10
2443.8944264918432
 20
1254.777994571333
 30
0.0
  0
VERTEX
  5
459
  8
0
 10
2443.438733400144
 20
1257.6621531854339
 30
0.0
  0
VERTEX
  5
45A
  8
0
 10
2442.6941137189428
 20
1260.4522046195329
 30
0.0
  0
VERTEX
  5
45B
  8
0
 10
2441.6461837972438
 20
1263.1764473114331
 30
0.0
  0
VERTEX
  5
45C
  8
0
 10
2440.3093272859442
 20
1265.8065828232329
 30
0.0
  0
VERTEX
  5
45D
  8
0
 10
2438.7266951375441
 20
1268.2577158412339
 30
0.0
  0
VERTEX
  5
45E
  8
0
 10
2436.8902679416428
 20
1270.5240056951329
 30
0.0
  0
VERTEX
  5
45F
  8
0
 10
2434.8080651086439
 20
1272.611293055433
 30
0.0
  0
VERTEX
  5
460
  8
0
 10
2432.5472958230439
 20
1274.4522046195341
 30
0.0
  0
VERTEX
  5
461
  8
0
 10
2430.1021336416429
 20
1276.038701394534
 30
0.0
  0
VERTEX
  5
462
  8
0
 10
2427.4784050076441
 20
1277.3788223734341
 30
0.0
  0
VERTEX
  5
463
  8
0
 10
2424.7607984346441
 20
1278.4293112333339
 30
0.0
  0
VERTEX
  5
464
  8
0
 10
2421.9775434271442
 20
1279.175749199934
 30
0.0
  0
VERTEX
  5
465
  8
0
 10
2418.0474882270742
 20
1279.799728776029
 30
0.0
  0
VERTEX
  5
466
  8
0
 10
1833.2028468191429
 20
1279.799728777434
 30
0.0
  0
SEQEND
  5
467
  8
0
  0
LINE
  5
27B
  8
0
 10
2444.06119299488
 20
1279.7997287582341
 30
0.0
 11
2444.0611929768802
 21
793.49071253633383
 31
0.0
  0
LINE
  5
27C
  8
0
 10
2444.0611929593802
 20
307.18169631443379
 30
0.0
 11
2444.0611929768802
 21
793.49071253633383
 31
0.0
  0
POLYLINE
  5
27E
  8
0
 66
     1
 10
0.0
 20
0.0
 30
0.0
  0
VERTEX
  5
468
  8
0
 10
2549.5864960674812
 20
323.4544640224338
 30
0.0
  0
VERTEX
  5
469
  8
0
 10
2548.9363717359802
 20
322.6903812728338
 30
0.0
  0
VERTEX
  5
46A
  8
0
 10
2548.33422566638
 20
321.88230532623379
 30
0.0
  0
VERTEX
  5
46B
  8
0
 10
2547.7800578588799
 20
321.03023618283368
 30
0.0
  0
VERTEX
  5
46C
  8
0
 10
2547.2707264786809
 20
320.13036932373382
 30
0.0
  0
VERTEX
  5
46D
  8
0
 10
2546.8093733604801
 20
319.1865092678338
 30
0.0
  0
VERTEX
  5
46E
  8
0
 10
2546.4054240079809
 20
318.21006957103373
 30
0.0
  0
VERTEX
  5
46F
  8
0
 10
2546.0598032581811
 20
317.19984563713371
 30
0.0
  0
VERTEX
  5
470
  8
0
 10
2545.7715862740802
 20
316.15704206243379
 30
0.0
  0
VERTEX
  5
471
  8
0
 10
2545.5474240481808
 20
315.09668619153382
 30
0.0
  0
VERTEX
  5
472
  8
0
 10
2545.3895335776801
 20
314.02378713933382
 30
0.0
  0
VERTEX
  5
473
  8
0
 10
2545.2956978653801
 20
312.93333579103381
 30
0.0
  0
VERTEX
  5
474
  8
0
 10
2545.2659169111798
 20
311.82533214653381
 30
0.0
  0
SEQEND
  5
475
  8
0
  0
LINE
  5
280
  8
0
 10
2545.2659169111798
 20
311.82533214653381
 30
0.0
 11
2545.2907867110798
 21
307.18169631073368
 31
0.0
  0
LINE
  5
282
  8
0
 10
2549.148339673181
 20
793.49071253253373
 30
0.0
 11
2551.6534620561802
 21
325.73962183293389
 31
0.0
  0
LINE
  5
284
  8
0
 10
2545.26591694638
 20
1275.156092918834
 30
0.0
 11
2545.2907867466802
 21
1279.799728754534
 31
0.0
  0
LINE
  5
286
  8
0
 10
2549.14833967308
 20
793.49071253253373
 30
0.0
 11
2551.6534620903808
 21
1261.241803231834
 31
0.0
  0
LINE
  5
288
  8
0
 10
2551.6534620903808
 20
1261.241803231834
 30
0.0
 11
2549.5864961018801
 21
1263.5269610425339
 31
0.0
  0
POLYLINE
  5
28A
  8
0
 66
     1
 10
0.0
 20
0.0
 30
0.0
  0
VERTEX
  5
476
  8
0
 10
2549.5864961018801
 20
1263.5269610425339
 30
0.0
  0
VERTEX
  5
477
  8
0
 10
2548.9363717703809
 20
1264.2910437922339
 30
0.0
  0
VERTEX
  5
478
  8
0
 10
2548.3342257008808
 20
1265.0991197388339
 30
0.0
  0
VERTEX
  5
479
  8
0
 10
2547.7800578933802
 20
1265.951188882334
 30
0.0
  0
VERTEX
  5
47A
  8
0
 10
2547.2707265132799
 20
1266.851055741334
 30
0.0
  0
VERTEX
  5
47B
  8
0
 10
2546.80937339518
 20
1267.7949157973339
 30
0.0
  0
VERTEX
  5
47C
  8
0
 10
2546.4054240426799
 20
1268.771355494134
 30
0.0
  0
VERTEX
  5
47D
  8
0
 10
2546.0598032929802
 20
1269.781579428033
 30
0.0
  0
VERTEX
  5
47E
  8
0
 10
2545.7715863090812
 20
1270.8243830028341
 30
0.0
  0
VERTEX
  5
47F
  8
0
 10
2545.5474240830799
 20
1271.8847388737331
 30
0.0
  0
VERTEX
  5
480
  8
0
 10
2545.3895336127812
 20
1272.957637925934
 30
0.0
  0
VERTEX
  5
481
  8
0
 10
2545.2956979004798
 20
1274.0480892742339
 30
0.0
  0
VERTEX
  5
482
  8
0
 10
2545.26591694638
 20
1275.156092918834
 30
0.0
  0
SEQEND
  5
483
  8
0
  0
LINE
  5
2FB
  8
0
 10
1222.135231192322
 20
395.16242411715518
 30
0.0
 11
1222.135231164443
 21
459.66242410603388
 31
0.0
  0
CIRCLE
  5
2FD
  8
0
 10
448.9038226163018
 20
915.66242412863369
 30
0.0
 40
15.0
  0
CIRCLE
  5
300
  8
0
 10
1064.749989043202
 20
915.66242412973384
 30
0.0
 40
15.0
  0
CIRCLE
  5
302
  8
0
 10
1681.0146943023931
 20
981.6624241076338
 30
0.0
 40
15.0
  0
CIRCLE
  5
304
  8
0
 10
2292.0823099186432
 20
981.6989146552836
 30
0.0
 40
15.0
  0
CIRCLE
  5
306
  8
0
 10
1167.149938803602
 20
224.00000000150001
 30
0.0
 40
15.0
  0
LINE
  5
30B
  8
0
 10
1833.2028468191429
 20
1279.799728777434
 30
0.0
 11
1833.0360802877431
 21
1254.7779945778341
 31
0.0
  0
LINE
  5
366
  8
0
 10
2227.5605242302008
 20
0.0000000027999931
 30
0.0
 11
0.0
 21
0.0
 31
0.0
  0
ENDSEC
  0
EOF
