  0
SECTION
  2
HEADER
  9
$ACADVER
  1
AC1009
  9
$INSBASE
 10
0.0
 20
0.0
 30
0.0
  9
$EXTMIN
 10
61.317049310703943
 20
93.686672973402096
 30
0.0
  9
$EXTMAX
 10
2582.0105286065
 20
1266.515775629744
 30
0.0
  9
$LIMMIN
 10
0.0
 20
0.0
  9
$LIMMAX
 10
420.0
 20
297.0
  9
$ORTHOMODE
 70
     0
  9
$REGENMODE
 70
     1
  9
$FILLMODE
 70
     1
  9
$QTEXTMODE
 70
     0
  9
$MIRRTEXT
 70
     0
  9
$DRAGMODE
 70
     2
  9
$LTSCALE
 40
23.100000000000001
  9
$OSMODE
 70
    37
  9
$ATTMODE
 70
     1
  9
$TEXTSIZE
 40
0.2
  9
$TRACEWID
 40
0.05
  9
$TEXTSTYLE
  7
STANDARD
  9
$CLAYER
  8
0
  9
$CELTYPE
  6
BYLAYER
  9
$CECOLOR
 62
   256
  9
$DIMSCALE
 40
1.0
  9
$DIMASZ
 40
3.5
  9
$DIMEXO
 40
1.0
  9
$DIMDLI
 40
15.960000000000001
  9
$DIMRND
 40
0.0
  9
$DIMDLE
 40
0.0
  9
$DIMEXE
 40
1.5
  9
$DIMTP
 40
0.01
  9
$DIMTM
 40
0.01
  9
$DIMTXT
 40
3.5
  9
$DIMCEN
 40
3.7799999999999989
  9
$DIMTSZ
 40
0.0
  9
$DIMTOL
 70
     1
  9
$DIMLIM
 70
     0
  9
$DIMTIH
 70
     1
  9
$DIMTOH
 70
     1
  9
$DIMSE1
 70
     0
  9
$DIMSE2
 70
     0
  9
$DIMTAD
 70
     0
  9
$DIMZIN
 70
     0
  9
$DIMBLK
  1

  9
$DIMASO
 70
     1
  9
$DIMSHO
 70
     1
  9
$DIMPOST
  1

  9
$DIMAPOST
  1

  9
$DIMALT
 70
     0
  9
$DIMALTD
 70
     2
  9
$DIMALTF
 40
25.399999999999999
  9
$DIMLFAC
 40
1.0
  9
$DIMTOFL
 70
     0
  9
$DIMTVP
 40
0.0
  9
$DIMTIX
 70
     0
  9
$DIMSOXD
 70
     0
  9
$DIMSAH
 70
     0
  9
$DIMBLK1
  1

  9
$DIMBLK2
  1

  9
$DIMSTYLE
  2
STANDARD
  9
$DIMCLRD
 70
     0
  9
$DIMCLRE
 70
     0
  9
$DIMCLRT
 70
     0
  9
$DIMTFAC
 40
1.0
  9
$DIMGAP
 40
0.625
  9
$LUNITS
 70
     2
  9
$LUPREC
 70
     4
  9
$SKETCHINC
 40
0.1
  9
$FILLETRAD
 40
0.0
  9
$AUNITS
 70
     0
  9
$AUPREC
 70
     0
  9
$MENU
  1
.
  9
$ELEVATION
 40
0.0
  9
$PELEVATION
 40
0.0
  9
$THICKNESS
 40
0.0
  9
$LIMCHECK
 70
     0
  9
$BLIPMODE
 70
     0
  9
$CHAMFERA
 40
0.0
  9
$CHAMFERB
 40
0.0
  9
$SKPOLY
 70
     0
  9
$TDCREATE
 40
2456505.574785104
  9
$TDUPDATE
 40
2456505.5900056711
  9
$TDINDWG
 40
0.0145482292
  9
$TDUSRTIMER
 40
0.0145482292
  9
$USRTIMER
 70
     1
  9
$ANGBASE
 50
0.0
  9
$ANGDIR
 70
     0
  9
$PDMODE
 70
     3
  9
$PDSIZE
 40
8.0
  9
$PLINEWID
 40
0.0
  9
$COORDS
 70
     1
  9
$SPLFRAME
 70
     0
  9
$SPLINETYPE
 70
     6
  9
$SPLINESEGS
 70
     8
  9
$ATTDIA
 70
     0
  9
$ATTREQ
 70
     1
  9
$HANDLING
 70
     1
  9
$HANDSEED
  5
492
  9
$SURFTAB1
 70
     6
  9
$SURFTAB2
 70
     6
  9
$SURFTYPE
 70
     6
  9
$SURFU
 70
     6
  9
$SURFV
 70
     6
  9
$UCSNAME
  2

  9
$UCSORG
 10
0.0
 20
0.0
 30
0.0
  9
$UCSXDIR
 10
1.0
 20
0.0
 30
0.0
  9
$UCSYDIR
 10
0.0
 20
1.0
 30
0.0
  9
$PUCSNAME
  2

  9
$PUCSORG
 10
0.0
 20
0.0
 30
0.0
  9
$PUCSXDIR
 10
1.0
 20
0.0
 30
0.0
  9
$PUCSYDIR
 10
0.0
 20
1.0
 30
0.0
  9
$USERI1
 70
     0
  9
$USERI2
 70
     0
  9
$USERI3
 70
     0
  9
$USERI4
 70
     0
  9
$USERI5
 70
     0
  9
$USERR1
 40
0.0
  9
$USERR2
 40
0.0
  9
$USERR3
 40
0.0
  9
$USERR4
 40
0.0
  9
$USERR5
 40
0.0
  9
$WORLDVIEW
 70
     1
  9
$SHADEDGE
 70
     3
  9
$SHADEDIF
 70
    70
  9
$TILEMODE
 70
     1
  9
$MAXACTVP
 70
    64
  9
$PLIMCHECK
 70
     0
  9
$PEXTMIN
 10
1.0000000000000000E+020
 20
1.0000000000000000E+020
 30
1.0000000000000000E+020
  9
$PEXTMAX
 10
-1.0000000000000000E+020
 20
-1.0000000000000000E+020
 30
-1.0000000000000000E+020
  9
$PLIMMIN
 10
0.0
 20
0.0
  9
$PLIMMAX
 10
12.0
 20
9.0
  9
$UNITMODE
 70
     0
  9
$VISRETAIN
 70
     1
  9
$PLINEGEN
 70
     0
  9
$PSLTSCALE
 70
     1
  0
ENDSEC
  0
SECTION
  2
TABLES
  0
TABLE
  2
VPORT
 70
     1
  0
VPORT
  2
*ACTIVE
 70
     0
 10
0.0
 20
0.0
 11
1.0
 21
1.0
 12
1462.8813882531911
 22
829.54872113324564
 13
0.0
 23
0.0
 14
1.0
 24
1.0
 15
0.0
 25
0.0
 16
0.0
 26
0.0
 36
1.0
 17
0.0
 27
0.0
 37
0.0
 40
2108.929714958258
 41
1.70954356846473
 42
50.0
 43
0.0
 44
0.0
 50
0.0
 51
0.0
 71
     0
 72
   100
 73
     1
 74
     1
 75
     0
 76
     0
 77
     0
 78
     0
  0
ENDTAB
  0
TABLE
  2
LTYPE
 70
     6
  0
LTYPE
  2
CONTINUOUS
 70
     0
  3
Solid line
 72
    65
 73
     0
 40
0.0
  0
LTYPE
  2
CENTER
 70
     0
  3
____ _ ____ _ ____ _ ____ _ ____ _ ____ _ ____
 72
    65
 73
     4
 40
0.6
 49
0.375
 49
-0.075
 49
0.075
 49
-0.075
  0
LTYPE
  2
HIDDEN
 70
     0
  3
- - - - - - - - - - - - - - - - - - - -
 72
    65
 73
     2
 40
0.2
 49
0.1
 49
-0.1
  0
LTYPE
  2
PHANTOM
 70
     0
  3
_____ _ _ _____ _ _ _____ _ _ _____
 72
    65
 73
     6
 40
0.8
 49
0.45
 49
-0.05
 49
0.1
 49
-0.05
 49
0.1
 49
-0.05
  0
LTYPE
  2
DOT
 70
     0
  3
. . . . . . . . . . . . . . . . . . . .
 72
    65
 73
     2
 40
0.2
 49
0.1
 49
-0.1
  0
LTYPE
  2
DASHED
 70
     0
  3
- - - - - - - - - - - - - - - - - - - -
 72
    65
 73
     2
 40
0.2
 49
0.1
 49
-0.1
  0
ENDTAB
  0
TABLE
  2
LAYER
 70
     1
  0
LAYER
  2
0
 70
     0
 62
     7
  6
CONTINUOUS
  0
ENDTAB
  0
TABLE
  2
STYLE
 70
     2
  0
STYLE
  2
STANDARD
 70
     0
 40
0.0
 41
0.85
 50
0.0
 71
     0
 42
0.2
  3
txt
  4

  0
STYLE
  2
TEXTSTYLE_1
 70
     0
 40
0.0
 41
0.8
 50
0.0
 71
     0
 42
0.2
  3
gdt
  4

  0
ENDTAB
  0
TABLE
  2
VIEW
 70
     0
  0
ENDTAB
  0
TABLE
  2
UCS
 70
     0
  0
ENDTAB
  0
TABLE
  2
APPID
 70
     6
  0
APPID
  2
ACAD
 70
     0
  0
APPID
  2
ACAD_NAV_VCDISPLAY
 70
     0
  0
APPID
  2
ACLAYERTOOLS
 70
     0
  0
APPID
  2
ACAECLAYERSTANDARD
 70
     0
  0
APPID
  2
ACCMTRANSPARENCY
 70
     0
  0
APPID
  2
ACAD_MLEADERVER
 70
     0
  0
ENDTAB
  0
TABLE
  2
DIMSTYLE
 70
     1
  0
DIMSTYLE
  2
STANDARD
 70
     0
  3

  4

  5

  6

  7

 40
1.0
 41
3.5
 42
1.0
 43
0.38
 44
1.5
 45
0.0
 46
0.0
 47
0.01
 48
0.01
140
3.5
141
0.09
142
0.0
143
25.399999999999999
144
1.0
145
0.0
146
1.0
147
0.625
 71
     1
 72
     0
 73
     0
 74
     0
 75
     0
 76
     0
 77
     1
 78
     8
170
     0
171
     2
172
     0
173
     0
174
     0
175
     0
176
     0
177
     0
178
     0
  0
ENDTAB
  0
ENDSEC
  0
SECTION
  2
BLOCKS
  0
BLOCK
  8
0
  2
$MODEL_SPACE
 70
     0
 10
0.0
 20
0.0
 30
0.0
  3
$MODEL_SPACE
  1

  0
ENDBLK
  5
21
  8
0
  0
BLOCK
 67
     1
  8
0
  2
$PAPER_SPACE
 70
     0
 10
0.0
 20
0.0
 30
0.0
  3
$PAPER_SPACE
  1

  0
ENDBLK
  5
1D
 67
     1
  8
0
  0
ENDSEC
  0
SECTION
  2
ENTITIES
  0
LINE
  5
221
  8
0
 10
2553.6271042643598
 20
879.52335724347324
 30
0.0
 11
2553.6271042643598
 21
843.40357224677314
 31
0.0
  0
LINE
  5
222
  8
0
 10
2577.1219669005009
 20
379.01610345517321
 30
0.0
 11
2582.0105286065
 21
752.4098579030732
 31
0.0
  0
LINE
  5
224
  8
0
 10
2477.6363950176001
 20
615.11422280887314
 30
0.0
 11
2477.995879188501
 21
575.4637550036731
 31
0.0
  0
LINE
  5
225
  8
0
 10
2555.997044025316
 20
379.01095078330201
 30
0.0
 11
2555.995355125217
 21
93.686672973402096
 31
0.0
  0
LINE
  5
226
  8
0
 10
2452.3447229171602
 20
851.03656961307308
 30
0.0
 11
2452.3447346920598
 21
879.52335724347324
 31
0.0
  0
LINE
  5
227
  8
0
 10
2480.0328992418008
 20
752.4098579030732
 30
0.0
 11
2477.6363950176001
 21
615.11422280887314
 31
0.0
  0
LINE
  5
228
  8
0
 10
2403.895608968704
 20
1266.515775629673
 30
0.0
 11
2403.895608968704
 21
1070.068134547673
 31
0.0
  0
LINE
  5
229
  8
0
 10
2287.6092129756598
 20
705.69875215737329
 30
0.0
 11
2277.2263428350602
 21
575.46260401007316
 31
0.0
  0
POLYLINE
  5
22A
  8
0
 66
     1
 10
0.0
 20
0.0
 30
0.0
  0
VERTEX
  5
3E6
  8
0
 10
2552.3602339535601
 20
838.60187939167326
 30
0.0
  0
VERTEX
  5
3E7
  8
0
 10
2543.6732716856609
 20
824.56726713347302
 30
0.0
  0
VERTEX
  5
3E8
  8
0
 10
2534.3712331740612
 20
811.04652611667325
 30
0.0
  0
VERTEX
  5
3E9
  8
0
 10
2524.4541184189602
 20
798.03965634127326
 30
0.0
  0
VERTEX
  5
3EA
  8
0
 10
2513.8939918844599
 20
785.51861797547315
 30
0.0
  0
VERTEX
  5
3EB
  8
0
 10
2502.7187891064609
 20
773.51145085107305
 30
0.0
  0
VERTEX
  5
3EC
  8
0
 10
2491.0123166917601
 20
762.10227446397312
 30
0.0
  0
VERTEX
  5
3ED
  8
0
 10
2478.7705782567609
 20
751.29550544527308
 30
0.0
  0
VERTEX
  5
3EE
  8
0
 10
2465.9975701850599
 20
741.08672716377328
 30
0.0
  0
VERTEX
  5
3EF
  8
0
 10
2452.7890882350612
 20
731.5468092215732
 30
0.0
  0
VERTEX
  5
3F0
  8
0
 10
2439.1770643262612
 20
722.69937481937325
 30
0.0
  0
VERTEX
  5
3F1
  8
0
 10
2425.1295665391599
 20
714.52080075657341
 30
0.0
  0
VERTEX
  5
3F2
  8
0
 10
2410.64659487376
 20
707.0110870330733
 30
0.0
  0
SEQEND
  5
3F3
  8
0
  0
LINE
  5
22B
  8
0
 10
2168.2074330776609
 20
1070.068134547673
 30
0.0
 11
2179.4812248630601
 21
939.83298872357341
 31
0.0
  0
LINE
  5
22C
  8
0
 10
1109.9272243843
 20
93.686672973473264
 30
0.0
 11
239.43028004840059
 21
93.691825645273298
 31
0.0
  0
LINE
  5
22D
  8
0
 10
2555.995355125217
 20
93.686672973402096
 30
0.0
 11
1685.4984107894161
 21
93.691825645202144
 31
0.0
  0
LINE
  5
22E
  8
0
 10
1163.9857546106
 20
112.5828805860732
 30
0.0
 11
1143.4011172777
 21
112.5831242764733
 31
0.0
  0
POLYLINE
  5
22F
  8
0
 66
     1
 10
0.0
 20
0.0
 30
0.0
  0
VERTEX
  5
3F4
  8
0
 10
2442.0412506819598
 20
825.99980876747316
 30
0.0
  0
VERTEX
  5
3F5
  8
0
 10
2443.9191557306599
 20
827.45381589587316
 30
0.0
  0
VERTEX
  5
3F6
  8
0
 10
2445.7138736365609
 20
829.20320006917314
 30
0.0
  0
VERTEX
  5
3F7
  8
0
 10
2447.4137162077609
 20
831.22638579197326
 30
0.0
  0
VERTEX
  5
3F8
  8
0
 10
2448.8857370129608
 20
833.46513994947327
 30
0.0
  0
VERTEX
  5
3F9
  8
0
 10
2450.09758312946
 20
835.91010951017336
 30
0.0
  0
VERTEX
  5
3FA
  8
0
 10
2451.0816074798599
 20
838.57064750557345
 30
0.0
  0
VERTEX
  5
3FB
  8
0
 10
2451.80192240016
 20
841.41657991557315
 30
0.0
  0
VERTEX
  5
3FC
  8
0
 10
2452.2465653358599
 20
844.43784873347306
 30
0.0
  0
VERTEX
  5
3FD
  8
0
 10
2452.42749884156
 20
847.64451196597315
 30
0.0
  0
VERTEX
  5
3FE
  8
0
 10
2452.3447229171602
 20
851.03656961307308
 30
0.0
  0
SEQEND
  5
3FF
  8
0
  0
LINE
  5
230
  8
0
 10
1635.4302550647999
 20
324.57609343427322
 30
0.0
 11
1163.9857546106
 21
112.5828805860732
 31
0.0
  0
POLYLINE
  5
231
  8
0
 66
     1
 10
0.0
 20
0.0
 30
0.0
  0
VERTEX
  5
400
  8
0
 10
342.87136775386011
 20
707.01108703307341
 30
0.0
  0
VERTEX
  5
401
  8
0
 10
329.75193380046011
 20
713.77391901607336
 30
0.0
  0
VERTEX
  5
402
  8
0
 10
316.98172466426018
 20
721.09017138007334
 30
0.0
  0
VERTEX
  5
403
  8
0
 10
304.56074034526
 20
728.9598441251735
 30
0.0
  0
VERTEX
  5
404
  8
0
 10
292.46486852286012
 20
737.39999430297337
 30
0.0
  0
VERTEX
  5
405
  8
0
 10
280.7182215175601
 20
746.39356486177326
 30
0.0
  0
VERTEX
  5
406
  8
0
 10
269.39313629156021
 20
755.88938464667342
 30
0.0
  0
VERTEX
  5
407
  8
0
 10
258.49221057696008
 20
765.89053829177328
 30
0.0
  0
VERTEX
  5
408
  8
0
 10
248.01284664156009
 20
776.39394116297342
 30
0.0
  0
VERTEX
  5
409
  8
0
 10
238.0195882508601
 20
787.33916820307343
 30
0.0
  0
VERTEX
  5
40A
  8
0
 10
228.53394999326019
 20
798.70607772617325
 30
0.0
  0
VERTEX
  5
40B
  8
0
 10
219.5344172803602
 20
810.51481141817339
 30
0.0
  0
VERTEX
  5
40C
  8
0
 10
211.02099011206019
 20
822.76536927887344
 30
0.0
  0
SEQEND
  5
40D
  8
0
  0
LINE
  5
235
  8
0
 10
239.43196894840051
 20
379.01610345517338
 30
0.0
 11
1197.0538361595
 21
379.01610345517332
 31
0.0
  0
LINE
  5
236
  8
0
 10
1685.5000996894
 20
379.01610345517332
 30
0.0
 11
2577.1219669005009
 21
379.01610345517321
 31
0.0
  0
LINE
  5
237
  8
0
 10
1685.4984107894161
 20
93.691825645202144
 30
0.0
 11
1685.5000996894159
 21
379.0161034551021
 31
0.0
  0
LINE
  5
238
  8
0
 10
1635.4319689484009
 20
469.34860480257322
 30
0.0
 11
1635.4302550647999
 21
324.57609343427322
 31
0.0
  0
LINE
  5
239
  8
0
 10
1256.2469832515001
 20
469.34411583617322
 30
0.0
 11
1635.4319689484009
 21
469.34860480257322
 31
0.0
  0
LINE
  5
23A
  8
0
 10
1331.2769679245
 20
505.34411583617322
 30
0.0
 11
1551.2769679245
 21
505.34411583617322
 31
0.0
  0
LINE
  5
23B
  8
0
 10
2477.995879188501
 20
575.4637550036731
 30
0.0
 11
239.43196894900049
 21
575.46260401007339
 31
0.0
  0
POLYLINE
  5
23E
  8
0
 66
     1
 10
0.0
 20
0.0
 30
0.0
  0
VERTEX
  5
40E
  8
0
 10
2432.3052958339608
 20
822.76536927887332
 30
0.0
  0
VERTEX
  5
40F
  8
0
 10
2434.2334228469599
 20
822.87850660397316
 30
0.0
  0
VERTEX
  5
410
  8
0
 10
2436.1645563811599
 20
823.25895210677322
 30
0.0
  0
VERTEX
  5
411
  8
0
 10
2438.0986964366598
 20
823.90670578737343
 30
0.0
  0
VERTEX
  5
412
  8
0
 10
2440.0684702987601
 20
824.8196031885733
 30
0.0
  0
VERTEX
  5
413
  8
0
 10
2442.0412506819598
 20
825.99980876747316
 30
0.0
  0
SEQEND
  5
414
  8
0
  0
LINE
  5
23F
  8
0
 10
2406.0408676834609
 20
705.94395606077319
 30
0.0
 11
2287.6092129756598
 21
705.69875215737329
 31
0.0
  0
LINE
  5
240
  8
0
 10
2582.0105286065
 20
752.4098579030732
 30
0.0
 11
2480.0328992418008
 21
752.4098579030732
 31
0.0
  0
LINE
  5
241
  8
0
 10
190.98155125406009
 20
766.00738131437345
 30
0.0
 11
89.699181681660079
 21
766.00738131437345
 31
0.0
  0
LINE
  5
242
  8
0
 10
463.84506108305999
 20
705.69774983417335
 30
0.0
 11
347.47709494416023
 21
705.94395606077342
 31
0.0
  0
LINE
  5
243
  8
0
 10
1143.4011172777
 20
112.5831242764733
 30
0.0
 11
1236.9560528351001
 21
454.61926532647323
 31
0.0
  0
POLYLINE
  5
244
  8
0
 66
     1
 10
0.0
 20
0.0
 30
0.0
  0
VERTEX
  5
415
  8
0
 10
1236.9560528351001
 20
454.61926532647323
 30
0.0
  0
VERTEX
  5
416
  8
0
 10
1237.3940243470011
 20
456.0131106349732
 30
0.0
  0
VERTEX
  5
417
  8
0
 10
1237.9245077764999
 20
457.35829949437323
 30
0.0
  0
VERTEX
  5
418
  8
0
 10
1238.5475031235001
 20
458.6548319046733
 30
0.0
  0
VERTEX
  5
419
  8
0
 10
1239.2672415526999
 20
459.90898770967328
 30
0.0
  0
VERTEX
  5
41A
  8
0
 10
1240.0794918994011
 20
461.1144870655732
 30
0.0
  0
VERTEX
  5
41B
  8
0
 10
1240.9715606700011
 20
462.25249044077327
 30
0.0
  0
VERTEX
  5
41C
  8
0
 10
1241.9446926078999
 20
463.32192220287322
 30
0.0
  0
VERTEX
  5
41D
  8
0
 10
1242.9976429698011
 20
464.32385798427322
 30
0.0
  0
VERTEX
  5
41E
  8
0
 10
1244.1139840319011
 20
465.2426851510732
 30
0.0
  0
VERTEX
  5
41F
  8
0
 10
1245.2947063385011
 20
466.07710112327322
 30
0.0
  0
VERTEX
  5
420
  8
0
 10
1246.538819345401
 20
466.82840848077331
 30
0.0
  0
VERTEX
  5
421
  8
0
 10
1247.8269236965009
 20
467.48490233067321
 30
0.0
  0
VERTEX
  5
422
  8
0
 10
1249.1597227941011
 20
468.04509793597327
 30
0.0
  0
VERTEX
  5
423
  8
0
 10
1250.5365132359
 20
468.51048003367322
 30
0.0
  0
VERTEX
  5
424
  8
0
 10
1251.9357854589
 20
468.87379794077322
 30
0.0
  0
VERTEX
  5
425
  8
0
 10
1253.3503696086011
 20
469.13263476307333
 30
0.0
  0
VERTEX
  5
426
  8
0
 10
1254.7874355395011
 20
469.28940739487319
 30
0.0
  0
VERTEX
  5
427
  8
0
 10
1256.2469832515001
 20
469.34411583617322
 30
0.0
  0
SEQEND
  5
428
  8
0
  0
LINE
  5
245
  8
0
 10
211.02099011206019
 20
822.76536927887344
 30
0.0
 11
2432.3052958339608
 21
822.76536927887332
 31
0.0
  0
LINE
  5
247
  8
0
 10
1109.928913284301
 20
379.01095078337329
 30
0.0
 11
1109.9272243843
 21
93.686672973473264
 31
0.0
  0
POLYLINE
  5
248
  8
0
 66
     1
 10
0.0
 20
0.0
 30
0.0
  0
VERTEX
  5
429
  8
0
 10
211.02099011216021
 20
822.76536927887344
 30
0.0
  0
VERTEX
  5
42A
  8
0
 10
209.09286309916021
 20
822.65223195387341
 30
0.0
  0
VERTEX
  5
42B
  8
0
 10
207.16172956486
 20
822.2717864509732
 30
0.0
  0
VERTEX
  5
42C
  8
0
 10
205.22758950936009
 20
821.62403277037333
 30
0.0
  0
VERTEX
  5
42D
  8
0
 10
203.2578156473601
 20
820.71113536927339
 30
0.0
  0
VERTEX
  5
42E
  8
0
 10
201.28503526406001
 20
819.53092979027326
 30
0.0
  0
SEQEND
  5
42F
  8
0
  0
LINE
  5
249
  8
0
 10
2452.3447346920598
 20
879.52335724347324
 30
0.0
 11
2553.6271042643598
 21
879.52335724347324
 31
0.0
  0
LINE
  5
24A
  8
0
 10
61.317049310703943
 20
893.12202118167318
 30
0.0
 11
163.294678675304
 21
893.12202118167318
 31
0.0
  0
LINE
  5
24B
  8
0
 10
237.28541826266019
 20
939.58678249697323
 30
0.0
 11
355.71707297035999
 21
939.83198640037335
 31
0.0
  0
LINE
  5
24C
  8
0
 10
2179.4812248630601
 20
939.83298872357341
 30
0.0
 11
2295.8491910019602
 21
939.58678249697323
 31
0.0
  0
LINE
  5
24E
  8
0
 10
165.33169863371009
 20
1070.068134547673
 30
0.0
 11
2403.895608968704
 21
1070.068134547673
 31
0.0
  0
LINE
  5
250
  8
0
 10
1312.050609992704
 20
1140.187763248573
 30
0.0
 11
1092.0506099927029
 21
1140.187763248573
 31
0.0
  0
LINE
  5
251
  8
0
 10
2403.895608968704
 20
1266.515775629673
 30
0.0
 11
1446.2737417576041
 21
1266.515775629673
 31
0.0
  0
LINE
  5
252
  8
0
 10
957.82747822770375
 20
1266.515775629673
 30
0.0
 11
66.205611016703713
 21
1266.515775629673
 31
0.0
  0
POLYLINE
  5
253
  8
0
 66
     1
 10
0.0
 20
0.0
 30
0.0
  0
VERTEX
  5
430
  8
0
 10
2300.4549181922598
 20
938.51965152477328
 30
0.0
  0
VERTEX
  5
431
  8
0
 10
2313.5743521456611
 20
931.75681954177332
 30
0.0
  0
VERTEX
  5
432
  8
0
 10
2326.34456128176
 20
924.44056717767319
 30
0.0
  0
VERTEX
  5
433
  8
0
 10
2338.7655456007601
 20
916.57089443257337
 30
0.0
  0
VERTEX
  5
434
  8
0
 10
2350.8614174232598
 20
908.13074425487343
 30
0.0
  0
VERTEX
  5
435
  8
0
 10
2362.6080644285598
 20
899.13717369607355
 30
0.0
  0
VERTEX
  5
436
  8
0
 10
2373.9331496545601
 20
889.64135391107334
 30
0.0
  0
VERTEX
  5
437
  8
0
 10
2384.8340753691609
 20
879.64020026597302
 30
0.0
  0
VERTEX
  5
438
  8
0
 10
2395.3134393045598
 20
869.13679739477323
 30
0.0
  0
VERTEX
  5
439
  8
0
 10
2405.30669769526
 20
858.19157035467344
 30
0.0
  0
VERTEX
  5
43A
  8
0
 10
2414.7923359527599
 20
846.82466083157317
 30
0.0
  0
VERTEX
  5
43B
  8
0
 10
2423.7918686657599
 20
835.01592713967318
 30
0.0
  0
VERTEX
  5
43C
  8
0
 10
2432.3052958339608
 20
822.76536927887332
 30
0.0
  0
SEQEND
  5
43D
  8
0
  0
POLYLINE
  5
255
  8
0
 66
     1
 10
0.0
 20
0.0
 30
0.0
  0
VERTEX
  5
43E
  8
0
 10
201.28503526406001
 20
819.53092979027326
 30
0.0
  0
VERTEX
  5
43F
  8
0
 10
199.40713021546
 20
818.07692266187337
 30
0.0
  0
VERTEX
  5
440
  8
0
 10
197.61241230956011
 20
816.3275384885734
 30
0.0
  0
VERTEX
  5
441
  8
0
 10
195.91256973826009
 20
814.30435276587343
 30
0.0
  0
VERTEX
  5
442
  8
0
 10
194.44054893315999
 20
812.06559860837342
 30
0.0
  0
VERTEX
  5
443
  8
0
 10
193.22870281666019
 20
809.62062904767345
 30
0.0
  0
VERTEX
  5
444
  8
0
 10
192.24467846626021
 20
806.96009105217331
 30
0.0
  0
VERTEX
  5
445
  8
0
 10
191.52436354586001
 20
804.11415864217349
 30
0.0
  0
VERTEX
  5
446
  8
0
 10
191.07972061016011
 20
801.09288982427336
 30
0.0
  0
VERTEX
  5
447
  8
0
 10
190.89878710456011
 20
797.88622659177338
 30
0.0
  0
VERTEX
  5
448
  8
0
 10
190.98156302896021
 20
794.49416894467345
 30
0.0
  0
SEQEND
  5
449
  8
0
  0
LINE
  5
256
  8
0
 10
475.11885286836008
 20
575.46260401007339
 30
0.0
 11
463.84506108305999
 21
705.69774983417335
 31
0.0
  0
POLYLINE
  5
257
  8
0
 66
     1
 10
0.0
 20
0.0
 30
0.0
  0
VERTEX
  5
44A
  8
0
 10
164.5557076893601
 20
894.23523311257316
 30
0.0
  0
VERTEX
  5
44B
  8
0
 10
177.32871576106021
 20
904.4440113940733
 30
0.0
  0
VERTEX
  5
44C
  8
0
 10
190.53719771095999
 20
913.98392933627326
 30
0.0
  0
VERTEX
  5
44D
  8
0
 10
204.14922161976011
 20
922.83136373837328
 30
0.0
  0
VERTEX
  5
44E
  8
0
 10
218.19671940686001
 20
931.00993780127328
 30
0.0
  0
VERTEX
  5
44F
  8
0
 10
232.67969107226011
 20
938.51965152477328
 30
0.0
  0
SEQEND
  5
450
  8
0
  0
LINE
  5
258
  8
0
 10
355.71707297035999
 20
939.83198640037335
 30
0.0
 11
366.09994311106021
 21
1070.068134547673
 31
0.0
  0
LINE
  5
259
  8
0
 10
239.43028004840059
 20
93.691825645273298
 30
0.0
 11
239.43196894840051
 21
379.01610345517338
 31
0.0
  0
LINE
  5
25A
  8
0
 10
239.43196894840051
 20
379.01610345517338
 30
0.0
 11
239.43196894840051
 21
575.46374453707335
 31
0.0
  0
POLYLINE
  5
25B
  8
0
 66
     1
 10
0.0
 20
0.0
 30
0.0
  0
VERTEX
  5
451
  8
0
 10
90.966051992560097
 20
806.92885916607338
 30
0.0
  0
VERTEX
  5
452
  8
0
 10
99.653014260460182
 20
820.96347142427328
 30
0.0
  0
VERTEX
  5
453
  8
0
 10
108.9550527720601
 20
834.48421244117321
 30
0.0
  0
VERTEX
  5
454
  8
0
 10
118.8721675271601
 20
847.49108221647316
 30
0.0
  0
VERTEX
  5
455
  8
0
 10
129.43229406156021
 20
860.01212058227338
 30
0.0
  0
VERTEX
  5
456
  8
0
 10
140.60749683966009
 20
872.01928770667337
 30
0.0
  0
VERTEX
  5
457
  8
0
 10
152.3139692542602
 20
883.4284640937733
 30
0.0
  0
VERTEX
  5
458
  8
0
 10
164.5557076893601
 20
894.23523311257316
 30
0.0
  0
SEQEND
  5
459
  8
0
  0
LINE
  5
25C
  8
0
 10
165.69118289950379
 20
1030.417656275873
 30
0.0
 11
165.33169863371009
 21
1070.068134547673
 31
0.0
  0
LINE
  5
25D
  8
0
 10
190.98156302896021
 20
794.49416894467345
 30
0.0
 11
190.98155125406009
 21
766.00738131437345
 31
0.0
  0
LINE
  5
25E
  8
0
 10
163.294678675304
 20
893.12202118167318
 30
0.0
 11
165.69118289950379
 21
1030.417656275873
 31
0.0
  0
LINE
  5
25F
  8
0
 10
89.699181681660079
 20
766.00738131437345
 30
0.0
 11
89.699181681660079
 21
802.12716631107344
 31
0.0
  0
LINE
  5
260
  8
0
 10
66.205611016703713
 20
1266.515775629673
 30
0.0
 11
61.317049310703943
 21
893.12202118167318
 31
0.0
  0
ARC
  5
262
  8
0
 10
1551.2769679245
 20
370.87427350837322
 30
0.0
 40
134.4698423278
 50
3.471246672997192
 51
90.0
  0
ARC
  5
263
  8
0
 10
1331.2769679245
 20
370.87427350837322
 30
0.0
 40
134.4698423278
 50
90.0
 51
176.52875332700279
  0
ARC
  5
264
  8
0
 10
1092.050609992704
 20
1274.6576055764731
 30
0.0
 40
134.4698423278
 50
183.47124667299721
 51
270.0
  0
ARC
  5
265
  8
0
 10
1312.050609992704
 20
1274.6576055764731
 30
0.0
 40
134.4698423278
 50
270.0
 51
356.52875332700268
  0
LINE
  5
2D1
  8
0
 10
2300.4549181922598
 20
938.51965152477328
 30
0.0
 11
2295.8491910019602
 21
939.58678249697323
 31
0.0
  0
LINE
  5
2D2
  8
0
 10
2406.0408676834609
 20
705.94395606077319
 30
0.0
 11
2410.64659487376
 21
707.0110870330733
 31
0.0
  0
LINE
  5
2D3
  8
0
 10
237.28541826266019
 20
939.58678249697323
 30
0.0
 11
232.67969107226011
 21
938.51965152477328
 31
0.0
  0
LINE
  5
2D4
  8
0
 10
89.699181681660079
 20
802.12716631107344
 30
0.0
 11
90.966051992560097
 21
806.92885916607338
 31
0.0
  0
LINE
  5
2D5
  8
0
 10
342.87136775386011
 20
707.01108703307341
 30
0.0
 11
347.47709494416023
 21
705.94395606077342
 31
0.0
  0
LINE
  5
2D6
  8
0
 10
2552.3602339535601
 20
838.60187939167326
 30
0.0
 11
2553.6271042643598
 21
843.40357224677314
 31
0.0
  0
ENDSEC
  0
EOF
