  0
SECTION
  2
HEADER
  9
$ACADVER
  1
AC1009
  9
$INSBASE
 10
0.0
 20
0.0
 30
0.0
  9
$EXTMIN
 10
-0.0000000015980959
 20
0.0
 30
0.0
  9
$EXTMAX
 10
2559.2781036858778
 20
1279.7997288213339
 30
0.0
  9
$LIMMIN
 10
0.0
 20
0.0
  9
$LIMMAX
 10
3000.0
 20
2000.0
  9
$ORTHOMODE
 70
     0
  9
$REGENMODE
 70
     1
  9
$FILLMODE
 70
     1
  9
$QTEXTMODE
 70
     0
  9
$MIRRTEXT
 70
     0
  9
$DRAGMODE
 70
     2
  9
$LTSCALE
 40
165.0
  9
$OSMODE
 70
    37
  9
$ATTMODE
 70
     1
  9
$TEXTSIZE
 40
0.2
  9
$TRACEWID
 40
0.05
  9
$TEXTSTYLE
  7
STANDARD
  9
$CLAYER
  8
0
  9
$CELTYPE
  6
BYLAYER
  9
$CECOLOR
 62
   256
  9
$DIMSCALE
 40
1.0
  9
$DIMASZ
 40
3.5
  9
$DIMEXO
 40
1.0
  9
$DIMDLI
 40
114.0
  9
$DIMRND
 40
0.0
  9
$DIMDLE
 40
0.0
  9
$DIMEXE
 40
1.5
  9
$DIMTP
 40
0.01
  9
$DIMTM
 40
0.01
  9
$DIMTXT
 40
3.5
  9
$DIMCEN
 40
27.0
  9
$DIMTSZ
 40
0.0
  9
$DIMTOL
 70
     1
  9
$DIMLIM
 70
     0
  9
$DIMTIH
 70
     1
  9
$DIMTOH
 70
     1
  9
$DIMSE1
 70
     0
  9
$DIMSE2
 70
     0
  9
$DIMTAD
 70
     0
  9
$DIMZIN
 70
     0
  9
$DIMBLK
  1

  9
$DIMASO
 70
     1
  9
$DIMSHO
 70
     1
  9
$DIMPOST
  1

  9
$DIMAPOST
  1

  9
$DIMALT
 70
     0
  9
$DIMALTD
 70
     2
  9
$DIMALTF
 40
25.399999999999999
  9
$DIMLFAC
 40
1.0
  9
$DIMTOFL
 70
     0
  9
$DIMTVP
 40
0.0
  9
$DIMTIX
 70
     0
  9
$DIMSOXD
 70
     0
  9
$DIMSAH
 70
     0
  9
$DIMBLK1
  1

  9
$DIMBLK2
  1

  9
$DIMSTYLE
  2
STANDARD
  9
$DIMCLRD
 70
     0
  9
$DIMCLRE
 70
     0
  9
$DIMCLRT
 70
     0
  9
$DIMTFAC
 40
1.0
  9
$DIMGAP
 40
0.625
  9
$LUNITS
 70
     2
  9
$LUPREC
 70
     4
  9
$SKETCHINC
 40
0.1
  9
$FILLETRAD
 40
0.0
  9
$AUNITS
 70
     0
  9
$AUPREC
 70
     0
  9
$MENU
  1
.
  9
$ELEVATION
 40
0.0
  9
$PELEVATION
 40
0.0
  9
$THICKNESS
 40
0.0
  9
$LIMCHECK
 70
     0
  9
$BLIPMODE
 70
     0
  9
$CHAMFERA
 40
0.0
  9
$CHAMFERB
 40
0.0
  9
$SKPOLY
 70
     0
  9
$TDCREATE
 40
2456505.5902364352
  9
$TDUPDATE
 40
2456506.6996134948
  9
$TDINDWG
 40
0.3140092708
  9
$TDUSRTIMER
 40
0.3140092708
  9
$USRTIMER
 70
     1
  9
$ANGBASE
 50
0.0
  9
$ANGDIR
 70
     0
  9
$PDMODE
 70
     3
  9
$PDSIZE
 40
8.0
  9
$PLINEWID
 40
0.0
  9
$COORDS
 70
     1
  9
$SPLFRAME
 70
     0
  9
$SPLINETYPE
 70
     6
  9
$SPLINESEGS
 70
     8
  9
$ATTDIA
 70
     0
  9
$ATTREQ
 70
     1
  9
$HANDLING
 70
     1
  9
$HANDSEED
  5
475
  9
$SURFTAB1
 70
     6
  9
$SURFTAB2
 70
     6
  9
$SURFTYPE
 70
     6
  9
$SURFU
 70
     6
  9
$SURFV
 70
     6
  9
$UCSNAME
  2

  9
$UCSORG
 10
0.0
 20
0.0
 30
0.0
  9
$UCSXDIR
 10
1.0
 20
0.0
 30
0.0
  9
$UCSYDIR
 10
0.0
 20
1.0
 30
0.0
  9
$PUCSNAME
  2

  9
$PUCSORG
 10
0.0
 20
0.0
 30
0.0
  9
$PUCSXDIR
 10
1.0
 20
0.0
 30
0.0
  9
$PUCSYDIR
 10
0.0
 20
1.0
 30
0.0
  9
$USERI1
 70
     0
  9
$USERI2
 70
     0
  9
$USERI3
 70
     0
  9
$USERI4
 70
     0
  9
$USERI5
 70
     0
  9
$USERR1
 40
0.0
  9
$USERR2
 40
0.0
  9
$USERR3
 40
0.0
  9
$USERR4
 40
0.0
  9
$USERR5
 40
0.0
  9
$WORLDVIEW
 70
     1
  9
$SHADEDGE
 70
     3
  9
$SHADEDIF
 70
    70
  9
$TILEMODE
 70
     1
  9
$MAXACTVP
 70
    64
  9
$PLIMCHECK
 70
     0
  9
$PEXTMIN
 10
1.0000000000000000E+020
 20
1.0000000000000000E+020
 30
1.0000000000000000E+020
  9
$PEXTMAX
 10
-1.0000000000000000E+020
 20
-1.0000000000000000E+020
 30
-1.0000000000000000E+020
  9
$PLIMMIN
 10
0.0
 20
0.0
  9
$PLIMMAX
 10
12.0
 20
9.0
  9
$UNITMODE
 70
     0
  9
$VISRETAIN
 70
     1
  9
$PLINEGEN
 70
     0
  9
$PSLTSCALE
 70
     1
  0
ENDSEC
  0
SECTION
  2
TABLES
  0
TABLE
  2
VPORT
 70
     1
  0
VPORT
  2
*ACTIVE
 70
     0
 10
0.0
 20
0.0
 11
1.0
 21
1.0
 12
2264.0167405034158
 22
419.6183240828488
 13
0.0
 23
0.0
 14
1.0
 24
1.0
 15
0.0
 25
0.0
 16
0.0
 26
0.0
 36
1.0
 17
0.0
 27
0.0
 37
0.0
 40
4792.9546586909037
 41
1.70954356846473
 42
50.0
 43
0.0
 44
0.0
 50
0.0
 51
0.0
 71
     0
 72
   100
 73
     1
 74
     1
 75
     0
 76
     0
 77
     0
 78
     0
  0
ENDTAB
  0
TABLE
  2
LTYPE
 70
     7
  0
LTYPE
  2
CONTINUOUS
 70
     0
  3
Solid line
 72
    65
 73
     0
 40
0.0
  0
LTYPE
  2
CENTER
 70
     0
  3
____ _ ____ _ ____ _ ____ _ ____ _ ____ _ ____
 72
    65
 73
     4
 40
0.6
 49
0.375
 49
-0.075
 49
0.075
 49
-0.075
  0
LTYPE
  2
HIDDEN
 70
     0
  3
- - - - - - - - - - - - - - - - - - - -
 72
    65
 73
     2
 40
0.2
 49
0.1
 49
-0.1
  0
LTYPE
  2
PHANTOM
 70
     0
  3
_____ _ _ _____ _ _ _____ _ _ _____
 72
    65
 73
     6
 40
0.8
 49
0.45
 49
-0.05
 49
0.1
 49
-0.05
 49
0.1
 49
-0.05
  0
LTYPE
  2
DOT
 70
     0
  3
. . . . . . . . . . . . . . . . . . . .
 72
    65
 73
     2
 40
0.2
 49
0.1
 49
-0.1
  0
LTYPE
  2
DASHED
 70
     0
  3
- - - - - - - - - - - - - - - - - - - -
 72
    65
 73
     2
 40
0.2
 49
0.1
 49
-0.1
  0
ENDTAB
  0
TABLE
  2
LAYER
 70
     2
  0
LAYER
  2
0
 70
     0
 62
     7
  6
CONTINUOUS
  0
LAYER
  2
DEFPOINTS
 70
     0
 62
     7
  6
CONTINUOUS
  0
ENDTAB
  0
TABLE
  2
STYLE
 70
     2
  0
STYLE
  2
STANDARD
 70
     0
 40
0.0
 41
0.85
 50
0.0
 71
     0
 42
0.2
  3
txt
  4

  0
STYLE
  2
TEXTSTYLE_1
 70
     0
 40
0.0
 41
0.8
 50
0.0
 71
     0
 42
0.2
  3
gdt
  4

  0
ENDTAB
  0
TABLE
  2
VIEW
 70
     5
  0
ENDTAB
  0
TABLE
  2
UCS
 70
     0
  0
ENDTAB
  0
TABLE
  2
APPID
 70
     4
  0
APPID
  2
ACAD
 70
     0
  0
APPID
  2
ACAD_NAV_VCDISPLAY
 70
     0
  0
APPID
  2
ACAD_EXEMPT_FROM_CAD_STANDARDS
 70
     0
  0
APPID
  2
ACAD_MLEADERVER
 70
     0
  0
ENDTAB
  0
TABLE
  2
DIMSTYLE
 70
     2
  0
DIMSTYLE
  2
STANDARD
 70
     0
  3

  4

  5

  6

  7

 40
1.0
 41
3.5
 42
1.0
 43
0.38
 44
1.5
 45
0.0
 46
0.0
 47
0.01
 48
0.01
140
3.5
141
0.09
142
0.0
143
25.399999999999999
144
1.0
145
0.0
146
1.0
147
0.625
 71
     1
 72
     0
 73
     0
 74
     0
 75
     0
 76
     0
 77
     1
 78
     8
170
     0
171
     2
172
     0
173
     0
174
     0
175
     0
176
     0
177
     0
178
     0
  0
ENDTAB
  0
ENDSEC
  0
SECTION
  2
BLOCKS
  0
BLOCK
  8
0
  2
$MODEL_SPACE
 70
     0
 10
0.0
 20
0.0
 30
0.0
  3
$MODEL_SPACE
  1

  0
ENDBLK
  5
21
  8
0
  0
BLOCK
 67
     1
  8
0
  2
$PAPER_SPACE
 70
     0
 10
0.0
 20
0.0
 30
0.0
  3
$PAPER_SPACE
  1

  0
ENDBLK
  5
1D
 67
     1
  8
0
  0
BLOCK
  8
0
  2
*D1
 70
     1
 10
0.0
 20
0.0
 30
0.0
  3
*D1
  1

  0
LINE
  5
40B
  8
0
 62
     0
 10
1222.3136501257361
 20
461.81504472217642
 30
0.0
 11
1222.3136501257361
 21
462.68000830985062
 31
0.0
  0
LINE
  5
40C
  8
0
 62
     0
 10
1222.135231164483
 20
461.81504472217642
 30
0.0
 11
1222.135231164483
 21
462.68000830985062
 31
0.0
  0
LINE
  5
40D
  8
0
 62
     0
 10
1225.8136501257361
 20
461.18000830985051
 30
0.0
 11
1229.3136501257361
 21
461.18000830985051
 31
0.0
  0
LINE
  5
40E
  8
0
 62
     0
 10
1218.635231164483
 20
461.18000830985051
 30
0.0
 11
1215.135231164483
 21
461.18000830985051
 31
0.0
  0
SOLID
  5
40F
  8
0
 62
     0
 10
1225.8136501257361
 20
461.76334164318382
 30
0.0
 11
1225.8136501257361
 21
460.59667497651719
 31
0.0
 12
1222.3136501257361
 22
461.18000830985051
 32
0.0
 13
1222.3136501257361
 23
461.18000830985051
 33
0.0
  0
SOLID
  5
410
  8
0
 62
     0
 10
1218.635231164483
 20
461.76334164318382
 30
0.0
 11
1218.635231164483
 21
460.59667497651719
 31
0.0
 12
1222.135231164483
 22
461.18000830985051
 32
0.0
 13
1222.135231164483
 23
461.18000830985051
 33
0.0
  0
INSERT
  5
411
  8
0
  2
*U2
 10
0.0
 20
0.0
 30
0.0
  0
POINT
  5
412
  8
DEFPOINTS
 62
     0
 10
1222.3136501257361
 20
460.81504472217642
 30
0.0
  0
POINT
  5
413
  8
DEFPOINTS
 62
     0
 10
1222.135231164483
 20
460.81504472217642
 30
0.0
  0
POINT
  5
414
  8
DEFPOINTS
 62
     0
 10
1222.135231164483
 20
461.18000830985051
 30
0.0
  0
ENDBLK
  5
3FF
  8
0
  0
BLOCK
  8
0
  2
*U2
 70
     1
 10
0.0
 20
0.0
 30
0.0
  3
*U2
  1

  0
TEXT
  5
472
  8
0
 62
     0
 10
1184.2643978311501
 20
459.72167497651731
 30
0.0
 40
3.5
  1
0,1784±0,0100
 41
0.85
  0
ENDBLK
  5
474
  8
0
  0
ENDSEC
  0
SECTION
  2
ENTITIES
  0
LINE
  5
225
  8
0
 10
0.0
 20
0.0
 30
0.0
 11
-0.000000000698094
 21
367.16242412759999
 31
0.0
  0
LINE
  5
226
  8
0
 10
-0.0000000006020403
 20
397.16242412759999
 30
0.0
 11
-0.0000000015980959
 21
1279.7997288202339
 31
0.0
  0
LINE
  5
229
  8
0
 10
611.06761559616643
 20
397.1624241283406
 30
0.0
 11
611.06761559520419
 21
1249.799728804418
 31
0.0
  0
LINE
  5
22F
  8
0
 10
2444.0611929593802
 20
307.18169631443379
 30
0.0
 11
2545.2907867110798
 21
307.18169631073368
 31
0.0
  0
LINE
  5
239
  8
0
 10
2227.5605242295019
 20
367.16242413029988
 30
0.0
 11
-0.000000000698094
 21
367.16242412759999
 31
0.0
  0
LINE
  5
23E
  8
0
 10
1252.1352311644221
 20
431.66242410713221
 30
0.0
 11
1803.202846761294
 21
431.66242410673499
 31
0.0
  0
LINE
  5
23F
  8
0
 10
1863.202846761257
 20
431.66242410132958
 30
0.0
 11
2414.0611929648799
 21
431.66242410023779
 31
0.0
  0
LINE
  5
246
  8
0
 10
1222.1352311918999
 20
1249.799728804541
 30
0.0
 11
1222.1352311622711
 21
397.161100808448
 31
0.0
  0
LINE
  5
24C
  8
0
 10
2426.5484981803152
 20
793.49071253633383
 30
0.0
 11
2559.2781036858778
 21
793.49071253253373
 31
0.0
  0
LINE
  5
262
  8
0
 10
1833.2028467613161
 20
461.66242410565189
 30
0.0
 11
1833.2028467897701
 21
1249.7997287814519
 31
0.0
  0
LINE
  5
26D
  8
0
 10
2545.2907867466802
 20
1279.799728754534
 30
0.0
 11
2444.06119299488
 21
1279.7997287582341
 31
0.0
  0
LINE
  5
26F
  8
0
 10
1803.202846789801
 20
1279.799728782536
 30
0.0
 11
1222.1352311929429
 21
1279.799728783134
 31
0.0
  0
LINE
  5
270
  8
0
 10
-0.0000000015980959
 20
1279.7997288202339
 30
0.0
 11
581.06761559602251
 21
1279.7997288043839
 31
0.0
  0
LINE
  5
271
  8
0
 10
611.0676155951702
 20
1279.7997288213339
 30
0.0
 11
1192.1352311927139
 21
1279.799728805584
 31
0.0
  0
LINE
  5
274
  8
0
 10
2227.5605242295019
 20
367.16242413029988
 30
0.0
 11
2227.5605242302008
 21
0.0000000028000784
 31
0.0
  0
LINE
  5
276
  8
0
 10
2551.6534620561802
 20
325.73962183293389
 30
0.0
 11
2549.5864960674812
 21
323.4544640224338
 31
0.0
  0
LINE
  5
280
  8
0
 10
2545.2659169111798
 20
311.82533214653381
 30
0.0
 11
2545.2907867110798
 21
307.18169631073368
 31
0.0
  0
LINE
  5
282
  8
0
 10
2549.148339673181
 20
793.49071253253373
 30
0.0
 11
2551.6534620561802
 21
325.73962183293389
 31
0.0
  0
LINE
  5
284
  8
0
 10
2545.26591694638
 20
1275.156092918834
 30
0.0
 11
2545.2907867466802
 21
1279.799728754534
 31
0.0
  0
LINE
  5
286
  8
0
 10
2549.14833967308
 20
793.49071253253373
 30
0.0
 11
2551.6534620903808
 21
1261.241803231834
 31
0.0
  0
LINE
  5
288
  8
0
 10
2551.6534620903808
 20
1261.241803231834
 30
0.0
 11
2549.5864961018801
 21
1263.5269610425339
 31
0.0
  0
CIRCLE
  5
2FD
  8
0
 10
448.9038226163018
 20
915.66242412863369
 30
0.0
 40
15.0
  0
CIRCLE
  5
300
  8
0
 10
1064.749989043202
 20
915.66242412973384
 30
0.0
 40
15.0
  0
CIRCLE
  5
302
  8
0
 10
1681.0146943023931
 20
981.6624241076338
 30
0.0
 40
15.0
  0
CIRCLE
  5
304
  8
0
 10
2292.0823099186432
 20
981.6989146552836
 30
0.0
 40
15.0
  0
CIRCLE
  5
306
  8
0
 10
1167.149938803602
 20
224.00000000150001
 30
0.0
 40
15.0
  0
LINE
  5
366
  8
0
 10
2227.5605242302008
 20
0.0000000027999931
 30
0.0
 11
0.0
 21
0.0
 31
0.0
  0
LINE
  5
397
  8
0
 10
2414.0611929915021
 20
1279.7997288213339
 30
0.0
 11
1833.202846790854
 21
1279.799728777434
 31
0.0
  0
ARC
  5
3A1
  8
0
 10
581.06761559616632
 20
397.16242412830422
 30
0.0
 40
30.0
 50
270.00000000006918
 51
0.0000000000695888
  0
ARC
  5
3A2
  8
0
 10
641.36986209936219
 20
397.8921117355751
 30
0.0
 40
30.731173966912731
 50
183.35256053690341
 51
269.4364768419664
  0
ARC
  5
3A3
  8
0
 10
29.999999999397922
 20
397.16242412763881
 30
0.0
 40
30.0
 50
180.00000000006929
 51
270.00000000007162
  0
ARC
  5
3A4
  8
0
 10
1192.1352311914579
 20
397.16242412904251
 30
0.0
 40
30.0
 50
270.00000000007162
 51
0.0000000000695888
  0
ARC
  5
3AF
  8
0
 10
1252.0245094325339
 20
461.3784179632213
 30
0.0
 40
29.716200129846019
 50
181.08630453438511
 51
270.2134829686126
  0
ARC
  5
3B2
  8
0
 10
1863.2018547997579
 20
461.6614321397721
 30
0.0
 40
29.99900805484301
 50
181.91001092360031
 51
270.00189456955297
  0
ARC
  5
3B3
  8
0
 10
1803.2028467613161
 20
461.66242410673499
 30
0.0
 40
30.0
 50
269.99999999995867
 51
359.9999999979313
  0
ARC
  5
3B4
  8
0
 10
2414.061192964939
 20
461.66242410023779
 30
0.0
 40
30.0
 50
269.99999999988643
 51
359.99999999793818
  0
LINE
  5
3B5
  8
0
 10
2444.0611929593802
 20
307.18169631443379
 30
0.0
 11
2444.0611929593802
 21
466.87911391331988
 31
0.0
  0
ARC
  5
3B6
  8
0
 10
2414.06119299377
 20
1249.7997288213339
 30
0.0
 40
30.0
 50
359.99999999787929
 51
90.000000004330332
  0
LINE
  5
3B7
  8
0
 10
2444.06119299488
 20
1279.7997287582341
 30
0.0
 11
2444.06119299377
 21
1236.169651235482
 31
0.0
  0
ARC
  5
3B8
  8
0
 10
1803.202846789771
 20
1249.799728782536
 30
0.0
 40
30.0
 50
359.9999999979313
 51
89.999999999941039
  0
LINE
  5
3B9
  8
0
 10
1833.202846790854
 20
1279.799728777434
 30
0.0
 11
1833.202846789771
 21
1231.3519508584141
 31
0.0
  0
ARC
  5
3BA
  8
0
 10
1192.1352311918999
 20
1249.799728805584
 30
0.0
 40
30.0
 50
359.99999999800889
 51
89.999999998447024
  0
LINE
  5
3BB
  8
0
 10
1222.1352311929429
 20
1279.799728783134
 30
0.0
 11
1222.1352311918999
 21
1234.7721600016009
 31
0.0
  0
ARC
  5
3BC
  8
0
 10
581.06761559520419
 20
1249.7997288043839
 30
0.0
 40
30.0
 50
0.0000000000646289
 51
89.999999998437204
  0
ARC
  5
3C5
  8
0
 10
2562.4094790905128
 20
1274.9082722734611
 30
0.0
 40
17.145353249846352
 50
179.1718122508278
 51
221.59133905934749
  0
ARC
  5
3C6
  8
0
 10
2562.4094790551781
 20
312.07315279068251
 30
0.0
 40
17.145353249693621
 50
138.40866093651951
 51
180.82818774509019
  0
LINE
  5
3E6
  8
0
 10
2444.06119299377
 20
1249.799728820223
 30
0.0
 11
2444.0611929593802
 21
461.66184657681191
 31
0.0
  0
LINE
  5
3FB
  8
0
 10
611.0676155951702
 20
1279.7997288213339
 30
0.0
 11
611.06761559520419
 21
1240.1676048072391
 31
0.0
  0
LINE
  5
417
  8
0
 10
1833.21951396296
 20
460.66157103913213
 30
0.0
 11
1833.1862125891889
 21
462.66129377426603
 31
0.0
  0
ENDSEC
  0
EOF
