  0
SECTION
  2
HEADER
  9
$ACADVER
  1
AC1009
  9
$INSBASE
 10
0.0
 20
0.0
 30
0.0
  9
$EXTMIN
 10
1.1389176619532
 20
2.7824207231133178
 30
-0.0015258207003583
  9
$EXTMAX
 10
1212.535644474626
 20
1201.5578914508189
 30
0.0000000349246037
  9
$LIMMIN
 10
0.0
 20
0.0
  9
$LIMMAX
 10
12.0
 20
9.0
  9
$ORTHOMODE
 70
     1
  9
$REGENMODE
 70
     1
  9
$FILLMODE
 70
     1
  9
$QTEXTMODE
 70
     0
  9
$MIRRTEXT
 70
     0
  9
$DRAGMODE
 70
     2
  9
$LTSCALE
 40
1.0
  9
$OSMODE
 70
    37
  9
$ATTMODE
 70
     1
  9
$TEXTSIZE
 40
100.0
  9
$TRACEWID
 40
0.05
  9
$TEXTSTYLE
  7
STANDARD
  9
$CLAYER
  8
DIM
  9
$CELTYPE
  6
BYLAYER
  9
$CECOLOR
 62
   256
  9
$DIMSCALE
 40
100.0
  9
$DIMASZ
 40
0.18
  9
$DIMEXO
 40
0.0625
  9
$DIMDLI
 40
0.38
  9
$DIMRND
 40
0.0
  9
$DIMDLE
 40
0.0
  9
$DIMEXE
 40
0.18
  9
$DIMTP
 40
0.0
  9
$DIMTM
 40
0.0
  9
$DIMTXT
 40
0.18
  9
$DIMCEN
 40
0.09
  9
$DIMTSZ
 40
0.0
  9
$DIMTOL
 70
     0
  9
$DIMLIM
 70
     0
  9
$DIMTIH
 70
     1
  9
$DIMTOH
 70
     1
  9
$DIMSE1
 70
     0
  9
$DIMSE2
 70
     0
  9
$DIMTAD
 70
     0
  9
$DIMZIN
 70
     0
  9
$DIMBLK
  1

  9
$DIMASO
 70
     1
  9
$DIMSHO
 70
     1
  9
$DIMPOST
  1

  9
$DIMAPOST
  1

  9
$DIMALT
 70
     0
  9
$DIMALTD
 70
     2
  9
$DIMALTF
 40
25.399999999999999
  9
$DIMLFAC
 40
1.0
  9
$DIMTOFL
 70
     0
  9
$DIMTVP
 40
0.0
  9
$DIMTIX
 70
     0
  9
$DIMSOXD
 70
     0
  9
$DIMSAH
 70
     0
  9
$DIMBLK1
  1

  9
$DIMBLK2
  1

  9
$DIMSTYLE
  2
STANDARD
  9
$DIMCLRD
 70
     0
  9
$DIMCLRE
 70
     0
  9
$DIMCLRT
 70
     0
  9
$DIMTFAC
 40
1.0
  9
$DIMGAP
 40
0.09
  9
$LUNITS
 70
     2
  9
$LUPREC
 70
     1
  9
$SKETCHINC
 40
0.1
  9
$FILLETRAD
 40
0.0
  9
$AUNITS
 70
     0
  9
$AUPREC
 70
     0
  9
$MENU
  1
.
  9
$ELEVATION
 40
0.0
  9
$PELEVATION
 40
0.0
  9
$THICKNESS
 40
0.0
  9
$LIMCHECK
 70
     0
  9
$BLIPMODE
 70
     0
  9
$CHAMFERA
 40
0.0
  9
$CHAMFERB
 40
0.0
  9
$SKPOLY
 70
     0
  9
$TDCREATE
 40
2456350.509538102
  9
$TDUPDATE
 40
2456517.544658334
  9
$TDINDWG
 40
0.6683529977
  9
$TDUSRTIMER
 40
0.6683484722
  9
$USRTIMER
 70
     1
  9
$ANGBASE
 50
0.0
  9
$ANGDIR
 70
     0
  9
$PDMODE
 70
     0
  9
$PDSIZE
 40
0.0
  9
$PLINEWID
 40
0.0
  9
$COORDS
 70
     1
  9
$SPLFRAME
 70
     0
  9
$SPLINETYPE
 70
     6
  9
$SPLINESEGS
 70
     8
  9
$ATTDIA
 70
     0
  9
$ATTREQ
 70
     1
  9
$HANDLING
 70
     1
  9
$HANDSEED
  5
173C
  9
$SURFTAB1
 70
     6
  9
$SURFTAB2
 70
     6
  9
$SURFTYPE
 70
     6
  9
$SURFU
 70
     6
  9
$SURFV
 70
     6
  9
$UCSNAME
  2

  9
$UCSORG
 10
0.0
 20
0.0
 30
0.0
  9
$UCSXDIR
 10
1.0
 20
0.0
 30
0.0
  9
$UCSYDIR
 10
0.0
 20
1.0
 30
0.0
  9
$PUCSNAME
  2

  9
$PUCSORG
 10
0.0
 20
0.0
 30
0.0
  9
$PUCSXDIR
 10
1.0
 20
0.0
 30
0.0
  9
$PUCSYDIR
 10
0.0
 20
1.0
 30
0.0
  9
$USERI1
 70
     0
  9
$USERI2
 70
     0
  9
$USERI3
 70
     0
  9
$USERI4
 70
     0
  9
$USERI5
 70
     0
  9
$USERR1
 40
0.0
  9
$USERR2
 40
0.0
  9
$USERR3
 40
0.0
  9
$USERR4
 40
0.0
  9
$USERR5
 40
0.0
  9
$WORLDVIEW
 70
     1
  9
$SHADEDGE
 70
     3
  9
$SHADEDIF
 70
    70
  9
$TILEMODE
 70
     1
  9
$MAXACTVP
 70
    64
  9
$PLIMCHECK
 70
     0
  9
$PEXTMIN
 10
0.0
 20
0.0
 30
0.0
  9
$PEXTMAX
 10
0.0
 20
0.0
 30
0.0
  9
$PLIMMIN
 10
0.0
 20
0.0
  9
$PLIMMAX
 10
12.0
 20
9.0
  9
$UNITMODE
 70
     0
  9
$VISRETAIN
 70
     1
  9
$PLINEGEN
 70
     0
  9
$PSLTSCALE
 70
     1
  0
ENDSEC
  0
SECTION
  2
TABLES
  0
TABLE
  2
VPORT
 70
     1
  0
VPORT
  2
*ACTIVE
 70
     0
 10
0.0
 20
0.0
 11
1.0
 21
1.0
 12
606.26782223731334
 22
600.77894572540924
 13
0.0
 23
0.0
 14
0.5
 24
0.5
 15
0.5
 25
0.5
 16
0.0
 26
0.0
 36
1.0
 17
0.0
 27
0.0
 37
0.0
 40
1211.353200348515
 41
1.6802721088435371
 42
50.0
 43
0.0
 44
0.0
 50
0.0
 51
0.0
 71
     0
 72
  1000
 73
     1
 74
     2
 75
     0
 76
     1
 77
     0
 78
     0
  0
ENDTAB
  0
TABLE
  2
LTYPE
 70
     1
  0
LTYPE
  2
CONTINUOUS
 70
     0
  3
Solid line
 72
    65
 73
     0
 40
0.0
  0
ENDTAB
  0
TABLE
  2
LAYER
 70
     3
  0
LAYER
  2
0
 70
     0
 62
     7
  6
CONTINUOUS
  0
LAYER
  2
DIM
 70
     0
 62
     5
  6
CONTINUOUS
  0
LAYER
  2
DEFPOINTS
 70
     0
 62
     7
  6
CONTINUOUS
  0
ENDTAB
  0
TABLE
  2
STYLE
 70
     2
  0
STYLE
  2
STANDARD
 70
     0
 40
0.0
 41
1.0
 50
0.0
 71
     0
 42
100.0
  3
txt
  4

  0
STYLE
  2
ANNOTATIVE
 70
     0
 40
0.0
 41
1.0
 50
0.0
 71
     0
 42
0.2
  3
txt
  4

  0
ENDTAB
  0
TABLE
  2
VIEW
 70
     0
  0
ENDTAB
  0
TABLE
  2
UCS
 70
     0
  0
ENDTAB
  0
TABLE
  2
APPID
 70
    12
  0
APPID
  2
ACAD
 70
     0
  0
APPID
  2
ACADANNOTATIVE
 70
     0
  0
APPID
  2
ACADANNOPO
 70
     0
  0
APPID
  2
ACAD_DSTYLE_DIMJAG
 70
     0
  0
APPID
  2
ACAD_DSTYLE_DIMTALN
 70
     0
  0
APPID
  2
ACAD_MLEADERVER
 70
     0
  0
APPID
  2
ACAD_NAV_VCDISPLAY
 70
     0
  0
APPID
  2
ACAD_EXEMPT_FROM_CAD_STANDARDS
 70
     0
  0
APPID
  2
ACAD_DSTYLE_DIMRADIAL_EXTENSION
 70
     0
  0
APPID
  2
ACAECLAYERSTANDARD
 70
     0
  0
APPID
  2
ACCMTRANSPARENCY
 70
     0
  0
APPID
  2
ACAD_PSEXT
 70
     0
  0
ENDTAB
  0
TABLE
  2
DIMSTYLE
 70
     2
  0
DIMSTYLE
  2
STANDARD
 70
     0
  3

  4

  5

  6

  7

 40
100.0
 41
0.18
 42
0.0625
 43
0.38
 44
0.18
 45
0.0
 46
0.0
 47
0.0
 48
0.0
140
0.18
141
0.09
142
0.0
143
25.399999999999999
144
1.0
145
0.0
146
1.0
147
0.09
 71
     0
 72
     0
 73
     1
 74
     1
 75
     0
 76
     0
 77
     0
 78
     0
170
     0
171
     2
172
     0
173
     0
174
     0
175
     0
176
     0
177
     0
178
     0
  0
DIMSTYLE
  2
ANNOTATIVE
 70
     0
  3

  4

  5

  6

  7

 40
0.0
 41
0.18
 42
0.0625
 43
0.38
 44
0.18
 45
0.0
 46
0.0
 47
0.0
 48
0.0
140
0.18
141
0.09
142
0.0
143
25.399999999999999
144
1.0
145
0.0
146
1.0
147
0.09
 71
     0
 72
     0
 73
     1
 74
     1
 75
     0
 76
     0
 77
     0
 78
     0
170
     0
171
     2
172
     0
173
     0
174
     0
175
     0
176
     0
177
     0
178
     0
  0
ENDTAB
  0
ENDSEC
  0
SECTION
  2
BLOCKS
  0
BLOCK
  8
0
  2
$MODEL_SPACE
 70
     0
 10
0.0
 20
0.0
 30
0.0
  3
$MODEL_SPACE
  1

  0
ENDBLK
  5
1686
  8
0
  0
BLOCK
 67
     1
  8
0
  2
$PAPER_SPACE
 70
     0
 10
0.0
 20
0.0
 30
0.0
  3
$PAPER_SPACE
  1

  0
ENDBLK
  5
1682
 67
     1
  8
0
  0
BLOCK
  8
0
  2
*D2
 70
     1
 10
0.0
 20
0.0
 30
0.0
  3
*D2
  1

  0
LINE
  5
9E7
  8
0
 62
     0
 10
2845.9390831335618
 20
-2116.4784095040318
 30
0.0
 11
2845.9390831335618
 21
-1998.750146460718
 31
0.0
  0
LINE
  5
9E8
  8
0
 62
     0
 10
3443.0677857389019
 20
-2116.4784095040318
 30
0.0
 11
3443.0677857389019
 21
-1998.750146460718
 31
0.0
  0
LINE
  5
9E9
  8
0
 62
     0
 10
2863.9390831335618
 20
-2016.750146460718
 30
0.0
 11
3115.6187141088121
 21
-2016.750146460718
 31
0.0
  0
LINE
  5
9EA
  8
0
 62
     0
 10
3425.0677857389019
 20
-2016.750146460718
 30
0.0
 11
3173.3881547636529
 21
-2016.750146460718
 31
0.0
  0
SOLID
  5
9EB
  8
0
 62
     0
 10
2863.9390831335618
 20
-2013.750146460718
 30
0.0
 11
2863.9390831335618
 21
-2019.7501464607169
 31
0.0
 12
2845.9390831335618
 22
-2016.750146460718
 32
0.0
 13
2845.9390831335618
 23
-2016.750146460718
 33
0.0
  0
SOLID
  5
9EC
  8
0
 62
     0
 10
3425.0677857389019
 20
-2013.750146460718
 30
0.0
 11
3425.0677857389019
 21
-2019.7501464607169
 31
0.0
 12
3443.0677857389019
 22
-2016.750146460718
 32
0.0
 13
3443.0677857389019
 23
-2016.750146460718
 33
0.0
  0
INSERT
  5
9ED
  8
DIM
  2
*U3
 10
0.0
 20
0.0
 30
0.0
  0
POINT
  5
9EE
  8
DEFPOINTS
 62
     0
 10
2845.9390831335618
 20
-2122.7284095040318
 30
0.0
  0
POINT
  5
9EF
  8
DEFPOINTS
 62
     0
 10
3443.0677857389019
 20
-2122.7284095040318
 30
0.0
  0
POINT
  5
9F0
  8
DEFPOINTS
 62
     0
 10
3443.0677857389019
 20
-2016.750146460718
 30
0.0
  0
ENDBLK
  5
9DB
  8
0
  0
BLOCK
  8
0
  2
*U3
 70
     1
 10
0.0
 20
0.0
 30
0.0
  3
*U3
  1

  0
TEXT
  5
148A
  8
0
 62
     0
 10
3123.5750579014439
 20
-2025.596667606693
 30
0.0
 40
18.0
  1
597
  0
ENDBLK
  5
148C
  8
0
  0
BLOCK
  8
0
  2
*D4
 70
     1
 10
0.0
 20
0.0
 30
0.0
  3
*D4
  1

  0
LINE
  5
A1B
  8
0
 62
     0
 10
3443.0677857389019
 20
-2126.0784095040322
 30
0.0
 11
3443.0677857389019
 21
-1998.750146460718
 31
0.0
  0
LINE
  5
A1C
  8
0
 62
     0
 10
3470.567785738901
 20
-2126.0784095040322
 30
0.0
 11
3470.567785738901
 21
-1998.750146460718
 31
0.0
  0
LINE
  5
A1D
  8
0
 62
     0
 10
3425.0677857389019
 20
-2016.750146460718
 30
0.0
 11
3407.0677857389019
 21
-2016.750146460718
 31
0.0
  0
LINE
  5
A1E
  8
0
 62
     0
 10
3488.567785738901
 20
-2016.750146460718
 30
0.0
 11
3506.567785738901
 21
-2016.750146460718
 31
0.0
  0
SOLID
  5
A1F
  8
0
 62
     0
 10
3425.0677857389019
 20
-2013.750146460718
 30
0.0
 11
3425.0677857389019
 21
-2019.7501464607169
 31
0.0
 12
3443.0677857389019
 22
-2016.750146460718
 32
0.0
 13
3443.0677857389019
 23
-2016.750146460718
 33
0.0
  0
SOLID
  5
A20
  8
0
 62
     0
 10
3488.567785738901
 20
-2013.750146460718
 30
0.0
 11
3488.567785738901
 21
-2019.7501464607169
 31
0.0
 12
3470.567785738901
 22
-2016.750146460718
 32
0.0
 13
3470.567785738901
 23
-2016.750146460718
 33
0.0
  0
INSERT
  5
A21
  8
DIM
  2
*U5
 10
0.0
 20
0.0
 30
0.0
  0
POINT
  5
A22
  8
DEFPOINTS
 62
     0
 10
3443.0677857389019
 20
-2132.3284095040322
 30
0.0
  0
POINT
  5
A23
  8
DEFPOINTS
 62
     0
 10
3470.567785738901
 20
-2132.3284095040322
 30
0.0
  0
POINT
  5
A24
  8
DEFPOINTS
 62
     0
 10
3470.567785738901
 20
-2016.750146460718
 30
0.0
  0
ENDBLK
  5
A0F
  8
0
  0
BLOCK
  8
0
  2
*U5
 70
     1
 10
0.0
 20
0.0
 30
0.0
  3
*U5
  1

  0
TEXT
  5
148E
  8
0
 62
     0
 10
3514.8310872395841
 20
-2025.596667606693
 30
0.0
 40
18.0
  1
28
  0
ENDBLK
  5
1490
  8
0
  0
BLOCK
  8
0
  2
*D6
 70
     1
 10
0.0
 20
0.0
 30
0.0
  3
*D6
  1

  0
LINE
  5
A35
  8
0
 62
     0
 10
2839.0330104247778
 20
-2131.8924315431641
 30
0.0
 11
2735.111067710041
 21
-2124.6255013981458
 31
0.0
  0
LINE
  5
A36
  8
0
 62
     0
 10
2831.3249200760529
 20
-2242.123259096842
 30
0.0
 11
2727.402977361317
 21
-2234.8563289518238
 31
0.0
  0
LINE
  5
A37
  8
0
 62
     0
 10
2751.8116040873242
 20
-2143.8372708302159
 30
0.0
 11
2750.4744338042101
 21
-2162.9596967774141
 31
0.0
  0
LINE
  5
A38
  8
0
 62
     0
 10
2746.6147467933879
 20
-2218.1557925745419
 30
0.0
 11
2747.9519170765002
 21
-2199.033366627345
 31
0.0
  0
SOLID
  5
A39
  8
0
 62
     0
 10
2748.8189119365438
 20
-2143.6280014089839
 30
0.0
 11
2754.8042962381028
 21
-2144.0465402514492
 31
0.0
 12
2753.0672206147169
 22
-2125.8811179255399
 32
0.0
 13
2753.0672206147169
 23
-2125.8811179255399
 33
0.0
  0
SOLID
  5
A3A
  8
0
 62
     0
 10
2743.622054642608
 20
-2217.946523153309
 30
0.0
 11
2749.6074389441669
 21
-2218.3650619957739
 31
0.0
 12
2745.3591302659938
 22
-2236.1119454792188
 32
0.0
 13
2745.3591302659938
 23
-2236.1119454792188
 33
0.0
  0
INSERT
  5
A3B
  8
DIM
  2
*U7
 10
0.0
 20
0.0
 30
0.0
  0
POINT
  5
A3C
  8
DEFPOINTS
 62
     0
 10
2845.2677857389031
 20
-2132.3284095040649
 30
0.0
  0
POINT
  5
A3D
  8
DEFPOINTS
 62
     0
 10
2837.5596953901781
 20
-2242.5592370577442
 30
0.0
  0
POINT
  5
A3E
  8
DEFPOINTS
 62
     0
 10
2745.3591302659938
 20
-2236.1119454792188
 30
0.0
  0
ENDBLK
  5
A29
  8
0
  0
BLOCK
  8
0
  2
*U7
 70
     1
 10
0.0
 20
0.0
 30
0.0
  3
*U7
  1

  0
TEXT
  5
1492
  8
0
 62
     0
 10
2729.1749762589111
 20
-2189.996531702378
 30
0.0
 40
18.0
  1
111
  0
ENDBLK
  5
1494
  8
0
  0
BLOCK
  8
0
  2
*D8
 70
     1
 10
0.0
 20
0.0
 30
0.0
  3
*D8
  1

  0
LINE
  5
A50
  8
0
 62
     0
 10
3151.6677857389031
 20
-2132.3284095040322
 30
0.0
 11
3139.9177857389031
 21
-2132.3284095040322
 31
0.0
  0
LINE
  5
A51
  8
0
 62
     0
 10
3151.6677857389031
 20
-2122.7284095040318
 30
0.0
 11
3139.9177857389031
 21
-2122.7284095040318
 31
0.0
  0
LINE
  5
A52
  8
0
 62
     0
 10
3157.9177857389031
 20
-2150.3284095040322
 30
0.0
 11
3157.9177857389031
 21
-2168.3284095040322
 31
0.0
  0
LINE
  5
A53
  8
0
 62
     0
 10
3157.9177857389031
 20
-2104.7284095040318
 30
0.0
 11
3157.9177857389031
 21
-2086.7284095040318
 31
0.0
  0
LINE
  5
A54
  8
0
 62
     0
 10
3157.9177857389031
 20
-2086.7284095040318
 30
0.0
 11
3175.9177857389031
 21
-2086.7284095040318
 31
0.0
  0
SOLID
  5
A55
  8
0
 62
     0
 10
3154.9177857389031
 20
-2150.3284095040322
 30
0.0
 11
3160.9177857389031
 21
-2150.3284095040322
 31
0.0
 12
3157.9177857389031
 22
-2132.3284095040322
 32
0.0
 13
3157.9177857389031
 23
-2132.3284095040322
 33
0.0
  0
SOLID
  5
A56
  8
0
 62
     0
 10
3154.9177857389031
 20
-2104.7284095040318
 30
0.0
 11
3160.9177857389031
 21
-2104.7284095040318
 31
0.0
 12
3157.9177857389031
 22
-2122.7284095040318
 32
0.0
 13
3157.9177857389031
 23
-2122.7284095040318
 33
0.0
  0
INSERT
  5
A57
  8
DIM
  2
*U9
 10
0.0
 20
0.0
 30
0.0
  0
POINT
  5
A58
  8
DEFPOINTS
 62
     0
 10
3157.9177857389031
 20
-2132.3284095040322
 30
0.0
  0
POINT
  5
A59
  8
DEFPOINTS
 62
     0
 10
3157.9177857389031
 20
-2122.7284095040318
 30
0.0
  0
POINT
  5
A5A
  8
DEFPOINTS
 62
     0
 10
3157.9177857389031
 20
-2122.7284095040318
 30
0.0
  0
ENDBLK
  5
A43
  8
0
  0
BLOCK
  8
0
  2
*U9
 70
     1
 10
0.0
 20
0.0
 30
0.0
  3
*U9
  1

  0
TEXT
  5
1496
  8
0
 62
     0
 10
3182.1797229831059
 20
-2095.574930650007
 30
0.0
 40
18.0
  1
10
  0
ENDBLK
  5
1498
  8
0
  0
BLOCK
  8
0
  2
*D10
 70
     1
 10
0.0
 20
0.0
 30
0.0
  3
*D10
  1

  0
LINE
  5
A6F
  8
0
 62
     0
 10
2836.3156409119811
 20
-2116.4784095040318
 30
0.0
 11
2836.3156409119811
 21
-2031.8707620426769
 31
0.0
  0
LINE
  5
A70
  8
0
 62
     0
 10
3443.0677857389019
 20
-2116.4784095040318
 30
0.0
 11
3443.0677857389019
 21
-2031.8707620426769
 31
0.0
  0
LINE
  5
A71
  8
0
 62
     0
 10
2854.3156409119811
 20
-2049.8707620426781
 30
0.0
 11
3110.757879764732
 21
-2049.8707620426781
 31
0.0
  0
LINE
  5
A72
  8
0
 62
     0
 10
3425.0677857389019
 20
-2049.8707620426781
 30
0.0
 11
3168.6255468861509
 21
-2049.8707620426781
 31
0.0
  0
SOLID
  5
A73
  8
0
 62
     0
 10
2854.3156409119811
 20
-2046.8707620426781
 30
0.0
 11
2854.3156409119811
 21
-2052.8707620426781
 31
0.0
 12
2836.3156409119811
 22
-2049.8707620426781
 32
0.0
 13
2836.3156409119811
 23
-2049.8707620426781
 33
0.0
  0
SOLID
  5
A74
  8
0
 62
     0
 10
3425.0677857389019
 20
-2046.8707620426781
 30
0.0
 11
3425.0677857389019
 21
-2052.8707620426781
 31
0.0
 12
3443.0677857389019
 22
-2049.8707620426781
 32
0.0
 13
3443.0677857389019
 23
-2049.8707620426781
 33
0.0
  0
INSERT
  5
A75
  8
DIM
  2
*U11
 10
0.0
 20
0.0
 30
0.0
  0
POINT
  5
A76
  8
DEFPOINTS
 62
     0
 10
2836.3156409119811
 20
-2122.7284095040318
 30
0.0
  0
POINT
  5
A77
  8
DEFPOINTS
 62
     0
 10
3443.0677857389019
 20
-2122.7284095040318
 30
0.0
  0
POINT
  5
A78
  8
DEFPOINTS
 62
     0
 10
3443.0677857389019
 20
-2049.8707620426781
 30
0.0
  0
ENDBLK
  5
A63
  8
0
  0
BLOCK
  8
0
  2
*U11
 70
     1
 10
0.0
 20
0.0
 30
0.0
  3
*U11
  1

  0
TEXT
  5
149A
  8
0
 62
     0
 10
3118.812450023941
 20
-2058.7172831886528
 30
0.0
 40
18.0
  1
607
  0
ENDBLK
  5
149C
  8
0
  0
BLOCK
  8
0
  2
*D12
 70
     1
 10
0.0
 20
0.0
 30
0.0
  3
*D12
  1

  0
LINE
  5
A89
  8
0
 62
     0
 10
2821.7483051935592
 20
-2241.4535969488988
 30
0.0
 11
2683.7540525897298
 21
-2231.8040987977852
 31
0.0
  0
LINE
  5
A8A
  8
0
 62
     0
 10
2830.0808655978572
 20
-2122.292431543131
 30
0.0
 11
2692.0866129940291
 21
-2112.6429333920182
 31
0.0
  0
LINE
  5
A8B
  8
0
 62
     0
 10
2702.9658220218012
 20
-2215.1035624205028
 30
0.0
 11
2704.6044950457399
 21
-2191.6694464012871
 31
0.0
  0
LINE
  5
A8C
  8
0
 62
     0
 10
2708.7871493713119
 20
-2131.8547028240891
 30
0.0
 11
2707.1484763473741
 21
-2155.2888188433071
 31
0.0
  0
SOLID
  5
A8D
  8
0
 62
     0
 10
2699.9731298710221
 20
-2214.89429299927
 30
0.0
 11
2705.9585141725811
 21
-2215.3128318417348
 31
0.0
 12
2701.7102054944071
 22
-2233.0597153251802
 32
0.0
 13
2701.7102054944071
 23
-2233.0597153251802
 33
0.0
  0
SOLID
  5
A8E
  8
0
 62
     0
 10
2705.794457220532
 20
-2131.6454334028572
 30
0.0
 11
2711.7798415220909
 21
-2132.063972245322
 31
0.0
 12
2710.042765898706
 22
-2113.8985499194118
 32
0.0
 13
2710.042765898706
 23
-2113.8985499194118
 33
0.0
  0
INSERT
  5
A8F
  8
DIM
  2
*U13
 10
0.0
 20
0.0
 30
0.0
  0
POINT
  5
A90
  8
DEFPOINTS
 62
     0
 10
2827.9830805076831
 20
-2241.8895749097992
 30
0.0
  0
POINT
  5
A91
  8
DEFPOINTS
 62
     0
 10
2836.3156409119811
 20
-2122.7284095040318
 30
0.0
  0
POINT
  5
A92
  8
DEFPOINTS
 62
     0
 10
2710.042765898706
 20
-2113.8985499194118
 30
0.0
  0
ENDBLK
  5
A7D
  8
0
  0
BLOCK
  8
0
  2
*U13
 70
     1
 10
0.0
 20
0.0
 30
0.0
  3
*U13
  1

  0
TEXT
  5
149E
  8
0
 62
     0
 10
2684.0824884250692
 20
-2182.325653768271
 30
0.0
 40
18.0
  1
119
  0
ENDBLK
  5
14A0
  8
0
  0
BLOCK
  8
0
  2
*D14
 70
     1
 10
0.0
 20
0.0
 30
0.0
  3
*D14
  1

  0
LINE
  5
C32
  8
0
 62
     0
 10
3599.139663730105
 20
-2259.8474571198299
 30
0.0
 11
3714.2647513098918
 21
-2259.8474571198299
 31
0.0
  0
LINE
  5
C33
  8
0
 62
     0
 10
3599.139663730105
 20
-2671.8474571198299
 30
0.0
 11
3714.2647513098918
 21
-2671.8474571198299
 31
0.0
  0
LINE
  5
C34
  8
0
 62
     0
 10
3696.2647513098918
 20
-2277.847457119829
 30
0.0
 11
3696.2647513098918
 21
-2447.8106221948628
 31
0.0
  0
LINE
  5
C35
  8
0
 62
     0
 10
3696.2647513098918
 20
-2653.847457119829
 30
0.0
 11
3696.2647513098918
 21
-2483.884292044796
 31
0.0
  0
SOLID
  5
C36
  8
0
 62
     0
 10
3693.2647513098918
 20
-2277.847457119829
 30
0.0
 11
3699.2647513098918
 21
-2277.847457119829
 31
0.0
 12
3696.2647513098918
 22
-2259.8474571198299
 32
0.0
 13
3696.2647513098918
 23
-2259.8474571198299
 33
0.0
  0
SOLID
  5
C37
  8
0
 62
     0
 10
3693.2647513098918
 20
-2653.847457119829
 30
0.0
 11
3699.2647513098918
 21
-2653.847457119829
 31
0.0
 12
3696.2647513098918
 22
-2671.8474571198299
 32
0.0
 13
3696.2647513098918
 23
-2671.8474571198299
 33
0.0
  0
INSERT
  5
C38
  8
DIM
  2
*U15
 10
0.0
 20
0.0
 30
0.0
  0
POINT
  5
C39
  8
DEFPOINTS
 62
     0
 10
3592.889663730105
 20
-2259.8474571198299
 30
0.0
  0
POINT
  5
C3A
  8
DEFPOINTS
 62
     0
 10
3592.889663730105
 20
-2671.8474571198299
 30
0.0
  0
POINT
  5
C3B
  8
DEFPOINTS
 62
     0
 10
3696.2647513098918
 20
-2671.8474571198299
 30
0.0
  0
ENDBLK
  5
B64
  8
0
  0
BLOCK
  8
0
  2
*U15
 70
     1
 10
0.0
 20
0.0
 30
0.0
  3
*U15
  1

  0
TEXT
  5
14A2
  8
0
 62
     0
 10
3675.7906721830168
 20
-2474.8474571198281
 30
0.0
 40
18.0
  1
412
  0
ENDBLK
  5
14A4
  8
0
  0
BLOCK
  8
0
  2
*D16
 70
     1
 10
0.0
 20
0.0
 30
0.0
  3
*D16
  1

  0
LINE
  5
C3C
  8
0
 62
     0
 10
3599.139663730105
 20
-2225.847457119829
 30
0.0
 11
3683.6792965812929
 21
-2225.847457119829
 31
0.0
  0
LINE
  5
C3D
  8
0
 62
     0
 10
3599.1396637301059
 20
-2259.8474571198299
 30
0.0
 11
3683.6792965812929
 21
-2259.8474571198299
 31
0.0
  0
LINE
  5
C3E
  8
0
 62
     0
 10
3665.6792965812938
 20
-2207.847457119829
 30
0.0
 11
3665.6792965812938
 21
-2189.847457119829
 31
0.0
  0
LINE
  5
C3F
  8
0
 62
     0
 10
3665.6792965812938
 20
-2277.847457119829
 30
0.0
 11
3665.6792965812938
 21
-2295.8474571198299
 31
0.0
  0
LINE
  5
C40
  8
0
 62
     0
 10
3665.6792965812938
 20
-2295.8474571198299
 30
0.0
 11
3647.6792965812929
 21
-2295.8474571198299
 31
0.0
  0
SOLID
  5
C41
  8
0
 62
     0
 10
3662.6792965812929
 20
-2207.847457119829
 30
0.0
 11
3668.6792965812929
 21
-2207.847457119829
 31
0.0
 12
3665.6792965812938
 22
-2225.847457119829
 32
0.0
 13
3665.6792965812938
 23
-2225.847457119829
 33
0.0
  0
SOLID
  5
C42
  8
0
 62
     0
 10
3662.6792965812929
 20
-2277.847457119829
 30
0.0
 11
3668.6792965812929
 21
-2277.847457119829
 31
0.0
 12
3665.6792965812938
 22
-2259.8474571198299
 32
0.0
 13
3665.6792965812938
 23
-2259.8474571198299
 33
0.0
  0
INSERT
  5
C43
  8
DIM
  2
*U17
 10
0.0
 20
0.0
 30
0.0
  0
POINT
  5
C44
  8
DEFPOINTS
 62
     0
 10
3592.889663730105
 20
-2225.847457119829
 30
0.0
  0
POINT
  5
C45
  8
DEFPOINTS
 62
     0
 10
3592.8896637301059
 20
-2259.8474571198299
 30
0.0
  0
POINT
  5
C46
  8
DEFPOINTS
 62
     0
 10
3665.6792965812938
 20
-2259.8474571198299
 30
0.0
  0
ENDBLK
  5
B7E
  8
0
  0
BLOCK
  8
0
  2
*U17
 70
     1
 10
0.0
 20
0.0
 30
0.0
  3
*U17
  1

  0
TEXT
  5
14A6
  8
0
 62
     0
 10
3611.9248627477318
 20
-2304.6878391116429
 30
0.0
 40
18.0
  1
34
  0
ENDBLK
  5
14A8
  8
0
  0
BLOCK
  8
0
  2
*D18
 70
     1
 10
0.0
 20
0.0
 30
0.0
  3
*D18
  1

  0
LINE
  5
C85
  8
0
 62
     0
 10
3626.4438620210572
 20
-2725.8474571198299
 30
0.0
 11
3824.8080262169101
 21
-2725.8474571198299
 31
0.0
  0
LINE
  5
C86
  8
0
 62
     0
 10
3626.4438620210572
 20
-2205.8474571198299
 30
0.0
 11
3824.8080262169101
 21
-2205.8474571198299
 31
0.0
  0
LINE
  5
C87
  8
0
 62
     0
 10
3806.808026216911
 20
-2707.8474571198299
 30
0.0
 11
3806.808026216911
 21
-2484.0377708988199
 31
0.0
  0
LINE
  5
C88
  8
0
 62
     0
 10
3806.808026216911
 20
-2223.8474571198299
 30
0.0
 11
3806.808026216911
 21
-2447.657143340839
 31
0.0
  0
SOLID
  5
C89
  8
0
 62
     0
 10
3803.8080262169092
 20
-2707.8474571198299
 30
0.0
 11
3809.808026216911
 21
-2707.8474571198299
 31
0.0
 12
3806.808026216911
 22
-2725.8474571198299
 32
0.0
 13
3806.808026216911
 23
-2725.8474571198299
 33
0.0
  0
SOLID
  5
C8A
  8
0
 62
     0
 10
3803.8080262169092
 20
-2223.8474571198299
 30
0.0
 11
3809.808026216911
 21
-2223.8474571198299
 31
0.0
 12
3806.808026216911
 22
-2205.8474571198299
 32
0.0
 13
3806.808026216911
 23
-2205.8474571198299
 33
0.0
  0
INSERT
  5
C8B
  8
DIM
  2
*U19
 10
0.0
 20
0.0
 30
0.0
  0
POINT
  5
C8C
  8
DEFPOINTS
 62
     0
 10
3620.1938620210572
 20
-2725.8474571198299
 30
0.0
  0
POINT
  5
C8D
  8
DEFPOINTS
 62
     0
 10
3620.1938620210572
 20
-2205.8474571198299
 30
0.0
  0
POINT
  5
C8E
  8
DEFPOINTS
 62
     0
 10
3806.808026216911
 20
-2205.8474571198299
 30
0.0
  0
ENDBLK
  5
C64
  8
0
  0
BLOCK
  8
0
  2
*U19
 70
     1
 10
0.0
 20
0.0
 30
0.0
  3
*U19
  1

  0
TEXT
  5
14AA
  8
0
 62
     0
 10
3785.9103454529281
 20
-2474.6939782658051
 30
0.0
 40
18.0
  1
520
  0
ENDBLK
  5
14AC
  8
0
  0
BLOCK
  8
0
  2
*D20
 70
     1
 10
0.0
 20
0.0
 30
0.0
  3
*D20
  1

  0
LINE
  5
C9E
  8
0
 62
     0
 10
3689.9292965812929
 20
-2225.847457119829
 30
0.0
 11
3768.8592134635328
 21
-2225.847457119829
 31
0.0
  0
LINE
  5
C9F
  8
0
 62
     0
 10
3606.639663730105
 20
-2705.8474571198299
 30
0.0
 11
3768.8592134635328
 21
-2705.8474571198299
 31
0.0
  0
LINE
  5
CA0
  8
0
 62
     0
 10
3750.8592134635328
 20
-2243.847457119829
 30
0.0
 11
3750.8592134635328
 21
-2447.657143340839
 31
0.0
  0
LINE
  5
CA1
  8
0
 62
     0
 10
3750.8592134635328
 20
-2687.8474571198299
 30
0.0
 11
3750.8592134635328
 21
-2484.0377708988199
 31
0.0
  0
SOLID
  5
CA2
  8
0
 62
     0
 10
3747.8592134635328
 20
-2243.847457119829
 30
0.0
 11
3753.8592134635328
 21
-2243.847457119829
 31
0.0
 12
3750.8592134635328
 22
-2225.847457119829
 32
0.0
 13
3750.8592134635328
 23
-2225.847457119829
 33
0.0
  0
SOLID
  5
CA3
  8
0
 62
     0
 10
3747.8592134635328
 20
-2687.8474571198299
 30
0.0
 11
3753.8592134635328
 21
-2687.8474571198299
 31
0.0
 12
3750.8592134635328
 22
-2705.8474571198299
 32
0.0
 13
3750.8592134635328
 23
-2705.8474571198299
 33
0.0
  0
INSERT
  5
CA4
  8
DIM
  2
*U21
 10
0.0
 20
0.0
 30
0.0
  0
POINT
  5
CA5
  8
DEFPOINTS
 62
     0
 10
3683.6792965812929
 20
-2225.847457119829
 30
0.0
  0
POINT
  5
CA6
  8
DEFPOINTS
 62
     0
 10
3600.389663730105
 20
-2705.8474571198299
 30
0.0
  0
POINT
  5
CA7
  8
DEFPOINTS
 62
     0
 10
3750.8592134635328
 20
-2705.8474571198299
 30
0.0
  0
ENDBLK
  5
C92
  8
0
  0
BLOCK
  8
0
  2
*U21
 70
     1
 10
0.0
 20
0.0
 30
0.0
  3
*U21
  1

  0
TEXT
  5
14AE
  8
0
 62
     0
 10
3730.323742795048
 20
-2474.6939782658051
 30
0.0
 40
18.0
  1
480
  0
ENDBLK
  5
14B0
  8
0
  0
BLOCK
  8
0
  2
*D22
 70
     1
 10
0.0
 20
0.0
 30
0.0
  3
*D22
  1

  0
LINE
  5
CB4
  8
0
 62
     0
 10
3339.4378474982891
 20
-2336.945282346805
 30
0.0
 11
3357.4378474982891
 21
-2336.945282346805
 31
0.0
  0
LINE
  5
CB5
  8
0
 62
     0
 10
3357.4378474982891
 20
-2336.945282346805
 30
0.0
 11
3384.5848362192551
 21
-2287.4627298537612
 31
0.0
  0
INSERT
  5
CB6
  8
DIM
  2
*U23
 10
0.0
 20
0.0
 30
0.0
  0
SOLID
  5
CB7
  8
0
 62
     0
 10
3381.9546544013292
 20
-2286.0197663737458
 30
0.0
 11
3387.21501803718
 21
-2288.9056933337738
 31
0.0
 12
3393.2426170993349
 22
-2271.6816389462051
 32
0.0
 13
3393.2426170993349
 23
-2271.6816389462051
 33
0.0
  0
POINT
  5
CB8
  8
DEFPOINTS
 62
     0
 10
3393.2426170993349
 20
-2271.6816389462051
 30
0.0
  0
POINT
  5
CB9
  8
DEFPOINTS
 62
     0
 10
3347.0677857389041
 20
-2355.8474571198271
 30
0.0
  0
ENDBLK
  5
CAC
  8
0
  0
BLOCK
  8
0
  2
*U23
 70
     1
 10
0.0
 20
0.0
 30
0.0
  3
*U23
  1

  0
TEXT
  5
14B2
  8
0
 62
     0
 10
3285.4624041149332
 20
-2345.7918034927829
 30
0.0
 40
18.0
  1
R96
  0
ENDBLK
  5
14B4
  8
0
  0
BLOCK
  8
0
  2
*D24
 70
     1
 10
0.0
 20
0.0
 30
0.0
  3
*D24
  1

  0
LINE
  5
F50
  8
0
 62
     0
 10
3477.0677857389019
 20
-2153.5784095040322
 30
0.0
 11
3477.0677857389019
 21
-2193.9039529309089
 31
0.0
  0
LINE
  5
F51
  8
0
 62
     0
 10
2859.5352192787409
 20
-2149.5784095040331
 30
0.0
 11
2859.5352192787409
 21
-2193.9039529309089
 31
0.0
  0
LINE
  5
F52
  8
0
 62
     0
 10
3459.0677857389019
 20
-2175.9039529309089
 30
0.0
 11
3197.2537535320139
 21
-2175.9039529309089
 31
0.0
  0
LINE
  5
F53
  8
0
 62
     0
 10
2877.5352192787409
 20
-2175.9039529309089
 30
0.0
 11
3139.3492514856298
 21
-2175.9039529309089
 31
0.0
  0
SOLID
  5
F54
  8
0
 62
     0
 10
3459.0677857389019
 20
-2172.9039529309089
 30
0.0
 11
3459.0677857389019
 21
-2178.9039529309089
 31
0.0
 12
3477.0677857389019
 22
-2175.9039529309089
 32
0.0
 13
3477.0677857389019
 23
-2175.9039529309089
 33
0.0
  0
SOLID
  5
F55
  8
0
 62
     0
 10
2877.5352192787409
 20
-2172.9039529309089
 30
0.0
 11
2877.5352192787409
 21
-2178.9039529309089
 31
0.0
 12
2859.5352192787409
 22
-2175.9039529309089
 32
0.0
 13
2859.5352192787409
 23
-2175.9039529309089
 33
0.0
  0
INSERT
  5
F56
  8
DIM
  2
*U25
 10
0.0
 20
0.0
 30
0.0
  0
POINT
  5
F57
  8
DEFPOINTS
 62
     0
 10
3477.0677857389019
 20
-2147.3284095040322
 30
0.0
  0
POINT
  5
F58
  8
DEFPOINTS
 62
     0
 10
2859.5352192787409
 20
-2143.3284095040331
 30
0.0
  0
POINT
  5
F59
  8
DEFPOINTS
 62
     0
 10
2859.5352192787409
 20
-2175.9039529309089
 30
0.0
  0
ENDBLK
  5
F44
  8
0
  0
BLOCK
  8
0
  2
*U25
 70
     1
 10
0.0
 20
0.0
 30
0.0
  3
*U25
  1

  0
TEXT
  5
14BE
  8
0
 62
     0
 10
3147.4038217448392
 20
-2184.7504740768841
 30
0.0
 40
18.0
  1
618
  0
ENDBLK
  5
14C0
  8
0
  0
BLOCK
  8
0
  2
*D26
 70
     1
 10
0.0
 20
0.0
 30
0.0
  3
*D26
  1

  0
LINE
  5
1110
  8
0
 62
     0
 10
8091.6640413373507
 20
373.87930028724082
 30
0.0
 11
7825.4096587919494
 21
373.87930028724088
 31
0.0
  0
LINE
  5
1111
  8
0
 62
     0
 10
7957.6640413373489
 20
293.87930028724082
 30
0.0
 11
7825.4096587919494
 21
293.87930028724082
 31
0.0
  0
LINE
  5
1112
  8
0
 62
     0
 10
7843.4096587919448
 20
355.87930028724088
 30
0.0
 11
7843.4096587919448
 21
311.87930028724082
 31
0.0
  0
LINE
  5
1113
  8
0
 62
     0
 10
7843.4096587919448
 20
293.87930028724082
 30
0.0
 11
7843.4096587919448
 21
275.87930028724082
 31
0.0
  0
LINE
  5
1114
  8
0
 62
     0
 10
7843.4096587919448
 20
275.87930028724082
 30
0.0
 11
7825.4096587919494
 21
275.87930028724082
 31
0.0
  0
SOLID
  5
1115
  8
0
 62
     0
 10
7840.4096587919448
 20
355.87930028724088
 30
0.0
 11
7846.4096587919448
 21
355.87930028724088
 31
0.0
 12
7843.4096587919448
 22
373.87930028724088
 32
0.0
 13
7843.4096587919448
 23
373.87930028724088
 33
0.0
  0
SOLID
  5
1116
  8
0
 62
     0
 10
7840.4096587919448
 20
311.87930028724082
 30
0.0
 11
7846.4096587919448
 21
311.87930028724082
 31
0.0
 12
7843.4096587919448
 22
293.87930028724082
 32
0.0
 13
7843.4096587919448
 23
293.87930028724082
 33
0.0
  0
INSERT
  5
1117
  8
DIM
  2
*U27
 10
0.0
 20
0.0
 30
0.0
  0
POINT
  5
1118
  8
DEFPOINTS
 62
     0
 10
8097.9140413373498
 20
373.87930028724082
 30
0.0
  0
POINT
  5
1119
  8
DEFPOINTS
 62
     0
 10
7963.9140413373498
 20
293.87930028724082
 30
0.0
  0
POINT
  5
111A
  8
DEFPOINTS
 62
     0
 10
7843.4096587919448
 20
293.87930028724082
 30
0.0
  0
ENDBLK
  5
1103
  8
0
  0
BLOCK
  8
0
  2
*U27
 70
     1
 10
0.0
 20
0.0
 30
0.0
  3
*U27
  1

  0
TEXT
  5
14E2
  8
0
 62
     0
 10
7789.6429466500658
 20
267.03277914126647
 30
0.0
 40
18.0
  1
80
  0
ENDBLK
  5
14E4
  8
0
  0
BLOCK
  8
0
  2
*D28
 70
     1
 10
0.0
 20
0.0
 30
0.0
  3
*D28
  1

  0
LINE
  5
1343
  8
DIM
 62
     0
 10
212.8180071173702
 20
1905.4175406383711
 30
0.0
 11
212.8180071173702
 21
1740.6708149690021
 31
0.0
  0
LINE
  5
1344
  8
DIM
 62
     0
 10
1422.6810712052211
 20
2856.197172669521
 30
0.0
 11
1422.6810712052211
 21
1740.6708149690021
 31
0.0
  0
LINE
  5
1345
  8
DIM
 62
     0
 10
230.81800711737009
 20
1758.6708149690021
 30
0.0
 11
782.75022128953572
 21
1758.6708149690021
 31
0.0
  0
LINE
  5
1346
  8
DIM
 62
     0
 10
1404.6810712052211
 20
1758.6708149690021
 30
0.0
 11
852.74885703305563
 21
1758.6708149690021
 31
0.0
  0
SOLID
  5
1347
  8
DIM
 62
     0
 10
230.81800711737009
 20
1761.6708149690021
 30
0.0
 11
230.81800711737009
 21
1755.6708149690021
 31
0.0
 12
212.8180071173702
 22
1758.6708149690021
 32
0.0
 13
212.8180071173702
 23
1758.6708149690021
 33
0.0
  0
SOLID
  5
1348
  8
DIM
 62
     0
 10
1404.6810712052211
 20
1761.6708149690021
 30
0.0
 11
1404.6810712052211
 21
1755.6708149690021
 31
0.0
 12
1422.6810712052211
 22
1758.6708149690021
 32
0.0
 13
1422.6810712052211
 23
1758.6708149690021
 33
0.0
  0
INSERT
  5
1349
  8
DIM
  2
*U29
 10
0.0
 20
0.0
 30
0.0
  0
POINT
  5
134A
  8
DEFPOINTS
 62
     0
 10
212.8180071173702
 20
1911.6675406383711
 30
0.0
  0
POINT
  5
134B
  8
DEFPOINTS
 62
     0
 10
1422.6810712052211
 20
2862.447172669521
 30
0.0
  0
POINT
  5
134C
  8
DEFPOINTS
 62
     0
 10
1422.6810712052211
 20
1758.6708149690021
 30
0.0
  0
ENDBLK
  5
12D3
  8
0
  0
BLOCK
  8
0
  2
*U29
 70
     1
 10
0.0
 20
0.0
 30
0.0
  3
*U29
  1

  0
TEXT
  5
14E9
  8
DIM
 62
     0
 10
789.01215853373765
 20
1749.824293823026
 30
0.0
 40
18.0
  1
1210
  0
ENDBLK
  5
14EB
  8
0
  0
BLOCK
  8
0
  2
*D30
 70
     1
 10
0.0
 20
0.0
 30
0.0
  3
*D30
  1

  0
LINE
  5
134D
  8
DIM
 62
     0
 10
287.26341906223939
 20
2944.5796310239971
 30
0.0
 11
106.10455605042461
 21
2944.5796310239971
 31
0.0
  0
LINE
  5
134E
  8
DIM
 62
     0
 10
206.5680071173702
 20
1911.6675406383711
 30
0.0
 11
106.10455605042441
 21
1911.6675406383711
 31
0.0
  0
LINE
  5
134F
  8
DIM
 62
     0
 10
124.10455605042461
 20
2926.5796310239971
 30
0.0
 11
124.10455605042451
 21
2446.3200387643351
 31
0.0
  0
LINE
  5
1350
  8
DIM
 62
     0
 10
124.10455605042441
 20
1929.6675406383711
 30
0.0
 11
124.10455605042451
 21
2409.927132898034
 31
0.0
  0
SOLID
  5
1351
  8
DIM
 62
     0
 10
121.10455605042461
 20
2926.5796310239971
 30
0.0
 11
127.10455605042461
 21
2926.5796310239971
 31
0.0
 12
124.10455605042461
 22
2944.5796310239971
 32
0.0
 13
124.10455605042461
 23
2944.5796310239971
 33
0.0
  0
SOLID
  5
1352
  8
DIM
 62
     0
 10
121.10455605042441
 20
1929.6675406383711
 30
0.0
 11
127.10455605042441
 21
1929.6675406383711
 31
0.0
 12
124.10455605042441
 22
1911.6675406383711
 32
0.0
 13
124.10455605042441
 23
1911.6675406383711
 33
0.0
  0
INSERT
  5
1353
  8
DIM
  2
*U31
 10
0.0
 20
0.0
 30
0.0
  0
POINT
  5
1354
  8
DEFPOINTS
 62
     0
 10
293.51341906223939
 20
2944.5796310239971
 30
0.0
  0
POINT
  5
1355
  8
DEFPOINTS
 62
     0
 10
212.8180071173702
 20
1911.6675406383711
 30
0.0
  0
POINT
  5
1356
  8
DEFPOINTS
 62
     0
 10
124.10455605042441
 20
1911.6675406383711
 30
0.0
  0
ENDBLK
  5
12ED
  8
0
  0
BLOCK
  8
0
  2
*U31
 70
     1
 10
0.0
 20
0.0
 30
0.0
  3
*U31
  1

  0
TEXT
  5
14ED
  8
DIM
 62
     0
 10
95.336479652061186
 20
2419.2832038393699
 30
0.0
 40
18.0
  1
1033
  0
ENDBLK
  5
14EF
  8
0
  0
BLOCK
  8
0
  2
*D32
 70
     1
 10
0.0
 20
0.0
 30
0.0
  3
*D32
  1

  0
LINE
  5
1357
  8
DIM
 62
     0
 10
1797.5102318296499
 20
1990.922682778182
 30
0.0
 11
1797.5102318296499
 21
1630.264526173436
 31
0.0
  0
LINE
  5
1358
  8
DIM
 62
     0
 10
2999.6579360727792
 20
2237.3923543187589
 30
0.0
 11
2999.6579360727792
 21
1630.264526173436
 31
0.0
  0
LINE
  5
1359
  8
DIM
 62
     0
 10
1815.510231829649
 20
1648.264526173436
 30
0.0
 11
2363.646157621065
 21
1648.264526173436
 31
0.0
  0
LINE
  5
135A
  8
DIM
 62
     0
 10
2981.6579360727801
 20
1648.264526173436
 30
0.0
 11
2433.5220102813651
 21
1648.264526173436
 31
0.0
  0
SOLID
  5
135B
  8
DIM
 62
     0
 10
1815.510231829649
 20
1651.264526173436
 30
0.0
 11
1815.510231829649
 21
1645.264526173436
 31
0.0
 12
1797.5102318296499
 22
1648.264526173436
 32
0.0
 13
1797.5102318296499
 23
1648.264526173436
 33
0.0
  0
SOLID
  5
135C
  8
DIM
 62
     0
 10
2981.6579360727801
 20
1651.264526173436
 30
0.0
 11
2981.6579360727801
 21
1645.264526173436
 31
0.0
 12
2999.6579360727792
 22
1648.264526173436
 32
0.0
 13
2999.6579360727792
 23
1648.264526173436
 33
0.0
  0
INSERT
  5
135D
  8
DIM
  2
*U33
 10
0.0
 20
0.0
 30
0.0
  0
POINT
  5
135E
  8
DEFPOINTS
 62
     0
 10
1797.5102318296499
 20
1997.172682778182
 30
0.0
  0
POINT
  5
135F
  8
DEFPOINTS
 62
     0
 10
2999.6579360727792
 20
2243.6423543187602
 30
0.0
  0
POINT
  5
1360
  8
DEFPOINTS
 62
     0
 10
2999.6579360727792
 20
1648.264526173436
 30
0.0
  0
ENDBLK
  5
1307
  8
0
  0
BLOCK
  8
0
  2
*U33
 70
     1
 10
0.0
 20
0.0
 30
0.0
  3
*U33
  1

  0
TEXT
  5
14F1
  8
DIM
 62
     0
 10
2369.908094865265
 20
1639.4180050274599
 30
0.0
 40
18.0
  1
1202
  0
ENDBLK
  5
14F3
  8
0
  0
BLOCK
  8
0
  2
*D34
 70
     1
 10
0.0
 20
0.0
 30
0.0
  3
*D34
  1

  0
LINE
  5
1361
  8
DIM
 62
     0
 10
2579.8467327650751
 20
1748.324888044207
 30
0.0
 11
3138.7207481333498
 21
1748.324888044207
 31
0.0
  0
LINE
  5
1362
  8
DIM
 62
     0
 10
3005.9079360727792
 20
2946.6423543187602
 30
0.0
 11
3138.7207481333498
 21
2946.6423543187602
 31
0.0
  0
LINE
  5
1363
  8
DIM
 62
     0
 10
3120.7207481333489
 20
1766.324888044207
 30
0.0
 11
3120.7207481333489
 21
2329.2933074024918
 31
0.0
  0
LINE
  5
1364
  8
DIM
 62
     0
 10
3120.7207481333489
 20
2928.6423543187602
 30
0.0
 11
3120.7207481333489
 21
2365.6739349604732
 31
0.0
  0
SOLID
  5
1365
  8
DIM
 62
     0
 10
3117.7207481333489
 20
1766.324888044207
 30
0.0
 11
3123.7207481333489
 21
1766.324888044207
 31
0.0
 12
3120.7207481333489
 22
1748.324888044207
 32
0.0
 13
3120.7207481333489
 23
1748.324888044207
 33
0.0
  0
SOLID
  5
1366
  8
DIM
 62
     0
 10
3117.7207481333489
 20
2928.6423543187602
 30
0.0
 11
3123.7207481333489
 21
2928.6423543187602
 31
0.0
 12
3120.7207481333489
 22
2946.6423543187602
 32
0.0
 13
3120.7207481333489
 23
2946.6423543187602
 33
0.0
  0
INSERT
  5
1367
  8
DIM
  2
*U35
 10
0.0
 20
0.0
 30
0.0
  0
POINT
  5
1368
  8
DEFPOINTS
 62
     0
 10
2573.5967327650751
 20
1748.324888044207
 30
0.0
  0
POINT
  5
1369
  8
DEFPOINTS
 62
     0
 10
2999.6579360727792
 20
2946.6423543187602
 30
0.0
  0
POINT
  5
136A
  8
DEFPOINTS
 62
     0
 10
3120.7207481333489
 20
2946.6423543187602
 30
0.0
  0
ENDBLK
  5
1321
  8
0
  0
BLOCK
  8
0
  2
*U35
 70
     1
 10
0.0
 20
0.0
 30
0.0
  3
*U35
  1

  0
TEXT
  5
14F5
  8
DIM
 62
     0
 10
3091.9342542725049
 20
2338.6371000355089
 30
0.0
 40
18.0
  1
1198
  0
ENDBLK
  5
14F7
  8
0
  0
BLOCK
  8
0
  2
*U36
 70
     1
 10
0.0
 20
0.0
 30
0.0
  3
*U36
  1

  0
TEXT
  5
14B6
  8
0
 62
     0
 10
3563.5365296434252
 20
1531.593394598601
 30
0.0
 40
18.0
  1
916
  0
ENDBLK
  5
14B8
  8
0
  0
BLOCK
  8
0
  2
*U37
 70
     1
 10
0.0
 20
0.0
 30
0.0
  3
*U37
  1

  0
TEXT
  5
14BA
  8
0
 62
     0
 10
2885.344320883798
 20
1885.0188750249119
 30
0.0
 40
18.0
  1
579
  0
ENDBLK
  5
14BC
  8
0
  0
BLOCK
  8
0
  2
*U38
 70
     1
 10
0.0
 20
0.0
 30
0.0
  3
*U38
  1

  0
TEXT
  5
14C2
  8
0
 62
     0
 10
2850.3934341170839
 20
1465.1274114564851
 30
0.0
 40
18.0
  1
510
  0
ENDBLK
  5
14C4
  8
0
  0
BLOCK
  8
0
  2
*U39
 70
     1
 10
0.0
 20
0.0
 30
0.0
  3
*U39
  1

  0
TEXT
  5
14C6
  8
0
 62
     0
 10
2170.2380602824228
 20
1528.890561784903
 30
0.0
 40
18.0
  1
850
  0
ENDBLK
  5
14C8
  8
0
  0
BLOCK
  8
0
  2
*U40
 70
     1
 10
0.0
 20
0.0
 30
0.0
  3
*U40
  1

  0
TEXT
  5
14CA
  8
0
 62
     0
 10
2761.9448797166729
 20
1509.1658605321779
 30
0.0
 40
18.0
  1
621
  0
ENDBLK
  5
14CC
  8
0
  0
BLOCK
  8
0
  2
*U41
 70
     1
 10
0.0
 20
0.0
 30
0.0
  3
*U41
  1

  0
TEXT
  5
14CE
  8
0
 62
     0
 10
2914.871285400021
 20
1509.0996313549399
 30
0.0
 40
18.0
  1
621
  0
ENDBLK
  5
14D0
  8
0
  0
BLOCK
  8
0
  2
*U42
 70
     1
 10
0.0
 20
0.0
 30
0.0
  3
*U42
  1

  0
TEXT
  5
14D2
  8
0
 62
     0
 10
2262.756330691117
 20
1538.732089709416
 30
0.0
 40
18.0
  1
620
  0
ENDBLK
  5
14D4
  8
0
  0
BLOCK
  8
0
  2
*U43
 70
     1
 10
0.0
 20
0.0
 30
0.0
  3
*U43
  1

  0
TEXT
  5
14D6
  8
0
 62
     0
 10
3448.1021647842922
 20
1538.599631354941
 30
0.0
 40
18.0
  1
620
  0
ENDBLK
  5
14D8
  8
0
  0
BLOCK
  8
0
  2
*U44
 70
     1
 10
0.0
 20
0.0
 30
0.0
  3
*U44
  1

  0
TEXT
  5
14DA
  8
0
 62
     0
 10
2161.7073645116188
 20
1499.8967636817149
 30
0.0
 40
18.0
  1
897
  0
ENDBLK
  5
14DC
  8
0
  0
BLOCK
  8
0
  2
*U45
 70
     1
 10
0.0
 20
0.0
 30
0.0
  3
*U45
  1

  0
TEXT
  5
14DE
  8
0
 62
     0
 10
3563.5365296434252
 20
1471.5996313549399
 30
0.0
 40
18.0
  1
916
  0
ENDBLK
  5
14E0
  8
0
  0
ENDSEC
  0
SECTION
  2
ENTITIES
  0
LINE
  5
1241
  8
0
 10
333.9554525831681
 20
1148.1723988153601
 30
0.0
 11
1150.4554525831679
 21
1148.1723988153601
 31
0.0
  0
LINE
  5
1242
  8
0
 10
343.9554525831681
 20
1201.172398815361
 30
0.0
 11
1212.455452583167
 21
1201.172398815361
 31
0.0
  0
ARC
  5
1243
  8
0
 10
1150.4554525831679
 20
1118.172398815361
 30
0.0
 40
30.0
 50
0.0
 51
90.0
  0
LINE
  5
1244
  8
0
 10
247.50105272548899
 20
498.1723988153617
 30
0.0
 11
1212.455452583167
 21
498.1723988153617
 31
0.0
  0
LINE
  5
1245
  8
0
 10
294.45545258316912
 20
528.17239881536034
 30
0.0
 11
1150.4554525831679
 21
528.17239881536034
 31
0.0
  0
LINE
  5
1246
  8
0
 10
1.287800440185036
 20
1134.172398815361
 30
0.0
 11
114.4554525831679
 21
1134.172398815361
 31
0.0
  0
LINE
  5
1247
  8
0
 10
1.287800440185036
 20
1119.172398815361
 30
0.0
 11
114.4554525831679
 21
1119.172398815361
 31
0.0
  0
LINE
  5
1248
  8
0
 10
1212.455452583167
 20
1201.172398815361
 30
0.0
 11
1212.455452583167
 21
498.1723988153617
 31
0.0
  0
LINE
  5
1249
  8
0
 10
1180.455452583167
 20
1118.172398815361
 30
0.0
 11
1180.455452583167
 21
558.17239881536034
 31
0.0
  0
ARC
  5
124A
  8
0
 10
1150.4554525831679
 20
558.17239881536034
 30
0.0
 40
30.0
 50
270.0
 51
0.0
  0
LINE
  5
124B
  8
0
 10
264.45545258316821
 20
984.17239881536045
 30
0.0
 11
264.45545258316821
 21
558.17239881536034
 31
0.0
  0
ARC
  5
124C
  8
0
 10
294.45545258316912
 20
558.17239881536034
 30
0.0
 40
30.0
 50
180.0
 51
270.0
  0
LINE
  5
124D
  8
0
 10
249.45545258316909
 20
984.17239881536045
 30
0.0
 11
249.45545258316909
 21
251.70272727478351
 31
0.0
  0
ARC
  5
124E
  8
0
 10
114.4554525831679
 20
984.17239881536045
 30
0.0
 40
150.0
 50
0.0
 51
90.0
  0
ARC
  5
124F
  8
0
 10
114.4554525831679
 20
984.17239881536045
 30
0.0
 40
135.0
 50
0.0
 51
90.0
  0
LINE
  5
1250
  8
0
 10
1.287800440185036
 20
1134.172398815361
 30
0.0
 11
1.287800440185036
 21
1119.172398815361
 31
0.0
  0
LINE
  5
1251
  8
0
 10
343.9554525831681
 20
1201.172398815361
 30
0.0
 11
338.95545258316821
 21
1173.172398815361
 31
0.0
  0
LINE
  5
1252
  8
0
 10
338.95545258316821
 20
1173.172398815361
 30
0.0
 11
333.9554525831681
 21
1173.172398815361
 31
0.0
  0
LINE
  5
1253
  8
0
 10
333.9554525831681
 20
1173.172398815361
 30
0.0
 11
333.9554525831681
 21
1148.1723988153601
 31
0.0
  0
LINE
  5
1254
  8
0
 10
1153.8556659941371
 20
619.36061343129029
 30
0.0
 11
1153.8556659941371
 21
1099.3606134312899
 31
0.0
  0
LINE
  5
1255
  8
0
 10
1153.8556659941371
 20
1099.3606134312899
 30
0.0
 11
948.85566599413676
 21
1099.3606134312899
 31
0.0
  0
LINE
  5
1256
  8
0
 10
948.85566599413676
 20
1099.3606134312899
 30
0.0
 11
948.85566599413676
 21
1090.3606134312899
 31
0.0
  0
ARC
  5
1257
  8
0
 10
948.85566599413676
 20
965.36061343129029
 30
0.0
 40
125.0
 50
0.0
 51
90.0
  0
LINE
  5
1258
  8
0
 10
1073.8556659941371
 20
965.36061343129029
 30
0.0
 11
1073.8556659941371
 21
753.3606134312904
 31
0.0
  0
LINE
  5
1259
  8
0
 10
1153.8556659941371
 20
619.36061343129029
 30
0.0
 11
948.85566599413676
 21
619.36061343129029
 31
0.0
  0
LINE
  5
125A
  8
0
 10
948.85566599413676
 20
619.36061343129029
 30
0.0
 11
948.85566599413676
 21
628.3606134312904
 31
0.0
  0
ARC
  5
125B
  8
0
 10
948.85566599413676
 20
753.3606134312904
 30
0.0
 40
125.0
 50
270.0
 51
0.0
  0
LINE
  5
125C
  8
0
 10
925.27855735776552
 20
619.36061343129029
 30
0.0
 11
925.27855735776552
 21
1099.3606134312899
 31
0.0
  0
LINE
  5
125D
  8
0
 10
925.27855735776552
 20
1099.3606134312899
 30
0.0
 11
720.27855735776575
 21
1099.3606134312899
 31
0.0
  0
LINE
  5
125E
  8
0
 10
720.27855735776575
 20
1099.3606134312899
 30
0.0
 11
720.27855735776575
 21
1090.3606134312899
 31
0.0
  0
ARC
  5
125F
  8
0
 10
720.27855735776575
 20
965.36061343129029
 30
0.0
 40
125.0
 50
0.0
 51
90.0
  0
LINE
  5
1260
  8
0
 10
845.27855735776564
 20
965.36061343129029
 30
0.0
 11
845.27855735776564
 21
753.3606134312904
 31
0.0
  0
LINE
  5
1261
  8
0
 10
925.27855735776552
 20
619.36061343129029
 30
0.0
 11
720.27855735776575
 21
619.36061343129029
 31
0.0
  0
LINE
  5
1262
  8
0
 10
720.27855735776575
 20
619.36061343129029
 30
0.0
 11
720.27855735776575
 21
628.3606134312904
 31
0.0
  0
ARC
  5
1263
  8
0
 10
720.27855735776575
 20
753.3606134312904
 30
0.0
 40
125.0
 50
270.0
 51
0.0
  0
LINE
  5
1264
  8
0
 10
698.31110912131976
 20
619.36061343129029
 30
0.0
 11
698.31110912131976
 21
1099.3606134312899
 31
0.0
  0
LINE
  5
1265
  8
0
 10
698.31110912131976
 20
1099.3606134312899
 30
0.0
 11
493.31110912131987
 21
1099.3606134312899
 31
0.0
  0
LINE
  5
1266
  8
0
 10
493.31110912131987
 20
1099.3606134312899
 30
0.0
 11
493.31110912131987
 21
1090.3606134312899
 31
0.0
  0
ARC
  5
1267
  8
0
 10
493.31110912131987
 20
965.36061343129029
 30
0.0
 40
125.0
 50
0.0
 51
90.0
  0
LINE
  5
1268
  8
0
 10
618.31110912131987
 20
965.36061343129029
 30
0.0
 11
618.31110912131987
 21
753.3606134312904
 31
0.0
  0
LINE
  5
1269
  8
0
 10
698.31110912131976
 20
619.36061343129029
 30
0.0
 11
493.31110912131987
 21
619.36061343129029
 31
0.0
  0
LINE
  5
126A
  8
0
 10
493.31110912131987
 20
619.36061343129029
 30
0.0
 11
493.31110912131987
 21
628.3606134312904
 31
0.0
  0
ARC
  5
126B
  8
0
 10
493.31110912131987
 20
753.3606134312904
 30
0.0
 40
125.0
 50
270.0
 51
0.0
  0
ARC
  5
126C
  8
0
 10
275.39424927546361
 20
134.85493254080819
 30
0.0
 40
96.0
 50
180.0
 51
270.0
  0
LINE
  5
126D
  8
0
 10
179.3942492754629
 20
134.85493254080819
 30
0.0
 11
179.3942492754629
 21
242.0026367839354
 31
0.0
  0
LINE
  5
126E
  8
0
 10
69.394249275462926
 20
2.854932540809612
 30
0.0
 11
69.394249275462926
 21
242.0026367839354
 31
0.0
  0
LINE
  5
1270
  8
0
 10
69.394249275462926
 20
2.854932540809612
 30
0.0
 11
786.39424927546349
 21
2.854932540809612
 31
0.0
  0
LINE
  5
1271
  8
0
 10
275.39424927546361
 20
38.85493254080825
 30
0.0
 11
786.39424927546349
 21
38.854932540809607
 31
0.0
  0
LINE
  5
1272
  8
0
 10
916.39424927546349
 20
132.85493254080819
 30
0.0
 11
916.39424927546349
 21
242.0026367839354
 31
0.0
  0
LINE
  5
1273
  8
0
 10
880.39424927546361
 20
132.85493254080819
 30
0.0
 11
880.39424927546361
 21
242.0026367839354
 31
0.0
  0
ARC
  5
1274
  8
0
 10
786.39424927546349
 20
132.85493254080819
 30
0.0
 40
130.0
 50
270.0
 51
0.0
  0
ARC
  5
1275
  8
0
 10
786.39424927546349
 20
132.85493254080819
 30
0.0
 40
94.0
 50
270.0
 51
0.0
  0
LINE
  5
1276
  8
0
 10
69.394249275462926
 20
242.0026367839375
 30
0.0
 11
179.3942492754629
 21
242.0026367839375
 31
0.0
  0
LINE
  5
1277
  8
0
 10
385.39424927546372
 20
38.85493254080734
 30
0.0
 11
385.39424927546372
 21
146.00263678393841
 31
0.0
  0
LINE
  5
1278
  8
0
 10
275.39424927546361
 20
35.618698278311747
 30
0.0
 11
275.39424927546361
 21
278.0026367839385
 31
0.0
  0
ARC
  5
1279
  8
0
 10
481.39424927546372
 20
146.00263678393841
 30
0.0
 40
96.0
 50
90.0
 51
180.0
  0
LINE
  5
127B
  8
0
 10
275.39424927546361
 20
278.0026367839385
 30
0.0
 11
992.39424927546395
 21
278.0026367839385
 31
0.0
  0
LINE
  5
127C
  8
0
 10
1122.3942492754629
 20
38.85493254080734
 30
0.0
 11
1122.3942492754629
 21
148.00263678393841
 31
0.0
  0
LINE
  5
127D
  8
0
 10
1086.3942492754629
 20
38.85493254080734
 30
0.0
 11
1086.3942492754629
 21
148.00263678393841
 31
0.0
  0
ARC
  5
127E
  8
0
 10
992.39424927546395
 20
148.00263678393841
 30
0.0
 40
130.0
 50
0.0
 51
90.0
  0
ARC
  5
127F
  8
0
 10
992.39424927546395
 20
148.00263678393841
 30
0.0
 40
94.0
 50
0.0
 51
90.0
  0
LINE
  5
1280
  8
0
 10
1086.3942492754629
 20
38.85493254080734
 30
0.0
 11
1122.3942492754629
 21
38.854932540809607
 31
0.0
  0
LINE
  5
1281
  8
0
 10
992.39424927546395
 20
242.00263678393841
 30
0.0
 11
481.39424927546372
 21
242.00263678393841
 31
0.0
  0
ARC
  5
1282
  8
0
 10
117.4554525831679
 20
457.70272727478363
 30
0.0
 40
96.0
 50
270.0
 51
0.0
  0
LINE
  5
1283
  8
0
 10
117.4554525831679
 20
361.70272727478368
 30
0.0
 11
10.30774834004114
 21
361.70272727478368
 31
0.0
  0
LINE
  5
1284
  8
0
 10
249.45545258316909
 20
251.70272727478351
 30
0.0
 11
10.30774834004114
 21
251.70272727478351
 31
0.0
  0
LINE
  5
1285
  8
0
 10
213.4554525831679
 20
457.70272727478363
 30
0.0
 11
213.4554525831679
 21
968.70272727478368
 31
0.0
  0
LINE
  5
1286
  8
0
 10
119.4554525831679
 20
1098.702727274783
 30
0.0
 11
10.30774834004114
 21
1098.702727274783
 31
0.0
  0
LINE
  5
1287
  8
0
 10
119.4554525831679
 20
1062.702727274783
 30
0.0
 11
10.30774834004114
 21
1062.702727274783
 31
0.0
  0
ARC
  5
1288
  8
0
 10
119.4554525831679
 20
968.70272727478368
 30
0.0
 40
130.0
 50
0.0
 51
90.0
  0
ARC
  5
1289
  8
0
 10
119.4554525831679
 20
968.70272727478368
 30
0.0
 40
94.0
 50
0.0
 51
90.0
  0
LINE
  5
128A
  8
0
 10
10.30774834003887
 20
251.70272727478351
 30
0.0
 11
10.30774834003887
 21
361.70272727478368
 31
0.0
  0
LINE
  5
128B
  8
0
 10
10.30774834003887
 20
1062.702727274783
 30
0.0
 11
10.30774834003887
 21
1098.702727274783
 31
0.0
  0
ENDSEC
  0
EOF
