  0
SECTION
  2
HEADER
  9
$ACADVER
  1
AC1009
  9
$INSBASE
 10
0.0
 20
0.0
 30
0.0
  9
$EXTMIN
 10
-197.01677252519951
 20
-185.9360810437401
 30
-0.0000000349181948
  9
$EXTMAX
 10
6781.5963543701537
 20
2344.7910816658059
 30
0.0000000814935746
  9
$LIMMIN
 10
0.0
 20
0.0
  9
$LIMMAX
 10
12.0
 20
9.0
  9
$ORTHOMODE
 70
     0
  9
$REGENMODE
 70
     1
  9
$FILLMODE
 70
     1
  9
$QTEXTMODE
 70
     0
  9
$MIRRTEXT
 70
     0
  9
$DRAGMODE
 70
     2
  9
$LTSCALE
 40
1.0
  9
$OSMODE
 70
    37
  9
$ATTMODE
 70
     1
  9
$TEXTSIZE
 40
250.0
  9
$TRACEWID
 40
0.05
  9
$TEXTSTYLE
  7
STANDARD
  9
$CLAYER
  8
DIM
  9
$CELTYPE
  6
BYLAYER
  9
$CECOLOR
 62
   256
  9
$DIMSCALE
 40
250.0
  9
$DIMASZ
 40
0.18
  9
$DIMEXO
 40
0.0625
  9
$DIMDLI
 40
0.38
  9
$DIMRND
 40
0.0
  9
$DIMDLE
 40
0.0
  9
$DIMEXE
 40
0.18
  9
$DIMTP
 40
0.0
  9
$DIMTM
 40
0.0
  9
$DIMTXT
 40
0.18
  9
$DIMCEN
 40
0.09
  9
$DIMTSZ
 40
0.0
  9
$DIMTOL
 70
     0
  9
$DIMLIM
 70
     0
  9
$DIMTIH
 70
     1
  9
$DIMTOH
 70
     1
  9
$DIMSE1
 70
     0
  9
$DIMSE2
 70
     0
  9
$DIMTAD
 70
     0
  9
$DIMZIN
 70
     0
  9
$DIMBLK
  1

  9
$DIMASO
 70
     1
  9
$DIMSHO
 70
     1
  9
$DIMPOST
  1

  9
$DIMAPOST
  1

  9
$DIMALT
 70
     0
  9
$DIMALTD
 70
     2
  9
$DIMALTF
 40
25.399999999999999
  9
$DIMLFAC
 40
1.0
  9
$DIMTOFL
 70
     0
  9
$DIMTVP
 40
0.0
  9
$DIMTIX
 70
     0
  9
$DIMSOXD
 70
     0
  9
$DIMSAH
 70
     0
  9
$DIMBLK1
  1

  9
$DIMBLK2
  1

  9
$DIMSTYLE
  2
STANDARD
  9
$DIMCLRD
 70
     0
  9
$DIMCLRE
 70
     0
  9
$DIMCLRT
 70
     0
  9
$DIMTFAC
 40
1.0
  9
$DIMGAP
 40
0.09
  9
$LUNITS
 70
     2
  9
$LUPREC
 70
     1
  9
$SKETCHINC
 40
0.1
  9
$FILLETRAD
 40
0.0
  9
$AUNITS
 70
     0
  9
$AUPREC
 70
     0
  9
$MENU
  1
.
  9
$ELEVATION
 40
0.0
  9
$PELEVATION
 40
0.0
  9
$THICKNESS
 40
0.0
  9
$LIMCHECK
 70
     0
  9
$BLIPMODE
 70
     0
  9
$CHAMFERA
 40
0.0
  9
$CHAMFERB
 40
0.0
  9
$SKPOLY
 70
     0
  9
$TDCREATE
 40
2456350.509538102
  9
$TDUPDATE
 40
2456514.4691482182
  9
$TDINDWG
 40
0.5368512963
  9
$TDUSRTIMER
 40
0.5368458681
  9
$USRTIMER
 70
     1
  9
$ANGBASE
 50
0.0
  9
$ANGDIR
 70
     0
  9
$PDMODE
 70
     0
  9
$PDSIZE
 40
0.0
  9
$PLINEWID
 40
0.0
  9
$COORDS
 70
     1
  9
$SPLFRAME
 70
     0
  9
$SPLINETYPE
 70
     6
  9
$SPLINESEGS
 70
     8
  9
$ATTDIA
 70
     0
  9
$ATTREQ
 70
     1
  9
$HANDLING
 70
     1
  9
$HANDSEED
  5
141E
  9
$SURFTAB1
 70
     6
  9
$SURFTAB2
 70
     6
  9
$SURFTYPE
 70
     6
  9
$SURFU
 70
     6
  9
$SURFV
 70
     6
  9
$UCSNAME
  2

  9
$UCSORG
 10
0.0
 20
0.0
 30
0.0
  9
$UCSXDIR
 10
1.0
 20
0.0
 30
0.0
  9
$UCSYDIR
 10
0.0
 20
1.0
 30
0.0
  9
$PUCSNAME
  2

  9
$PUCSORG
 10
0.0
 20
0.0
 30
0.0
  9
$PUCSXDIR
 10
1.0
 20
0.0
 30
0.0
  9
$PUCSYDIR
 10
0.0
 20
1.0
 30
0.0
  9
$USERI1
 70
     0
  9
$USERI2
 70
     0
  9
$USERI3
 70
     0
  9
$USERI4
 70
     0
  9
$USERI5
 70
     0
  9
$USERR1
 40
0.0
  9
$USERR2
 40
0.0
  9
$USERR3
 40
0.0
  9
$USERR4
 40
0.0
  9
$USERR5
 40
0.0
  9
$WORLDVIEW
 70
     1
  9
$SHADEDGE
 70
     3
  9
$SHADEDIF
 70
    70
  9
$TILEMODE
 70
     1
  9
$MAXACTVP
 70
    64
  9
$PLIMCHECK
 70
     0
  9
$PEXTMIN
 10
0.0
 20
0.0
 30
0.0
  9
$PEXTMAX
 10
0.0
 20
0.0
 30
0.0
  9
$PLIMMIN
 10
0.0
 20
0.0
  9
$PLIMMAX
 10
12.0
 20
9.0
  9
$UNITMODE
 70
     0
  9
$VISRETAIN
 70
     1
  9
$PLINEGEN
 70
     0
  9
$PSLTSCALE
 70
     1
  0
ENDSEC
  0
SECTION
  2
TABLES
  0
TABLE
  2
VPORT
 70
     1
  0
VPORT
  2
*ACTIVE
 70
     0
 10
0.0
 20
0.0
 11
1.0
 21
1.0
 12
1673.07955477216
 22
248.72708862982901
 13
0.0
 23
0.0
 14
0.5
 24
0.5
 15
0.5
 25
0.5
 16
0.0
 26
0.0
 36
1.0
 17
0.0
 27
0.0
 37
0.0
 40
3587.3840450276562
 41
2.0743169398907102
 42
50.0
 43
0.0
 44
0.0
 50
0.0
 51
0.0
 71
     0
 72
  1000
 73
     1
 74
     2
 75
     0
 76
     1
 77
     0
 78
     0
  0
ENDTAB
  0
TABLE
  2
LTYPE
 70
     3
  0
LTYPE
  2
CONTINUOUS
 70
     0
  3
Solid line
 72
    65
 73
     0
 40
0.0
  0
ENDTAB
  0
TABLE
  2
LAYER
 70
     8
  0
LAYER
  2
0
 70
     0
 62
     7
  6
CONTINUOUS
  0
LAYER
  2
DEFPOINTS
 70
     0
 62
     7
  6
CONTINUOUS
  0
LAYER
  2
DIM
 70
     0
 62
     5
  6
CONTINUOUS
  0
ENDTAB
  0
TABLE
  2
STYLE
 70
     2
  0
STYLE
  2
STANDARD
 70
     0
 40
0.0
 41
1.0
 50
0.0
 71
     0
 42
250.0
  3
txt
  4

  0
STYLE
  2
ANNOTATIVE
 70
     0
 40
0.0
 41
1.0
 50
0.0
 71
     0
 42
0.2
  3
txt
  4

  0
ENDTAB
  0
TABLE
  2
VIEW
 70
     6
  0
ENDTAB
  0
TABLE
  2
UCS
 70
     0
  0
ENDTAB
  0
TABLE
  2
APPID
 70
    11
  0
APPID
  2
ACAD
 70
     0
  0
APPID
  2
ACADANNOPO
 70
     0
  0
APPID
  2
ACADANNOTATIVE
 70
     0
  0
APPID
  2
ACAD_DSTYLE_DIMJAG
 70
     0
  0
APPID
  2
ACAD_DSTYLE_DIMTALN
 70
     0
  0
APPID
  2
ACAD_MLEADERVER
 70
     0
  0
APPID
  2
ACAD_NAV_VCDISPLAY
 70
     0
  0
APPID
  2
ACAD_EXEMPT_FROM_CAD_STANDARDS
 70
     0
  0
APPID
  2
ACAECLAYERSTANDARD
 70
     0
  0
APPID
  2
ACCMTRANSPARENCY
 70
     0
  0
APPID
  2
ACAD_PSEXT
 70
     0
  0
ENDTAB
  0
TABLE
  2
DIMSTYLE
 70
     3
  0
DIMSTYLE
  2
STANDARD
 70
     0
  3

  4

  5

  6

  7

 40
250.0
 41
0.18
 42
0.0625
 43
0.38
 44
0.18
 45
0.0
 46
0.0
 47
0.0
 48
0.0
140
0.18
141
0.09
142
0.0
143
25.399999999999999
144
1.0
145
0.0
146
1.0
147
0.09
 71
     0
 72
     0
 73
     1
 74
     1
 75
     0
 76
     0
 77
     0
 78
     0
170
     0
171
     2
172
     0
173
     0
174
     0
175
     0
176
     0
177
     0
178
     0
  0
DIMSTYLE
  2
ANNOTATIVE
 70
     0
  3

  4

  5

  6

  7

 40
0.0
 41
0.18
 42
0.0625
 43
0.38
 44
0.18
 45
0.0
 46
0.0
 47
0.0
 48
0.0
140
0.18
141
0.09
142
0.0
143
25.399999999999999
144
1.0
145
0.0
146
1.0
147
0.09
 71
     0
 72
     0
 73
     1
 74
     1
 75
     0
 76
     0
 77
     0
 78
     0
170
     0
171
     2
172
     0
173
     0
174
     0
175
     0
176
     0
177
     0
178
     0
  0
ENDTAB
  0
ENDSEC
  0
SECTION
  2
BLOCKS
  0
BLOCK
  8
0
  2
$MODEL_SPACE
 70
     0
 10
0.0
 20
0.0
 30
0.0
  3
$MODEL_SPACE
  1

  0
ENDBLK
  5
21
  8
0
  0
BLOCK
 67
     1
  8
0
  2
$PAPER_SPACE
 70
     0
 10
0.0
 20
0.0
 30
0.0
  3
$PAPER_SPACE
  1

  0
ENDBLK
  5
5B
 67
     1
  8
0
  0
BLOCK
  8
0
  2
*D1
 70
     1
 10
0.0
 20
0.0
 30
0.0
  3
*D1
  1

  0
LINE
  5
F70
  8
0
 62
     0
 10
7241.1059650250181
 20
1981.2387166850001
 30
0.0
 11
7241.1059650250181
 21
2206.657347290105
 31
0.0
  0
LINE
  5
F71
  8
0
 62
     0
 10
8186.1059650250172
 20
1981.2387166850001
 30
0.0
 11
8186.1059650250172
 21
2206.657347290105
 31
0.0
  0
LINE
  5
F72
  8
0
 62
     0
 10
7286.1059650250172
 20
2161.657347290105
 30
0.0
 11
7641.2253374670372
 21
2161.657347290105
 31
0.0
  0
LINE
  5
F73
  8
0
 62
     0
 10
8141.1059650250172
 20
2161.657347290105
 30
0.0
 11
7785.9865925829981
 21
2161.657347290105
 31
0.0
  0
SOLID
  5
F74
  8
0
 62
     0
 10
7286.1059650250172
 20
2169.1573472901059
 30
0.0
 11
7286.1059650250172
 21
2154.1573472901059
 31
0.0
 12
7241.1059650250181
 22
2161.657347290105
 32
0.0
 13
7241.1059650250181
 23
2161.657347290105
 33
0.0
  0
SOLID
  5
F75
  8
0
 62
     0
 10
8141.1059650250172
 20
2169.1573472901059
 30
0.0
 11
8141.1059650250172
 21
2154.1573472901059
 31
0.0
 12
8186.1059650250172
 22
2161.657347290105
 32
0.0
 13
8186.1059650250172
 23
2161.657347290105
 33
0.0
  0
INSERT
  5
F76
  8
DIM
  2
*U19
 10
0.0
 20
0.0
 30
0.0
  0
POINT
  5
F77
  8
DEFPOINTS
 62
     0
 10
7241.1059650250181
 20
1965.6137166850001
 30
0.0
  0
POINT
  5
F78
  8
DEFPOINTS
 62
     0
 10
8186.1059650250172
 20
1965.6137166850001
 30
0.0
  0
POINT
  5
F79
  8
DEFPOINTS
 62
     0
 10
8186.1059650250172
 20
2161.657347290105
 30
0.0
  0
ENDBLK
  5
F59
  8
0
  0
BLOCK
  8
0
  2
*D2
 70
     1
 10
0.0
 20
0.0
 30
0.0
  3
*D2
  1

  0
LINE
  5
F89
  8
0
 62
     0
 10
8186.1059650250172
 20
1996.8637166850001
 30
0.0
 11
8186.1059650250172
 21
2204.8078175066862
 31
0.0
  0
LINE
  5
F8A
  8
0
 62
     0
 10
9141.1059650250172
 20
1981.2387166850001
 30
0.0
 11
9141.1059650250172
 21
2204.8078175066862
 31
0.0
  0
LINE
  5
F8B
  8
0
 62
     0
 10
8231.1059650250172
 20
2159.8078175066862
 30
0.0
 11
8591.2253374670363
 21
2159.8078175066862
 31
0.0
  0
LINE
  5
F8C
  8
0
 62
     0
 10
9096.1059650250172
 20
2159.8078175066862
 30
0.0
 11
8735.9865925829981
 21
2159.8078175066862
 31
0.0
  0
SOLID
  5
F8D
  8
0
 62
     0
 10
8231.1059650250172
 20
2167.3078175066862
 30
0.0
 11
8231.1059650250172
 21
2152.3078175066862
 31
0.0
 12
8186.1059650250172
 22
2159.8078175066862
 32
0.0
 13
8186.1059650250172
 23
2159.8078175066862
 33
0.0
  0
SOLID
  5
F8E
  8
0
 62
     0
 10
9096.1059650250172
 20
2167.3078175066862
 30
0.0
 11
9096.1059650250172
 21
2152.3078175066862
 31
0.0
 12
9141.1059650250172
 22
2159.8078175066862
 32
0.0
 13
9141.1059650250172
 23
2159.8078175066862
 33
0.0
  0
INSERT
  5
F8F
  8
DIM
  2
*U20
 10
0.0
 20
0.0
 30
0.0
  0
POINT
  5
F90
  8
DEFPOINTS
 62
     0
 10
8186.1059650250172
 20
1981.2387166850001
 30
0.0
  0
POINT
  5
F91
  8
DEFPOINTS
 62
     0
 10
9141.1059650250172
 20
1965.6137166850001
 30
0.0
  0
POINT
  5
F92
  8
DEFPOINTS
 62
     0
 10
9141.1059650250172
 20
2159.8078175066862
 30
0.0
  0
ENDBLK
  5
F7D
  8
0
  0
BLOCK
  8
0
  2
*D3
 70
     1
 10
0.0
 20
0.0
 30
0.0
  3
*D3
  1

  0
LINE
  5
FA4
  8
0
 62
     0
 10
9156.7309650250172
 20
1965.6137166850001
 30
0.0
 11
9381.5156511160367
 21
1965.6137166850001
 31
0.0
  0
LINE
  5
FA5
  8
0
 62
     0
 10
9156.7309650250172
 20
1905.6137166850001
 30
0.0
 11
9381.5156511160367
 21
1905.6137166850001
 31
0.0
  0
LINE
  5
FA6
  8
0
 62
     0
 10
9336.5156511160385
 20
2010.6137166850001
 30
0.0
 11
9336.5156511160385
 21
2055.6137166849999
 31
0.0
  0
LINE
  5
FA7
  8
0
 62
     0
 10
9336.5156511160385
 20
1860.6137166850001
 30
0.0
 11
9336.5156511160385
 21
1815.6137166850001
 31
0.0
  0
LINE
  5
FA8
  8
0
 62
     0
 10
9336.5156511160385
 20
1815.6137166850001
 30
0.0
 11
9291.5156511160385
 21
1815.6137166850001
 31
0.0
  0
SOLID
  5
FA9
  8
0
 62
     0
 10
9329.0156511160385
 20
2010.6137166850001
 30
0.0
 11
9344.0156511160385
 21
2010.6137166850001
 31
0.0
 12
9336.5156511160385
 22
1965.6137166850001
 32
0.0
 13
9336.5156511160385
 23
1965.6137166850001
 33
0.0
  0
SOLID
  5
FAA
  8
0
 62
     0
 10
9329.0156511160385
 20
1860.6137166850001
 30
0.0
 11
9344.0156511160385
 21
1860.6137166850001
 31
0.0
 12
9336.5156511160385
 22
1905.6137166850001
 32
0.0
 13
9336.5156511160385
 23
1905.6137166850001
 33
0.0
  0
INSERT
  5
FAB
  8
DIM
  2
*U21
 10
0.0
 20
0.0
 30
0.0
  0
POINT
  5
FAC
  8
DEFPOINTS
 62
     0
 10
9141.1059650250172
 20
1965.6137166850001
 30
0.0
  0
POINT
  5
FAD
  8
DEFPOINTS
 62
     0
 10
9141.1059650250172
 20
1905.6137166850001
 30
0.0
  0
POINT
  5
FAE
  8
DEFPOINTS
 62
     0
 10
9336.5156511160385
 20
1905.6137166850001
 30
0.0
  0
ENDBLK
  5
F97
  8
0
  0
BLOCK
  8
0
  2
*D4
 70
     1
 10
0.0
 20
0.0
 30
0.0
  3
*D4
  1

  0
LINE
  5
FBF
  8
0
 62
     0
 10
7241.1059650250181
 20
869.98871668500021
 30
0.0
 11
7241.1059650250181
 21
661.80249791630365
 31
0.0
  0
LINE
  5
FC0
  8
0
 62
     0
 10
7611.1059650250172
 20
869.98871668500021
 30
0.0
 11
7611.1059650250172
 21
661.80249791630365
 31
0.0
  0
LINE
  5
FC1
  8
0
 62
     0
 10
7286.1059650250172
 20
706.80249791630376
 30
0.0
 11
7353.9862515188788
 21
706.80249791630376
 31
0.0
  0
LINE
  5
FC2
  8
0
 62
     0
 10
7566.1059650250181
 20
706.80249791630376
 30
0.0
 11
7498.2256785311556
 21
706.80249791630376
 31
0.0
  0
SOLID
  5
FC3
  8
0
 62
     0
 10
7286.1059650250172
 20
714.30249791630365
 30
0.0
 11
7286.1059650250172
 21
699.30249791630365
 31
0.0
 12
7241.1059650250181
 22
706.80249791630376
 32
0.0
 13
7241.1059650250181
 23
706.80249791630376
 33
0.0
  0
SOLID
  5
FC4
  8
0
 62
     0
 10
7566.1059650250181
 20
714.30249791630365
 30
0.0
 11
7566.1059650250181
 21
699.30249791630365
 31
0.0
 12
7611.1059650250172
 22
706.80249791630376
 32
0.0
 13
7611.1059650250172
 23
706.80249791630376
 33
0.0
  0
INSERT
  5
FC5
  8
DIM
  2
*U22
 10
0.0
 20
0.0
 30
0.0
  0
POINT
  5
FC6
  8
DEFPOINTS
 62
     0
 10
7241.1059650250181
 20
885.61371668500021
 30
0.0
  0
POINT
  5
FC7
  8
DEFPOINTS
 62
     0
 10
7611.1059650250172
 20
885.61371668500021
 30
0.0
  0
POINT
  5
FC8
  8
DEFPOINTS
 62
     0
 10
7611.1059650250172
 20
706.80249791630376
 30
0.0
  0
ENDBLK
  5
FB3
  8
0
  0
BLOCK
  8
0
  2
*D5
 70
     1
 10
0.0
 20
0.0
 30
0.0
  3
*D5
  1

  0
LINE
  5
FD9
  8
0
 62
     0
 10
4908.2165328555093
 20
1970.3385976532461
 30
0.0
 11
4908.2165328555093
 21
2076.0580447621351
 31
0.0
  0
LINE
  5
FDA
  8
0
 62
     0
 10
7128.2165328555102
 20
1950.3385976532461
 30
0.0
 11
7128.2165328555102
 21
2076.0580447621351
 31
0.0
  0
LINE
  5
FDB
  8
0
 62
     0
 10
4953.2165328555102
 20
2031.0580447621339
 30
0.0
 11
5928.2165328555093
 21
2031.0580447621339
 31
0.0
  0
LINE
  5
FDC
  8
0
 62
     0
 10
7083.2165328555093
 20
2031.0580447621339
 30
0.0
 11
6108.2165328555093
 21
2031.0580447621339
 31
0.0
  0
SOLID
  5
FDD
  8
0
 62
     0
 10
4953.2165328555102
 20
2038.5580447621339
 30
0.0
 11
4953.2165328555102
 21
2023.5580447621339
 31
0.0
 12
4908.2165328555093
 22
2031.0580447621339
 32
0.0
 13
4908.2165328555093
 23
2031.0580447621339
 33
0.0
  0
SOLID
  5
FDE
  8
0
 62
     0
 10
7083.2165328555093
 20
2038.5580447621339
 30
0.0
 11
7083.2165328555093
 21
2023.5580447621339
 31
0.0
 12
7128.2165328555102
 22
2031.0580447621339
 32
0.0
 13
7128.2165328555102
 23
2031.0580447621339
 33
0.0
  0
INSERT
  5
FDF
  8
DIM
  2
*U23
 10
0.0
 20
0.0
 30
0.0
  0
POINT
  5
FE0
  8
DEFPOINTS
 62
     0
 10
4908.2165328555093
 20
1954.7135976532461
 30
0.0
  0
POINT
  5
FE1
  8
DEFPOINTS
 62
     0
 10
7128.2165328555102
 20
1934.7135976532461
 30
0.0
  0
POINT
  5
FE2
  8
DEFPOINTS
 62
     0
 10
7128.2165328555102
 20
2031.0580447621339
 30
0.0
  0
ENDBLK
  5
FCD
  8
0
  0
BLOCK
  8
0
  2
*D6
 70
     1
 10
0.0
 20
0.0
 30
0.0
  3
*D6
  1

  0
LINE
  5
FF4
  8
0
 62
     0
 10
4892.5915328555093
 20
1954.7135976532461
 30
0.0
 11
4747.7479670419516
 21
1954.7135976532461
 31
0.0
  0
LINE
  5
FF5
  8
0
 62
     0
 10
4892.5915328555093
 20
1894.7135976532461
 30
0.0
 11
4747.7479670419516
 21
1894.7135976532461
 31
0.0
  0
LINE
  5
FF6
  8
0
 62
     0
 10
4792.7479670419534
 20
1999.7135976532461
 30
0.0
 11
4792.7479670419534
 21
2044.713597653247
 31
0.0
  0
LINE
  5
FF7
  8
0
 62
     0
 10
4792.7479670419534
 20
1849.7135976532461
 30
0.0
 11
4792.7479670419534
 21
1804.7135976532461
 31
0.0
  0
LINE
  5
FF8
  8
0
 62
     0
 10
4792.7479670419534
 20
1804.7135976532461
 30
0.0
 11
4747.7479670419516
 21
1804.7135976532461
 31
0.0
  0
SOLID
  5
FF9
  8
0
 62
     0
 10
4785.2479670419534
 20
1999.7135976532461
 30
0.0
 11
4800.2479670419516
 21
1999.7135976532461
 31
0.0
 12
4792.7479670419534
 22
1954.7135976532461
 32
0.0
 13
4792.7479670419534
 23
1954.7135976532461
 33
0.0
  0
SOLID
  5
FFA
  8
0
 62
     0
 10
4785.2479670419534
 20
1849.7135976532461
 30
0.0
 11
4800.2479670419516
 21
1849.7135976532461
 31
0.0
 12
4792.7479670419534
 22
1894.7135976532461
 32
0.0
 13
4792.7479670419534
 23
1894.7135976532461
 33
0.0
  0
INSERT
  5
FFB
  8
DIM
  2
*U24
 10
0.0
 20
0.0
 30
0.0
  0
POINT
  5
FFC
  8
DEFPOINTS
 62
     0
 10
4908.2165328555093
 20
1954.7135976532461
 30
0.0
  0
POINT
  5
FFD
  8
DEFPOINTS
 62
     0
 10
4908.2165328555093
 20
1894.7135976532461
 30
0.0
  0
POINT
  5
FFE
  8
DEFPOINTS
 62
     0
 10
4792.7479670419534
 20
1894.7135976532461
 30
0.0
  0
ENDBLK
  5
FE7
  8
0
  0
BLOCK
  8
0
  2
*D7
 70
     1
 10
0.0
 20
0.0
 30
0.0
  3
*D7
  1

  0
LINE
  5
1010
  8
0
 62
     0
 10
4892.5915328555093
 20
1509.5564045645931
 30
0.0
 11
4747.7479670419516
 21
1509.5564045645931
 31
0.0
  0
LINE
  5
1011
  8
0
 62
     0
 10
4892.5915328555093
 20
1438.5564045645931
 30
0.0
 11
4747.7479670419516
 21
1438.5564045645931
 31
0.0
  0
LINE
  5
1012
  8
0
 62
     0
 10
4792.7479670419534
 20
1554.5564045645931
 30
0.0
 11
4792.7479670419534
 21
1599.5564045645931
 31
0.0
  0
LINE
  5
1013
  8
0
 62
     0
 10
4792.7479670419534
 20
1393.5564045645931
 30
0.0
 11
4792.7479670419534
 21
1348.5564045645931
 31
0.0
  0
LINE
  5
1014
  8
0
 62
     0
 10
4792.7479670419534
 20
1348.5564045645931
 30
0.0
 11
4747.7479670419516
 21
1348.5564045645931
 31
0.0
  0
SOLID
  5
1015
  8
0
 62
     0
 10
4785.2479670419534
 20
1554.5564045645931
 30
0.0
 11
4800.2479670419516
 21
1554.5564045645931
 31
0.0
 12
4792.7479670419534
 22
1509.5564045645931
 32
0.0
 13
4792.7479670419534
 23
1509.5564045645931
 33
0.0
  0
SOLID
  5
1016
  8
0
 62
     0
 10
4785.2479670419534
 20
1393.5564045645931
 30
0.0
 11
4800.2479670419516
 21
1393.5564045645931
 31
0.0
 12
4792.7479670419534
 22
1438.5564045645931
 32
0.0
 13
4792.7479670419534
 23
1438.5564045645931
 33
0.0
  0
INSERT
  5
1017
  8
DIM
  2
*U25
 10
0.0
 20
0.0
 30
0.0
  0
POINT
  5
1018
  8
DEFPOINTS
 62
     0
 10
4908.2165328555093
 20
1509.5564045645931
 30
0.0
  0
POINT
  5
1019
  8
DEFPOINTS
 62
     0
 10
4908.2165328555093
 20
1438.5564045645931
 30
0.0
  0
POINT
  5
101A
  8
DEFPOINTS
 62
     0
 10
4792.7479670419534
 20
1438.5564045645931
 30
0.0
  0
ENDBLK
  5
1003
  8
0
  0
BLOCK
  8
0
  2
*D8
 70
     1
 10
0.0
 20
0.0
 30
0.0
  3
*D8
  1

  0
LINE
  5
102B
  8
0
 62
     0
 10
5505.7218372537354
 20
778.60379161657022
 30
0.0
 11
5505.7218372537354
 21
619.66892055310745
 31
0.0
  0
LINE
  5
102C
  8
0
 62
     0
 10
6605.7218372537354
 20
778.60379161657045
 30
0.0
 11
6605.7218372537354
 21
619.66892055310745
 31
0.0
  0
LINE
  5
102D
  8
0
 62
     0
 10
5550.7218372537354
 20
664.66892055310745
 30
0.0
 11
5968.2235425743347
 21
664.66892055310745
 31
0.0
  0
LINE
  5
102E
  8
0
 62
     0
 10
6560.7218372537363
 20
664.66892055310745
 30
0.0
 11
6143.2201319331352
 21
664.66892055310745
 31
0.0
  0
SOLID
  5
102F
  8
0
 62
     0
 10
5550.7218372537354
 20
672.16892055310745
 30
0.0
 11
5550.7218372537354
 21
657.16892055310745
 31
0.0
 12
5505.7218372537354
 22
664.66892055310745
 32
0.0
 13
5505.7218372537354
 23
664.66892055310745
 33
0.0
  0
SOLID
  5
1030
  8
0
 62
     0
 10
6560.7218372537363
 20
672.16892055310745
 30
0.0
 11
6560.7218372537363
 21
657.16892055310745
 31
0.0
 12
6605.7218372537354
 22
664.66892055310745
 32
0.0
 13
6605.7218372537354
 23
664.66892055310745
 33
0.0
  0
INSERT
  5
1031
  8
DIM
  2
*U26
 10
0.0
 20
0.0
 30
0.0
  0
POINT
  5
1032
  8
DEFPOINTS
 62
     0
 10
5505.7218372537354
 20
794.22879161657022
 30
0.0
  0
POINT
  5
1033
  8
DEFPOINTS
 62
     0
 10
6605.7218372537354
 20
794.22879161657045
 30
0.0
  0
POINT
  5
1034
  8
DEFPOINTS
 62
     0
 10
6605.7218372537354
 20
664.66892055310745
 30
0.0
  0
ENDBLK
  5
101F
  8
0
  0
BLOCK
  8
0
  2
*D9
 70
     1
 10
0.0
 20
0.0
 30
0.0
  3
*D9
  1

  0
LINE
  5
1045
  8
0
 62
     0
 10
5505.7218372537354
 20
762.97879161657022
 30
0.0
 11
5505.7218372537354
 21
510.650013491062
 31
0.0
  0
LINE
  5
1046
  8
0
 62
     0
 10
6625.7218372537354
 20
1060.603791616571
 30
0.0
 11
6625.7218372537354
 21
510.650013491062
 31
0.0
  0
LINE
  5
1047
  8
0
 62
     0
 10
5550.7218372537354
 20
555.65001349106205
 30
0.0
 11
5978.2235425743356
 21
555.65001349106205
 31
0.0
  0
LINE
  5
1048
  8
0
 62
     0
 10
6580.7218372537354
 20
555.65001349106205
 30
0.0
 11
6153.2201319331352
 21
555.65001349106205
 31
0.0
  0
SOLID
  5
1049
  8
0
 62
     0
 10
5550.7218372537354
 20
563.15001349106205
 30
0.0
 11
5550.7218372537354
 21
548.15001349106205
 31
0.0
 12
5505.7218372537354
 22
555.65001349106205
 32
0.0
 13
5505.7218372537354
 23
555.65001349106205
 33
0.0
  0
SOLID
  5
104A
  8
0
 62
     0
 10
6580.7218372537354
 20
563.15001349106205
 30
0.0
 11
6580.7218372537354
 21
548.15001349106205
 31
0.0
 12
6625.7218372537354
 22
555.65001349106205
 32
0.0
 13
6625.7218372537354
 23
555.65001349106205
 33
0.0
  0
INSERT
  5
104B
  8
DIM
  2
*U27
 10
0.0
 20
0.0
 30
0.0
  0
POINT
  5
104C
  8
DEFPOINTS
 62
     0
 10
5505.7218372537354
 20
778.60379161657022
 30
0.0
  0
POINT
  5
104D
  8
DEFPOINTS
 62
     0
 10
6625.7218372537354
 20
1076.228791616571
 30
0.0
  0
POINT
  5
104E
  8
DEFPOINTS
 62
     0
 10
6625.7218372537354
 20
555.65001349106205
 30
0.0
  0
ENDBLK
  5
1039
  8
0
  0
BLOCK
  8
0
  2
*D12
 70
     1
 10
0.0
 20
0.0
 30
0.0
  3
*D12
  1

  0
LINE
  5
1332
  8
DIM
 62
     0
 10
-0.000000000000001
 20
-15.625
 30
0.0
 11
-0.0000000000000114
 21
-185.81188758956981
 31
0.0
  0
LINE
  5
1333
  8
DIM
 62
     0
 10
370.0
 20
-15.625
 30
0.0
 11
370.0
 21
-185.81188758956981
 31
0.0
  0
LINE
  5
1334
  8
DIM
 62
     0
 10
44.999999999999993
 20
-140.81188758956969
 30
0.0
 11
112.88028649386079
 21
-140.81188758956969
 31
0.0
  0
LINE
  5
1335
  8
DIM
 62
     0
 10
325.0
 20
-140.81188758956969
 30
0.0
 11
257.11971350613919
 21
-140.81188758956969
 31
0.0
  0
SOLID
  5
1336
  8
DIM
 62
     0
 10
44.999999999999993
 20
-133.31188758956969
 30
0.0
 11
44.999999999999993
 21
-148.31188758956981
 31
0.0
 12
-0.0000000000000086
 22
-140.81188758956969
 32
0.0
 13
-0.0000000000000086
 23
-140.81188758956969
 33
0.0
  0
SOLID
  5
1337
  8
DIM
 62
     0
 10
325.0
 20
-133.31188758956969
 30
0.0
 11
325.0
 21
-148.31188758956981
 31
0.0
 12
370.0
 22
-140.81188758956969
 32
0.0
 13
370.0
 23
-140.81188758956969
 33
0.0
  0
INSERT
  5
1338
  8
DIM
  2
*U32
 10
0.0
 20
0.0
 30
0.0
  0
POINT
  5
1339
  8
DEFPOINTS
 62
     0
 10
0.0
 20
0.0
 30
0.0
  0
POINT
  5
133A
  8
DEFPOINTS
 62
     0
 10
370.0
 20
0.0
 30
0.0
  0
POINT
  5
133B
  8
DEFPOINTS
 62
     0
 10
370.0
 20
-140.81188758956969
 30
0.0
  0
ENDBLK
  5
112A
  8
0
  0
BLOCK
  8
0
  2
*D13
 70
     1
 10
0.0
 20
0.0
 30
0.0
  3
*D13
  1

  0
LINE
  5
133C
  8
DIM
 62
     0
 10
-15.625
 20
60.0
 30
0.0
 11
-107.0650190726119
 21
60.000000000000028
 31
0.0
  0
LINE
  5
133D
  8
DIM
 62
     0
 10
-15.625
 20
0.0000000000000044
 30
0.0
 11
-107.0650190726119
 21
0.0000000000000303
 31
0.0
  0
LINE
  5
133E
  8
DIM
 62
     0
 10
-62.065019072611882
 20
105.0
 30
0.0
 11
-62.065019072611868
 21
150.0
 31
0.0
  0
LINE
  5
133F
  8
DIM
 62
     0
 10
-62.065019072611911
 20
-44.999999999999979
 30
0.0
 11
-62.065019072611918
 21
-89.999999999999986
 31
0.0
  0
LINE
  5
1340
  8
DIM
 62
     0
 10
-62.065019072611918
 20
-89.999999999999986
 30
0.0
 11
-107.0650190726119
 21
-89.999999999999986
 31
0.0
  0
SOLID
  5
1341
  8
DIM
 62
     0
 10
-69.565019072611875
 20
105.0
 30
0.0
 11
-54.565019072611882
 21
105.0
 31
0.0
 12
-62.065019072611889
 22
60.000000000000021
 32
0.0
 13
-62.065019072611889
 23
60.000000000000021
 33
0.0
  0
SOLID
  5
1342
  8
DIM
 62
     0
 10
-69.565019072611904
 20
-44.999999999999979
 30
0.0
 11
-54.565019072611911
 21
-44.999999999999979
 31
0.0
 12
-62.065019072611904
 22
0.0000000000000176
 32
0.0
 13
-62.065019072611904
 23
0.0000000000000176
 33
0.0
  0
INSERT
  5
1343
  8
DIM
  2
*U33
 10
0.0
 20
0.0
 30
0.0
  0
POINT
  5
1344
  8
DEFPOINTS
 62
     0
 10
0.0
 20
60.0
 30
0.0
  0
POINT
  5
1345
  8
DEFPOINTS
 62
     0
 10
0.0
 20
0.0
 30
0.0
  0
POINT
  5
1346
  8
DEFPOINTS
 62
     0
 10
-62.065019072611904
 20
0.0000000000000176
 30
0.0
  0
ENDBLK
  5
114E
  8
0
  0
BLOCK
  8
0
  2
*D14
 70
     1
 10
0.0
 20
0.0
 30
0.0
  3
*D14
  1

  0
LINE
  5
117E
  8
0
 62
     0
 10
9753.8912684829556
 20
1240.995994760842
 30
0.0
 11
9753.8912684829556
 21
1120.327557072161
 31
0.0
  0
LINE
  5
117F
  8
0
 62
     0
 10
10658.89126848295
 20
1240.995994760842
 30
0.0
 11
10658.89126848295
 21
1120.327557072161
 31
0.0
  0
LINE
  5
1180
  8
0
 62
     0
 10
9798.8912684829556
 20
1165.327557072161
 30
0.0
 11
10134.010640924969
 21
1165.327557072161
 31
0.0
  0
LINE
  5
1181
  8
0
 62
     0
 10
10613.89126848295
 20
1165.327557072161
 30
0.0
 11
10278.771896040929
 21
1165.327557072161
 31
0.0
  0
SOLID
  5
1182
  8
0
 62
     0
 10
9798.8912684829556
 20
1172.8275570721601
 30
0.0
 11
9798.8912684829556
 21
1157.827557072161
 31
0.0
 12
9753.8912684829556
 22
1165.327557072161
 32
0.0
 13
9753.8912684829556
 23
1165.327557072161
 33
0.0
  0
SOLID
  5
1183
  8
0
 62
     0
 10
10613.89126848295
 20
1172.8275570721601
 30
0.0
 11
10613.89126848295
 21
1157.827557072161
 31
0.0
 12
10658.89126848295
 22
1165.327557072161
 32
0.0
 13
10658.89126848295
 23
1165.327557072161
 33
0.0
  0
INSERT
  5
1184
  8
DIM
  2
*U29
 10
0.0
 20
0.0
 30
0.0
  0
POINT
  5
1185
  8
DEFPOINTS
 62
     0
 10
9753.8912684829556
 20
1256.620994760842
 30
0.0
  0
POINT
  5
1186
  8
DEFPOINTS
 62
     0
 10
10658.89126848295
 20
1256.620994760842
 30
0.0
  0
POINT
  5
1187
  8
DEFPOINTS
 62
     0
 10
10658.89126848295
 20
1165.327557072161
 30
0.0
  0
ENDBLK
  5
1172
  8
0
  0
BLOCK
  8
0
  2
*D15
 70
     1
 10
0.0
 20
0.0
 30
0.0
  3
*D15
  1

  0
LINE
  5
11BA
  8
0
 62
     0
 10
10658.89126848295
 20
1240.995994760842
 30
0.0
 11
10658.89126848295
 21
1131.1538622973039
 31
0.0
  0
LINE
  5
11BB
  8
0
 62
     0
 10
11598.89126848295
 20
1240.995994760842
 30
0.0
 11
11598.89126848295
 21
1131.1538622973039
 31
0.0
  0
LINE
  5
11BC
  8
0
 62
     0
 10
10703.89126848295
 20
1176.1538622973051
 30
0.0
 11
11056.75620709141
 21
1176.1538622973051
 31
0.0
  0
LINE
  5
11BD
  8
0
 62
     0
 10
11553.89126848295
 20
1176.1538622973051
 30
0.0
 11
11201.02632987449
 21
1176.1538622973051
 31
0.0
  0
SOLID
  5
11BE
  8
0
 62
     0
 10
10703.89126848295
 20
1183.6538622973051
 30
0.0
 11
10703.89126848295
 21
1168.6538622973051
 31
0.0
 12
10658.89126848295
 22
1176.1538622973051
 32
0.0
 13
10658.89126848295
 23
1176.1538622973051
 33
0.0
  0
SOLID
  5
11BF
  8
0
 62
     0
 10
11553.89126848295
 20
1183.6538622973051
 30
0.0
 11
11553.89126848295
 21
1168.6538622973051
 31
0.0
 12
11598.89126848295
 22
1176.1538622973051
 32
0.0
 13
11598.89126848295
 23
1176.1538622973051
 33
0.0
  0
INSERT
  5
11C0
  8
DIM
  2
*U30
 10
0.0
 20
0.0
 30
0.0
  0
POINT
  5
11C1
  8
DEFPOINTS
 62
     0
 10
10658.89126848295
 20
1256.620994760842
 30
0.0
  0
POINT
  5
11C2
  8
DEFPOINTS
 62
     0
 10
11598.89126848295
 20
1256.620994760842
 30
0.0
  0
POINT
  5
11C3
  8
DEFPOINTS
 62
     0
 10
11598.89126848295
 20
1176.1538622973051
 30
0.0
  0
ENDBLK
  5
11AE
  8
0
  0
BLOCK
  8
0
  2
*D16
 70
     1
 10
0.0
 20
0.0
 30
0.0
  3
*D16
  1

  0
LINE
  5
1366
  8
DIM
 62
     0
 10
0.000000000000001
 20
1095.625
 30
0.0
 11
0.0000000000000081
 21
1213.0532453038741
 31
0.0
  0
LINE
  5
1367
  8
DIM
 62
     0
 10
905.0
 20
1095.625
 30
0.0
 11
905.0
 21
1213.0532453038741
 31
0.0
  0
LINE
  5
1368
  8
DIM
 62
     0
 10
45.0
 20
1168.0532453038741
 30
0.0
 11
380.11937244201908
 21
1168.0532453038741
 31
0.0
  0
LINE
  5
1369
  8
DIM
 62
     0
 10
860.0
 20
1168.0532453038741
 30
0.0
 11
524.8806275579808
 21
1168.0532453038741
 31
0.0
  0
SOLID
  5
136A
  8
DIM
 62
     0
 10
45.0
 20
1175.5532453038729
 30
0.0
 11
45.0
 21
1160.5532453038741
 31
0.0
 12
0.0000000000000054
 22
1168.0532453038741
 32
0.0
 13
0.0000000000000054
 23
1168.0532453038741
 33
0.0
  0
SOLID
  5
136B
  8
DIM
 62
     0
 10
860.0
 20
1175.5532453038729
 30
0.0
 11
860.0
 21
1160.5532453038741
 31
0.0
 12
905.0
 22
1168.0532453038741
 32
0.0
 13
905.0
 23
1168.0532453038741
 33
0.0
  0
INSERT
  5
136C
  8
DIM
  2
*U35
 10
0.0
 20
0.0
 30
0.0
  0
POINT
  5
136D
  8
DEFPOINTS
 62
     0
 10
0.0
 20
1080.0
 30
0.0
  0
POINT
  5
136E
  8
DEFPOINTS
 62
     0
 10
905.0
 20
1080.0
 30
0.0
  0
POINT
  5
136F
  8
DEFPOINTS
 62
     0
 10
905.0
 20
1168.0532453038741
 30
0.0
  0
ENDBLK
  5
127B
  8
0
  0
BLOCK
  8
0
  2
*D17
 70
     1
 10
0.0
 20
0.0
 30
0.0
  3
*D17
  1

  0
LINE
  5
1351
  8
DIM
 62
     0
 10
905.0
 20
1095.625
 30
0.0
 11
905.0
 21
1213.0532453038741
 31
0.0
  0
LINE
  5
1352
  8
DIM
 62
     0
 10
1845.0
 20
1095.625
 30
0.0
 11
1845.0
 21
1213.0532453038741
 31
0.0
  0
LINE
  5
1353
  8
DIM
 62
     0
 10
950.0
 20
1168.0532453038741
 30
0.0
 11
1302.864938608458
 21
1168.0532453038741
 31
0.0
  0
LINE
  5
1354
  8
DIM
 62
     0
 10
1800.0
 20
1168.0532453038741
 30
0.0
 11
1447.1350613915411
 21
1168.0532453038741
 31
0.0
  0
SOLID
  5
1355
  8
DIM
 62
     0
 10
950.0
 20
1175.5532453038741
 30
0.0
 11
950.0
 21
1160.5532453038741
 31
0.0
 12
905.0
 22
1168.0532453038741
 32
0.0
 13
905.0
 23
1168.0532453038741
 33
0.0
  0
SOLID
  5
1356
  8
DIM
 62
     0
 10
1800.0
 20
1175.5532453038741
 30
0.0
 11
1800.0
 21
1160.5532453038741
 31
0.0
 12
1845.0
 22
1168.0532453038741
 32
0.0
 13
1845.0
 23
1168.0532453038741
 33
0.0
  0
INSERT
  5
1357
  8
DIM
  2
*U34
 10
0.0
 20
0.0
 30
0.0
  0
POINT
  5
1358
  8
DEFPOINTS
 62
     0
 10
905.0
 20
1080.0
 30
0.0
  0
POINT
  5
1359
  8
DEFPOINTS
 62
     0
 10
1845.0
 20
1080.0
 30
0.0
  0
POINT
  5
135A
  8
DEFPOINTS
 62
     0
 10
1845.0
 20
1168.0532453038741
 30
0.0
  0
ENDBLK
  5
1295
  8
0
  0
BLOCK
  8
0
  2
*D18
 70
     1
 10
0.0
 20
0.0
 30
0.0
  3
*D18
  1

  0
LINE
  5
12E6
  8
0
 62
     0
 10
9729.61986838542
 20
1464.534152602434
 30
0.0
 11
9670.2718004001017
 21
1464.534152602434
 31
0.0
  0
LINE
  5
12E7
  8
0
 62
     0
 10
9729.61986838542
 20
1414.534152602434
 30
0.0
 11
9670.2718004001017
 21
1414.534152602434
 31
0.0
  0
LINE
  5
12E8
  8
0
 62
     0
 10
9715.2718004001017
 20
1509.534152602434
 30
0.0
 11
9715.2718004001017
 21
1554.534152602434
 31
0.0
  0
LINE
  5
12E9
  8
0
 62
     0
 10
9715.2718004001017
 20
1369.534152602434
 30
0.0
 11
9715.2718004001017
 21
1324.534152602434
 31
0.0
  0
LINE
  5
12EA
  8
0
 62
     0
 10
9715.2718004001017
 20
1324.534152602434
 30
0.0
 11
9670.2718004001017
 21
1324.534152602434
 31
0.0
  0
SOLID
  5
12EB
  8
0
 62
     0
 10
9707.7718004001017
 20
1509.534152602434
 30
0.0
 11
9722.7718004001017
 21
1509.534152602434
 31
0.0
 12
9715.2718004001017
 22
1464.534152602434
 32
0.0
 13
9715.2718004001017
 23
1464.534152602434
 33
0.0
  0
SOLID
  5
12EC
  8
0
 62
     0
 10
9707.7718004001017
 20
1369.534152602434
 30
0.0
 11
9722.7718004001017
 21
1369.534152602434
 31
0.0
 12
9715.2718004001017
 22
1414.534152602434
 32
0.0
 13
9715.2718004001017
 23
1414.534152602434
 33
0.0
  0
INSERT
  5
12ED
  8
DIM
  2
*U31
 10
0.0
 20
0.0
 30
0.0
  0
POINT
  5
12EE
  8
DEFPOINTS
 62
     0
 10
9745.24486838542
 20
1464.534152602434
 30
0.0
  0
POINT
  5
12EF
  8
DEFPOINTS
 62
     0
 10
9745.24486838542
 20
1414.534152602434
 30
0.0
  0
POINT
  5
12F0
  8
DEFPOINTS
 62
     0
 10
9715.2718004001017
 20
1414.534152602434
 30
0.0
  0
ENDBLK
  5
12D9
  8
0
  0
BLOCK
  8
0
  2
*U19
 70
     1
 10
0.0
 20
0.0
 30
0.0
  3
*U19
  1

  0
TEXT
  5
13D8
  8
0
 62
     0
 10
7661.1161969486193
 20
2139.541044425167
 30
0.0
 40
45.0
  1
945
  0
ENDBLK
  5
13DA
  8
0
  0
BLOCK
  8
0
  2
*U20
 70
     1
 10
0.0
 20
0.0
 30
0.0
  3
*U20
  1

  0
TEXT
  5
13DC
  8
0
 62
     0
 10
8611.1161969486202
 20
2137.6915146417468
 30
0.0
 40
45.0
  1
955
  0
ENDBLK
  5
13DE
  8
0
  0
BLOCK
  8
0
  2
*U21
 70
     1
 10
0.0
 20
0.0
 30
0.0
  3
*U21
  1

  0
TEXT
  5
13E0
  8
0
 62
     0
 10
9202.0988707613305
 20
1793.497413820063
 30
0.0
 40
45.0
  1
60
  0
ENDBLK
  5
13E2
  8
0
  0
BLOCK
  8
0
  2
*U22
 70
     1
 10
0.0
 20
0.0
 30
0.0
  3
*U22
  1

  0
TEXT
  5
13E4
  8
0
 62
     0
 10
7373.8464152296556
 20
684.70154293676762
 30
0.0
 40
45.0
  1
370
  0
ENDBLK
  5
13E6
  8
0
  0
BLOCK
  8
0
  2
*U23
 70
     1
 10
0.0
 20
0.0
 30
0.0
  3
*U23
  1

  0
TEXT
  5
13E8
  8
0
 62
     0
 10
5948.8747866072144
 20
2008.9417418971959
 30
0.0
 40
45.0
  1
2220
  0
ENDBLK
  5
13EA
  8
0
  0
BLOCK
  8
0
  2
*U24
 70
     1
 10
0.0
 20
0.0
 30
0.0
  3
*U24
  1

  0
TEXT
  5
13EC
  8
0
 62
     0
 10
4658.3311866872446
 20
1782.597294788309
 30
0.0
 40
45.0
  1
60
  0
ENDBLK
  5
13EE
  8
0
  0
BLOCK
  8
0
  2
*U25
 70
     1
 10
0.0
 20
0.0
 30
0.0
  3
*U25
  1

  0
TEXT
  5
13F0
  8
0
 62
     0
 10
4666.8646109710107
 20
1326.056404564594
 30
0.0
 40
45.0
  1
71
  0
ENDBLK
  5
13F2
  8
0
  0
BLOCK
  8
0
  2
*U26
 70
     1
 10
0.0
 20
0.0
 30
0.0
  3
*U26
  1

  0
TEXT
  5
13F4
  8
0
 62
     0
 10
5983.8783856848413
 20
642.55261768816888
 30
0.0
 40
45.0
  1
1100
  0
ENDBLK
  5
13F6
  8
0
  0
BLOCK
  8
0
  2
*U27
 70
     1
 10
0.0
 20
0.0
 30
0.0
  3
*U27
  1

  0
TEXT
  5
13F8
  8
0
 62
     0
 10
5993.8783856848404
 20
533.53371062612337
 30
0.0
 40
45.0
  1
1120
  0
ENDBLK
  5
13FA
  8
0
  0
BLOCK
  8
0
  2
*U28
 70
     1
 10
0.0
 20
0.0
 30
0.0
  3
*U28
  1

  0
TEXT
  5
13FC
  8
0
 62
     0
 10
9664.0169513803194
 20
1403.497413820063
 30
0.0
 40
45.0
  1
1080
  0
ENDBLK
  5
13FE
  8
0
  0
BLOCK
  8
0
  2
*U29
 70
     1
 10
0.0
 20
0.0
 30
0.0
  3
*U29
  1

  0
TEXT
  5
1403
  8
0
 62
     0
 10
10153.90150040655
 20
1143.2112542072221
 30
0.0
 40
45.0
  1
905
  0
ENDBLK
  5
1405
  8
0
  0
BLOCK
  8
0
  2
*U30
 70
     1
 10
0.0
 20
0.0
 30
0.0
  3
*U30
  1

  0
TEXT
  5
1407
  8
0
 62
     0
 10
11076.64706657299
 20
1154.0375594323659
 30
0.0
 40
45.0
  1
940
  0
ENDBLK
  5
1409
  8
0
  0
BLOCK
  8
0
  2
*U31
 70
     1
 10
0.0
 20
0.0
 30
0.0
  3
*U31
  1

  0
TEXT
  5
140B
  8
0
 62
     0
 10
9580.8550200453919
 20
1302.4178497374969
 30
0.0
 40
45.0
  1
50
  0
ENDBLK
  5
140D
  8
0
  0
BLOCK
  8
0
  2
*U32
 70
     1
 10
0.0
 20
0.0
 30
0.0
  3
*U32
  1

  0
TEXT
  5
140F
  8
DIM
 62
     0
 10
132.74045020463839
 20
-162.91284256910589
 30
0.0
 40
45.0
  1
370
  0
ENDBLK
  5
1411
  8
0
  0
BLOCK
  8
0
  2
*U33
 70
     1
 10
0.0
 20
0.0
 30
0.0
  3
*U33
  1

  0
TEXT
  5
1413
  8
DIM
 62
     0
 10
-196.48179942731861
 20
-112.1163028649386
 30
0.0
 40
45.0
  1
60
  0
ENDBLK
  5
1415
  8
0
  0
BLOCK
  8
0
  2
*U34
 70
     1
 10
0.0
 20
0.0
 30
0.0
  3
*U34
  1

  0
TEXT
  5
1417
  8
DIM
 62
     0
 10
1322.755798090041
 20
1145.9369424389349
 30
0.0
 40
45.0
  1
940
  0
ENDBLK
  5
1419
  8
0
  0
BLOCK
  8
0
  2
*U35
 70
     1
 10
0.0
 20
0.0
 30
0.0
  3
*U35
  1

  0
TEXT
  5
141B
  8
DIM
 62
     0
 10
400.01023192360162
 20
1145.9369424389349
 30
0.0
 40
45.0
  1
905
  0
ENDBLK
  5
141D
  8
0
  0
ENDSEC
  0
SECTION
  2
ENTITIES
  0
LINE
  5
1099
  8
0
 10
0.0
 20
0.0
 30
0.0
 11
370.0
 21
0.0
 31
0.0
  0
LINE
  5
109A
  8
0
 10
370.0
 20
0.0
 30
0.0
 11
370.0
 21
180.0
 31
0.0
  0
LINE
  5
109B
  8
0
 10
370.0
 20
180.0
 30
0.0
 11
0.0
 21
180.0
 31
0.0
  0
LINE
  5
109C
  8
0
 10
0.0
 20
180.0
 30
0.0
 11
0.0
 21
0.0
 31
0.0
  0
LINE
  5
10A0
  8
0
 10
0.000000000001819
 20
60.0
 30
0.0
 11
60.0
 21
60.0
 31
0.0
  0
LINE
  5
10A1
  8
0
 10
110.0
 20
60.0
 30
0.0
 11
160.0
 21
60.0
 31
0.0
  0
LINE
  5
10A2
  8
0
 10
210.0
 20
60.0
 30
0.0
 11
260.0
 21
60.0
 31
0.0
  0
LINE
  5
10A4
  8
0
 10
0.000000000001819
 20
120.0
 30
0.0
 11
60.0
 21
120.0
 31
0.0
  0
LINE
  5
10A5
  8
0
 10
110.0
 20
120.0
 30
0.0
 11
160.0
 21
120.0
 31
0.0
  0
LINE
  5
10A6
  8
0
 10
210.0
 20
120.0
 30
0.0
 11
260.0
 21
120.0
 31
0.0
  0
LINE
  5
10AC
  8
0
 10
740.0
 20
0.0
 30
0.0
 11
740.0
 21
180.0
 31
0.0
  0
LINE
  5
10B0
  8
0
 10
480.0
 20
60.0
 30
0.0
 11
530.0
 21
60.0
 31
0.0
  0
LINE
  5
10B1
  8
0
 10
480.0
 20
120.0
 30
0.0
 11
530.0
 21
120.0
 31
0.0
  0
LINE
  5
10B2
  8
0
 10
580.0
 20
60.0
 30
0.0
 11
630.0
 21
60.0
 31
0.0
  0
LINE
  5
10B3
  8
0
 10
580.0
 20
120.0
 30
0.0
 11
630.0
 21
120.0
 31
0.0
  0
LINE
  5
10B7
  8
0
 10
1110.0
 20
0.0
 30
0.0
 11
1110.0
 21
180.0
 31
0.0
  0
LINE
  5
10BB
  8
0
 10
850.0
 20
60.0
 30
0.0
 11
900.0
 21
60.0
 31
0.0
  0
LINE
  5
10BC
  8
0
 10
850.0
 20
120.0
 30
0.0
 11
900.0
 21
120.0
 31
0.0
  0
LINE
  5
10BD
  8
0
 10
950.0
 20
60.0
 30
0.0
 11
1000.0
 21
60.0
 31
0.0
  0
LINE
  5
10BE
  8
0
 10
950.0
 20
120.0
 30
0.0
 11
1000.0
 21
120.0
 31
0.0
  0
LINE
  5
10C2
  8
0
 10
1480.0
 20
0.0
 30
0.0
 11
1480.0
 21
180.0
 31
0.0
  0
LINE
  5
10C6
  8
0
 10
1220.0
 20
60.0
 30
0.0
 11
1270.0
 21
60.0
 31
0.0
  0
LINE
  5
10C7
  8
0
 10
1220.0
 20
120.0
 30
0.0
 11
1270.0
 21
120.0
 31
0.0
  0
LINE
  5
10C8
  8
0
 10
1320.0
 20
60.0
 30
0.0
 11
1370.0
 21
60.0
 31
0.0
  0
LINE
  5
10C9
  8
0
 10
1320.0
 20
120.0
 30
0.0
 11
1370.0
 21
120.0
 31
0.0
  0
LINE
  5
10CD
  8
0
 10
1850.0
 20
0.0
 30
0.0
 11
1850.0
 21
180.0
 31
0.0
  0
LINE
  5
10D1
  8
0
 10
1590.0
 20
60.0
 30
0.0
 11
1640.0
 21
60.0
 31
0.0
  0
LINE
  5
10D2
  8
0
 10
1590.0
 20
120.0
 30
0.0
 11
1640.0
 21
120.0
 31
0.0
  0
LINE
  5
10D3
  8
0
 10
1690.0
 20
60.0
 30
0.0
 11
1740.0
 21
60.0
 31
0.0
  0
LINE
  5
10D4
  8
0
 10
1690.0
 20
120.0
 30
0.0
 11
1740.0
 21
120.0
 31
0.0
  0
LINE
  5
10D5
  8
0
 10
1790.0
 20
60.0
 30
0.0
 11
1850.000000000002
 21
60.0
 31
0.0
  0
LINE
  5
10D6
  8
0
 10
1790.0
 20
120.0
 30
0.0
 11
1850.000000000002
 21
120.0
 31
0.0
  0
LINE
  5
10DD
  8
0
 10
1850.0
 20
180.0
 30
0.0
 11
1475.0
 21
180.0
 31
0.0
  0
LINE
  5
10DE
  8
0
 10
1850.0
 20
0.0
 30
0.0
 11
1475.0
 21
0.0
 31
0.0
  0
LINE
  5
10DF
  8
0
 10
1480.0
 20
180.0
 30
0.0
 11
1105.0
 21
180.0
 31
0.0
  0
LINE
  5
10E0
  8
0
 10
1480.0
 20
0.0
 30
0.0
 11
1105.0
 21
0.0
 31
0.0
  0
LINE
  5
10E1
  8
0
 10
1105.0
 20
180.0
 30
0.0
 11
730.0
 21
180.0
 31
0.0
  0
LINE
  5
10E2
  8
0
 10
1105.0
 20
0.0
 30
0.0
 11
730.0
 21
0.0
 31
0.0
  0
LINE
  5
10E7
  8
0
 10
740.0
 20
180.0
 30
0.0
 11
365.0
 21
180.0
 31
0.0
  0
LINE
  5
10E8
  8
0
 10
740.0
 20
0.0
 30
0.0
 11
365.0
 21
0.0
 31
0.0
  0
LINE
  5
10E9
  8
0
 10
370.0
 20
180.0
 30
0.0
 11
370.0
 21
360.0
 31
0.0
  0
LINE
  5
10EA
  8
0
 10
370.0
 20
360.0
 30
0.0
 11
0.0
 21
360.0
 31
0.0
  0
LINE
  5
10EB
  8
0
 10
0.0
 20
360.0
 30
0.0
 11
0.0
 21
180.0
 31
0.0
  0
LINE
  5
10EC
  8
0
 10
0.000000000001819
 20
240.0
 30
0.0
 11
60.0
 21
240.0
 31
0.0
  0
LINE
  5
10ED
  8
0
 10
0.000000000001819
 20
300.0
 30
0.0
 11
60.0
 21
300.0
 31
0.0
  0
LINE
  5
10EE
  8
0
 10
110.0
 20
240.0
 30
0.0
 11
160.0
 21
240.0
 31
0.0
  0
LINE
  5
10EF
  8
0
 10
110.0
 20
300.0
 30
0.0
 11
160.0
 21
300.0
 31
0.0
  0
LINE
  5
10F0
  8
0
 10
210.0
 20
240.0
 30
0.0
 11
260.0
 21
240.0
 31
0.0
  0
LINE
  5
10F1
  8
0
 10
210.0
 20
300.0
 30
0.0
 11
260.0
 21
300.0
 31
0.0
  0
LINE
  5
10F4
  8
0
 10
740.0
 20
180.0
 30
0.0
 11
740.0
 21
360.0
 31
0.0
  0
LINE
  5
10F7
  8
0
 10
480.0
 20
240.0
 30
0.0
 11
530.0
 21
240.0
 31
0.0
  0
LINE
  5
10F8
  8
0
 10
480.0
 20
300.0
 30
0.0
 11
530.0
 21
300.0
 31
0.0
  0
LINE
  5
10F9
  8
0
 10
580.0
 20
240.0
 30
0.0
 11
630.0
 21
240.0
 31
0.0
  0
LINE
  5
10FA
  8
0
 10
580.0
 20
300.0
 30
0.0
 11
630.0
 21
300.0
 31
0.0
  0
LINE
  5
10FD
  8
0
 10
1110.0
 20
180.0
 30
0.0
 11
1110.0
 21
360.0
 31
0.0
  0
LINE
  5
1100
  8
0
 10
850.0
 20
240.0
 30
0.0
 11
900.0
 21
240.0
 31
0.0
  0
LINE
  5
1101
  8
0
 10
850.0
 20
300.0
 30
0.0
 11
900.0
 21
300.0
 31
0.0
  0
LINE
  5
1102
  8
0
 10
950.0
 20
240.0
 30
0.0
 11
1000.0
 21
240.0
 31
0.0
  0
LINE
  5
1103
  8
0
 10
950.0
 20
300.0
 30
0.0
 11
1000.0
 21
300.0
 31
0.0
  0
LINE
  5
1106
  8
0
 10
1480.0
 20
180.0
 30
0.0
 11
1480.0
 21
360.0
 31
0.0
  0
LINE
  5
1109
  8
0
 10
1220.0
 20
240.0
 30
0.0
 11
1270.0
 21
240.0
 31
0.0
  0
LINE
  5
110A
  8
0
 10
1220.0
 20
300.0
 30
0.0
 11
1270.0
 21
300.0
 31
0.0
  0
LINE
  5
110B
  8
0
 10
1320.0
 20
240.0
 30
0.0
 11
1370.0
 21
240.0
 31
0.0
  0
LINE
  5
110C
  8
0
 10
1320.0
 20
300.0
 30
0.0
 11
1370.0
 21
300.0
 31
0.0
  0
LINE
  5
110D
  8
0
 10
1420.0
 20
240.0
 30
0.0
 11
1540.0
 21
240.0
 31
0.0
  0
LINE
  5
110E
  8
0
 10
1420.0
 20
300.0
 30
0.0
 11
1540.0
 21
300.0
 31
0.0
  0
LINE
  5
110F
  8
0
 10
1850.0
 20
180.0
 30
0.0
 11
1850.0
 21
360.0
 31
0.0
  0
LINE
  5
1112
  8
0
 10
1590.0
 20
240.0
 30
0.0
 11
1640.0
 21
240.0
 31
0.0
  0
LINE
  5
1113
  8
0
 10
1590.0
 20
300.0
 30
0.0
 11
1640.0
 21
300.0
 31
0.0
  0
LINE
  5
1114
  8
0
 10
1690.0
 20
240.0
 30
0.0
 11
1740.0
 21
240.0
 31
0.0
  0
LINE
  5
1115
  8
0
 10
1690.0
 20
300.0
 30
0.0
 11
1740.0
 21
300.0
 31
0.0
  0
LINE
  5
1116
  8
0
 10
1790.0
 20
240.0
 30
0.0
 11
1850.000000000002
 21
240.0
 31
0.0
  0
LINE
  5
1117
  8
0
 10
1790.0
 20
300.0
 30
0.0
 11
1850.000000000002
 21
300.0
 31
0.0
  0
LINE
  5
1118
  8
0
 10
1850.0
 20
360.0
 30
0.0
 11
1475.0
 21
360.0
 31
0.0
  0
LINE
  5
1119
  8
0
 10
1480.0
 20
360.0
 30
0.0
 11
1105.0
 21
360.0
 31
0.0
  0
LINE
  5
111A
  8
0
 10
1105.0
 20
360.0
 30
0.0
 11
730.0
 21
360.0
 31
0.0
  0
LINE
  5
111B
  8
0
 10
740.0
 20
360.0
 30
0.0
 11
365.0
 21
360.0
 31
0.0
  0
LINE
  5
116E
  8
0
 10
905.0
 20
360.0
 30
0.0
 11
905.0
 21
540.0
 31
0.0
  0
LINE
  5
1189
  8
0
 10
1845.0
 20
360.0
 30
0.0
 11
1845.0
 21
540.0
 31
0.0
  0
LINE
  5
1192
  8
0
 10
1420.0
 20
60.0
 30
0.0
 11
1540.0
 21
60.0
 31
0.0
  0
LINE
  5
1193
  8
0
 10
1420.0
 20
120.0
 30
0.0
 11
1540.0
 21
120.0
 31
0.0
  0
LINE
  5
1194
  8
0
 10
1050.0
 20
60.0
 30
0.0
 11
1170.0
 21
60.0
 31
0.0
  0
LINE
  5
1195
  8
0
 10
1050.0
 20
120.0
 30
0.0
 11
1170.0
 21
120.0
 31
0.0
  0
LINE
  5
1196
  8
0
 10
1050.0
 20
240.0
 30
0.0
 11
1170.0
 21
240.0
 31
0.0
  0
LINE
  5
1197
  8
0
 10
1050.0
 20
300.0
 30
0.0
 11
1170.0
 21
300.0
 31
0.0
  0
LINE
  5
1198
  8
0
 10
680.0
 20
240.0
 30
0.0
 11
800.0
 21
240.0
 31
0.0
  0
LINE
  5
1199
  8
0
 10
680.0
 20
300.0
 30
0.0
 11
800.0
 21
300.0
 31
0.0
  0
LINE
  5
119A
  8
0
 10
680.0
 20
60.0
 30
0.0
 11
800.0
 21
60.0
 31
0.0
  0
LINE
  5
119B
  8
0
 10
680.0
 20
120.0
 30
0.0
 11
800.0
 21
120.0
 31
0.0
  0
LINE
  5
119C
  8
0
 10
310.0
 20
240.0
 30
0.0
 11
430.0
 21
240.0
 31
0.0
  0
LINE
  5
119D
  8
0
 10
310.0
 20
300.0
 30
0.0
 11
430.0
 21
300.0
 31
0.0
  0
LINE
  5
119E
  8
0
 10
310.0
 20
60.0
 30
0.0
 11
430.0
 21
60.0
 31
0.0
  0
LINE
  5
119F
  8
0
 10
310.0
 20
120.0
 30
0.0
 11
430.0
 21
120.0
 31
0.0
  0
LINE
  5
11C5
  8
0
 10
1845.0
 20
540.0
 30
0.0
 11
900.0
 21
540.0
 31
0.0
  0
LINE
  5
11CA
  8
0
 10
1845.0
 20
480.0
 30
0.0
 11
1795.0
 21
480.0
 31
0.0
  0
LINE
  5
11CB
  8
0
 10
1845.0
 20
420.0
 30
0.0
 11
1795.0
 21
420.0
 31
0.0
  0
LINE
  5
11CC
  8
0
 10
1745.0
 20
480.0
 30
0.0
 11
1695.0
 21
480.0
 31
0.0
  0
LINE
  5
11CD
  8
0
 10
1745.0
 20
420.0
 30
0.0
 11
1695.0
 21
420.0
 31
0.0
  0
LINE
  5
11CE
  8
0
 10
1645.0
 20
480.0
 30
0.0
 11
1595.0
 21
480.0
 31
0.0
  0
LINE
  5
11CF
  8
0
 10
1645.0
 20
420.0
 30
0.0
 11
1595.0
 21
420.0
 31
0.0
  0
LINE
  5
11D0
  8
0
 10
1545.0
 20
480.0
 30
0.0
 11
1495.0
 21
480.0
 31
0.0
  0
LINE
  5
11D1
  8
0
 10
1545.0
 20
420.0
 30
0.0
 11
1495.0
 21
420.0
 31
0.0
  0
LINE
  5
11D2
  8
0
 10
1445.0
 20
480.0
 30
0.0
 11
1395.0
 21
480.0
 31
0.0
  0
LINE
  5
11D3
  8
0
 10
1445.0
 20
420.0
 30
0.0
 11
1395.0
 21
420.0
 31
0.0
  0
LINE
  5
11D4
  8
0
 10
1345.0
 20
480.0
 30
0.0
 11
1295.0
 21
480.0
 31
0.0
  0
LINE
  5
11D5
  8
0
 10
1345.0
 20
420.0
 30
0.0
 11
1295.0
 21
420.0
 31
0.0
  0
LINE
  5
11D6
  8
0
 10
1245.0
 20
480.0
 30
0.0
 11
1195.0
 21
480.0
 31
0.0
  0
LINE
  5
11D7
  8
0
 10
1245.0
 20
420.0
 30
0.0
 11
1195.0
 21
420.0
 31
0.0
  0
LINE
  5
11D8
  8
0
 10
1145.0
 20
480.0
 30
0.0
 11
1095.0
 21
480.0
 31
0.0
  0
LINE
  5
11D9
  8
0
 10
1145.0
 20
420.0
 30
0.0
 11
1095.0
 21
420.0
 31
0.0
  0
LINE
  5
11DA
  8
0
 10
1045.0
 20
480.0
 30
0.0
 11
995.0
 21
480.0
 31
0.0
  0
LINE
  5
11DB
  8
0
 10
1045.0
 20
420.0
 30
0.0
 11
995.0
 21
420.0
 31
0.0
  0
LINE
  5
11DC
  8
0
 10
945.0
 20
480.0
 30
0.0
 11
895.0
 21
480.0
 31
0.0
  0
LINE
  5
11DD
  8
0
 10
945.0
 20
420.0
 30
0.0
 11
895.0
 21
420.0
 31
0.0
  0
LINE
  5
11DE
  8
0
 10
845.0
 20
480.0
 30
0.0
 11
795.0
 21
480.0
 31
0.0
  0
LINE
  5
11DF
  8
0
 10
845.0
 20
420.0
 30
0.0
 11
795.0
 21
420.0
 31
0.0
  0
LINE
  5
11E0
  8
0
 10
745.0
 20
480.0
 30
0.0
 11
695.0
 21
480.0
 31
0.0
  0
LINE
  5
11E1
  8
0
 10
745.0
 20
420.0
 30
0.0
 11
695.0
 21
420.0
 31
0.0
  0
LINE
  5
11E2
  8
0
 10
645.0
 20
480.0
 30
0.0
 11
595.0
 21
480.0
 31
0.0
  0
LINE
  5
11E3
  8
0
 10
645.0
 20
420.0
 30
0.0
 11
595.0
 21
420.0
 31
0.0
  0
LINE
  5
11E4
  8
0
 10
545.0
 20
480.0
 30
0.0
 11
495.0
 21
480.0
 31
0.0
  0
LINE
  5
11E5
  8
0
 10
545.0
 20
420.0
 30
0.0
 11
495.0
 21
420.0
 31
0.0
  0
LINE
  5
11E6
  8
0
 10
445.0
 20
480.0
 30
0.0
 11
395.0
 21
480.0
 31
0.0
  0
LINE
  5
11E7
  8
0
 10
445.0
 20
420.0
 30
0.0
 11
395.0
 21
420.0
 31
0.0
  0
LINE
  5
11E8
  8
0
 10
345.0
 20
480.0
 30
0.0
 11
295.0
 21
480.0
 31
0.0
  0
LINE
  5
11E9
  8
0
 10
345.0
 20
420.0
 30
0.0
 11
295.0
 21
420.0
 31
0.0
  0
LINE
  5
11EA
  8
0
 10
245.0
 20
480.0
 30
0.0
 11
195.0
 21
480.0
 31
0.0
  0
LINE
  5
11EB
  8
0
 10
245.0
 20
420.0
 30
0.0
 11
195.0
 21
420.0
 31
0.0
  0
LINE
  5
11EC
  8
0
 10
145.0
 20
480.0
 30
0.0
 11
95.0
 21
480.0
 31
0.0
  0
LINE
  5
11ED
  8
0
 10
145.0
 20
420.0
 30
0.0
 11
95.0
 21
420.0
 31
0.0
  0
LINE
  5
11EE
  8
0
 10
45.0
 20
480.0
 30
0.0
 11
0.0
 21
480.00000000000023
 31
0.0
  0
LINE
  5
11EF
  8
0
 10
45.0
 20
420.0
 30
0.0
 11
0.0
 21
420.00000000000011
 31
0.0
  0
LINE
  5
11F0
  8
0
 10
0.0
 20
720.0
 30
0.0
 11
905.0
 21
720.0
 31
0.0
  0
LINE
  5
11F1
  8
0
 10
0.000000000001819
 20
549.99999999999716
 30
0.0
 11
0.000000000001819
 21
650.00000000000227
 31
0.0
  0
LINE
  5
11F4
  8
0
 10
1845.0
 20
720.0
 30
0.0
 11
900.0
 21
720.0
 31
0.0
  0
LINE
  5
11F5
  8
0
 10
1845.0
 20
660.0
 30
0.0
 11
1795.0
 21
660.0
 31
0.0
  0
LINE
  5
11F6
  8
0
 10
1845.0
 20
600.0
 30
0.0
 11
1795.0
 21
600.0
 31
0.0
  0
LINE
  5
11F7
  8
0
 10
1745.0
 20
660.0
 30
0.0
 11
1695.0
 21
660.0
 31
0.0
  0
LINE
  5
11F8
  8
0
 10
1745.0
 20
600.0
 30
0.0
 11
1695.0
 21
600.0
 31
0.0
  0
LINE
  5
11F9
  8
0
 10
1645.0
 20
660.0
 30
0.0
 11
1595.0
 21
660.0
 31
0.0
  0
LINE
  5
11FA
  8
0
 10
1645.0
 20
600.0
 30
0.0
 11
1595.0
 21
600.0
 31
0.0
  0
LINE
  5
11FB
  8
0
 10
1545.0
 20
660.0
 30
0.0
 11
1495.0
 21
660.0
 31
0.0
  0
LINE
  5
11FC
  8
0
 10
1545.0
 20
600.0
 30
0.0
 11
1495.0
 21
600.0
 31
0.0
  0
LINE
  5
11FD
  8
0
 10
1445.0
 20
660.0
 30
0.0
 11
1395.0
 21
660.0
 31
0.0
  0
LINE
  5
11FE
  8
0
 10
1445.0
 20
600.0
 30
0.0
 11
1395.0
 21
600.0
 31
0.0
  0
LINE
  5
11FF
  8
0
 10
1345.0
 20
660.0
 30
0.0
 11
1295.0
 21
660.0
 31
0.0
  0
LINE
  5
1200
  8
0
 10
1345.0
 20
600.0
 30
0.0
 11
1295.0
 21
600.0
 31
0.0
  0
LINE
  5
1201
  8
0
 10
1245.0
 20
660.0
 30
0.0
 11
1195.0
 21
660.0
 31
0.0
  0
LINE
  5
1202
  8
0
 10
1245.0
 20
600.0
 30
0.0
 11
1195.0
 21
600.0
 31
0.0
  0
LINE
  5
1203
  8
0
 10
1145.0
 20
660.0
 30
0.0
 11
1095.0
 21
660.0
 31
0.0
  0
LINE
  5
1204
  8
0
 10
1145.0
 20
600.0
 30
0.0
 11
1095.0
 21
600.0
 31
0.0
  0
LINE
  5
1205
  8
0
 10
1045.0
 20
660.0
 30
0.0
 11
995.0
 21
660.0
 31
0.0
  0
LINE
  5
1206
  8
0
 10
1045.0
 20
600.0
 30
0.0
 11
995.0
 21
600.0
 31
0.0
  0
LINE
  5
1207
  8
0
 10
945.0
 20
660.0
 30
0.0
 11
895.0
 21
660.0
 31
0.0
  0
LINE
  5
1208
  8
0
 10
945.0
 20
600.0
 30
0.0
 11
895.0
 21
600.0
 31
0.0
  0
LINE
  5
1209
  8
0
 10
845.0
 20
660.0
 30
0.0
 11
795.0
 21
660.0
 31
0.0
  0
LINE
  5
120A
  8
0
 10
845.0
 20
600.0
 30
0.0
 11
795.0
 21
600.0
 31
0.0
  0
LINE
  5
120B
  8
0
 10
745.0
 20
660.0
 30
0.0
 11
695.0
 21
660.0
 31
0.0
  0
LINE
  5
120C
  8
0
 10
745.0
 20
600.0
 30
0.0
 11
695.0
 21
600.0
 31
0.0
  0
LINE
  5
120D
  8
0
 10
645.0
 20
660.0
 30
0.0
 11
595.0
 21
660.0
 31
0.0
  0
LINE
  5
120E
  8
0
 10
645.0
 20
600.0
 30
0.0
 11
595.0
 21
600.0
 31
0.0
  0
LINE
  5
120F
  8
0
 10
545.0
 20
660.0
 30
0.0
 11
495.0
 21
660.0
 31
0.0
  0
LINE
  5
1210
  8
0
 10
545.0
 20
600.0
 30
0.0
 11
495.0
 21
600.0
 31
0.0
  0
LINE
  5
1211
  8
0
 10
445.0
 20
660.0
 30
0.0
 11
395.0
 21
660.0
 31
0.0
  0
LINE
  5
1212
  8
0
 10
445.0
 20
600.0
 30
0.0
 11
395.0
 21
600.0
 31
0.0
  0
LINE
  5
1213
  8
0
 10
345.0
 20
660.0
 30
0.0
 11
295.0
 21
660.0
 31
0.0
  0
LINE
  5
1214
  8
0
 10
345.0
 20
600.0
 30
0.0
 11
295.0
 21
600.0
 31
0.0
  0
LINE
  5
1215
  8
0
 10
245.0
 20
660.0
 30
0.0
 11
195.0
 21
660.0
 31
0.0
  0
LINE
  5
1216
  8
0
 10
245.0
 20
600.0
 30
0.0
 11
195.0
 21
600.0
 31
0.0
  0
LINE
  5
1217
  8
0
 10
145.0
 20
660.0
 30
0.0
 11
95.0
 21
660.0
 31
0.0
  0
LINE
  5
1218
  8
0
 10
145.0
 20
600.0
 30
0.0
 11
95.0
 21
600.0
 31
0.0
  0
LINE
  5
1219
  8
0
 10
45.0
 20
660.0
 30
0.0
 11
0.0
 21
660.00000000000023
 31
0.0
  0
LINE
  5
121A
  8
0
 10
45.0
 20
600.0
 30
0.0
 11
0.0
 21
600.00000000000023
 31
0.0
  0
LINE
  5
121B
  8
0
 10
10.000000000001821
 20
899.99999999999977
 30
0.0
 11
905.0
 21
900.0
 31
0.0
  0
LINE
  5
121F
  8
0
 10
1845.0
 20
900.0
 30
0.0
 11
900.0
 21
900.0
 31
0.0
  0
LINE
  5
1220
  8
0
 10
1845.0
 20
840.0
 30
0.0
 11
1795.0
 21
840.0
 31
0.0
  0
LINE
  5
1221
  8
0
 10
1845.0
 20
780.0
 30
0.0
 11
1795.0
 21
780.0
 31
0.0
  0
LINE
  5
1222
  8
0
 10
1745.0
 20
840.0
 30
0.0
 11
1695.0
 21
840.0
 31
0.0
  0
LINE
  5
1223
  8
0
 10
1745.0
 20
780.0
 30
0.0
 11
1695.0
 21
780.0
 31
0.0
  0
LINE
  5
1224
  8
0
 10
1645.0
 20
840.0
 30
0.0
 11
1595.0
 21
840.0
 31
0.0
  0
LINE
  5
1225
  8
0
 10
1645.0
 20
780.0
 30
0.0
 11
1595.0
 21
780.0
 31
0.0
  0
LINE
  5
1226
  8
0
 10
1545.0
 20
840.0
 30
0.0
 11
1495.0
 21
840.0
 31
0.0
  0
LINE
  5
1227
  8
0
 10
1545.0
 20
780.0
 30
0.0
 11
1495.0
 21
780.0
 31
0.0
  0
LINE
  5
1228
  8
0
 10
1445.0
 20
840.0
 30
0.0
 11
1395.0
 21
840.0
 31
0.0
  0
LINE
  5
1229
  8
0
 10
1445.0
 20
780.0
 30
0.0
 11
1395.0
 21
780.0
 31
0.0
  0
LINE
  5
122A
  8
0
 10
1345.0
 20
840.0
 30
0.0
 11
1295.0
 21
840.0
 31
0.0
  0
LINE
  5
122B
  8
0
 10
1345.0
 20
780.0
 30
0.0
 11
1295.0
 21
780.0
 31
0.0
  0
LINE
  5
122C
  8
0
 10
1245.0
 20
840.0
 30
0.0
 11
1195.0
 21
840.0
 31
0.0
  0
LINE
  5
122D
  8
0
 10
1245.0
 20
780.0
 30
0.0
 11
1195.0
 21
780.0
 31
0.0
  0
LINE
  5
122E
  8
0
 10
1145.0
 20
840.0
 30
0.0
 11
1095.0
 21
840.0
 31
0.0
  0
LINE
  5
122F
  8
0
 10
1145.0
 20
780.0
 30
0.0
 11
1095.0
 21
780.0
 31
0.0
  0
LINE
  5
1230
  8
0
 10
1045.0
 20
840.0
 30
0.0
 11
995.0
 21
840.0
 31
0.0
  0
LINE
  5
1231
  8
0
 10
1045.0
 20
780.0
 30
0.0
 11
995.0
 21
780.0
 31
0.0
  0
LINE
  5
1232
  8
0
 10
945.0
 20
840.0
 30
0.0
 11
895.0
 21
840.0
 31
0.0
  0
LINE
  5
1233
  8
0
 10
945.0
 20
780.0
 30
0.0
 11
895.0
 21
780.0
 31
0.0
  0
LINE
  5
1234
  8
0
 10
845.0
 20
840.0
 30
0.0
 11
795.0
 21
840.0
 31
0.0
  0
LINE
  5
1235
  8
0
 10
845.0
 20
780.0
 30
0.0
 11
795.0
 21
780.0
 31
0.0
  0
LINE
  5
1236
  8
0
 10
745.0
 20
840.0
 30
0.0
 11
695.0
 21
840.0
 31
0.0
  0
LINE
  5
1237
  8
0
 10
745.0
 20
780.0
 30
0.0
 11
695.0
 21
780.0
 31
0.0
  0
LINE
  5
1238
  8
0
 10
645.0
 20
840.0
 30
0.0
 11
595.0
 21
840.0
 31
0.0
  0
LINE
  5
1239
  8
0
 10
645.0
 20
780.0
 30
0.0
 11
595.0
 21
780.0
 31
0.0
  0
LINE
  5
123A
  8
0
 10
545.0
 20
840.0
 30
0.0
 11
495.0
 21
840.0
 31
0.0
  0
LINE
  5
123B
  8
0
 10
545.0
 20
780.0
 30
0.0
 11
495.0
 21
780.0
 31
0.0
  0
LINE
  5
123C
  8
0
 10
445.0
 20
840.0
 30
0.0
 11
395.0
 21
840.0
 31
0.0
  0
LINE
  5
123D
  8
0
 10
445.0
 20
780.0
 30
0.0
 11
395.0
 21
780.0
 31
0.0
  0
LINE
  5
123E
  8
0
 10
345.0
 20
840.0
 30
0.0
 11
295.0
 21
840.0
 31
0.0
  0
LINE
  5
123F
  8
0
 10
345.0
 20
780.0
 30
0.0
 11
295.0
 21
780.0
 31
0.0
  0
LINE
  5
1240
  8
0
 10
245.0
 20
840.0
 30
0.0
 11
195.0
 21
840.0
 31
0.0
  0
LINE
  5
1241
  8
0
 10
245.0
 20
780.0
 30
0.0
 11
195.0
 21
780.0
 31
0.0
  0
LINE
  5
1242
  8
0
 10
145.0
 20
840.0
 30
0.0
 11
95.0
 21
840.0
 31
0.0
  0
LINE
  5
1243
  8
0
 10
145.0
 20
780.0
 30
0.0
 11
95.0
 21
780.0
 31
0.0
  0
LINE
  5
1244
  8
0
 10
45.0
 20
840.0
 30
0.0
 11
0.0
 21
840.00000000000023
 31
0.0
  0
LINE
  5
1245
  8
0
 10
45.0
 20
780.0
 30
0.0
 11
0.0
 21
780.00000000000023
 31
0.0
  0
LINE
  5
1246
  8
0
 10
0.0
 20
1080.0
 30
0.0
 11
905.0
 21
1080.0
 31
0.0
  0
LINE
  5
1247
  8
0
 10
0.000000000001819
 20
909.99999999999716
 30
0.0
 11
0.000000000001819
 21
1010.000000000001
 31
0.0
  0
LINE
  5
124A
  8
0
 10
1845.0
 20
1080.0
 30
0.0
 11
900.0
 21
1080.0
 31
0.0
  0
LINE
  5
124B
  8
0
 10
1845.0
 20
1020.0
 30
0.0
 11
1795.0
 21
1020.0
 31
0.0
  0
LINE
  5
124C
  8
0
 10
1845.0
 20
960.0
 30
0.0
 11
1795.0
 21
960.0
 31
0.0
  0
LINE
  5
124D
  8
0
 10
1745.0
 20
1020.0
 30
0.0
 11
1695.0
 21
1020.0
 31
0.0
  0
LINE
  5
124E
  8
0
 10
1745.0
 20
960.0
 30
0.0
 11
1695.0
 21
960.0
 31
0.0
  0
LINE
  5
124F
  8
0
 10
1645.0
 20
1020.0
 30
0.0
 11
1595.0
 21
1020.0
 31
0.0
  0
LINE
  5
1250
  8
0
 10
1645.0
 20
960.0
 30
0.0
 11
1595.0
 21
960.0
 31
0.0
  0
LINE
  5
1251
  8
0
 10
1545.0
 20
1020.0
 30
0.0
 11
1495.0
 21
1020.0
 31
0.0
  0
LINE
  5
1252
  8
0
 10
1545.0
 20
960.0
 30
0.0
 11
1495.0
 21
960.0
 31
0.0
  0
LINE
  5
1253
  8
0
 10
1445.0
 20
1020.0
 30
0.0
 11
1395.0
 21
1020.0
 31
0.0
  0
LINE
  5
1254
  8
0
 10
1445.0
 20
960.0
 30
0.0
 11
1395.0
 21
960.0
 31
0.0
  0
LINE
  5
1255
  8
0
 10
1345.0
 20
1020.0
 30
0.0
 11
1295.0
 21
1020.0
 31
0.0
  0
LINE
  5
1256
  8
0
 10
1345.0
 20
960.0
 30
0.0
 11
1295.0
 21
960.0
 31
0.0
  0
LINE
  5
1257
  8
0
 10
1245.0
 20
1020.0
 30
0.0
 11
1195.0
 21
1020.0
 31
0.0
  0
LINE
  5
1258
  8
0
 10
1245.0
 20
960.0
 30
0.0
 11
1195.0
 21
960.0
 31
0.0
  0
LINE
  5
1259
  8
0
 10
1145.0
 20
1020.0
 30
0.0
 11
1095.0
 21
1020.0
 31
0.0
  0
LINE
  5
125A
  8
0
 10
1145.0
 20
960.0
 30
0.0
 11
1095.0
 21
960.0
 31
0.0
  0
LINE
  5
125B
  8
0
 10
1045.0
 20
1020.0
 30
0.0
 11
995.0
 21
1020.0
 31
0.0
  0
LINE
  5
125C
  8
0
 10
1045.0
 20
960.0
 30
0.0
 11
995.0
 21
960.0
 31
0.0
  0
LINE
  5
125D
  8
0
 10
945.0
 20
1020.0
 30
0.0
 11
895.0
 21
1020.0
 31
0.0
  0
LINE
  5
125E
  8
0
 10
945.0
 20
960.0
 30
0.0
 11
895.0
 21
960.0
 31
0.0
  0
LINE
  5
125F
  8
0
 10
845.0
 20
1020.0
 30
0.0
 11
795.0
 21
1020.0
 31
0.0
  0
LINE
  5
1260
  8
0
 10
845.0
 20
960.0
 30
0.0
 11
795.0
 21
960.0
 31
0.0
  0
LINE
  5
1261
  8
0
 10
745.0
 20
1020.0
 30
0.0
 11
695.0
 21
1020.0
 31
0.0
  0
LINE
  5
1262
  8
0
 10
745.0
 20
960.0
 30
0.0
 11
695.0
 21
960.0
 31
0.0
  0
LINE
  5
1263
  8
0
 10
645.0
 20
1020.0
 30
0.0
 11
595.0
 21
1020.0
 31
0.0
  0
LINE
  5
1264
  8
0
 10
645.0
 20
960.0
 30
0.0
 11
595.0
 21
960.0
 31
0.0
  0
LINE
  5
1265
  8
0
 10
545.0
 20
1020.0
 30
0.0
 11
495.0
 21
1020.0
 31
0.0
  0
LINE
  5
1266
  8
0
 10
545.0
 20
960.0
 30
0.0
 11
495.0
 21
960.0
 31
0.0
  0
LINE
  5
1267
  8
0
 10
445.0
 20
1020.0
 30
0.0
 11
395.0
 21
1020.0
 31
0.0
  0
LINE
  5
1268
  8
0
 10
445.0
 20
960.0
 30
0.0
 11
395.0
 21
960.0
 31
0.0
  0
LINE
  5
1269
  8
0
 10
345.0
 20
1020.0
 30
0.0
 11
295.0
 21
1020.0
 31
0.0
  0
LINE
  5
126A
  8
0
 10
345.0
 20
960.0
 30
0.0
 11
295.0
 21
960.0
 31
0.0
  0
LINE
  5
126B
  8
0
 10
245.0
 20
1020.0
 30
0.0
 11
195.0
 21
1020.0
 31
0.0
  0
LINE
  5
126C
  8
0
 10
245.0
 20
960.0
 30
0.0
 11
195.0
 21
960.0
 31
0.0
  0
LINE
  5
126D
  8
0
 10
145.0
 20
1020.0
 30
0.0
 11
95.0
 21
1020.0
 31
0.0
  0
LINE
  5
126E
  8
0
 10
145.0
 20
960.0
 30
0.0
 11
95.0
 21
960.0
 31
0.0
  0
LINE
  5
126F
  8
0
 10
45.0
 20
1020.0
 30
0.0
 11
0.0
 21
1020.0
 31
0.0
  0
LINE
  5
1270
  8
0
 10
45.0
 20
960.0
 30
0.0
 11
0.0
 21
960.00000000000034
 31
0.0
  0
LINE
  5
1272
  8
0
 10
1845.0
 20
720.0
 30
0.0
 11
1845.0
 21
535.0
 31
0.0
  0
LINE
  5
1273
  8
0
 10
1845.0
 20
900.0
 30
0.0
 11
1845.0
 21
715.0
 31
0.0
  0
LINE
  5
1274
  8
0
 10
1845.0
 20
1080.0
 30
0.0
 11
1845.0
 21
895.0
 31
0.0
  0
LINE
  5
1275
  8
0
 10
905.0
 20
720.0
 30
0.0
 11
905.0
 21
535.0
 31
0.0
  0
LINE
  5
1276
  8
0
 10
905.0
 20
900.0
 30
0.0
 11
905.0
 21
715.0
 31
0.0
  0
LINE
  5
1277
  8
0
 10
905.0
 20
1080.0
 30
0.0
 11
905.0
 21
895.0
 31
0.0
  0
LINE
  5
12AD
  8
0
 10
0.0
 20
1030.0
 30
0.0
 11
10.0
 21
1020.0
 31
0.0
  0
LINE
  5
12AE
  8
0
 10
10.0
 20
1020.0
 30
0.0
 11
0.0
 21
1010.0
 31
0.0
  0
LINE
  5
12C1
  8
0
 10
0.0
 20
910.0
 30
0.0
 11
11.41421356237333
 21
898.58578643762689
 31
0.0
  0
LINE
  5
12C2
  8
0
 10
10.0
 20
900.00000000000011
 30
0.0
 11
0.0
 21
890.0
 31
0.0
  0
LINE
  5
12C3
  8
0
 10
0.0
 20
790.00000000000023
 30
0.0
 11
10.0
 21
780.00000000000045
 31
0.0
  0
LINE
  5
12C4
  8
0
 10
10.0
 20
780.00000000000045
 30
0.0
 11
0.0
 21
770.00000000000023
 31
0.0
  0
LINE
  5
12C5
  8
0
 10
0.0
 20
670.00000000000023
 30
0.0
 11
10.0
 21
660.00000000000045
 31
0.0
  0
LINE
  5
12C6
  8
0
 10
10.0
 20
660.00000000000045
 30
0.0
 11
0.0
 21
650.00000000000023
 31
0.0
  0
LINE
  5
12C8
  8
0
 10
10.0
 20
540.00000000000023
 30
0.0
 11
0.0
 21
530.0
 31
0.0
  0
LINE
  5
12C9
  8
0
 10
0.0
 20
430.00000000000023
 30
0.0
 11
10.0
 21
420.0000000000004
 31
0.0
  0
LINE
  5
12CA
  8
0
 10
10.0
 20
420.0000000000004
 30
0.0
 11
0.0
 21
410.00000000000023
 31
0.0
  0
LINE
  5
12CB
  8
0
 10
0.000000000001819
 20
429.99999999999733
 30
0.0
 11
0.0
 21
530.00000000000091
 31
0.0
  0
LINE
  5
12CC
  8
0
 10
0.000000000001819
 20
669.99999999999932
 30
0.0
 11
0.0
 21
720.0
 31
0.0
  0
LINE
  5
12CD
  8
0
 10
0.000000000001819
 20
789.99999999999716
 30
0.0
 11
0.000000000001819
 21
890.00000000000136
 31
0.0
  0
LINE
  5
12CE
  8
0
 10
0.0
 20
1029.999999999997
 30
0.0
 11
0.0
 21
1080.0
 31
0.0
  0
LINE
  5
12D4
  8
0
 10
10.0
 20
539.99999999999795
 30
0.0
 11
904.99999999999807
 21
539.99999999999807
 31
0.0
  0
LINE
  5
12D5
  8
0
 10
-0.000000000001819
 20
549.99999999999818
 30
0.0
 11
11.41421356237151
 21
538.58578643762507
 31
0.0
  0
LINE
  5
12F2
  8
0
 10
0.0
 20
770.00000000000023
 30
0.0
 11
0.0
 21
715.00000000000023
 31
0.0
  0
LINE
  5
12F3
  8
0
 10
0.0
 20
410.00000000000023
 30
0.0
 11
0.0
 21
355.00000000000023
 31
0.0
  0
ENDSEC
  0
EOF
