  0
SECTION
  2
HEADER
  9
$ACADVER
  1
AC1024
  9
$ACADMAINTVER
 70
    63
  9
$DWGCODEPAGE
  3
ANSI_1252
  9
$LASTSAVEDBY
  1
Roland Smith
  9
$INSBASE
 10
0.0
 20
0.0
 30
0.0
  9
$EXTMIN
 10
-0.1596031680023771
 20
-17.63401365764116
 30
-0.0015258207003583
  9
$EXTMAX
 10
553.0178924703728
 20
98.32814498219114
 30
0.0000000349246037
  9
$LIMMIN
 10
0.0
 20
0.0
  9
$LIMMAX
 10
420.0
 20
297.0
  9
$ORTHOMODE
 70
     1
  9
$REGENMODE
 70
     1
  9
$FILLMODE
 70
     1
  9
$QTEXTMODE
 70
     0
  9
$MIRRTEXT
 70
     1
  9
$LTSCALE
 40
1.0
  9
$ATTMODE
 70
     1
  9
$TEXTSIZE
 40
5.0
  9
$TRACEWID
 40
1.0
  9
$TEXTSTYLE
  7
STANDARD
  9
$CLAYER
  8
TEKST
  9
$CELTYPE
  6
ByLayer
  9
$CECOLOR
 62
   256
  9
$CELTSCALE
 40
1.0
  9
$DISPSILH
 70
     0
  9
$DIMSCALE
 40
3.0
  9
$DIMASZ
 40
2.5
  9
$DIMEXO
 40
0.625
  9
$DIMDLI
 40
3.75
  9
$DIMRND
 40
0.0
  9
$DIMDLE
 40
0.0
  9
$DIMEXE
 40
1.25
  9
$DIMTP
 40
0.0
  9
$DIMTM
 40
0.0
  9
$DIMTXT
 40
2.5
  9
$DIMCEN
 40
2.5
  9
$DIMTSZ
 40
0.0
  9
$DIMTOL
 70
     0
  9
$DIMLIM
 70
     0
  9
$DIMTIH
 70
     0
  9
$DIMTOH
 70
     0
  9
$DIMSE1
 70
     0
  9
$DIMSE2
 70
     0
  9
$DIMTAD
 70
     1
  9
$DIMZIN
 70
     8
  9
$DIMBLK
  1

  9
$DIMASO
 70
     1
  9
$DIMSHO
 70
     1
  9
$DIMPOST
  1

  9
$DIMAPOST
  1

  9
$DIMALT
 70
     0
  9
$DIMALTD
 70
     3
  9
$DIMALTF
 40
0.03937007874016
  9
$DIMLFAC
 40
1.0
  9
$DIMTOFL
 70
     1
  9
$DIMTVP
 40
0.0
  9
$DIMTIX
 70
     0
  9
$DIMSOXD
 70
     0
  9
$DIMSAH
 70
     0
  9
$DIMBLK1
  1

  9
$DIMBLK2
  1

  9
$DIMSTYLE
  2
ISO-25
  9
$DIMCLRD
 70
     0
  9
$DIMCLRE
 70
     0
  9
$DIMCLRT
 70
     0
  9
$DIMTFAC
 40
1.0
  9
$DIMGAP
 40
0.625
  9
$DIMJUST
 70
     0
  9
$DIMSD1
 70
     0
  9
$DIMSD2
 70
     0
  9
$DIMTOLJ
 70
     1
  9
$DIMTZIN
 70
     0
  9
$DIMALTZ
 70
     0
  9
$DIMALTTZ
 70
     0
  9
$DIMUPT
 70
     0
  9
$DIMDEC
 70
     4
  9
$DIMTDEC
 70
     4
  9
$DIMALTU
 70
     2
  9
$DIMALTTD
 70
     2
  9
$DIMTXSTY
  7
STANDARD
  9
$DIMAUNIT
 70
     0
  9
$DIMADEC
 70
     0
  9
$DIMALTRND
 40
0.0
  9
$DIMAZIN
 70
     0
  9
$DIMDSEP
 70
    46
  9
$DIMATFIT
 70
     3
  9
$DIMFRAC
 70
     0
  9
$DIMLDRBLK
  1

  9
$DIMLUNIT
 70
     2
  9
$DIMLWD
 70
    -2
  9
$DIMLWE
 70
    -2
  9
$DIMTMOVE
 70
     0
  9
$DIMFXL
 40
1.0
  9
$DIMFXLON
 70
     0
  9
$DIMJOGANG
 40
0.7853981633974483
  9
$DIMTFILL
 70
     0
  9
$DIMTFILLCLR
 70
     0
  9
$DIMARCSYM
 70
     0
  9
$DIMLTYPE
  6

  9
$DIMLTEX1
  6

  9
$DIMLTEX2
  6

  9
$DIMTXTDIRECTION
 70
     0
  9
$LUNITS
 70
     2
  9
$LUPREC
 70
     4
  9
$SKETCHINC
 40
1.0
  9
$FILLETRAD
 40
0.0
  9
$AUNITS
 70
     0
  9
$AUPREC
 70
     0
  9
$MENU
  1
.
  9
$ELEVATION
 40
0.0
  9
$PELEVATION
 40
0.0
  9
$THICKNESS
 40
0.0
  9
$LIMCHECK
 70
     0
  9
$CHAMFERA
 40
0.0
  9
$CHAMFERB
 40
0.0
  9
$CHAMFERC
 40
0.0
  9
$CHAMFERD
 40
0.0
  9
$SKPOLY
 70
     0
  9
$TDCREATE
 40
2455219.621385336
  9
$TDUCREATE
 40
2455219.579718669
  9
$TDUPDATE
 40
2457344.767050555
  9
$TDUUPDATE
 40
2457344.725383889
  9
$TDINDWG
 40
0.2563045718
  9
$TDUSRTIMER
 40
0.2563043866
  9
$USRTIMER
 70
     1
  9
$ANGBASE
 50
0.0
  9
$ANGDIR
 70
     0
  9
$PDMODE
 70
     0
  9
$PDSIZE
 40
0.0
  9
$PLINEWID
 40
0.0
  9
$SPLFRAME
 70
     0
  9
$SPLINETYPE
 70
     6
  9
$SPLINESEGS
 70
     8
  9
$HANDSEED
  5
930
  9
$SURFTAB1
 70
     6
  9
$SURFTAB2
 70
     6
  9
$SURFTYPE
 70
     6
  9
$SURFU
 70
     6
  9
$SURFV
 70
     6
  9
$UCSBASE
  2

  9
$UCSNAME
  2

  9
$UCSORG
 10
0.0
 20
0.0
 30
0.0
  9
$UCSXDIR
 10
1.0
 20
0.0
 30
0.0
  9
$UCSYDIR
 10
0.0
 20
1.0
 30
0.0
  9
$UCSORTHOREF
  2

  9
$UCSORTHOVIEW
 70
     0
  9
$UCSORGTOP
 10
0.0
 20
0.0
 30
0.0
  9
$UCSORGBOTTOM
 10
0.0
 20
0.0
 30
0.0
  9
$UCSORGLEFT
 10
0.0
 20
0.0
 30
0.0
  9
$UCSORGRIGHT
 10
0.0
 20
0.0
 30
0.0
  9
$UCSORGFRONT
 10
0.0
 20
0.0
 30
0.0
  9
$UCSORGBACK
 10
0.0
 20
0.0
 30
0.0
  9
$PUCSBASE
  2

  9
$PUCSNAME
  2

  9
$PUCSORG
 10
0.0
 20
0.0
 30
0.0
  9
$PUCSXDIR
 10
1.0
 20
0.0
 30
0.0
  9
$PUCSYDIR
 10
0.0
 20
1.0
 30
0.0
  9
$PUCSORTHOREF
  2

  9
$PUCSORTHOVIEW
 70
     0
  9
$PUCSORGTOP
 10
0.0
 20
0.0
 30
0.0
  9
$PUCSORGBOTTOM
 10
0.0
 20
0.0
 30
0.0
  9
$PUCSORGLEFT
 10
0.0
 20
0.0
 30
0.0
  9
$PUCSORGRIGHT
 10
0.0
 20
0.0
 30
0.0
  9
$PUCSORGFRONT
 10
0.0
 20
0.0
 30
0.0
  9
$PUCSORGBACK
 10
0.0
 20
0.0
 30
0.0
  9
$USERI1
 70
     0
  9
$USERI2
 70
     0
  9
$USERI3
 70
     0
  9
$USERI4
 70
     0
  9
$USERI5
 70
     0
  9
$USERR1
 40
0.0
  9
$USERR2
 40
0.0
  9
$USERR3
 40
0.0
  9
$USERR4
 40
0.0
  9
$USERR5
 40
0.0
  9
$WORLDVIEW
 70
     1
  9
$SHADEDGE
 70
     3
  9
$SHADEDIF
 70
    70
  9
$TILEMODE
 70
     1
  9
$MAXACTVP
 70
    64
  9
$PINSBASE
 10
0.0
 20
0.0
 30
0.0
  9
$PLIMCHECK
 70
     0
  9
$PEXTMIN
 10
1.000000000000000E+20
 20
1.000000000000000E+20
 30
1.000000000000000E+20
  9
$PEXTMAX
 10
-1.000000000000000E+20
 20
-1.000000000000000E+20
 30
-1.000000000000000E+20
  9
$PLIMMIN
 10
0.0
 20
0.0
  9
$PLIMMAX
 10
420.0
 20
297.0
  9
$UNITMODE
 70
     0
  9
$VISRETAIN
 70
     1
  9
$PLINEGEN
 70
     0
  9
$PSLTSCALE
 70
     1
  9
$TREEDEPTH
 70
  3020
  9
$CMLSTYLE
  2
Standard
  9
$CMLJUST
 70
     0
  9
$CMLSCALE
 40
1.0
  9
$PROXYGRAPHICS
 70
     1
  9
$MEASUREMENT
 70
     0
  9
$CELWEIGHT
370
    -1
  9
$ENDCAPS
280
     0
  9
$JOINSTYLE
280
     0
  9
$LWDISPLAY
290
     0
  9
$INSUNITS
 70
     0
  9
$HYPERLINKBASE
  1

  9
$STYLESHEET
  1

  9
$XEDIT
290
     1
  9
$CEPSNTYPE
380
     0
  9
$PSTYLEMODE
290
     1
  9
$FINGERPRINTGUID
  2
{13B6C448-A90B-4EAB-87CD-72283CB4F181}
  9
$VERSIONGUID
  2
{250F635D-B5BF-4725-AA79-067EF1764071}
  9
$EXTNAMES
290
     1
  9
$PSVPSCALE
 40
0.0
  9
$OLESTARTUP
290
     0
  9
$SORTENTS
280
   127
  9
$INDEXCTL
280
     0
  9
$HIDETEXT
280
     0
  9
$XCLIPFRAME
280
     2
  9
$HALOGAP
280
     0
  9
$OBSCOLOR
 70
   257
  9
$OBSLTYPE
280
     0
  9
$INTERSECTIONDISPLAY
280
     0
  9
$INTERSECTIONCOLOR
 70
   257
  9
$DIMASSOC
280
     1
  9
$PROJECTNAME
  1

  9
$CAMERADISPLAY
290
     0
  9
$LENSLENGTH
 40
50.0
  9
$CAMERAHEIGHT
 40
0.0
  9
$STEPSPERSEC
 40
2.0
  9
$STEPSIZE
 40
6.0
  9
$3DDWFPREC
 40
2.0
  9
$PSOLWIDTH
 40
0.25
  9
$PSOLHEIGHT
 40
4.0
  9
$LOFTANG1
 40
1.570796326794896
  9
$LOFTANG2
 40
1.570796326794896
  9
$LOFTMAG1
 40
0.0
  9
$LOFTMAG2
 40
0.0
  9
$LOFTPARAM
 70
     7
  9
$LOFTNORMALS
280
     1
  9
$LATITUDE
 40
37.795
  9
$LONGITUDE
 40
-122.394
  9
$NORTHDIRECTION
 40
0.0
  9
$TIMEZONE
 70
 -8000
  9
$LIGHTGLYPHDISPLAY
280
     1
  9
$TILEMODELIGHTSYNCH
280
     1
  9
$CMATERIAL
347
865
  9
$SOLIDHIST
280
     0
  9
$SHOWHIST
280
     1
  9
$DWFFRAME
280
     2
  9
$DGNFRAME
280
     0
  9
$REALWORLDSCALE
290
     1
  9
$INTERFERECOLOR
 62
     1
  9
$INTERFEREOBJVS
345
887
  9
$INTERFEREVPVS
346
884
  9
$CSHADOW
280
     0
  9
$SHADOWPLANELOCATION
 40
0.0
  0
ENDSEC
  0
SECTION
  2
CLASSES
  0
CLASS
  1
ACDBDICTIONARYWDFLT
  2
AcDbDictionaryWithDefault
  3
ObjectDBX Classes
 90
        0
 91
        1
280
     0
281
     0
  0
CLASS
  1
MATERIAL
  2
AcDbMaterial
  3
ObjectDBX Classes
 90
     1153
 91
        3
280
     0
281
     0
  0
CLASS
  1
VISUALSTYLE
  2
AcDbVisualStyle
  3
ObjectDBX Classes
 90
     4095
 91
       24
280
     0
281
     0
  0
CLASS
  1
SCALE
  2
AcDbScale
  3
ObjectDBX Classes
 90
     1153
 91
       17
280
     0
281
     0
  0
CLASS
  1
TABLESTYLE
  2
AcDbTableStyle
  3
ObjectDBX Classes
 90
     4095
 91
        1
280
     0
281
     0
  0
CLASS
  1
MLEADERSTYLE
  2
AcDbMLeaderStyle
  3
ACDB_MLEADERSTYLE_CLASS
 90
     4095
 91
        1
280
     0
281
     0
  0
CLASS
  1
DICTIONARYVAR
  2
AcDbDictionaryVar
  3
ObjectDBX Classes
 90
        0
 91
        7
280
     0
281
     0
  0
CLASS
  1
CELLSTYLEMAP
  2
AcDbCellStyleMap
  3
ObjectDBX Classes
 90
     1152
 91
        1
280
     0
281
     0
  0
ENDSEC
  0
SECTION
  2
TABLES
  0
TABLE
  2
VPORT
  5
85C
330
0
100
AcDbSymbolTable
 70
     1
  0
VPORT
  5
8C4
330
85C
100
AcDbSymbolTableRecord
100
AcDbViewportTableRecord
  2
*ACTIVE
 70
     0
 10
0.0
 20
0.0
 11
1.0
 21
1.0
 12
460.5462727627802
 22
-17.54833405985442
 13
0.0
 23
0.0
 14
10.0
 24
10.0
 15
10.0
 25
10.0
 16
0.0
 26
0.0
 36
1.0
 17
0.0
 27
0.0
 37
0.0
 40
655.7480498668486
 41
2.106710671067106
 42
50.0
 43
0.0
 44
0.0
 50
0.0
 51
0.0
 71
     0
 72
   100
 73
     1
 74
     2
 75
     0
 76
     0
 77
     0
 78
     0
281
     0
 65
     1
110
0.0
120
0.0
130
0.0
111
1.0
121
0.0
131
0.0
112
0.0
122
1.0
132
0.0
 79
     0
146
0.0
348
883
 60
     3
 61
     5
292
     1
282
     0
141
0.0
142
0.0
 63
   250
421
  3355443
1001
ACAD_NAV_VCDISPLAY
1070
     3
  0
ENDTAB
  0
TABLE
  2
LTYPE
  5
859
330
0
100
AcDbSymbolTable
 70
     1
  0
LTYPE
  5
8AE
330
859
100
AcDbSymbolTableRecord
100
AcDbLinetypeTableRecord
  2
ByBlock
 70
     0
  3

 72
    65
 73
     0
 40
0.0
  0
LTYPE
  5
8AF
330
859
100
AcDbSymbolTableRecord
100
AcDbLinetypeTableRecord
  2
ByLayer
 70
     0
  3

 72
    65
 73
     0
 40
0.0
  0
LTYPE
  5
8B0
330
859
100
AcDbSymbolTableRecord
100
AcDbLinetypeTableRecord
  2
CONTINUOUS
 70
     0
  3
Solid line
 72
    65
 73
     0
 40
0.0
  0
ENDTAB
  0
TABLE
  2
LAYER
  5
856
330
0
100
AcDbSymbolTable
 70
     4
  0
LAYER
  5
8A8
330
856
100
AcDbSymbolTableRecord
100
AcDbLayerTableRecord
  2
0
 70
     0
 62
     7
  6
CONTINUOUS
370
    -3
390
863
347
875
  0
LAYER
  5
8C3
330
856
100
AcDbSymbolTableRecord
100
AcDbLayerTableRecord
  2
deel 1
 70
     0
 62
     4
  6
CONTINUOUS
370
    -3
390
863
347
875
  0
LAYER
  5
8C5
330
856
100
AcDbSymbolTableRecord
100
AcDbLayerTableRecord
  2
TEKST
 70
     0
 62
     1
  6
CONTINUOUS
370
    -3
390
863
347
875
  0
LAYER
  5
8C6
330
856
100
AcDbSymbolTableRecord
100
AcDbLayerTableRecord
  2
DEFPOINTS
 70
     0
 62
     7
  6
CONTINUOUS
290
     0
370
    -3
390
863
347
875
  0
ENDTAB
  0
TABLE
  2
STYLE
  5
857
330
0
100
AcDbSymbolTable
 70
     2
  0
STYLE
  5
8A9
330
857
100
AcDbSymbolTableRecord
100
AcDbTextStyleTableRecord
  2
STANDARD
 70
     0
 40
0.0
 41
1.0
 50
0.0
 71
     0
 42
5.0
  3
txt
  4

  0
STYLE
  5
8AD
330
857
100
AcDbSymbolTableRecord
100
AcDbTextStyleTableRecord
  2
Annotative
 70
     0
 40
0.0
 41
1.0
 50
0.0
 71
     0
 42
0.2
  3
txt
  4

1001
AcadAnnotative
1000
AnnotativeData
1002
{
1070
     1
1070
     1
1002
}
  0
ENDTAB
  0
TABLE
  2
VIEW
  5
85A
330
0
100
AcDbSymbolTable
 70
     0
  0
ENDTAB
  0
TABLE
  2
UCS
  5
85B
330
0
100
AcDbSymbolTable
 70
     0
  0
ENDTAB
  0
TABLE
  2
APPID
  5
85D
330
0
100
AcDbSymbolTable
 70
     4
  0
APPID
  5
8AA
330
85D
100
AcDbSymbolTableRecord
100
AcDbRegAppTableRecord
  2
ACAD
 70
     0
  0
APPID
  5
8B1
330
85D
100
AcDbSymbolTableRecord
100
AcDbRegAppTableRecord
  2
AcadAnnotative
 70
     0
  0
APPID
  5
8C7
330
85D
100
AcDbSymbolTableRecord
100
AcDbRegAppTableRecord
  2
ACAD_NAV_VCDISPLAY
 70
     0
  0
APPID
  5
8C8
330
85D
100
AcDbSymbolTableRecord
100
AcDbRegAppTableRecord
  2
ACAD_MLEADERVER
 70
     0
  0
ENDTAB
  0
TABLE
  2
DIMSTYLE
  5
85E
330
0
100
AcDbSymbolTable
 70
     3
100
AcDbDimStyleTable
 71
     1
340
8C9
  0
DIMSTYLE
105
8AB
330
85E
100
AcDbSymbolTableRecord
100
AcDbDimStyleTableRecord
  2
STANDARD
 70
     0
 41
4.0
 47
0.01
 48
0.01
 71
     1
 73
     0
 74
     0
 77
     1
 78
     8
140
3.5
274
     3
279
     2
284
     8
285
     8
286
     8
340
8A9
  0
DIMSTYLE
105
8AC
330
85E
100
AcDbSymbolTableRecord
100
AcDbDimStyleTableRecord
  2
Annotative
 70
     0
340
8A9
1001
AcadAnnotative
1000
AnnotativeData
1002
{
1070
     1
1070
     1
1002
}
  0
DIMSTYLE
105
8C9
102
{ACAD_REACTORS
330
8FD
330
90A
330
918
102
}
330
85E
100
AcDbSymbolTableRecord
100
AcDbDimStyleTableRecord
  2
ISO-25
 70
     0
 40
3.0
 41
2.5
 42
0.625
 43
3.75
 44
1.25
 73
     0
 74
     0
 77
     1
 78
     8
140
2.5
141
2.5
143
0.03937007874016
147
0.625
171
     3
172
     1
274
     3
279
     2
284
     8
285
     8
286
     8
340
8A9
  0
ENDTAB
  0
TABLE
  2
BLOCK_RECORD
  5
855
330
0
100
AcDbSymbolTable
 70
    27
  0
BLOCK_RECORD
  5
8BF
330
855
100
AcDbSymbolTableRecord
100
AcDbBlockTableRecord
  2
*Model_Space
340
8C2
 70
     0
280
     1
281
     0
  0
BLOCK_RECORD
  5
8BB
330
855
100
AcDbSymbolTableRecord
100
AcDbBlockTableRecord
  2
*Paper_Space
340
8BE
 70
     0
280
     1
281
     0
  0
BLOCK_RECORD
  5
8CB
330
855
100
AcDbSymbolTableRecord
100
AcDbBlockTableRecord
  2
$MODEL_SPACE
340
0
 70
     0
280
     1
281
     0
  0
BLOCK_RECORD
  5
8CD
330
855
100
AcDbSymbolTableRecord
100
AcDbBlockTableRecord
  2
$PAPER_SPACE
340
0
 70
     0
280
     1
281
     0
  0
BLOCK_RECORD
  5
8CF
330
855
100
AcDbSymbolTableRecord
100
AcDbBlockTableRecord
  2
*D2
340
0
 70
     0
280
     1
281
     0
  0
BLOCK_RECORD
  5
8D1
330
855
100
AcDbSymbolTableRecord
100
AcDbBlockTableRecord
  2
*U3
340
0
102
{BLKREFS
331
449
102
}
 70
     0
280
     1
281
     0
  0
BLOCK_RECORD
  5
8D2
330
855
100
AcDbSymbolTableRecord
100
AcDbBlockTableRecord
  2
*D4
340
0
 70
     0
280
     1
281
     0
  0
BLOCK_RECORD
  5
8D4
330
855
100
AcDbSymbolTableRecord
100
AcDbBlockTableRecord
  2
*U5
340
0
102
{BLKREFS
331
461
102
}
 70
     0
280
     1
281
     0
  0
BLOCK_RECORD
  5
8D5
330
855
100
AcDbSymbolTableRecord
100
AcDbBlockTableRecord
  2
*D6
340
0
 70
     0
280
     1
281
     0
  0
BLOCK_RECORD
  5
8D7
330
855
100
AcDbSymbolTableRecord
100
AcDbBlockTableRecord
  2
*U7
340
0
102
{BLKREFS
331
47F
102
}
 70
     0
280
     1
281
     0
  0
BLOCK_RECORD
  5
8D8
330
855
100
AcDbSymbolTableRecord
100
AcDbBlockTableRecord
  2
*D8
340
0
 70
     0
280
     1
281
     0
  0
BLOCK_RECORD
  5
8DA
330
855
100
AcDbSymbolTableRecord
100
AcDbBlockTableRecord
  2
*U9
340
0
102
{BLKREFS
331
497
102
}
 70
     0
280
     1
281
     0
  0
BLOCK_RECORD
  5
8DB
330
855
100
AcDbSymbolTableRecord
100
AcDbBlockTableRecord
  2
*D10
340
0
 70
     0
280
     1
281
     0
  0
BLOCK_RECORD
  5
8DD
330
855
100
AcDbSymbolTableRecord
100
AcDbBlockTableRecord
  2
*U11
340
0
102
{BLKREFS
331
4B2
102
}
 70
     0
280
     1
281
     0
  0
BLOCK_RECORD
  5
8DE
330
855
100
AcDbSymbolTableRecord
100
AcDbBlockTableRecord
  2
*D12
340
0
 70
     0
280
     1
281
     0
  0
BLOCK_RECORD
  5
8E0
330
855
100
AcDbSymbolTableRecord
100
AcDbBlockTableRecord
  2
*U13
340
0
102
{BLKREFS
331
4E6
102
}
 70
     0
280
     1
281
     0
  0
BLOCK_RECORD
  5
8E1
330
855
100
AcDbSymbolTableRecord
100
AcDbBlockTableRecord
  2
*D14
340
0
 70
     0
280
     1
281
     0
  0
BLOCK_RECORD
  5
8E3
330
855
100
AcDbSymbolTableRecord
100
AcDbBlockTableRecord
  2
*U15
340
0
102
{BLKREFS
331
6B8
102
}
 70
     0
280
     1
281
     0
  0
BLOCK_RECORD
  5
8E4
330
855
100
AcDbSymbolTableRecord
100
AcDbBlockTableRecord
  2
*D16
340
0
 70
     0
280
     1
281
     0
  0
BLOCK_RECORD
  5
8E6
330
855
100
AcDbSymbolTableRecord
100
AcDbBlockTableRecord
  2
*U17
340
0
102
{BLKREFS
331
6AE
102
}
 70
     0
280
     1
281
     0
  0
BLOCK_RECORD
  5
8E7
330
855
100
AcDbSymbolTableRecord
100
AcDbBlockTableRecord
  2
*D18
340
0
 70
     0
280
     1
281
     0
  0
BLOCK_RECORD
  5
8E9
330
855
100
AcDbSymbolTableRecord
100
AcDbBlockTableRecord
  2
*U19
340
0
102
{BLKREFS
331
62C
102
}
 70
     0
280
     1
281
     0
  0
BLOCK_RECORD
  5
8EA
330
855
100
AcDbSymbolTableRecord
100
AcDbBlockTableRecord
  2
*D20
340
0
 70
     0
280
     1
281
     0
  0
BLOCK_RECORD
  5
8EC
330
855
100
AcDbSymbolTableRecord
100
AcDbBlockTableRecord
  2
*U21
340
0
102
{BLKREFS
331
5F0
102
}
 70
     0
280
     1
281
     0
  0
BLOCK_RECORD
  5
8ED
330
855
100
AcDbSymbolTableRecord
100
AcDbBlockTableRecord
  2
*D22
340
0
 70
     0
280
     1
281
     0
  0
BLOCK_RECORD
  5
8EF
330
855
100
AcDbSymbolTableRecord
100
AcDbBlockTableRecord
  2
*U23
340
0
102
{BLKREFS
331
6E8
102
}
 70
     0
280
     1
281
     0
  0
BLOCK_RECORD
  5
8FE
330
855
100
AcDbSymbolTableRecord
100
AcDbBlockTableRecord
  2
*D24
340
0
 70
     0
280
     1
281
     0
  0
BLOCK_RECORD
  5
90B
330
855
100
AcDbSymbolTableRecord
100
AcDbBlockTableRecord
  2
*D25
340
0
 70
     0
280
     1
281
     0
  0
BLOCK_RECORD
  5
919
330
855
100
AcDbSymbolTableRecord
100
AcDbBlockTableRecord
  2
*D26
340
0
 70
     0
280
     1
281
     0
  0
ENDTAB
  0
ENDSEC
  0
SECTION
  2
BLOCKS
  0
BLOCK
  5
8C0
330
8BF
100
AcDbEntity
  8
0
100
AcDbBlockBegin
  2
*Model_Space
 70
     0
 10
0.0
 20
0.0
 30
0.0
  3
*Model_Space
  1

  0
ENDBLK
  5
8C1
330
8BF
100
AcDbEntity
  8
0
100
AcDbBlockEnd
  0
BLOCK
  5
8BC
330
8BB
100
AcDbEntity
 67
     1
  8
0
100
AcDbBlockBegin
  2
*Paper_Space
 70
     0
 10
0.0
 20
0.0
 30
0.0
  3
*Paper_Space
  1

  0
ENDBLK
  5
8BD
330
8BB
100
AcDbEntity
 67
     1
  8
0
100
AcDbBlockEnd
  0
BLOCK
  5
8CC
330
8CB
100
AcDbEntity
  8
0
100
AcDbBlockBegin
  2
$MODEL_SPACE
 70
     0
 10
0.0
 20
0.0
 30
0.0
  3
$MODEL_SPACE
  1

  0
ENDBLK
  5
21
330
8CB
100
AcDbEntity
  8
0
100
AcDbBlockEnd
  0
BLOCK
  5
8CE
330
8CD
100
AcDbEntity
  8
0
100
AcDbBlockBegin
  2
$PAPER_SPACE
 70
     0
 10
0.0
 20
0.0
 30
0.0
  3
$PAPER_SPACE
  1

  0
ENDBLK
  5
1D
330
8CD
100
AcDbEntity
  8
0
100
AcDbBlockEnd
  0
BLOCK
  5
8D0
330
8CF
100
AcDbEntity
  8
0
100
AcDbBlockBegin
  2
*D2
 70
     1
 10
0.0
 20
0.0
 30
0.0
  3
*D2
  1

  0
LINE
  5
444
330
8CF
100
AcDbEntity
  8
TEKST
 62
     0
100
AcDbLine
 10
-260.8000088964999
 20
1.875
 30
0.0
 11
-260.8000088964999
 21
8.06017619044519
 31
0.0
  0
LINE
  5
445
330
8CF
100
AcDbEntity
  8
TEKST
 62
     0
100
AcDbLine
 10
260.5457906113024
 20
1.875
 30
0.0
 11
260.5457906113024
 21
8.06017619044519
 31
0.0
  0
LINE
  5
446
330
8CF
100
AcDbEntity
  8
TEKST
 62
     0
100
AcDbLine
 10
-253.3000088965
 20
4.310176190445189
 30
0.0
 11
253.0457906113024
 21
4.310176190445189
 31
0.0
  0
SOLID
  5
447
330
8CF
100
AcDbEntity
  8
TEKST
 62
     0
100
AcDbTrace
 10
-253.3000088965
 20
5.560176190445189
 30
0.0
 11
-253.3000088965
 21
3.06017619044519
 31
0.0
 12
-260.8000088964999
 22
4.310176190445189
 32
0.0
 13
-260.8000088964999
 23
4.310176190445189
 33
0.0
  0
SOLID
  5
448
330
8CF
100
AcDbEntity
  8
TEKST
 62
     0
100
AcDbTrace
 10
253.0457906113024
 20
5.560176190445189
 30
0.0
 11
253.0457906113024
 21
3.06017619044519
 31
0.0
 12
260.5457906113024
 22
4.310176190445189
 32
0.0
 13
260.5457906113024
 23
4.310176190445189
 33
0.0
  0
INSERT
  5
449
330
8CF
100
AcDbEntity
  8
deel 1
100
AcDbBlockReference
  2
*U3
 10
0.0
 20
0.0
 30
0.0
  0
POINT
  5
44A
330
8CF
100
AcDbEntity
  8
DEFPOINTS
 62
     0
100
AcDbPoint
 10
-260.8000088964999
 20
0.0
 30
0.0
  0
POINT
  5
44B
330
8CF
100
AcDbEntity
  8
DEFPOINTS
 62
     0
100
AcDbPoint
 10
260.5457906113024
 20
0.0
 30
0.0
  0
POINT
  5
44C
330
8CF
100
AcDbEntity
  8
DEFPOINTS
 62
     0
100
AcDbPoint
 10
260.5457906113024
 20
4.310176190445189
 30
0.0
  0
ENDBLK
  5
442
330
8CF
100
AcDbEntity
  8
0
100
AcDbBlockEnd
  0
BLOCK
  5
8F0
330
8D1
100
AcDbEntity
  8
0
100
AcDbBlockBegin
  2
*U3
 70
     1
 10
0.0
 20
0.0
 30
0.0
  3
*U3
  1

  0
TEXT
  5
7F5
330
8D1
100
AcDbEntity
  8
TEKST
 62
     0
100
AcDbText
 10
-8.877109142598753
 20
6.185176190445189
 30
0.0
 40
7.5
  1
521
100
AcDbText
  0
ENDBLK
  5
7F7
330
8D1
100
AcDbEntity
  8
0
100
AcDbBlockEnd
  0
BLOCK
  5
8D3
330
8D2
100
AcDbEntity
  8
0
100
AcDbBlockBegin
  2
*D4
 70
     1
 10
0.0
 20
0.0
 30
0.0
  3
*D4
  1

  0
LINE
  5
45C
330
8D2
100
AcDbEntity
  8
TEKST
 62
     0
100
AcDbLine
 10
-220.5880254573707
 20
0.0505521316149493
 30
0.0
 11
-110.7605177548901
 21
0.0505521316149182
 31
0.0
  0
LINE
  5
45D
330
8D2
100
AcDbEntity
  8
TEKST
 62
     0
100
AcDbLine
 10
-2.002109142598732
 20
85.00002006500931
 30
0.0
 11
-118.26051775489
 21
85.00002006500935
 31
0.0
  0
LINE
  5
45E
330
8D2
100
AcDbEntity
  8
TEKST
 62
     0
100
AcDbLine
 10
-114.51051775489
 20
7.550552131614918
 30
0.0
 11
-114.51051775489
 21
77.50002006500935
 31
0.0
  0
SOLID
  5
45F
330
8D2
100
AcDbEntity
  8
TEKST
 62
     0
100
AcDbTrace
 10
-115.7605177548901
 20
7.550552131614918
 30
0.0
 11
-113.26051775489
 21
7.550552131614916
 31
0.0
 12
-114.51051775489
 22
0.0505521316149192
 32
0.0
 13
-114.51051775489
 23
0.0505521316149192
 33
0.0
  0
SOLID
  5
460
330
8D2
100
AcDbEntity
  8
TEKST
 62
     0
100
AcDbTrace
 10
-115.76051775489
 20
77.50002006500935
 30
0.0
 11
-113.26051775489
 21
77.50002006500935
 31
0.0
 12
-114.51051775489
 22
85.00002006500935
 32
0.0
 13
-114.51051775489
 23
85.00002006500935
 33
0.0
  0
INSERT
  5
461
330
8D2
100
AcDbEntity
  8
deel 1
100
AcDbBlockReference
  2
*U5
 10
0.0
 20
0.0
 30
0.0
  0
POINT
  5
462
330
8D2
100
AcDbEntity
  8
DEFPOINTS
 62
     0
100
AcDbPoint
 10
-222.4630254573706
 20
0.0505521316149498
 30
0.0
  0
POINT
  5
463
330
8D2
100
AcDbEntity
  8
DEFPOINTS
 62
     0
100
AcDbPoint
 10
-0.1271091425987334
 20
85.00002006500931
 30
0.0
  0
POINT
  5
464
330
8D2
100
AcDbEntity
  8
DEFPOINTS
 62
     0
100
AcDbPoint
 10
-114.51051775489
 20
85.00002006500935
 30
0.0
  0
ENDBLK
  5
45A
330
8D2
100
AcDbEntity
  8
0
100
AcDbBlockEnd
  0
BLOCK
  5
8F1
330
8D4
100
AcDbEntity
  8
0
100
AcDbBlockBegin
  2
*U5
 70
     1
 10
0.0
 20
0.0
 30
0.0
  3
*U5
  1

  0
TEXT
  5
7F9
330
8D4
100
AcDbEntity
  8
TEKST
 62
     0
100
AcDbText
 10
-116.3855177548901
 20
36.27528609831212
 30
0.0
 40
7.5
  1
85
 50
90.0
100
AcDbText
  0
ENDBLK
  5
7FB
330
8D4
100
AcDbEntity
  8
0
100
AcDbBlockEnd
  0
BLOCK
  5
8D6
330
8D5
100
AcDbEntity
  8
0
100
AcDbBlockBegin
  2
*D6
 70
     1
 10
0.0
 20
0.0
 30
0.0
  3
*D6
  1

  0
LINE
  5
47A
330
8D5
100
AcDbEntity
  8
deel 1
 62
     0
100
AcDbLine
 10
-260.8000088964999
 20
-1.875
 30
0.0
 11
-260.8000088964999
 21
-168.2444179867506
 31
0.0
  0
LINE
  5
47B
330
8D5
100
AcDbEntity
  8
deel 1
 62
     0
100
AcDbLine
 10
260.5457906113024
 20
-1.875
 30
0.0
 11
260.5457906113024
 21
-168.2444179867506
 31
0.0
  0
LINE
  5
47C
330
8D5
100
AcDbEntity
  8
deel 1
 62
     0
100
AcDbLine
 10
-253.3000088965
 20
-164.4944179867507
 30
0.0
 11
253.0457906113024
 21
-164.4944179867507
 31
0.0
  0
SOLID
  5
47D
330
8D5
100
AcDbEntity
  8
deel 1
 62
     0
100
AcDbTrace
 10
-253.3000088965
 20
-163.2444179867507
 30
0.0
 11
-253.3000088965
 21
-165.7444179867507
 31
0.0
 12
-260.8000088964999
 22
-164.4944179867507
 32
0.0
 13
-260.8000088964999
 23
-164.4944179867507
 33
0.0
  0
SOLID
  5
47E
330
8D5
100
AcDbEntity
  8
deel 1
 62
     0
100
AcDbTrace
 10
253.0457906113024
 20
-163.2444179867507
 30
0.0
 11
253.0457906113024
 21
-165.7444179867507
 31
0.0
 12
260.5457906113024
 22
-164.4944179867507
 32
0.0
 13
260.5457906113024
 23
-164.4944179867507
 33
0.0
  0
INSERT
  5
47F
330
8D5
100
AcDbEntity
  8
deel 1
100
AcDbBlockReference
  2
*U7
 10
0.0
 20
0.0
 30
0.0
  0
POINT
  5
480
330
8D5
100
AcDbEntity
  8
DEFPOINTS
 62
     0
100
AcDbPoint
 10
-260.8000088964999
 20
0.0
 30
0.0
  0
POINT
  5
481
330
8D5
100
AcDbEntity
  8
DEFPOINTS
 62
     0
100
AcDbPoint
 10
260.5457906113024
 20
0.0
 30
0.0
  0
POINT
  5
482
330
8D5
100
AcDbEntity
  8
DEFPOINTS
 62
     0
100
AcDbPoint
 10
260.5457906113024
 20
-164.4944179867507
 30
0.0
  0
ENDBLK
  5
478
330
8D5
100
AcDbEntity
  8
0
100
AcDbBlockEnd
  0
BLOCK
  5
8F2
330
8D7
100
AcDbEntity
  8
0
100
AcDbBlockBegin
  2
*U7
 70
     1
 10
0.0
 20
0.0
 30
0.0
  3
*U7
  1

  0
TEXT
  5
7FD
330
8D7
100
AcDbEntity
  8
deel 1
 62
     0
100
AcDbText
 10
-8.877109142598753
 20
-162.6194179867507
 30
0.0
 40
7.5
  1
521
100
AcDbText
  0
ENDBLK
  5
7FF
330
8D7
100
AcDbEntity
  8
0
100
AcDbBlockEnd
  0
BLOCK
  5
8D9
330
8D8
100
AcDbEntity
  8
0
100
AcDbBlockBegin
  2
*D8
 70
     1
 10
0.0
 20
0.0
 30
0.0
  3
*D8
  1

  0
LINE
  5
492
330
8D8
100
AcDbEntity
  8
deel 1
 62
     0
100
AcDbLine
 10
222.5224395114358
 20
-1.874903368800005
 30
0.0
 11
222.5224395114358
 21
-51.92528630891729
 31
0.0
  0
LINE
  5
493
330
8D8
100
AcDbEntity
  8
deel 1
 62
     0
100
AcDbLine
 10
260.5457906113024
 20
-3.75
 30
0.0
 11
260.5457906113024
 21
-51.92528630891729
 31
0.0
  0
LINE
  5
494
330
8D8
100
AcDbEntity
  8
deel 1
 62
     0
100
AcDbLine
 10
230.0224395114359
 20
-48.17528630891729
 30
0.0
 11
253.0457906113024
 21
-48.17528630891729
 31
0.0
  0
SOLID
  5
495
330
8D8
100
AcDbEntity
  8
deel 1
 62
     0
100
AcDbTrace
 10
230.0224395114359
 20
-46.92528630891729
 30
0.0
 11
230.0224395114359
 21
-49.42528630891729
 31
0.0
 12
222.5224395114358
 22
-48.17528630891729
 32
0.0
 13
222.5224395114358
 23
-48.17528630891729
 33
0.0
  0
SOLID
  5
496
330
8D8
100
AcDbEntity
  8
deel 1
 62
     0
100
AcDbTrace
 10
253.0457906113024
 20
-46.92528630891729
 30
0.0
 11
253.0457906113024
 21
-49.42528630891729
 31
0.0
 12
260.5457906113024
 22
-48.17528630891729
 32
0.0
 13
260.5457906113024
 23
-48.17528630891729
 33
0.0
  0
INSERT
  5
497
330
8D8
100
AcDbEntity
  8
deel 1
100
AcDbBlockReference
  2
*U9
 10
0.0
 20
0.0
 30
0.0
  0
POINT
  5
498
330
8D8
100
AcDbEntity
  8
DEFPOINTS
 62
     0
100
AcDbPoint
 10
222.5224395114358
 20
0.0000966311999946
 30
0.0
  0
POINT
  5
499
330
8D8
100
AcDbEntity
  8
DEFPOINTS
 62
     0
100
AcDbPoint
 10
260.5457906113024
 20
-1.875
 30
0.0
  0
POINT
  5
49A
330
8D8
100
AcDbEntity
  8
DEFPOINTS
 62
     0
100
AcDbPoint
 10
260.5457906113024
 20
-48.17528630891729
 30
0.0
  0
ENDBLK
  5
490
330
8D8
100
AcDbEntity
  8
0
100
AcDbBlockEnd
  0
BLOCK
  5
8F3
330
8DA
100
AcDbEntity
  8
0
100
AcDbBlockBegin
  2
*U9
 70
     1
 10
0.0
 20
0.0
 30
0.0
  3
*U9
  1

  0
TEXT
  5
801
330
8DA
100
AcDbEntity
  8
deel 1
 62
     0
100
AcDbText
 10
235.2841150613691
 20
-46.30028630891728
 30
0.0
 40
7.5
  1
38
100
AcDbText
  0
ENDBLK
  5
803
330
8DA
100
AcDbEntity
  8
0
100
AcDbBlockEnd
  0
BLOCK
  5
8DC
330
8DB
100
AcDbEntity
  8
0
100
AcDbBlockBegin
  2
*D10
 70
     1
 10
0.0
 20
0.0
 30
0.0
  3
*D10
  1

  0
LINE
  5
4AD
330
8DB
100
AcDbEntity
  8
deel 1
 62
     0
100
AcDbLine
 10
-0.251854776522499
 20
34.13734224594813
 30
0.0
 11
-4.515374646522649
 21
-2.996582062072194
 31
0.0
  0
LINE
  5
4AE
330
8DB
100
AcDbEntity
  8
deel 1
 62
     0
100
AcDbLine
 10
159.7481452234775
 20
15.76699244015921
 30
0.0
 11
155.4846253534773
 21
-21.36693186786116
 31
0.0
  0
LINE
  5
4AF
330
8DB
100
AcDbEntity
  8
deel 1
 62
     0
100
AcDbLine
 10
3.363419694114138
 20
-0.1265472647309376
 30
0.0
 11
148.4613209112222
 21
-16.7859172737565
 31
0.0
  0
SOLID
  5
4B0
330
8DB
100
AcDbEntity
  8
deel 1
 62
     0
100
AcDbTrace
 10
3.506001343844423
 20
1.115294300510049
 30
0.0
 11
3.220838044383852
 21
-1.368388829971926
 31
0.0
 12
-4.087629697331795
 22
0.7289426336507681
 32
0.0
 13
-4.087629697331795
 23
0.7289426336507681
 33
0.0
  0
SOLID
  5
4B1
330
8DB
100
AcDbEntity
  8
deel 1
 62
     0
100
AcDbTrace
 10
148.6039025609524
 20
-15.54407570851551
 30
0.0
 11
148.3187392614919
 21
-18.02775883899748
 31
0.0
 12
155.9123703026681
 22
-17.6414071721382
 32
0.0
 13
155.9123703026681
 23
-17.6414071721382
 33
0.0
  0
INSERT
  5
4B2
330
8DB
100
AcDbEntity
  8
deel 1
100
AcDbBlockReference
  2
*U11
 10
0.0
 20
0.0
 30
0.0
  0
POINT
  5
4B3
330
8DB
100
AcDbEntity
  8
DEFPOINTS
 62
     0
100
AcDbPoint
 10
-0.0379823019270731
 20
36.00010459380961
 30
0.0
  0
POINT
  5
4B4
330
8DB
100
AcDbEntity
  8
DEFPOINTS
 62
     0
100
AcDbPoint
 10
159.9620176980729
 20
17.6297547880207
 30
0.0
  0
POINT
  5
4B5
330
8DB
100
AcDbEntity
  8
DEFPOINTS
 62
     0
100
AcDbPoint
 10
155.9123703026681
 20
-17.6414071721382
 30
0.0
  0
ENDBLK
  5
4AB
330
8DB
100
AcDbEntity
  8
0
100
AcDbBlockEnd
  0
BLOCK
  5
8F4
330
8DD
100
AcDbEntity
  8
0
100
AcDbBlockBegin
  2
*U11
 70
     1
 10
0.0
 20
0.0
 30
0.0
  3
*U11
  1

  0
TEXT
  5
805
330
8DD
100
AcDbEntity
  8
deel 1
 62
     0
100
AcDbText
 10
68.67519338581768
 20
-5.737980023000528
 30
0.0
 40
7.5
  1
161
 50
353.4502829272137
100
AcDbText
  0
ENDBLK
  5
807
330
8DD
100
AcDbEntity
  8
0
100
AcDbBlockEnd
  0
BLOCK
  5
8DF
330
8DE
100
AcDbEntity
  8
0
100
AcDbBlockBegin
  2
*D12
 70
     1
 10
0.0
 20
0.0
 30
0.0
  3
*D12
  1

  0
LINE
  5
4DF
330
8DE
100
AcDbEntity
  8
deel 1
 62
     0
100
AcDbLine
 10
213.4590773853834
 20
24.39557175953389
 30
0.0
 11
228.1176162233248
 21
23.81028820157223
 31
0.0
  0
LINE
  5
4E0
330
8DE
100
AcDbEntity
  8
deel 1
 62
     0
100
AcDbLine
 10
213.7888656853257
 20
32.65518291252563
 30
0.0
 11
228.4474045232671
 21
32.06989935456397
 31
0.0
  0
LINE
  5
4E1
330
8DE
100
AcDbEntity
  8
deel 1
 62
     0
100
AcDbLine
 10
224.0713815759182
 20
16.46586956030957
 30
0.0
 11
223.772161314498
 21
8.971840788336816
 31
0.0
  0
LINE
  5
4E2
330
8DE
100
AcDbEntity
  8
deel 1
 62
     0
100
AcDbLine
 10
224.9996103987009
 20
39.71353825724683
 30
0.0
 11
225.6479209651114
 21
55.95060059652116
 31
0.0
  0
LINE
  5
4E3
330
8DE
100
AcDbEntity
  8
deel 1
 62
     0
100
AcDbLine
 10
224.3706018373384
 20
23.95989833228234
 30
0.0
 11
224.7003901372807
 21
32.21950948527407
 31
0.0
  0
SOLID
  5
4E4
330
8DE
100
AcDbEntity
  8
deel 1
 62
     0
100
AcDbTrace
 10
222.8223767805894
 20
16.5157396038796
 30
0.0
 11
225.320386371247
 21
16.41599951673954
 31
0.0
 12
224.3706018373384
 22
23.95989833228234
 32
0.0
 13
224.3706018373384
 23
23.95989833228234
 33
0.0
  0
SOLID
  5
4E5
330
8DE
100
AcDbEntity
  8
deel 1
 62
     0
100
AcDbTrace
 10
223.750605603372
 20
39.76340830081687
 30
0.0
 11
226.2486151940297
 21
39.6636682136768
 31
0.0
 12
224.7003901372807
 22
32.21950948527407
 32
0.0
 13
224.7003901372807
 23
32.21950948527407
 33
0.0
  0
INSERT
  5
4E6
330
8DE
100
AcDbEntity
  8
deel 1
100
AcDbBlockReference
  2
*U13
 10
0.0
 20
0.0
 30
0.0
  0
POINT
  5
4E7
330
8DE
100
AcDbEntity
  8
DEFPOINTS
 62
     0
100
AcDbPoint
 10
211.5855701923902
 20
24.47037682488894
 30
0.0
  0
POINT
  5
4E8
330
8DE
100
AcDbEntity
  8
DEFPOINTS
 62
     0
100
AcDbPoint
 10
211.9153584923326
 20
32.72998797788068
 30
0.0
  0
POINT
  5
4E9
330
8DE
100
AcDbEntity
  8
DEFPOINTS
 62
     0
100
AcDbPoint
 10
224.7003901372807
 20
32.21950948527407
 30
0.0
  0
ENDBLK
  5
4DD
330
8DE
100
AcDbEntity
  8
0
100
AcDbBlockEnd
  0
BLOCK
  5
8F5
330
8E0
100
AcDbEntity
  8
0
100
AcDbBlockBegin
  2
*U13
 70
     1
 10
0.0
 20
0.0
 30
0.0
  3
*U13
  1

  0
TEXT
  5
809
330
8E0
100
AcDbEntity
  8
deel 1
 62
     0
100
AcDbText
 10
223.500128532483
 20
49.15587928756786
 30
0.0
 40
7.5
  1
8
 50
87.71351874674254
100
AcDbText
  0
ENDBLK
  5
80B
330
8E0
100
AcDbEntity
  8
0
100
AcDbBlockEnd
  0
BLOCK
  5
8E2
330
8E1
100
AcDbEntity
  8
0
100
AcDbBlockBegin
  2
*D14
 70
     1
 10
0.0
 20
0.0
 30
0.0
  3
*D14
  1

  0
LINE
  5
6B4
330
8E1
100
AcDbEntity
  8
TEKST
 62
     0
100
AcDbLine
 10
-0.0379823019270731
 20
34.12510459380962
 30
0.0
 11
-0.0379823019270802
 21
-110.7469566698993
 31
0.0
  0
ARC
  5
6B5
330
8E1
100
AcDbEntity
  8
TEKST
 62
     0
100
AcDbCircle
 10
-0.0379823019270731
 20
49.32184825851312
 30
0.0
 40
156.3188049284125
100
AcDbArc
 50
272.7492506347918
 51
351.7585094886308
  0
SOLID
  5
6B6
330
8E1
100
AcDbEntity
  8
TEKST
 62
     0
100
AcDbTrace
 10
7.489846083822143
 20
-108.0666761633686
 30
0.0
 11
7.429872493285206
 21
-105.5673956332084
 31
0.0
 12
-0.0379823019270802
 22
-106.9969566698993
 32
0.0
 13
-0.0379823019270802
 23
-106.9969566698993
 33
0.0
  0
SOLID
  5
6B7
330
8E1
100
AcDbEntity
  8
TEKST
 62
     0
100
AcDbTrace
 10
153.4254361202101
 20
27.06368268307522
 30
0.0
 11
155.907502751274
 21
26.76477594350743
 31
0.0
 12
155.5631896544454
 22
34.36042920648307
 32
0.0
 13
155.5631896544454
 23
34.36042920648307
 33
0.0
  0
INSERT
  5
6B8
330
8E1
100
AcDbEntity
  8
deel 1
100
AcDbBlockReference
  2
*U15
 10
0.0
 20
0.0
 30
0.0
  0
POINT
  5
6B9
330
8E1
100
AcDbEntity
  8
DEFPOINTS
 62
     0
100
AcDbPoint
 10
73.75664946109475
 20
-88.48207438959979
 30
0.0
  0
POINT
  5
6BA
330
8E1
100
AcDbEntity
  8
DEFPOINTS
 62
     0
100
AcDbPoint
 10
-0.0379823019270731
 20
36.00010459380962
 30
0.0
  0
POINT
  5
6BB
330
8E1
100
AcDbEntity
  8
DEFPOINTS
 62
     0
100
AcDbPoint
 10
138.5522285666338
 20
35.99607316798167
 30
0.0
  0
POINT
  5
6BC
330
8E1
100
AcDbEntity
  8
DEFPOINTS
 62
     0
100
AcDbPoint
 10
227.34488712063
 20
27.45844998258162
 30
0.0
  0
POINT
  5
6BD
330
8E1
100
AcDbEntity
  8
DEFPOINTS
 62
     0
100
AcDbPoint
 10
-0.0379823019270731
 20
129.849727687839
 30
0.0
  0
ENDBLK
  5
51A
330
8E1
100
AcDbEntity
  8
0
100
AcDbBlockEnd
  0
BLOCK
  5
8F9
330
8E3
100
AcDbEntity
  8
0
100
AcDbBlockBegin
  2
*U15
 70
     1
 10
0.0
 20
0.0
 30
0.0
  3
*U15
  1

  0
TEXT
  5
819
330
8E3
100
AcDbEntity
  8
TEKST
 62
     0
100
AcDbText
 10
90.48171370661698
 20
-75.41504334924366
 30
0.0
 40
7.5
  1
84,51째
 50
42.25388006171145
100
AcDbText
  0
ENDBLK
  5
81B
330
8E3
100
AcDbEntity
  8
0
100
AcDbBlockEnd
  0
BLOCK
  5
8E5
330
8E4
100
AcDbEntity
  8
0
100
AcDbBlockBegin
  2
*D16
 70
     1
 10
0.0
 20
0.0
 30
0.0
  3
*D16
  1

  0
LINE
  5
6AA
330
8E4
100
AcDbEntity
  8
TEKST
 62
     0
100
AcDbLine
 10
-0.0379823019270766
 20
34.10897889049802
 30
0.0
 11
-0.0379823019270944
 21
-82.7876644481603
 31
0.0
  0
ARC
  5
6AB
330
8E4
100
AcDbEntity
  8
TEKST
 62
     0
100
AcDbCircle
 10
-0.0379823019270731
 20
35.98397889049801
 30
0.0
 40
115.0216433386582
100
AcDbArc
 50
273.7366403125554
 51
356.2683596874442
  0
SOLID
  5
6AC
330
8E4
100
AcDbEntity
  8
TEKST
 62
     0
100
AcDbTrace
 10
7.498783862117846
 20
-80.04248074406081
 30
0.0
 11
7.417277462731801
 21
-77.5438097559435
 31
0.0
 12
-0.0379823019270944
 22
-79.0376644481603
 32
0.0
 13
-0.0379823019270944
 23
-79.0376644481603
 33
0.0
  0
SOLID
  5
6AD
330
8E4
100
AcDbEntity
  8
TEKST
 62
     0
100
AcDbTrace
 10
113.4904565063792
 20
28.53862632273562
 30
0.0
 11
115.9891345977574
 21
28.45733797383799
 31
0.0
 12
114.9836605987612
 22
35.99401642242146
 32
0.0
 13
114.9836605987612
 23
35.99401642242146
 33
0.0
  0
INSERT
  5
6AE
330
8E4
100
AcDbEntity
  8
deel 1
100
AcDbBlockReference
  2
*U17
 10
0.0
 20
0.0
 30
0.0
  0
POINT
  5
6AF
330
8E4
100
AcDbEntity
  8
DEFPOINTS
 62
     0
100
AcDbPoint
 10
57.47573692895265
 20
-63.62601326168045
 30
0.0
  0
POINT
  5
6B0
330
8E4
100
AcDbEntity
  8
DEFPOINTS
 62
     0
100
AcDbPoint
 10
-0.0379823019270731
 20
36.00010459380962
 30
0.0
  0
POINT
  5
6B1
330
8E4
100
AcDbEntity
  8
DEFPOINTS
 62
     0
100
AcDbPoint
 10
92.35549161044565
 20
35.9920417421538
 30
0.0
  0
POINT
  5
6B2
330
8E4
100
AcDbEntity
  8
DEFPOINTS
 62
     0
100
AcDbPoint
 10
138.552228566632
 20
35.99607316798169
 30
0.0
  0
POINT
  5
6B3
330
8E4
100
AcDbEntity
  8
DEFPOINTS
 62
     0
100
AcDbPoint
 10
-0.0379823019270731
 20
129.849727687839
 30
0.0
  0
ENDBLK
  5
53E
330
8E4
100
AcDbEntity
  8
0
100
AcDbBlockEnd
  0
BLOCK
  5
8F8
330
8E6
100
AcDbEntity
  8
0
100
AcDbBlockBegin
  2
*U17
 70
     1
 10
0.0
 20
0.0
 30
0.0
  3
*U17
  1

  0
TEXT
  5
815
330
8E6
100
AcDbEntity
  8
TEKST
 62
     0
100
AcDbText
 10
67.59836148990384
 20
-54.62643049458399
 30
0.0
 40
7.5
  1
90,00째
 50
45.00249999999985
100
AcDbText
  0
ENDBLK
  5
817
330
8E6
100
AcDbEntity
  8
0
100
AcDbBlockEnd
  0
BLOCK
  5
8E8
330
8E7
100
AcDbEntity
  8
0
100
AcDbBlockBegin
  2
*D18
 70
     1
 10
0.0
 20
0.0
 30
0.0
  3
*D18
  1

  0
LINE
  5
628
330
8E7
100
AcDbEntity
  8
TEKST
 62
     0
100
AcDbLine
 10
-0.0379823019270731
 20
34.12510459380962
 30
0.0
 11
-0.0379823019270944
 21
-42.55644439298253
 31
0.0
  0
ARC
  5
629
330
8E7
100
AcDbEntity
  8
TEKST
 62
     0
100
AcDbCircle
 10
-0.0379823019270731
 20
36.00010459380985
 30
0.0
 40
74.80654898679238
100
AcDbArc
 50
275.746803355528
 51
354.248196644472
  0
SOLID
  5
62A
330
8E7
100
AcDbEntity
  8
TEKST
 62
     0
100
AcDbTrace
 10
7.515249845954301
 20
-39.67890305688074
 30
0.0
 11
7.389926593819582
 21
-37.18204621627606
 31
0.0
 12
-0.0379823019270909
 22
-38.80644439298254
 32
0.0
 13
-0.0379823019270909
 23
-38.80644439298254
 33
0.0
  0
SOLID
  5
62B
330
8E7
100
AcDbEntity
  8
TEKST
 62
     0
100
AcDbTrace
 10
73.14352002216883
 20
28.56580937892806
 30
0.0
 11
75.64036591674931
 21
28.44026823540671
 31
0.0
 12
74.7685664000231
 22
35.9935764909088
 32
0.0
 13
74.7685664000231
 23
35.9935764909088
 33
0.0
  0
INSERT
  5
62C
330
8E7
100
AcDbEntity
  8
deel 1
100
AcDbBlockReference
  2
*U19
 10
0.0
 20
0.0
 30
0.0
  0
POINT
  5
62D
330
8E7
100
AcDbEntity
  8
DEFPOINTS
 62
     0
100
AcDbPoint
 10
37.36340767465883
 20
-28.78535518793986
 30
0.0
  0
POINT
  5
62E
330
8E7
100
AcDbEntity
  8
DEFPOINTS
 62
     0
100
AcDbPoint
 10
-0.0379823019270731
 20
36.00010459380962
 30
0.0
  0
POINT
  5
62F
330
8E7
100
AcDbEntity
  8
DEFPOINTS
 62
     0
100
AcDbPoint
 10
46.15875465425931
 20
35.99607316798183
 30
0.0
  0
POINT
  5
630
330
8E7
100
AcDbEntity
  8
DEFPOINTS
 62
     0
100
AcDbPoint
 10
92.35549161044565
 20
35.9920417421538
 30
0.0
  0
POINT
  5
631
330
8E7
100
AcDbEntity
  8
DEFPOINTS
 62
     0
100
AcDbPoint
 10
-0.0379823019270731
 20
129.849727687839
 30
0.0
  0
ENDBLK
  5
558
330
8E7
100
AcDbEntity
  8
0
100
AcDbBlockEnd
  0
BLOCK
  5
8F7
330
8E9
100
AcDbEntity
  8
0
100
AcDbBlockBegin
  2
*U19
 70
     1
 10
0.0
 20
0.0
 30
0.0
  3
*U19
  1

  0
TEXT
  5
811
330
8E9
100
AcDbEntity
  8
TEKST
 62
     0
100
AcDbText
 10
39.1553288578116
 20
-26.17860016498858
 30
0.0
 40
7.5
  1
90,00째
 50
44.99750000000001
100
AcDbText
  0
ENDBLK
  5
813
330
8E9
100
AcDbEntity
  8
0
100
AcDbBlockEnd
  0
BLOCK
  5
8EB
330
8EA
100
AcDbEntity
  8
0
100
AcDbBlockBegin
  2
*D20
 70
     1
 10
0.0
 20
0.0
 30
0.0
  3
*D20
  1

  0
LINE
  5
5EA
330
8EA
100
AcDbEntity
  8
TEKST
 62
     0
100
AcDbLine
 10
-0.0379823019270731
 20
34.12510459380962
 30
0.0
 11
-0.0379823019270811
 21
4.238625262678193
 31
0.0
  0
ARC
  5
5EB
330
8EA
100
AcDbEntity
  8
TEKST
 62
     0
100
AcDbCircle
 10
-0.0379823019270731
 20
36.00010459380962
 30
0.0
 40
28.01147933113143
100
AcDbArc
 50
239.2260172670109
 51
254.6130086335053
  0
ARC
  5
5EC
330
8EA
100
AcDbEntity
  8
TEKST
 62
     0
100
AcDbCircle
 10
-0.0379823019270731
 20
36.00010459380962
 30
0.0
 40
28.01147933113143
100
AcDbArc
 50
15.38199136649454
 51
30.76898273298919
  0
ARC
  5
5ED
330
8EA
100
AcDbEntity
  8
TEKST
 62
     0
100
AcDbCircle
 10
-0.0379823019270731
 20
36.00010459380962
 30
0.0
 40
28.01147933113143
100
AcDbArc
 50
270.0
 51
359.995
  0
SOLID
  5
5EE
330
8EA
100
AcDbEntity
  8
TEKST
 62
     0
100
AcDbTrace
 10
-7.303128221467718
 20
10.23142591538498
 30
0.0
 11
-7.637812437505561
 21
7.753929906198466
 31
0.0
 12
-0.0379823019270802
 22
7.988625262678195
 32
0.0
 13
-0.0379823019270802
 23
7.988625262678195
 33
0.0
  0
SOLID
  5
5EF
330
8EA
100
AcDbEntity
  8
TEKST
 62
     0
100
AcDbTrace
 10
28.20885548842205
 20
43.59746975670629
 30
0.0
 11
25.73133028196155
 21
43.26300174425536
 31
0.0
 12
27.97349692254455
 22
35.99766013109933
 32
0.0
 13
27.97349692254455
 23
35.99766013109933
 33
0.0
  0
INSERT
  5
5F0
330
8EA
100
AcDbEntity
  8
deel 1
100
AcDbBlockReference
  2
*U21
 10
0.0
 20
0.0
 30
0.0
  0
POINT
  5
5F1
330
8EA
100
AcDbEntity
  8
DEFPOINTS
 62
     0
100
AcDbPoint
 10
13.9670517021104
 20
11.74104449527824
 30
0.0
  0
POINT
  5
5F2
330
8EA
100
AcDbEntity
  8
DEFPOINTS
 62
     0
100
AcDbPoint
 10
-0.0379823019270731
 20
36.00010459380962
 30
0.0
  0
POINT
  5
5F3
330
8EA
100
AcDbEntity
  8
DEFPOINTS
 62
     0
100
AcDbPoint
 10
-0.0379823019270731
 20
36.00010459380962
 30
0.0
  0
POINT
  5
5F4
330
8EA
100
AcDbEntity
  8
DEFPOINTS
 62
     0
100
AcDbPoint
 10
46.15875465425931
 20
35.9960731679816
 30
0.0
  0
POINT
  5
5F5
330
8EA
100
AcDbEntity
  8
DEFPOINTS
 62
     0
100
AcDbPoint
 10
-0.0379823019270731
 20
129.849727687839
 30
0.0
  0
ENDBLK
  5
572
330
8EA
100
AcDbEntity
  8
0
100
AcDbBlockEnd
  0
BLOCK
  5
8F6
330
8EC
100
AcDbEntity
  8
0
100
AcDbBlockBegin
  2
*U21
 70
     1
 10
0.0
 20
0.0
 30
0.0
  3
*U21
  1

  0
TEXT
  5
80D
330
8EC
100
AcDbEntity
  8
TEKST
 62
     0
100
AcDbText
 10
6.067661594532159
 20
6.911954667964178
 30
0.0
 40
7.5
  1
90,00째
 50
44.99750000000001
100
AcDbText
  0
ENDBLK
  5
80F
330
8EC
100
AcDbEntity
  8
0
100
AcDbBlockEnd
  0
BLOCK
  5
8EE
330
8ED
100
AcDbEntity
  8
0
100
AcDbBlockBegin
  2
*D22
 70
     1
 10
0.0
 20
0.0
 30
0.0
  3
*D22
  1

  0
LINE
  5
6E3
330
8ED
100
AcDbEntity
  8
TEKST
 62
     0
100
AcDbLine
 10
-262.8294932891225
 20
23.69503823714905
 30
0.0
 11
-262.8294932891225
 21
-49.7658387096817
 31
0.0
  0
LINE
  5
6E4
330
8ED
100
AcDbEntity
  8
TEKST
 62
     0
100
AcDbLine
 10
262.7535286852684
 20
23.69503823714905
 30
0.0
 11
262.7535286852684
 21
-49.7658387096817
 31
0.0
  0
LINE
  5
6E5
330
8ED
100
AcDbEntity
  8
TEKST
 62
     0
100
AcDbLine
 10
-255.3294932891225
 20
-46.0158387096817
 30
0.0
 11
255.2535286852684
 21
-46.0158387096817
 31
0.0
  0
SOLID
  5
6E6
330
8ED
100
AcDbEntity
  8
TEKST
 62
     0
100
AcDbTrace
 10
-255.3294932891225
 20
-44.76583870968169
 30
0.0
 11
-255.3294932891225
 21
-47.2658387096817
 31
0.0
 12
-262.8294932891225
 22
-46.0158387096817
 32
0.0
 13
-262.8294932891225
 23
-46.0158387096817
 33
0.0
  0
SOLID
  5
6E7
330
8ED
100
AcDbEntity
  8
TEKST
 62
     0
100
AcDbTrace
 10
255.2535286852684
 20
-44.76583870968169
 30
0.0
 11
255.2535286852684
 21
-47.2658387096817
 31
0.0
 12
262.7535286852684
 22
-46.0158387096817
 32
0.0
 13
262.7535286852684
 23
-46.0158387096817
 33
0.0
  0
INSERT
  5
6E8
330
8ED
100
AcDbEntity
  8
deel 1
100
AcDbBlockReference
  2
*U23
 10
0.0
 20
0.0
 30
0.0
  0
POINT
  5
6E9
330
8ED
100
AcDbEntity
  8
DEFPOINTS
 62
     0
100
AcDbPoint
 10
-262.8294932891225
 20
25.57003823714905
 30
0.0
  0
POINT
  5
6EA
330
8ED
100
AcDbEntity
  8
DEFPOINTS
 62
     0
100
AcDbPoint
 10
262.7535286852684
 20
25.57003823714905
 30
0.0
  0
POINT
  5
6EB
330
8ED
100
AcDbEntity
  8
DEFPOINTS
 62
     0
100
AcDbPoint
 10
262.7535286852684
 20
-46.0158387096817
 30
0.0
  0
ENDBLK
  5
6E1
330
8ED
100
AcDbEntity
  8
0
100
AcDbBlockEnd
  0
BLOCK
  5
8FA
330
8EF
100
AcDbEntity
  8
0
100
AcDbBlockBegin
  2
*U23
 70
     1
 10
0.0
 20
0.0
 30
0.0
  3
*U23
  1

  0
TEXT
  5
81D
330
8EF
100
AcDbEntity
  8
TEKST
 62
     0
100
AcDbText
 10
-10.03798230192706
 20
-44.14083870968169
 30
0.0
 40
7.5
  1
526
100
AcDbText
  0
ENDBLK
  5
81F
330
8EF
100
AcDbEntity
  8
0
100
AcDbBlockEnd
  0
BLOCK
  5
8FF
330
8FE
100
AcDbEntity
  8
0
100
AcDbBlockBegin
  2
*D24
 70
     1
 10
0.0
 20
0.0
 30
0.0
  3
*D24
  1

  0
LINE
  5
901
330
8FE
100
AcDbEntity
  8
TEKST
 62
     0
440
 16777216
370
    -2
100
AcDbLine
 10
-0.0000000000000001
 20
-1.875
 30
0.0
 11
-0.0000000000000011
 21
-17.63401365764116
 31
0.0
  0
LINE
  5
902
330
8FE
100
AcDbEntity
  8
TEKST
 62
     0
440
 16777216
370
    -2
100
AcDbLine
 10
525.5830219743909
 20
-1.875
 30
0.0
 11
525.5830219743909
 21
-17.63401365764116
 31
0.0
  0
LINE
  5
903
330
8FE
100
AcDbEntity
  8
TEKST
 62
     0
440
 16777216
370
    -2
100
AcDbLine
 10
7.499999999999999
 20
-13.88401365764116
 30
0.0
 11
518.0830219743909
 21
-13.88401365764116
 31
0.0
  0
SOLID
  5
904
330
8FE
100
AcDbEntity
  8
TEKST
 62
     0
440
 16777216
100
AcDbTrace
 10
7.499999999999999
 20
-12.63401365764116
 30
0.0
 11
7.499999999999999
 21
-15.13401365764116
 31
0.0
 12
-0.0000000000000009
 22
-13.88401365764116
 32
0.0
 13
-0.0000000000000009
 23
-13.88401365764116
 33
0.0
  0
SOLID
  5
905
330
8FE
100
AcDbEntity
  8
TEKST
 62
     0
440
 16777216
100
AcDbTrace
 10
518.0830219743909
 20
-12.63401365764116
 30
0.0
 11
518.0830219743909
 21
-15.13401365764116
 31
0.0
 12
525.5830219743909
 22
-13.88401365764116
 32
0.0
 13
525.5830219743909
 23
-13.88401365764116
 33
0.0
  0
MTEXT
  5
906
330
8FE
100
AcDbEntity
  8
TEKST
 62
     0
440
 16777216
100
AcDbMText
 10
262.7915109871955
 20
-8.259013657641162
 30
0.0
 40
7.5
 41
0.0
 46
0.0
 71
     5
 72
     1
  1
\A1;525.583
 73
     1
 44
1.0
  0
POINT
  5
907
330
8FE
100
AcDbEntity
  8
DEFPOINTS
 62
     0
440
 16777216
100
AcDbPoint
 10
0.0
 20
0.0
 30
0.0
  0
POINT
  5
908
330
8FE
100
AcDbEntity
  8
DEFPOINTS
 62
     0
440
 16777216
100
AcDbPoint
 10
525.5830219743909
 20
0.0
 30
0.0
  0
POINT
  5
909
330
8FE
100
AcDbEntity
  8
DEFPOINTS
 62
     0
440
 16777216
100
AcDbPoint
 10
525.5830219743909
 20
-13.88401365764116
 30
0.0
  0
ENDBLK
  5
900
330
8FE
100
AcDbEntity
  8
0
100
AcDbBlockEnd
  0
BLOCK
  5
90C
330
90B
100
AcDbEntity
  8
0
100
AcDbBlockBegin
  2
*D25
 70
     1
 10
0.0
 20
0.0
 30
0.0
  3
*D25
  1

  0
LINE
  5
90E
330
90B
100
AcDbEntity
  8
TEKST
 62
     0
440
 16777216
370
    -2
100
AcDbLine
 10
527.4580219743909
 20
-0.0000000000000005
 30
0.0
 11
553.0178924703728
 21
-0.0000000000000078
 31
0.0
  0
LINE
  5
90F
330
90B
100
AcDbEntity
  8
TEKST
 62
     0
440
 16777216
370
    -2
100
AcDbLine
 10
437.6227209057559
 20
44.57814498219117
 30
0.0
 11
553.0178924703728
 21
44.57814498219114
 31
0.0
  0
LINE
  5
910
330
90B
100
AcDbEntity
  8
TEKST
 62
     0
440
 16777216
370
    -2
100
AcDbLine
 10
549.2678924703727
 20
7.499999999999993
 30
0.0
 11
549.2678924703727
 21
37.07814498219115
 31
0.0
  0
LINE
  5
911
330
90B
100
AcDbEntity
  8
TEKST
 62
     0
440
 16777216
370
    -2
100
AcDbLine
 10
549.2678924703727
 20
44.57814498219114
 30
0.0
 11
549.2678924703727
 21
98.32814498219114
 31
0.0
  0
SOLID
  5
912
330
90B
100
AcDbEntity
  8
TEKST
 62
     0
440
 16777216
100
AcDbTrace
 10
548.0178924703728
 20
7.499999999999993
 30
0.0
 11
550.5178924703727
 21
7.499999999999992
 31
0.0
 12
549.2678924703727
 22
-0.0000000000000067
 32
0.0
 13
549.2678924703727
 23
-0.0000000000000067
 33
0.0
  0
SOLID
  5
913
330
90B
100
AcDbEntity
  8
TEKST
 62
     0
440
 16777216
100
AcDbTrace
 10
548.0178924703728
 20
37.07814498219115
 30
0.0
 11
550.5178924703727
 21
37.07814498219115
 31
0.0
 12
549.2678924703727
 22
44.57814498219114
 32
0.0
 13
549.2678924703727
 23
44.57814498219114
 33
0.0
  0
MTEXT
  5
914
330
90B
100
AcDbEntity
  8
TEKST
 62
     0
440
 16777216
100
AcDbMText
 10
543.6428924703728
 20
75.20314498219125
 30
0.0
 40
7.5
 41
0.0
 46
0.0
 71
     5
 72
     1
  1
\A1;44.5781
 11
0.0000000000000001
 21
1.0
 31
0.0
 73
     1
 44
1.0
  0
POINT
  5
915
330
90B
100
AcDbEntity
  8
DEFPOINTS
 62
     0
440
 16777216
100
AcDbPoint
 10
525.5830219743909
 20
0.0
 30
0.0
  0
POINT
  5
916
330
90B
100
AcDbEntity
  8
DEFPOINTS
 62
     0
440
 16777216
100
AcDbPoint
 10
435.7477209057559
 20
44.57814498219117
 30
0.0
  0
POINT
  5
917
330
90B
100
AcDbEntity
  8
DEFPOINTS
 62
     0
440
 16777216
100
AcDbPoint
 10
549.2678924703727
 20
44.57814498219114
 30
0.0
  0
ENDBLK
  5
90D
330
90B
100
AcDbEntity
  8
0
100
AcDbBlockEnd
  0
BLOCK
  5
91A
330
919
100
AcDbEntity
  8
0
100
AcDbBlockBegin
  2
*D26
 70
     1
 10
0.0
 20
0.0
 30
0.0
  3
*D26
  1

  0
LINE
  5
91C
330
919
100
AcDbEntity
  8
TEKST
 62
     0
440
 16777216
370
    -2
100
AcDbLine
 10
418.118715882169
 20
39.32557923799614
 30
0.0
 11
418.118715882169
 21
61.45609991364517
 31
0.0
  0
LINE
  5
91D
330
919
100
AcDbEntity
  8
TEKST
 62
     0
440
 16777216
370
    -2
100
AcDbLine
 10
107.4643060922217
 20
39.32557923799644
 30
0.0
 11
107.4643060922217
 21
61.45609991364517
 31
0.0
  0
LINE
  5
91E
330
919
100
AcDbEntity
  8
TEKST
 62
     0
440
 16777216
370
    -2
100
AcDbLine
 10
410.618715882169
 20
57.70609991364517
 30
0.0
 11
114.9643060922217
 21
57.70609991364517
 31
0.0
  0
SOLID
  5
91F
330
919
100
AcDbEntity
  8
TEKST
 62
     0
440
 16777216
100
AcDbTrace
 10
410.618715882169
 20
58.95609991364517
 30
0.0
 11
410.618715882169
 21
56.45609991364517
 31
0.0
 12
418.118715882169
 22
57.70609991364517
 32
0.0
 13
418.118715882169
 23
57.70609991364517
 33
0.0
  0
SOLID
  5
920
330
919
100
AcDbEntity
  8
TEKST
 62
     0
440
 16777216
100
AcDbTrace
 10
114.9643060922217
 20
58.95609991364517
 30
0.0
 11
114.9643060922217
 21
56.45609991364517
 31
0.0
 12
107.4643060922217
 22
57.70609991364517
 32
0.0
 13
107.4643060922217
 23
57.70609991364517
 33
0.0
  0
MTEXT
  5
921
330
919
100
AcDbEntity
  8
TEKST
 62
     0
440
 16777216
100
AcDbMText
 10
262.7915109871953
 20
63.33109991364517
 30
0.0
 40
7.5
 41
0.0
 46
0.0
 71
     5
 72
     1
  1
\A1;310.6544
 73
     1
 44
1.0
  0
POINT
  5
922
330
919
100
AcDbEntity
  8
DEFPOINTS
 62
     0
440
 16777216
100
AcDbPoint
 10
418.118715882169
 20
37.45057923799614
 30
0.0
  0
POINT
  5
923
330
919
100
AcDbEntity
  8
DEFPOINTS
 62
     0
440
 16777216
100
AcDbPoint
 10
107.4643060922217
 20
37.45057923799644
 30
0.0
  0
POINT
  5
924
330
919
100
AcDbEntity
  8
DEFPOINTS
 62
     0
440
 16777216
100
AcDbPoint
 10
107.4643060922217
 20
57.70609991364517
 30
0.0
  0
ENDBLK
  5
91B
330
919
100
AcDbEntity
  8
0
100
AcDbBlockEnd
  0
ENDSEC
  0
SECTION
  2
ENTITIES
  0
LINE
  5
7BF
330
8BF
100
AcDbEntity
  8
deel 1
100
AcDbLine
 10
124.2013001186348
 20
10.42603493083259
 30
0.0
 11
401.3817218557609
 21
10.42603493083247
 31
0.0
  0
ARC
  5
7C0
330
8BF
100
AcDbEntity
  8
deel 1
100
AcDbCircle
 10
378.3449270375056
 20
-695.1581466418664
 30
0.0
 40
705.9601484511103
100
AcDbArc
 50
80.88552024684544
 51
88.12999999999865
  0
ARC
  5
7C1
330
8BF
100
AcDbEntity
  8
deel 1
100
AcDbCircle
 10
147.2380949368851
 20
-695.1581466418664
 30
0.0
 40
705.9601484511103
100
AcDbArc
 50
91.87000000000136
 51
99.11447975315455
  0
LINE
  5
7C2
330
8BF
100
AcDbEntity
  8
deel 1
100
AcDbLine
 10
490.1743804097541
 20
1.888411745432378
 30
0.0
 11
525.5830219743909
 21
0.0
 31
0.0
  0
LINE
  5
7C3
330
8BF
100
AcDbEntity
  8
deel 1
100
AcDbLine
 10
35.40864156463658
 20
1.888411745432264
 30
0.0
 11
0.0
 21
0.0
 31
0.0
  0
LINE
  5
7C4
330
8BF
100
AcDbEntity
  8
deel 1
100
AcDbLine
 10
525.5830219743909
 20
0.0
 30
0.0
 11
525.7134938988128
 21
5.111334943939446
 31
0.0
  0
LINE
  5
7C5
330
8BF
100
AcDbEntity
  8
deel 1
100
AcDbLine
 10
0.0
 20
0.0
 30
0.0
 11
-0.1304719244218973
 21
5.11133494393951
 31
0.0
  0
ARC
  5
7C6
330
8BF
100
AcDbEntity
  8
deel 1
100
AcDbCircle
 10
521.7147964154555
 20
5.213405687014834
 30
0.0
 40
4.0
100
AcDbArc
 50
358.5377855858409
 51
86.94719677137484
  0
ARC
  5
7C7
330
8BF
100
AcDbEntity
  8
deel 1
100
AcDbCircle
 10
3.868225558935364
 20
5.213405687014834
 30
0.0
 40
4.0
100
AcDbArc
 50
93.05280322862515
 51
181.4622144141583
  0
LINE
  5
7C8
330
8BF
100
AcDbEntity
  8
deel 1
100
AcDbLine
 10
517.0515582411949
 20
9.467789805182466
 30
0.0
 11
521.9278214597566
 21
9.207729200515029
 31
0.0
  0
LINE
  5
7C9
330
8BF
100
AcDbEntity
  8
deel 1
100
AcDbLine
 10
8.531463733195863
 20
9.467789805182459
 30
0.0
 11
3.655200514634145
 21
9.207729200515029
 31
0.0
  0
ARC
  5
7CA
330
8BF
100
AcDbEntity
  8
deel 1
100
AcDbCircle
 10
517.4776083297971
 20
17.45643683218282
 30
0.0
 40
8.0
100
AcDbArc
 50
217.3329309159841
 51
266.9471967713781
  0
ARC
  5
7CB
330
8BF
100
AcDbEntity
  8
deel 1
100
AcDbCircle
 10
8.105413644593539
 20
17.45643683218282
 30
0.0
 40
8.0
100
AcDbArc
 50
273.0528032286219
 51
322.6670690840156
  0
LINE
  5
7CC
330
8BF
100
AcDbEntity
  8
deel 1
100
AcDbLine
 10
511.1166078826843
 20
12.60487282540831
 30
0.0
 11
506.9104231872745
 21
18.11970117576705
 31
0.0
  0
LINE
  5
7CD
330
8BF
100
AcDbEntity
  8
deel 1
100
AcDbLine
 10
14.46641409170638
 20
12.60487282540821
 30
0.0
 11
18.67259878711627
 21
18.11970117576716
 31
0.0
  0
ARC
  5
7CE
330
8BF
100
AcDbEntity
  8
deel 1
100
AcDbCircle
 10
500.5494227401617
 20
13.26813716899259
 30
0.0
 40
8.0
100
AcDbArc
 50
37.33293091598394
 51
88.24019276977804
  0
ARC
  5
7CF
330
8BF
100
AcDbEntity
  8
deel 1
100
AcDbCircle
 10
25.03359923422906
 20
13.26813716899259
 30
0.0
 40
8.0
100
AcDbArc
 50
91.75980723022522
 51
142.6670690840155
  0
LINE
  5
7D0
330
8BF
100
AcDbEntity
  8
deel 1
100
AcDbLine
 10
494.4349491127417
 20
21.45977381067795
 30
0.0
 11
500.7950995512415
 21
21.2643639607049
 31
0.0
  0
LINE
  5
7D1
330
8BF
100
AcDbEntity
  8
deel 1
100
AcDbLine
 10
31.14807286164813
 20
21.45977381067795
 30
0.0
 11
24.78792242314919
 21
21.26436396070491
 31
0.0
  0
ARC
  5
7D2
330
8BF
100
AcDbEntity
  8
deel 1
100
AcDbCircle
 10
378.3449270375056
 20
-695.1581466418664
 30
0.0
 40
725.9601484511104
100
AcDbArc
 50
80.79818896248424
 51
81.94903400259248
  0
ARC
  5
7D3
330
8BF
100
AcDbEntity
  8
deel 1
100
AcDbCircle
 10
147.2380949368851
 20
-695.1581466418664
 30
0.0
 40
725.9601484511104
100
AcDbArc
 50
98.05096599740753
 51
99.20181103751577
  0
ARC
  5
7D4
330
8BF
100
AcDbEntity
  8
deel 1
100
AcDbCircle
 10
481.1389181471219
 20
31.56800185296515
 30
0.0
 40
8.0
100
AcDbArc
 50
187.0935187467404
 51
261.9490340025957
  0
ARC
  5
7D5
330
8BF
100
AcDbEntity
  8
deel 1
100
AcDbCircle
 10
44.4441038272688
 20
31.56800185296515
 30
0.0
 40
8.0
100
AcDbArc
 50
278.0509659974043
 51
352.9064812532574
  0
LINE
  5
7D6
330
8BF
100
AcDbEntity
  8
deel 1
100
AcDbLine
 10
472.9387364911671
 20
32.6807852156017
 30
0.0
 11
473.2001508412194
 21
30.58008805979696
 31
0.0
  0
LINE
  5
7D7
330
8BF
100
AcDbEntity
  8
deel 1
100
AcDbLine
 10
52.64428548322377
 20
32.6807852156017
 30
0.0
 11
52.38287113317139
 21
30.58008805979667
 31
0.0
  0
LINE
  5
7D8
330
8BF
100
AcDbEntity
  8
deel 1
100
AcDbLine
 10
435.7477209057559
 20
44.57814498219117
 30
0.0
 11
472.9387364911671
 21
32.6807852156017
 31
0.0
  0
LINE
  5
7D9
330
8BF
100
AcDbEntity
  8
deel 1
100
AcDbLine
 10
89.8353010686346
 20
44.57814498219121
 30
0.0
 11
52.64428548322377
 21
32.6807852156017
 31
0.0
  0
LINE
  5
7DA
330
8BF
100
AcDbEntity
  8
deel 1
100
AcDbLine
 10
435.7477209057559
 20
44.57814498219117
 30
0.0
 11
421.9049280719437
 21
43.43809955935761
 31
0.0
  0
LINE
  5
7DB
330
8BF
100
AcDbEntity
  8
deel 1
100
AcDbLine
 10
89.8353010686346
 20
44.57814498219121
 30
0.0
 11
103.678093902447
 21
43.43809955935761
 31
0.0
  0
ARC
  5
7DC
330
8BF
100
AcDbEntity
  8
deel 1
100
AcDbCircle
 10
422.2332429579363
 20
39.45159616218915
 30
0.0
 40
4.0
100
AcDbArc
 50
94.70806075727121
 51
176.8924268333015
  0
ARC
  5
7DD
330
8BF
100
AcDbEntity
  8
deel 1
100
AcDbCircle
 10
103.3497790164545
 20
39.45159616218915
 30
0.0
 40
4.0
100
AcDbArc
 50
3.107573166696832
 51
85.29193924272878
  0
LINE
  5
7DE
330
8BF
100
AcDbEntity
  8
deel 1
100
AcDbLine
 10
418.2391249033564
 20
39.66843934533957
 30
0.0
 11
418.118715882169
 21
37.45057923799614
 31
0.0
  0
LINE
  5
7DF
330
8BF
100
AcDbEntity
  8
deel 1
100
AcDbLine
 10
107.3438970710344
 20
39.66843934533947
 30
0.0
 11
107.4643060922217
 21
37.45057923799644
 31
0.0
  0
ARC
  5
7E0
330
8BF
100
AcDbEntity
  8
deel 1
100
AcDbCircle
 10
398.1481256092695
 20
38.53479515374818
 30
0.0
 40
20.0
100
AcDbArc
 50
268.4538977840174
 51
356.8924268333017
  0
ARC
  5
7E1
330
8BF
100
AcDbEntity
  8
deel 1
100
AcDbCircle
 10
127.4348963651212
 20
38.53479515374818
 30
0.0
 40
20.0
100
AcDbArc
 50
183.1075731666972
 51
271.5461022159859
  0
LINE
  5
7E2
330
8BF
100
AcDbEntity
  8
deel 1
100
AcDbLine
 10
127.9745223547217
 20
18.54207638437245
 30
0.0
 11
397.6084996196696
 21
18.54207638437245
 31
0.0
  0
DIMENSION
  5
8FD
330
8BF
100
AcDbEntity
  8
TEKST
100
AcDbDimension
280
     0
  2
*D24
 10
525.5830219743909
 20
-13.88401365764116
 30
0.0
 11
262.7915109871955
 21
-8.259013657641162
 31
0.0
 70
    32
 71
     5
 42
525.5830219743909
 73
     0
 74
     0
 75
     0
  3
ISO-25
100
AcDbAlignedDimension
 13
0.0
 23
0.0
 33
0.0
 14
525.5830219743909
 24
0.0
 34
0.0
100
AcDbRotatedDimension
1001
ACAD
1000
DSTYLE
1002
{
1070
   274
1070
     2
1070
   279
1070
     0
1070
   284
1070
     0
1070
   285
1070
     0
1070
   286
1070
     0
1002
}
  0
DIMENSION
  5
90A
330
8BF
100
AcDbEntity
  8
TEKST
100
AcDbDimension
280
     0
  2
*D25
 10
549.2678924703727
 20
44.57814498219114
 30
0.0
 11
543.6428924703728
 21
75.20314498219125
 31
0.0
 70
    32
 71
     5
 42
44.57814498219116
 73
     0
 74
     0
 75
     0
  3
ISO-25
100
AcDbAlignedDimension
 13
525.5830219743909
 23
0.0
 33
0.0
 14
435.7477209057559
 24
44.57814498219117
 34
0.0
 50
90.0
100
AcDbRotatedDimension
1001
ACAD
1000
DSTYLE
1002
{
1070
   274
1070
     2
1070
   279
1070
     0
1070
   284
1070
     0
1070
   285
1070
     0
1070
   286
1070
     0
1002
}
  0
DIMENSION
  5
918
330
8BF
100
AcDbEntity
  8
TEKST
100
AcDbDimension
280
     0
  2
*D26
 10
107.4643060922217
 20
57.70609991364517
 30
0.0
 11
262.7915109871953
 21
63.33109991364517
 31
0.0
 70
    32
 71
     5
 42
310.6544097899472
 73
     0
 74
     0
 75
     0
  3
ISO-25
100
AcDbAlignedDimension
 13
418.118715882169
 23
37.45057923799614
 33
0.0
 14
107.4643060922217
 24
37.45057923799644
 34
0.0
100
AcDbRotatedDimension
1001
ACAD
1000
DSTYLE
1002
{
1070
   274
1070
     2
1070
   279
1070
     0
1070
   284
1070
     0
1070
   285
1070
     0
1070
   286
1070
     0
1002
}
  0
ENDSEC
  0
SECTION
  2
OBJECTS
  0
DICTIONARY
  5
860
330
0
100
AcDbDictionary
281
     1
  3
ACAD_CIP_PREVIOUS_PRODUCT_INFO
350
8FC
  3
ACAD_COLOR
350
8B6
  3
ACAD_GROUP
350
861
  3
ACAD_LAYOUT
350
8B5
  3
ACAD_MATERIAL
350
864
  3
ACAD_MLEADERSTYLE
350
8B9
  3
ACAD_MLINESTYLE
350
8B2
  3
ACAD_PLOTSETTINGS
350
8B4
  3
ACAD_PLOTSTYLENAME
350
862
  3
ACAD_SCALELIST
350
896
  3
ACAD_TABLESTYLE
350
8B7
  3
ACAD_VISUALSTYLE
350
87D
  3
ACDB_RECOMPOSE_DATA
350
92F
  3
AcDbVariableDictionary
350
925
  0
XRECORD
  5
8FC
102
{ACAD_REACTORS
330
860
102
}
330
860
100
AcDbXrecord
280
     1
300
ACDLT
300
2012
300
ACDLT_F_S
  0
DICTIONARY
  5
8B6
102
{ACAD_REACTORS
330
860
102
}
330
860
100
AcDbDictionary
281
     1
  0
DICTIONARY
  5
861
102
{ACAD_REACTORS
330
860
102
}
330
860
100
AcDbDictionary
281
     1
  0
DICTIONARY
  5
8B5
102
{ACAD_REACTORS
330
860
102
}
330
860
100
AcDbDictionary
281
     1
  3
Layout1
350
8BE
  3
Model
350
8C2
  0
DICTIONARY
  5
864
102
{ACAD_REACTORS
330
860
102
}
330
860
100
AcDbDictionary
281
     1
  3
ByBlock
350
86D
  3
ByLayer
350
865
  3
Global
350
875
  0
DICTIONARY
  5
8B9
102
{ACAD_REACTORS
330
860
102
}
330
860
100
AcDbDictionary
281
     1
  3
Standard
350
8BA
  0
DICTIONARY
  5
8B2
102
{ACAD_REACTORS
330
860
102
}
330
860
100
AcDbDictionary
281
     1
  3
Standard
350
8B3
  0
DICTIONARY
  5
8B4
102
{ACAD_REACTORS
330
860
102
}
330
860
100
AcDbDictionary
281
     1
  0
ACDBDICTIONARYWDFLT
  5
862
102
{ACAD_REACTORS
330
860
102
}
330
860
100
AcDbDictionary
281
     1
  3
Normal
350
863
100
AcDbDictionaryWithDefault
340
863
  0
DICTIONARY
  5
896
102
{ACAD_REACTORS
330
860
102
}
330
860
100
AcDbDictionary
281
     1
  3
A0
350
897
  3
A1
350
898
  3
A2
350
899
  3
A3
350
89A
  3
A4
350
89B
  3
A5
350
89C
  3
A6
350
89D
  3
A7
350
89E
  3
A8
350
89F
  3
A9
350
8A0
  3
B0
350
8A1
  3
B1
350
8A2
  3
B2
350
8A3
  3
B3
350
8A4
  3
B4
350
8A5
  3
B5
350
8A6
  3
B6
350
8A7
  0
DICTIONARY
  5
8B7
102
{ACAD_REACTORS
330
860
102
}
330
860
100
AcDbDictionary
281
     1
  3
Standard
350
8B8
  0
DICTIONARY
  5
87D
102
{ACAD_REACTORS
330
860
102
}
330
860
100
AcDbDictionary
281
     1
  3
2dWireframe
350
883
  3
Basic
350
882
  3
Brighten
350
889
  3
ColorChange
350
88D
  3
Conceptual
350
886
  3
Dim
350
888
  3
EdgeColorOff
350
895
  3
Facepattern
350
88C
  3
Flat
350
87E
  3
FlatWithEdges
350
87F
  3
Gouraud
350
880
  3
GouraudWithEdges
350
881
  3
Hidden
350
885
  3
JitterOff
350
893
  3
Linepattern
350
88B
  3
OverhangOff
350
894
  3
Realistic
350
887
  3
Shaded
350
892
  3
Shaded with edges
350
891
  3
Shades of Gray
350
88E
  3
Sketchy
350
88F
  3
Thicken
350
88A
  3
Wireframe
350
884
  3
X-Ray
350
890
  0
XRECORD
  5
92F
102
{ACAD_REACTORS
330
860
102
}
330
860
100
AcDbXrecord
280
     1
 90
        1
330
8B8
  0
DICTIONARY
  5
925
102
{ACAD_REACTORS
330
860
102
}
330
860
100
AcDbDictionary
281
     1
  3
CANNOSCALE
350
929
  3
CMLEADERSTYLE
350
927
  3
CTABLESTYLE
350
926
  3
LAYEREVAL
350
92B
  3
LAYERNOTIFY
350
92C
  3
LIGHTINGUNITS
350
92A
  3
MSLTSCALE
350
928
  0
LAYOUT
  5
8BE
102
{ACAD_REACTORS
330
8B5
102
}
330
8B5
100
AcDbPlotSettings
  1

  2
PDFCreator
  4

  6

 40
0.0
 41
0.0
 42
0.0
 43
0.0
 44
0.0
 45
0.0
 46
0.0
 47
0.0
 48
0.0
 49
0.0
140
0.0
141
0.0
142
1.0
143
1.0
 70
   688
 72
     0
 73
     0
 74
     5
  7

 75
    16
147
1.0
 76
     0
 77
     2
 78
   300
148
0.0
149
0.0
100
AcDbLayout
  1
Layout1
 70
     1
 71
     1
 10
0.0
 20
0.0
 11
420.0
 21
297.0
 12
0.0
 22
0.0
 32
0.0
 14
1.000000000000000E+20
 24
1.000000000000000E+20
 34
1.000000000000000E+20
 15
-1.000000000000000E+20
 25
-1.000000000000000E+20
 35
-1.000000000000000E+20
146
0.0
 13
0.0
 23
0.0
 33
0.0
 16
1.0
 26
0.0
 36
0.0
 17
0.0
 27
1.0
 37
0.0
 76
     0
330
8BB
  0
LAYOUT
  5
8C2
102
{ACAD_REACTORS
330
8B5
102
}
330
8B5
100
AcDbPlotSettings
  1

  2
PDFCreator
  4

  6

 40
0.0
 41
0.0
 42
0.0
 43
0.0
 44
0.0
 45
0.0
 46
0.0
 47
0.0
 48
0.0
 49
0.0
140
0.0
141
0.0
142
1.0
143
1.0
 70
  1712
 72
     0
 73
     0
 74
     0
  7

 75
     0
147
1.0
 76
     0
 77
     2
 78
   300
148
0.0
149
0.0
100
AcDbLayout
  1
Model
 70
     1
 71
     0
 10
0.0
 20
0.0
 11
12.0
 21
9.0
 12
0.0
 22
0.0
 32
0.0
 14
0.0
 24
0.0
 34
0.0
 15
0.0
 25
0.0
 35
0.0
146
0.0
 13
0.0
 23
0.0
 33
0.0
 16
1.0
 26
0.0
 36
0.0
 17
0.0
 27
1.0
 37
0.0
 76
     0
330
8BF
331
8C4
  0
MATERIAL
  5
86D
102
{ACAD_XDICTIONARY
360
86E
102
}
102
{ACAD_REACTORS
330
864
102
}
330
864
100
AcDbMaterial
  1
ByBlock
 72
     0
 43
0.0208333333333333
 43
0.0
 43
0.0
 43
0.0
 43
0.0
 43
0.0208333333333333
 43
0.0
 43
0.0
 43
0.0
 43
0.0
 43
1.0
 43
0.0
 43
0.0
 43
0.0
 43
0.0
 43
1.0
 77
     0
 47
0.0208333333333333
 47
0.0
 47
0.0
 47
0.0
 47
0.0
 47
0.0208333333333333
 47
0.0
 47
0.0
 47
0.0
 47
0.0
 47
1.0
 47
0.0
 47
0.0
 47
0.0
 47
0.0
 47
1.0
171
     0
 49
0.0208333333333333
 49
0.0
 49
0.0
 49
0.0
 49
0.0
 49
0.0208333333333333
 49
0.0
 49
0.0
 49
0.0
 49
0.0
 49
1.0
 49
0.0
 49
0.0
 49
0.0
 49
0.0
 49
1.0
175
     0
142
0.0208333333333333
142
0.0
142
0.0
142
0.0
142
0.0
142
0.0208333333333333
142
0.0
142
0.0
142
0.0
142
0.0
142
1.0
142
0.0
142
0.0
142
0.0
142
0.0
142
1.0
179
     0
144
0.0208333333333333
144
0.0
144
0.0
144
0.0
144
0.0
144
0.0208333333333333
144
0.0
144
0.0
144
0.0
144
0.0
144
1.0
144
0.0
144
0.0
144
0.0
144
0.0
144
1.0
147
0.0208333333333333
147
0.0
147
0.0
147
0.0
147
0.0
147
0.0208333333333333
147
0.0
147
0.0
147
0.0
147
0.0
147
1.0
147
0.0
147
0.0
147
0.0
147
0.0
147
1.0
  0
MATERIAL
  5
865
102
{ACAD_XDICTIONARY
360
866
102
}
102
{ACAD_REACTORS
330
864
102
}
330
864
100
AcDbMaterial
  1
ByLayer
 72
     0
 43
0.0208333333333333
 43
0.0
 43
0.0
 43
0.0
 43
0.0
 43
0.0208333333333333
 43
0.0
 43
0.0
 43
0.0
 43
0.0
 43
1.0
 43
0.0
 43
0.0
 43
0.0
 43
0.0
 43
1.0
 77
     0
 47
0.0208333333333333
 47
0.0
 47
0.0
 47
0.0
 47
0.0
 47
0.0208333333333333
 47
0.0
 47
0.0
 47
0.0
 47
0.0
 47
1.0
 47
0.0
 47
0.0
 47
0.0
 47
0.0
 47
1.0
171
     0
 49
0.0208333333333333
 49
0.0
 49
0.0
 49
0.0
 49
0.0
 49
0.0208333333333333
 49
0.0
 49
0.0
 49
0.0
 49
0.0
 49
1.0
 49
0.0
 49
0.0
 49
0.0
 49
0.0
 49
1.0
175
     0
142
0.0208333333333333
142
0.0
142
0.0
142
0.0
142
0.0
142
0.0208333333333333
142
0.0
142
0.0
142
0.0
142
0.0
142
1.0
142
0.0
142
0.0
142
0.0
142
0.0
142
1.0
179
     0
144
0.0208333333333333
144
0.0
144
0.0
144
0.0
144
0.0
144
0.0208333333333333
144
0.0
144
0.0
144
0.0
144
0.0
144
1.0
144
0.0
144
0.0
144
0.0
144
0.0
144
1.0
147
0.0208333333333333
147
0.0
147
0.0
147
0.0
147
0.0
147
0.0208333333333333
147
0.0
147
0.0
147
0.0
147
0.0
147
1.0
147
0.0
147
0.0
147
0.0
147
0.0
147
1.0
  0
MATERIAL
  5
875
102
{ACAD_XDICTIONARY
360
876
102
}
102
{ACAD_REACTORS
330
864
102
}
330
864
100
AcDbMaterial
  1
Global
 72
     0
 43
0.0208333333333333
 43
0.0
 43
0.0
 43
0.0
 43
0.0
 43
0.0208333333333333
 43
0.0
 43
0.0
 43
0.0
 43
0.0
 43
1.0
 43
0.0
 43
0.0
 43
0.0
 43
0.0
 43
1.0
 77
     0
 47
0.0208333333333333
 47
0.0
 47
0.0
 47
0.0
 47
0.0
 47
0.0208333333333333
 47
0.0
 47
0.0
 47
0.0
 47
0.0
 47
1.0
 47
0.0
 47
0.0
 47
0.0
 47
0.0
 47
1.0
171
     0
 49
0.0208333333333333
 49
0.0
 49
0.0
 49
0.0
 49
0.0
 49
0.0208333333333333
 49
0.0
 49
0.0
 49
0.0
 49
0.0
 49
1.0
 49
0.0
 49
0.0
 49
0.0
 49
0.0
 49
1.0
175
     0
142
0.0208333333333333
142
0.0
142
0.0
142
0.0
142
0.0
142
0.0208333333333333
142
0.0
142
0.0
142
0.0
142
0.0
142
1.0
142
0.0
142
0.0
142
0.0
142
0.0
142
1.0
179
     0
144
0.0208333333333333
144
0.0
144
0.0
144
0.0
144
0.0
144
0.0208333333333333
144
0.0
144
0.0
144
0.0
144
0.0
144
1.0
144
0.0
144
0.0
144
0.0
144
0.0
144
1.0
147
0.0208333333333333
147
0.0
147
0.0
147
0.0
147
0.0
147
0.0208333333333333
147
0.0
147
0.0
147
0.0
147
0.0
147
1.0
147
0.0
147
0.0
147
0.0
147
0.0
147
1.0
  0
MLEADERSTYLE
  5
8BA
102
{ACAD_REACTORS
330
8B9
102
}
330
8B9
100
AcDbMLeaderStyle
179
     2
170
     2
171
     1
172
     0
 90
        2
 40
0.0
 41
0.0
173
     1
 91
-1056964608
340
8AE
 92
       -2
290
     1
 42
0.09
291
     1
 43
0.36
  3
Standard
 44
0.18
300

342
8A9
174
     1
178
     6
175
     1
176
     0
 93
-1056964608
 45
0.18
292
     0
297
     0
 46
0.18
 94
-1056964608
 47
1.0
 49
1.0
140
1.0
293
     1
141
0.0
294
     1
177
     0
142
1.0
295
     0
296
     0
143
0.125
271
     0
272
     9
273
     9
  0
MLINESTYLE
  5
8B3
102
{ACAD_REACTORS
330
8B2
102
}
330
8B2
100
AcDbMlineStyle
  2
STANDARD
 70
     0
  3

 62
   256
 51
90.0
 52
90.0
 71
     2
 49
0.5
 62
   256
  6
BYLAYER
 49
-0.5
 62
   256
  6
BYLAYER
  0
ACDBPLACEHOLDER
  5
863
102
{ACAD_REACTORS
330
862
102
}
330
862
  0
SCALE
  5
897
102
{ACAD_REACTORS
330
896
102
}
330
896
100
AcDbScale
 70
     0
300
1:1
140
1.0
141
1.0
290
     1
  0
SCALE
  5
898
102
{ACAD_REACTORS
330
896
102
}
330
896
100
AcDbScale
 70
     0
300
1/128" = 1'-0"
140
0.0078125
141
12.0
290
     0
  0
SCALE
  5
899
102
{ACAD_REACTORS
330
896
102
}
330
896
100
AcDbScale
 70
     0
300
1/64" = 1'-0"
140
0.015625
141
12.0
290
     0
  0
SCALE
  5
89A
102
{ACAD_REACTORS
330
896
102
}
330
896
100
AcDbScale
 70
     0
300
1/32" = 1'-0"
140
0.03125
141
12.0
290
     0
  0
SCALE
  5
89B
102
{ACAD_REACTORS
330
896
102
}
330
896
100
AcDbScale
 70
     0
300
1/16" = 1'-0"
140
0.0625
141
12.0
290
     0
  0
SCALE
  5
89C
102
{ACAD_REACTORS
330
896
102
}
330
896
100
AcDbScale
 70
     0
300
3/32" = 1'-0"
140
0.09375
141
12.0
290
     0
  0
SCALE
  5
89D
102
{ACAD_REACTORS
330
896
102
}
330
896
100
AcDbScale
 70
     0
300
1/8" = 1'-0"
140
0.125
141
12.0
290
     0
  0
SCALE
  5
89E
102
{ACAD_REACTORS
330
896
102
}
330
896
100
AcDbScale
 70
     0
300
3/16" = 1'-0"
140
0.1875
141
12.0
290
     0
  0
SCALE
  5
89F
102
{ACAD_REACTORS
330
896
102
}
330
896
100
AcDbScale
 70
     0
300
1/4" = 1'-0"
140
0.25
141
12.0
290
     0
  0
SCALE
  5
8A0
102
{ACAD_REACTORS
330
896
102
}
330
896
100
AcDbScale
 70
     0
300
3/8" = 1'-0"
140
0.375
141
12.0
290
     0
  0
SCALE
  5
8A1
102
{ACAD_REACTORS
330
896
102
}
330
896
100
AcDbScale
 70
     0
300
1/2" = 1'-0"
140
0.5
141
12.0
290
     0
  0
SCALE
  5
8A2
102
{ACAD_REACTORS
330
896
102
}
330
896
100
AcDbScale
 70
     0
300
3/4" = 1'-0"
140
0.75
141
12.0
290
     0
  0
SCALE
  5
8A3
102
{ACAD_REACTORS
330
896
102
}
330
896
100
AcDbScale
 70
     0
300
1" = 1'-0"
140
1.0
141
12.0
290
     0
  0
SCALE
  5
8A4
102
{ACAD_REACTORS
330
896
102
}
330
896
100
AcDbScale
 70
     0
300
1-1/2" = 1'-0"
140
1.5
141
12.0
290
     0
  0
SCALE
  5
8A5
102
{ACAD_REACTORS
330
896
102
}
330
896
100
AcDbScale
 70
     0
300
3" = 1'-0"
140
3.0
141
12.0
290
     0
  0
SCALE
  5
8A6
102
{ACAD_REACTORS
330
896
102
}
330
896
100
AcDbScale
 70
     0
300
6" = 1'-0"
140
6.0
141
12.0
290
     0
  0
SCALE
  5
8A7
102
{ACAD_REACTORS
330
896
102
}
330
896
100
AcDbScale
 70
     0
300
1'-0" = 1'-0"
140
12.0
141
12.0
290
     0
  0
TABLESTYLE
  5
8B8
102
{ACAD_XDICTIONARY
360
92D
102
}
102
{ACAD_REACTORS
330
8B7
102
}
330
8B7
100
AcDbTableStyle
280
     0
  3
Standard
 70
     0
 71
     0
 40
0.06
 41
0.06
280
     0
281
     0
  7
STANDARD
140
0.18
170
     2
 62
     0
 63
     7
283
     0
 90
      512
 91
        0
  1

274
    -2
284
     1
 64
     0
275
    -2
285
     1
 65
     0
276
    -2
286
     1
 66
     0
277
    -2
287
     1
 67
     0
278
    -2
288
     1
 68
     0
279
    -2
289
     1
 69
     0
  7
STANDARD
140
0.25
170
     5
 62
     0
 63
     7
283
     0
 90
      512
 91
        0
  1

274
    -2
284
     1
 64
     0
275
    -2
285
     1
 65
     0
276
    -2
286
     1
 66
     0
277
    -2
287
     1
 67
     0
278
    -2
288
     1
 68
     0
279
    -2
289
     1
 69
     0
  7
STANDARD
140
0.18
170
     5
 62
     0
 63
     7
283
     0
 90
      512
 91
        0
  1

274
    -2
284
     1
 64
     0
275
    -2
285
     1
 65
     0
276
    -2
286
     1
 66
     0
277
    -2
287
     1
 67
     0
278
    -2
288
     1
 68
     0
279
    -2
289
     1
 69
     0
  0
VISUALSTYLE
  5
883
102
{ACAD_REACTORS
330
87D
102
}
330
87D
100
AcDbVisualStyle
  2
2dWireframe
 70
     4
177
     2
291
     0
 71
     0
176
     1
 72
     2
176
     1
 73
     0
176
     1
 90
        0
176
     1
 40
0.6
176
     1
 41
30.0
176
     1
 63
     7
421
 16777215
176
     1
 74
     1
176
     1
 91
        4
176
     1
 64
     7
176
     1
 65
   257
176
     1
 75
     1
176
     1
175
     1
176
     1
 42
1.0
176
     1
 92
        0
176
     1
 66
   257
176
     1
 43
1.0
176
     1
 76
     1
176
     1
 77
     6
176
     1
 78
     2
176
     1
 67
     7
176
     1
 79
     5
176
     1
170
     0
176
     1
171
     0
176
     1
290
     0
176
     1
 93
        1
176
     1
 44
0.0
176
     1
173
     0
176
     1
  0
VISUALSTYLE
  5
882
102
{ACAD_REACTORS
330
87D
102
}
330
87D
100
AcDbVisualStyle
  2
Basic
 70
     7
177
     2
291
     1
 71
     1
176
     1
 72
     0
176
     1
 73
     1
176
     1
 90
        0
176
     1
 40
0.6
176
     1
 41
30.0
176
     1
 63
     7
421
 16777215
176
     1
 74
     0
176
     1
 91
        4
176
     1
 64
     7
176
     1
 65
   257
176
     1
 75
     1
176
     1
175
     1
176
     1
 42
1.0
176
     1
 92
        8
176
     1
 66
     7
176
     1
 43
1.0
176
     1
 76
     1
176
     1
 77
     6
176
     1
 78
     2
176
     1
 67
     7
176
     1
 79
     5
176
     1
170
     0
176
     1
171
     0
176
     1
290
     0
176
     1
 93
        1
176
     1
 44
0.0
176
     1
173
     0
176
     1
  0
VISUALSTYLE
  5
889
102
{ACAD_REACTORS
330
87D
102
}
330
87D
100
AcDbVisualStyle
  2
Brighten
 70
    12
177
     2
291
     1
 71
     2
176
     1
 72
     2
176
     1
 73
     0
176
     1
 90
        0
176
     1
 40
0.6
176
     1
 41
30.0
176
     1
 63
     7
421
 16777215
176
     1
 74
     1
176
     1
 91
        4
176
     1
 64
     7
176
     1
 65
   257
176
     1
 75
     1
176
     1
175
     1
176
     1
 42
1.0
176
     1
 92
        8
176
     1
 66
     7
176
     1
 43
1.0
176
     1
 76
     1
176
     1
 77
     6
176
     1
 78
     2
176
     1
 67
     7
176
     1
 79
     5
176
     1
170
     0
176
     1
171
     0
176
     1
290
     0
176
     1
 93
        1
176
     1
 44
50.0
176
     1
173
     0
176
     1
  0
VISUALSTYLE
  5
88D
102
{ACAD_REACTORS
330
87D
102
}
330
87D
100
AcDbVisualStyle
  2
ColorChange
 70
    16
177
     2
291
     1
 71
     2
176
     1
 72
     2
176
     1
 73
     3
176
     1
 90
        0
176
     1
 40
0.6
176
     1
 41
30.0
176
     1
 63
     8
421
  8421504
176
     1
 74
     1
176
     1
 91
        4
176
     1
 64
     7
176
     1
 65
   257
176
     1
 75
     1
176
     1
175
     1
176
     1
 42
1.0
176
     1
 92
        8
176
     1
 66
     8
424
  8421504
176
     1
 43
1.0
176
     1
 76
     1
176
     1
 77
     6
176
     1
 78
     2
176
     1
 67
     7
176
     1
 79
     5
176
     1
170
     0
176
     1
171
     0
176
     1
290
     0
176
     1
 93
        1
176
     1
 44
0.0
176
     1
173
     0
176
     1
  0
VISUALSTYLE
  5
886
102
{ACAD_REACTORS
330
87D
102
}
330
87D
100
AcDbVisualStyle
  2
Conceptual
 70
     9
177
     2
291
     0
 71
     3
176
     1
 72
     2
176
     1
 73
     0
176
     1
 90
        0
176
     1
 40
0.6
176
     1
 41
30.0
176
     1
 63
     7
421
 16777215
176
     1
 74
     2
176
     1
 91
        2
176
     1
 64
     7
176
     1
 65
   257
176
     1
 75
     1
176
     1
175
     1
176
     1
 42
179.0
176
     1
 92
        8
176
     1
 66
     7
176
     1
 43
1.0
176
     1
 76
     1
176
     1
 77
     6
176
     1
 78
     2
176
     1
 67
     7
176
     1
 79
     3
176
     1
170
     0
176
     1
171
     0
176
     1
290
     0
176
     1
 93
        1
176
     1
 44
0.0
176
     1
173
     0
176
     1
  0
VISUALSTYLE
  5
888
102
{ACAD_REACTORS
330
87D
102
}
330
87D
100
AcDbVisualStyle
  2
Dim
 70
    11
177
     2
291
     1
 71
     2
176
     1
 72
     2
176
     1
 73
     0
176
     1
 90
        0
176
     1
 40
0.6
176
     1
 41
30.0
176
     1
 63
     7
421
 16777215
176
     1
 74
     1
176
     1
 91
        4
176
     1
 64
     7
176
     1
 65
   257
176
     1
 75
     1
176
     1
175
     1
176
     1
 42
1.0
176
     1
 92
        8
176
     1
 66
     7
176
     1
 43
1.0
176
     1
 76
     1
176
     1
 77
     6
176
     1
 78
     2
176
     1
 67
     7
176
     1
 79
     5
176
     1
170
     0
176
     1
171
     0
176
     1
290
     0
176
     1
 93
        1
176
     1
 44
-50.0
176
     1
173
     0
176
     1
  0
VISUALSTYLE
  5
895
102
{ACAD_REACTORS
330
87D
102
}
330
87D
100
AcDbVisualStyle
  2
EdgeColorOff
 70
    22
177
     2
291
     1
 71
     2
176
     0
 72
     2
176
     0
 73
     0
176
     0
 90
        0
176
     0
 40
0.6
176
     0
 41
30.0
176
     0
 63
     7
421
 16777215
176
     0
 74
     1
176
     0
 91
        4
176
     0
 64
     7
176
     0
 65
   257
176
     0
 75
     1
176
     0
175
     1
176
     0
 42
1.0
176
     0
 92
        8
176
     2
 66
     7
176
     0
 43
1.0
176
     0
 76
     1
176
     0
 77
     6
176
     0
 78
     2
176
     0
 67
     7
176
     0
 79
     5
176
     0
170
     0
176
     0
171
     0
176
     0
290
     0
176
     0
 93
        1
176
     0
 44
0.0
176
     0
173
     0
176
     0
  0
VISUALSTYLE
  5
88C
102
{ACAD_REACTORS
330
87D
102
}
330
87D
100
AcDbVisualStyle
  2
Facepattern
 70
    15
177
     2
291
     1
 71
     2
176
     1
 72
     2
176
     1
 73
     0
176
     1
 90
        0
176
     1
 40
0.6
176
     1
 41
30.0
176
     1
 63
     7
421
 16777215
176
     1
 74
     1
176
     1
 91
        4
176
     1
 64
     7
176
     1
 65
   257
176
     1
 75
     1
176
     1
175
     1
176
     1
 42
1.0
176
     1
 92
        8
176
     1
 66
     7
176
     1
 43
1.0
176
     1
 76
     1
176
     1
 77
     6
176
     1
 78
     2
176
     1
 67
     7
176
     1
 79
     5
176
     1
170
     0
176
     1
171
     0
176
     1
290
     0
176
     1
 93
        1
176
     1
 44
0.0
176
     1
173
     0
176
     1
  0
VISUALSTYLE
  5
87E
102
{ACAD_REACTORS
330
87D
102
}
330
87D
100
AcDbVisualStyle
  2
Flat
 70
     0
177
     2
291
     1
 71
     2
176
     1
 72
     1
176
     1
 73
     1
176
     1
 90
        2
176
     1
 40
0.6
176
     1
 41
30.0
176
     1
 63
     7
421
 16777215
176
     1
 74
     0
176
     1
 91
        0
176
     1
 64
     7
176
     1
 65
   257
176
     1
 75
     1
176
     1
175
     1
176
     1
 42
1.0
176
     1
 92
        8
176
     1
 66
     7
176
     1
 43
1.0
176
     1
 76
     1
176
     1
 77
     6
176
     1
 78
     2
176
     1
 67
     7
176
     1
 79
     5
176
     1
170
     0
176
     1
171
     0
176
     1
290
     0
176
     1
 93
       13
176
     1
 44
0.0
176
     1
173
     0
176
     1
  0
VISUALSTYLE
  5
87F
102
{ACAD_REACTORS
330
87D
102
}
330
87D
100
AcDbVisualStyle
  2
FlatWithEdges
 70
     1
177
     2
291
     1
 71
     2
176
     1
 72
     1
176
     1
 73
     1
176
     1
 90
        2
176
     1
 40
0.6
176
     1
 41
30.0
176
     1
 63
     7
421
 16777215
176
     1
 74
     1
176
     1
 91
        0
176
     1
 64
     7
176
     1
 65
   257
176
     1
 75
     1
176
     1
175
     1
176
     1
 42
1.0
176
     1
 92
        0
176
     1
 66
   257
176
     1
 43
1.0
176
     1
 76
     1
176
     1
 77
     6
176
     1
 78
     2
176
     1
 67
     7
176
     1
 79
     5
176
     1
170
     0
176
     1
171
     0
176
     1
290
     0
176
     1
 93
       13
176
     1
 44
0.0
176
     1
173
     0
176
     1
  0
VISUALSTYLE
  5
880
102
{ACAD_REACTORS
330
87D
102
}
330
87D
100
AcDbVisualStyle
  2
Gouraud
 70
     2
177
     2
291
     1
 71
     2
176
     1
 72
     2
176
     1
 73
     1
176
     1
 90
        2
176
     1
 40
0.6
176
     1
 41
30.0
176
     1
 63
     7
421
 16777215
176
     1
 74
     0
176
     1
 91
        0
176
     1
 64
     7
176
     1
 65
   257
176
     1
 75
     1
176
     1
175
     1
176
     1
 42
1.0
176
     1
 92
        0
176
     1
 66
     7
176
     1
 43
1.0
176
     1
 76
     1
176
     1
 77
     6
176
     1
 78
     2
176
     1
 67
     7
176
     1
 79
     5
176
     1
170
     0
176
     1
171
     0
176
     1
290
     0
176
     1
 93
       13
176
     1
 44
0.0
176
     1
173
     0
176
     1
  0
VISUALSTYLE
  5
881
102
{ACAD_REACTORS
330
87D
102
}
330
87D
100
AcDbVisualStyle
  2
GouraudWithEdges
 70
     3
177
     2
291
     1
 71
     2
176
     1
 72
     2
176
     1
 73
     1
176
     1
 90
        2
176
     1
 40
0.6
176
     1
 41
30.0
176
     1
 63
     7
421
 16777215
176
     1
 74
     1
176
     1
 91
        0
176
     1
 64
     7
176
     1
 65
   257
176
     1
 75
     1
176
     1
175
     1
176
     1
 42
1.0
176
     1
 92
        0
176
     1
 66
   257
176
     1
 43
1.0
176
     1
 76
     1
176
     1
 77
     6
176
     1
 78
     2
176
     1
 67
     7
176
     1
 79
     5
176
     1
170
     0
176
     1
171
     0
176
     1
290
     0
176
     1
 93
       13
176
     1
 44
0.0
176
     1
173
     0
176
     1
  0
VISUALSTYLE
  5
885
102
{ACAD_REACTORS
330
87D
102
}
330
87D
100
AcDbVisualStyle
  2
Hidden
 70
     6
177
     2
291
     0
 71
     1
176
     1
 72
     2
176
     1
 73
     2
176
     1
 90
        0
176
     1
 40
0.6
176
     1
 41
30.0
176
     1
 63
     7
421
 16777215
176
     1
 74
     2
176
     1
 91
        2
176
     1
 64
     7
176
     1
 65
   257
176
     1
 75
     2
176
     1
175
     1
176
     1
 42
40.0
176
     1
 92
        0
176
     1
 66
   257
176
     1
 43
1.0
176
     1
 76
     1
176
     1
 77
     6
176
     1
 78
     2
176
     1
 67
     7
176
     1
 79
     3
176
     1
170
     0
176
     1
171
     0
176
     1
290
     0
176
     1
 93
        1
176
     1
 44
0.0
176
     1
173
     0
176
     1
  0
VISUALSTYLE
  5
893
102
{ACAD_REACTORS
330
87D
102
}
330
87D
100
AcDbVisualStyle
  2
JitterOff
 70
    20
177
     2
291
     1
 71
     2
176
     0
 72
     2
176
     0
 73
     0
176
     0
 90
        0
176
     0
 40
0.6
176
     0
 41
30.0
176
     0
 63
     7
421
 16777215
176
     0
 74
     1
176
     0
 91
        4
176
     0
 64
     7
176
     0
 65
   257
176
     0
 75
     1
176
     0
175
     1
176
     0
 42
1.0
176
     0
 92
       10
176
     2
 66
     7
176
     0
 43
1.0
176
     0
 76
     1
176
     0
 77
     6
176
     0
 78
     2
176
     0
 67
     7
176
     0
 79
     5
176
     0
170
     0
176
     0
171
     0
176
     0
290
     0
176
     0
 93
        1
176
     0
 44
0.0
176
     0
173
     0
176
     0
  0
VISUALSTYLE
  5
88B
102
{ACAD_REACTORS
330
87D
102
}
330
87D
100
AcDbVisualStyle
  2
Linepattern
 70
    14
177
     2
291
     1
 71
     2
176
     1
 72
     2
176
     1
 73
     0
176
     1
 90
        0
176
     1
 40
0.6
176
     1
 41
30.0
176
     1
 63
     7
421
 16777215
176
     1
 74
     1
176
     1
 91
        4
176
     1
 64
     7
176
     1
 65
   257
176
     1
 75
     7
176
     1
175
     7
176
     1
 42
1.0
176
     1
 92
        8
176
     1
 66
     7
176
     1
 43
1.0
176
     1
 76
     1
176
     1
 77
     6
176
     1
 78
     2
176
     1
 67
     7
176
     1
 79
     5
176
     1
170
     0
176
     1
171
     0
176
     1
290
     0
176
     1
 93
        1
176
     1
 44
0.0
176
     1
173
     0
176
     1
  0
VISUALSTYLE
  5
894
102
{ACAD_REACTORS
330
87D
102
}
330
87D
100
AcDbVisualStyle
  2
OverhangOff
 70
    21
177
     2
291
     1
 71
     2
176
     0
 72
     2
176
     0
 73
     0
176
     0
 90
        0
176
     0
 40
0.6
176
     0
 41
30.0
176
     0
 63
     7
421
 16777215
176
     0
 74
     1
176
     0
 91
        4
176
     0
 64
     7
176
     0
 65
   257
176
     0
 75
     1
176
     0
175
     1
176
     0
 42
1.0
176
     0
 92
        9
176
     2
 66
     7
176
     0
 43
1.0
176
     0
 76
     1
176
     0
 77
     6
176
     0
 78
     2
176
     0
 67
     7
176
     0
 79
     5
176
     0
170
     0
176
     0
171
     0
176
     0
290
     0
176
     0
 93
        1
176
     0
 44
0.0
176
     0
173
     0
176
     0
  0
VISUALSTYLE
  5
887
102
{ACAD_REACTORS
330
87D
102
}
330
87D
100
AcDbVisualStyle
  2
Realistic
 70
     8
177
     2
291
     0
 71
     2
176
     1
 72
     3
176
     1
 73
     0
176
     1
 90
        2
176
     1
 40
0.6
176
     1
 41
30.0
176
     1
 63
     7
421
 16777215
176
     1
 74
     0
176
     1
 91
        0
176
     1
 64
     7
176
     1
 65
   257
176
     1
 75
     1
176
     1
175
     1
176
     1
 42
1.0
176
     1
 92
        8
176
     1
 66
   257
176
     1
 43
1.0
176
     1
 76
     1
176
     1
 77
     6
176
     1
 78
     2
176
     1
 67
     7
176
     1
 79
     3
176
     1
170
     0
176
     1
171
     0
176
     1
290
     0
176
     1
 93
       13
176
     1
 44
0.0
176
     1
173
     0
176
     1
  0
VISUALSTYLE
  5
892
102
{ACAD_REACTORS
330
87D
102
}
330
87D
100
AcDbVisualStyle
  2
Shaded
 70
    27
177
     2
291
     0
 71
     2
176
     1
 72
     2
176
     1
 73
     1
176
     1
 90
        2
176
     1
 40
0.6
176
     1
 41
30.0
176
     1
 63
     7
421
 16777215
176
     1
 74
     0
176
     1
 91
        4
176
     1
 64
     7
176
     1
 65
   257
176
     1
 75
     1
176
     1
175
     1
176
     1
 42
1.0
176
     1
 92
        8
176
     1
 66
   257
176
     1
 43
1.0
176
     1
 76
     1
176
     1
 77
     6
176
     1
 78
     2
176
     1
 67
     8
425
  7895160
176
     1
 79
     3
176
     1
170
     0
176
     1
171
     0
176
     1
290
     0
176
     1
 93
        5
176
     1
 44
0.0
176
     1
173
     0
176
     1
  0
VISUALSTYLE
  5
891
102
{ACAD_REACTORS
330
87D
102
}
330
87D
100
AcDbVisualStyle
  2
Shaded with edges
 70
    26
177
     2
291
     0
 71
     2
176
     1
 72
     2
176
     1
 73
     1
176
     1
 90
        2
176
     1
 40
0.6
176
     1
 41
30.0
176
     1
 63
     7
421
 16777215
176
     1
 74
     1
176
     1
 91
       10
176
     1
 64
     7
176
     1
 65
   257
176
     1
 75
     2
176
     1
175
     1
176
     1
 42
1.0
176
     1
 92
        8
176
     1
 66
   257
176
     1
 43
1.0
176
     1
 76
     1
176
     1
 77
     6
176
     1
 78
     2
176
     1
 67
     7
176
     1
 79
     3
176
     1
170
     0
176
     1
171
     0
176
     1
290
     0
176
     1
 93
        5
176
     1
 44
0.0
176
     1
173
     0
176
     1
  0
VISUALSTYLE
  5
88E
102
{ACAD_REACTORS
330
87D
102
}
330
87D
100
AcDbVisualStyle
  2
Shades of Gray
 70
    23
177
     2
291
     0
 71
     2
176
     1
 72
     2
176
     1
 73
     3
176
     1
 90
        0
176
     1
 40
0.6
176
     1
 41
30.0
176
     1
 63
     7
421
 16777215
176
     1
 74
     2
176
     1
 91
        2
176
     1
 64
     7
176
     1
 65
     7
176
     1
 75
     1
176
     1
175
     1
176
     1
 42
40.0
176
     1
 92
        8
176
     1
 66
     7
176
     1
 43
1.0
176
     1
 76
     1
176
     1
 77
     6
176
     1
 78
     2
176
     1
 67
     7
176
     1
 79
     3
176
     1
170
     0
176
     1
171
     0
176
     1
290
     0
176
     1
 93
        1
176
     1
 44
0.0
176
     1
173
     0
176
     1
  0
VISUALSTYLE
  5
88F
102
{ACAD_REACTORS
330
87D
102
}
330
87D
100
AcDbVisualStyle
  2
Sketchy
 70
    24
177
     2
291
     0
 71
     1
176
     1
 72
     2
176
     1
 73
     2
176
     1
 90
        0
176
     1
 40
0.6
176
     1
 41
30.0
176
     1
 63
     7
421
 16777215
176
     1
 74
     2
176
     1
 91
        2
176
     1
 64
     7
176
     1
 65
     7
176
     1
 75
     1
176
     1
175
     1
176
     1
 42
40.0
176
     1
 92
       11
176
     1
 66
     7
176
     1
 43
1.0
176
     1
 76
     1
176
     1
 77
     6
176
     1
 78
     2
176
     1
 67
     7
176
     1
 79
     6
176
     1
170
     0
176
     1
171
     0
176
     1
290
     0
176
     1
 93
        1
176
     1
 44
0.0
176
     1
173
     0
176
     1
  0
VISUALSTYLE
  5
88A
102
{ACAD_REACTORS
330
87D
102
}
330
87D
100
AcDbVisualStyle
  2
Thicken
 70
    13
177
     2
291
     1
 71
     2
176
     1
 72
     2
176
     1
 73
     0
176
     1
 90
        0
176
     1
 40
0.6
176
     1
 41
30.0
176
     1
 63
     7
421
 16777215
176
     1
 74
     1
176
     1
 91
        4
176
     1
 64
     7
176
     1
 65
   257
176
     1
 75
     1
176
     1
175
     1
176
     1
 42
1.0
176
     1
 92
       12
176
     1
 66
     7
176
     1
 43
1.0
176
     1
 76
     1
176
     1
 77
     6
176
     1
 78
     2
176
     1
 67
     7
176
     1
 79
     5
176
     1
170
     0
176
     1
171
     0
176
     1
290
     0
176
     1
 93
        1
176
     1
 44
0.0
176
     1
173
     0
176
     1
  0
VISUALSTYLE
  5
884
102
{ACAD_REACTORS
330
87D
102
}
330
87D
100
AcDbVisualStyle
  2
Wireframe
 70
     5
177
     2
291
     0
 71
     0
176
     1
 72
     2
176
     1
 73
     0
176
     1
 90
        0
176
     1
 40
0.6
176
     1
 41
30.0
176
     1
 63
     7
421
 16777215
176
     1
 74
     1
176
     1
 91
        4
176
     1
 64
     7
176
     1
 65
   257
176
     1
 75
     1
176
     1
175
     1
176
     1
 42
1.0
176
     1
 92
        0
176
     1
 66
   257
176
     1
 43
1.0
176
     1
 76
     1
176
     1
 77
     6
176
     1
 78
     2
176
     1
 67
     7
176
     1
 79
     3
176
     1
170
     0
176
     1
171
     0
176
     1
290
     0
176
     1
 93
        1
176
     1
 44
0.0
176
     1
173
     0
176
     1
  0
VISUALSTYLE
  5
890
102
{ACAD_REACTORS
330
87D
102
}
330
87D
100
AcDbVisualStyle
  2
X-Ray
 70
    25
177
     2
291
     0
 71
     2
176
     1
 72
     2
176
     1
 73
     1
176
     1
 90
        1
176
     1
 40
0.5
176
     1
 41
30.0
176
     1
 63
     7
421
 16777215
176
     1
 74
     1
176
     1
 91
        0
176
     1
 64
     7
176
     1
 65
   257
176
     1
 75
     1
176
     1
175
     1
176
     1
 42
1.0
176
     1
 92
        8
176
     1
 66
     7
176
     1
 43
1.0
176
     1
 76
     1
176
     1
 77
     6
176
     1
 78
     2
176
     1
 67
     7
176
     1
 79
     3
176
     1
170
     0
176
     1
171
     0
176
     1
290
     0
176
     1
 93
       13
176
     1
 44
0.0
176
     1
173
     0
176
     1
  0
DICTIONARYVAR
  5
929
102
{ACAD_REACTORS
330
925
102
}
330
925
100
DictionaryVariables
280
     0
  1
1:1
  0
DICTIONARYVAR
  5
927
102
{ACAD_REACTORS
330
925
102
}
330
925
100
DictionaryVariables
280
     0
  1
STANDARD
  0
DICTIONARYVAR
  5
926
102
{ACAD_REACTORS
330
925
102
}
330
925
100
DictionaryVariables
280
     0
  1
STANDARD
  0
DICTIONARYVAR
  5
92B
102
{ACAD_REACTORS
330
925
102
}
330
925
100
DictionaryVariables
280
     0
  1
1
  0
DICTIONARYVAR
  5
92C
102
{ACAD_REACTORS
330
925
102
}
330
925
100
DictionaryVariables
280
     0
  1
15
  0
DICTIONARYVAR
  5
92A
102
{ACAD_REACTORS
330
925
102
}
330
925
100
DictionaryVariables
280
     0
  1
0
  0
DICTIONARYVAR
  5
928
102
{ACAD_REACTORS
330
925
102
}
330
925
100
DictionaryVariables
280
     0
  1
0
  0
DICTIONARY
  5
86E
330
86D
100
AcDbDictionary
280
     1
281
     1
  3
BUMPTILE
360
870
  3
DIFFUSETILE
360
86F
  3
OPACITYTILE
360
873
  3
REFLECTIONTILE
360
872
  3
REFRACTIONTILE
360
874
  3
SPECULARTILE
360
871
  0
DICTIONARY
  5
866
330
865
100
AcDbDictionary
280
     1
281
     1
  3
BUMPTILE
360
868
  3
DIFFUSETILE
360
867
  3
OPACITYTILE
360
86B
  3
REFLECTIONTILE
360
86A
  3
REFRACTIONTILE
360
86C
  3
SPECULARTILE
360
869
  0
DICTIONARY
  5
876
330
875
100
AcDbDictionary
280
     1
281
     1
  3
BUMPTILE
360
878
  3
DIFFUSETILE
360
877
  3
OPACITYTILE
360
87B
  3
REFLECTIONTILE
360
87A
  3
REFRACTIONTILE
360
87C
  3
SPECULARTILE
360
879
  0
DICTIONARY
  5
92D
330
8B8
100
AcDbDictionary
280
     1
281
     1
  3
ACAD_ROUNDTRIP_2008_TABLESTYLE_CELLSTYLEMAP
360
92E
  0
XRECORD
  5
870
102
{ACAD_REACTORS
330
86E
102
}
330
86E
100
AcDbXrecord
280
     1
270
     1
271
     1
  0
XRECORD
  5
86F
102
{ACAD_REACTORS
330
86E
102
}
330
86E
100
AcDbXrecord
280
     1
270
     1
271
     1
  0
XRECORD
  5
873
102
{ACAD_REACTORS
330
86E
102
}
330
86E
100
AcDbXrecord
280
     1
270
     1
271
     1
  0
XRECORD
  5
872
102
{ACAD_REACTORS
330
86E
102
}
330
86E
100
AcDbXrecord
280
     1
270
     1
271
     1
  0
XRECORD
  5
874
102
{ACAD_REACTORS
330
86E
102
}
330
86E
100
AcDbXrecord
280
     1
270
     1
271
     1
  0
XRECORD
  5
871
102
{ACAD_REACTORS
330
86E
102
}
330
86E
100
AcDbXrecord
280
     1
270
     1
271
     1
  0
XRECORD
  5
868
102
{ACAD_REACTORS
330
866
102
}
330
866
100
AcDbXrecord
280
     1
270
     1
271
     1
  0
XRECORD
  5
867
102
{ACAD_REACTORS
330
866
102
}
330
866
100
AcDbXrecord
280
     1
270
     1
271
     1
  0
XRECORD
  5
86B
102
{ACAD_REACTORS
330
866
102
}
330
866
100
AcDbXrecord
280
     1
270
     1
271
     1
  0
XRECORD
  5
86A
102
{ACAD_REACTORS
330
866
102
}
330
866
100
AcDbXrecord
280
     1
270
     1
271
     1
  0
XRECORD
  5
86C
102
{ACAD_REACTORS
330
866
102
}
330
866
100
AcDbXrecord
280
     1
270
     1
271
     1
  0
XRECORD
  5
869
102
{ACAD_REACTORS
330
866
102
}
330
866
100
AcDbXrecord
280
     1
270
     1
271
     1
  0
XRECORD
  5
878
102
{ACAD_REACTORS
330
876
102
}
330
876
100
AcDbXrecord
280
     1
270
     1
271
     1
  0
XRECORD
  5
877
102
{ACAD_REACTORS
330
876
102
}
330
876
100
AcDbXrecord
280
     1
270
     1
271
     1
  0
XRECORD
  5
87B
102
{ACAD_REACTORS
330
876
102
}
330
876
100
AcDbXrecord
280
     1
270
     1
271
     1
  0
XRECORD
  5
87A
102
{ACAD_REACTORS
330
876
102
}
330
876
100
AcDbXrecord
280
     1
270
     1
271
     1
  0
XRECORD
  5
87C
102
{ACAD_REACTORS
330
876
102
}
330
876
100
AcDbXrecord
280
     1
270
     1
271
     1
  0
XRECORD
  5
879
102
{ACAD_REACTORS
330
876
102
}
330
876
100
AcDbXrecord
280
     1
270
     1
271
     1
  0
CELLSTYLEMAP
  5
92E
102
{ACAD_REACTORS
330
92D
102
}
330
92D
100
AcDbCellStyleMap
 90
        3
300
CELLSTYLE
  1
TABLEFORMAT_BEGIN
 90
        5
170
     1
 91
        0
 92
    32768
 62
   257
 93
        1
300
CONTENTFORMAT
  1
CONTENTFORMAT_BEGIN
 90
        0
 91
        0
 92
      512
 93
        0
300

 40
0.0
140
1.0
 94
        5
 62
     0
340
8A9
144
0.25
309
CONTENTFORMAT_END
171
     0
 94
        0
309
TABLEFORMAT_END
  1
CELLSTYLE_BEGIN
 90
        1
 91
        1
300
_TITLE
309
CELLSTYLE_END
300
CELLSTYLE
  1
TABLEFORMAT_BEGIN
 90
        5
170
     1
 91
        0
 92
        0
 62
   257
 93
        1
300
CONTENTFORMAT
  1
CONTENTFORMAT_BEGIN
 90
        0
 91
        0
 92
      512
 93
        0
300

 40
0.0
140
1.0
 94
        5
 62
     0
340
8A9
144
0.18
309
CONTENTFORMAT_END
171
     0
 94
        0
309
TABLEFORMAT_END
  1
CELLSTYLE_BEGIN
 90
        2
 91
        1
300
_HEADER
309
CELLSTYLE_END
300
CELLSTYLE
  1
TABLEFORMAT_BEGIN
 90
        5
170
     1
 91
        0
 92
        0
 62
   257
 93
        1
300
CONTENTFORMAT
  1
CONTENTFORMAT_BEGIN
 90
        0
 91
        0
 92
      512
 93
        0
300

 40
0.0
140
1.0
 94
        2
 62
     0
340
8A9
144
0.18
309
CONTENTFORMAT_END
171
     0
 94
        0
309
TABLEFORMAT_END
  1
CELLSTYLE_BEGIN
 90
        3
 91
        2
300
_DATA
309
CELLSTYLE_END
  0
ENDSEC
  0
EOF
